%TF.GenerationSoftware,KiCad,Pcbnew,10.0.3*%
%TF.CreationDate,2026-07-17T11:16:14+08:00*%
%TF.ProjectId,project,70726f6a-6563-4742-9e6b-696361645f70,rev?*%
%TF.SameCoordinates,Original*%
%TF.FileFunction,Copper,L4,Bot*%
%TF.FilePolarity,Positive*%
%FSLAX46Y46*%
G04 Gerber Fmt 4.6, Leading zero omitted, Abs format (unit mm)*
G04 Created by KiCad (PCBNEW 10.0.3) date 2026-07-17 11:16:14*
%MOMM*%
%LPD*%
G01*
G04 APERTURE LIST*
G04 Aperture macros list*
%AMRoundRect*
0 Rectangle with rounded corners*
0 $1 Rounding radius*
0 $2 $3 $4 $5 $6 $7 $8 $9 X,Y pos of 4 corners*
0 Add a 4 corners polygon primitive as box body*
4,1,4,$2,$3,$4,$5,$6,$7,$8,$9,$2,$3,0*
0 Add four circle primitives for the rounded corners*
1,1,$1+$1,$2,$3*
1,1,$1+$1,$4,$5*
1,1,$1+$1,$6,$7*
1,1,$1+$1,$8,$9*
0 Add four rect primitives between the rounded corners*
20,1,$1+$1,$2,$3,$4,$5,0*
20,1,$1+$1,$4,$5,$6,$7,0*
20,1,$1+$1,$6,$7,$8,$9,0*
20,1,$1+$1,$8,$9,$2,$3,0*%
G04 Aperture macros list end*
%TA.AperFunction,ComponentPad*%
%ADD10RoundRect,0.250001X-1.149999X1.149999X-1.149999X-1.149999X1.149999X-1.149999X1.149999X1.149999X0*%
%TD*%
%TA.AperFunction,ComponentPad*%
%ADD11C,2.800000*%
%TD*%
%TA.AperFunction,ComponentPad*%
%ADD12RoundRect,0.250000X1.150000X-1.150000X1.150000X1.150000X-1.150000X1.150000X-1.150000X-1.150000X0*%
%TD*%
%TA.AperFunction,ComponentPad*%
%ADD13C,0.600000*%
%TD*%
%TA.AperFunction,ComponentPad*%
%ADD14R,1.700000X1.700000*%
%TD*%
%TA.AperFunction,ComponentPad*%
%ADD15C,1.700000*%
%TD*%
%TA.AperFunction,ViaPad*%
%ADD16C,0.600000*%
%TD*%
%TA.AperFunction,Conductor*%
%ADD17C,0.200000*%
%TD*%
G04 APERTURE END LIST*
D10*
%TO.P,TB_PWR1,1,Pin_1_1*%
%TO.N,GND*%
X140300000Y-108500000D03*
D11*
%TO.P,TB_PWR1,2,Pin_2_2*%
%TO.N,VCC*%
X140300000Y-113500000D03*
%TD*%
D12*
%TO.P,P1,1,Pin_1_1*%
%TO.N,VCC*%
X179000000Y-121000000D03*
D11*
%TO.P,P1,2,Pin_2_2*%
%TO.N,M1*%
X179000000Y-116000000D03*
%TO.P,P1,3,Pin_3_3*%
%TO.N,M2*%
X179000000Y-111000000D03*
%TO.P,P1,4,Pin_4_4*%
%TO.N,M3*%
X179000000Y-106000000D03*
%TO.P,P1,5,Pin_5_5*%
%TO.N,GND*%
X179000000Y-101000000D03*
%TD*%
D13*
%TO.P,U1,29,EP_29*%
%TO.N,GND*%
X155134200Y-113724900D03*
X156134200Y-113724900D03*
X155134200Y-112724900D03*
X156134200Y-112724900D03*
X155134200Y-111724900D03*
X156134200Y-111724900D03*
X155134200Y-110724900D03*
X156134200Y-110724900D03*
%TD*%
D14*
%TO.P,H1,1,Pin_1_1*%
%TO.N,IN1*%
X145340000Y-91500000D03*
D15*
%TO.P,H1,2,Pin_2_2*%
%TO.N,EN1*%
X145340000Y-94040000D03*
%TO.P,H1,3,Pin_3_3*%
%TO.N,IN2*%
X147880000Y-91500000D03*
%TO.P,H1,4,Pin_4_4*%
%TO.N,EN2*%
X147880000Y-94040000D03*
%TO.P,H1,5,Pin_5_5*%
%TO.N,IN3*%
X150420000Y-91500000D03*
%TO.P,H1,6,Pin_6_6*%
%TO.N,EN3*%
X150420000Y-94040000D03*
%TO.P,H1,7,Pin_7_7*%
%TO.N,nFlt*%
X152960000Y-91500000D03*
%TO.P,H1,8,Pin_8_8*%
%TO.N,nCOMPO*%
X152960000Y-94040000D03*
%TO.P,H1,9,Pin_9_9*%
%TO.N,nRes*%
X155500000Y-91500000D03*
%TO.P,H1,10,Pin_10_10*%
%TO.N,nSlp*%
X155500000Y-94040000D03*
%TO.P,H1,11,Pin_11_11*%
%TO.N,VREF*%
X158040000Y-91500000D03*
%TO.P,H1,12,Pin_12_12*%
%TO.N,PGND*%
X158040000Y-94040000D03*
%TO.P,H1,13,Pin_13_13*%
%TO.N,GND*%
X160580000Y-91500000D03*
%TO.P,H1,14,Pin_14_14*%
%TO.N,3.3V*%
X160580000Y-94040000D03*
%TD*%
D16*
%TO.N,GND*%
X167000000Y-103000000D03*
X149000000Y-125500000D03*
X152000000Y-125500000D03*
X159100000Y-107200000D03*
X143000000Y-103000000D03*
X137000000Y-127000000D03*
X173000000Y-91000000D03*
X149000000Y-121000000D03*
X152000000Y-121000000D03*
X142400000Y-90800000D03*
X166200000Y-119400000D03*
X158900000Y-135900000D03*
X159600000Y-97600000D03*
X155000000Y-121000000D03*
X158700000Y-106100000D03*
X137000000Y-103000000D03*
X161000000Y-121000000D03*
X163300000Y-125700000D03*
X173000000Y-103000000D03*
X181500000Y-126100000D03*
X179000000Y-97000000D03*
X173600000Y-133900000D03*
X151300000Y-116500000D03*
X159400000Y-125700000D03*
X167000000Y-91000000D03*
X155000000Y-127000000D03*
X144000000Y-96700000D03*
X143000000Y-133000000D03*
X163100000Y-101900000D03*
X173000000Y-97000000D03*
X164000000Y-118400000D03*
X168800000Y-119400000D03*
X146900000Y-115100000D03*
X137000000Y-121000000D03*
X167000000Y-121000000D03*
X137000000Y-97000000D03*
%TO.N,3.3V*%
X156500000Y-101700000D03*
X152500000Y-101700000D03*
X154500000Y-101700000D03*
X150600000Y-101700000D03*
%TO.N,M1*%
X161000000Y-114000000D03*
X163000000Y-114000000D03*
X162000000Y-114000000D03*
%TO.N,M2*%
X162000000Y-111700000D03*
X164000000Y-111700000D03*
X163000000Y-111700000D03*
%TO.N,M3*%
X161500000Y-110600000D03*
X163500000Y-110600000D03*
X162500000Y-110600000D03*
%TO.N,PGND*%
X163600000Y-109000000D03*
X160800000Y-105100000D03*
%TD*%
%TO.N,3.3V*%
D17*
X156500000Y-101700000D02*
X150600000Y-101700000D01*
X154600000Y-101600000D02*
X154500000Y-101700000D01*
%TO.N,PGND*%
X160800000Y-105100000D02*
X160400000Y-105500000D01*
X160400000Y-108500000D02*
X160900000Y-109000000D01*
X161400000Y-97400000D02*
X158040000Y-94040000D01*
X161400000Y-104500000D02*
X161400000Y-97400000D01*
X160800000Y-105100000D02*
X161400000Y-104500000D01*
X160900000Y-109000000D02*
X163600000Y-109000000D01*
X160400000Y-105500000D02*
X160400000Y-108500000D01*
%TD*%
%TA.AperFunction,Conductor*%
%TO.N,M2*%
G36*
X181183365Y-108596118D02*
G01*
X181198372Y-108600492D01*
X181213397Y-108610105D01*
X181230524Y-108615101D01*
X181257207Y-108638137D01*
X181257225Y-108638149D01*
X181257239Y-108638165D01*
X181258427Y-108639531D01*
X181285974Y-108694300D01*
X181287634Y-108701857D01*
X181290522Y-108728215D01*
X181299551Y-113274259D01*
X181279999Y-113341337D01*
X181227286Y-113387197D01*
X181158582Y-113397339D01*
X181148115Y-113395893D01*
X176029279Y-113423857D01*
X176027753Y-113423856D01*
X175878167Y-113422832D01*
X175867493Y-113422298D01*
X166886888Y-112584109D01*
X161830230Y-112112153D01*
X161795918Y-112103908D01*
X161781391Y-112098129D01*
X161767345Y-112087132D01*
X161750774Y-112080538D01*
X161726385Y-112055065D01*
X161726376Y-112055058D01*
X161723535Y-112051087D01*
X161702134Y-111999644D01*
X161701738Y-111997304D01*
X161700765Y-111985730D01*
X161700549Y-111985108D01*
X161700670Y-111984600D01*
X161700000Y-111976614D01*
X161700000Y-111488022D01*
X161705023Y-111453086D01*
X161709427Y-111438088D01*
X161719059Y-111423095D01*
X161724071Y-111406011D01*
X161747177Y-111379332D01*
X161749013Y-111377740D01*
X161802753Y-111350518D01*
X161809262Y-111349038D01*
X161834430Y-111345977D01*
X164300000Y-111300000D01*
X166249716Y-110875465D01*
X177100000Y-110875465D01*
X177100000Y-111124533D01*
X177132506Y-111371452D01*
X177132507Y-111371457D01*
X177132508Y-111371463D01*
X177146343Y-111423095D01*
X177196973Y-111612051D01*
X177292285Y-111842154D01*
X177416808Y-112057833D01*
X177416816Y-112057846D01*
X177447727Y-112098129D01*
X177491400Y-112155045D01*
X178282924Y-111363520D01*
X178344245Y-111330037D01*
X178413936Y-111335021D01*
X178469870Y-111376893D01*
X178473691Y-111382292D01*
X178495112Y-111414351D01*
X178495116Y-111414355D01*
X178495116Y-111414356D01*
X178585643Y-111504883D01*
X178585646Y-111504885D01*
X178585649Y-111504888D01*
X178617685Y-111526293D01*
X178662489Y-111579904D01*
X178671197Y-111649229D01*
X178641043Y-111712257D01*
X178636475Y-111717076D01*
X177844953Y-112508597D01*
X177844953Y-112508598D01*
X177911284Y-112559496D01*
X177942152Y-112583182D01*
X177942155Y-112583184D01*
X177942158Y-112583186D01*
X178157840Y-112707711D01*
X178157851Y-112707716D01*
X178387950Y-112803026D01*
X178628536Y-112867491D01*
X178875466Y-112900000D01*
X179124527Y-112900000D01*
X179124534Y-112900000D01*
X179371463Y-112867491D01*
X179612049Y-112803026D01*
X179842148Y-112707716D01*
X179842159Y-112707711D01*
X180057855Y-112583178D01*
X180155045Y-112508600D01*
X180155045Y-112508597D01*
X179701493Y-112055045D01*
X179363524Y-111717076D01*
X179330039Y-111655753D01*
X179335023Y-111586061D01*
X179376895Y-111530128D01*
X179382270Y-111526323D01*
X179414351Y-111504888D01*
X179504888Y-111414351D01*
X179526295Y-111382312D01*
X179579903Y-111337510D01*
X179649227Y-111328801D01*
X179712256Y-111358955D01*
X179717074Y-111363522D01*
X180508597Y-112155045D01*
X180508599Y-112155045D01*
X180508600Y-112155045D01*
X180583178Y-112057855D01*
X180707711Y-111842159D01*
X180707716Y-111842148D01*
X180803026Y-111612049D01*
X180867491Y-111371463D01*
X180900000Y-111124533D01*
X180900000Y-110875466D01*
X180867491Y-110628536D01*
X180803026Y-110387950D01*
X180707716Y-110157851D01*
X180707711Y-110157840D01*
X180583186Y-109942158D01*
X180583180Y-109942150D01*
X180508598Y-109844953D01*
X180508597Y-109844953D01*
X179717076Y-110636474D01*
X179655753Y-110669959D01*
X179586061Y-110664975D01*
X179530128Y-110623103D01*
X179526293Y-110617684D01*
X179504886Y-110585646D01*
X179414356Y-110495116D01*
X179414352Y-110495113D01*
X179414351Y-110495112D01*
X179382310Y-110473703D01*
X179337507Y-110420091D01*
X179328800Y-110350766D01*
X179358955Y-110287739D01*
X179363501Y-110282942D01*
X180155045Y-109491400D01*
X180155044Y-109491399D01*
X180057846Y-109416816D01*
X180057833Y-109416808D01*
X179842154Y-109292285D01*
X179612053Y-109196974D01*
X179491756Y-109164740D01*
X179371463Y-109132508D01*
X179371462Y-109132507D01*
X179371459Y-109132507D01*
X179124535Y-109100000D01*
X179124534Y-109100000D01*
X178875466Y-109100000D01*
X178875465Y-109100000D01*
X178628546Y-109132506D01*
X178628539Y-109132507D01*
X178628536Y-109132508D01*
X178581342Y-109145153D01*
X178387947Y-109196973D01*
X178157846Y-109292284D01*
X177942150Y-109416818D01*
X177942134Y-109416829D01*
X177844953Y-109491398D01*
X177844953Y-109491400D01*
X178636475Y-110282922D01*
X178669960Y-110344245D01*
X178664976Y-110413937D01*
X178623104Y-110469870D01*
X178617688Y-110473703D01*
X178585648Y-110495112D01*
X178585643Y-110495116D01*
X178495116Y-110585643D01*
X178495112Y-110585648D01*
X178473703Y-110617688D01*
X178420090Y-110662491D01*
X178350764Y-110671197D01*
X178287738Y-110641040D01*
X178282922Y-110636475D01*
X177491400Y-109844953D01*
X177491399Y-109844953D01*
X177491398Y-109844953D01*
X177416829Y-109942134D01*
X177416818Y-109942150D01*
X177292284Y-110157846D01*
X177196973Y-110387947D01*
X177132509Y-110628533D01*
X177132506Y-110628546D01*
X177100000Y-110875465D01*
X166249716Y-110875465D01*
X176680662Y-108604210D01*
X176693634Y-108602100D01*
X176706657Y-108600685D01*
X176719788Y-108599959D01*
X181148423Y-108591164D01*
X181183365Y-108596118D01*
G37*
%TD.AperFunction*%
%TD*%
%TA.AperFunction,Conductor*%
%TO.N,M3*%
G36*
X181193106Y-103605023D02*
G01*
X181208104Y-103609427D01*
X181223094Y-103619057D01*
X181240175Y-103624067D01*
X181266855Y-103647172D01*
X181268042Y-103648541D01*
X181295518Y-103703402D01*
X181297163Y-103710960D01*
X181300000Y-103737331D01*
X181300000Y-108163325D01*
X181280315Y-108230364D01*
X181227511Y-108276119D01*
X181167400Y-108287026D01*
X181147838Y-108285666D01*
X181147820Y-108285665D01*
X181147816Y-108285665D01*
X180536969Y-108286878D01*
X176719156Y-108294460D01*
X176702940Y-108294924D01*
X176689785Y-108295651D01*
X176673647Y-108296973D01*
X176660650Y-108298385D01*
X176644587Y-108300562D01*
X176631607Y-108302674D01*
X176615666Y-108305703D01*
X172272064Y-109251487D01*
X172269099Y-109252095D01*
X163717387Y-110896656D01*
X163705733Y-110898328D01*
X163702477Y-110898638D01*
X163694049Y-110899441D01*
X163682290Y-110900000D01*
X161341830Y-110900000D01*
X161306889Y-110894975D01*
X161291890Y-110890570D01*
X161233144Y-110852827D01*
X161231957Y-110851458D01*
X161204477Y-110796583D01*
X161202832Y-110789021D01*
X161200000Y-110762668D01*
X161200000Y-110399108D01*
X161205023Y-110364172D01*
X161209427Y-110349174D01*
X161247197Y-110290401D01*
X161247199Y-110290398D01*
X161258202Y-110280864D01*
X161289933Y-110260873D01*
X163094502Y-109475767D01*
X163128527Y-109466438D01*
X163146619Y-109464169D01*
X163211212Y-109473368D01*
X163223070Y-109478490D01*
X163223070Y-109478489D01*
X163235109Y-109483689D01*
X163247932Y-109490132D01*
X163368209Y-109559573D01*
X163368216Y-109559577D01*
X163520943Y-109600500D01*
X163520945Y-109600500D01*
X163679055Y-109600500D01*
X163679057Y-109600500D01*
X163831784Y-109559577D01*
X163968716Y-109480520D01*
X164080520Y-109368716D01*
X164159577Y-109231784D01*
X164200500Y-109079057D01*
X164200500Y-109079052D01*
X164201909Y-109073794D01*
X164203965Y-109064060D01*
X164209928Y-109043754D01*
X164230554Y-109011663D01*
X164247699Y-108984986D01*
X164247699Y-108984985D01*
X164258704Y-108975449D01*
X164290433Y-108955459D01*
X171369825Y-105875465D01*
X177100000Y-105875465D01*
X177100000Y-106124533D01*
X177132506Y-106371452D01*
X177132507Y-106371457D01*
X177132508Y-106371463D01*
X177162426Y-106483121D01*
X177196973Y-106612051D01*
X177292285Y-106842154D01*
X177416808Y-107057833D01*
X177416816Y-107057846D01*
X177416824Y-107057856D01*
X177491400Y-107155045D01*
X178282924Y-106363520D01*
X178344245Y-106330037D01*
X178413936Y-106335021D01*
X178469870Y-106376893D01*
X178473691Y-106382292D01*
X178495112Y-106414351D01*
X178495116Y-106414355D01*
X178495116Y-106414356D01*
X178585643Y-106504883D01*
X178585646Y-106504885D01*
X178585649Y-106504888D01*
X178617685Y-106526293D01*
X178662489Y-106579904D01*
X178671197Y-106649229D01*
X178641043Y-106712257D01*
X178636475Y-106717076D01*
X177844953Y-107508597D01*
X177844953Y-107508598D01*
X177911284Y-107559496D01*
X177942152Y-107583182D01*
X177942155Y-107583184D01*
X177942158Y-107583186D01*
X178157840Y-107707711D01*
X178157851Y-107707716D01*
X178387950Y-107803026D01*
X178628536Y-107867491D01*
X178875466Y-107900000D01*
X179124527Y-107900000D01*
X179124534Y-107900000D01*
X179371463Y-107867491D01*
X179612049Y-107803026D01*
X179842148Y-107707716D01*
X179842159Y-107707711D01*
X180057855Y-107583178D01*
X180155045Y-107508600D01*
X180155045Y-107508597D01*
X179704281Y-107057833D01*
X179363524Y-106717076D01*
X179330039Y-106655753D01*
X179335023Y-106586061D01*
X179376895Y-106530128D01*
X179382270Y-106526323D01*
X179414351Y-106504888D01*
X179504888Y-106414351D01*
X179526295Y-106382312D01*
X179579903Y-106337510D01*
X179649227Y-106328801D01*
X179712256Y-106358955D01*
X179717074Y-106363522D01*
X180508597Y-107155045D01*
X180508599Y-107155045D01*
X180508600Y-107155045D01*
X180583178Y-107057855D01*
X180707711Y-106842159D01*
X180707716Y-106842148D01*
X180803026Y-106612049D01*
X180867491Y-106371463D01*
X180900000Y-106124533D01*
X180900000Y-105875466D01*
X180867491Y-105628536D01*
X180803026Y-105387950D01*
X180707716Y-105157851D01*
X180707711Y-105157840D01*
X180583186Y-104942158D01*
X180583180Y-104942150D01*
X180508598Y-104844953D01*
X180508597Y-104844953D01*
X179717076Y-105636474D01*
X179655753Y-105669959D01*
X179586061Y-105664975D01*
X179530128Y-105623103D01*
X179526293Y-105617684D01*
X179504886Y-105585646D01*
X179414356Y-105495116D01*
X179414352Y-105495113D01*
X179414351Y-105495112D01*
X179382310Y-105473703D01*
X179337507Y-105420091D01*
X179328800Y-105350766D01*
X179358955Y-105287739D01*
X179363501Y-105282942D01*
X180155045Y-104491400D01*
X180155044Y-104491399D01*
X180057846Y-104416816D01*
X180057833Y-104416808D01*
X179842154Y-104292285D01*
X179612053Y-104196974D01*
X179491756Y-104164740D01*
X179371463Y-104132508D01*
X179371462Y-104132507D01*
X179371459Y-104132507D01*
X179124535Y-104100000D01*
X179124534Y-104100000D01*
X178875466Y-104100000D01*
X178875465Y-104100000D01*
X178628546Y-104132506D01*
X178628539Y-104132507D01*
X178628536Y-104132508D01*
X178581342Y-104145153D01*
X178387947Y-104196973D01*
X178157846Y-104292284D01*
X177942150Y-104416818D01*
X177942134Y-104416829D01*
X177844953Y-104491398D01*
X177844953Y-104491400D01*
X178636475Y-105282922D01*
X178669960Y-105344245D01*
X178664976Y-105413937D01*
X178623104Y-105469870D01*
X178617688Y-105473703D01*
X178585648Y-105495112D01*
X178585643Y-105495116D01*
X178495116Y-105585643D01*
X178495112Y-105585648D01*
X178473703Y-105617688D01*
X178420090Y-105662491D01*
X178350764Y-105671197D01*
X178287738Y-105641040D01*
X178282922Y-105636475D01*
X177491400Y-104844953D01*
X177491399Y-104844953D01*
X177491398Y-104844953D01*
X177416829Y-104942134D01*
X177416818Y-104942150D01*
X177292284Y-105157846D01*
X177196973Y-105387947D01*
X177132509Y-105628533D01*
X177132506Y-105628546D01*
X177100000Y-105875465D01*
X171369825Y-105875465D01*
X174275022Y-104611516D01*
X174702242Y-104425648D01*
X176564638Y-103615384D01*
X176588830Y-103607694D01*
X176613313Y-103602599D01*
X176638572Y-103600000D01*
X181158170Y-103600000D01*
X181193106Y-103605023D01*
G37*
%TD.AperFunction*%
%TD*%
%TA.AperFunction,Conductor*%
%TO.N,M1*%
G36*
X176028254Y-113729368D02*
G01*
X181149784Y-113701388D01*
X181216929Y-113720706D01*
X181262971Y-113773259D01*
X181274458Y-113824709D01*
X181299319Y-118375323D01*
X181280001Y-118442469D01*
X181227448Y-118488511D01*
X181175321Y-118500000D01*
X176416300Y-118500000D01*
X176384255Y-118495788D01*
X175933945Y-118375323D01*
X172962575Y-117580434D01*
X167021853Y-115991196D01*
X166589243Y-115875466D01*
X177100000Y-115875466D01*
X177100000Y-116124533D01*
X177132508Y-116371463D01*
X177196973Y-116612049D01*
X177292283Y-116842148D01*
X177292288Y-116842159D01*
X177416813Y-117057841D01*
X177416819Y-117057849D01*
X177491400Y-117155045D01*
X178398958Y-116247487D01*
X178423978Y-116307890D01*
X178495112Y-116414351D01*
X178585649Y-116504888D01*
X178692110Y-116576022D01*
X178752511Y-116601041D01*
X177844953Y-117508598D01*
X177942150Y-117583180D01*
X177942158Y-117583186D01*
X178157840Y-117707711D01*
X178157851Y-117707716D01*
X178387950Y-117803026D01*
X178628536Y-117867491D01*
X178875466Y-117900000D01*
X179124534Y-117900000D01*
X179371463Y-117867491D01*
X179612049Y-117803026D01*
X179842148Y-117707716D01*
X179842159Y-117707711D01*
X180057855Y-117583178D01*
X180155045Y-117508600D01*
X180155045Y-117508597D01*
X179247488Y-116601041D01*
X179307890Y-116576022D01*
X179414351Y-116504888D01*
X179504888Y-116414351D01*
X179576022Y-116307890D01*
X179601041Y-116247489D01*
X180508597Y-117155045D01*
X180508600Y-117155045D01*
X180583178Y-117057855D01*
X180707711Y-116842159D01*
X180707716Y-116842148D01*
X180803026Y-116612049D01*
X180867491Y-116371463D01*
X180900000Y-116124533D01*
X180900000Y-115875466D01*
X180867491Y-115628536D01*
X180803026Y-115387950D01*
X180707716Y-115157851D01*
X180707711Y-115157840D01*
X180583186Y-114942158D01*
X180583180Y-114942150D01*
X180508598Y-114844953D01*
X179601041Y-115752510D01*
X179576022Y-115692110D01*
X179504888Y-115585649D01*
X179414351Y-115495112D01*
X179307890Y-115423978D01*
X179247487Y-115398957D01*
X180155045Y-114491400D01*
X180057849Y-114416819D01*
X180057841Y-114416813D01*
X179842159Y-114292288D01*
X179842148Y-114292283D01*
X179612049Y-114196973D01*
X179371463Y-114132508D01*
X179124534Y-114100000D01*
X178875466Y-114100000D01*
X178628536Y-114132508D01*
X178387950Y-114196973D01*
X178157851Y-114292283D01*
X178157847Y-114292285D01*
X177942143Y-114416823D01*
X177844953Y-114491399D01*
X177844953Y-114491400D01*
X178752511Y-115398958D01*
X178692110Y-115423978D01*
X178585649Y-115495112D01*
X178495112Y-115585649D01*
X178423978Y-115692110D01*
X178398958Y-115752511D01*
X177491400Y-114844953D01*
X177491399Y-114844953D01*
X177416823Y-114942143D01*
X177292285Y-115157847D01*
X177292283Y-115157851D01*
X177196973Y-115387950D01*
X177132508Y-115628536D01*
X177100000Y-115875466D01*
X166589243Y-115875466D01*
X162042505Y-114659141D01*
X160793716Y-114325070D01*
X160734041Y-114288729D01*
X160703486Y-114225894D01*
X160701782Y-114203009D01*
X160710160Y-113747133D01*
X160731073Y-113680470D01*
X160784709Y-113635693D01*
X160834984Y-113625418D01*
X176028254Y-113729368D01*
G37*
%TD.AperFunction*%
%TD*%
%TA.AperFunction,Conductor*%
%TO.N,GND*%
G36*
X178478072Y-88602543D02*
G01*
X178481456Y-88602076D01*
X178483498Y-88603622D01*
X178483578Y-88603638D01*
X178483579Y-88603638D01*
X178484309Y-88603783D01*
X178484310Y-88603784D01*
X178489777Y-88604871D01*
X178489778Y-88604872D01*
X178489779Y-88604872D01*
X178495602Y-88607284D01*
X178494290Y-88610449D01*
X178525044Y-88630986D01*
X178534614Y-88679026D01*
X178507411Y-88719761D01*
X178496330Y-88725686D01*
X178459081Y-88741114D01*
X178459045Y-88741113D01*
X178458719Y-88741265D01*
X178146747Y-88908020D01*
X178146714Y-88908040D01*
X177852601Y-89104560D01*
X177852591Y-89104568D01*
X177578129Y-89329812D01*
X177576601Y-89331522D01*
X177331522Y-89576601D01*
X177329812Y-89578129D01*
X177104568Y-89852591D01*
X177104560Y-89852601D01*
X176908040Y-90146714D01*
X176908020Y-90146747D01*
X176741265Y-90458719D01*
X176741229Y-90458797D01*
X176741096Y-90459125D01*
X176605882Y-90785558D01*
X176503196Y-91124073D01*
X176503189Y-91124102D01*
X176503178Y-91124147D01*
X176434175Y-91471050D01*
X176399500Y-91823117D01*
X176399500Y-92176880D01*
X176434175Y-92528948D01*
X176503178Y-92875851D01*
X176503189Y-92875896D01*
X176503196Y-92875925D01*
X176605882Y-93214439D01*
X176741096Y-93540873D01*
X176741234Y-93541213D01*
X176741265Y-93541279D01*
X176838803Y-93723757D01*
X176908023Y-93853257D01*
X176908034Y-93853275D01*
X176908039Y-93853283D01*
X176908040Y-93853284D01*
X177104560Y-94147397D01*
X177104568Y-94147407D01*
X177275954Y-94356243D01*
X177328986Y-94420862D01*
X177579137Y-94671013D01*
X177672722Y-94747816D01*
X177852598Y-94895436D01*
X177998733Y-94993080D01*
X178114005Y-95070103D01*
X178145684Y-95091270D01*
X178145696Y-95091278D01*
X178146734Y-95091972D01*
X178146739Y-95091975D01*
X178146741Y-95091976D01*
X178342044Y-95196368D01*
X178458727Y-95258737D01*
X178458729Y-95258738D01*
X178537961Y-95291557D01*
X178781203Y-95392312D01*
X178786534Y-95394520D01*
X178788570Y-95395030D01*
X179048847Y-95473983D01*
X179124095Y-95496809D01*
X179124110Y-95496812D01*
X179124114Y-95496813D01*
X179462717Y-95564165D01*
X179471060Y-95565825D01*
X179765900Y-95594864D01*
X179823118Y-95600500D01*
X179823119Y-95600500D01*
X180176881Y-95600500D01*
X180176882Y-95600500D01*
X180226100Y-95595652D01*
X180528940Y-95565825D01*
X180875905Y-95496809D01*
X181214435Y-95394118D01*
X181541269Y-95258739D01*
X181853259Y-95091976D01*
X182147402Y-94895436D01*
X182420864Y-94671012D01*
X182671012Y-94420864D01*
X182895436Y-94147402D01*
X183091976Y-93853259D01*
X183258739Y-93541269D01*
X183272002Y-93509247D01*
X183285876Y-93488486D01*
X183290749Y-93483613D01*
X183336006Y-93464873D01*
X183381254Y-93483618D01*
X183381255Y-93483619D01*
X183381256Y-93483622D01*
X183381258Y-93483623D01*
X183386471Y-93496212D01*
X183400000Y-93528874D01*
X183400000Y-132465286D01*
X183395122Y-132489792D01*
X183392485Y-132496154D01*
X183357841Y-132530782D01*
X183308857Y-132530770D01*
X183274236Y-132496142D01*
X183258890Y-132459097D01*
X183258758Y-132458774D01*
X183258743Y-132458741D01*
X183258739Y-132458732D01*
X183258737Y-132458727D01*
X183224506Y-132394687D01*
X183091976Y-132146741D01*
X182895436Y-131852598D01*
X182671012Y-131579136D01*
X182420864Y-131328988D01*
X182147402Y-131104564D01*
X182147333Y-131104518D01*
X182138041Y-131098308D01*
X182138041Y-131098309D01*
X182138040Y-131098308D01*
X182044821Y-131036021D01*
X181853285Y-130908040D01*
X181853275Y-130908034D01*
X181853257Y-130908023D01*
X181785149Y-130871618D01*
X181541279Y-130741265D01*
X181541213Y-130741234D01*
X181540873Y-130741096D01*
X181214440Y-130605882D01*
X180876760Y-130503450D01*
X180875910Y-130503192D01*
X180875881Y-130503185D01*
X180528948Y-130434175D01*
X180176883Y-130399500D01*
X180176882Y-130399500D01*
X180176881Y-130399500D01*
X179823119Y-130399500D01*
X179823118Y-130399500D01*
X179823117Y-130399500D01*
X179471050Y-130434175D01*
X179124147Y-130503178D01*
X179124102Y-130503189D01*
X179124073Y-130503196D01*
X178785558Y-130605882D01*
X178459125Y-130741096D01*
X178458797Y-130741229D01*
X178458719Y-130741265D01*
X178146747Y-130908020D01*
X178146714Y-130908040D01*
X177852601Y-131104560D01*
X177852591Y-131104568D01*
X177578129Y-131329812D01*
X177576601Y-131331522D01*
X177331522Y-131576601D01*
X177329812Y-131578129D01*
X177104568Y-131852591D01*
X177104560Y-131852601D01*
X176908040Y-132146714D01*
X176908020Y-132146747D01*
X176741265Y-132458719D01*
X176741229Y-132458797D01*
X176741096Y-132459125D01*
X176605882Y-132785558D01*
X176503196Y-133124073D01*
X176503189Y-133124102D01*
X176503178Y-133124147D01*
X176434175Y-133471050D01*
X176399500Y-133823117D01*
X176399500Y-134176881D01*
X176434175Y-134528948D01*
X176503178Y-134875851D01*
X176503189Y-134875896D01*
X176503196Y-134875925D01*
X176605882Y-135214439D01*
X176739953Y-135538115D01*
X176739959Y-135538127D01*
X176741260Y-135541267D01*
X176741262Y-135541272D01*
X176771675Y-135598170D01*
X176771676Y-135598171D01*
X176907120Y-135851570D01*
X176907121Y-135851570D01*
X176907125Y-135851578D01*
X176908023Y-135853257D01*
X176908034Y-135853275D01*
X177005636Y-135999347D01*
X177104560Y-136147397D01*
X177104564Y-136147402D01*
X177104568Y-136147407D01*
X177328178Y-136419878D01*
X177328988Y-136420864D01*
X177579136Y-136671012D01*
X177852598Y-136895436D01*
X177998732Y-136993079D01*
X177998733Y-136993080D01*
X178145684Y-137091270D01*
X178145696Y-137091278D01*
X178146734Y-137091972D01*
X178146739Y-137091975D01*
X178146741Y-137091976D01*
X178458731Y-137258739D01*
X178490746Y-137272000D01*
X178511509Y-137285873D01*
X178516381Y-137290745D01*
X178535126Y-137336000D01*
X178516381Y-137381255D01*
X178471126Y-137400000D01*
X139534713Y-137400000D01*
X139510221Y-137395127D01*
X139503851Y-137392489D01*
X139469218Y-137357851D01*
X139469220Y-137308871D01*
X139469223Y-137308864D01*
X139503856Y-137274235D01*
X139541269Y-137258739D01*
X139853259Y-137091976D01*
X140147402Y-136895436D01*
X140420864Y-136671012D01*
X140671012Y-136420864D01*
X140895436Y-136147402D01*
X141091976Y-135853259D01*
X141258739Y-135541269D01*
X141394118Y-135214435D01*
X141496809Y-134875905D01*
X141565825Y-134528940D01*
X141600500Y-134176881D01*
X141600500Y-133823119D01*
X141565825Y-133471060D01*
X141564165Y-133462717D01*
X141496813Y-133124114D01*
X141496810Y-133124102D01*
X141496809Y-133124095D01*
X141394118Y-132785565D01*
X141258739Y-132458731D01*
X141091976Y-132146741D01*
X140895436Y-131852598D01*
X140671012Y-131579136D01*
X140420864Y-131328988D01*
X140147402Y-131104564D01*
X140147333Y-131104518D01*
X140138041Y-131098308D01*
X140138041Y-131098309D01*
X140138040Y-131098308D01*
X140044821Y-131036021D01*
X139853285Y-130908040D01*
X139853275Y-130908034D01*
X139853257Y-130908023D01*
X139785149Y-130871618D01*
X139541279Y-130741265D01*
X139541213Y-130741234D01*
X139540873Y-130741096D01*
X139214440Y-130605882D01*
X138876760Y-130503450D01*
X138875910Y-130503192D01*
X138875881Y-130503185D01*
X138528948Y-130434175D01*
X138176883Y-130399500D01*
X138176882Y-130399500D01*
X138176881Y-130399500D01*
X137823119Y-130399500D01*
X137823118Y-130399500D01*
X137823117Y-130399500D01*
X137471050Y-130434175D01*
X137124147Y-130503178D01*
X137124102Y-130503189D01*
X137124073Y-130503196D01*
X136785558Y-130605882D01*
X136459125Y-130741096D01*
X136458797Y-130741229D01*
X136458719Y-130741265D01*
X136146747Y-130908020D01*
X136146714Y-130908040D01*
X135852601Y-131104560D01*
X135852591Y-131104568D01*
X135578129Y-131329812D01*
X135576601Y-131331522D01*
X135331522Y-131576601D01*
X135329812Y-131578129D01*
X135104568Y-131852591D01*
X135104560Y-131852601D01*
X134908040Y-132146714D01*
X134908020Y-132146747D01*
X134741265Y-132458719D01*
X134741237Y-132458780D01*
X134741097Y-132459125D01*
X134728000Y-132490745D01*
X134714126Y-132511509D01*
X134709255Y-132516380D01*
X134697493Y-132521251D01*
X134693363Y-132525382D01*
X134687521Y-132525382D01*
X134664000Y-132535125D01*
X134618746Y-132516380D01*
X134618744Y-132516378D01*
X134600000Y-132471125D01*
X134600000Y-113375420D01*
X138399500Y-113375420D01*
X138399500Y-113624578D01*
X138432014Y-113871553D01*
X138432017Y-113871565D01*
X138432021Y-113871582D01*
X138496496Y-114112204D01*
X138496496Y-114112205D01*
X138591828Y-114342359D01*
X138591831Y-114342364D01*
X138591835Y-114342371D01*
X138591836Y-114342373D01*
X138716401Y-114558127D01*
X138868062Y-114755776D01*
X139044224Y-114931938D01*
X139241873Y-115083599D01*
X139457210Y-115207923D01*
X139457736Y-115208227D01*
X139458505Y-115208559D01*
X139458750Y-115208669D01*
X139459704Y-115209025D01*
X139687792Y-115303502D01*
X139928426Y-115367980D01*
X139928440Y-115367983D01*
X140078908Y-115387792D01*
X140175435Y-115400500D01*
X140424565Y-115400500D01*
X140424567Y-115400500D01*
X140424569Y-115400499D01*
X140577526Y-115380362D01*
X140667412Y-115368528D01*
X140669389Y-115368399D01*
X140669685Y-115368343D01*
X140671548Y-115368041D01*
X140674239Y-115367274D01*
X140674364Y-115367288D01*
X140675235Y-115366999D01*
X140728790Y-115352648D01*
X140912207Y-115303502D01*
X141142364Y-115208168D01*
X141142365Y-115208167D01*
X141142373Y-115208164D01*
X141142377Y-115208161D01*
X141142755Y-115208005D01*
X141144136Y-115207145D01*
X141358127Y-115083599D01*
X141555776Y-114931938D01*
X141731938Y-114755776D01*
X141883599Y-114558127D01*
X142008164Y-114342373D01*
X142068588Y-114196498D01*
X142103502Y-114112207D01*
X142159975Y-113901449D01*
X142167980Y-113871573D01*
X142167983Y-113871559D01*
X142200225Y-113626648D01*
X142200395Y-113625622D01*
X142200500Y-113624569D01*
X142200500Y-113375429D01*
X142200396Y-113374379D01*
X142200225Y-113373353D01*
X142198090Y-113357134D01*
X142167982Y-113128435D01*
X142104043Y-112889813D01*
X142103661Y-112888174D01*
X142061219Y-112785713D01*
X142008168Y-112657635D01*
X142008165Y-112657630D01*
X142008164Y-112657627D01*
X141883599Y-112441873D01*
X141731938Y-112244224D01*
X141555776Y-112068062D01*
X141358127Y-111916401D01*
X141142373Y-111791836D01*
X141142371Y-111791835D01*
X141142364Y-111791831D01*
X141142359Y-111791828D01*
X140912205Y-111696496D01*
X140671582Y-111632021D01*
X140671565Y-111632017D01*
X140671552Y-111632014D01*
X140671553Y-111632014D01*
X140424578Y-111599500D01*
X140424570Y-111599500D01*
X140424565Y-111599500D01*
X140175435Y-111599500D01*
X140175429Y-111599500D01*
X140175420Y-111599500D01*
X139928445Y-111632014D01*
X139928433Y-111632017D01*
X139928416Y-111632021D01*
X139687794Y-111696496D01*
X139687792Y-111696496D01*
X139457643Y-111791826D01*
X139241875Y-111916399D01*
X139044226Y-112068060D01*
X138868060Y-112244226D01*
X138716399Y-112441875D01*
X138591826Y-112657643D01*
X138496496Y-112887792D01*
X138496496Y-112887794D01*
X138432021Y-113128416D01*
X138432017Y-113128433D01*
X138432014Y-113128445D01*
X138399500Y-113375420D01*
X134600000Y-113375420D01*
X134600000Y-101621152D01*
X149799500Y-101621152D01*
X149799500Y-101778846D01*
X149830066Y-101932511D01*
X149830218Y-101933346D01*
X149830264Y-101933505D01*
X149882897Y-102060568D01*
X149890606Y-102079179D01*
X149978211Y-102210289D01*
X150089711Y-102321789D01*
X150220820Y-102409393D01*
X150220824Y-102409396D01*
X150284355Y-102435711D01*
X150284356Y-102435711D01*
X150363616Y-102468542D01*
X150365875Y-102469611D01*
X150366493Y-102469733D01*
X150366498Y-102469736D01*
X150366502Y-102469736D01*
X150366503Y-102469737D01*
X150405166Y-102477427D01*
X150428366Y-102482042D01*
X150521152Y-102500500D01*
X150678845Y-102500500D01*
X150678848Y-102500500D01*
X150725353Y-102491248D01*
X150771635Y-102482042D01*
X150833497Y-102469737D01*
X150833498Y-102469736D01*
X150833501Y-102469736D01*
X150870705Y-102454324D01*
X150883874Y-102448870D01*
X150883875Y-102448870D01*
X150948039Y-102422291D01*
X150979179Y-102409394D01*
X151110289Y-102321789D01*
X151110293Y-102321784D01*
X151110917Y-102321368D01*
X151121975Y-102315458D01*
X151146328Y-102305370D01*
X151170817Y-102300500D01*
X151929183Y-102300500D01*
X151953670Y-102305370D01*
X151978024Y-102315458D01*
X151989082Y-102321368D01*
X151989708Y-102321786D01*
X151989711Y-102321789D01*
X152120820Y-102409393D01*
X152120824Y-102409396D01*
X152184355Y-102435711D01*
X152184356Y-102435711D01*
X152263616Y-102468542D01*
X152265875Y-102469611D01*
X152266493Y-102469733D01*
X152266498Y-102469736D01*
X152266502Y-102469736D01*
X152266503Y-102469737D01*
X152305166Y-102477427D01*
X152328366Y-102482042D01*
X152421152Y-102500500D01*
X152578845Y-102500500D01*
X152578848Y-102500500D01*
X152625353Y-102491248D01*
X152671635Y-102482042D01*
X152733497Y-102469737D01*
X152733498Y-102469736D01*
X152733501Y-102469736D01*
X152770705Y-102454324D01*
X152783874Y-102448870D01*
X152783875Y-102448870D01*
X152848039Y-102422291D01*
X152879179Y-102409394D01*
X153010289Y-102321789D01*
X153010293Y-102321784D01*
X153010917Y-102321368D01*
X153021975Y-102315458D01*
X153046328Y-102305370D01*
X153070817Y-102300500D01*
X153929183Y-102300500D01*
X153953670Y-102305370D01*
X153978024Y-102315458D01*
X153989082Y-102321368D01*
X153989708Y-102321786D01*
X153989711Y-102321789D01*
X154120820Y-102409393D01*
X154120824Y-102409396D01*
X154184355Y-102435711D01*
X154184356Y-102435711D01*
X154263616Y-102468542D01*
X154265875Y-102469611D01*
X154266493Y-102469733D01*
X154266498Y-102469736D01*
X154266502Y-102469736D01*
X154266503Y-102469737D01*
X154305166Y-102477427D01*
X154328366Y-102482042D01*
X154421152Y-102500500D01*
X154578845Y-102500500D01*
X154578848Y-102500500D01*
X154625353Y-102491248D01*
X154671635Y-102482042D01*
X154733497Y-102469737D01*
X154733498Y-102469736D01*
X154733501Y-102469736D01*
X154770705Y-102454324D01*
X154783874Y-102448870D01*
X154783875Y-102448870D01*
X154848039Y-102422291D01*
X154879179Y-102409394D01*
X155010289Y-102321789D01*
X155010293Y-102321784D01*
X155010917Y-102321368D01*
X155021975Y-102315458D01*
X155046328Y-102305370D01*
X155070817Y-102300500D01*
X155929183Y-102300500D01*
X155953670Y-102305370D01*
X155978024Y-102315458D01*
X155989082Y-102321368D01*
X155989708Y-102321786D01*
X155989711Y-102321789D01*
X156120820Y-102409393D01*
X156120824Y-102409396D01*
X156184355Y-102435711D01*
X156184356Y-102435711D01*
X156263616Y-102468542D01*
X156265875Y-102469611D01*
X156266493Y-102469733D01*
X156266498Y-102469736D01*
X156266502Y-102469736D01*
X156266503Y-102469737D01*
X156305166Y-102477427D01*
X156328366Y-102482042D01*
X156421152Y-102500500D01*
X156578845Y-102500500D01*
X156578848Y-102500500D01*
X156625353Y-102491248D01*
X156671635Y-102482042D01*
X156733497Y-102469737D01*
X156733498Y-102469736D01*
X156733501Y-102469736D01*
X156770705Y-102454324D01*
X156783874Y-102448870D01*
X156783875Y-102448870D01*
X156848039Y-102422291D01*
X156879179Y-102409394D01*
X157010289Y-102321789D01*
X157121789Y-102210289D01*
X157209394Y-102079179D01*
X157248869Y-101983875D01*
X157269736Y-101933501D01*
X157269737Y-101933495D01*
X157300500Y-101778844D01*
X157300500Y-101621155D01*
X157300499Y-101621152D01*
X157291671Y-101576774D01*
X157269737Y-101466504D01*
X157269736Y-101466498D01*
X157235711Y-101384356D01*
X157235515Y-101383882D01*
X157209396Y-101320824D01*
X157209393Y-101320820D01*
X157121789Y-101189711D01*
X157010289Y-101078211D01*
X156879179Y-100990606D01*
X156860568Y-100982897D01*
X156733505Y-100930264D01*
X156733346Y-100930218D01*
X156732511Y-100930066D01*
X156578848Y-100899500D01*
X156578845Y-100899500D01*
X156578842Y-100899500D01*
X156421158Y-100899500D01*
X156421155Y-100899500D01*
X156421152Y-100899500D01*
X156267487Y-100930066D01*
X156266655Y-100930218D01*
X156266493Y-100930264D01*
X156122924Y-100989734D01*
X156121559Y-100990243D01*
X156120821Y-100990605D01*
X156120820Y-100990606D01*
X155989709Y-101078212D01*
X155989707Y-101078213D01*
X155989084Y-101078630D01*
X155978021Y-101084542D01*
X155953672Y-101094628D01*
X155929183Y-101099500D01*
X155070817Y-101099500D01*
X155046326Y-101094628D01*
X155021978Y-101084542D01*
X155010915Y-101078630D01*
X155010291Y-101078213D01*
X155010290Y-101078212D01*
X154879179Y-100990606D01*
X154860568Y-100982897D01*
X154733505Y-100930264D01*
X154733346Y-100930218D01*
X154732511Y-100930066D01*
X154578848Y-100899500D01*
X154578845Y-100899500D01*
X154578842Y-100899500D01*
X154421158Y-100899500D01*
X154421155Y-100899500D01*
X154421152Y-100899500D01*
X154267487Y-100930066D01*
X154266655Y-100930218D01*
X154266493Y-100930264D01*
X154122924Y-100989734D01*
X154121559Y-100990243D01*
X154120821Y-100990605D01*
X154120820Y-100990606D01*
X153989709Y-101078212D01*
X153989707Y-101078213D01*
X153989084Y-101078630D01*
X153978021Y-101084542D01*
X153953672Y-101094628D01*
X153929183Y-101099500D01*
X153070817Y-101099500D01*
X153046326Y-101094628D01*
X153021978Y-101084542D01*
X153010915Y-101078630D01*
X153010291Y-101078213D01*
X153010290Y-101078212D01*
X152879179Y-100990606D01*
X152860568Y-100982897D01*
X152733505Y-100930264D01*
X152733346Y-100930218D01*
X152732511Y-100930066D01*
X152578848Y-100899500D01*
X152578845Y-100899500D01*
X152578842Y-100899500D01*
X152421158Y-100899500D01*
X152421155Y-100899500D01*
X152421152Y-100899500D01*
X152267487Y-100930066D01*
X152266655Y-100930218D01*
X152266493Y-100930264D01*
X152122924Y-100989734D01*
X152121559Y-100990243D01*
X152120821Y-100990605D01*
X152120820Y-100990606D01*
X151989709Y-101078212D01*
X151989707Y-101078213D01*
X151989084Y-101078630D01*
X151978021Y-101084542D01*
X151953672Y-101094628D01*
X151929183Y-101099500D01*
X151170817Y-101099500D01*
X151146326Y-101094628D01*
X151121978Y-101084542D01*
X151110915Y-101078630D01*
X151110291Y-101078213D01*
X151110290Y-101078212D01*
X150979179Y-100990606D01*
X150960568Y-100982897D01*
X150833505Y-100930264D01*
X150833346Y-100930218D01*
X150832511Y-100930066D01*
X150678848Y-100899500D01*
X150678845Y-100899500D01*
X150678842Y-100899500D01*
X150521158Y-100899500D01*
X150521155Y-100899500D01*
X150521152Y-100899500D01*
X150367487Y-100930066D01*
X150366655Y-100930218D01*
X150366493Y-100930264D01*
X150222924Y-100989734D01*
X150221559Y-100990243D01*
X150220821Y-100990605D01*
X150089707Y-101078213D01*
X149978213Y-101189707D01*
X149890605Y-101320821D01*
X149890243Y-101321559D01*
X149889734Y-101322924D01*
X149830264Y-101466493D01*
X149830218Y-101466655D01*
X149830066Y-101467487D01*
X149799500Y-101621152D01*
X134600000Y-101621152D01*
X134600000Y-93534712D01*
X134604872Y-93510221D01*
X134607508Y-93503857D01*
X134642144Y-93469220D01*
X134691126Y-93469220D01*
X134691127Y-93469220D01*
X134725764Y-93503856D01*
X134733109Y-93521588D01*
X134741097Y-93540873D01*
X134741240Y-93541224D01*
X134741265Y-93541279D01*
X134838803Y-93723757D01*
X134908023Y-93853257D01*
X134908034Y-93853275D01*
X134908039Y-93853283D01*
X134908040Y-93853284D01*
X135104560Y-94147397D01*
X135104568Y-94147407D01*
X135275954Y-94356243D01*
X135328986Y-94420862D01*
X135579137Y-94671013D01*
X135672722Y-94747816D01*
X135852598Y-94895436D01*
X135998733Y-94993080D01*
X136114005Y-95070103D01*
X136145684Y-95091270D01*
X136145696Y-95091278D01*
X136146734Y-95091972D01*
X136146739Y-95091975D01*
X136146741Y-95091976D01*
X136342044Y-95196368D01*
X136458727Y-95258737D01*
X136458729Y-95258738D01*
X136537961Y-95291557D01*
X136781203Y-95392312D01*
X136786534Y-95394520D01*
X136788570Y-95395030D01*
X137048847Y-95473983D01*
X137124095Y-95496809D01*
X137124110Y-95496812D01*
X137124114Y-95496813D01*
X137462717Y-95564165D01*
X137471060Y-95565825D01*
X137765900Y-95594864D01*
X137823118Y-95600500D01*
X137823119Y-95600500D01*
X138176881Y-95600500D01*
X138176882Y-95600500D01*
X138226100Y-95595652D01*
X138528940Y-95565825D01*
X138875905Y-95496809D01*
X139214435Y-95394118D01*
X139541269Y-95258739D01*
X139853259Y-95091976D01*
X140147402Y-94895436D01*
X140420864Y-94671012D01*
X140671012Y-94420864D01*
X140895436Y-94147402D01*
X141091976Y-93853259D01*
X141258739Y-93541269D01*
X141394118Y-93214435D01*
X141496809Y-92875905D01*
X141565825Y-92528940D01*
X141600500Y-92176881D01*
X141600500Y-91823119D01*
X141565825Y-91471060D01*
X141508677Y-91183757D01*
X141496813Y-91124114D01*
X141496810Y-91124102D01*
X141496809Y-91124095D01*
X141395027Y-90788564D01*
X141394517Y-90786527D01*
X141327571Y-90624905D01*
X141327573Y-90624903D01*
X141327565Y-90624891D01*
X141325624Y-90620206D01*
X141318128Y-90602109D01*
X143989500Y-90602109D01*
X143989500Y-92397877D01*
X143989501Y-92397900D01*
X143995907Y-92457475D01*
X143995908Y-92457480D01*
X143995908Y-92457482D01*
X143995909Y-92457483D01*
X144022994Y-92530103D01*
X144045809Y-92591271D01*
X144045809Y-92591273D01*
X144046318Y-92592640D01*
X144047443Y-92594260D01*
X144048942Y-92595990D01*
X144093155Y-92655050D01*
X144132454Y-92707546D01*
X144132695Y-92707774D01*
X144133849Y-92708590D01*
X144247664Y-92793793D01*
X144247663Y-92793793D01*
X144247666Y-92793794D01*
X144247669Y-92793796D01*
X144382517Y-92844091D01*
X144442127Y-92850500D01*
X144469895Y-92850499D01*
X144494384Y-92855369D01*
X144500749Y-92858005D01*
X144535388Y-92892640D01*
X144535393Y-92941619D01*
X144534215Y-92944464D01*
X144512701Y-92971757D01*
X144460208Y-93009895D01*
X144460204Y-93009899D01*
X144309896Y-93160206D01*
X144184960Y-93332167D01*
X144184943Y-93332191D01*
X144088444Y-93521583D01*
X144022752Y-93723758D01*
X144002244Y-93853251D01*
X144002243Y-93853257D01*
X143989500Y-93933713D01*
X143989500Y-94146287D01*
X144001499Y-94222047D01*
X144022752Y-94356241D01*
X144043750Y-94420864D01*
X144088442Y-94558409D01*
X144088445Y-94558418D01*
X144184944Y-94747809D01*
X144184949Y-94747816D01*
X144309896Y-94919792D01*
X144460208Y-95070104D01*
X144490313Y-95091976D01*
X144632183Y-95195050D01*
X144632190Y-95195055D01*
X144821581Y-95291554D01*
X144821584Y-95291555D01*
X144821588Y-95291557D01*
X145023757Y-95357246D01*
X145233713Y-95390500D01*
X145233716Y-95390500D01*
X145446284Y-95390500D01*
X145446287Y-95390500D01*
X145656243Y-95357246D01*
X145858412Y-95291557D01*
X145922825Y-95258737D01*
X146047809Y-95195055D01*
X146047811Y-95195053D01*
X146047816Y-95195051D01*
X146219792Y-95070104D01*
X146370104Y-94919792D01*
X146495051Y-94747816D01*
X146495055Y-94747809D01*
X146547200Y-94645468D01*
X146562650Y-94625869D01*
X146569504Y-94620015D01*
X146616087Y-94604881D01*
X146656320Y-94623429D01*
X146659855Y-94626964D01*
X146671624Y-94643164D01*
X146724938Y-94747799D01*
X146724943Y-94747807D01*
X146724944Y-94747809D01*
X146724949Y-94747816D01*
X146849896Y-94919792D01*
X147000208Y-95070104D01*
X147030313Y-95091976D01*
X147172183Y-95195050D01*
X147172190Y-95195055D01*
X147361581Y-95291554D01*
X147361584Y-95291555D01*
X147361588Y-95291557D01*
X147563757Y-95357246D01*
X147773713Y-95390500D01*
X147773716Y-95390500D01*
X147986284Y-95390500D01*
X147986287Y-95390500D01*
X148196243Y-95357246D01*
X148398412Y-95291557D01*
X148462825Y-95258737D01*
X148587809Y-95195055D01*
X148587811Y-95195053D01*
X148587816Y-95195051D01*
X148759792Y-95070104D01*
X148910104Y-94919792D01*
X149035051Y-94747816D01*
X149035055Y-94747809D01*
X149087200Y-94645468D01*
X149102650Y-94625869D01*
X149109504Y-94620015D01*
X149156087Y-94604881D01*
X149196320Y-94623429D01*
X149199855Y-94626964D01*
X149211624Y-94643164D01*
X149264938Y-94747799D01*
X149264943Y-94747807D01*
X149264944Y-94747809D01*
X149264949Y-94747816D01*
X149389896Y-94919792D01*
X149540208Y-95070104D01*
X149570313Y-95091976D01*
X149712183Y-95195050D01*
X149712190Y-95195055D01*
X149901581Y-95291554D01*
X149901584Y-95291555D01*
X149901588Y-95291557D01*
X150103757Y-95357246D01*
X150313713Y-95390500D01*
X150313716Y-95390500D01*
X150526284Y-95390500D01*
X150526287Y-95390500D01*
X150736243Y-95357246D01*
X150938412Y-95291557D01*
X151002825Y-95258737D01*
X151127809Y-95195055D01*
X151127811Y-95195053D01*
X151127816Y-95195051D01*
X151299792Y-95070104D01*
X151450104Y-94919792D01*
X151575051Y-94747816D01*
X151575055Y-94747809D01*
X151627200Y-94645468D01*
X151642650Y-94625869D01*
X151649504Y-94620015D01*
X151696087Y-94604881D01*
X151736320Y-94623429D01*
X151739855Y-94626964D01*
X151751624Y-94643164D01*
X151804938Y-94747799D01*
X151804943Y-94747807D01*
X151804944Y-94747809D01*
X151804949Y-94747816D01*
X151929896Y-94919792D01*
X152080208Y-95070104D01*
X152110313Y-95091976D01*
X152252183Y-95195050D01*
X152252190Y-95195055D01*
X152441581Y-95291554D01*
X152441584Y-95291555D01*
X152441588Y-95291557D01*
X152643757Y-95357246D01*
X152853713Y-95390500D01*
X152853716Y-95390500D01*
X153066284Y-95390500D01*
X153066287Y-95390500D01*
X153276243Y-95357246D01*
X153478412Y-95291557D01*
X153542825Y-95258737D01*
X153667809Y-95195055D01*
X153667811Y-95195053D01*
X153667816Y-95195051D01*
X153839792Y-95070104D01*
X153990104Y-94919792D01*
X154115051Y-94747816D01*
X154115055Y-94747809D01*
X154167200Y-94645468D01*
X154182650Y-94625869D01*
X154189504Y-94620015D01*
X154236087Y-94604881D01*
X154276320Y-94623429D01*
X154279855Y-94626964D01*
X154291624Y-94643164D01*
X154344938Y-94747799D01*
X154344943Y-94747807D01*
X154344944Y-94747809D01*
X154344949Y-94747816D01*
X154469896Y-94919792D01*
X154620208Y-95070104D01*
X154650313Y-95091976D01*
X154792183Y-95195050D01*
X154792190Y-95195055D01*
X154981581Y-95291554D01*
X154981584Y-95291555D01*
X154981588Y-95291557D01*
X155183757Y-95357246D01*
X155393713Y-95390500D01*
X155393716Y-95390500D01*
X155606284Y-95390500D01*
X155606287Y-95390500D01*
X155816243Y-95357246D01*
X156018412Y-95291557D01*
X156082825Y-95258737D01*
X156207809Y-95195055D01*
X156207811Y-95195053D01*
X156207816Y-95195051D01*
X156379792Y-95070104D01*
X156530104Y-94919792D01*
X156655051Y-94747816D01*
X156655055Y-94747809D01*
X156707200Y-94645468D01*
X156722650Y-94625869D01*
X156729504Y-94620015D01*
X156776087Y-94604881D01*
X156816320Y-94623429D01*
X156819855Y-94626964D01*
X156831624Y-94643164D01*
X156884938Y-94747799D01*
X156884943Y-94747807D01*
X156884944Y-94747809D01*
X156884949Y-94747816D01*
X157009896Y-94919792D01*
X157160208Y-95070104D01*
X157190313Y-95091976D01*
X157332183Y-95195050D01*
X157332190Y-95195055D01*
X157521581Y-95291554D01*
X157521584Y-95291555D01*
X157521588Y-95291557D01*
X157723757Y-95357246D01*
X157933713Y-95390500D01*
X157933716Y-95390500D01*
X158146284Y-95390500D01*
X158146287Y-95390500D01*
X158356243Y-95357246D01*
X158421384Y-95336079D01*
X158446177Y-95333144D01*
X158463592Y-95334514D01*
X158503827Y-95353062D01*
X160771754Y-97620989D01*
X160785625Y-97641749D01*
X160794629Y-97663485D01*
X160799500Y-97687973D01*
X160799500Y-104212026D01*
X160794627Y-104236520D01*
X160787751Y-104253118D01*
X160753116Y-104287752D01*
X160733909Y-104295708D01*
X160721903Y-104299350D01*
X160567487Y-104330066D01*
X160566655Y-104330218D01*
X160566493Y-104330264D01*
X160422924Y-104389734D01*
X160421559Y-104390243D01*
X160420821Y-104390605D01*
X160289707Y-104478213D01*
X160178213Y-104589707D01*
X160090605Y-104720821D01*
X160090243Y-104721559D01*
X160089734Y-104722924D01*
X160030264Y-104866493D01*
X160030218Y-104866655D01*
X160030066Y-104867487D01*
X159999350Y-105021901D01*
X159995709Y-105033905D01*
X159985628Y-105058245D01*
X159971753Y-105079010D01*
X159919483Y-105131278D01*
X159919483Y-105131279D01*
X159919481Y-105131281D01*
X159919481Y-105131282D01*
X159891898Y-105179058D01*
X159840423Y-105268214D01*
X159840423Y-105268215D01*
X159799499Y-105420933D01*
X159799499Y-105585411D01*
X159799500Y-105585464D01*
X159799500Y-108416102D01*
X159799499Y-108416177D01*
X159799499Y-108579065D01*
X159840417Y-108731764D01*
X159840424Y-108731789D01*
X159856966Y-108760439D01*
X159860463Y-108766494D01*
X159860465Y-108766504D01*
X159860468Y-108766503D01*
X159919480Y-108868716D01*
X160031284Y-108980520D01*
X160031285Y-108980521D01*
X160531284Y-109480520D01*
X160668216Y-109559577D01*
X160668218Y-109559577D01*
X160668219Y-109559578D01*
X160702081Y-109568651D01*
X160782206Y-109590121D01*
X160819129Y-109600015D01*
X160820646Y-109600471D01*
X160820846Y-109600501D01*
X160982975Y-109600501D01*
X160983942Y-109600501D01*
X160984006Y-109600500D01*
X161233182Y-109600500D01*
X161278437Y-109619245D01*
X161297182Y-109664500D01*
X161278437Y-109709755D01*
X161258714Y-109723186D01*
X161088273Y-109797338D01*
X161088269Y-109797340D01*
X161020478Y-109833176D01*
X161020465Y-109833184D01*
X160988765Y-109853156D01*
X160988753Y-109853164D01*
X160988747Y-109853168D01*
X160988740Y-109853172D01*
X160988730Y-109853180D01*
X160927179Y-109898824D01*
X160927170Y-109898831D01*
X160916216Y-109908323D01*
X160916161Y-109908371D01*
X160821943Y-110017108D01*
X160821940Y-110017111D01*
X160784169Y-110075885D01*
X160784166Y-110075891D01*
X160724406Y-110206749D01*
X160724404Y-110206752D01*
X160720007Y-110221727D01*
X160719998Y-110221764D01*
X160704669Y-110292226D01*
X160699645Y-110327169D01*
X160694500Y-110399108D01*
X160694500Y-110762681D01*
X160697391Y-110816656D01*
X160700226Y-110843031D01*
X160700228Y-110843045D01*
X160708881Y-110896455D01*
X160708888Y-110896496D01*
X160710528Y-110904032D01*
X160752484Y-111022930D01*
X160779966Y-111077807D01*
X160850027Y-111182606D01*
X160850036Y-111182618D01*
X160851212Y-111183974D01*
X160851214Y-111183976D01*
X160851217Y-111183979D01*
X160959905Y-111278116D01*
X161018651Y-111315859D01*
X161149448Y-111375586D01*
X161151963Y-111376324D01*
X161190103Y-111407057D01*
X161197770Y-111442297D01*
X161194500Y-111488022D01*
X161194500Y-111976616D01*
X161195608Y-112003108D01*
X161195614Y-112003214D01*
X161195811Y-112007917D01*
X161195647Y-112009685D01*
X161195950Y-112011252D01*
X161196270Y-112018875D01*
X161196940Y-112026861D01*
X161196957Y-112026859D01*
X161196998Y-112027569D01*
X161198884Y-112050039D01*
X161199462Y-112051103D01*
X161203325Y-112081655D01*
X161203719Y-112083983D01*
X161203723Y-112084001D01*
X161222637Y-112149544D01*
X161222988Y-112150759D01*
X161223023Y-112150937D01*
X161223122Y-112151224D01*
X161223576Y-112152797D01*
X161223575Y-112152799D01*
X161235408Y-112193798D01*
X161235411Y-112193808D01*
X161256812Y-112245250D01*
X161256812Y-112245251D01*
X161312416Y-112345216D01*
X161314179Y-112347679D01*
X161315258Y-112349187D01*
X161316184Y-112350478D01*
X161322764Y-112357305D01*
X161329592Y-112364391D01*
X161342934Y-112378234D01*
X161347783Y-112390580D01*
X161361258Y-112404654D01*
X161385647Y-112430127D01*
X161439123Y-112478538D01*
X161469742Y-112496131D01*
X161469768Y-112496151D01*
X161469779Y-112496159D01*
X161527574Y-112529359D01*
X161566101Y-112551496D01*
X161566178Y-112551536D01*
X161594525Y-112567821D01*
X161594534Y-112567825D01*
X161594536Y-112567826D01*
X161594540Y-112567828D01*
X161609067Y-112573607D01*
X161609083Y-112573612D01*
X161677806Y-112595416D01*
X161688556Y-112597999D01*
X161712123Y-112603662D01*
X161783254Y-112615466D01*
X166213304Y-113028938D01*
X166256622Y-113051808D01*
X166271080Y-113098608D01*
X166248210Y-113141926D01*
X166206919Y-113156659D01*
X160838442Y-113119930D01*
X160838441Y-113119930D01*
X160838438Y-113119930D01*
X160733765Y-113130155D01*
X160683488Y-113140431D01*
X160583200Y-113172093D01*
X160460753Y-113247642D01*
X160407111Y-113292425D01*
X160310918Y-113399399D01*
X160310917Y-113399401D01*
X160248749Y-113529161D01*
X160227842Y-113595802D01*
X160227835Y-113595827D01*
X160204744Y-113737849D01*
X160201671Y-113905050D01*
X160201565Y-113910767D01*
X160199500Y-113921155D01*
X160199500Y-114023239D01*
X160199489Y-114023838D01*
X160199489Y-114023841D01*
X160196366Y-114193717D01*
X160197677Y-114240543D01*
X160197677Y-114240556D01*
X160199379Y-114263405D01*
X160199382Y-114263436D01*
X160205019Y-114309924D01*
X160248883Y-114446950D01*
X160279441Y-114509792D01*
X160360128Y-114628904D01*
X160360134Y-114628911D01*
X160368250Y-114635606D01*
X160368251Y-114635607D01*
X160471111Y-114720466D01*
X160471115Y-114720469D01*
X160471118Y-114720471D01*
X160509577Y-114743892D01*
X160529479Y-114756012D01*
X160530590Y-114756726D01*
X160663080Y-114813398D01*
X164757045Y-115908599D01*
X166458607Y-116363794D01*
X170198933Y-117364391D01*
X176253619Y-118984116D01*
X176318379Y-118996977D01*
X176350424Y-119001189D01*
X176416289Y-119005499D01*
X176416290Y-119005500D01*
X177615956Y-119005500D01*
X177661211Y-119024245D01*
X177679956Y-119069500D01*
X177661211Y-119114755D01*
X177636087Y-119130251D01*
X177530728Y-119165163D01*
X177530729Y-119165164D01*
X177530667Y-119165184D01*
X177378464Y-119259063D01*
X177375050Y-119263581D01*
X177263581Y-119375050D01*
X177259063Y-119378464D01*
X177165184Y-119530667D01*
X177165164Y-119530729D01*
X177111670Y-119692156D01*
X177111647Y-119692229D01*
X177110003Y-119697192D01*
X177110002Y-119697198D01*
X177110001Y-119697200D01*
X177110001Y-119697203D01*
X177109941Y-119697785D01*
X177109777Y-119698321D01*
X177109670Y-119700443D01*
X177099500Y-119799995D01*
X177099500Y-122200004D01*
X177099603Y-122201255D01*
X177099706Y-122202021D01*
X177107001Y-122273428D01*
X177107001Y-122273429D01*
X177110001Y-122302801D01*
X177110847Y-122305713D01*
X177111451Y-122307176D01*
X177165184Y-122469329D01*
X177165186Y-122469334D01*
X177257288Y-122618656D01*
X177381344Y-122742712D01*
X177530666Y-122834814D01*
X177558844Y-122844151D01*
X177586507Y-122853318D01*
X177586510Y-122853318D01*
X177586514Y-122853320D01*
X177696043Y-122889615D01*
X177697054Y-122889972D01*
X177697182Y-122889992D01*
X177697192Y-122889996D01*
X177697195Y-122889996D01*
X177697203Y-122889999D01*
X177697252Y-122890004D01*
X177698712Y-122890240D01*
X177700407Y-122890326D01*
X177799991Y-122900500D01*
X180200008Y-122900499D01*
X180302797Y-122889999D01*
X180469334Y-122834814D01*
X180618656Y-122742712D01*
X180742712Y-122618656D01*
X180834814Y-122469334D01*
X180889999Y-122302797D01*
X180900500Y-122200009D01*
X180900499Y-119799992D01*
X180889999Y-119697203D01*
X180834814Y-119530666D01*
X180742712Y-119381344D01*
X180618656Y-119257288D01*
X180618655Y-119257287D01*
X180618654Y-119257286D01*
X180469331Y-119165184D01*
X180469332Y-119165184D01*
X180469270Y-119165164D01*
X180469270Y-119165163D01*
X180363912Y-119130251D01*
X180326850Y-119098223D01*
X180323292Y-119049369D01*
X180355320Y-119012307D01*
X180384043Y-119005500D01*
X181175322Y-119005500D01*
X181187170Y-119004209D01*
X181284124Y-118993652D01*
X181336251Y-118982163D01*
X181439947Y-118947177D01*
X181560560Y-118868730D01*
X181613113Y-118822688D01*
X181613115Y-118822686D01*
X181706741Y-118713436D01*
X181765796Y-118582233D01*
X181785114Y-118515087D01*
X181804811Y-118372561D01*
X181779950Y-113821947D01*
X181767811Y-113714560D01*
X181756324Y-113663110D01*
X181756324Y-113663109D01*
X181756323Y-113663105D01*
X181733284Y-113595127D01*
X181735627Y-113548114D01*
X181765303Y-113482794D01*
X181783988Y-113418689D01*
X181784318Y-113417734D01*
X181784855Y-113415717D01*
X181784855Y-113415715D01*
X181784857Y-113415711D01*
X181805050Y-113273255D01*
X181796021Y-108727211D01*
X181796020Y-108727188D01*
X181793016Y-108673166D01*
X181793015Y-108673153D01*
X181790128Y-108646810D01*
X181790126Y-108646793D01*
X181789120Y-108640668D01*
X181781363Y-108593403D01*
X181779703Y-108585846D01*
X181739534Y-108472693D01*
X181741629Y-108424695D01*
X181765338Y-108372784D01*
X181785023Y-108305745D01*
X181785024Y-108305741D01*
X181805500Y-108163325D01*
X181805500Y-103737331D01*
X181802600Y-103683261D01*
X181799763Y-103656890D01*
X181791099Y-103603455D01*
X181789454Y-103595897D01*
X181747501Y-103477036D01*
X181720025Y-103422175D01*
X181649969Y-103317389D01*
X181649967Y-103317386D01*
X181649964Y-103317383D01*
X181648788Y-103316026D01*
X181648779Y-103316017D01*
X181597786Y-103265053D01*
X181571099Y-103241942D01*
X181571098Y-103241941D01*
X181513344Y-103198733D01*
X181462913Y-103175719D01*
X181350525Y-103124405D01*
X181350521Y-103124404D01*
X181350519Y-103124403D01*
X181345883Y-103123042D01*
X181335527Y-103120001D01*
X181311391Y-103114750D01*
X181265051Y-103104669D01*
X181265049Y-103104668D01*
X181265046Y-103104668D01*
X181230110Y-103099645D01*
X181158170Y-103094500D01*
X181158169Y-103094500D01*
X176638572Y-103094500D01*
X176586831Y-103097154D01*
X176561577Y-103099753D01*
X176561568Y-103099754D01*
X176510307Y-103107704D01*
X176485846Y-103112795D01*
X176435691Y-103125948D01*
X176423737Y-103129748D01*
X176411503Y-103133637D01*
X176411498Y-103133638D01*
X176411485Y-103133643D01*
X176411480Y-103133644D01*
X176362987Y-103151846D01*
X176362950Y-103151861D01*
X174500576Y-103962117D01*
X172952553Y-104635607D01*
X171168159Y-105411934D01*
X170026575Y-105908597D01*
X166680420Y-107364391D01*
X164222972Y-108433538D01*
X164173997Y-108434404D01*
X164152185Y-108420107D01*
X164110290Y-108378212D01*
X164102166Y-108372784D01*
X163979179Y-108290606D01*
X163960568Y-108282897D01*
X163951182Y-108279009D01*
X163833505Y-108230264D01*
X163833346Y-108230218D01*
X163832511Y-108230066D01*
X163678848Y-108199500D01*
X163678845Y-108199500D01*
X163678842Y-108199500D01*
X163521158Y-108199500D01*
X163521155Y-108199500D01*
X163521152Y-108199500D01*
X163367487Y-108230066D01*
X163366655Y-108230218D01*
X163366493Y-108230264D01*
X163222924Y-108289734D01*
X163221559Y-108290243D01*
X163220821Y-108290605D01*
X163220820Y-108290606D01*
X163089709Y-108378212D01*
X163089707Y-108378213D01*
X163089084Y-108378630D01*
X163078021Y-108384542D01*
X163053672Y-108394628D01*
X163029183Y-108399500D01*
X161187975Y-108399500D01*
X161163484Y-108394628D01*
X161141752Y-108385626D01*
X161120990Y-108371754D01*
X161028245Y-108279009D01*
X161014374Y-108258249D01*
X161005370Y-108236511D01*
X161000500Y-108212025D01*
X161000500Y-105938896D01*
X161005370Y-105914410D01*
X161011737Y-105899038D01*
X161046368Y-105864405D01*
X161167547Y-105814212D01*
X161167549Y-105814212D01*
X161179174Y-105809396D01*
X161179173Y-105809396D01*
X161179179Y-105809394D01*
X161310289Y-105721789D01*
X161421789Y-105610289D01*
X161509394Y-105479179D01*
X161548869Y-105383875D01*
X161569736Y-105333501D01*
X161569737Y-105333495D01*
X161600500Y-105178844D01*
X161600500Y-105178842D01*
X161600648Y-105178099D01*
X161604290Y-105166094D01*
X161614373Y-105141751D01*
X161628244Y-105120989D01*
X161759711Y-104989521D01*
X161759718Y-104989517D01*
X161768715Y-104980520D01*
X161768716Y-104980520D01*
X161880520Y-104868716D01*
X161952395Y-104744224D01*
X161959577Y-104731785D01*
X161968225Y-104699509D01*
X162000500Y-104579058D01*
X162000500Y-97485465D01*
X162000501Y-97485412D01*
X162000501Y-97320945D01*
X162000500Y-97320938D01*
X161990121Y-97282206D01*
X161959577Y-97168216D01*
X161880520Y-97031284D01*
X160343983Y-95494747D01*
X160330110Y-95473983D01*
X160327474Y-95467619D01*
X160327474Y-95418636D01*
X160362101Y-95384004D01*
X160364949Y-95382824D01*
X160399454Y-95378738D01*
X160473713Y-95390500D01*
X160473716Y-95390500D01*
X160686284Y-95390500D01*
X160686287Y-95390500D01*
X160896243Y-95357246D01*
X161098412Y-95291557D01*
X161162825Y-95258737D01*
X161287809Y-95195055D01*
X161287811Y-95195053D01*
X161287816Y-95195051D01*
X161459792Y-95070104D01*
X161610104Y-94919792D01*
X161735051Y-94747816D01*
X161831557Y-94558412D01*
X161897246Y-94356243D01*
X161930500Y-94146287D01*
X161930500Y-93933713D01*
X161897246Y-93723757D01*
X161831557Y-93521588D01*
X161831555Y-93521584D01*
X161831554Y-93521581D01*
X161788372Y-93436832D01*
X161737896Y-93337766D01*
X161735055Y-93332190D01*
X161735051Y-93332185D01*
X161735051Y-93332184D01*
X161610104Y-93160208D01*
X161459792Y-93009896D01*
X161287816Y-92884949D01*
X161287809Y-92884944D01*
X161098418Y-92788445D01*
X161098409Y-92788442D01*
X161040411Y-92769597D01*
X160896241Y-92722752D01*
X160762047Y-92701499D01*
X160762047Y-92701498D01*
X160704510Y-92692386D01*
X160686287Y-92689500D01*
X160686285Y-92689500D01*
X160473714Y-92689500D01*
X160473713Y-92689500D01*
X160464468Y-92690964D01*
X160406086Y-92700209D01*
X160406086Y-92700210D01*
X160397948Y-92701499D01*
X160263762Y-92722751D01*
X160263755Y-92722753D01*
X160061583Y-92788444D01*
X159872191Y-92884943D01*
X159872167Y-92884960D01*
X159700206Y-93009896D01*
X159549896Y-93160206D01*
X159430641Y-93324346D01*
X159430636Y-93324355D01*
X159424949Y-93332183D01*
X159424947Y-93332185D01*
X159372680Y-93434766D01*
X159372445Y-93435214D01*
X159371900Y-93435668D01*
X159357342Y-93454135D01*
X159350497Y-93459981D01*
X159337753Y-93464121D01*
X159334814Y-93466571D01*
X159331220Y-93466244D01*
X159303911Y-93475117D01*
X159263678Y-93456569D01*
X159260141Y-93453032D01*
X159248375Y-93436838D01*
X159195052Y-93332185D01*
X159195050Y-93332183D01*
X159195038Y-93332167D01*
X159192093Y-93328113D01*
X159192093Y-93328112D01*
X159192090Y-93328109D01*
X159189356Y-93324346D01*
X159070103Y-93160207D01*
X158919792Y-93009896D01*
X158747816Y-92884949D01*
X158747809Y-92884944D01*
X158747810Y-92884944D01*
X158645473Y-92832802D01*
X158625865Y-92817344D01*
X158620015Y-92810494D01*
X158604881Y-92763910D01*
X158623428Y-92723680D01*
X158626970Y-92720138D01*
X158643158Y-92708377D01*
X158745250Y-92656358D01*
X158746341Y-92655864D01*
X158746852Y-92655582D01*
X158747719Y-92655121D01*
X158747814Y-92655051D01*
X158747816Y-92655051D01*
X158919792Y-92530104D01*
X159070104Y-92379792D01*
X159195051Y-92207816D01*
X159210814Y-92176881D01*
X159291554Y-92018418D01*
X159291554Y-92018417D01*
X159291557Y-92018412D01*
X159291559Y-92018402D01*
X159291785Y-92017961D01*
X159292319Y-92016063D01*
X159357246Y-91816243D01*
X159390500Y-91606287D01*
X159390500Y-91393713D01*
X159357246Y-91183757D01*
X159291557Y-90981588D01*
X159291555Y-90981584D01*
X159291554Y-90981581D01*
X159248372Y-90896832D01*
X159197896Y-90797766D01*
X159195055Y-90792190D01*
X159195051Y-90792185D01*
X159195051Y-90792184D01*
X159070104Y-90620208D01*
X158919792Y-90469896D01*
X158747816Y-90344949D01*
X158747809Y-90344944D01*
X158558418Y-90248445D01*
X158558409Y-90248442D01*
X158544355Y-90243875D01*
X158356241Y-90182752D01*
X158222047Y-90161499D01*
X158222047Y-90161498D01*
X158164510Y-90152386D01*
X158146287Y-90149500D01*
X158146285Y-90149500D01*
X157933714Y-90149500D01*
X157933713Y-90149500D01*
X157924468Y-90150964D01*
X157866086Y-90160209D01*
X157866086Y-90160210D01*
X157857948Y-90161499D01*
X157723762Y-90182751D01*
X157723755Y-90182753D01*
X157521583Y-90248444D01*
X157332191Y-90344943D01*
X157332167Y-90344960D01*
X157160206Y-90469896D01*
X157009896Y-90620206D01*
X156890641Y-90784346D01*
X156890636Y-90784355D01*
X156884949Y-90792183D01*
X156884947Y-90792185D01*
X156832680Y-90894766D01*
X156832445Y-90895214D01*
X156831900Y-90895668D01*
X156817342Y-90914135D01*
X156810497Y-90919981D01*
X156797753Y-90924121D01*
X156794814Y-90926571D01*
X156791220Y-90926244D01*
X156763911Y-90935117D01*
X156723678Y-90916569D01*
X156720141Y-90913032D01*
X156708375Y-90896838D01*
X156655052Y-90792185D01*
X156655050Y-90792183D01*
X156652093Y-90788112D01*
X156652090Y-90788109D01*
X156533519Y-90624907D01*
X156533519Y-90624908D01*
X156533517Y-90624905D01*
X156530104Y-90620208D01*
X156379792Y-90469896D01*
X156207816Y-90344949D01*
X156207809Y-90344944D01*
X156018418Y-90248445D01*
X156018409Y-90248442D01*
X156004355Y-90243875D01*
X155816241Y-90182752D01*
X155682047Y-90161499D01*
X155682047Y-90161498D01*
X155624510Y-90152386D01*
X155606287Y-90149500D01*
X155606285Y-90149500D01*
X155393714Y-90149500D01*
X155393713Y-90149500D01*
X155384468Y-90150964D01*
X155326086Y-90160209D01*
X155326086Y-90160210D01*
X155317948Y-90161499D01*
X155183762Y-90182751D01*
X155183755Y-90182753D01*
X154981583Y-90248444D01*
X154792191Y-90344943D01*
X154792167Y-90344960D01*
X154620206Y-90469896D01*
X154469896Y-90620206D01*
X154350641Y-90784346D01*
X154350636Y-90784355D01*
X154344949Y-90792183D01*
X154344947Y-90792185D01*
X154292680Y-90894766D01*
X154292445Y-90895214D01*
X154291900Y-90895668D01*
X154277342Y-90914135D01*
X154270497Y-90919981D01*
X154257753Y-90924121D01*
X154254814Y-90926571D01*
X154251220Y-90926244D01*
X154223911Y-90935117D01*
X154183678Y-90916569D01*
X154180141Y-90913032D01*
X154168375Y-90896838D01*
X154115052Y-90792185D01*
X154115050Y-90792183D01*
X154112093Y-90788112D01*
X154112090Y-90788109D01*
X153993519Y-90624907D01*
X153993519Y-90624908D01*
X153993517Y-90624905D01*
X153990104Y-90620208D01*
X153839792Y-90469896D01*
X153667816Y-90344949D01*
X153667809Y-90344944D01*
X153478418Y-90248445D01*
X153478409Y-90248442D01*
X153464355Y-90243875D01*
X153276241Y-90182752D01*
X153142047Y-90161499D01*
X153142047Y-90161498D01*
X153084510Y-90152386D01*
X153066287Y-90149500D01*
X153066285Y-90149500D01*
X152853714Y-90149500D01*
X152853713Y-90149500D01*
X152844468Y-90150964D01*
X152786086Y-90160209D01*
X152786086Y-90160210D01*
X152777948Y-90161499D01*
X152643762Y-90182751D01*
X152643755Y-90182753D01*
X152441583Y-90248444D01*
X152252191Y-90344943D01*
X152252167Y-90344960D01*
X152080206Y-90469896D01*
X151929896Y-90620206D01*
X151810641Y-90784346D01*
X151810636Y-90784355D01*
X151804949Y-90792183D01*
X151804947Y-90792185D01*
X151752680Y-90894766D01*
X151752445Y-90895214D01*
X151751900Y-90895668D01*
X151737342Y-90914135D01*
X151730497Y-90919981D01*
X151717753Y-90924121D01*
X151714814Y-90926571D01*
X151711220Y-90926244D01*
X151683911Y-90935117D01*
X151643678Y-90916569D01*
X151640141Y-90913032D01*
X151628375Y-90896838D01*
X151575052Y-90792185D01*
X151575050Y-90792183D01*
X151572093Y-90788112D01*
X151572090Y-90788109D01*
X151453519Y-90624907D01*
X151453519Y-90624908D01*
X151453517Y-90624905D01*
X151450104Y-90620208D01*
X151299792Y-90469896D01*
X151127816Y-90344949D01*
X151127809Y-90344944D01*
X150938418Y-90248445D01*
X150938409Y-90248442D01*
X150924355Y-90243875D01*
X150736241Y-90182752D01*
X150602047Y-90161499D01*
X150602047Y-90161498D01*
X150544510Y-90152386D01*
X150526287Y-90149500D01*
X150526285Y-90149500D01*
X150313714Y-90149500D01*
X150313713Y-90149500D01*
X150304468Y-90150964D01*
X150246086Y-90160209D01*
X150246086Y-90160210D01*
X150237948Y-90161499D01*
X150103762Y-90182751D01*
X150103755Y-90182753D01*
X149901583Y-90248444D01*
X149712191Y-90344943D01*
X149712167Y-90344960D01*
X149540206Y-90469896D01*
X149389896Y-90620206D01*
X149270641Y-90784346D01*
X149270636Y-90784355D01*
X149264949Y-90792183D01*
X149264947Y-90792185D01*
X149212680Y-90894766D01*
X149212445Y-90895214D01*
X149211900Y-90895668D01*
X149197342Y-90914135D01*
X149190497Y-90919981D01*
X149177753Y-90924121D01*
X149174814Y-90926571D01*
X149171220Y-90926244D01*
X149143911Y-90935117D01*
X149103678Y-90916569D01*
X149100141Y-90913032D01*
X149088375Y-90896838D01*
X149035052Y-90792185D01*
X149035050Y-90792183D01*
X149032093Y-90788112D01*
X149032090Y-90788109D01*
X148913519Y-90624907D01*
X148913519Y-90624908D01*
X148913517Y-90624905D01*
X148910104Y-90620208D01*
X148759792Y-90469896D01*
X148587816Y-90344949D01*
X148587809Y-90344944D01*
X148398418Y-90248445D01*
X148398409Y-90248442D01*
X148384355Y-90243875D01*
X148196241Y-90182752D01*
X148062047Y-90161499D01*
X148062047Y-90161498D01*
X148004510Y-90152386D01*
X147986287Y-90149500D01*
X147986285Y-90149500D01*
X147773714Y-90149500D01*
X147773713Y-90149500D01*
X147764468Y-90150964D01*
X147706086Y-90160209D01*
X147706086Y-90160210D01*
X147697948Y-90161499D01*
X147563762Y-90182751D01*
X147563755Y-90182753D01*
X147361583Y-90248444D01*
X147172191Y-90344943D01*
X147172167Y-90344960D01*
X147000206Y-90469896D01*
X146849899Y-90620203D01*
X146813758Y-90669947D01*
X146795424Y-90686895D01*
X146789550Y-90690495D01*
X146741170Y-90698160D01*
X146701540Y-90669371D01*
X146701539Y-90669369D01*
X146699924Y-90666734D01*
X146690499Y-90633303D01*
X146690499Y-90602138D01*
X146690499Y-90602130D01*
X146690498Y-90602112D01*
X146690497Y-90602105D01*
X146690497Y-90602098D01*
X146684458Y-90545934D01*
X146684352Y-90543968D01*
X146684091Y-90542521D01*
X146684091Y-90542517D01*
X146633796Y-90407669D01*
X146633793Y-90407665D01*
X146633793Y-90407664D01*
X146547548Y-90292457D01*
X146547546Y-90292454D01*
X146488758Y-90248445D01*
X146463983Y-90229898D01*
X146454925Y-90214631D01*
X146297479Y-90155907D01*
X146237892Y-90149500D01*
X146237879Y-90149500D01*
X144442130Y-90149500D01*
X144442121Y-90149500D01*
X144442098Y-90149501D01*
X144389469Y-90155160D01*
X144389460Y-90155161D01*
X144382521Y-90155908D01*
X144382518Y-90155908D01*
X144382517Y-90155909D01*
X144377275Y-90157863D01*
X144377266Y-90157866D01*
X144323824Y-90177800D01*
X144310542Y-90182754D01*
X144247664Y-90206206D01*
X144247663Y-90206206D01*
X144247662Y-90206207D01*
X144132456Y-90292451D01*
X144132451Y-90292456D01*
X144046207Y-90407661D01*
X144046206Y-90407664D01*
X143995907Y-90542518D01*
X143989500Y-90602109D01*
X141318128Y-90602109D01*
X141269931Y-90485751D01*
X141258739Y-90458731D01*
X141091976Y-90146741D01*
X141069875Y-90113665D01*
X140895734Y-89853045D01*
X140895491Y-89852674D01*
X140895441Y-89852605D01*
X140895438Y-89852601D01*
X140895436Y-89852598D01*
X140671012Y-89579136D01*
X140420864Y-89328988D01*
X140147402Y-89104564D01*
X140147333Y-89104518D01*
X140138041Y-89098308D01*
X140138041Y-89098309D01*
X140138040Y-89098308D01*
X140044821Y-89036021D01*
X139853285Y-88908040D01*
X139853275Y-88908034D01*
X139853257Y-88908023D01*
X139785149Y-88871618D01*
X139541279Y-88741265D01*
X139541219Y-88741237D01*
X139540872Y-88741096D01*
X139509253Y-88727999D01*
X139488490Y-88714126D01*
X139483619Y-88709255D01*
X139464874Y-88664000D01*
X139483619Y-88618745D01*
X139528874Y-88600000D01*
X178465287Y-88600000D01*
X178478072Y-88602543D01*
G37*
%TD.AperFunction*%
%TD*%
M02*
