%TF.GenerationSoftware,KiCad,Pcbnew,10.0.3*%
%TF.CreationDate,2026-06-27T00:27:45+08:00*%
%TF.ProjectId,project,70726f6a-6563-4742-9e6b-696361645f70,rev?*%
%TF.SameCoordinates,Original*%
%TF.FileFunction,Copper,L4,Bot*%
%TF.FilePolarity,Positive*%
%FSLAX46Y46*%
G04 Gerber Fmt 4.6, Leading zero omitted, Abs format (unit mm)*
G04 Created by KiCad (PCBNEW 10.0.3) date 2026-06-27 00:27:45*
%MOMM*%
%LPD*%
G01*
G04 APERTURE LIST*
G04 Aperture macros list*
%AMRoundRect*
0 Rectangle with rounded corners*
0 $1 Rounding radius*
0 $2 $3 $4 $5 $6 $7 $8 $9 X,Y pos of 4 corners*
0 Add a 4 corners polygon primitive as box body*
4,1,4,$2,$3,$4,$5,$6,$7,$8,$9,$2,$3,0*
0 Add four circle primitives for the rounded corners*
1,1,$1+$1,$2,$3*
1,1,$1+$1,$4,$5*
1,1,$1+$1,$6,$7*
1,1,$1+$1,$8,$9*
0 Add four rect primitives between the rounded corners*
20,1,$1+$1,$2,$3,$4,$5,0*
20,1,$1+$1,$4,$5,$6,$7,0*
20,1,$1+$1,$6,$7,$8,$9,0*
20,1,$1+$1,$8,$9,$2,$3,0*%
G04 Aperture macros list end*
%TA.AperFunction,ComponentPad*%
%ADD10RoundRect,0.250001X-1.149999X1.149999X-1.149999X-1.149999X1.149999X-1.149999X1.149999X1.149999X0*%
%TD*%
%TA.AperFunction,ComponentPad*%
%ADD11C,2.800000*%
%TD*%
%TA.AperFunction,ComponentPad*%
%ADD12RoundRect,0.250000X1.150000X-1.150000X1.150000X1.150000X-1.150000X1.150000X-1.150000X-1.150000X0*%
%TD*%
%TA.AperFunction,ComponentPad*%
%ADD13C,0.600000*%
%TD*%
%TA.AperFunction,ComponentPad*%
%ADD14C,1.700000*%
%TD*%
%TA.AperFunction,ComponentPad*%
%ADD15R,1.700000X1.700000*%
%TD*%
%TA.AperFunction,ViaPad*%
%ADD16C,0.600000*%
%TD*%
%TA.AperFunction,ViaPad*%
%ADD17C,0.500000*%
%TD*%
%TA.AperFunction,Conductor*%
%ADD18C,0.200000*%
%TD*%
%TA.AperFunction,Conductor*%
%ADD19C,0.600000*%
%TD*%
G04 APERTURE END LIST*
D10*
%TO.P,TB_PWR1,1,1_1*%
%TO.N,GND*%
X139500000Y-108500000D03*
D11*
%TO.P,TB_PWR1,2,2_2*%
%TO.N,VCC*%
X139500000Y-113500000D03*
%TD*%
%TO.P,P1,1,Pin_1_1*%
%TO.N,VCC*%
X179000000Y-121000000D03*
%TO.P,P1,2,Pin_2_2*%
%TO.N,M1*%
X179000000Y-116000000D03*
%TO.P,P1,3,Pin_3_3*%
%TO.N,M2*%
X179000000Y-111000000D03*
%TO.P,P1,4,Pin_4_4*%
%TO.N,M3*%
X179000000Y-106000000D03*
D12*
%TO.P,P1,5,Pin_5_5*%
%TO.N,GND*%
X179000000Y-101000000D03*
%TD*%
D13*
%TO.P,U1,29*%
%TO.N,GND*%
X156500100Y-106500100D03*
X156500100Y-107500100D03*
X157500100Y-106500100D03*
X157500100Y-107500100D03*
X158500100Y-106500100D03*
X158500100Y-107500100D03*
X159500100Y-106500100D03*
X159500100Y-107500100D03*
%TD*%
D14*
%TO.P,H1,1,Pin_1_1*%
%TO.N,IN1*%
X145340000Y-91500000D03*
%TO.P,H1,2,Pin_2_2*%
%TO.N,EN1H*%
X145340000Y-94040000D03*
%TO.P,H1,3,Pin_3_3*%
%TO.N,IN2*%
X147880000Y-91500000D03*
%TO.P,H1,4,Pin_4_4*%
%TO.N,EN2H*%
X147880000Y-94040000D03*
%TO.P,H1,5,Pin_5_5*%
%TO.N,IN3*%
X150420000Y-91500000D03*
%TO.P,H1,6,Pin_6_6*%
%TO.N,EN3H*%
X150420000Y-94040000D03*
%TO.P,H1,7,Pin_7_7*%
%TO.N,nFlt*%
X152960000Y-91500000D03*
%TO.P,H1,8,Pin_8_8*%
%TO.N,nCOMPO*%
X152960000Y-94040000D03*
%TO.P,H1,9,Pin_9_9*%
%TO.N,nRes*%
X155500000Y-91500000D03*
%TO.P,H1,10,Pin_10_10*%
%TO.N,nSlp*%
X155500000Y-94040000D03*
%TO.P,H1,11,Pin_11_11*%
%TO.N,VREF*%
X158040000Y-91500000D03*
%TO.P,H1,12,Pin_12_12*%
%TO.N,PGND*%
X158040000Y-94040000D03*
D15*
%TO.P,H1,13,Pin_13_13*%
%TO.N,GND*%
X160580000Y-91500000D03*
D14*
%TO.P,H1,14,Pin_14_14*%
%TO.N,3.3V*%
X160580000Y-94040000D03*
%TD*%
D16*
%TO.N,GND*%
X137000000Y-109000000D03*
X164000000Y-102000000D03*
X149000000Y-127000000D03*
X143000000Y-103000000D03*
X167000000Y-127000000D03*
X137000000Y-127000000D03*
X151500000Y-106000000D03*
X173000000Y-91000000D03*
X143000000Y-109000000D03*
X158000000Y-118000000D03*
X143000000Y-91000000D03*
X137000000Y-103000000D03*
X155500000Y-107500000D03*
D17*
X162225000Y-109200000D03*
D16*
X155000000Y-133000000D03*
X137000000Y-115000000D03*
X173000000Y-103000000D03*
X179000000Y-127000000D03*
X173000000Y-115000000D03*
X167000000Y-109000000D03*
X179000000Y-97000000D03*
X171650000Y-100650000D03*
X160500000Y-106500000D03*
X143100000Y-123200000D03*
X157000000Y-121462500D03*
D17*
X153775000Y-104900000D03*
D16*
X144100000Y-123200000D03*
X173000000Y-127000000D03*
X161000000Y-133000000D03*
D17*
X159000000Y-104900000D03*
D16*
X162000000Y-112500000D03*
X164149100Y-92000000D03*
X149000000Y-133000000D03*
X173000000Y-109000000D03*
X149000000Y-109000000D03*
X167000000Y-97000000D03*
X167000000Y-91000000D03*
X170700000Y-123200000D03*
X167000000Y-115000000D03*
X155000000Y-127000000D03*
X171700000Y-123200000D03*
X155500000Y-106500000D03*
X143000000Y-97000000D03*
X143000000Y-133000000D03*
X173000000Y-97000000D03*
X161000000Y-127000000D03*
X143000000Y-127000000D03*
X160500000Y-107500000D03*
X149000000Y-121000000D03*
X142100000Y-123200000D03*
X143000000Y-115000000D03*
X173000000Y-133000000D03*
X149000000Y-115000000D03*
X167000000Y-133000000D03*
X137000000Y-121000000D03*
X169700000Y-123200000D03*
X137000000Y-97000000D03*
X164100000Y-110000000D03*
%TO.N,3.3V*%
X155045000Y-99506800D03*
D17*
X162225000Y-104134400D03*
D16*
X161545000Y-99506800D03*
X157045000Y-99506800D03*
X159345000Y-99506800D03*
D17*
%TO.N,M1*%
X156374900Y-109865900D03*
%TO.N,M2*%
X158325100Y-109865900D03*
%TO.N,M3*%
X158975100Y-110365900D03*
D16*
%TO.N,PGND*%
X157000000Y-115537500D03*
%TD*%
%TO.N,3.3V*%
D18*
X160493200Y-99506800D02*
X160580000Y-99420000D01*
X155045000Y-99506800D02*
X161545000Y-99506800D01*
X162225000Y-104134400D02*
X162225000Y-102225000D01*
X161545000Y-101545000D02*
X161545000Y-99506800D01*
X160580000Y-99420000D02*
X160580000Y-94040000D01*
X162225000Y-102225000D02*
X161545000Y-101545000D01*
%TO.N,M1*%
D19*
X160749800Y-116000000D02*
X179000000Y-116000000D01*
X156374900Y-111625100D02*
X160749800Y-116000000D01*
D18*
X156374900Y-109865900D02*
X156374900Y-111625100D01*
%TO.N,M2*%
X158325100Y-109865900D02*
X158325100Y-111825100D01*
D19*
X176000000Y-114000000D02*
X179000000Y-111000000D01*
X160500000Y-114000000D02*
X176000000Y-114000000D01*
X158325100Y-111825100D02*
X160500000Y-114000000D01*
%TO.N,M3*%
X159500000Y-111500000D02*
X173500000Y-111500000D01*
D18*
X158975100Y-109365900D02*
X158975100Y-110975100D01*
D19*
X173500000Y-111500000D02*
X179000000Y-106000000D01*
D18*
X158975100Y-110975100D02*
X159500000Y-111500000D01*
%TO.N,PGND*%
D19*
X150500000Y-111500000D02*
X150500000Y-101580000D01*
X154537500Y-115537500D02*
X150500000Y-111500000D01*
X157000000Y-115537500D02*
X154537500Y-115537500D01*
X150500000Y-101580000D02*
X158040000Y-94040000D01*
%TD*%
%TA.AperFunction,Conductor*%
%TO.N,GND*%
G36*
X180418745Y-88618745D02*
G01*
X183381255Y-91581255D01*
X183400000Y-91626510D01*
X183400000Y-134373490D01*
X183381255Y-134418745D01*
X180418745Y-137381255D01*
X180373490Y-137400000D01*
X137626510Y-137400000D01*
X137581255Y-137381255D01*
X134618745Y-134418745D01*
X134600000Y-134373490D01*
X134600000Y-133878705D01*
X136149500Y-133878705D01*
X136149500Y-134121294D01*
X136181160Y-134361783D01*
X136181163Y-134361797D01*
X136243945Y-134596100D01*
X136336773Y-134820207D01*
X136458065Y-135030291D01*
X136531899Y-135126513D01*
X136605735Y-135222738D01*
X136777262Y-135394265D01*
X136915360Y-135500231D01*
X136933628Y-135514249D01*
X136969711Y-135541936D01*
X137179788Y-135663224D01*
X137179789Y-135663224D01*
X137179792Y-135663226D01*
X137403899Y-135756054D01*
X137638202Y-135818836D01*
X137638216Y-135818839D01*
X137833806Y-135844588D01*
X137878712Y-135850500D01*
X138121288Y-135850500D01*
X138241538Y-135834669D01*
X138361783Y-135818839D01*
X138361785Y-135818838D01*
X138361789Y-135818838D01*
X138361794Y-135818836D01*
X138361797Y-135818836D01*
X138596100Y-135756054D01*
X138820207Y-135663226D01*
X138820206Y-135663226D01*
X138820212Y-135663224D01*
X139030289Y-135541936D01*
X139222738Y-135394265D01*
X139394265Y-135222738D01*
X139541936Y-135030289D01*
X139663224Y-134820212D01*
X139756054Y-134596100D01*
X139818838Y-134361789D01*
X139850500Y-134121288D01*
X139850500Y-133878712D01*
X139850499Y-133878705D01*
X178149500Y-133878705D01*
X178149500Y-134121294D01*
X178181160Y-134361783D01*
X178181163Y-134361797D01*
X178243945Y-134596100D01*
X178336773Y-134820207D01*
X178458065Y-135030291D01*
X178531899Y-135126513D01*
X178605735Y-135222738D01*
X178777262Y-135394265D01*
X178915360Y-135500231D01*
X178933628Y-135514249D01*
X178969711Y-135541936D01*
X179179788Y-135663224D01*
X179179789Y-135663224D01*
X179179792Y-135663226D01*
X179403899Y-135756054D01*
X179638202Y-135818836D01*
X179638216Y-135818839D01*
X179833806Y-135844588D01*
X179878712Y-135850500D01*
X180121288Y-135850500D01*
X180241538Y-135834669D01*
X180361783Y-135818839D01*
X180361785Y-135818838D01*
X180361789Y-135818838D01*
X180361794Y-135818836D01*
X180361797Y-135818836D01*
X180596100Y-135756054D01*
X180820207Y-135663226D01*
X180820206Y-135663226D01*
X180820212Y-135663224D01*
X181030289Y-135541936D01*
X181222738Y-135394265D01*
X181394265Y-135222738D01*
X181541936Y-135030289D01*
X181663224Y-134820212D01*
X181756054Y-134596100D01*
X181818838Y-134361789D01*
X181850500Y-134121288D01*
X181850500Y-133878712D01*
X181818838Y-133638211D01*
X181756054Y-133403900D01*
X181663224Y-133179788D01*
X181541936Y-132969711D01*
X181394265Y-132777262D01*
X181222738Y-132605735D01*
X181126513Y-132531899D01*
X181030291Y-132458065D01*
X180820207Y-132336773D01*
X180596100Y-132243945D01*
X180361797Y-132181163D01*
X180361783Y-132181160D01*
X180121294Y-132149500D01*
X180121288Y-132149500D01*
X179878712Y-132149500D01*
X179878705Y-132149500D01*
X179638216Y-132181160D01*
X179638202Y-132181163D01*
X179403899Y-132243945D01*
X179179792Y-132336773D01*
X178969708Y-132458065D01*
X178777263Y-132605734D01*
X178605734Y-132777263D01*
X178458065Y-132969708D01*
X178336773Y-133179792D01*
X178243945Y-133403899D01*
X178181163Y-133638202D01*
X178181160Y-133638216D01*
X178149500Y-133878705D01*
X139850499Y-133878705D01*
X139818838Y-133638211D01*
X139756054Y-133403900D01*
X139663224Y-133179788D01*
X139541936Y-132969711D01*
X139394265Y-132777262D01*
X139222738Y-132605735D01*
X139126513Y-132531899D01*
X139030291Y-132458065D01*
X138820207Y-132336773D01*
X138596100Y-132243945D01*
X138361797Y-132181163D01*
X138361783Y-132181160D01*
X138121294Y-132149500D01*
X138121288Y-132149500D01*
X137878712Y-132149500D01*
X137878705Y-132149500D01*
X137638216Y-132181160D01*
X137638202Y-132181163D01*
X137403899Y-132243945D01*
X137179792Y-132336773D01*
X136969708Y-132458065D01*
X136777263Y-132605734D01*
X136605734Y-132777263D01*
X136458065Y-132969708D01*
X136336773Y-133179792D01*
X136243945Y-133403899D01*
X136181163Y-133638202D01*
X136181160Y-133638216D01*
X136149500Y-133878705D01*
X134600000Y-133878705D01*
X134600000Y-120875429D01*
X177099500Y-120875429D01*
X177099500Y-121124570D01*
X177132016Y-121371559D01*
X177132019Y-121371573D01*
X177196497Y-121612207D01*
X177291831Y-121842364D01*
X177291835Y-121842371D01*
X177291836Y-121842373D01*
X177416401Y-122058127D01*
X177568062Y-122255776D01*
X177744224Y-122431938D01*
X177941873Y-122583599D01*
X178157627Y-122708164D01*
X178157630Y-122708165D01*
X178157635Y-122708168D01*
X178387792Y-122803502D01*
X178628426Y-122867980D01*
X178628440Y-122867983D01*
X178781396Y-122888119D01*
X178875435Y-122900500D01*
X179124565Y-122900500D01*
X179277526Y-122880362D01*
X179371559Y-122867983D01*
X179371561Y-122867982D01*
X179371565Y-122867982D01*
X179371570Y-122867980D01*
X179371573Y-122867980D01*
X179612207Y-122803502D01*
X179842364Y-122708168D01*
X179842365Y-122708167D01*
X179842373Y-122708164D01*
X180058127Y-122583599D01*
X180255776Y-122431938D01*
X180431938Y-122255776D01*
X180583599Y-122058127D01*
X180708164Y-121842373D01*
X180803502Y-121612207D01*
X180867982Y-121371565D01*
X180900500Y-121124565D01*
X180900500Y-120875435D01*
X180867982Y-120628435D01*
X180803502Y-120387793D01*
X180803502Y-120387792D01*
X180708168Y-120157635D01*
X180708165Y-120157630D01*
X180708164Y-120157627D01*
X180583599Y-119941873D01*
X180431938Y-119744224D01*
X180255776Y-119568062D01*
X180058127Y-119416401D01*
X179842373Y-119291836D01*
X179842371Y-119291835D01*
X179842364Y-119291831D01*
X179612207Y-119196497D01*
X179371573Y-119132019D01*
X179371559Y-119132016D01*
X179124570Y-119099500D01*
X179124565Y-119099500D01*
X178875435Y-119099500D01*
X178875429Y-119099500D01*
X178628440Y-119132016D01*
X178628426Y-119132019D01*
X178387792Y-119196497D01*
X178157635Y-119291831D01*
X177941874Y-119416400D01*
X177744225Y-119568061D01*
X177568061Y-119744225D01*
X177416400Y-119941874D01*
X177291831Y-120157635D01*
X177196497Y-120387792D01*
X177132019Y-120628426D01*
X177132016Y-120628440D01*
X177099500Y-120875429D01*
X134600000Y-120875429D01*
X134600000Y-113375429D01*
X137599500Y-113375429D01*
X137599500Y-113624570D01*
X137632016Y-113871559D01*
X137632019Y-113871573D01*
X137696497Y-114112207D01*
X137791831Y-114342364D01*
X137791835Y-114342371D01*
X137791836Y-114342373D01*
X137916401Y-114558127D01*
X138068062Y-114755776D01*
X138244224Y-114931938D01*
X138441873Y-115083599D01*
X138657627Y-115208164D01*
X138657630Y-115208165D01*
X138657635Y-115208168D01*
X138887792Y-115303502D01*
X139128426Y-115367980D01*
X139128440Y-115367983D01*
X139278908Y-115387792D01*
X139375435Y-115400500D01*
X139624565Y-115400500D01*
X139777526Y-115380362D01*
X139871559Y-115367983D01*
X139871561Y-115367982D01*
X139871565Y-115367982D01*
X139871570Y-115367980D01*
X139871573Y-115367980D01*
X140112207Y-115303502D01*
X140342364Y-115208168D01*
X140342365Y-115208167D01*
X140342373Y-115208164D01*
X140558127Y-115083599D01*
X140755776Y-114931938D01*
X140931938Y-114755776D01*
X141083599Y-114558127D01*
X141208164Y-114342373D01*
X141268588Y-114196498D01*
X141303502Y-114112207D01*
X141367980Y-113871573D01*
X141367983Y-113871559D01*
X141400499Y-113624570D01*
X141400500Y-113624565D01*
X141400500Y-113375434D01*
X141400499Y-113375429D01*
X141367983Y-113128440D01*
X141367980Y-113128426D01*
X141303502Y-112887792D01*
X141208168Y-112657635D01*
X141208165Y-112657630D01*
X141208164Y-112657627D01*
X141083599Y-112441873D01*
X140931938Y-112244224D01*
X140755776Y-112068062D01*
X140558127Y-111916401D01*
X140342373Y-111791836D01*
X140342371Y-111791835D01*
X140342364Y-111791831D01*
X140112207Y-111696497D01*
X139871573Y-111632019D01*
X139871559Y-111632016D01*
X139624570Y-111599500D01*
X139624565Y-111599500D01*
X139375435Y-111599500D01*
X139375429Y-111599500D01*
X139128440Y-111632016D01*
X139128426Y-111632019D01*
X138887792Y-111696497D01*
X138657635Y-111791831D01*
X138441874Y-111916400D01*
X138244225Y-112068061D01*
X138068061Y-112244225D01*
X137916400Y-112441874D01*
X137791831Y-112657635D01*
X137696497Y-112887792D01*
X137632019Y-113128426D01*
X137632016Y-113128440D01*
X137599500Y-113375429D01*
X134600000Y-113375429D01*
X134600000Y-91878705D01*
X136149500Y-91878705D01*
X136149500Y-92121294D01*
X136181160Y-92361783D01*
X136181163Y-92361797D01*
X136243945Y-92596100D01*
X136336773Y-92820207D01*
X136458065Y-93030291D01*
X136531899Y-93126513D01*
X136605735Y-93222738D01*
X136777262Y-93394265D01*
X136915360Y-93500231D01*
X136943195Y-93521590D01*
X136969711Y-93541936D01*
X137179788Y-93663224D01*
X137179789Y-93663224D01*
X137179792Y-93663226D01*
X137403899Y-93756054D01*
X137638202Y-93818836D01*
X137638216Y-93818839D01*
X137833806Y-93844588D01*
X137878712Y-93850500D01*
X138121288Y-93850500D01*
X138241538Y-93834669D01*
X138361783Y-93818839D01*
X138361785Y-93818838D01*
X138361789Y-93818838D01*
X138361794Y-93818836D01*
X138361797Y-93818836D01*
X138596100Y-93756054D01*
X138820207Y-93663226D01*
X138820206Y-93663226D01*
X138820212Y-93663224D01*
X139030289Y-93541936D01*
X139222738Y-93394265D01*
X139394265Y-93222738D01*
X139541936Y-93030289D01*
X139663224Y-92820212D01*
X139756054Y-92596100D01*
X139818838Y-92361789D01*
X139850500Y-92121288D01*
X139850500Y-91878712D01*
X139818838Y-91638211D01*
X139756054Y-91403900D01*
X139751834Y-91393713D01*
X143989500Y-91393713D01*
X143989500Y-91606287D01*
X143994557Y-91638216D01*
X144022753Y-91816242D01*
X144088442Y-92018409D01*
X144088445Y-92018418D01*
X144184944Y-92207809D01*
X144184949Y-92207816D01*
X144309896Y-92379792D01*
X144460208Y-92530104D01*
X144551045Y-92596100D01*
X144632183Y-92655050D01*
X144632185Y-92655052D01*
X144745867Y-92712976D01*
X144777679Y-92750223D01*
X144773835Y-92799056D01*
X144745867Y-92827024D01*
X144632185Y-92884947D01*
X144632183Y-92884949D01*
X144460207Y-93009896D01*
X144309896Y-93160207D01*
X144184949Y-93332183D01*
X144184944Y-93332190D01*
X144088445Y-93521581D01*
X144088442Y-93521590D01*
X144022753Y-93723757D01*
X143989500Y-93933715D01*
X143989500Y-94146284D01*
X144022753Y-94356242D01*
X144088442Y-94558409D01*
X144088445Y-94558418D01*
X144184944Y-94747809D01*
X144184949Y-94747816D01*
X144309896Y-94919792D01*
X144460207Y-95070103D01*
X144632183Y-95195050D01*
X144632190Y-95195055D01*
X144821581Y-95291554D01*
X144821584Y-95291555D01*
X144821588Y-95291557D01*
X145023757Y-95357246D01*
X145233713Y-95390500D01*
X145233716Y-95390500D01*
X145446284Y-95390500D01*
X145446287Y-95390500D01*
X145656243Y-95357246D01*
X145858412Y-95291557D01*
X145858418Y-95291554D01*
X146047809Y-95195055D01*
X146047811Y-95195053D01*
X146047816Y-95195051D01*
X146219792Y-95070104D01*
X146370104Y-94919792D01*
X146495051Y-94747816D01*
X146495055Y-94747809D01*
X146552976Y-94634133D01*
X146590223Y-94602320D01*
X146639055Y-94606164D01*
X146667024Y-94634133D01*
X146724944Y-94747809D01*
X146724949Y-94747816D01*
X146849896Y-94919792D01*
X147000207Y-95070103D01*
X147172183Y-95195050D01*
X147172190Y-95195055D01*
X147361581Y-95291554D01*
X147361584Y-95291555D01*
X147361588Y-95291557D01*
X147563757Y-95357246D01*
X147773713Y-95390500D01*
X147773716Y-95390500D01*
X147986284Y-95390500D01*
X147986287Y-95390500D01*
X148196243Y-95357246D01*
X148398412Y-95291557D01*
X148398418Y-95291554D01*
X148587809Y-95195055D01*
X148587811Y-95195053D01*
X148587816Y-95195051D01*
X148759792Y-95070104D01*
X148910104Y-94919792D01*
X149035051Y-94747816D01*
X149035055Y-94747809D01*
X149092976Y-94634133D01*
X149130223Y-94602320D01*
X149179055Y-94606164D01*
X149207024Y-94634133D01*
X149264944Y-94747809D01*
X149264949Y-94747816D01*
X149389896Y-94919792D01*
X149540207Y-95070103D01*
X149712183Y-95195050D01*
X149712190Y-95195055D01*
X149901581Y-95291554D01*
X149901584Y-95291555D01*
X149901588Y-95291557D01*
X150103757Y-95357246D01*
X150313713Y-95390500D01*
X150313716Y-95390500D01*
X150526284Y-95390500D01*
X150526287Y-95390500D01*
X150736243Y-95357246D01*
X150938412Y-95291557D01*
X150938418Y-95291554D01*
X151127809Y-95195055D01*
X151127811Y-95195053D01*
X151127816Y-95195051D01*
X151299792Y-95070104D01*
X151450104Y-94919792D01*
X151575051Y-94747816D01*
X151575055Y-94747809D01*
X151632976Y-94634133D01*
X151670223Y-94602320D01*
X151719055Y-94606164D01*
X151747024Y-94634133D01*
X151804944Y-94747809D01*
X151804949Y-94747816D01*
X151929896Y-94919792D01*
X152080207Y-95070103D01*
X152252183Y-95195050D01*
X152252190Y-95195055D01*
X152441581Y-95291554D01*
X152441584Y-95291555D01*
X152441588Y-95291557D01*
X152643757Y-95357246D01*
X152853713Y-95390500D01*
X152853716Y-95390500D01*
X153066284Y-95390500D01*
X153066287Y-95390500D01*
X153276243Y-95357246D01*
X153478412Y-95291557D01*
X153478418Y-95291554D01*
X153667809Y-95195055D01*
X153667811Y-95195053D01*
X153667816Y-95195051D01*
X153839792Y-95070104D01*
X153990104Y-94919792D01*
X154115051Y-94747816D01*
X154115055Y-94747809D01*
X154172976Y-94634133D01*
X154210223Y-94602320D01*
X154259055Y-94606164D01*
X154287024Y-94634133D01*
X154344944Y-94747809D01*
X154344949Y-94747816D01*
X154469896Y-94919792D01*
X154620207Y-95070103D01*
X154792183Y-95195050D01*
X154792190Y-95195055D01*
X154981581Y-95291554D01*
X154981584Y-95291555D01*
X154981588Y-95291557D01*
X155183757Y-95357246D01*
X155393713Y-95390500D01*
X155402912Y-95390500D01*
X155448167Y-95409245D01*
X155466912Y-95454500D01*
X155448167Y-95499755D01*
X149878212Y-101069709D01*
X149790606Y-101200820D01*
X149790605Y-101200823D01*
X149730263Y-101346498D01*
X149730262Y-101346504D01*
X149699500Y-101501155D01*
X149699500Y-111578844D01*
X149730262Y-111733495D01*
X149730263Y-111733501D01*
X149782080Y-111858595D01*
X149790606Y-111879179D01*
X149878211Y-112010289D01*
X153915711Y-116047789D01*
X154027211Y-116159289D01*
X154158321Y-116246894D01*
X154221856Y-116273211D01*
X154303998Y-116307236D01*
X154304002Y-116307236D01*
X154304003Y-116307237D01*
X154342666Y-116314927D01*
X154458654Y-116338000D01*
X154458657Y-116338000D01*
X157078845Y-116338000D01*
X157171635Y-116319542D01*
X157233497Y-116307237D01*
X157233498Y-116307236D01*
X157233501Y-116307236D01*
X157283875Y-116286369D01*
X157379179Y-116246894D01*
X157510289Y-116159289D01*
X157621789Y-116047789D01*
X157709394Y-115916679D01*
X157748869Y-115821375D01*
X157769736Y-115771001D01*
X157769737Y-115770995D01*
X157800500Y-115616344D01*
X157800500Y-115458655D01*
X157769737Y-115304004D01*
X157769736Y-115303998D01*
X157730039Y-115208164D01*
X157709394Y-115158321D01*
X157621789Y-115027211D01*
X157510289Y-114915711D01*
X157379179Y-114828106D01*
X157360568Y-114820397D01*
X157233501Y-114767763D01*
X157233495Y-114767762D01*
X157078845Y-114737000D01*
X157078842Y-114737000D01*
X154895588Y-114737000D01*
X154850333Y-114718255D01*
X151678333Y-111546255D01*
X155574400Y-111546255D01*
X155574400Y-111703944D01*
X155605162Y-111858595D01*
X155605163Y-111858601D01*
X155657797Y-111985668D01*
X155665506Y-112004279D01*
X155753111Y-112135389D01*
X160239511Y-116621789D01*
X160370621Y-116709394D01*
X160434156Y-116735711D01*
X160516298Y-116769736D01*
X160516302Y-116769736D01*
X160516303Y-116769737D01*
X160554966Y-116777427D01*
X160670955Y-116800500D01*
X160670958Y-116800500D01*
X160828642Y-116800500D01*
X177231728Y-116800500D01*
X177276983Y-116819245D01*
X177290857Y-116840010D01*
X177291832Y-116842365D01*
X177291834Y-116842369D01*
X177291836Y-116842373D01*
X177416401Y-117058127D01*
X177568062Y-117255776D01*
X177744224Y-117431938D01*
X177941873Y-117583599D01*
X178157627Y-117708164D01*
X178157630Y-117708165D01*
X178157635Y-117708168D01*
X178387792Y-117803502D01*
X178628426Y-117867980D01*
X178628440Y-117867983D01*
X178781396Y-117888119D01*
X178875435Y-117900500D01*
X179124565Y-117900500D01*
X179277526Y-117880362D01*
X179371559Y-117867983D01*
X179371561Y-117867982D01*
X179371565Y-117867982D01*
X179371570Y-117867980D01*
X179371573Y-117867980D01*
X179612207Y-117803502D01*
X179842364Y-117708168D01*
X179842365Y-117708167D01*
X179842373Y-117708164D01*
X180058127Y-117583599D01*
X180255776Y-117431938D01*
X180431938Y-117255776D01*
X180583599Y-117058127D01*
X180708164Y-116842373D01*
X180725509Y-116800500D01*
X180803502Y-116612207D01*
X180867980Y-116371573D01*
X180867983Y-116371559D01*
X180884395Y-116246893D01*
X180900500Y-116124565D01*
X180900500Y-115875435D01*
X180867982Y-115628435D01*
X180864742Y-115616344D01*
X180803502Y-115387792D01*
X180708168Y-115157635D01*
X180708165Y-115157630D01*
X180708164Y-115157627D01*
X180583599Y-114941873D01*
X180431938Y-114744224D01*
X180255776Y-114568062D01*
X180058127Y-114416401D01*
X179842373Y-114291836D01*
X179842371Y-114291835D01*
X179842364Y-114291831D01*
X179612207Y-114196497D01*
X179371573Y-114132019D01*
X179371559Y-114132016D01*
X179124570Y-114099500D01*
X179124565Y-114099500D01*
X178875435Y-114099500D01*
X178875429Y-114099500D01*
X178628440Y-114132016D01*
X178628426Y-114132019D01*
X178387792Y-114196497D01*
X178157635Y-114291831D01*
X177941874Y-114416400D01*
X177744225Y-114568061D01*
X177568061Y-114744225D01*
X177416400Y-114941874D01*
X177291832Y-115157634D01*
X177290857Y-115159990D01*
X177256221Y-115194628D01*
X177231728Y-115199500D01*
X161107888Y-115199500D01*
X161062633Y-115180755D01*
X160791633Y-114909755D01*
X160772888Y-114864500D01*
X160791633Y-114819245D01*
X160836888Y-114800500D01*
X176078845Y-114800500D01*
X176171635Y-114782042D01*
X176233497Y-114769737D01*
X176233498Y-114769736D01*
X176233501Y-114769736D01*
X176295091Y-114744224D01*
X176379179Y-114709394D01*
X176510289Y-114621789D01*
X178315682Y-112816394D01*
X178360936Y-112797650D01*
X178385435Y-112802525D01*
X178387793Y-112803502D01*
X178628426Y-112867980D01*
X178628440Y-112867983D01*
X178778908Y-112887792D01*
X178875435Y-112900500D01*
X179124565Y-112900500D01*
X179277526Y-112880362D01*
X179371559Y-112867983D01*
X179371561Y-112867982D01*
X179371565Y-112867982D01*
X179371570Y-112867980D01*
X179371573Y-112867980D01*
X179612207Y-112803502D01*
X179842364Y-112708168D01*
X179842365Y-112708167D01*
X179842373Y-112708164D01*
X180058127Y-112583599D01*
X180255776Y-112431938D01*
X180431938Y-112255776D01*
X180583599Y-112058127D01*
X180708164Y-111842373D01*
X180768588Y-111696498D01*
X180803502Y-111612207D01*
X180867980Y-111371573D01*
X180867983Y-111371559D01*
X180900499Y-111124570D01*
X180900500Y-111124565D01*
X180900500Y-110875434D01*
X180900499Y-110875429D01*
X180867983Y-110628440D01*
X180867980Y-110628426D01*
X180803502Y-110387792D01*
X180708168Y-110157635D01*
X180708165Y-110157630D01*
X180708164Y-110157627D01*
X180583599Y-109941873D01*
X180431938Y-109744224D01*
X180255776Y-109568062D01*
X180058127Y-109416401D01*
X179842373Y-109291836D01*
X179842371Y-109291835D01*
X179842364Y-109291831D01*
X179612207Y-109196497D01*
X179371573Y-109132019D01*
X179371559Y-109132016D01*
X179124570Y-109099500D01*
X179124565Y-109099500D01*
X178875435Y-109099500D01*
X178875429Y-109099500D01*
X178628440Y-109132016D01*
X178628426Y-109132019D01*
X178387792Y-109196497D01*
X178157635Y-109291831D01*
X177941874Y-109416400D01*
X177744225Y-109568061D01*
X177568061Y-109744225D01*
X177416400Y-109941874D01*
X177291831Y-110157635D01*
X177196497Y-110387792D01*
X177132019Y-110628426D01*
X177132016Y-110628440D01*
X177099500Y-110875429D01*
X177099500Y-111124570D01*
X177132016Y-111371559D01*
X177132019Y-111371573D01*
X177196498Y-111612207D01*
X177197480Y-111614579D01*
X177197473Y-111663562D01*
X177183603Y-111684317D01*
X175687167Y-113180755D01*
X175641912Y-113199500D01*
X160858088Y-113199500D01*
X160812833Y-113180755D01*
X160041833Y-112409755D01*
X160023088Y-112364500D01*
X160041833Y-112319245D01*
X160087088Y-112300500D01*
X173578845Y-112300500D01*
X173671635Y-112282042D01*
X173733497Y-112269737D01*
X173733498Y-112269736D01*
X173733501Y-112269736D01*
X173795091Y-112244224D01*
X173879179Y-112209394D01*
X174010289Y-112121789D01*
X178315682Y-107816394D01*
X178360936Y-107797650D01*
X178385435Y-107802525D01*
X178387793Y-107803502D01*
X178628426Y-107867980D01*
X178628440Y-107867983D01*
X178781396Y-107888119D01*
X178875435Y-107900500D01*
X179124565Y-107900500D01*
X179277526Y-107880362D01*
X179371559Y-107867983D01*
X179371561Y-107867982D01*
X179371565Y-107867982D01*
X179371570Y-107867980D01*
X179371573Y-107867980D01*
X179612207Y-107803502D01*
X179842364Y-107708168D01*
X179842365Y-107708167D01*
X179842373Y-107708164D01*
X180058127Y-107583599D01*
X180255776Y-107431938D01*
X180431938Y-107255776D01*
X180583599Y-107058127D01*
X180708164Y-106842373D01*
X180803502Y-106612207D01*
X180867982Y-106371565D01*
X180900500Y-106124565D01*
X180900500Y-105875435D01*
X180867982Y-105628435D01*
X180803502Y-105387793D01*
X180803502Y-105387792D01*
X180708168Y-105157635D01*
X180708165Y-105157630D01*
X180708164Y-105157627D01*
X180583599Y-104941873D01*
X180431938Y-104744224D01*
X180255776Y-104568062D01*
X180058127Y-104416401D01*
X179842373Y-104291836D01*
X179842371Y-104291835D01*
X179842364Y-104291831D01*
X179612207Y-104196497D01*
X179371573Y-104132019D01*
X179371559Y-104132016D01*
X179124570Y-104099500D01*
X179124565Y-104099500D01*
X178875435Y-104099500D01*
X178875429Y-104099500D01*
X178628440Y-104132016D01*
X178628426Y-104132019D01*
X178387792Y-104196497D01*
X178157635Y-104291831D01*
X177941874Y-104416400D01*
X177744225Y-104568061D01*
X177568061Y-104744225D01*
X177416400Y-104941874D01*
X177291831Y-105157635D01*
X177196497Y-105387792D01*
X177132019Y-105628426D01*
X177132016Y-105628440D01*
X177099500Y-105875429D01*
X177099500Y-106124570D01*
X177132016Y-106371559D01*
X177132019Y-106371573D01*
X177196498Y-106612207D01*
X177197480Y-106614579D01*
X177197473Y-106663562D01*
X177183603Y-106684317D01*
X173187167Y-110680755D01*
X173141912Y-110699500D01*
X159745035Y-110699500D01*
X159699780Y-110680755D01*
X159681035Y-110635500D01*
X159685906Y-110611011D01*
X159696758Y-110584813D01*
X159725600Y-110439818D01*
X159725600Y-110291982D01*
X159725600Y-110291979D01*
X159696759Y-110146991D01*
X159696758Y-110146989D01*
X159696758Y-110146987D01*
X159640184Y-110010405D01*
X159594393Y-109941873D01*
X159586386Y-109929889D01*
X159575600Y-109894333D01*
X159575600Y-109286845D01*
X159575598Y-109286836D01*
X159574556Y-109282949D01*
X159534677Y-109134116D01*
X159455620Y-108997184D01*
X159343816Y-108885380D01*
X159206884Y-108806323D01*
X159206883Y-108806322D01*
X159206880Y-108806321D01*
X159054163Y-108765401D01*
X159054159Y-108765400D01*
X159054157Y-108765400D01*
X158896043Y-108765400D01*
X158896041Y-108765400D01*
X158896036Y-108765401D01*
X158743320Y-108806321D01*
X158743319Y-108806321D01*
X158606382Y-108885381D01*
X158494577Y-108997186D01*
X158444802Y-109083400D01*
X158405941Y-109113219D01*
X158389377Y-109115400D01*
X158251179Y-109115400D01*
X158106191Y-109144240D01*
X158106189Y-109144241D01*
X157969607Y-109200815D01*
X157969599Y-109200819D01*
X157846684Y-109282948D01*
X157742148Y-109387484D01*
X157660019Y-109510399D01*
X157660015Y-109510407D01*
X157603441Y-109646989D01*
X157603440Y-109646991D01*
X157574600Y-109791979D01*
X157574600Y-109939820D01*
X157603440Y-110084808D01*
X157603441Y-110084810D01*
X157603442Y-110084813D01*
X157660016Y-110221395D01*
X157713814Y-110301910D01*
X157724600Y-110337465D01*
X157724600Y-111267012D01*
X157705855Y-111312267D01*
X157703312Y-111314809D01*
X157615706Y-111445920D01*
X157615705Y-111445923D01*
X157568034Y-111561010D01*
X157533397Y-111595646D01*
X157484414Y-111595646D01*
X157463651Y-111581773D01*
X156994145Y-111112267D01*
X156975400Y-111067012D01*
X156975400Y-110337465D01*
X156986185Y-110301910D01*
X157039984Y-110221395D01*
X157096558Y-110084813D01*
X157124991Y-109941874D01*
X157125400Y-109939820D01*
X157125400Y-109791979D01*
X157096559Y-109646991D01*
X157096558Y-109646989D01*
X157096558Y-109646987D01*
X157039984Y-109510405D01*
X156957851Y-109387484D01*
X156853316Y-109282949D01*
X156853315Y-109282948D01*
X156730400Y-109200819D01*
X156730397Y-109200817D01*
X156730395Y-109200816D01*
X156593813Y-109144242D01*
X156593811Y-109144241D01*
X156593810Y-109144241D01*
X156593808Y-109144240D01*
X156448821Y-109115400D01*
X156448818Y-109115400D01*
X156300982Y-109115400D01*
X156300979Y-109115400D01*
X156155991Y-109144240D01*
X156155989Y-109144241D01*
X156019407Y-109200815D01*
X156019399Y-109200819D01*
X155896484Y-109282948D01*
X155791948Y-109387484D01*
X155709819Y-109510399D01*
X155709815Y-109510407D01*
X155653241Y-109646989D01*
X155653240Y-109646991D01*
X155624400Y-109791979D01*
X155624400Y-109939820D01*
X155653240Y-110084808D01*
X155653241Y-110084810D01*
X155653242Y-110084813D01*
X155709816Y-110221395D01*
X155763614Y-110301910D01*
X155774400Y-110337465D01*
X155774400Y-111067012D01*
X155755655Y-111112267D01*
X155753112Y-111114809D01*
X155665506Y-111245920D01*
X155665505Y-111245923D01*
X155605163Y-111391598D01*
X155605162Y-111391604D01*
X155574400Y-111546255D01*
X151678333Y-111546255D01*
X151319245Y-111187167D01*
X151300500Y-111141912D01*
X151300500Y-101938087D01*
X151319244Y-101892833D01*
X157813852Y-95398224D01*
X157859106Y-95379480D01*
X157869110Y-95380267D01*
X157933713Y-95390500D01*
X157933716Y-95390500D01*
X158146284Y-95390500D01*
X158146287Y-95390500D01*
X158356243Y-95357246D01*
X158558412Y-95291557D01*
X158558418Y-95291554D01*
X158747809Y-95195055D01*
X158747811Y-95195053D01*
X158747816Y-95195051D01*
X158919792Y-95070104D01*
X159070104Y-94919792D01*
X159195051Y-94747816D01*
X159195055Y-94747809D01*
X159252976Y-94634133D01*
X159290223Y-94602320D01*
X159339055Y-94606164D01*
X159367024Y-94634133D01*
X159424944Y-94747809D01*
X159424949Y-94747816D01*
X159549896Y-94919792D01*
X159700207Y-95070103D01*
X159872183Y-95195050D01*
X159872185Y-95195052D01*
X159893187Y-95205752D01*
X159944555Y-95231926D01*
X159976367Y-95269171D01*
X159979500Y-95288949D01*
X159979500Y-98842300D01*
X159960755Y-98887555D01*
X159915500Y-98906300D01*
X159903088Y-98906300D01*
X159857833Y-98887555D01*
X159855290Y-98885012D01*
X159791367Y-98842300D01*
X159724179Y-98797406D01*
X159705568Y-98789697D01*
X159578501Y-98737063D01*
X159578495Y-98737062D01*
X159423845Y-98706300D01*
X159423842Y-98706300D01*
X159266158Y-98706300D01*
X159266155Y-98706300D01*
X159111504Y-98737062D01*
X159111498Y-98737063D01*
X158965823Y-98797405D01*
X158965820Y-98797406D01*
X158834709Y-98885012D01*
X158832167Y-98887555D01*
X158786912Y-98906300D01*
X157603088Y-98906300D01*
X157557833Y-98887555D01*
X157555290Y-98885012D01*
X157491367Y-98842300D01*
X157424179Y-98797406D01*
X157405568Y-98789697D01*
X157278501Y-98737063D01*
X157278495Y-98737062D01*
X157123845Y-98706300D01*
X157123842Y-98706300D01*
X156966158Y-98706300D01*
X156966155Y-98706300D01*
X156811504Y-98737062D01*
X156811498Y-98737063D01*
X156665823Y-98797405D01*
X156665820Y-98797406D01*
X156534709Y-98885012D01*
X156532167Y-98887555D01*
X156486912Y-98906300D01*
X155603088Y-98906300D01*
X155557833Y-98887555D01*
X155555290Y-98885012D01*
X155491367Y-98842300D01*
X155424179Y-98797406D01*
X155405568Y-98789697D01*
X155278501Y-98737063D01*
X155278495Y-98737062D01*
X155123845Y-98706300D01*
X155123842Y-98706300D01*
X154966158Y-98706300D01*
X154966155Y-98706300D01*
X154811504Y-98737062D01*
X154811498Y-98737063D01*
X154665823Y-98797405D01*
X154665820Y-98797406D01*
X154534709Y-98885012D01*
X154423212Y-98996509D01*
X154335606Y-99127620D01*
X154335605Y-99127623D01*
X154275263Y-99273298D01*
X154275262Y-99273304D01*
X154244500Y-99427955D01*
X154244500Y-99585644D01*
X154275262Y-99740295D01*
X154275263Y-99740301D01*
X154327897Y-99867368D01*
X154335606Y-99885979D01*
X154423211Y-100017089D01*
X154534711Y-100128589D01*
X154665821Y-100216194D01*
X154729356Y-100242511D01*
X154811498Y-100276536D01*
X154811502Y-100276536D01*
X154811503Y-100276537D01*
X154850166Y-100284227D01*
X154966155Y-100307300D01*
X154966158Y-100307300D01*
X155123845Y-100307300D01*
X155216635Y-100288842D01*
X155278497Y-100276537D01*
X155278498Y-100276536D01*
X155278501Y-100276536D01*
X155328875Y-100255669D01*
X155424179Y-100216194D01*
X155555289Y-100128589D01*
X155557833Y-100126045D01*
X155603088Y-100107300D01*
X156486912Y-100107300D01*
X156532167Y-100126045D01*
X156534711Y-100128589D01*
X156665821Y-100216194D01*
X156729356Y-100242511D01*
X156811498Y-100276536D01*
X156811502Y-100276536D01*
X156811503Y-100276537D01*
X156850166Y-100284227D01*
X156966155Y-100307300D01*
X156966158Y-100307300D01*
X157123845Y-100307300D01*
X157216635Y-100288842D01*
X157278497Y-100276537D01*
X157278498Y-100276536D01*
X157278501Y-100276536D01*
X157328875Y-100255669D01*
X157424179Y-100216194D01*
X157555289Y-100128589D01*
X157557833Y-100126045D01*
X157603088Y-100107300D01*
X158786912Y-100107300D01*
X158832167Y-100126045D01*
X158834711Y-100128589D01*
X158965821Y-100216194D01*
X159029356Y-100242511D01*
X159111498Y-100276536D01*
X159111502Y-100276536D01*
X159111503Y-100276537D01*
X159150166Y-100284227D01*
X159266155Y-100307300D01*
X159266158Y-100307300D01*
X159423845Y-100307300D01*
X159516635Y-100288842D01*
X159578497Y-100276537D01*
X159578498Y-100276536D01*
X159578501Y-100276536D01*
X159628875Y-100255669D01*
X159724179Y-100216194D01*
X159855289Y-100128589D01*
X159857833Y-100126045D01*
X159903088Y-100107300D01*
X160410210Y-100107300D01*
X160410226Y-100107301D01*
X160414143Y-100107301D01*
X160576174Y-100107301D01*
X160576190Y-100107300D01*
X160880500Y-100107300D01*
X160925755Y-100126045D01*
X160944500Y-100171300D01*
X160944500Y-101462009D01*
X160944499Y-101462027D01*
X160944499Y-101624061D01*
X160985423Y-101776785D01*
X160985424Y-101776788D01*
X161006618Y-101813495D01*
X161006619Y-101813497D01*
X161064480Y-101913716D01*
X161179929Y-102029165D01*
X161179935Y-102029170D01*
X161605755Y-102454990D01*
X161624500Y-102500245D01*
X161624500Y-103662833D01*
X161613714Y-103698389D01*
X161559919Y-103778899D01*
X161559915Y-103778907D01*
X161503341Y-103915489D01*
X161503340Y-103915491D01*
X161474500Y-104060479D01*
X161474500Y-104208320D01*
X161503340Y-104353308D01*
X161503341Y-104353310D01*
X161503342Y-104353313D01*
X161559916Y-104489895D01*
X161559917Y-104489897D01*
X161559919Y-104489900D01*
X161612145Y-104568062D01*
X161642049Y-104612816D01*
X161746584Y-104717351D01*
X161869505Y-104799484D01*
X162006087Y-104856058D01*
X162006090Y-104856058D01*
X162006091Y-104856059D01*
X162151079Y-104884900D01*
X162151082Y-104884900D01*
X162298921Y-104884900D01*
X162443908Y-104856059D01*
X162443908Y-104856058D01*
X162443913Y-104856058D01*
X162580495Y-104799484D01*
X162703416Y-104717351D01*
X162807951Y-104612816D01*
X162890084Y-104489895D01*
X162946658Y-104353313D01*
X162975500Y-104208318D01*
X162975500Y-104060482D01*
X162975500Y-104060479D01*
X162946659Y-103915491D01*
X162946658Y-103915489D01*
X162946658Y-103915487D01*
X162890084Y-103778905D01*
X162836286Y-103698389D01*
X162825500Y-103662833D01*
X162825500Y-102145945D01*
X162825500Y-102145943D01*
X162825382Y-102145500D01*
X162784577Y-101993215D01*
X162738678Y-101913716D01*
X162705520Y-101856284D01*
X162593716Y-101744480D01*
X162591486Y-101742250D01*
X162591475Y-101742240D01*
X162164245Y-101315010D01*
X162145500Y-101269755D01*
X162145500Y-100064888D01*
X162164245Y-100019633D01*
X162166789Y-100017089D01*
X162254394Y-99885979D01*
X162293869Y-99790675D01*
X162314736Y-99740301D01*
X162314737Y-99740295D01*
X162345500Y-99585644D01*
X162345500Y-99427955D01*
X162314737Y-99273304D01*
X162314736Y-99273298D01*
X162280711Y-99191156D01*
X162254394Y-99127621D01*
X162166789Y-98996511D01*
X162055289Y-98885011D01*
X161924179Y-98797406D01*
X161905568Y-98789697D01*
X161778501Y-98737063D01*
X161778495Y-98737062D01*
X161623845Y-98706300D01*
X161623842Y-98706300D01*
X161466158Y-98706300D01*
X161466155Y-98706300D01*
X161311505Y-98737062D01*
X161311501Y-98737063D01*
X161268991Y-98754671D01*
X161220007Y-98754670D01*
X161185371Y-98720033D01*
X161180500Y-98695542D01*
X161180500Y-95288949D01*
X161199245Y-95243694D01*
X161215440Y-95231928D01*
X161287816Y-95195051D01*
X161459792Y-95070104D01*
X161610104Y-94919792D01*
X161735051Y-94747816D01*
X161831557Y-94558412D01*
X161897246Y-94356243D01*
X161930500Y-94146287D01*
X161930500Y-93933713D01*
X161897246Y-93723757D01*
X161831557Y-93521588D01*
X161831555Y-93521584D01*
X161831554Y-93521581D01*
X161735055Y-93332190D01*
X161735051Y-93332185D01*
X161735051Y-93332184D01*
X161610104Y-93160208D01*
X161459792Y-93009896D01*
X161287816Y-92884949D01*
X161287809Y-92884944D01*
X161098418Y-92788445D01*
X161098409Y-92788442D01*
X160896242Y-92722753D01*
X160762047Y-92701499D01*
X160686287Y-92689500D01*
X160473713Y-92689500D01*
X160406086Y-92700210D01*
X160263757Y-92722753D01*
X160061590Y-92788442D01*
X160061581Y-92788445D01*
X159872190Y-92884944D01*
X159872183Y-92884949D01*
X159700207Y-93009896D01*
X159549896Y-93160207D01*
X159424949Y-93332183D01*
X159424947Y-93332185D01*
X159367024Y-93445867D01*
X159329777Y-93477679D01*
X159280944Y-93473835D01*
X159252976Y-93445867D01*
X159195052Y-93332185D01*
X159195050Y-93332183D01*
X159070103Y-93160207D01*
X158919792Y-93009896D01*
X158747816Y-92884949D01*
X158747809Y-92884944D01*
X158634133Y-92827024D01*
X158602320Y-92789777D01*
X158606164Y-92740945D01*
X158634133Y-92712976D01*
X158747809Y-92655055D01*
X158747811Y-92655053D01*
X158747816Y-92655051D01*
X158919792Y-92530104D01*
X159070104Y-92379792D01*
X159195051Y-92207816D01*
X159291557Y-92018412D01*
X159336951Y-91878705D01*
X178149500Y-91878705D01*
X178149500Y-92121294D01*
X178181160Y-92361783D01*
X178181163Y-92361797D01*
X178243945Y-92596100D01*
X178336773Y-92820207D01*
X178458065Y-93030291D01*
X178531899Y-93126513D01*
X178605735Y-93222738D01*
X178777262Y-93394265D01*
X178915360Y-93500231D01*
X178943195Y-93521590D01*
X178969711Y-93541936D01*
X179179788Y-93663224D01*
X179179789Y-93663224D01*
X179179792Y-93663226D01*
X179403899Y-93756054D01*
X179638202Y-93818836D01*
X179638216Y-93818839D01*
X179833806Y-93844588D01*
X179878712Y-93850500D01*
X180121288Y-93850500D01*
X180241538Y-93834669D01*
X180361783Y-93818839D01*
X180361785Y-93818838D01*
X180361789Y-93818838D01*
X180361794Y-93818836D01*
X180361797Y-93818836D01*
X180596100Y-93756054D01*
X180820207Y-93663226D01*
X180820206Y-93663226D01*
X180820212Y-93663224D01*
X181030289Y-93541936D01*
X181222738Y-93394265D01*
X181394265Y-93222738D01*
X181541936Y-93030289D01*
X181663224Y-92820212D01*
X181756054Y-92596100D01*
X181818838Y-92361789D01*
X181850500Y-92121288D01*
X181850500Y-91878712D01*
X181818838Y-91638211D01*
X181810283Y-91606284D01*
X181756054Y-91403899D01*
X181663226Y-91179792D01*
X181541934Y-90969708D01*
X181433222Y-90828032D01*
X181394265Y-90777262D01*
X181222738Y-90605735D01*
X181126513Y-90531899D01*
X181030291Y-90458065D01*
X180820207Y-90336773D01*
X180596100Y-90243945D01*
X180361797Y-90181163D01*
X180361783Y-90181160D01*
X180121294Y-90149500D01*
X180121288Y-90149500D01*
X179878712Y-90149500D01*
X179878705Y-90149500D01*
X179638216Y-90181160D01*
X179638202Y-90181163D01*
X179403899Y-90243945D01*
X179179792Y-90336773D01*
X178969708Y-90458065D01*
X178777263Y-90605734D01*
X178605734Y-90777263D01*
X178458065Y-90969708D01*
X178336773Y-91179792D01*
X178243945Y-91403899D01*
X178181163Y-91638202D01*
X178181160Y-91638216D01*
X178149500Y-91878705D01*
X159336951Y-91878705D01*
X159357246Y-91816243D01*
X159390500Y-91606287D01*
X159390500Y-91393713D01*
X159357246Y-91183757D01*
X159291557Y-90981588D01*
X159291555Y-90981584D01*
X159291554Y-90981581D01*
X159195055Y-90792190D01*
X159195051Y-90792185D01*
X159195051Y-90792184D01*
X159070104Y-90620208D01*
X158919792Y-90469896D01*
X158747816Y-90344949D01*
X158747809Y-90344944D01*
X158558418Y-90248445D01*
X158558409Y-90248442D01*
X158356242Y-90182753D01*
X158222047Y-90161499D01*
X158146287Y-90149500D01*
X157933713Y-90149500D01*
X157866086Y-90160210D01*
X157723757Y-90182753D01*
X157521590Y-90248442D01*
X157521581Y-90248445D01*
X157332190Y-90344944D01*
X157332183Y-90344949D01*
X157160207Y-90469896D01*
X157009896Y-90620207D01*
X156884949Y-90792183D01*
X156884947Y-90792185D01*
X156827024Y-90905867D01*
X156789777Y-90937679D01*
X156740944Y-90933835D01*
X156712976Y-90905867D01*
X156655052Y-90792185D01*
X156655050Y-90792183D01*
X156644210Y-90777262D01*
X156530104Y-90620208D01*
X156379792Y-90469896D01*
X156207816Y-90344949D01*
X156207809Y-90344944D01*
X156018418Y-90248445D01*
X156018409Y-90248442D01*
X155816242Y-90182753D01*
X155682047Y-90161499D01*
X155606287Y-90149500D01*
X155393713Y-90149500D01*
X155326086Y-90160210D01*
X155183757Y-90182753D01*
X154981590Y-90248442D01*
X154981581Y-90248445D01*
X154792190Y-90344944D01*
X154792183Y-90344949D01*
X154620207Y-90469896D01*
X154469896Y-90620207D01*
X154344949Y-90792183D01*
X154344947Y-90792185D01*
X154287024Y-90905867D01*
X154249777Y-90937679D01*
X154200944Y-90933835D01*
X154172976Y-90905867D01*
X154115052Y-90792185D01*
X154115050Y-90792183D01*
X154104210Y-90777262D01*
X153990104Y-90620208D01*
X153839792Y-90469896D01*
X153667816Y-90344949D01*
X153667809Y-90344944D01*
X153478418Y-90248445D01*
X153478409Y-90248442D01*
X153276242Y-90182753D01*
X153142047Y-90161499D01*
X153066287Y-90149500D01*
X152853713Y-90149500D01*
X152786086Y-90160210D01*
X152643757Y-90182753D01*
X152441590Y-90248442D01*
X152441581Y-90248445D01*
X152252190Y-90344944D01*
X152252183Y-90344949D01*
X152080207Y-90469896D01*
X151929896Y-90620207D01*
X151804949Y-90792183D01*
X151804947Y-90792185D01*
X151747024Y-90905867D01*
X151709777Y-90937679D01*
X151660944Y-90933835D01*
X151632976Y-90905867D01*
X151575052Y-90792185D01*
X151575050Y-90792183D01*
X151564210Y-90777262D01*
X151450104Y-90620208D01*
X151299792Y-90469896D01*
X151127816Y-90344949D01*
X151127809Y-90344944D01*
X150938418Y-90248445D01*
X150938409Y-90248442D01*
X150736242Y-90182753D01*
X150602047Y-90161499D01*
X150526287Y-90149500D01*
X150313713Y-90149500D01*
X150246086Y-90160210D01*
X150103757Y-90182753D01*
X149901590Y-90248442D01*
X149901581Y-90248445D01*
X149712190Y-90344944D01*
X149712183Y-90344949D01*
X149540207Y-90469896D01*
X149389896Y-90620207D01*
X149264949Y-90792183D01*
X149264947Y-90792185D01*
X149207024Y-90905867D01*
X149169777Y-90937679D01*
X149120944Y-90933835D01*
X149092976Y-90905867D01*
X149035052Y-90792185D01*
X149035050Y-90792183D01*
X149024210Y-90777262D01*
X148910104Y-90620208D01*
X148759792Y-90469896D01*
X148587816Y-90344949D01*
X148587809Y-90344944D01*
X148398418Y-90248445D01*
X148398409Y-90248442D01*
X148196242Y-90182753D01*
X148062047Y-90161499D01*
X147986287Y-90149500D01*
X147773713Y-90149500D01*
X147706086Y-90160210D01*
X147563757Y-90182753D01*
X147361590Y-90248442D01*
X147361581Y-90248445D01*
X147172190Y-90344944D01*
X147172183Y-90344949D01*
X147000207Y-90469896D01*
X146849896Y-90620207D01*
X146724949Y-90792183D01*
X146724947Y-90792185D01*
X146667024Y-90905867D01*
X146629777Y-90937679D01*
X146580944Y-90933835D01*
X146552976Y-90905867D01*
X146495052Y-90792185D01*
X146495050Y-90792183D01*
X146484210Y-90777262D01*
X146370104Y-90620208D01*
X146219792Y-90469896D01*
X146047816Y-90344949D01*
X146047809Y-90344944D01*
X145858418Y-90248445D01*
X145858409Y-90248442D01*
X145656242Y-90182753D01*
X145522047Y-90161499D01*
X145446287Y-90149500D01*
X145233713Y-90149500D01*
X145166086Y-90160210D01*
X145023757Y-90182753D01*
X144821590Y-90248442D01*
X144821581Y-90248445D01*
X144632190Y-90344944D01*
X144632183Y-90344949D01*
X144460207Y-90469896D01*
X144309896Y-90620207D01*
X144184949Y-90792183D01*
X144184944Y-90792190D01*
X144088445Y-90981581D01*
X144088442Y-90981590D01*
X144022753Y-91183757D01*
X143997499Y-91343206D01*
X143989500Y-91393713D01*
X139751834Y-91393713D01*
X139663224Y-91179788D01*
X139541936Y-90969711D01*
X139514407Y-90933835D01*
X139433222Y-90828032D01*
X139394265Y-90777262D01*
X139222738Y-90605735D01*
X139126513Y-90531899D01*
X139030291Y-90458065D01*
X138820207Y-90336773D01*
X138596100Y-90243945D01*
X138361797Y-90181163D01*
X138361783Y-90181160D01*
X138121294Y-90149500D01*
X138121288Y-90149500D01*
X137878712Y-90149500D01*
X137878705Y-90149500D01*
X137638216Y-90181160D01*
X137638202Y-90181163D01*
X137403899Y-90243945D01*
X137179792Y-90336773D01*
X136969708Y-90458065D01*
X136777263Y-90605734D01*
X136605734Y-90777263D01*
X136458065Y-90969708D01*
X136336773Y-91179792D01*
X136243945Y-91403899D01*
X136181163Y-91638202D01*
X136181160Y-91638216D01*
X136149500Y-91878705D01*
X134600000Y-91878705D01*
X134600000Y-91626510D01*
X134618745Y-91581255D01*
X137581255Y-88618745D01*
X137626510Y-88600000D01*
X180373490Y-88600000D01*
X180418745Y-88618745D01*
G37*
%TD.AperFunction*%
%TD*%
M02*
