M48
; DRILL file KiCad 10.0.3 date 2026-06-27T00:27:45
; FORMAT={-:-/ absolute / metric / decimal}
; #@! TF.CreationDate,2026-06-27T00:27:45+08:00
; #@! TF.GenerationSoftware,Kicad,Pcbnew,10.0.3
; #@! TF.FileFunction,MixedPlating,1,4
FMAT,2
METRIC
; #@! TA.AperFunction,Plated,PTH,ViaDrill
T1C0.300
; #@! TA.AperFunction,Plated,PTH,ComponentDrill
T2C0.300
; #@! TA.AperFunction,Plated,PTH,ComponentDrill
T3C1.000
; #@! TA.AperFunction,Plated,PTH,ComponentDrill
T4C1.300
; #@! TA.AperFunction,NonPlated,NPTH,ComponentDrill
T5C3.200
%
G90
G05
T1
X137.0Y-97.0
X137.0Y-103.0
X137.0Y-109.0
X137.0Y-115.0
X137.0Y-121.0
X137.0Y-127.0
X142.1Y-123.2
X143.0Y-91.0
X143.0Y-97.0
X143.0Y-103.0
X143.0Y-109.0
X143.0Y-115.0
X143.0Y-127.0
X143.0Y-133.0
X143.1Y-123.2
X144.1Y-123.2
X149.0Y-109.0
X149.0Y-115.0
X149.0Y-121.0
X149.0Y-127.0
X149.0Y-133.0
X151.5Y-106.0
X153.775Y-104.9
X155.0Y-127.0
X155.0Y-133.0
X155.045Y-99.507
X155.5Y-106.5
X155.5Y-107.5
X156.375Y-109.866
X157.0Y-115.537
X157.0Y-121.462
X157.045Y-99.507
X158.0Y-118.0
X158.325Y-109.866
X158.975Y-110.366
X159.0Y-104.9
X159.345Y-99.507
X160.5Y-106.5
X160.5Y-107.5
X161.0Y-127.0
X161.0Y-133.0
X161.545Y-99.507
X162.0Y-112.5
X162.225Y-104.134
X162.225Y-109.2
X164.0Y-102.0
X164.1Y-110.0
X164.149Y-92.0
X167.0Y-91.0
X167.0Y-97.0
X167.0Y-109.0
X167.0Y-115.0
X167.0Y-127.0
X167.0Y-133.0
X169.7Y-123.2
X170.7Y-123.2
X171.65Y-100.65
X171.7Y-123.2
X173.0Y-91.0
X173.0Y-97.0
X173.0Y-103.0
X173.0Y-109.0
X173.0Y-115.0
X173.0Y-127.0
X173.0Y-133.0
X179.0Y-97.0
X179.0Y-127.0
T2
X156.5Y-106.5
X156.5Y-107.5
X157.5Y-106.5
X157.5Y-107.5
X158.5Y-106.5
X158.5Y-107.5
X159.5Y-106.5
X159.5Y-107.5
T3
X145.34Y-91.5
X145.34Y-94.04
X147.88Y-91.5
X147.88Y-94.04
X150.42Y-91.5
X150.42Y-94.04
X152.96Y-91.5
X152.96Y-94.04
X155.5Y-91.5
X155.5Y-94.04
X158.04Y-91.5
X158.04Y-94.04
X160.58Y-91.5
X160.58Y-94.04
T4
X139.5Y-108.5
X139.5Y-113.5
X179.0Y-101.0
X179.0Y-106.0
X179.0Y-111.0
X179.0Y-116.0
X179.0Y-121.0
T5
X138.0Y-92.0
X138.0Y-134.0
X180.0Y-92.0
X180.0Y-134.0
M30
