%TF.GenerationSoftware,KiCad,Pcbnew,10.0.3*%
%TF.CreationDate,2026-06-18T05:01:43+08:00*%
%TF.ProjectId,project,70726f6a-6563-4742-9e6b-696361645f70,rev?*%
%TF.SameCoordinates,Original*%
%TF.FileFunction,Paste,Top*%
%TF.FilePolarity,Positive*%
%FSLAX46Y46*%
G04 Gerber Fmt 4.6, Leading zero omitted, Abs format (unit mm)*
G04 Created by KiCad (PCBNEW 10.0.3) date 2026-06-18 05:01:43*
%MOMM*%
%LPD*%
G01*
G04 APERTURE LIST*
G04 Aperture macros list*
%AMRoundRect*
0 Rectangle with rounded corners*
0 $1 Rounding radius*
0 $2 $3 $4 $5 $6 $7 $8 $9 X,Y pos of 4 corners*
0 Add a 4 corners polygon primitive as box body*
4,1,4,$2,$3,$4,$5,$6,$7,$8,$9,$2,$3,0*
0 Add four circle primitives for the rounded corners*
1,1,$1+$1,$2,$3*
1,1,$1+$1,$4,$5*
1,1,$1+$1,$6,$7*
1,1,$1+$1,$8,$9*
0 Add four rect primitives between the rounded corners*
20,1,$1+$1,$2,$3,$4,$5,0*
20,1,$1+$1,$4,$5,$6,$7,0*
20,1,$1+$1,$6,$7,$8,$9,0*
20,1,$1+$1,$8,$9,$2,$3,0*%
G04 Aperture macros list end*
%ADD10R,0.900000X0.800000*%
%ADD11R,0.864000X0.806500*%
%ADD12O,0.343000X1.731500*%
%ADD13R,6.200000X2.750000*%
%ADD14RoundRect,0.250000X-0.362500X-1.425000X0.362500X-1.425000X0.362500X1.425000X-0.362500X1.425000X0*%
%ADD15R,1.650000X4.500000*%
%ADD16R,0.800000X0.800000*%
G04 APERTURE END LIST*
D10*
%TO.C,C6*%
X164800000Y-130899999D03*
X164800000Y-129499999D03*
%TD*%
D11*
%TO.C,R5*%
X160000000Y-100753400D03*
X160000000Y-99246600D03*
%TD*%
D10*
%TO.C,C2*%
X151500000Y-116700000D03*
X151500000Y-115300000D03*
%TD*%
D11*
%TO.C,R12*%
X152000000Y-100753400D03*
X152000000Y-99246600D03*
%TD*%
%TO.C,R9*%
X159000000Y-125246600D03*
X159000000Y-126753400D03*
%TD*%
D12*
%TO.C,U1*%
X150775000Y-112865900D03*
X151425000Y-112865900D03*
X152074900Y-112865900D03*
X152724900Y-112865900D03*
X153374900Y-112865900D03*
X154024900Y-112865900D03*
X154675100Y-112865900D03*
X155325100Y-112865900D03*
X155975100Y-112865900D03*
X156625100Y-112865900D03*
X157275100Y-112865900D03*
X157925100Y-112865900D03*
X158575000Y-112865900D03*
X159225000Y-112865900D03*
X159225000Y-107134400D03*
X158575000Y-107134400D03*
X157925100Y-107134400D03*
X157275100Y-107134400D03*
X156625100Y-107134400D03*
X155975100Y-107134400D03*
X155325100Y-107134400D03*
X154675100Y-107134400D03*
X154024900Y-107134400D03*
X153374900Y-107134400D03*
X152724900Y-107134400D03*
X152074900Y-107134400D03*
X151425000Y-107134400D03*
X150775000Y-107134400D03*
D13*
X155000000Y-110000000D03*
%TD*%
D10*
%TO.C,C4*%
X147000000Y-116700000D03*
X147000000Y-115300000D03*
%TD*%
D11*
%TO.C,R3*%
X158000000Y-100753400D03*
X158000000Y-99246600D03*
%TD*%
%TO.C,R7*%
X150000000Y-100753400D03*
X150000000Y-99246600D03*
%TD*%
D14*
%TO.C,R8*%
X151037500Y-123000000D03*
X156962500Y-123000000D03*
%TD*%
D11*
%TO.C,R6*%
X148000000Y-100753400D03*
X148000000Y-99246600D03*
%TD*%
%TO.C,R2*%
X154000000Y-100753400D03*
X154000000Y-99246600D03*
%TD*%
D15*
%TO.C,C5*%
X168600000Y-123200000D03*
X168600000Y-114800000D03*
%TD*%
D11*
%TO.C,R1*%
X156000000Y-100753400D03*
X156000000Y-99246600D03*
%TD*%
%TO.C,R10*%
X159000000Y-129446599D03*
X159000000Y-130953399D03*
%TD*%
%TO.C,R11*%
X164800000Y-126753400D03*
X164800000Y-125246600D03*
%TD*%
%TO.C,R4*%
X146000000Y-99153400D03*
X146000000Y-97646600D03*
%TD*%
D16*
%TO.C,LED1*%
X162000000Y-99149100D03*
X162000000Y-100850900D03*
%TD*%
D10*
%TO.C,C1*%
X149500000Y-116700000D03*
X149500000Y-115300000D03*
%TD*%
D15*
%TO.C,C3*%
X168600000Y-101700000D03*
X168600000Y-93300000D03*
%TD*%
M02*
