M48
; DRILL file KiCad 10.0.3 date 2026-07-17T11:16:15
; FORMAT={-:-/ absolute / metric / decimal}
; #@! TF.CreationDate,2026-07-17T11:16:15+08:00
; #@! TF.GenerationSoftware,Kicad,Pcbnew,10.0.3
; #@! TF.FileFunction,MixedPlating,1,4
FMAT,2
METRIC
; #@! TA.AperFunction,Plated,PTH,ViaDrill
T1C0.300
; #@! TA.AperFunction,Plated,PTH,ComponentDrill
T2C0.300
; #@! TA.AperFunction,Plated,PTH,ComponentDrill
T3C1.000
; #@! TA.AperFunction,Plated,PTH,ComponentDrill
T4C1.300
; #@! TA.AperFunction,NonPlated,NPTH,ComponentDrill
T5C3.200
%
G90
G05
T1
X137.0Y-97.0
X137.0Y-103.0
X137.0Y-121.0
X137.0Y-127.0
X142.4Y-90.8
X143.0Y-103.0
X143.0Y-133.0
X144.0Y-96.7
X146.9Y-115.1
X149.0Y-121.0
X149.0Y-125.5
X150.6Y-101.7
X151.3Y-116.5
X152.0Y-121.0
X152.0Y-125.5
X152.5Y-101.7
X154.5Y-101.7
X155.0Y-121.0
X155.0Y-127.0
X156.5Y-101.7
X158.7Y-106.1
X158.9Y-135.9
X159.1Y-107.2
X159.4Y-125.7
X159.6Y-97.6
X160.8Y-105.1
X161.0Y-114.0
X161.0Y-121.0
X161.5Y-110.6
X162.0Y-111.7
X162.0Y-114.0
X162.5Y-110.6
X163.0Y-111.7
X163.0Y-114.0
X163.1Y-101.9
X163.3Y-125.7
X163.5Y-110.6
X163.6Y-109.0
X164.0Y-111.7
X164.0Y-118.4
X166.2Y-119.4
X167.0Y-91.0
X167.0Y-103.0
X167.0Y-121.0
X168.8Y-119.4
X173.0Y-91.0
X173.0Y-97.0
X173.0Y-103.0
X173.6Y-133.9
X179.0Y-97.0
X181.5Y-126.1
T2
X155.134Y-110.725
X155.134Y-111.725
X155.134Y-112.725
X155.134Y-113.725
X156.134Y-110.725
X156.134Y-111.725
X156.134Y-112.725
X156.134Y-113.725
T3
X145.34Y-91.5
X145.34Y-94.04
X147.88Y-91.5
X147.88Y-94.04
X150.42Y-91.5
X150.42Y-94.04
X152.96Y-91.5
X152.96Y-94.04
X155.5Y-91.5
X155.5Y-94.04
X158.04Y-91.5
X158.04Y-94.04
X160.58Y-91.5
X160.58Y-94.04
T4
X140.3Y-108.5
X140.3Y-113.5
X179.0Y-101.0
X179.0Y-106.0
X179.0Y-111.0
X179.0Y-116.0
X179.0Y-121.0
T5
X138.0Y-92.0
X138.0Y-134.0
X180.0Y-92.0
X180.0Y-134.0
M30
