%TF.GenerationSoftware,KiCad,Pcbnew,10.0.3*%
%TF.CreationDate,2026-06-18T12:42:18+08:00*%
%TF.ProjectId,project,70726f6a-6563-4742-9e6b-696361645f70,rev?*%
%TF.SameCoordinates,Original*%
%TF.FileFunction,Legend,Top*%
%TF.FilePolarity,Positive*%
%FSLAX46Y46*%
G04 Gerber Fmt 4.6, Leading zero omitted, Abs format (unit mm)*
G04 Created by KiCad (PCBNEW 10.0.3) date 2026-06-18 12:42:18*
%MOMM*%
%LPD*%
G01*
G04 APERTURE LIST*
%ADD10C,0.100000*%
%ADD11C,0.120000*%
%ADD12C,0.130000*%
%ADD13C,0.150000*%
%ADD14C,0.152400*%
%ADD15C,0.110000*%
%ADD16C,0.254000*%
%ADD17C,0.300000*%
%ADD18C,0.203000*%
G04 APERTURE END LIST*
D10*
X145760952Y-89450080D02*
X145808571Y-89473890D01*
X145808571Y-89473890D02*
X145880000Y-89473890D01*
X145880000Y-89473890D02*
X145951428Y-89450080D01*
X145951428Y-89450080D02*
X145999047Y-89402461D01*
X145999047Y-89402461D02*
X146022857Y-89354842D01*
X146022857Y-89354842D02*
X146046666Y-89259604D01*
X146046666Y-89259604D02*
X146046666Y-89188176D01*
X146046666Y-89188176D02*
X146022857Y-89092938D01*
X146022857Y-89092938D02*
X145999047Y-89045319D01*
X145999047Y-89045319D02*
X145951428Y-88997700D01*
X145951428Y-88997700D02*
X145880000Y-88973890D01*
X145880000Y-88973890D02*
X145832381Y-88973890D01*
X145832381Y-88973890D02*
X145760952Y-88997700D01*
X145760952Y-88997700D02*
X145737143Y-89021509D01*
X145737143Y-89021509D02*
X145737143Y-89188176D01*
X145737143Y-89188176D02*
X145832381Y-89188176D01*
X145522857Y-88973890D02*
X145522857Y-89473890D01*
X145522857Y-89473890D02*
X145237143Y-88973890D01*
X145237143Y-88973890D02*
X145237143Y-89473890D01*
X144999047Y-88973890D02*
X144999047Y-89473890D01*
X144999047Y-89473890D02*
X144879999Y-89473890D01*
X144879999Y-89473890D02*
X144808571Y-89450080D01*
X144808571Y-89450080D02*
X144760952Y-89402461D01*
X144760952Y-89402461D02*
X144737142Y-89354842D01*
X144737142Y-89354842D02*
X144713333Y-89259604D01*
X144713333Y-89259604D02*
X144713333Y-89188176D01*
X144713333Y-89188176D02*
X144737142Y-89092938D01*
X144737142Y-89092938D02*
X144760952Y-89045319D01*
X144760952Y-89045319D02*
X144808571Y-88997700D01*
X144808571Y-88997700D02*
X144879999Y-88973890D01*
X144879999Y-88973890D02*
X144999047Y-88973890D01*
X145999046Y-96573890D02*
X145689522Y-96573890D01*
X145689522Y-96573890D02*
X145856189Y-96383414D01*
X145856189Y-96383414D02*
X145784760Y-96383414D01*
X145784760Y-96383414D02*
X145737141Y-96359604D01*
X145737141Y-96359604D02*
X145713332Y-96335795D01*
X145713332Y-96335795D02*
X145689522Y-96288176D01*
X145689522Y-96288176D02*
X145689522Y-96169128D01*
X145689522Y-96169128D02*
X145713332Y-96121509D01*
X145713332Y-96121509D02*
X145737141Y-96097700D01*
X145737141Y-96097700D02*
X145784760Y-96073890D01*
X145784760Y-96073890D02*
X145927617Y-96073890D01*
X145927617Y-96073890D02*
X145975236Y-96097700D01*
X145975236Y-96097700D02*
X145999046Y-96121509D01*
X145546665Y-96573890D02*
X145379999Y-96073890D01*
X145379999Y-96073890D02*
X145213332Y-96573890D01*
X145094285Y-96573890D02*
X144784761Y-96573890D01*
X144784761Y-96573890D02*
X144951428Y-96383414D01*
X144951428Y-96383414D02*
X144879999Y-96383414D01*
X144879999Y-96383414D02*
X144832380Y-96359604D01*
X144832380Y-96359604D02*
X144808571Y-96335795D01*
X144808571Y-96335795D02*
X144784761Y-96288176D01*
X144784761Y-96288176D02*
X144784761Y-96169128D01*
X144784761Y-96169128D02*
X144808571Y-96121509D01*
X144808571Y-96121509D02*
X144832380Y-96097700D01*
X144832380Y-96097700D02*
X144879999Y-96073890D01*
X144879999Y-96073890D02*
X145022856Y-96073890D01*
X145022856Y-96073890D02*
X145070475Y-96097700D01*
X145070475Y-96097700D02*
X145094285Y-96121509D01*
X148419999Y-88973890D02*
X148419999Y-89473890D01*
X148181904Y-88973890D02*
X148181904Y-89473890D01*
X148181904Y-89473890D02*
X147896190Y-88973890D01*
X147896190Y-88973890D02*
X147896190Y-89473890D01*
X147396189Y-88973890D02*
X147681903Y-88973890D01*
X147539046Y-88973890D02*
X147539046Y-89473890D01*
X147539046Y-89473890D02*
X147586665Y-89402461D01*
X147586665Y-89402461D02*
X147634284Y-89354842D01*
X147634284Y-89354842D02*
X147681903Y-89331033D01*
X148527142Y-96335795D02*
X148360475Y-96335795D01*
X148289047Y-96073890D02*
X148527142Y-96073890D01*
X148527142Y-96073890D02*
X148527142Y-96573890D01*
X148527142Y-96573890D02*
X148289047Y-96573890D01*
X148074761Y-96073890D02*
X148074761Y-96573890D01*
X148074761Y-96573890D02*
X147789047Y-96073890D01*
X147789047Y-96073890D02*
X147789047Y-96573890D01*
X147289046Y-96073890D02*
X147574760Y-96073890D01*
X147431903Y-96073890D02*
X147431903Y-96573890D01*
X147431903Y-96573890D02*
X147479522Y-96502461D01*
X147479522Y-96502461D02*
X147527141Y-96454842D01*
X147527141Y-96454842D02*
X147574760Y-96431033D01*
X150959999Y-88973890D02*
X150959999Y-89473890D01*
X150721904Y-88973890D02*
X150721904Y-89473890D01*
X150721904Y-89473890D02*
X150436190Y-88973890D01*
X150436190Y-88973890D02*
X150436190Y-89473890D01*
X150221903Y-89426271D02*
X150198094Y-89450080D01*
X150198094Y-89450080D02*
X150150475Y-89473890D01*
X150150475Y-89473890D02*
X150031427Y-89473890D01*
X150031427Y-89473890D02*
X149983808Y-89450080D01*
X149983808Y-89450080D02*
X149959999Y-89426271D01*
X149959999Y-89426271D02*
X149936189Y-89378652D01*
X149936189Y-89378652D02*
X149936189Y-89331033D01*
X149936189Y-89331033D02*
X149959999Y-89259604D01*
X149959999Y-89259604D02*
X150245713Y-88973890D01*
X150245713Y-88973890D02*
X149936189Y-88973890D01*
X151067142Y-96335795D02*
X150900475Y-96335795D01*
X150829047Y-96073890D02*
X151067142Y-96073890D01*
X151067142Y-96073890D02*
X151067142Y-96573890D01*
X151067142Y-96573890D02*
X150829047Y-96573890D01*
X150614761Y-96073890D02*
X150614761Y-96573890D01*
X150614761Y-96573890D02*
X150329047Y-96073890D01*
X150329047Y-96073890D02*
X150329047Y-96573890D01*
X150114760Y-96526271D02*
X150090951Y-96550080D01*
X150090951Y-96550080D02*
X150043332Y-96573890D01*
X150043332Y-96573890D02*
X149924284Y-96573890D01*
X149924284Y-96573890D02*
X149876665Y-96550080D01*
X149876665Y-96550080D02*
X149852856Y-96526271D01*
X149852856Y-96526271D02*
X149829046Y-96478652D01*
X149829046Y-96478652D02*
X149829046Y-96431033D01*
X149829046Y-96431033D02*
X149852856Y-96359604D01*
X149852856Y-96359604D02*
X150138570Y-96073890D01*
X150138570Y-96073890D02*
X149829046Y-96073890D01*
X153499999Y-88973890D02*
X153499999Y-89473890D01*
X153261904Y-88973890D02*
X153261904Y-89473890D01*
X153261904Y-89473890D02*
X152976190Y-88973890D01*
X152976190Y-88973890D02*
X152976190Y-89473890D01*
X152785713Y-89473890D02*
X152476189Y-89473890D01*
X152476189Y-89473890D02*
X152642856Y-89283414D01*
X152642856Y-89283414D02*
X152571427Y-89283414D01*
X152571427Y-89283414D02*
X152523808Y-89259604D01*
X152523808Y-89259604D02*
X152499999Y-89235795D01*
X152499999Y-89235795D02*
X152476189Y-89188176D01*
X152476189Y-89188176D02*
X152476189Y-89069128D01*
X152476189Y-89069128D02*
X152499999Y-89021509D01*
X152499999Y-89021509D02*
X152523808Y-88997700D01*
X152523808Y-88997700D02*
X152571427Y-88973890D01*
X152571427Y-88973890D02*
X152714284Y-88973890D01*
X152714284Y-88973890D02*
X152761903Y-88997700D01*
X152761903Y-88997700D02*
X152785713Y-89021509D01*
X153607142Y-96335795D02*
X153440475Y-96335795D01*
X153369047Y-96073890D02*
X153607142Y-96073890D01*
X153607142Y-96073890D02*
X153607142Y-96573890D01*
X153607142Y-96573890D02*
X153369047Y-96573890D01*
X153154761Y-96073890D02*
X153154761Y-96573890D01*
X153154761Y-96573890D02*
X152869047Y-96073890D01*
X152869047Y-96073890D02*
X152869047Y-96573890D01*
X152678570Y-96573890D02*
X152369046Y-96573890D01*
X152369046Y-96573890D02*
X152535713Y-96383414D01*
X152535713Y-96383414D02*
X152464284Y-96383414D01*
X152464284Y-96383414D02*
X152416665Y-96359604D01*
X152416665Y-96359604D02*
X152392856Y-96335795D01*
X152392856Y-96335795D02*
X152369046Y-96288176D01*
X152369046Y-96288176D02*
X152369046Y-96169128D01*
X152369046Y-96169128D02*
X152392856Y-96121509D01*
X152392856Y-96121509D02*
X152416665Y-96097700D01*
X152416665Y-96097700D02*
X152464284Y-96073890D01*
X152464284Y-96073890D02*
X152607141Y-96073890D01*
X152607141Y-96073890D02*
X152654760Y-96097700D01*
X152654760Y-96097700D02*
X152678570Y-96121509D01*
X155813809Y-88973890D02*
X155980475Y-89211985D01*
X156099523Y-88973890D02*
X156099523Y-89473890D01*
X156099523Y-89473890D02*
X155909047Y-89473890D01*
X155909047Y-89473890D02*
X155861428Y-89450080D01*
X155861428Y-89450080D02*
X155837618Y-89426271D01*
X155837618Y-89426271D02*
X155813809Y-89378652D01*
X155813809Y-89378652D02*
X155813809Y-89307223D01*
X155813809Y-89307223D02*
X155837618Y-89259604D01*
X155837618Y-89259604D02*
X155861428Y-89235795D01*
X155861428Y-89235795D02*
X155909047Y-89211985D01*
X155909047Y-89211985D02*
X156099523Y-89211985D01*
X155623332Y-88997700D02*
X155551904Y-88973890D01*
X155551904Y-88973890D02*
X155432856Y-88973890D01*
X155432856Y-88973890D02*
X155385237Y-88997700D01*
X155385237Y-88997700D02*
X155361428Y-89021509D01*
X155361428Y-89021509D02*
X155337618Y-89069128D01*
X155337618Y-89069128D02*
X155337618Y-89116747D01*
X155337618Y-89116747D02*
X155361428Y-89164366D01*
X155361428Y-89164366D02*
X155385237Y-89188176D01*
X155385237Y-89188176D02*
X155432856Y-89211985D01*
X155432856Y-89211985D02*
X155528094Y-89235795D01*
X155528094Y-89235795D02*
X155575713Y-89259604D01*
X155575713Y-89259604D02*
X155599523Y-89283414D01*
X155599523Y-89283414D02*
X155623332Y-89331033D01*
X155623332Y-89331033D02*
X155623332Y-89378652D01*
X155623332Y-89378652D02*
X155599523Y-89426271D01*
X155599523Y-89426271D02*
X155575713Y-89450080D01*
X155575713Y-89450080D02*
X155528094Y-89473890D01*
X155528094Y-89473890D02*
X155409047Y-89473890D01*
X155409047Y-89473890D02*
X155337618Y-89450080D01*
X155194761Y-89473890D02*
X154909047Y-89473890D01*
X155051904Y-88973890D02*
X155051904Y-89473890D01*
X156135237Y-96097700D02*
X156063809Y-96073890D01*
X156063809Y-96073890D02*
X155944761Y-96073890D01*
X155944761Y-96073890D02*
X155897142Y-96097700D01*
X155897142Y-96097700D02*
X155873333Y-96121509D01*
X155873333Y-96121509D02*
X155849523Y-96169128D01*
X155849523Y-96169128D02*
X155849523Y-96216747D01*
X155849523Y-96216747D02*
X155873333Y-96264366D01*
X155873333Y-96264366D02*
X155897142Y-96288176D01*
X155897142Y-96288176D02*
X155944761Y-96311985D01*
X155944761Y-96311985D02*
X156039999Y-96335795D01*
X156039999Y-96335795D02*
X156087618Y-96359604D01*
X156087618Y-96359604D02*
X156111428Y-96383414D01*
X156111428Y-96383414D02*
X156135237Y-96431033D01*
X156135237Y-96431033D02*
X156135237Y-96478652D01*
X156135237Y-96478652D02*
X156111428Y-96526271D01*
X156111428Y-96526271D02*
X156087618Y-96550080D01*
X156087618Y-96550080D02*
X156039999Y-96573890D01*
X156039999Y-96573890D02*
X155920952Y-96573890D01*
X155920952Y-96573890D02*
X155849523Y-96550080D01*
X155397143Y-96073890D02*
X155635238Y-96073890D01*
X155635238Y-96073890D02*
X155635238Y-96573890D01*
X155230476Y-96073890D02*
X155230476Y-96573890D01*
X155230476Y-96573890D02*
X155040000Y-96573890D01*
X155040000Y-96573890D02*
X154992381Y-96550080D01*
X154992381Y-96550080D02*
X154968571Y-96526271D01*
X154968571Y-96526271D02*
X154944762Y-96478652D01*
X154944762Y-96478652D02*
X154944762Y-96407223D01*
X154944762Y-96407223D02*
X154968571Y-96359604D01*
X154968571Y-96359604D02*
X154992381Y-96335795D01*
X154992381Y-96335795D02*
X155040000Y-96311985D01*
X155040000Y-96311985D02*
X155230476Y-96311985D01*
X158401427Y-89235795D02*
X158568094Y-89235795D01*
X158568094Y-88973890D02*
X158568094Y-89473890D01*
X158568094Y-89473890D02*
X158329999Y-89473890D01*
X157901428Y-88973890D02*
X158139523Y-88973890D01*
X158139523Y-88973890D02*
X158139523Y-89473890D01*
X157806189Y-89473890D02*
X157520475Y-89473890D01*
X157663332Y-88973890D02*
X157663332Y-89473890D01*
X158460952Y-96121509D02*
X158484761Y-96097700D01*
X158484761Y-96097700D02*
X158556190Y-96073890D01*
X158556190Y-96073890D02*
X158603809Y-96073890D01*
X158603809Y-96073890D02*
X158675237Y-96097700D01*
X158675237Y-96097700D02*
X158722856Y-96145319D01*
X158722856Y-96145319D02*
X158746666Y-96192938D01*
X158746666Y-96192938D02*
X158770475Y-96288176D01*
X158770475Y-96288176D02*
X158770475Y-96359604D01*
X158770475Y-96359604D02*
X158746666Y-96454842D01*
X158746666Y-96454842D02*
X158722856Y-96502461D01*
X158722856Y-96502461D02*
X158675237Y-96550080D01*
X158675237Y-96550080D02*
X158603809Y-96573890D01*
X158603809Y-96573890D02*
X158556190Y-96573890D01*
X158556190Y-96573890D02*
X158484761Y-96550080D01*
X158484761Y-96550080D02*
X158460952Y-96526271D01*
X158246666Y-96073890D02*
X158246666Y-96573890D01*
X158246666Y-96573890D02*
X158079999Y-96216747D01*
X158079999Y-96216747D02*
X157913333Y-96573890D01*
X157913333Y-96573890D02*
X157913333Y-96073890D01*
X157675237Y-96073890D02*
X157675237Y-96573890D01*
X157675237Y-96573890D02*
X157484761Y-96573890D01*
X157484761Y-96573890D02*
X157437142Y-96550080D01*
X157437142Y-96550080D02*
X157413332Y-96526271D01*
X157413332Y-96526271D02*
X157389523Y-96478652D01*
X157389523Y-96478652D02*
X157389523Y-96407223D01*
X157389523Y-96407223D02*
X157413332Y-96359604D01*
X157413332Y-96359604D02*
X157437142Y-96335795D01*
X157437142Y-96335795D02*
X157484761Y-96311985D01*
X157484761Y-96311985D02*
X157675237Y-96311985D01*
X161512857Y-88973890D02*
X161512857Y-89473890D01*
X161512857Y-89473890D02*
X161322381Y-89473890D01*
X161322381Y-89473890D02*
X161274762Y-89450080D01*
X161274762Y-89450080D02*
X161250952Y-89426271D01*
X161250952Y-89426271D02*
X161227143Y-89378652D01*
X161227143Y-89378652D02*
X161227143Y-89307223D01*
X161227143Y-89307223D02*
X161250952Y-89259604D01*
X161250952Y-89259604D02*
X161274762Y-89235795D01*
X161274762Y-89235795D02*
X161322381Y-89211985D01*
X161322381Y-89211985D02*
X161512857Y-89211985D01*
X160750952Y-89450080D02*
X160798571Y-89473890D01*
X160798571Y-89473890D02*
X160870000Y-89473890D01*
X160870000Y-89473890D02*
X160941428Y-89450080D01*
X160941428Y-89450080D02*
X160989047Y-89402461D01*
X160989047Y-89402461D02*
X161012857Y-89354842D01*
X161012857Y-89354842D02*
X161036666Y-89259604D01*
X161036666Y-89259604D02*
X161036666Y-89188176D01*
X161036666Y-89188176D02*
X161012857Y-89092938D01*
X161012857Y-89092938D02*
X160989047Y-89045319D01*
X160989047Y-89045319D02*
X160941428Y-88997700D01*
X160941428Y-88997700D02*
X160870000Y-88973890D01*
X160870000Y-88973890D02*
X160822381Y-88973890D01*
X160822381Y-88973890D02*
X160750952Y-88997700D01*
X160750952Y-88997700D02*
X160727143Y-89021509D01*
X160727143Y-89021509D02*
X160727143Y-89188176D01*
X160727143Y-89188176D02*
X160822381Y-89188176D01*
X160512857Y-88973890D02*
X160512857Y-89473890D01*
X160512857Y-89473890D02*
X160227143Y-88973890D01*
X160227143Y-88973890D02*
X160227143Y-89473890D01*
X159989047Y-88973890D02*
X159989047Y-89473890D01*
X159989047Y-89473890D02*
X159869999Y-89473890D01*
X159869999Y-89473890D02*
X159798571Y-89450080D01*
X159798571Y-89450080D02*
X159750952Y-89402461D01*
X159750952Y-89402461D02*
X159727142Y-89354842D01*
X159727142Y-89354842D02*
X159703333Y-89259604D01*
X159703333Y-89259604D02*
X159703333Y-89188176D01*
X159703333Y-89188176D02*
X159727142Y-89092938D01*
X159727142Y-89092938D02*
X159750952Y-89045319D01*
X159750952Y-89045319D02*
X159798571Y-88997700D01*
X159798571Y-88997700D02*
X159869999Y-88973890D01*
X159869999Y-88973890D02*
X159989047Y-88973890D01*
X161477141Y-96573890D02*
X161310475Y-96073890D01*
X161310475Y-96073890D02*
X161143808Y-96573890D01*
X160691428Y-96073890D02*
X160858094Y-96311985D01*
X160977142Y-96073890D02*
X160977142Y-96573890D01*
X160977142Y-96573890D02*
X160786666Y-96573890D01*
X160786666Y-96573890D02*
X160739047Y-96550080D01*
X160739047Y-96550080D02*
X160715237Y-96526271D01*
X160715237Y-96526271D02*
X160691428Y-96478652D01*
X160691428Y-96478652D02*
X160691428Y-96407223D01*
X160691428Y-96407223D02*
X160715237Y-96359604D01*
X160715237Y-96359604D02*
X160739047Y-96335795D01*
X160739047Y-96335795D02*
X160786666Y-96311985D01*
X160786666Y-96311985D02*
X160977142Y-96311985D01*
X160477142Y-96335795D02*
X160310475Y-96335795D01*
X160239047Y-96073890D02*
X160477142Y-96073890D01*
X160477142Y-96073890D02*
X160477142Y-96573890D01*
X160477142Y-96573890D02*
X160239047Y-96573890D01*
X159858094Y-96335795D02*
X160024761Y-96335795D01*
X160024761Y-96073890D02*
X160024761Y-96573890D01*
X160024761Y-96573890D02*
X159786666Y-96573890D01*
D11*
X183067593Y-101133333D02*
X183767593Y-100900000D01*
X183767593Y-100900000D02*
X183067593Y-100666666D01*
X183767593Y-100433333D02*
X183067593Y-100433333D01*
X183067593Y-100433333D02*
X183567593Y-100200000D01*
X183567593Y-100200000D02*
X183067593Y-99966666D01*
X183067593Y-99966666D02*
X183767593Y-99966666D01*
X183767593Y-106066666D02*
X183067593Y-106066666D01*
X183067593Y-106066666D02*
X183567593Y-105833333D01*
X183567593Y-105833333D02*
X183067593Y-105599999D01*
X183067593Y-105599999D02*
X183767593Y-105599999D01*
X183067593Y-105333333D02*
X183067593Y-104899999D01*
X183067593Y-104899999D02*
X183334260Y-105133333D01*
X183334260Y-105133333D02*
X183334260Y-105033333D01*
X183334260Y-105033333D02*
X183367593Y-104966666D01*
X183367593Y-104966666D02*
X183400926Y-104933333D01*
X183400926Y-104933333D02*
X183467593Y-104899999D01*
X183467593Y-104899999D02*
X183634260Y-104899999D01*
X183634260Y-104899999D02*
X183700926Y-104933333D01*
X183700926Y-104933333D02*
X183734260Y-104966666D01*
X183734260Y-104966666D02*
X183767593Y-105033333D01*
X183767593Y-105033333D02*
X183767593Y-105233333D01*
X183767593Y-105233333D02*
X183734260Y-105299999D01*
X183734260Y-105299999D02*
X183700926Y-105333333D01*
X183767593Y-111066666D02*
X183067593Y-111066666D01*
X183067593Y-111066666D02*
X183567593Y-110833333D01*
X183567593Y-110833333D02*
X183067593Y-110599999D01*
X183067593Y-110599999D02*
X183767593Y-110599999D01*
X183134260Y-110299999D02*
X183100926Y-110266666D01*
X183100926Y-110266666D02*
X183067593Y-110199999D01*
X183067593Y-110199999D02*
X183067593Y-110033333D01*
X183067593Y-110033333D02*
X183100926Y-109966666D01*
X183100926Y-109966666D02*
X183134260Y-109933333D01*
X183134260Y-109933333D02*
X183200926Y-109899999D01*
X183200926Y-109899999D02*
X183267593Y-109899999D01*
X183267593Y-109899999D02*
X183367593Y-109933333D01*
X183367593Y-109933333D02*
X183767593Y-110333333D01*
X183767593Y-110333333D02*
X183767593Y-109899999D01*
X183767593Y-116066666D02*
X183067593Y-116066666D01*
X183067593Y-116066666D02*
X183567593Y-115833333D01*
X183567593Y-115833333D02*
X183067593Y-115599999D01*
X183067593Y-115599999D02*
X183767593Y-115599999D01*
X183767593Y-114899999D02*
X183767593Y-115299999D01*
X183767593Y-115099999D02*
X183067593Y-115099999D01*
X183067593Y-115099999D02*
X183167593Y-115166666D01*
X183167593Y-115166666D02*
X183234260Y-115233333D01*
X183234260Y-115233333D02*
X183267593Y-115299999D01*
X183100926Y-121033332D02*
X183067593Y-121099999D01*
X183067593Y-121099999D02*
X183067593Y-121199999D01*
X183067593Y-121199999D02*
X183100926Y-121299999D01*
X183100926Y-121299999D02*
X183167593Y-121366666D01*
X183167593Y-121366666D02*
X183234260Y-121399999D01*
X183234260Y-121399999D02*
X183367593Y-121433332D01*
X183367593Y-121433332D02*
X183467593Y-121433332D01*
X183467593Y-121433332D02*
X183600926Y-121399999D01*
X183600926Y-121399999D02*
X183667593Y-121366666D01*
X183667593Y-121366666D02*
X183734260Y-121299999D01*
X183734260Y-121299999D02*
X183767593Y-121199999D01*
X183767593Y-121199999D02*
X183767593Y-121133332D01*
X183767593Y-121133332D02*
X183734260Y-121033332D01*
X183734260Y-121033332D02*
X183700926Y-120999999D01*
X183700926Y-120999999D02*
X183467593Y-120999999D01*
X183467593Y-120999999D02*
X183467593Y-121133332D01*
X183767593Y-120699999D02*
X183067593Y-120699999D01*
X183067593Y-120699999D02*
X183767593Y-120299999D01*
X183767593Y-120299999D02*
X183067593Y-120299999D01*
X183767593Y-119966666D02*
X183067593Y-119966666D01*
X183067593Y-119966666D02*
X183067593Y-119799999D01*
X183067593Y-119799999D02*
X183100926Y-119699999D01*
X183100926Y-119699999D02*
X183167593Y-119633333D01*
X183167593Y-119633333D02*
X183234260Y-119599999D01*
X183234260Y-119599999D02*
X183367593Y-119566666D01*
X183367593Y-119566666D02*
X183467593Y-119566666D01*
X183467593Y-119566666D02*
X183600926Y-119599999D01*
X183600926Y-119599999D02*
X183667593Y-119633333D01*
X183667593Y-119633333D02*
X183734260Y-119699999D01*
X183734260Y-119699999D02*
X183767593Y-119799999D01*
X183767593Y-119799999D02*
X183767593Y-119966666D01*
X134899073Y-106966667D02*
X134932406Y-106900000D01*
X134932406Y-106900000D02*
X134932406Y-106800000D01*
X134932406Y-106800000D02*
X134899073Y-106700000D01*
X134899073Y-106700000D02*
X134832406Y-106633334D01*
X134832406Y-106633334D02*
X134765740Y-106600000D01*
X134765740Y-106600000D02*
X134632406Y-106566667D01*
X134632406Y-106566667D02*
X134532406Y-106566667D01*
X134532406Y-106566667D02*
X134399073Y-106600000D01*
X134399073Y-106600000D02*
X134332406Y-106633334D01*
X134332406Y-106633334D02*
X134265740Y-106700000D01*
X134265740Y-106700000D02*
X134232406Y-106800000D01*
X134232406Y-106800000D02*
X134232406Y-106866667D01*
X134232406Y-106866667D02*
X134265740Y-106966667D01*
X134265740Y-106966667D02*
X134299073Y-107000000D01*
X134299073Y-107000000D02*
X134532406Y-107000000D01*
X134532406Y-107000000D02*
X134532406Y-106866667D01*
X134232406Y-107300000D02*
X134932406Y-107300000D01*
X134932406Y-107300000D02*
X134232406Y-107700000D01*
X134232406Y-107700000D02*
X134932406Y-107700000D01*
X134232406Y-108033333D02*
X134932406Y-108033333D01*
X134932406Y-108033333D02*
X134932406Y-108200000D01*
X134932406Y-108200000D02*
X134899073Y-108300000D01*
X134899073Y-108300000D02*
X134832406Y-108366667D01*
X134832406Y-108366667D02*
X134765740Y-108400000D01*
X134765740Y-108400000D02*
X134632406Y-108433333D01*
X134632406Y-108433333D02*
X134532406Y-108433333D01*
X134532406Y-108433333D02*
X134399073Y-108400000D01*
X134399073Y-108400000D02*
X134332406Y-108366667D01*
X134332406Y-108366667D02*
X134265740Y-108300000D01*
X134265740Y-108300000D02*
X134232406Y-108200000D01*
X134232406Y-108200000D02*
X134232406Y-108033333D01*
X134932406Y-111866666D02*
X134232406Y-112100000D01*
X134232406Y-112100000D02*
X134932406Y-112333333D01*
X134232406Y-112566666D02*
X134932406Y-112566666D01*
X134932406Y-112566666D02*
X134432406Y-112800000D01*
X134432406Y-112800000D02*
X134932406Y-113033333D01*
X134932406Y-113033333D02*
X134232406Y-113033333D01*
D12*
X154523809Y-116131335D02*
X154523809Y-115331335D01*
X154523809Y-115331335D02*
X154714285Y-115331335D01*
X154714285Y-115331335D02*
X154828571Y-115369430D01*
X154828571Y-115369430D02*
X154904761Y-115445620D01*
X154904761Y-115445620D02*
X154942856Y-115521811D01*
X154942856Y-115521811D02*
X154980952Y-115674192D01*
X154980952Y-115674192D02*
X154980952Y-115788478D01*
X154980952Y-115788478D02*
X154942856Y-115940859D01*
X154942856Y-115940859D02*
X154904761Y-116017049D01*
X154904761Y-116017049D02*
X154828571Y-116093240D01*
X154828571Y-116093240D02*
X154714285Y-116131335D01*
X154714285Y-116131335D02*
X154523809Y-116131335D01*
X155780952Y-116131335D02*
X155514285Y-115750382D01*
X155323809Y-116131335D02*
X155323809Y-115331335D01*
X155323809Y-115331335D02*
X155628571Y-115331335D01*
X155628571Y-115331335D02*
X155704761Y-115369430D01*
X155704761Y-115369430D02*
X155742856Y-115407525D01*
X155742856Y-115407525D02*
X155780952Y-115483716D01*
X155780952Y-115483716D02*
X155780952Y-115598001D01*
X155780952Y-115598001D02*
X155742856Y-115674192D01*
X155742856Y-115674192D02*
X155704761Y-115712287D01*
X155704761Y-115712287D02*
X155628571Y-115750382D01*
X155628571Y-115750382D02*
X155323809Y-115750382D01*
X156009523Y-115331335D02*
X156276190Y-116131335D01*
X156276190Y-116131335D02*
X156542856Y-115331335D01*
X156923808Y-115674192D02*
X156847618Y-115636097D01*
X156847618Y-115636097D02*
X156809523Y-115598001D01*
X156809523Y-115598001D02*
X156771427Y-115521811D01*
X156771427Y-115521811D02*
X156771427Y-115483716D01*
X156771427Y-115483716D02*
X156809523Y-115407525D01*
X156809523Y-115407525D02*
X156847618Y-115369430D01*
X156847618Y-115369430D02*
X156923808Y-115331335D01*
X156923808Y-115331335D02*
X157076189Y-115331335D01*
X157076189Y-115331335D02*
X157152380Y-115369430D01*
X157152380Y-115369430D02*
X157190475Y-115407525D01*
X157190475Y-115407525D02*
X157228570Y-115483716D01*
X157228570Y-115483716D02*
X157228570Y-115521811D01*
X157228570Y-115521811D02*
X157190475Y-115598001D01*
X157190475Y-115598001D02*
X157152380Y-115636097D01*
X157152380Y-115636097D02*
X157076189Y-115674192D01*
X157076189Y-115674192D02*
X156923808Y-115674192D01*
X156923808Y-115674192D02*
X156847618Y-115712287D01*
X156847618Y-115712287D02*
X156809523Y-115750382D01*
X156809523Y-115750382D02*
X156771427Y-115826573D01*
X156771427Y-115826573D02*
X156771427Y-115978954D01*
X156771427Y-115978954D02*
X156809523Y-116055144D01*
X156809523Y-116055144D02*
X156847618Y-116093240D01*
X156847618Y-116093240D02*
X156923808Y-116131335D01*
X156923808Y-116131335D02*
X157076189Y-116131335D01*
X157076189Y-116131335D02*
X157152380Y-116093240D01*
X157152380Y-116093240D02*
X157190475Y-116055144D01*
X157190475Y-116055144D02*
X157228570Y-115978954D01*
X157228570Y-115978954D02*
X157228570Y-115826573D01*
X157228570Y-115826573D02*
X157190475Y-115750382D01*
X157190475Y-115750382D02*
X157152380Y-115712287D01*
X157152380Y-115712287D02*
X157076189Y-115674192D01*
X157495237Y-115331335D02*
X157990475Y-115331335D01*
X157990475Y-115331335D02*
X157723809Y-115636097D01*
X157723809Y-115636097D02*
X157838094Y-115636097D01*
X157838094Y-115636097D02*
X157914285Y-115674192D01*
X157914285Y-115674192D02*
X157952380Y-115712287D01*
X157952380Y-115712287D02*
X157990475Y-115788478D01*
X157990475Y-115788478D02*
X157990475Y-115978954D01*
X157990475Y-115978954D02*
X157952380Y-116055144D01*
X157952380Y-116055144D02*
X157914285Y-116093240D01*
X157914285Y-116093240D02*
X157838094Y-116131335D01*
X157838094Y-116131335D02*
X157609523Y-116131335D01*
X157609523Y-116131335D02*
X157533332Y-116093240D01*
X157533332Y-116093240D02*
X157495237Y-116055144D01*
X158752380Y-116131335D02*
X158295237Y-116131335D01*
X158523809Y-116131335D02*
X158523809Y-115331335D01*
X158523809Y-115331335D02*
X158447618Y-115445620D01*
X158447618Y-115445620D02*
X158371428Y-115521811D01*
X158371428Y-115521811D02*
X158295237Y-115559906D01*
X159019047Y-115331335D02*
X159514285Y-115331335D01*
X159514285Y-115331335D02*
X159247619Y-115636097D01*
X159247619Y-115636097D02*
X159361904Y-115636097D01*
X159361904Y-115636097D02*
X159438095Y-115674192D01*
X159438095Y-115674192D02*
X159476190Y-115712287D01*
X159476190Y-115712287D02*
X159514285Y-115788478D01*
X159514285Y-115788478D02*
X159514285Y-115978954D01*
X159514285Y-115978954D02*
X159476190Y-116055144D01*
X159476190Y-116055144D02*
X159438095Y-116093240D01*
X159438095Y-116093240D02*
X159361904Y-116131335D01*
X159361904Y-116131335D02*
X159133333Y-116131335D01*
X159133333Y-116131335D02*
X159057142Y-116093240D01*
X159057142Y-116093240D02*
X159019047Y-116055144D01*
X155857142Y-117298001D02*
X156047618Y-117831335D01*
X156047618Y-117831335D02*
X156238095Y-117298001D01*
X156961904Y-117831335D02*
X156504761Y-117831335D01*
X156733333Y-117831335D02*
X156733333Y-117031335D01*
X156733333Y-117031335D02*
X156657142Y-117145620D01*
X156657142Y-117145620D02*
X156580952Y-117221811D01*
X156580952Y-117221811D02*
X156504761Y-117259906D01*
X157304762Y-117755144D02*
X157342857Y-117793240D01*
X157342857Y-117793240D02*
X157304762Y-117831335D01*
X157304762Y-117831335D02*
X157266666Y-117793240D01*
X157266666Y-117793240D02*
X157304762Y-117755144D01*
X157304762Y-117755144D02*
X157304762Y-117831335D01*
X157838095Y-117031335D02*
X157914285Y-117031335D01*
X157914285Y-117031335D02*
X157990476Y-117069430D01*
X157990476Y-117069430D02*
X158028571Y-117107525D01*
X158028571Y-117107525D02*
X158066666Y-117183716D01*
X158066666Y-117183716D02*
X158104761Y-117336097D01*
X158104761Y-117336097D02*
X158104761Y-117526573D01*
X158104761Y-117526573D02*
X158066666Y-117678954D01*
X158066666Y-117678954D02*
X158028571Y-117755144D01*
X158028571Y-117755144D02*
X157990476Y-117793240D01*
X157990476Y-117793240D02*
X157914285Y-117831335D01*
X157914285Y-117831335D02*
X157838095Y-117831335D01*
X157838095Y-117831335D02*
X157761904Y-117793240D01*
X157761904Y-117793240D02*
X157723809Y-117755144D01*
X157723809Y-117755144D02*
X157685714Y-117678954D01*
X157685714Y-117678954D02*
X157647618Y-117526573D01*
X157647618Y-117526573D02*
X157647618Y-117336097D01*
X157647618Y-117336097D02*
X157685714Y-117183716D01*
X157685714Y-117183716D02*
X157723809Y-117107525D01*
X157723809Y-117107525D02*
X157761904Y-117069430D01*
X157761904Y-117069430D02*
X157838095Y-117031335D01*
X155323809Y-119074192D02*
X155247619Y-119036097D01*
X155247619Y-119036097D02*
X155209524Y-118998001D01*
X155209524Y-118998001D02*
X155171428Y-118921811D01*
X155171428Y-118921811D02*
X155171428Y-118883716D01*
X155171428Y-118883716D02*
X155209524Y-118807525D01*
X155209524Y-118807525D02*
X155247619Y-118769430D01*
X155247619Y-118769430D02*
X155323809Y-118731335D01*
X155323809Y-118731335D02*
X155476190Y-118731335D01*
X155476190Y-118731335D02*
X155552381Y-118769430D01*
X155552381Y-118769430D02*
X155590476Y-118807525D01*
X155590476Y-118807525D02*
X155628571Y-118883716D01*
X155628571Y-118883716D02*
X155628571Y-118921811D01*
X155628571Y-118921811D02*
X155590476Y-118998001D01*
X155590476Y-118998001D02*
X155552381Y-119036097D01*
X155552381Y-119036097D02*
X155476190Y-119074192D01*
X155476190Y-119074192D02*
X155323809Y-119074192D01*
X155323809Y-119074192D02*
X155247619Y-119112287D01*
X155247619Y-119112287D02*
X155209524Y-119150382D01*
X155209524Y-119150382D02*
X155171428Y-119226573D01*
X155171428Y-119226573D02*
X155171428Y-119378954D01*
X155171428Y-119378954D02*
X155209524Y-119455144D01*
X155209524Y-119455144D02*
X155247619Y-119493240D01*
X155247619Y-119493240D02*
X155323809Y-119531335D01*
X155323809Y-119531335D02*
X155476190Y-119531335D01*
X155476190Y-119531335D02*
X155552381Y-119493240D01*
X155552381Y-119493240D02*
X155590476Y-119455144D01*
X155590476Y-119455144D02*
X155628571Y-119378954D01*
X155628571Y-119378954D02*
X155628571Y-119226573D01*
X155628571Y-119226573D02*
X155590476Y-119150382D01*
X155590476Y-119150382D02*
X155552381Y-119112287D01*
X155552381Y-119112287D02*
X155476190Y-119074192D01*
X155971429Y-119226573D02*
X156580953Y-119226573D01*
X157304762Y-118731335D02*
X157152381Y-118731335D01*
X157152381Y-118731335D02*
X157076190Y-118769430D01*
X157076190Y-118769430D02*
X157038095Y-118807525D01*
X157038095Y-118807525D02*
X156961905Y-118921811D01*
X156961905Y-118921811D02*
X156923809Y-119074192D01*
X156923809Y-119074192D02*
X156923809Y-119378954D01*
X156923809Y-119378954D02*
X156961905Y-119455144D01*
X156961905Y-119455144D02*
X157000000Y-119493240D01*
X157000000Y-119493240D02*
X157076190Y-119531335D01*
X157076190Y-119531335D02*
X157228571Y-119531335D01*
X157228571Y-119531335D02*
X157304762Y-119493240D01*
X157304762Y-119493240D02*
X157342857Y-119455144D01*
X157342857Y-119455144D02*
X157380952Y-119378954D01*
X157380952Y-119378954D02*
X157380952Y-119188478D01*
X157380952Y-119188478D02*
X157342857Y-119112287D01*
X157342857Y-119112287D02*
X157304762Y-119074192D01*
X157304762Y-119074192D02*
X157228571Y-119036097D01*
X157228571Y-119036097D02*
X157076190Y-119036097D01*
X157076190Y-119036097D02*
X157000000Y-119074192D01*
X157000000Y-119074192D02*
X156961905Y-119112287D01*
X156961905Y-119112287D02*
X156923809Y-119188478D01*
X157876191Y-118731335D02*
X157952381Y-118731335D01*
X157952381Y-118731335D02*
X158028572Y-118769430D01*
X158028572Y-118769430D02*
X158066667Y-118807525D01*
X158066667Y-118807525D02*
X158104762Y-118883716D01*
X158104762Y-118883716D02*
X158142857Y-119036097D01*
X158142857Y-119036097D02*
X158142857Y-119226573D01*
X158142857Y-119226573D02*
X158104762Y-119378954D01*
X158104762Y-119378954D02*
X158066667Y-119455144D01*
X158066667Y-119455144D02*
X158028572Y-119493240D01*
X158028572Y-119493240D02*
X157952381Y-119531335D01*
X157952381Y-119531335D02*
X157876191Y-119531335D01*
X157876191Y-119531335D02*
X157800000Y-119493240D01*
X157800000Y-119493240D02*
X157761905Y-119455144D01*
X157761905Y-119455144D02*
X157723810Y-119378954D01*
X157723810Y-119378954D02*
X157685714Y-119226573D01*
X157685714Y-119226573D02*
X157685714Y-119036097D01*
X157685714Y-119036097D02*
X157723810Y-118883716D01*
X157723810Y-118883716D02*
X157761905Y-118807525D01*
X157761905Y-118807525D02*
X157800000Y-118769430D01*
X157800000Y-118769430D02*
X157876191Y-118731335D01*
X158371429Y-118731335D02*
X158638096Y-119531335D01*
X158638096Y-119531335D02*
X158904762Y-118731335D01*
X138323809Y-118506192D02*
X138247619Y-118468097D01*
X138247619Y-118468097D02*
X138209524Y-118430001D01*
X138209524Y-118430001D02*
X138171428Y-118353811D01*
X138171428Y-118353811D02*
X138171428Y-118315716D01*
X138171428Y-118315716D02*
X138209524Y-118239525D01*
X138209524Y-118239525D02*
X138247619Y-118201430D01*
X138247619Y-118201430D02*
X138323809Y-118163335D01*
X138323809Y-118163335D02*
X138476190Y-118163335D01*
X138476190Y-118163335D02*
X138552381Y-118201430D01*
X138552381Y-118201430D02*
X138590476Y-118239525D01*
X138590476Y-118239525D02*
X138628571Y-118315716D01*
X138628571Y-118315716D02*
X138628571Y-118353811D01*
X138628571Y-118353811D02*
X138590476Y-118430001D01*
X138590476Y-118430001D02*
X138552381Y-118468097D01*
X138552381Y-118468097D02*
X138476190Y-118506192D01*
X138476190Y-118506192D02*
X138323809Y-118506192D01*
X138323809Y-118506192D02*
X138247619Y-118544287D01*
X138247619Y-118544287D02*
X138209524Y-118582382D01*
X138209524Y-118582382D02*
X138171428Y-118658573D01*
X138171428Y-118658573D02*
X138171428Y-118810954D01*
X138171428Y-118810954D02*
X138209524Y-118887144D01*
X138209524Y-118887144D02*
X138247619Y-118925240D01*
X138247619Y-118925240D02*
X138323809Y-118963335D01*
X138323809Y-118963335D02*
X138476190Y-118963335D01*
X138476190Y-118963335D02*
X138552381Y-118925240D01*
X138552381Y-118925240D02*
X138590476Y-118887144D01*
X138590476Y-118887144D02*
X138628571Y-118810954D01*
X138628571Y-118810954D02*
X138628571Y-118658573D01*
X138628571Y-118658573D02*
X138590476Y-118582382D01*
X138590476Y-118582382D02*
X138552381Y-118544287D01*
X138552381Y-118544287D02*
X138476190Y-118506192D01*
X138971429Y-118658573D02*
X139580953Y-118658573D01*
X140304762Y-118163335D02*
X140152381Y-118163335D01*
X140152381Y-118163335D02*
X140076190Y-118201430D01*
X140076190Y-118201430D02*
X140038095Y-118239525D01*
X140038095Y-118239525D02*
X139961905Y-118353811D01*
X139961905Y-118353811D02*
X139923809Y-118506192D01*
X139923809Y-118506192D02*
X139923809Y-118810954D01*
X139923809Y-118810954D02*
X139961905Y-118887144D01*
X139961905Y-118887144D02*
X140000000Y-118925240D01*
X140000000Y-118925240D02*
X140076190Y-118963335D01*
X140076190Y-118963335D02*
X140228571Y-118963335D01*
X140228571Y-118963335D02*
X140304762Y-118925240D01*
X140304762Y-118925240D02*
X140342857Y-118887144D01*
X140342857Y-118887144D02*
X140380952Y-118810954D01*
X140380952Y-118810954D02*
X140380952Y-118620478D01*
X140380952Y-118620478D02*
X140342857Y-118544287D01*
X140342857Y-118544287D02*
X140304762Y-118506192D01*
X140304762Y-118506192D02*
X140228571Y-118468097D01*
X140228571Y-118468097D02*
X140076190Y-118468097D01*
X140076190Y-118468097D02*
X140000000Y-118506192D01*
X140000000Y-118506192D02*
X139961905Y-118544287D01*
X139961905Y-118544287D02*
X139923809Y-118620478D01*
X140876191Y-118163335D02*
X140952381Y-118163335D01*
X140952381Y-118163335D02*
X141028572Y-118201430D01*
X141028572Y-118201430D02*
X141066667Y-118239525D01*
X141066667Y-118239525D02*
X141104762Y-118315716D01*
X141104762Y-118315716D02*
X141142857Y-118468097D01*
X141142857Y-118468097D02*
X141142857Y-118658573D01*
X141142857Y-118658573D02*
X141104762Y-118810954D01*
X141104762Y-118810954D02*
X141066667Y-118887144D01*
X141066667Y-118887144D02*
X141028572Y-118925240D01*
X141028572Y-118925240D02*
X140952381Y-118963335D01*
X140952381Y-118963335D02*
X140876191Y-118963335D01*
X140876191Y-118963335D02*
X140800000Y-118925240D01*
X140800000Y-118925240D02*
X140761905Y-118887144D01*
X140761905Y-118887144D02*
X140723810Y-118810954D01*
X140723810Y-118810954D02*
X140685714Y-118658573D01*
X140685714Y-118658573D02*
X140685714Y-118468097D01*
X140685714Y-118468097D02*
X140723810Y-118315716D01*
X140723810Y-118315716D02*
X140761905Y-118239525D01*
X140761905Y-118239525D02*
X140800000Y-118201430D01*
X140800000Y-118201430D02*
X140876191Y-118163335D01*
X141371429Y-118163335D02*
X141638096Y-118963335D01*
X141638096Y-118963335D02*
X141904762Y-118163335D01*
D13*
X165657142Y-101765700D02*
X166342857Y-101765700D01*
X165999999Y-102108557D02*
X165999999Y-101422842D01*
X165657142Y-123265700D02*
X166342857Y-123265700D01*
X165999999Y-123608557D02*
X165999999Y-122922842D01*
D10*
X167370990Y-129729448D02*
X167394800Y-129753257D01*
X167394800Y-129753257D02*
X167418609Y-129824686D01*
X167418609Y-129824686D02*
X167418609Y-129872305D01*
X167418609Y-129872305D02*
X167394800Y-129943733D01*
X167394800Y-129943733D02*
X167347180Y-129991352D01*
X167347180Y-129991352D02*
X167299561Y-130015162D01*
X167299561Y-130015162D02*
X167204323Y-130038971D01*
X167204323Y-130038971D02*
X167132895Y-130038971D01*
X167132895Y-130038971D02*
X167037657Y-130015162D01*
X167037657Y-130015162D02*
X166990038Y-129991352D01*
X166990038Y-129991352D02*
X166942419Y-129943733D01*
X166942419Y-129943733D02*
X166918609Y-129872305D01*
X166918609Y-129872305D02*
X166918609Y-129824686D01*
X166918609Y-129824686D02*
X166942419Y-129753257D01*
X166942419Y-129753257D02*
X166966228Y-129729448D01*
X166918609Y-129300876D02*
X166918609Y-129396114D01*
X166918609Y-129396114D02*
X166942419Y-129443733D01*
X166942419Y-129443733D02*
X166966228Y-129467543D01*
X166966228Y-129467543D02*
X167037657Y-129515162D01*
X167037657Y-129515162D02*
X167132895Y-129538971D01*
X167132895Y-129538971D02*
X167323371Y-129538971D01*
X167323371Y-129538971D02*
X167370990Y-129515162D01*
X167370990Y-129515162D02*
X167394800Y-129491352D01*
X167394800Y-129491352D02*
X167418609Y-129443733D01*
X167418609Y-129443733D02*
X167418609Y-129348495D01*
X167418609Y-129348495D02*
X167394800Y-129300876D01*
X167394800Y-129300876D02*
X167370990Y-129277067D01*
X167370990Y-129277067D02*
X167323371Y-129253257D01*
X167323371Y-129253257D02*
X167204323Y-129253257D01*
X167204323Y-129253257D02*
X167156704Y-129277067D01*
X167156704Y-129277067D02*
X167132895Y-129300876D01*
X167132895Y-129300876D02*
X167109085Y-129348495D01*
X167109085Y-129348495D02*
X167109085Y-129443733D01*
X167109085Y-129443733D02*
X167132895Y-129491352D01*
X167132895Y-129491352D02*
X167156704Y-129515162D01*
X167156704Y-129515162D02*
X167204323Y-129538971D01*
X160551503Y-97923371D02*
X160351503Y-97637657D01*
X160208646Y-97923371D02*
X160208646Y-97323371D01*
X160208646Y-97323371D02*
X160437217Y-97323371D01*
X160437217Y-97323371D02*
X160494360Y-97351942D01*
X160494360Y-97351942D02*
X160522931Y-97380514D01*
X160522931Y-97380514D02*
X160551503Y-97437657D01*
X160551503Y-97437657D02*
X160551503Y-97523371D01*
X160551503Y-97523371D02*
X160522931Y-97580514D01*
X160522931Y-97580514D02*
X160494360Y-97609085D01*
X160494360Y-97609085D02*
X160437217Y-97637657D01*
X160437217Y-97637657D02*
X160208646Y-97637657D01*
X161094360Y-97323371D02*
X160808646Y-97323371D01*
X160808646Y-97323371D02*
X160780074Y-97609085D01*
X160780074Y-97609085D02*
X160808646Y-97580514D01*
X160808646Y-97580514D02*
X160865789Y-97551942D01*
X160865789Y-97551942D02*
X161008646Y-97551942D01*
X161008646Y-97551942D02*
X161065789Y-97580514D01*
X161065789Y-97580514D02*
X161094360Y-97609085D01*
X161094360Y-97609085D02*
X161122931Y-97666228D01*
X161122931Y-97666228D02*
X161122931Y-97809085D01*
X161122931Y-97809085D02*
X161094360Y-97866228D01*
X161094360Y-97866228D02*
X161065789Y-97894800D01*
X161065789Y-97894800D02*
X161008646Y-97923371D01*
X161008646Y-97923371D02*
X160865789Y-97923371D01*
X160865789Y-97923371D02*
X160808646Y-97894800D01*
X160808646Y-97894800D02*
X160780074Y-97866228D01*
D14*
X152166929Y-118958741D02*
X152133596Y-118992075D01*
X152133596Y-118992075D02*
X152033596Y-119025408D01*
X152033596Y-119025408D02*
X151966929Y-119025408D01*
X151966929Y-119025408D02*
X151866929Y-118992075D01*
X151866929Y-118992075D02*
X151800263Y-118925408D01*
X151800263Y-118925408D02*
X151766929Y-118858741D01*
X151766929Y-118858741D02*
X151733596Y-118725408D01*
X151733596Y-118725408D02*
X151733596Y-118625408D01*
X151733596Y-118625408D02*
X151766929Y-118492075D01*
X151766929Y-118492075D02*
X151800263Y-118425408D01*
X151800263Y-118425408D02*
X151866929Y-118358741D01*
X151866929Y-118358741D02*
X151966929Y-118325408D01*
X151966929Y-118325408D02*
X152033596Y-118325408D01*
X152033596Y-118325408D02*
X152133596Y-118358741D01*
X152133596Y-118358741D02*
X152166929Y-118392075D01*
X152433596Y-118392075D02*
X152466929Y-118358741D01*
X152466929Y-118358741D02*
X152533596Y-118325408D01*
X152533596Y-118325408D02*
X152700263Y-118325408D01*
X152700263Y-118325408D02*
X152766929Y-118358741D01*
X152766929Y-118358741D02*
X152800263Y-118392075D01*
X152800263Y-118392075D02*
X152833596Y-118458741D01*
X152833596Y-118458741D02*
X152833596Y-118525408D01*
X152833596Y-118525408D02*
X152800263Y-118625408D01*
X152800263Y-118625408D02*
X152400263Y-119025408D01*
X152400263Y-119025408D02*
X152833596Y-119025408D01*
D10*
X152551503Y-97923371D02*
X152351503Y-97637657D01*
X152208646Y-97923371D02*
X152208646Y-97323371D01*
X152208646Y-97323371D02*
X152437217Y-97323371D01*
X152437217Y-97323371D02*
X152494360Y-97351942D01*
X152494360Y-97351942D02*
X152522931Y-97380514D01*
X152522931Y-97380514D02*
X152551503Y-97437657D01*
X152551503Y-97437657D02*
X152551503Y-97523371D01*
X152551503Y-97523371D02*
X152522931Y-97580514D01*
X152522931Y-97580514D02*
X152494360Y-97609085D01*
X152494360Y-97609085D02*
X152437217Y-97637657D01*
X152437217Y-97637657D02*
X152208646Y-97637657D01*
X153122931Y-97923371D02*
X152780074Y-97923371D01*
X152951503Y-97923371D02*
X152951503Y-97323371D01*
X152951503Y-97323371D02*
X152894360Y-97409085D01*
X152894360Y-97409085D02*
X152837217Y-97466228D01*
X152837217Y-97466228D02*
X152780074Y-97494800D01*
X153351503Y-97380514D02*
X153380075Y-97351942D01*
X153380075Y-97351942D02*
X153437218Y-97323371D01*
X153437218Y-97323371D02*
X153580075Y-97323371D01*
X153580075Y-97323371D02*
X153637218Y-97351942D01*
X153637218Y-97351942D02*
X153665789Y-97380514D01*
X153665789Y-97380514D02*
X153694360Y-97437657D01*
X153694360Y-97437657D02*
X153694360Y-97494800D01*
X153694360Y-97494800D02*
X153665789Y-97580514D01*
X153665789Y-97580514D02*
X153322932Y-97923371D01*
X153322932Y-97923371D02*
X153694360Y-97923371D01*
D15*
X137510714Y-102044982D02*
X137882143Y-102044982D01*
X137696429Y-102694982D02*
X137696429Y-102044982D01*
X138315476Y-102354506D02*
X138408333Y-102385458D01*
X138408333Y-102385458D02*
X138439286Y-102416410D01*
X138439286Y-102416410D02*
X138470238Y-102478315D01*
X138470238Y-102478315D02*
X138470238Y-102571172D01*
X138470238Y-102571172D02*
X138439286Y-102633077D01*
X138439286Y-102633077D02*
X138408333Y-102664030D01*
X138408333Y-102664030D02*
X138346428Y-102694982D01*
X138346428Y-102694982D02*
X138098809Y-102694982D01*
X138098809Y-102694982D02*
X138098809Y-102044982D01*
X138098809Y-102044982D02*
X138315476Y-102044982D01*
X138315476Y-102044982D02*
X138377381Y-102075934D01*
X138377381Y-102075934D02*
X138408333Y-102106887D01*
X138408333Y-102106887D02*
X138439286Y-102168791D01*
X138439286Y-102168791D02*
X138439286Y-102230696D01*
X138439286Y-102230696D02*
X138408333Y-102292601D01*
X138408333Y-102292601D02*
X138377381Y-102323553D01*
X138377381Y-102323553D02*
X138315476Y-102354506D01*
X138315476Y-102354506D02*
X138098809Y-102354506D01*
X138594048Y-102756887D02*
X139089286Y-102756887D01*
X139244047Y-102694982D02*
X139244047Y-102044982D01*
X139244047Y-102044982D02*
X139491666Y-102044982D01*
X139491666Y-102044982D02*
X139553571Y-102075934D01*
X139553571Y-102075934D02*
X139584524Y-102106887D01*
X139584524Y-102106887D02*
X139615476Y-102168791D01*
X139615476Y-102168791D02*
X139615476Y-102261649D01*
X139615476Y-102261649D02*
X139584524Y-102323553D01*
X139584524Y-102323553D02*
X139553571Y-102354506D01*
X139553571Y-102354506D02*
X139491666Y-102385458D01*
X139491666Y-102385458D02*
X139244047Y-102385458D01*
X139832143Y-102044982D02*
X139986905Y-102694982D01*
X139986905Y-102694982D02*
X140110714Y-102230696D01*
X140110714Y-102230696D02*
X140234524Y-102694982D01*
X140234524Y-102694982D02*
X140389286Y-102044982D01*
X141008333Y-102694982D02*
X140791666Y-102385458D01*
X140636904Y-102694982D02*
X140636904Y-102044982D01*
X140636904Y-102044982D02*
X140884523Y-102044982D01*
X140884523Y-102044982D02*
X140946428Y-102075934D01*
X140946428Y-102075934D02*
X140977381Y-102106887D01*
X140977381Y-102106887D02*
X141008333Y-102168791D01*
X141008333Y-102168791D02*
X141008333Y-102261649D01*
X141008333Y-102261649D02*
X140977381Y-102323553D01*
X140977381Y-102323553D02*
X140946428Y-102354506D01*
X140946428Y-102354506D02*
X140884523Y-102385458D01*
X140884523Y-102385458D02*
X140636904Y-102385458D01*
X141627381Y-102694982D02*
X141255952Y-102694982D01*
X141441666Y-102694982D02*
X141441666Y-102044982D01*
X141441666Y-102044982D02*
X141379762Y-102137839D01*
X141379762Y-102137839D02*
X141317857Y-102199744D01*
X141317857Y-102199744D02*
X141255952Y-102230696D01*
D10*
X159518609Y-123229449D02*
X159280514Y-123396115D01*
X159518609Y-123515163D02*
X159018609Y-123515163D01*
X159018609Y-123515163D02*
X159018609Y-123324687D01*
X159018609Y-123324687D02*
X159042419Y-123277068D01*
X159042419Y-123277068D02*
X159066228Y-123253258D01*
X159066228Y-123253258D02*
X159113847Y-123229449D01*
X159113847Y-123229449D02*
X159185276Y-123229449D01*
X159185276Y-123229449D02*
X159232895Y-123253258D01*
X159232895Y-123253258D02*
X159256704Y-123277068D01*
X159256704Y-123277068D02*
X159280514Y-123324687D01*
X159280514Y-123324687D02*
X159280514Y-123515163D01*
X159518609Y-122991353D02*
X159518609Y-122896115D01*
X159518609Y-122896115D02*
X159494800Y-122848496D01*
X159494800Y-122848496D02*
X159470990Y-122824687D01*
X159470990Y-122824687D02*
X159399561Y-122777068D01*
X159399561Y-122777068D02*
X159304323Y-122753258D01*
X159304323Y-122753258D02*
X159113847Y-122753258D01*
X159113847Y-122753258D02*
X159066228Y-122777068D01*
X159066228Y-122777068D02*
X159042419Y-122800877D01*
X159042419Y-122800877D02*
X159018609Y-122848496D01*
X159018609Y-122848496D02*
X159018609Y-122943734D01*
X159018609Y-122943734D02*
X159042419Y-122991353D01*
X159042419Y-122991353D02*
X159066228Y-123015163D01*
X159066228Y-123015163D02*
X159113847Y-123038972D01*
X159113847Y-123038972D02*
X159232895Y-123038972D01*
X159232895Y-123038972D02*
X159280514Y-123015163D01*
X159280514Y-123015163D02*
X159304323Y-122991353D01*
X159304323Y-122991353D02*
X159328133Y-122943734D01*
X159328133Y-122943734D02*
X159328133Y-122848496D01*
X159328133Y-122848496D02*
X159304323Y-122800877D01*
X159304323Y-122800877D02*
X159280514Y-122777068D01*
X159280514Y-122777068D02*
X159232895Y-122753258D01*
X160402300Y-130771426D02*
X160426109Y-130699998D01*
X160426109Y-130699998D02*
X160426109Y-130580950D01*
X160426109Y-130580950D02*
X160402300Y-130533331D01*
X160402300Y-130533331D02*
X160378490Y-130509522D01*
X160378490Y-130509522D02*
X160330871Y-130485712D01*
X160330871Y-130485712D02*
X160283252Y-130485712D01*
X160283252Y-130485712D02*
X160235633Y-130509522D01*
X160235633Y-130509522D02*
X160211823Y-130533331D01*
X160211823Y-130533331D02*
X160188014Y-130580950D01*
X160188014Y-130580950D02*
X160164204Y-130676188D01*
X160164204Y-130676188D02*
X160140395Y-130723807D01*
X160140395Y-130723807D02*
X160116585Y-130747617D01*
X160116585Y-130747617D02*
X160068966Y-130771426D01*
X160068966Y-130771426D02*
X160021347Y-130771426D01*
X160021347Y-130771426D02*
X159973728Y-130747617D01*
X159973728Y-130747617D02*
X159949919Y-130723807D01*
X159949919Y-130723807D02*
X159926109Y-130676188D01*
X159926109Y-130676188D02*
X159926109Y-130557141D01*
X159926109Y-130557141D02*
X159949919Y-130485712D01*
X159926109Y-130128570D02*
X160283252Y-130128570D01*
X160283252Y-130128570D02*
X160354680Y-130152379D01*
X160354680Y-130152379D02*
X160402300Y-130199998D01*
X160402300Y-130199998D02*
X160426109Y-130271427D01*
X160426109Y-130271427D02*
X160426109Y-130319046D01*
X160426109Y-129628570D02*
X160426109Y-129914284D01*
X160426109Y-129771427D02*
X159926109Y-129771427D01*
X159926109Y-129771427D02*
X159997538Y-129819046D01*
X159997538Y-129819046D02*
X160045157Y-129866665D01*
X160045157Y-129866665D02*
X160068966Y-129914284D01*
X179272371Y-125942856D02*
X178672371Y-125942856D01*
X178672371Y-125942856D02*
X178672371Y-125714285D01*
X178672371Y-125714285D02*
X178700942Y-125657142D01*
X178700942Y-125657142D02*
X178729514Y-125628571D01*
X178729514Y-125628571D02*
X178786657Y-125599999D01*
X178786657Y-125599999D02*
X178872371Y-125599999D01*
X178872371Y-125599999D02*
X178929514Y-125628571D01*
X178929514Y-125628571D02*
X178958085Y-125657142D01*
X178958085Y-125657142D02*
X178986657Y-125714285D01*
X178986657Y-125714285D02*
X178986657Y-125942856D01*
X179272371Y-125028571D02*
X179272371Y-125371428D01*
X179272371Y-125199999D02*
X178672371Y-125199999D01*
X178672371Y-125199999D02*
X178758085Y-125257142D01*
X178758085Y-125257142D02*
X178815228Y-125314285D01*
X178815228Y-125314285D02*
X178843800Y-125371428D01*
D14*
X155063977Y-104803217D02*
X155063977Y-105543446D01*
X155063977Y-105543446D02*
X155107520Y-105630532D01*
X155107520Y-105630532D02*
X155151063Y-105674075D01*
X155151063Y-105674075D02*
X155238148Y-105717617D01*
X155238148Y-105717617D02*
X155412320Y-105717617D01*
X155412320Y-105717617D02*
X155499405Y-105674075D01*
X155499405Y-105674075D02*
X155542948Y-105630532D01*
X155542948Y-105630532D02*
X155586491Y-105543446D01*
X155586491Y-105543446D02*
X155586491Y-104803217D01*
X156500891Y-105717617D02*
X155978377Y-105717617D01*
X156239634Y-105717617D02*
X156239634Y-104803217D01*
X156239634Y-104803217D02*
X156152548Y-104933846D01*
X156152548Y-104933846D02*
X156065463Y-105020932D01*
X156065463Y-105020932D02*
X155978377Y-105064475D01*
D10*
X147551503Y-118866228D02*
X147522931Y-118894800D01*
X147522931Y-118894800D02*
X147437217Y-118923371D01*
X147437217Y-118923371D02*
X147380074Y-118923371D01*
X147380074Y-118923371D02*
X147294360Y-118894800D01*
X147294360Y-118894800D02*
X147237217Y-118837657D01*
X147237217Y-118837657D02*
X147208646Y-118780514D01*
X147208646Y-118780514D02*
X147180074Y-118666228D01*
X147180074Y-118666228D02*
X147180074Y-118580514D01*
X147180074Y-118580514D02*
X147208646Y-118466228D01*
X147208646Y-118466228D02*
X147237217Y-118409085D01*
X147237217Y-118409085D02*
X147294360Y-118351942D01*
X147294360Y-118351942D02*
X147380074Y-118323371D01*
X147380074Y-118323371D02*
X147437217Y-118323371D01*
X147437217Y-118323371D02*
X147522931Y-118351942D01*
X147522931Y-118351942D02*
X147551503Y-118380514D01*
X148065789Y-118523371D02*
X148065789Y-118923371D01*
X147922931Y-118294800D02*
X147780074Y-118723371D01*
X147780074Y-118723371D02*
X148151503Y-118723371D01*
X158623371Y-102148496D02*
X158337657Y-102348496D01*
X158623371Y-102491353D02*
X158023371Y-102491353D01*
X158023371Y-102491353D02*
X158023371Y-102262782D01*
X158023371Y-102262782D02*
X158051942Y-102205639D01*
X158051942Y-102205639D02*
X158080514Y-102177068D01*
X158080514Y-102177068D02*
X158137657Y-102148496D01*
X158137657Y-102148496D02*
X158223371Y-102148496D01*
X158223371Y-102148496D02*
X158280514Y-102177068D01*
X158280514Y-102177068D02*
X158309085Y-102205639D01*
X158309085Y-102205639D02*
X158337657Y-102262782D01*
X158337657Y-102262782D02*
X158337657Y-102491353D01*
X158023371Y-101948496D02*
X158023371Y-101577068D01*
X158023371Y-101577068D02*
X158251942Y-101777068D01*
X158251942Y-101777068D02*
X158251942Y-101691353D01*
X158251942Y-101691353D02*
X158280514Y-101634211D01*
X158280514Y-101634211D02*
X158309085Y-101605639D01*
X158309085Y-101605639D02*
X158366228Y-101577068D01*
X158366228Y-101577068D02*
X158509085Y-101577068D01*
X158509085Y-101577068D02*
X158566228Y-101605639D01*
X158566228Y-101605639D02*
X158594800Y-101634211D01*
X158594800Y-101634211D02*
X158623371Y-101691353D01*
X158623371Y-101691353D02*
X158623371Y-101862782D01*
X158623371Y-101862782D02*
X158594800Y-101919925D01*
X158594800Y-101919925D02*
X158566228Y-101948496D01*
X150623371Y-102148496D02*
X150337657Y-102348496D01*
X150623371Y-102491353D02*
X150023371Y-102491353D01*
X150023371Y-102491353D02*
X150023371Y-102262782D01*
X150023371Y-102262782D02*
X150051942Y-102205639D01*
X150051942Y-102205639D02*
X150080514Y-102177068D01*
X150080514Y-102177068D02*
X150137657Y-102148496D01*
X150137657Y-102148496D02*
X150223371Y-102148496D01*
X150223371Y-102148496D02*
X150280514Y-102177068D01*
X150280514Y-102177068D02*
X150309085Y-102205639D01*
X150309085Y-102205639D02*
X150337657Y-102262782D01*
X150337657Y-102262782D02*
X150337657Y-102491353D01*
X150023371Y-101948496D02*
X150023371Y-101548496D01*
X150023371Y-101548496D02*
X150623371Y-101805639D01*
D13*
X153833333Y-120824819D02*
X153500000Y-120348628D01*
X153261905Y-120824819D02*
X153261905Y-119824819D01*
X153261905Y-119824819D02*
X153642857Y-119824819D01*
X153642857Y-119824819D02*
X153738095Y-119872438D01*
X153738095Y-119872438D02*
X153785714Y-119920057D01*
X153785714Y-119920057D02*
X153833333Y-120015295D01*
X153833333Y-120015295D02*
X153833333Y-120158152D01*
X153833333Y-120158152D02*
X153785714Y-120253390D01*
X153785714Y-120253390D02*
X153738095Y-120301009D01*
X153738095Y-120301009D02*
X153642857Y-120348628D01*
X153642857Y-120348628D02*
X153261905Y-120348628D01*
X154404762Y-120253390D02*
X154309524Y-120205771D01*
X154309524Y-120205771D02*
X154261905Y-120158152D01*
X154261905Y-120158152D02*
X154214286Y-120062914D01*
X154214286Y-120062914D02*
X154214286Y-120015295D01*
X154214286Y-120015295D02*
X154261905Y-119920057D01*
X154261905Y-119920057D02*
X154309524Y-119872438D01*
X154309524Y-119872438D02*
X154404762Y-119824819D01*
X154404762Y-119824819D02*
X154595238Y-119824819D01*
X154595238Y-119824819D02*
X154690476Y-119872438D01*
X154690476Y-119872438D02*
X154738095Y-119920057D01*
X154738095Y-119920057D02*
X154785714Y-120015295D01*
X154785714Y-120015295D02*
X154785714Y-120062914D01*
X154785714Y-120062914D02*
X154738095Y-120158152D01*
X154738095Y-120158152D02*
X154690476Y-120205771D01*
X154690476Y-120205771D02*
X154595238Y-120253390D01*
X154595238Y-120253390D02*
X154404762Y-120253390D01*
X154404762Y-120253390D02*
X154309524Y-120301009D01*
X154309524Y-120301009D02*
X154261905Y-120348628D01*
X154261905Y-120348628D02*
X154214286Y-120443866D01*
X154214286Y-120443866D02*
X154214286Y-120634342D01*
X154214286Y-120634342D02*
X154261905Y-120729580D01*
X154261905Y-120729580D02*
X154309524Y-120777200D01*
X154309524Y-120777200D02*
X154404762Y-120824819D01*
X154404762Y-120824819D02*
X154595238Y-120824819D01*
X154595238Y-120824819D02*
X154690476Y-120777200D01*
X154690476Y-120777200D02*
X154738095Y-120729580D01*
X154738095Y-120729580D02*
X154785714Y-120634342D01*
X154785714Y-120634342D02*
X154785714Y-120443866D01*
X154785714Y-120443866D02*
X154738095Y-120348628D01*
X154738095Y-120348628D02*
X154690476Y-120301009D01*
X154690476Y-120301009D02*
X154595238Y-120253390D01*
D10*
X148551503Y-97923371D02*
X148351503Y-97637657D01*
X148208646Y-97923371D02*
X148208646Y-97323371D01*
X148208646Y-97323371D02*
X148437217Y-97323371D01*
X148437217Y-97323371D02*
X148494360Y-97351942D01*
X148494360Y-97351942D02*
X148522931Y-97380514D01*
X148522931Y-97380514D02*
X148551503Y-97437657D01*
X148551503Y-97437657D02*
X148551503Y-97523371D01*
X148551503Y-97523371D02*
X148522931Y-97580514D01*
X148522931Y-97580514D02*
X148494360Y-97609085D01*
X148494360Y-97609085D02*
X148437217Y-97637657D01*
X148437217Y-97637657D02*
X148208646Y-97637657D01*
X149065789Y-97323371D02*
X148951503Y-97323371D01*
X148951503Y-97323371D02*
X148894360Y-97351942D01*
X148894360Y-97351942D02*
X148865789Y-97380514D01*
X148865789Y-97380514D02*
X148808646Y-97466228D01*
X148808646Y-97466228D02*
X148780074Y-97580514D01*
X148780074Y-97580514D02*
X148780074Y-97809085D01*
X148780074Y-97809085D02*
X148808646Y-97866228D01*
X148808646Y-97866228D02*
X148837217Y-97894800D01*
X148837217Y-97894800D02*
X148894360Y-97923371D01*
X148894360Y-97923371D02*
X149008646Y-97923371D01*
X149008646Y-97923371D02*
X149065789Y-97894800D01*
X149065789Y-97894800D02*
X149094360Y-97866228D01*
X149094360Y-97866228D02*
X149122931Y-97809085D01*
X149122931Y-97809085D02*
X149122931Y-97666228D01*
X149122931Y-97666228D02*
X149094360Y-97609085D01*
X149094360Y-97609085D02*
X149065789Y-97580514D01*
X149065789Y-97580514D02*
X149008646Y-97551942D01*
X149008646Y-97551942D02*
X148894360Y-97551942D01*
X148894360Y-97551942D02*
X148837217Y-97580514D01*
X148837217Y-97580514D02*
X148808646Y-97609085D01*
X148808646Y-97609085D02*
X148780074Y-97666228D01*
D13*
X143064819Y-93761904D02*
X142064819Y-93761904D01*
X142541009Y-93761904D02*
X142541009Y-93190476D01*
X143064819Y-93190476D02*
X142064819Y-93190476D01*
X143064819Y-92190476D02*
X143064819Y-92761904D01*
X143064819Y-92476190D02*
X142064819Y-92476190D01*
X142064819Y-92476190D02*
X142207676Y-92571428D01*
X142207676Y-92571428D02*
X142302914Y-92666666D01*
X142302914Y-92666666D02*
X142350533Y-92761904D01*
D10*
X154551503Y-103323371D02*
X154351503Y-103037657D01*
X154208646Y-103323371D02*
X154208646Y-102723371D01*
X154208646Y-102723371D02*
X154437217Y-102723371D01*
X154437217Y-102723371D02*
X154494360Y-102751942D01*
X154494360Y-102751942D02*
X154522931Y-102780514D01*
X154522931Y-102780514D02*
X154551503Y-102837657D01*
X154551503Y-102837657D02*
X154551503Y-102923371D01*
X154551503Y-102923371D02*
X154522931Y-102980514D01*
X154522931Y-102980514D02*
X154494360Y-103009085D01*
X154494360Y-103009085D02*
X154437217Y-103037657D01*
X154437217Y-103037657D02*
X154208646Y-103037657D01*
X154780074Y-102780514D02*
X154808646Y-102751942D01*
X154808646Y-102751942D02*
X154865789Y-102723371D01*
X154865789Y-102723371D02*
X155008646Y-102723371D01*
X155008646Y-102723371D02*
X155065789Y-102751942D01*
X155065789Y-102751942D02*
X155094360Y-102780514D01*
X155094360Y-102780514D02*
X155122931Y-102837657D01*
X155122931Y-102837657D02*
X155122931Y-102894800D01*
X155122931Y-102894800D02*
X155094360Y-102980514D01*
X155094360Y-102980514D02*
X154751503Y-103323371D01*
X154751503Y-103323371D02*
X155122931Y-103323371D01*
D13*
X164959580Y-119166666D02*
X165007200Y-119214285D01*
X165007200Y-119214285D02*
X165054819Y-119357142D01*
X165054819Y-119357142D02*
X165054819Y-119452380D01*
X165054819Y-119452380D02*
X165007200Y-119595237D01*
X165007200Y-119595237D02*
X164911961Y-119690475D01*
X164911961Y-119690475D02*
X164816723Y-119738094D01*
X164816723Y-119738094D02*
X164626247Y-119785713D01*
X164626247Y-119785713D02*
X164483390Y-119785713D01*
X164483390Y-119785713D02*
X164292914Y-119738094D01*
X164292914Y-119738094D02*
X164197676Y-119690475D01*
X164197676Y-119690475D02*
X164102438Y-119595237D01*
X164102438Y-119595237D02*
X164054819Y-119452380D01*
X164054819Y-119452380D02*
X164054819Y-119357142D01*
X164054819Y-119357142D02*
X164102438Y-119214285D01*
X164102438Y-119214285D02*
X164150057Y-119166666D01*
X164054819Y-118261904D02*
X164054819Y-118738094D01*
X164054819Y-118738094D02*
X164531009Y-118785713D01*
X164531009Y-118785713D02*
X164483390Y-118738094D01*
X164483390Y-118738094D02*
X164435771Y-118642856D01*
X164435771Y-118642856D02*
X164435771Y-118404761D01*
X164435771Y-118404761D02*
X164483390Y-118309523D01*
X164483390Y-118309523D02*
X164531009Y-118261904D01*
X164531009Y-118261904D02*
X164626247Y-118214285D01*
X164626247Y-118214285D02*
X164864342Y-118214285D01*
X164864342Y-118214285D02*
X164959580Y-118261904D01*
X164959580Y-118261904D02*
X165007200Y-118309523D01*
X165007200Y-118309523D02*
X165054819Y-118404761D01*
X165054819Y-118404761D02*
X165054819Y-118642856D01*
X165054819Y-118642856D02*
X165007200Y-118738094D01*
X165007200Y-118738094D02*
X164959580Y-118785713D01*
D10*
X156551503Y-97923371D02*
X156351503Y-97637657D01*
X156208646Y-97923371D02*
X156208646Y-97323371D01*
X156208646Y-97323371D02*
X156437217Y-97323371D01*
X156437217Y-97323371D02*
X156494360Y-97351942D01*
X156494360Y-97351942D02*
X156522931Y-97380514D01*
X156522931Y-97380514D02*
X156551503Y-97437657D01*
X156551503Y-97437657D02*
X156551503Y-97523371D01*
X156551503Y-97523371D02*
X156522931Y-97580514D01*
X156522931Y-97580514D02*
X156494360Y-97609085D01*
X156494360Y-97609085D02*
X156437217Y-97637657D01*
X156437217Y-97637657D02*
X156208646Y-97637657D01*
X157122931Y-97923371D02*
X156780074Y-97923371D01*
X156951503Y-97923371D02*
X156951503Y-97323371D01*
X156951503Y-97323371D02*
X156894360Y-97409085D01*
X156894360Y-97409085D02*
X156837217Y-97466228D01*
X156837217Y-97466228D02*
X156780074Y-97494800D01*
X159470550Y-132518609D02*
X159303884Y-132280514D01*
X159184836Y-132518609D02*
X159184836Y-132018609D01*
X159184836Y-132018609D02*
X159375312Y-132018609D01*
X159375312Y-132018609D02*
X159422931Y-132042419D01*
X159422931Y-132042419D02*
X159446741Y-132066228D01*
X159446741Y-132066228D02*
X159470550Y-132113847D01*
X159470550Y-132113847D02*
X159470550Y-132185276D01*
X159470550Y-132185276D02*
X159446741Y-132232895D01*
X159446741Y-132232895D02*
X159422931Y-132256704D01*
X159422931Y-132256704D02*
X159375312Y-132280514D01*
X159375312Y-132280514D02*
X159184836Y-132280514D01*
X159946741Y-132518609D02*
X159661027Y-132518609D01*
X159803884Y-132518609D02*
X159803884Y-132018609D01*
X159803884Y-132018609D02*
X159756265Y-132090038D01*
X159756265Y-132090038D02*
X159708646Y-132137657D01*
X159708646Y-132137657D02*
X159661027Y-132161466D01*
X160256264Y-132018609D02*
X160303883Y-132018609D01*
X160303883Y-132018609D02*
X160351502Y-132042419D01*
X160351502Y-132042419D02*
X160375312Y-132066228D01*
X160375312Y-132066228D02*
X160399121Y-132113847D01*
X160399121Y-132113847D02*
X160422931Y-132209085D01*
X160422931Y-132209085D02*
X160422931Y-132328133D01*
X160422931Y-132328133D02*
X160399121Y-132423371D01*
X160399121Y-132423371D02*
X160375312Y-132470990D01*
X160375312Y-132470990D02*
X160351502Y-132494800D01*
X160351502Y-132494800D02*
X160303883Y-132518609D01*
X160303883Y-132518609D02*
X160256264Y-132518609D01*
X160256264Y-132518609D02*
X160208645Y-132494800D01*
X160208645Y-132494800D02*
X160184836Y-132470990D01*
X160184836Y-132470990D02*
X160161026Y-132423371D01*
X160161026Y-132423371D02*
X160137217Y-132328133D01*
X160137217Y-132328133D02*
X160137217Y-132209085D01*
X160137217Y-132209085D02*
X160161026Y-132113847D01*
X160161026Y-132113847D02*
X160184836Y-132066228D01*
X160184836Y-132066228D02*
X160208645Y-132042419D01*
X160208645Y-132042419D02*
X160256264Y-132018609D01*
X167370550Y-126518609D02*
X167203884Y-126280514D01*
X167084836Y-126518609D02*
X167084836Y-126018609D01*
X167084836Y-126018609D02*
X167275312Y-126018609D01*
X167275312Y-126018609D02*
X167322931Y-126042419D01*
X167322931Y-126042419D02*
X167346741Y-126066228D01*
X167346741Y-126066228D02*
X167370550Y-126113847D01*
X167370550Y-126113847D02*
X167370550Y-126185276D01*
X167370550Y-126185276D02*
X167346741Y-126232895D01*
X167346741Y-126232895D02*
X167322931Y-126256704D01*
X167322931Y-126256704D02*
X167275312Y-126280514D01*
X167275312Y-126280514D02*
X167084836Y-126280514D01*
X167846741Y-126518609D02*
X167561027Y-126518609D01*
X167703884Y-126518609D02*
X167703884Y-126018609D01*
X167703884Y-126018609D02*
X167656265Y-126090038D01*
X167656265Y-126090038D02*
X167608646Y-126137657D01*
X167608646Y-126137657D02*
X167561027Y-126161466D01*
X168322931Y-126518609D02*
X168037217Y-126518609D01*
X168180074Y-126518609D02*
X168180074Y-126018609D01*
X168180074Y-126018609D02*
X168132455Y-126090038D01*
X168132455Y-126090038D02*
X168084836Y-126137657D01*
X168084836Y-126137657D02*
X168037217Y-126161466D01*
X146770550Y-103118609D02*
X146603884Y-102880514D01*
X146484836Y-103118609D02*
X146484836Y-102618609D01*
X146484836Y-102618609D02*
X146675312Y-102618609D01*
X146675312Y-102618609D02*
X146722931Y-102642419D01*
X146722931Y-102642419D02*
X146746741Y-102666228D01*
X146746741Y-102666228D02*
X146770550Y-102713847D01*
X146770550Y-102713847D02*
X146770550Y-102785276D01*
X146770550Y-102785276D02*
X146746741Y-102832895D01*
X146746741Y-102832895D02*
X146722931Y-102856704D01*
X146722931Y-102856704D02*
X146675312Y-102880514D01*
X146675312Y-102880514D02*
X146484836Y-102880514D01*
X147199122Y-102785276D02*
X147199122Y-103118609D01*
X147080074Y-102594800D02*
X146961027Y-102951942D01*
X146961027Y-102951942D02*
X147270550Y-102951942D01*
X160402300Y-126571427D02*
X160426109Y-126499999D01*
X160426109Y-126499999D02*
X160426109Y-126380951D01*
X160426109Y-126380951D02*
X160402300Y-126333332D01*
X160402300Y-126333332D02*
X160378490Y-126309523D01*
X160378490Y-126309523D02*
X160330871Y-126285713D01*
X160330871Y-126285713D02*
X160283252Y-126285713D01*
X160283252Y-126285713D02*
X160235633Y-126309523D01*
X160235633Y-126309523D02*
X160211823Y-126333332D01*
X160211823Y-126333332D02*
X160188014Y-126380951D01*
X160188014Y-126380951D02*
X160164204Y-126476189D01*
X160164204Y-126476189D02*
X160140395Y-126523808D01*
X160140395Y-126523808D02*
X160116585Y-126547618D01*
X160116585Y-126547618D02*
X160068966Y-126571427D01*
X160068966Y-126571427D02*
X160021347Y-126571427D01*
X160021347Y-126571427D02*
X159973728Y-126547618D01*
X159973728Y-126547618D02*
X159949919Y-126523808D01*
X159949919Y-126523808D02*
X159926109Y-126476189D01*
X159926109Y-126476189D02*
X159926109Y-126357142D01*
X159926109Y-126357142D02*
X159949919Y-126285713D01*
X159926109Y-125928571D02*
X160283252Y-125928571D01*
X160283252Y-125928571D02*
X160354680Y-125952380D01*
X160354680Y-125952380D02*
X160402300Y-125999999D01*
X160402300Y-125999999D02*
X160426109Y-126071428D01*
X160426109Y-126071428D02*
X160426109Y-126119047D01*
X159973728Y-125714285D02*
X159949919Y-125690476D01*
X159949919Y-125690476D02*
X159926109Y-125642857D01*
X159926109Y-125642857D02*
X159926109Y-125523809D01*
X159926109Y-125523809D02*
X159949919Y-125476190D01*
X159949919Y-125476190D02*
X159973728Y-125452381D01*
X159973728Y-125452381D02*
X160021347Y-125428571D01*
X160021347Y-125428571D02*
X160068966Y-125428571D01*
X160068966Y-125428571D02*
X160140395Y-125452381D01*
X160140395Y-125452381D02*
X160426109Y-125738095D01*
X160426109Y-125738095D02*
X160426109Y-125428571D01*
X162494360Y-103323371D02*
X162208646Y-103323371D01*
X162208646Y-103323371D02*
X162208646Y-102723371D01*
X162694360Y-103009085D02*
X162894360Y-103009085D01*
X162980074Y-103323371D02*
X162694360Y-103323371D01*
X162694360Y-103323371D02*
X162694360Y-102723371D01*
X162694360Y-102723371D02*
X162980074Y-102723371D01*
X163237217Y-103323371D02*
X163237217Y-102723371D01*
X163237217Y-102723371D02*
X163380074Y-102723371D01*
X163380074Y-102723371D02*
X163465788Y-102751942D01*
X163465788Y-102751942D02*
X163522931Y-102809085D01*
X163522931Y-102809085D02*
X163551502Y-102866228D01*
X163551502Y-102866228D02*
X163580074Y-102980514D01*
X163580074Y-102980514D02*
X163580074Y-103066228D01*
X163580074Y-103066228D02*
X163551502Y-103180514D01*
X163551502Y-103180514D02*
X163522931Y-103237657D01*
X163522931Y-103237657D02*
X163465788Y-103294800D01*
X163465788Y-103294800D02*
X163380074Y-103323371D01*
X163380074Y-103323371D02*
X163237217Y-103323371D01*
X164151502Y-103323371D02*
X163808645Y-103323371D01*
X163980074Y-103323371D02*
X163980074Y-102723371D01*
X163980074Y-102723371D02*
X163922931Y-102809085D01*
X163922931Y-102809085D02*
X163865788Y-102866228D01*
X163865788Y-102866228D02*
X163808645Y-102894800D01*
X150132455Y-118961466D02*
X150099122Y-118994800D01*
X150099122Y-118994800D02*
X149999122Y-119028133D01*
X149999122Y-119028133D02*
X149932455Y-119028133D01*
X149932455Y-119028133D02*
X149832455Y-118994800D01*
X149832455Y-118994800D02*
X149765789Y-118928133D01*
X149765789Y-118928133D02*
X149732455Y-118861466D01*
X149732455Y-118861466D02*
X149699122Y-118728133D01*
X149699122Y-118728133D02*
X149699122Y-118628133D01*
X149699122Y-118628133D02*
X149732455Y-118494800D01*
X149732455Y-118494800D02*
X149765789Y-118428133D01*
X149765789Y-118428133D02*
X149832455Y-118361466D01*
X149832455Y-118361466D02*
X149932455Y-118328133D01*
X149932455Y-118328133D02*
X149999122Y-118328133D01*
X149999122Y-118328133D02*
X150099122Y-118361466D01*
X150099122Y-118361466D02*
X150132455Y-118394800D01*
X150799122Y-119028133D02*
X150399122Y-119028133D01*
X150599122Y-119028133D02*
X150599122Y-118328133D01*
X150599122Y-118328133D02*
X150532455Y-118428133D01*
X150532455Y-118428133D02*
X150465789Y-118494800D01*
X150465789Y-118494800D02*
X150399122Y-118528133D01*
D13*
X164959580Y-97666666D02*
X165007200Y-97714285D01*
X165007200Y-97714285D02*
X165054819Y-97857142D01*
X165054819Y-97857142D02*
X165054819Y-97952380D01*
X165054819Y-97952380D02*
X165007200Y-98095237D01*
X165007200Y-98095237D02*
X164911961Y-98190475D01*
X164911961Y-98190475D02*
X164816723Y-98238094D01*
X164816723Y-98238094D02*
X164626247Y-98285713D01*
X164626247Y-98285713D02*
X164483390Y-98285713D01*
X164483390Y-98285713D02*
X164292914Y-98238094D01*
X164292914Y-98238094D02*
X164197676Y-98190475D01*
X164197676Y-98190475D02*
X164102438Y-98095237D01*
X164102438Y-98095237D02*
X164054819Y-97952380D01*
X164054819Y-97952380D02*
X164054819Y-97857142D01*
X164054819Y-97857142D02*
X164102438Y-97714285D01*
X164102438Y-97714285D02*
X164150057Y-97666666D01*
X164054819Y-97333332D02*
X164054819Y-96714285D01*
X164054819Y-96714285D02*
X164435771Y-97047618D01*
X164435771Y-97047618D02*
X164435771Y-96904761D01*
X164435771Y-96904761D02*
X164483390Y-96809523D01*
X164483390Y-96809523D02*
X164531009Y-96761904D01*
X164531009Y-96761904D02*
X164626247Y-96714285D01*
X164626247Y-96714285D02*
X164864342Y-96714285D01*
X164864342Y-96714285D02*
X164959580Y-96761904D01*
X164959580Y-96761904D02*
X165007200Y-96809523D01*
X165007200Y-96809523D02*
X165054819Y-96904761D01*
X165054819Y-96904761D02*
X165054819Y-97190475D01*
X165054819Y-97190475D02*
X165007200Y-97285713D01*
X165007200Y-97285713D02*
X164959580Y-97333332D01*
%TO.C,C6*%
D16*
X164084600Y-130495599D02*
X164084600Y-131295599D01*
X164090400Y-129919699D02*
X164090400Y-129119799D01*
X164394400Y-131605499D02*
X165194400Y-131605499D01*
X164400200Y-128809999D02*
X165200300Y-128809999D01*
X165504200Y-130495599D02*
X165504200Y-131295599D01*
X165510000Y-129919699D02*
X165510000Y-129119799D01*
X164090400Y-129119799D02*
G75*
G02*
X164400200Y-128809999I309800J0D01*
G01*
X164394400Y-131605499D02*
G75*
G02*
X164084600Y-131295699I-1J309799D01*
G01*
X165200200Y-128809999D02*
G75*
G02*
X165510000Y-129119799I0J-309800D01*
G01*
X165504200Y-131295699D02*
G75*
G02*
X165194400Y-131605499I-309799J-1D01*
G01*
%TO.C,R5*%
D14*
X159339400Y-98614900D02*
X159339400Y-99573800D01*
X159339400Y-101385100D02*
X159339400Y-100426200D01*
X160660600Y-98614900D02*
X159339400Y-98614900D01*
X160660600Y-99573800D02*
X160660600Y-98614900D01*
X160660600Y-100426200D02*
X160660600Y-101385100D01*
X160660600Y-101385100D02*
X159339400Y-101385100D01*
%TO.C,C2*%
D16*
X150784600Y-116295600D02*
X150784600Y-117095600D01*
X150790400Y-115719700D02*
X150790400Y-114919800D01*
X151094400Y-117405500D02*
X151894400Y-117405500D01*
X151100200Y-114610000D02*
X151900300Y-114610000D01*
X152204200Y-116295600D02*
X152204200Y-117095600D01*
X152210000Y-115719700D02*
X152210000Y-114919800D01*
X150790400Y-114919800D02*
G75*
G02*
X151100200Y-114610000I309800J0D01*
G01*
X151094400Y-117405500D02*
G75*
G02*
X150784600Y-117095700I-1J309799D01*
G01*
X151900200Y-114610000D02*
G75*
G02*
X152210000Y-114919800I0J-309800D01*
G01*
X152204200Y-117095700D02*
G75*
G02*
X151894400Y-117405500I-309799J-1D01*
G01*
%TO.C,R12*%
D14*
X151339400Y-98614900D02*
X151339400Y-99573800D01*
X151339400Y-101385100D02*
X151339400Y-100426200D01*
X152660600Y-98614900D02*
X151339400Y-98614900D01*
X152660600Y-99573800D02*
X152660600Y-98614900D01*
X152660600Y-100426200D02*
X152660600Y-101385100D01*
X152660600Y-101385100D02*
X151339400Y-101385100D01*
%TO.C,TB_PWR1*%
D11*
X135580000Y-104380000D02*
X143620000Y-104380000D01*
X135580000Y-107200000D02*
X135580000Y-104380000D01*
X135580000Y-115120000D02*
X135580000Y-107800000D01*
X137700000Y-104380000D02*
X137700000Y-105620000D01*
X137700000Y-109380000D02*
X137700000Y-111957000D01*
X137700000Y-113043000D02*
X137700000Y-115120000D01*
X139000000Y-104380000D02*
X139000000Y-105620000D01*
X139000000Y-109380000D02*
X139000000Y-110688000D01*
X139000000Y-114312000D02*
X139000000Y-115120000D01*
X140000000Y-104380000D02*
X140000000Y-105620000D01*
X140000000Y-109380000D02*
X140000000Y-110688000D01*
X140000000Y-114312000D02*
X140000000Y-115120000D01*
X143620000Y-104380000D02*
X143620000Y-115120000D01*
X143620000Y-115120000D02*
X135580000Y-115120000D01*
X135580000Y-107500000D02*
X134970000Y-107940000D01*
X134970000Y-107060000D01*
X135580000Y-107500000D01*
G36*
X135580000Y-107500000D02*
G01*
X134970000Y-107940000D01*
X134970000Y-107060000D01*
X135580000Y-107500000D01*
G37*
%TO.C,R9*%
D14*
X158339400Y-124614900D02*
X159660600Y-124614900D01*
X158339400Y-125573800D02*
X158339400Y-124614900D01*
X158339400Y-126426200D02*
X158339400Y-127385100D01*
X158339400Y-127385100D02*
X159660600Y-127385100D01*
X159660600Y-124614900D02*
X159660600Y-125573800D01*
X159660600Y-127385100D02*
X159660600Y-126426200D01*
%TO.C,SJ1*%
D11*
X161000000Y-130899999D02*
X161000000Y-129499999D01*
X161700000Y-128799999D02*
X162300000Y-128799999D01*
X162300000Y-131599999D02*
X161700000Y-131599999D01*
X163000000Y-129499999D02*
X163000000Y-130899999D01*
X161000000Y-129499999D02*
G75*
G02*
X161700000Y-128799999I700000J0D01*
G01*
X161700000Y-131599999D02*
G75*
G02*
X161000000Y-130899999I-1J699999D01*
G01*
X162300000Y-128799999D02*
G75*
G02*
X163000000Y-129499999I0J-700000D01*
G01*
X163000000Y-130899999D02*
G75*
G02*
X162300000Y-131599999I-699999J-1D01*
G01*
%TO.C,P1*%
X174880000Y-97880000D02*
X182920000Y-97880000D01*
X174880000Y-123620000D02*
X174880000Y-97880000D01*
X178500000Y-98688000D02*
X178500000Y-97880000D01*
X178500000Y-103688000D02*
X178500000Y-102312000D01*
X178500000Y-108688000D02*
X178500000Y-107312000D01*
X178500000Y-113688000D02*
X178500000Y-112312000D01*
X178500000Y-118620000D02*
X178500000Y-117312000D01*
X178500000Y-123620000D02*
X178500000Y-122380000D01*
X179500000Y-98688000D02*
X179500000Y-97880000D01*
X179500000Y-103688000D02*
X179500000Y-102312000D01*
X179500000Y-108688000D02*
X179500000Y-107312000D01*
X179500000Y-113688000D02*
X179500000Y-112312000D01*
X179500000Y-118620000D02*
X179500000Y-117312000D01*
X179500000Y-123620000D02*
X179500000Y-122380000D01*
X180800000Y-99957000D02*
X180800000Y-97880000D01*
X180800000Y-104957000D02*
X180800000Y-101043000D01*
X180800000Y-109957000D02*
X180800000Y-106043000D01*
X180800000Y-114957000D02*
X180800000Y-111043000D01*
X180800000Y-118620000D02*
X180800000Y-116043000D01*
X180800000Y-123620000D02*
X180800000Y-122380000D01*
X182920000Y-97880000D02*
X182920000Y-120200000D01*
X182920000Y-120800000D02*
X182920000Y-123620000D01*
X182920000Y-123620000D02*
X174880000Y-123620000D01*
X182920000Y-120500000D02*
X183530000Y-120060000D01*
X183530000Y-120940000D01*
X182920000Y-120500000D01*
G36*
X183530000Y-120940000D02*
G01*
X182920000Y-120500000D01*
X183530000Y-120060000D01*
X183530000Y-120940000D01*
G37*
%TO.C,U1*%
D14*
X150073800Y-108228500D02*
X159926200Y-108228500D01*
X150073800Y-111771300D02*
X150073800Y-108228500D01*
X159926200Y-108228500D02*
X159926200Y-111771300D01*
X159926200Y-111771300D02*
X150073800Y-111771300D01*
D17*
X150301200Y-112865900D02*
G75*
G02*
X150001000Y-112865900I-150100J0D01*
G01*
X150001000Y-112865900D02*
G75*
G02*
X150301200Y-112865900I150100J0D01*
G01*
X150925100Y-111019000D02*
G75*
G02*
X150624900Y-111019000I-150100J0D01*
G01*
X150624900Y-111019000D02*
G75*
G02*
X150925100Y-111019000I150100J0D01*
G01*
%TO.C,R3*%
D14*
X157339400Y-98614900D02*
X157339400Y-99573800D01*
X157339400Y-101385100D02*
X157339400Y-100426200D01*
X158660600Y-98614900D02*
X157339400Y-98614900D01*
X158660600Y-99573800D02*
X158660600Y-98614900D01*
X158660600Y-100426200D02*
X158660600Y-101385100D01*
X158660600Y-101385100D02*
X157339400Y-101385100D01*
%TO.C,R7*%
X149339400Y-98614900D02*
X149339400Y-99573800D01*
X149339400Y-101385100D02*
X149339400Y-100426200D01*
X150660600Y-98614900D02*
X149339400Y-98614900D01*
X150660600Y-99573800D02*
X150660600Y-98614900D01*
X150660600Y-100426200D02*
X150660600Y-101385100D01*
X150660600Y-101385100D02*
X149339400Y-101385100D01*
%TO.C,R8*%
D11*
X151822936Y-121290000D02*
X156177064Y-121290000D01*
X151822936Y-124710000D02*
X156177064Y-124710000D01*
%TO.C,R6*%
D14*
X147339400Y-98614900D02*
X147339400Y-99573800D01*
X147339400Y-101385100D02*
X147339400Y-100426200D01*
X148660600Y-98614900D02*
X147339400Y-98614900D01*
X148660600Y-99573800D02*
X148660600Y-98614900D01*
X148660600Y-100426200D02*
X148660600Y-101385100D01*
X148660600Y-101385100D02*
X147339400Y-101385100D01*
%TO.C,R2*%
X153339400Y-98614900D02*
X153339400Y-99573800D01*
X153339400Y-101385100D02*
X153339400Y-100426200D01*
X154660600Y-98614900D02*
X153339400Y-98614900D01*
X154660600Y-99573800D02*
X154660600Y-98614900D01*
X154660600Y-100426200D02*
X154660600Y-101385100D01*
X154660600Y-101385100D02*
X153339400Y-101385100D01*
%TO.C,R1*%
X155339400Y-98614900D02*
X155339400Y-99573800D01*
X155339400Y-101385100D02*
X155339400Y-100426200D01*
X156660600Y-98614900D02*
X155339400Y-98614900D01*
X156660600Y-99573800D02*
X156660600Y-98614900D01*
X156660600Y-100426200D02*
X156660600Y-101385100D01*
X156660600Y-101385100D02*
X155339400Y-101385100D01*
%TO.C,R10*%
X158339400Y-128814899D02*
X159660600Y-128814899D01*
X158339400Y-129773799D02*
X158339400Y-128814899D01*
X158339400Y-130626199D02*
X158339400Y-131585099D01*
X158339400Y-131585099D02*
X159660600Y-131585099D01*
X159660600Y-128814899D02*
X159660600Y-129773799D01*
X159660600Y-131585099D02*
X159660600Y-130626199D01*
%TO.C,R11*%
X164139400Y-124614900D02*
X164139400Y-125573800D01*
X164139400Y-127385100D02*
X164139400Y-126426200D01*
X165460600Y-124614900D02*
X164139400Y-124614900D01*
X165460600Y-125573800D02*
X165460600Y-124614900D01*
X165460600Y-126426200D02*
X165460600Y-127385100D01*
X165460600Y-127385100D02*
X164139400Y-127385100D01*
%TO.C,SJ2*%
D11*
X161000000Y-126700000D02*
X161000000Y-125300000D01*
X161700000Y-124600000D02*
X162300000Y-124600000D01*
X162300000Y-127400000D02*
X161700000Y-127400000D01*
X163000000Y-125300000D02*
X163000000Y-126700000D01*
X161000000Y-125300000D02*
G75*
G02*
X161700000Y-124600000I700000J0D01*
G01*
X161700000Y-127400000D02*
G75*
G02*
X161000000Y-126700000I-1J699999D01*
G01*
X162300000Y-124600000D02*
G75*
G02*
X163000000Y-125300000I0J-700000D01*
G01*
X163000000Y-126700000D02*
G75*
G02*
X162300000Y-127400000I-699999J-1D01*
G01*
%TO.C,LED1*%
D16*
X161136400Y-98234700D02*
X161136400Y-99707900D01*
X161136400Y-100292100D02*
X161136400Y-101460500D01*
X161492000Y-101816100D02*
X161136400Y-101460500D01*
D18*
X162008000Y-99923800D02*
X162008000Y-100099200D01*
X162406400Y-99923800D02*
X161619000Y-99923800D01*
D16*
X162508000Y-101816100D02*
X161492000Y-101816100D01*
X162863600Y-98234700D02*
X161136400Y-98234700D01*
X162863600Y-98234700D02*
X162863600Y-99707900D01*
X162863600Y-100317500D02*
X162863600Y-101460500D01*
X162863600Y-101460500D02*
X162508000Y-101816100D01*
%TO.C,C1*%
X148784600Y-116295600D02*
X148784600Y-117095600D01*
X148790400Y-115719700D02*
X148790400Y-114919800D01*
X149094400Y-117405500D02*
X149894400Y-117405500D01*
X149100200Y-114610000D02*
X149900300Y-114610000D01*
X150204200Y-116295600D02*
X150204200Y-117095600D01*
X150210000Y-115719700D02*
X150210000Y-114919800D01*
X148790400Y-114919800D02*
G75*
G02*
X149100200Y-114610000I309800J0D01*
G01*
X149094400Y-117405500D02*
G75*
G02*
X148784600Y-117095700I-1J309799D01*
G01*
X149900200Y-114610000D02*
G75*
G02*
X150210000Y-114919800I0J-309800D01*
G01*
X150204200Y-117095700D02*
G75*
G02*
X149894400Y-117405500I-309799J-1D01*
G01*
%TD*%
M02*
