%TF.GenerationSoftware,KiCad,Pcbnew,10.0.3*%
%TF.CreationDate,2026-06-27T00:27:45+08:00*%
%TF.ProjectId,project,70726f6a-6563-4742-9e6b-696361645f70,rev?*%
%TF.SameCoordinates,Original*%
%TF.FileFunction,Copper,L1,Top*%
%TF.FilePolarity,Positive*%
%FSLAX46Y46*%
G04 Gerber Fmt 4.6, Leading zero omitted, Abs format (unit mm)*
G04 Created by KiCad (PCBNEW 10.0.3) date 2026-06-27 00:27:45*
%MOMM*%
%LPD*%
G01*
G04 APERTURE LIST*
G04 Aperture macros list*
%AMRoundRect*
0 Rectangle with rounded corners*
0 $1 Rounding radius*
0 $2 $3 $4 $5 $6 $7 $8 $9 X,Y pos of 4 corners*
0 Add a 4 corners polygon primitive as box body*
4,1,4,$2,$3,$4,$5,$6,$7,$8,$9,$2,$3,0*
0 Add four circle primitives for the rounded corners*
1,1,$1+$1,$2,$3*
1,1,$1+$1,$4,$5*
1,1,$1+$1,$6,$7*
1,1,$1+$1,$8,$9*
0 Add four rect primitives between the rounded corners*
20,1,$1+$1,$2,$3,$4,$5,0*
20,1,$1+$1,$4,$5,$6,$7,0*
20,1,$1+$1,$6,$7,$8,$9,0*
20,1,$1+$1,$8,$9,$2,$3,0*%
%AMFreePoly0*
4,1,23,0.500000,-0.750000,0.000000,-0.750000,0.000000,-0.745722,-0.065263,-0.745722,-0.191342,-0.711940,-0.304381,-0.646677,-0.396677,-0.554381,-0.461940,-0.441342,-0.495722,-0.315263,-0.495722,-0.250000,-0.500000,-0.250000,-0.500000,0.250000,-0.495722,0.250000,-0.495722,0.315263,-0.461940,0.441342,-0.396677,0.554381,-0.304381,0.646677,-0.191342,0.711940,-0.065263,0.745722,0.000000,0.745722,
0.000000,0.750000,0.500000,0.750000,0.500000,-0.750000,0.500000,-0.750000,$1*%
%AMFreePoly1*
4,1,23,0.000000,0.745722,0.065263,0.745722,0.191342,0.711940,0.304381,0.646677,0.396677,0.554381,0.461940,0.441342,0.495722,0.315263,0.495722,0.250000,0.500000,0.250000,0.500000,-0.250000,0.495722,-0.250000,0.495722,-0.315263,0.461940,-0.441342,0.396677,-0.554381,0.304381,-0.646677,0.191342,-0.711940,0.065263,-0.745722,0.000000,-0.745722,0.000000,-0.750000,-0.500000,-0.750000,
-0.500000,0.750000,0.000000,0.750000,0.000000,0.745722,0.000000,0.745722,$1*%
G04 Aperture macros list end*
%TA.AperFunction,EtchedComponent*%
%ADD10C,0.000000*%
%TD*%
%TA.AperFunction,SMDPad,CuDef*%
%ADD11R,0.800000X0.900000*%
%TD*%
%TA.AperFunction,SMDPad,CuDef*%
%ADD12R,0.806500X0.864000*%
%TD*%
%TA.AperFunction,SMDPad,CuDef*%
%ADD13R,0.864000X0.806500*%
%TD*%
%TA.AperFunction,ComponentPad*%
%ADD14RoundRect,0.250001X-1.149999X1.149999X-1.149999X-1.149999X1.149999X-1.149999X1.149999X1.149999X0*%
%TD*%
%TA.AperFunction,ComponentPad*%
%ADD15C,2.800000*%
%TD*%
%TA.AperFunction,SMDPad,CuDef*%
%ADD16FreePoly0,0.000000*%
%TD*%
%TA.AperFunction,SMDPad,CuDef*%
%ADD17FreePoly1,0.000000*%
%TD*%
%TA.AperFunction,ComponentPad*%
%ADD18RoundRect,0.250000X1.150000X-1.150000X1.150000X1.150000X-1.150000X1.150000X-1.150000X-1.150000X0*%
%TD*%
%TA.AperFunction,SMDPad,CuDef*%
%ADD19O,0.343000X1.731500*%
%TD*%
%TA.AperFunction,ComponentPad*%
%ADD20C,0.600000*%
%TD*%
%TA.AperFunction,SMDPad,CuDef*%
%ADD21R,6.200000X2.750000*%
%TD*%
%TA.AperFunction,SMDPad,CuDef*%
%ADD22RoundRect,0.250000X-1.425000X0.362500X-1.425000X-0.362500X1.425000X-0.362500X1.425000X0.362500X0*%
%TD*%
%TA.AperFunction,ComponentPad*%
%ADD23C,1.700000*%
%TD*%
%TA.AperFunction,ComponentPad*%
%ADD24R,1.700000X1.700000*%
%TD*%
%TA.AperFunction,SMDPad,CuDef*%
%ADD25R,4.500000X1.650000*%
%TD*%
%TA.AperFunction,SMDPad,CuDef*%
%ADD26R,0.900000X0.800000*%
%TD*%
%TA.AperFunction,SMDPad,CuDef*%
%ADD27R,0.800000X0.800000*%
%TD*%
%TA.AperFunction,ViaPad*%
%ADD28C,0.600000*%
%TD*%
%TA.AperFunction,ViaPad*%
%ADD29C,0.500000*%
%TD*%
%TA.AperFunction,Conductor*%
%ADD30C,0.200000*%
%TD*%
%TA.AperFunction,Conductor*%
%ADD31C,0.300000*%
%TD*%
%TA.AperFunction,Conductor*%
%ADD32C,0.600000*%
%TD*%
%TA.AperFunction,Conductor*%
%ADD33C,0.340000*%
%TD*%
G04 APERTURE END LIST*
D10*
%TA.AperFunction,EtchedComponent*%
%TO.C,SJ1*%
G36*
X166750000Y-100950000D02*
G01*
X166250000Y-100950000D01*
X166250000Y-100350000D01*
X166750000Y-100350000D01*
X166750000Y-100950000D01*
G37*
%TD.AperFunction*%
%TA.AperFunction,EtchedComponent*%
%TO.C,SJ2*%
G36*
X171250000Y-100950000D02*
G01*
X170750000Y-100950000D01*
X170750000Y-100350000D01*
X171250000Y-100350000D01*
X171250000Y-100950000D01*
G37*
%TD.AperFunction*%
%TD*%
D11*
%TO.P,C6,1,1_1*%
%TO.N,VREF*%
X165500000Y-110000000D03*
%TO.P,C6,2,2_2*%
%TO.N,GND*%
X164100000Y-110000000D03*
%TD*%
D12*
%TO.P,R5,1,1_1*%
%TO.N,3.3V*%
X164246600Y-94500000D03*
%TO.P,R5,2,2_2*%
%TO.N,Net-(LED1-A)*%
X165753400Y-94500000D03*
%TD*%
D11*
%TO.P,C2,1,1_1*%
%TO.N,VCC*%
X155500000Y-112500000D03*
%TO.P,C2,2,2_2*%
%TO.N,Net-(U1-VCP)*%
X154100000Y-112500000D03*
%TD*%
D13*
%TO.P,R12,1,1_1*%
%TO.N,nCOMPO*%
X155045000Y-98000000D03*
%TO.P,R12,2,2_2*%
%TO.N,3.3V*%
X155045000Y-99506800D03*
%TD*%
D14*
%TO.P,TB_PWR1,1,1_1*%
%TO.N,GND*%
X139500000Y-108500000D03*
D15*
%TO.P,TB_PWR1,2,2_2*%
%TO.N,VCC*%
X139500000Y-113500000D03*
%TD*%
D12*
%TO.P,R9,1,1_1*%
%TO.N,3.3V*%
X163993200Y-107300000D03*
%TO.P,R9,2,2_2*%
%TO.N,VREF*%
X165500000Y-107300000D03*
%TD*%
D16*
%TO.P,SJ1,1,1_1*%
%TO.N,XN*%
X165850000Y-100650000D03*
D17*
%TO.P,SJ1,2,2_2*%
%TO.N,VREF*%
X167150000Y-100650000D03*
%TD*%
D15*
%TO.P,P1,1,Pin_1_1*%
%TO.N,VCC*%
X179000000Y-121000000D03*
%TO.P,P1,2,Pin_2_2*%
%TO.N,M1*%
X179000000Y-116000000D03*
%TO.P,P1,3,Pin_3_3*%
%TO.N,M2*%
X179000000Y-111000000D03*
%TO.P,P1,4,Pin_4_4*%
%TO.N,M3*%
X179000000Y-106000000D03*
D18*
%TO.P,P1,5,Pin_5_5*%
%TO.N,GND*%
X179000000Y-101000000D03*
%TD*%
D19*
%TO.P,U1,1,CP1_1*%
%TO.N,Net-(U1-CP1)*%
X153775000Y-109865900D03*
%TO.P,U1,2,CP2_2*%
%TO.N,Net-(U1-CP2)*%
X154425000Y-109865900D03*
%TO.P,U1,3,VCP_3*%
%TO.N,Net-(U1-VCP)*%
X155074900Y-109865900D03*
%TO.P,U1,4,VM_4*%
%TO.N,VCC*%
X155724900Y-109865900D03*
%TO.P,U1,5,OUT1_5*%
%TO.N,M1*%
X156374900Y-109865900D03*
%TO.P,U1,6,PGND1_6*%
%TO.N,PGND*%
X157024900Y-109865900D03*
%TO.P,U1,7,PGND2_7*%
X157675100Y-109865900D03*
%TO.P,U1,8,OUT2_8*%
%TO.N,M2*%
X158325100Y-109865900D03*
%TO.P,U1,9,OUT3_9*%
%TO.N,M3*%
X158975100Y-109865900D03*
%TO.P,U1,10,PGND3_10*%
%TO.N,PGND*%
X159625100Y-109865900D03*
%TO.P,U1,11,VM_11*%
%TO.N,VCC*%
X160275100Y-109865900D03*
%TO.P,U1,12,COMPP_12*%
%TO.N,PGND*%
X160925100Y-109865900D03*
%TO.P,U1,13,COMPN_13*%
%TO.N,VREF*%
X161575000Y-109865900D03*
%TO.P,U1,14,GND_14*%
%TO.N,GND*%
X162225000Y-109865900D03*
%TO.P,U1,15,V3P3OUT_15*%
%TO.N,3.3V*%
X162225000Y-104134400D03*
%TO.P,U1,16,RESET#_16*%
%TO.N,nRes*%
X161575000Y-104134400D03*
%TO.P,U1,17,SLEEP#_17*%
%TO.N,nSlp*%
X160925100Y-104134400D03*
%TO.P,U1,18,FAULT#_18*%
%TO.N,nFlt*%
X160275100Y-104134400D03*
%TO.P,U1,19,COMPO#_19*%
%TO.N,nCOMPO*%
X159625100Y-104134400D03*
%TO.P,U1,20,GND_20*%
%TO.N,GND*%
X158975100Y-104134400D03*
%TO.P,U1,21,NC_21*%
%TO.N,unconnected-(U1-NC-Pad21)*%
X158325100Y-104134400D03*
%TO.P,U1,22,EN3_22*%
%TO.N,EN3*%
X157675100Y-104134400D03*
%TO.P,U1,23,IN3_23*%
%TO.N,IN3*%
X157024900Y-104134400D03*
%TO.P,U1,24,EN2_24*%
%TO.N,EN2*%
X156374900Y-104134400D03*
%TO.P,U1,25,IN2_25*%
%TO.N,IN2*%
X155724900Y-104134400D03*
%TO.P,U1,26,EN1_26*%
%TO.N,EN1*%
X155074900Y-104134400D03*
%TO.P,U1,27,IN1_27*%
%TO.N,IN1*%
X154425000Y-104134400D03*
%TO.P,U1,28,GND_28*%
%TO.N,GND*%
X153775000Y-104134400D03*
D20*
%TO.P,U1,29*%
X156500100Y-106500100D03*
X156500100Y-107500100D03*
X157500100Y-106500100D03*
X157500100Y-107500100D03*
D21*
%TO.P,U1,29,EP_29*%
X158000000Y-107000000D03*
D20*
%TO.P,U1,29*%
X158500100Y-106500100D03*
X158500100Y-107500100D03*
X159500100Y-106500100D03*
X159500100Y-107500100D03*
%TD*%
D13*
%TO.P,R3,1,1_1*%
%TO.N,3.3V*%
X161545000Y-99506800D03*
%TO.P,R3,2,2_2*%
%TO.N,nRes*%
X161545000Y-98000000D03*
%TD*%
%TO.P,R7,1,1_1*%
%TO.N,EN3H*%
X152000000Y-98000000D03*
%TO.P,R7,2,2_2*%
%TO.N,EN3*%
X152000000Y-99506800D03*
%TD*%
D22*
%TO.P,R8,1,1_1*%
%TO.N,PGND*%
X157000000Y-115537500D03*
%TO.P,R8,2,2_2*%
%TO.N,GND*%
X157000000Y-121462500D03*
%TD*%
D13*
%TO.P,R6,1,1_1*%
%TO.N,EN2H*%
X149000000Y-98000000D03*
%TO.P,R6,2,2_2*%
%TO.N,EN2*%
X149000000Y-99506800D03*
%TD*%
D23*
%TO.P,H1,1,Pin_1_1*%
%TO.N,IN1*%
X145340000Y-91500000D03*
%TO.P,H1,2,Pin_2_2*%
%TO.N,EN1H*%
X145340000Y-94040000D03*
%TO.P,H1,3,Pin_3_3*%
%TO.N,IN2*%
X147880000Y-91500000D03*
%TO.P,H1,4,Pin_4_4*%
%TO.N,EN2H*%
X147880000Y-94040000D03*
%TO.P,H1,5,Pin_5_5*%
%TO.N,IN3*%
X150420000Y-91500000D03*
%TO.P,H1,6,Pin_6_6*%
%TO.N,EN3H*%
X150420000Y-94040000D03*
%TO.P,H1,7,Pin_7_7*%
%TO.N,nFlt*%
X152960000Y-91500000D03*
%TO.P,H1,8,Pin_8_8*%
%TO.N,nCOMPO*%
X152960000Y-94040000D03*
%TO.P,H1,9,Pin_9_9*%
%TO.N,nRes*%
X155500000Y-91500000D03*
%TO.P,H1,10,Pin_10_10*%
%TO.N,nSlp*%
X155500000Y-94040000D03*
%TO.P,H1,11,Pin_11_11*%
%TO.N,VREF*%
X158040000Y-91500000D03*
%TO.P,H1,12,Pin_12_12*%
%TO.N,PGND*%
X158040000Y-94040000D03*
D24*
%TO.P,H1,13,Pin_13_13*%
%TO.N,GND*%
X160580000Y-91500000D03*
D23*
%TO.P,H1,14,Pin_14_14*%
%TO.N,3.3V*%
X160580000Y-94040000D03*
%TD*%
D13*
%TO.P,R2,1,1_1*%
%TO.N,3.3V*%
X159345000Y-99506800D03*
%TO.P,R2,2,2_2*%
%TO.N,nSlp*%
X159345000Y-98000000D03*
%TD*%
D25*
%TO.P,C5,1,1_1*%
%TO.N,VCC*%
X162300000Y-123200000D03*
%TO.P,C5,2,2_2*%
%TO.N,GND*%
X170700000Y-123200000D03*
%TD*%
D26*
%TO.P,C7,1,1_1*%
%TO.N,GND*%
X151500000Y-106000000D03*
%TO.P,C7,2,2_2*%
%TO.N,VCC*%
X151500000Y-107400000D03*
%TD*%
D13*
%TO.P,R1,1,1_1*%
%TO.N,3.3V*%
X157045000Y-99506800D03*
%TO.P,R1,2,2_2*%
%TO.N,nFlt*%
X157045000Y-98000000D03*
%TD*%
%TO.P,R10,1,1_1*%
%TO.N,3.3V*%
X166500000Y-105006800D03*
%TO.P,R10,2,2_2*%
%TO.N,XN*%
X166500000Y-103500000D03*
%TD*%
D11*
%TO.P,C8,1,1_1*%
%TO.N,GND*%
X162000000Y-112500000D03*
%TO.P,C8,2,2_2*%
%TO.N,VCC*%
X160600000Y-112500000D03*
%TD*%
D13*
%TO.P,R11,1,1_1*%
%TO.N,VREF*%
X171000000Y-105006800D03*
%TO.P,R11,2,2_2*%
%TO.N,YN*%
X171000000Y-103500000D03*
%TD*%
%TO.P,R4,1,1_1*%
%TO.N,EN1H*%
X146500000Y-97993200D03*
%TO.P,R4,2,2_2*%
%TO.N,EN1*%
X146500000Y-99500000D03*
%TD*%
D16*
%TO.P,SJ2,1,1_1*%
%TO.N,YN*%
X170350000Y-100650000D03*
D17*
%TO.P,SJ2,2,2_2*%
%TO.N,GND*%
X171650000Y-100650000D03*
%TD*%
D27*
%TO.P,LED1,1,A_1*%
%TO.N,Net-(LED1-A)*%
X165850900Y-92000000D03*
%TO.P,LED1,2,C_2*%
%TO.N,GND*%
X164149100Y-92000000D03*
%TD*%
D26*
%TO.P,C1,1,1_1*%
%TO.N,Net-(U1-CP2)*%
X151500000Y-110900000D03*
%TO.P,C1,2,2_2*%
%TO.N,Net-(U1-CP1)*%
X151500000Y-109500000D03*
%TD*%
%TO.P,C4,1,1_1*%
%TO.N,GND*%
X164000000Y-102000000D03*
%TO.P,C4,2,2_2*%
%TO.N,3.3V*%
X164000000Y-103400000D03*
%TD*%
D25*
%TO.P,C3,1,1_1*%
%TO.N,VCC*%
X151500000Y-123200000D03*
%TO.P,C3,2,2_2*%
%TO.N,GND*%
X143100000Y-123200000D03*
%TD*%
D28*
%TO.N,GND*%
X137000000Y-109000000D03*
X164000000Y-102000000D03*
X149000000Y-127000000D03*
X143000000Y-103000000D03*
X167000000Y-127000000D03*
X137000000Y-127000000D03*
X151500000Y-106000000D03*
X173000000Y-91000000D03*
X143000000Y-109000000D03*
X158000000Y-118000000D03*
X143000000Y-91000000D03*
X137000000Y-103000000D03*
X155500000Y-107500000D03*
D29*
X162225000Y-109200000D03*
D28*
X155000000Y-133000000D03*
X137000000Y-115000000D03*
X173000000Y-103000000D03*
X179000000Y-127000000D03*
X173000000Y-115000000D03*
X167000000Y-109000000D03*
X179000000Y-97000000D03*
X171650000Y-100650000D03*
X160500000Y-106500000D03*
X143100000Y-123200000D03*
X157000000Y-121462500D03*
D29*
X153775000Y-104900000D03*
D28*
X144100000Y-123200000D03*
X173000000Y-127000000D03*
X161000000Y-133000000D03*
D29*
X159000000Y-104900000D03*
D28*
X162000000Y-112500000D03*
X164149100Y-92000000D03*
X149000000Y-133000000D03*
X173000000Y-109000000D03*
X149000000Y-109000000D03*
X167000000Y-97000000D03*
X167000000Y-91000000D03*
X170700000Y-123200000D03*
X167000000Y-115000000D03*
X155000000Y-127000000D03*
X171700000Y-123200000D03*
X155500000Y-106500000D03*
X143000000Y-97000000D03*
X143000000Y-133000000D03*
X173000000Y-97000000D03*
X161000000Y-127000000D03*
X143000000Y-127000000D03*
X160500000Y-107500000D03*
X149000000Y-121000000D03*
X142100000Y-123200000D03*
X143000000Y-115000000D03*
X173000000Y-133000000D03*
X149000000Y-115000000D03*
X167000000Y-133000000D03*
X137000000Y-121000000D03*
X169700000Y-123200000D03*
X137000000Y-97000000D03*
X164100000Y-110000000D03*
%TO.N,3.3V*%
X155045000Y-99506800D03*
D29*
X162225000Y-104134400D03*
D28*
X161545000Y-99506800D03*
X157045000Y-99506800D03*
X159345000Y-99506800D03*
D29*
%TO.N,M1*%
X156374900Y-109865900D03*
%TO.N,M2*%
X158325100Y-109865900D03*
%TO.N,M3*%
X158975100Y-110365900D03*
D28*
%TO.N,PGND*%
X157000000Y-115537500D03*
%TD*%
%TO.N,VREF*%
D30*
X161575000Y-109865900D02*
X161575000Y-108800150D01*
X166500000Y-98500000D02*
X167150000Y-99150000D01*
X167150000Y-99150000D02*
X167150000Y-100650000D01*
X167150000Y-100650000D02*
X167150000Y-101156800D01*
X161575000Y-108800150D02*
X161875150Y-108500000D01*
X161575000Y-109865900D02*
X161600000Y-109850000D01*
X158040000Y-91500000D02*
X159430000Y-92890000D01*
X168706800Y-107300000D02*
X171000000Y-105006800D01*
X159430000Y-94516346D02*
X163413654Y-98500000D01*
X161875150Y-108500000D02*
X165500000Y-108500000D01*
X167150000Y-101156800D02*
X171000000Y-105006800D01*
X163413654Y-98500000D02*
X166500000Y-98500000D01*
X159430000Y-92890000D02*
X159430000Y-94516346D01*
X165500000Y-108500000D02*
X165500000Y-110000000D01*
X168706800Y-107300000D02*
X165500000Y-107300000D01*
X165500000Y-108500000D02*
X165500000Y-107300000D01*
%TO.N,GND*%
X162225000Y-112275000D02*
X162000000Y-112500000D01*
D31*
X153775000Y-104134400D02*
X153775000Y-104884400D01*
%TO.N,3.3V*%
D30*
X163996600Y-107296600D02*
X163996600Y-105906000D01*
X165506800Y-105006800D02*
X164193200Y-103693200D01*
X161040000Y-94500000D02*
X160580000Y-94040000D01*
X166500000Y-105006800D02*
X165506800Y-105006800D01*
X163165600Y-104134400D02*
X162225000Y-104134400D01*
X164193200Y-103693200D02*
X163993200Y-103693200D01*
X162200000Y-104150000D02*
X162225000Y-104134400D01*
X163993200Y-94500000D02*
X161040000Y-94500000D01*
X163800000Y-103500000D02*
X163165600Y-104134400D01*
X163993200Y-103693200D02*
X163800000Y-103500000D01*
X163996600Y-105906000D02*
X162225000Y-104134400D01*
X163993200Y-107300000D02*
X163996600Y-107296600D01*
%TO.N,Net-(LED1-A)*%
X165850900Y-94402500D02*
X165753400Y-94500000D01*
X165850900Y-92000000D02*
X165850900Y-94402500D01*
%TO.N,VCC*%
D32*
X155500000Y-112500000D02*
X151500000Y-116500000D01*
X149200000Y-123200000D02*
X151500000Y-123200000D01*
D30*
X155700000Y-109850000D02*
X155724900Y-109865900D01*
D32*
X161000000Y-112900000D02*
X161000000Y-121900000D01*
X161000000Y-121900000D02*
X162300000Y-123200000D01*
D33*
X160275100Y-112175100D02*
X160275100Y-109865900D01*
X160600000Y-112500000D02*
X160275100Y-112175100D01*
D32*
X164500000Y-121000000D02*
X179000000Y-121000000D01*
X151500000Y-116500000D02*
X151500000Y-123200000D01*
D30*
X155624900Y-108700150D02*
X155724900Y-108800150D01*
D33*
X155724900Y-109865900D02*
X155724900Y-112275100D01*
D30*
X155724900Y-112275100D02*
X155500000Y-112500000D01*
D32*
X162300000Y-123200000D02*
X164500000Y-121000000D01*
D30*
X160600000Y-112500000D02*
X161000000Y-112900000D01*
X160275100Y-109865900D02*
X160300000Y-109850000D01*
D32*
X151500000Y-123200000D02*
X162300000Y-123200000D01*
X139500000Y-113500000D02*
X149200000Y-123200000D01*
X151500000Y-107400000D02*
X152800150Y-108700150D01*
D30*
X155724900Y-108800150D02*
X155724900Y-109865900D01*
X152800150Y-108700150D02*
X155624900Y-108700150D01*
%TO.N,Net-(U1-VCP)*%
X155050000Y-109850000D02*
X155074900Y-109865900D01*
X154100000Y-111662550D02*
X154100000Y-112500000D01*
X155050000Y-109100000D02*
X155050000Y-109850000D01*
X155074900Y-109865900D02*
X155074900Y-110687650D01*
X155074900Y-110687650D02*
X154100000Y-111662550D01*
%TO.N,nCOMPO*%
X159650000Y-104150000D02*
X159625100Y-104134400D01*
X156045000Y-100545000D02*
X156045000Y-99000000D01*
X158000000Y-102500000D02*
X156045000Y-100545000D01*
X159000000Y-102500000D02*
X158000000Y-102500000D01*
X159625100Y-104134400D02*
X159625100Y-103125100D01*
X156045000Y-99000000D02*
X155045000Y-98000000D01*
X159625100Y-103125100D02*
X159000000Y-102500000D01*
X152960000Y-95915000D02*
X152960000Y-94040000D01*
X155045000Y-98000000D02*
X152960000Y-95915000D01*
%TO.N,XN*%
X165850000Y-102850000D02*
X166500000Y-103500000D01*
X165850000Y-100650000D02*
X165850000Y-102850000D01*
%TO.N,M1*%
X156350000Y-110600000D02*
X156350000Y-109850000D01*
X156350000Y-109850000D02*
X156374900Y-109865900D01*
%TO.N,M3*%
X178850000Y-106000000D02*
X179000000Y-106000000D01*
%TO.N,Net-(U1-CP1)*%
X151500000Y-109500000D02*
X153409100Y-109500000D01*
X153775000Y-109865900D02*
X153800000Y-109850000D01*
X153409100Y-109500000D02*
X153775000Y-109865900D01*
%TO.N,Net-(U1-CP2)*%
X154425000Y-109865900D02*
X154425000Y-110576952D01*
X153970302Y-111031650D02*
X151631650Y-111031650D01*
X154425000Y-110576952D02*
X153970302Y-111031650D01*
X154425000Y-109865900D02*
X154400000Y-109850000D01*
%TO.N,PGND*%
X157675100Y-108800150D02*
X157800250Y-108675000D01*
X159725050Y-108700150D02*
X160825100Y-108700150D01*
X157675100Y-115212600D02*
X158000000Y-115537500D01*
X159700000Y-109900000D02*
X159650000Y-109850000D01*
X157800250Y-108675000D02*
X159500000Y-108675000D01*
X160925100Y-109865900D02*
X160950000Y-109850000D01*
X157675100Y-109865900D02*
X157675100Y-115212600D01*
X157675100Y-109865900D02*
X157675100Y-108800150D01*
X160950000Y-109850000D02*
X160900000Y-109900000D01*
X159625100Y-108800100D02*
X159625100Y-109865900D01*
X160925100Y-108800150D02*
X160925100Y-109865900D01*
X159500000Y-108675000D02*
X159625100Y-108800100D01*
X157024900Y-109865900D02*
X157675100Y-109865900D01*
X159650000Y-109850000D02*
X159625100Y-109865900D01*
X160825100Y-108700150D02*
X160925100Y-108800150D01*
X160925100Y-109865900D02*
X160950000Y-109850000D01*
X159625100Y-108800100D02*
X159725050Y-108700150D01*
X157000000Y-109850000D02*
X157024900Y-109865900D01*
%TO.N,nRes*%
X161545000Y-98000000D02*
X162545000Y-99000000D01*
X161600000Y-104150000D02*
X161575000Y-104134400D01*
X159430404Y-97296750D02*
X156650000Y-94516346D01*
X162545000Y-101605000D02*
X161575000Y-102575000D01*
X161575000Y-102575000D02*
X161575000Y-104134400D01*
X156650000Y-94516346D02*
X156650000Y-92650000D01*
X156650000Y-92650000D02*
X155500000Y-91500000D01*
X161545000Y-98000000D02*
X160841750Y-97296750D01*
X160841750Y-97296750D02*
X159430404Y-97296750D01*
X162545000Y-99000000D02*
X162545000Y-101605000D01*
%TO.N,nSlp*%
X155500000Y-95000000D02*
X155500000Y-94040000D01*
X160925100Y-104134400D02*
X160950000Y-104150000D01*
X158500000Y-98000000D02*
X155500000Y-95000000D01*
X159345000Y-98000000D02*
X160500000Y-99155000D01*
X160925100Y-101474375D02*
X160925100Y-104134400D01*
X160500000Y-101049275D02*
X160925100Y-101474375D01*
X160500000Y-99155000D02*
X160500000Y-101049275D01*
X159345000Y-98000000D02*
X158500000Y-98000000D01*
%TO.N,nFlt*%
X157045000Y-98000000D02*
X154110000Y-95065000D01*
X152960000Y-91500000D02*
X154110000Y-92650000D01*
X158045000Y-100045000D02*
X158045000Y-99000000D01*
X154110000Y-92650000D02*
X154110000Y-95065000D01*
X160300000Y-104150000D02*
X160275100Y-104134400D01*
X160275100Y-102275100D02*
X158045000Y-100045000D01*
X160275100Y-104134400D02*
X160275100Y-102275100D01*
X158045000Y-99000000D02*
X157045000Y-98000000D01*
%TO.N,EN3*%
X153758352Y-99506800D02*
X152000000Y-99506800D01*
X157675100Y-103423548D02*
X153758352Y-99506800D01*
X157675100Y-104134400D02*
X157700000Y-104150000D01*
X157675100Y-104134400D02*
X157675100Y-103423548D01*
%TO.N,IN3*%
X157024900Y-104134400D02*
X157000000Y-104150000D01*
X150500000Y-100000000D02*
X151000000Y-100500000D01*
X149270000Y-95466750D02*
X150500000Y-96696750D01*
X150500000Y-96696750D02*
X150500000Y-100000000D01*
X149270000Y-92650000D02*
X149270000Y-95466750D01*
X157024900Y-103423348D02*
X157024900Y-104134400D01*
X151000000Y-100500000D02*
X154101552Y-100500000D01*
X154101552Y-100500000D02*
X157024900Y-103423348D01*
X150420000Y-91500000D02*
X149270000Y-92650000D01*
%TO.N,EN2*%
X153951552Y-101000000D02*
X150434315Y-101000000D01*
X156374900Y-104134400D02*
X156350000Y-104150000D01*
X149200000Y-99765685D02*
X149200000Y-99500000D01*
X156374900Y-104134400D02*
X156374900Y-103423348D01*
X156374900Y-103423348D02*
X153951552Y-101000000D01*
X150434315Y-101000000D02*
X149200000Y-99765685D01*
%TO.N,IN2*%
X155724900Y-104134400D02*
X155700000Y-104150000D01*
X148000000Y-100500000D02*
X149000000Y-101500000D01*
X149000000Y-101500000D02*
X153801552Y-101500000D01*
X147880000Y-91500000D02*
X146730000Y-92650000D01*
X146730000Y-92650000D02*
X146730000Y-96787950D01*
X146730000Y-96787950D02*
X148000000Y-98057950D01*
X148000000Y-98057950D02*
X148000000Y-100500000D01*
X153801552Y-101500000D02*
X155724900Y-103423348D01*
X155724900Y-103423348D02*
X155724900Y-104134400D01*
%TO.N,EN1*%
X146500000Y-100103250D02*
X146500000Y-99500000D01*
X148396750Y-102000000D02*
X146500000Y-100103250D01*
X155074900Y-103423248D02*
X153651652Y-102000000D01*
X153651652Y-102000000D02*
X148396750Y-102000000D01*
X155074900Y-104134400D02*
X155050000Y-104150000D01*
X155074900Y-104134400D02*
X155074900Y-103423248D01*
%TO.N,IN1*%
X144190000Y-92650000D02*
X145340000Y-91500000D01*
X144190000Y-98625250D02*
X144190000Y-92650000D01*
X153501652Y-102500000D02*
X148064750Y-102500000D01*
X154425000Y-103423348D02*
X153501652Y-102500000D01*
X154425000Y-104134400D02*
X154425000Y-103423348D01*
X154425000Y-104134400D02*
X154400000Y-104150000D01*
X148064750Y-102500000D02*
X144190000Y-98625250D01*
%TO.N,EN3H*%
X152000000Y-95620000D02*
X150420000Y-94040000D01*
X152000000Y-98000000D02*
X152000000Y-95620000D01*
%TO.N,EN2H*%
X148500000Y-97500000D02*
X149000000Y-98000000D01*
X147200000Y-94720000D02*
X147880000Y-94040000D01*
X147880000Y-94040000D02*
X148500000Y-94660000D01*
X148500000Y-94660000D02*
X148500000Y-97500000D01*
%TO.N,EN1H*%
X145340000Y-96833200D02*
X146500000Y-97993200D01*
X145340000Y-94040000D02*
X145340000Y-96833200D01*
%TO.N,YN*%
X170350000Y-102850000D02*
X171000000Y-103500000D01*
X170350000Y-100650000D02*
X170350000Y-102850000D01*
%TD*%
%TA.AperFunction,Conductor*%
%TO.N,GND*%
G36*
X156828878Y-111206324D02*
G01*
X156828882Y-111206325D01*
X156828885Y-111206326D01*
X156880816Y-111216655D01*
X156958711Y-111232150D01*
X156958714Y-111232150D01*
X157010600Y-111232150D01*
X157055855Y-111250895D01*
X157074600Y-111296150D01*
X157074600Y-114360500D01*
X157055855Y-114405755D01*
X157010600Y-114424500D01*
X155524997Y-114424500D01*
X155524996Y-114424500D01*
X155524992Y-114424501D01*
X155466255Y-114430501D01*
X155422200Y-114435001D01*
X155255670Y-114490184D01*
X155255667Y-114490185D01*
X155106344Y-114582287D01*
X155106344Y-114582288D01*
X154982288Y-114706344D01*
X154982287Y-114706344D01*
X154890185Y-114855667D01*
X154890184Y-114855670D01*
X154835003Y-115022192D01*
X154835002Y-115022198D01*
X154835001Y-115022200D01*
X154835001Y-115022203D01*
X154824500Y-115124991D01*
X154824500Y-115124992D01*
X154824500Y-115124996D01*
X154824500Y-115950002D01*
X154824501Y-115950008D01*
X154828557Y-115989711D01*
X154835001Y-116052799D01*
X154858784Y-116124570D01*
X154890186Y-116219334D01*
X154982288Y-116368656D01*
X155106344Y-116492712D01*
X155255666Y-116584814D01*
X155311514Y-116603320D01*
X155422192Y-116639996D01*
X155422195Y-116639996D01*
X155422203Y-116639999D01*
X155524991Y-116650500D01*
X158475008Y-116650499D01*
X158577797Y-116639999D01*
X158744334Y-116584814D01*
X158893656Y-116492712D01*
X159017712Y-116368656D01*
X159109814Y-116219334D01*
X159164999Y-116052797D01*
X159175500Y-115950009D01*
X159175499Y-115124992D01*
X159164999Y-115022203D01*
X159109814Y-114855666D01*
X159017712Y-114706344D01*
X158893656Y-114582288D01*
X158893655Y-114582287D01*
X158744332Y-114490185D01*
X158744329Y-114490184D01*
X158577807Y-114435003D01*
X158577801Y-114435002D01*
X158577799Y-114435001D01*
X158577797Y-114435001D01*
X158475009Y-114424500D01*
X158475003Y-114424500D01*
X158339600Y-114424500D01*
X158294345Y-114405755D01*
X158275600Y-114360500D01*
X158275600Y-111296150D01*
X158294345Y-111250895D01*
X158339600Y-111232150D01*
X158391289Y-111232150D01*
X158456200Y-111219238D01*
X158521115Y-111206326D01*
X158521118Y-111206324D01*
X158521121Y-111206324D01*
X158625608Y-111163044D01*
X158674592Y-111163044D01*
X158779078Y-111206324D01*
X158779082Y-111206325D01*
X158779085Y-111206326D01*
X158831016Y-111216655D01*
X158908911Y-111232150D01*
X158908914Y-111232150D01*
X159041289Y-111232150D01*
X159106200Y-111219238D01*
X159171115Y-111206326D01*
X159171118Y-111206324D01*
X159171121Y-111206324D01*
X159275608Y-111163044D01*
X159324592Y-111163044D01*
X159429078Y-111206324D01*
X159429082Y-111206325D01*
X159429085Y-111206326D01*
X159507084Y-111221840D01*
X159553086Y-111230991D01*
X159593814Y-111258204D01*
X159604600Y-111293761D01*
X159604600Y-112241140D01*
X159626154Y-112349501D01*
X159630365Y-112370673D01*
X159630366Y-112370675D01*
X159680907Y-112492695D01*
X159680910Y-112492701D01*
X159688713Y-112504379D01*
X159699500Y-112539936D01*
X159699500Y-112997869D01*
X159699501Y-112997887D01*
X159705908Y-113057478D01*
X159705909Y-113057483D01*
X159756204Y-113192331D01*
X159756205Y-113192332D01*
X159756206Y-113192335D01*
X159842451Y-113307542D01*
X159842454Y-113307546D01*
X159842457Y-113307548D01*
X159957664Y-113393793D01*
X159957663Y-113393793D01*
X159957666Y-113393794D01*
X159957669Y-113393796D01*
X160092517Y-113444091D01*
X160111817Y-113446166D01*
X160142342Y-113449448D01*
X160185333Y-113472923D01*
X160199500Y-113513081D01*
X160199500Y-121810500D01*
X160180755Y-121855755D01*
X160135500Y-121874500D01*
X160002129Y-121874500D01*
X160002112Y-121874501D01*
X159942521Y-121880908D01*
X159942518Y-121880908D01*
X159942517Y-121880909D01*
X159807669Y-121931204D01*
X159807664Y-121931206D01*
X159692457Y-122017451D01*
X159692451Y-122017457D01*
X159606206Y-122132664D01*
X159555908Y-122267518D01*
X159549500Y-122327113D01*
X159549500Y-122335500D01*
X159530755Y-122380755D01*
X159485500Y-122399500D01*
X154314499Y-122399500D01*
X154269244Y-122380755D01*
X154250499Y-122335500D01*
X154250499Y-122327130D01*
X154250498Y-122327112D01*
X154244091Y-122267521D01*
X154244091Y-122267517D01*
X154193796Y-122132669D01*
X154193793Y-122132665D01*
X154193793Y-122132664D01*
X154107548Y-122017457D01*
X154107546Y-122017454D01*
X154107542Y-122017451D01*
X153992335Y-121931206D01*
X153992336Y-121931206D01*
X153989987Y-121930330D01*
X153913286Y-121901722D01*
X153857481Y-121880908D01*
X153797886Y-121874500D01*
X153797873Y-121874500D01*
X152364500Y-121874500D01*
X152319245Y-121855755D01*
X152300500Y-121810500D01*
X152300500Y-116858087D01*
X152319244Y-116812833D01*
X155662833Y-113469243D01*
X155708088Y-113450499D01*
X155947870Y-113450499D01*
X155947872Y-113450499D01*
X155947874Y-113450498D01*
X155947887Y-113450498D01*
X155979624Y-113447085D01*
X156007483Y-113444091D01*
X156142331Y-113393796D01*
X156257546Y-113307546D01*
X156343796Y-113192331D01*
X156394091Y-113057483D01*
X156396339Y-113036566D01*
X156400499Y-112997886D01*
X156400499Y-112997882D01*
X156400500Y-112997873D01*
X156400499Y-112002128D01*
X156400498Y-112002125D01*
X156400498Y-112002112D01*
X156395767Y-111958108D01*
X156395400Y-111951267D01*
X156395400Y-111293761D01*
X156414145Y-111248506D01*
X156446914Y-111230991D01*
X156481908Y-111224030D01*
X156570915Y-111206326D01*
X156570918Y-111206324D01*
X156570921Y-111206324D01*
X156675408Y-111163044D01*
X156724392Y-111163044D01*
X156828878Y-111206324D01*
G37*
%TD.AperFunction*%
%TA.AperFunction,Conductor*%
G36*
X163226062Y-99071418D02*
G01*
X163254584Y-99079061D01*
X163334592Y-99100500D01*
X163334594Y-99100500D01*
X163334597Y-99100501D01*
X163334600Y-99100501D01*
X163496629Y-99100501D01*
X163496645Y-99100500D01*
X166224755Y-99100500D01*
X166270010Y-99119245D01*
X166442084Y-99291319D01*
X166460829Y-99336574D01*
X166442084Y-99381829D01*
X166396829Y-99400574D01*
X166387722Y-99399923D01*
X166350000Y-99394500D01*
X165784174Y-99394500D01*
X165784168Y-99394500D01*
X165653350Y-99411722D01*
X165653337Y-99411725D01*
X165526170Y-99445799D01*
X165404258Y-99496298D01*
X165290241Y-99562125D01*
X165290236Y-99562129D01*
X165185561Y-99642450D01*
X165185551Y-99642459D01*
X165092459Y-99735551D01*
X165092450Y-99735561D01*
X165012129Y-99840236D01*
X165012125Y-99840241D01*
X164946298Y-99954258D01*
X164895799Y-100076170D01*
X164861725Y-100203337D01*
X164861722Y-100203350D01*
X164844500Y-100334168D01*
X164844500Y-100965831D01*
X164861722Y-101096649D01*
X164861725Y-101096662D01*
X164895799Y-101223829D01*
X164946298Y-101345741D01*
X165012125Y-101459758D01*
X165012129Y-101459763D01*
X165092450Y-101564438D01*
X165092453Y-101564442D01*
X165092459Y-101564449D01*
X165185551Y-101657541D01*
X165224461Y-101687398D01*
X165248952Y-101729818D01*
X165249500Y-101738172D01*
X165249500Y-102767009D01*
X165249499Y-102767027D01*
X165249499Y-102929061D01*
X165281601Y-103048862D01*
X165290423Y-103081785D01*
X165301229Y-103100501D01*
X165369481Y-103218717D01*
X165484929Y-103334165D01*
X165484935Y-103334170D01*
X165548755Y-103397990D01*
X165567500Y-103443245D01*
X165567500Y-103951119D01*
X165567501Y-103951137D01*
X165573908Y-104010728D01*
X165573910Y-104010737D01*
X165598357Y-104076282D01*
X165596608Y-104125234D01*
X165560757Y-104158612D01*
X165511805Y-104156863D01*
X165493137Y-104143902D01*
X164969244Y-103620009D01*
X164950499Y-103574754D01*
X164950499Y-102952130D01*
X164950498Y-102952112D01*
X164944091Y-102892521D01*
X164944091Y-102892517D01*
X164893796Y-102757669D01*
X164893793Y-102757665D01*
X164893793Y-102757664D01*
X164807548Y-102642457D01*
X164807546Y-102642454D01*
X164754387Y-102602659D01*
X164692335Y-102556206D01*
X164692336Y-102556206D01*
X164557481Y-102505908D01*
X164497879Y-102499500D01*
X163502130Y-102499500D01*
X163502112Y-102499501D01*
X163442521Y-102505908D01*
X163442518Y-102505908D01*
X163442517Y-102505909D01*
X163307669Y-102556204D01*
X163307664Y-102556206D01*
X163192457Y-102642451D01*
X163192451Y-102642457D01*
X163106206Y-102757664D01*
X163055908Y-102892518D01*
X163049500Y-102952113D01*
X163049500Y-103374754D01*
X163030755Y-103420009D01*
X163006255Y-103444509D01*
X162961000Y-103463254D01*
X162915745Y-103444509D01*
X162897000Y-103399254D01*
X162897000Y-103373961D01*
X162871176Y-103244137D01*
X162871174Y-103244128D01*
X162820520Y-103121840D01*
X162793756Y-103081785D01*
X162746977Y-103011775D01*
X162653375Y-102918173D01*
X162543312Y-102844631D01*
X162543311Y-102844630D01*
X162543309Y-102844629D01*
X162421021Y-102793975D01*
X162421012Y-102793973D01*
X162358491Y-102781537D01*
X162317763Y-102754324D01*
X162308207Y-102706281D01*
X162325721Y-102673513D01*
X162908446Y-102090787D01*
X162908451Y-102090784D01*
X162913714Y-102085520D01*
X162913716Y-102085520D01*
X163025520Y-101973716D01*
X163100936Y-101843091D01*
X163104577Y-101836785D01*
X163145500Y-101684057D01*
X163145500Y-101525943D01*
X163145500Y-99133238D01*
X163148809Y-99125247D01*
X163147681Y-99116673D01*
X163157851Y-99103419D01*
X163164245Y-99087983D01*
X163172236Y-99084672D01*
X163177501Y-99077812D01*
X163194064Y-99075631D01*
X163209500Y-99069238D01*
X163226062Y-99071418D01*
G37*
%TD.AperFunction*%
%TA.AperFunction,Conductor*%
G36*
X180418745Y-88618745D02*
G01*
X183381255Y-91581255D01*
X183400000Y-91626510D01*
X183400000Y-134373490D01*
X183381255Y-134418745D01*
X180418745Y-137381255D01*
X180373490Y-137400000D01*
X137626510Y-137400000D01*
X137581255Y-137381255D01*
X134618745Y-134418745D01*
X134600000Y-134373490D01*
X134600000Y-133878705D01*
X136149500Y-133878705D01*
X136149500Y-134121294D01*
X136181160Y-134361783D01*
X136181163Y-134361797D01*
X136243945Y-134596100D01*
X136336773Y-134820207D01*
X136458065Y-135030291D01*
X136531899Y-135126513D01*
X136605735Y-135222738D01*
X136777262Y-135394265D01*
X136915360Y-135500231D01*
X136933628Y-135514249D01*
X136969711Y-135541936D01*
X137179788Y-135663224D01*
X137179789Y-135663224D01*
X137179792Y-135663226D01*
X137403899Y-135756054D01*
X137638202Y-135818836D01*
X137638216Y-135818839D01*
X137833806Y-135844588D01*
X137878712Y-135850500D01*
X138121288Y-135850500D01*
X138241538Y-135834669D01*
X138361783Y-135818839D01*
X138361785Y-135818838D01*
X138361789Y-135818838D01*
X138361794Y-135818836D01*
X138361797Y-135818836D01*
X138596100Y-135756054D01*
X138820207Y-135663226D01*
X138820206Y-135663226D01*
X138820212Y-135663224D01*
X139030289Y-135541936D01*
X139222738Y-135394265D01*
X139394265Y-135222738D01*
X139541936Y-135030289D01*
X139663224Y-134820212D01*
X139756054Y-134596100D01*
X139818838Y-134361789D01*
X139850500Y-134121288D01*
X139850500Y-133878712D01*
X139850499Y-133878705D01*
X178149500Y-133878705D01*
X178149500Y-134121294D01*
X178181160Y-134361783D01*
X178181163Y-134361797D01*
X178243945Y-134596100D01*
X178336773Y-134820207D01*
X178458065Y-135030291D01*
X178531899Y-135126513D01*
X178605735Y-135222738D01*
X178777262Y-135394265D01*
X178915360Y-135500231D01*
X178933628Y-135514249D01*
X178969711Y-135541936D01*
X179179788Y-135663224D01*
X179179789Y-135663224D01*
X179179792Y-135663226D01*
X179403899Y-135756054D01*
X179638202Y-135818836D01*
X179638216Y-135818839D01*
X179833806Y-135844588D01*
X179878712Y-135850500D01*
X180121288Y-135850500D01*
X180241538Y-135834669D01*
X180361783Y-135818839D01*
X180361785Y-135818838D01*
X180361789Y-135818838D01*
X180361794Y-135818836D01*
X180361797Y-135818836D01*
X180596100Y-135756054D01*
X180820207Y-135663226D01*
X180820206Y-135663226D01*
X180820212Y-135663224D01*
X181030289Y-135541936D01*
X181222738Y-135394265D01*
X181394265Y-135222738D01*
X181541936Y-135030289D01*
X181663224Y-134820212D01*
X181756054Y-134596100D01*
X181818838Y-134361789D01*
X181850500Y-134121288D01*
X181850500Y-133878712D01*
X181818838Y-133638211D01*
X181756054Y-133403900D01*
X181663224Y-133179788D01*
X181541936Y-132969711D01*
X181394265Y-132777262D01*
X181222738Y-132605735D01*
X181126513Y-132531899D01*
X181030291Y-132458065D01*
X180820207Y-132336773D01*
X180596100Y-132243945D01*
X180361797Y-132181163D01*
X180361783Y-132181160D01*
X180121294Y-132149500D01*
X180121288Y-132149500D01*
X179878712Y-132149500D01*
X179878705Y-132149500D01*
X179638216Y-132181160D01*
X179638202Y-132181163D01*
X179403899Y-132243945D01*
X179179792Y-132336773D01*
X178969708Y-132458065D01*
X178777263Y-132605734D01*
X178605734Y-132777263D01*
X178458065Y-132969708D01*
X178336773Y-133179792D01*
X178243945Y-133403899D01*
X178181163Y-133638202D01*
X178181160Y-133638216D01*
X178149500Y-133878705D01*
X139850499Y-133878705D01*
X139818838Y-133638211D01*
X139756054Y-133403900D01*
X139663224Y-133179788D01*
X139541936Y-132969711D01*
X139394265Y-132777262D01*
X139222738Y-132605735D01*
X139126513Y-132531899D01*
X139030291Y-132458065D01*
X138820207Y-132336773D01*
X138596100Y-132243945D01*
X138361797Y-132181163D01*
X138361783Y-132181160D01*
X138121294Y-132149500D01*
X138121288Y-132149500D01*
X137878712Y-132149500D01*
X137878705Y-132149500D01*
X137638216Y-132181160D01*
X137638202Y-132181163D01*
X137403899Y-132243945D01*
X137179792Y-132336773D01*
X136969708Y-132458065D01*
X136777263Y-132605734D01*
X136605734Y-132777263D01*
X136458065Y-132969708D01*
X136336773Y-133179792D01*
X136243945Y-133403899D01*
X136181163Y-133638202D01*
X136181160Y-133638216D01*
X136149500Y-133878705D01*
X134600000Y-133878705D01*
X134600000Y-113375429D01*
X137599500Y-113375429D01*
X137599500Y-113624570D01*
X137632016Y-113871559D01*
X137632019Y-113871573D01*
X137696497Y-114112207D01*
X137791831Y-114342364D01*
X137791835Y-114342371D01*
X137791836Y-114342373D01*
X137916401Y-114558127D01*
X138068062Y-114755776D01*
X138244224Y-114931938D01*
X138441873Y-115083599D01*
X138657627Y-115208164D01*
X138657630Y-115208165D01*
X138657635Y-115208168D01*
X138887792Y-115303502D01*
X139128426Y-115367980D01*
X139128440Y-115367983D01*
X139278908Y-115387792D01*
X139375435Y-115400500D01*
X139624565Y-115400500D01*
X139777526Y-115380362D01*
X139871559Y-115367983D01*
X139871561Y-115367982D01*
X139871565Y-115367982D01*
X139871570Y-115367980D01*
X139871573Y-115367980D01*
X139922426Y-115354353D01*
X140112207Y-115303502D01*
X140114568Y-115302524D01*
X140163551Y-115302521D01*
X140184318Y-115316396D01*
X148689711Y-123821789D01*
X148721056Y-123842733D01*
X148748270Y-123883461D01*
X148749500Y-123895947D01*
X148749500Y-124072870D01*
X148749501Y-124072887D01*
X148755908Y-124132478D01*
X148755909Y-124132483D01*
X148806204Y-124267331D01*
X148806205Y-124267332D01*
X148806206Y-124267335D01*
X148892451Y-124382542D01*
X148892454Y-124382546D01*
X148892457Y-124382548D01*
X149007664Y-124468793D01*
X149007663Y-124468793D01*
X149007666Y-124468794D01*
X149007669Y-124468796D01*
X149142517Y-124519091D01*
X149202127Y-124525500D01*
X153797872Y-124525499D01*
X153797875Y-124525498D01*
X153797887Y-124525498D01*
X153829624Y-124522085D01*
X153857483Y-124519091D01*
X153992331Y-124468796D01*
X154107546Y-124382546D01*
X154193796Y-124267331D01*
X154244091Y-124132483D01*
X154246339Y-124111566D01*
X154250499Y-124072886D01*
X154250500Y-124072872D01*
X154250500Y-124064500D01*
X154269245Y-124019245D01*
X154314500Y-124000500D01*
X159485501Y-124000500D01*
X159530756Y-124019245D01*
X159549501Y-124064500D01*
X159549501Y-124072887D01*
X159555908Y-124132478D01*
X159555909Y-124132483D01*
X159606204Y-124267331D01*
X159606205Y-124267332D01*
X159606206Y-124267335D01*
X159692451Y-124382542D01*
X159692454Y-124382546D01*
X159692457Y-124382548D01*
X159807664Y-124468793D01*
X159807663Y-124468793D01*
X159807666Y-124468794D01*
X159807669Y-124468796D01*
X159942517Y-124519091D01*
X160002127Y-124525500D01*
X164597872Y-124525499D01*
X164597875Y-124525498D01*
X164597887Y-124525498D01*
X164629624Y-124522085D01*
X164657483Y-124519091D01*
X164792331Y-124468796D01*
X164907546Y-124382546D01*
X164993796Y-124267331D01*
X165044091Y-124132483D01*
X165046339Y-124111566D01*
X165050499Y-124072886D01*
X165050499Y-124072882D01*
X165050500Y-124072873D01*
X165050499Y-122327128D01*
X165050498Y-122327125D01*
X165050498Y-122327112D01*
X165044091Y-122267521D01*
X165044091Y-122267517D01*
X164993796Y-122132669D01*
X164993793Y-122132665D01*
X164993793Y-122132664D01*
X164907548Y-122017457D01*
X164907546Y-122017454D01*
X164851562Y-121975545D01*
X164799154Y-121936311D01*
X164796698Y-121932171D01*
X164792252Y-121930330D01*
X164784499Y-121911610D01*
X164774160Y-121894184D01*
X164775350Y-121889520D01*
X164773509Y-121885074D01*
X164781263Y-121866355D01*
X164786275Y-121846722D01*
X164792245Y-121839832D01*
X164812835Y-121819243D01*
X164816551Y-121817704D01*
X164858088Y-121800500D01*
X177231728Y-121800500D01*
X177276983Y-121819245D01*
X177290857Y-121840010D01*
X177291832Y-121842365D01*
X177291834Y-121842369D01*
X177291836Y-121842373D01*
X177416401Y-122058127D01*
X177568062Y-122255776D01*
X177744224Y-122431938D01*
X177941873Y-122583599D01*
X178157627Y-122708164D01*
X178157630Y-122708165D01*
X178157635Y-122708168D01*
X178387792Y-122803502D01*
X178628426Y-122867980D01*
X178628440Y-122867983D01*
X178781396Y-122888119D01*
X178875435Y-122900500D01*
X179124565Y-122900500D01*
X179277526Y-122880362D01*
X179371559Y-122867983D01*
X179371561Y-122867982D01*
X179371565Y-122867982D01*
X179371570Y-122867980D01*
X179371573Y-122867980D01*
X179612207Y-122803502D01*
X179842364Y-122708168D01*
X179842365Y-122708167D01*
X179842373Y-122708164D01*
X180058127Y-122583599D01*
X180255776Y-122431938D01*
X180431938Y-122255776D01*
X180583599Y-122058127D01*
X180708164Y-121842373D01*
X180709222Y-121839820D01*
X180803502Y-121612207D01*
X180867980Y-121371573D01*
X180867983Y-121371559D01*
X180900499Y-121124570D01*
X180900500Y-121124565D01*
X180900500Y-120875434D01*
X180900499Y-120875429D01*
X180867983Y-120628440D01*
X180867980Y-120628426D01*
X180803502Y-120387792D01*
X180708168Y-120157635D01*
X180708165Y-120157630D01*
X180708164Y-120157627D01*
X180583599Y-119941873D01*
X180431938Y-119744224D01*
X180255776Y-119568062D01*
X180058127Y-119416401D01*
X179842373Y-119291836D01*
X179842371Y-119291835D01*
X179842364Y-119291831D01*
X179612207Y-119196497D01*
X179371573Y-119132019D01*
X179371559Y-119132016D01*
X179124570Y-119099500D01*
X179124565Y-119099500D01*
X178875435Y-119099500D01*
X178875429Y-119099500D01*
X178628440Y-119132016D01*
X178628426Y-119132019D01*
X178387792Y-119196497D01*
X178157635Y-119291831D01*
X177941874Y-119416400D01*
X177744225Y-119568061D01*
X177568061Y-119744225D01*
X177416400Y-119941874D01*
X177291832Y-120157634D01*
X177290857Y-120159990D01*
X177256221Y-120194628D01*
X177231728Y-120199500D01*
X164421155Y-120199500D01*
X164266504Y-120230262D01*
X164266498Y-120230263D01*
X164120823Y-120290605D01*
X164120820Y-120290606D01*
X163989709Y-120378212D01*
X162512166Y-121855755D01*
X162466911Y-121874500D01*
X162133088Y-121874500D01*
X162087833Y-121855755D01*
X161819245Y-121587167D01*
X161800500Y-121541912D01*
X161800500Y-115875429D01*
X177099500Y-115875429D01*
X177099500Y-116124570D01*
X177132016Y-116371559D01*
X177132019Y-116371573D01*
X177196497Y-116612207D01*
X177291831Y-116842364D01*
X177291835Y-116842371D01*
X177291836Y-116842373D01*
X177416401Y-117058127D01*
X177568062Y-117255776D01*
X177744224Y-117431938D01*
X177941873Y-117583599D01*
X178157627Y-117708164D01*
X178157630Y-117708165D01*
X178157635Y-117708168D01*
X178387792Y-117803502D01*
X178628426Y-117867980D01*
X178628440Y-117867983D01*
X178781396Y-117888119D01*
X178875435Y-117900500D01*
X179124565Y-117900500D01*
X179277526Y-117880362D01*
X179371559Y-117867983D01*
X179371561Y-117867982D01*
X179371565Y-117867982D01*
X179371570Y-117867980D01*
X179371573Y-117867980D01*
X179612207Y-117803502D01*
X179842364Y-117708168D01*
X179842365Y-117708167D01*
X179842373Y-117708164D01*
X180058127Y-117583599D01*
X180255776Y-117431938D01*
X180431938Y-117255776D01*
X180583599Y-117058127D01*
X180708164Y-116842373D01*
X180712636Y-116831578D01*
X180803502Y-116612207D01*
X180867980Y-116371573D01*
X180867983Y-116371559D01*
X180900499Y-116124570D01*
X180900500Y-116124565D01*
X180900500Y-115875434D01*
X180900499Y-115875429D01*
X180867983Y-115628440D01*
X180867980Y-115628426D01*
X180803502Y-115387792D01*
X180708168Y-115157635D01*
X180708165Y-115157630D01*
X180708164Y-115157627D01*
X180583599Y-114941873D01*
X180431938Y-114744224D01*
X180255776Y-114568062D01*
X180058127Y-114416401D01*
X179842373Y-114291836D01*
X179842371Y-114291835D01*
X179842364Y-114291831D01*
X179612207Y-114196497D01*
X179371573Y-114132019D01*
X179371559Y-114132016D01*
X179124570Y-114099500D01*
X179124565Y-114099500D01*
X178875435Y-114099500D01*
X178875429Y-114099500D01*
X178628440Y-114132016D01*
X178628426Y-114132019D01*
X178387792Y-114196497D01*
X178157635Y-114291831D01*
X177941874Y-114416400D01*
X177744225Y-114568061D01*
X177568061Y-114744225D01*
X177416400Y-114941874D01*
X177291831Y-115157635D01*
X177196497Y-115387792D01*
X177132019Y-115628426D01*
X177132016Y-115628440D01*
X177099500Y-115875429D01*
X161800500Y-115875429D01*
X161800500Y-112821155D01*
X161769737Y-112666504D01*
X161769736Y-112666498D01*
X161735397Y-112583599D01*
X161709394Y-112520821D01*
X161621789Y-112389711D01*
X161519244Y-112287166D01*
X161500499Y-112241911D01*
X161500499Y-112002130D01*
X161500498Y-112002112D01*
X161495400Y-111954694D01*
X161494091Y-111942517D01*
X161443796Y-111807669D01*
X161443793Y-111807665D01*
X161443793Y-111807664D01*
X161360573Y-111696498D01*
X161357546Y-111692454D01*
X161310918Y-111657548D01*
X161242335Y-111606206D01*
X161242336Y-111606206D01*
X161224356Y-111599500D01*
X161195513Y-111588742D01*
X161107481Y-111555908D01*
X161047886Y-111549500D01*
X161047873Y-111549500D01*
X161009600Y-111549500D01*
X160964345Y-111530755D01*
X160945600Y-111485500D01*
X160945600Y-111293761D01*
X160964345Y-111248506D01*
X160997114Y-111230991D01*
X161032108Y-111224030D01*
X161121115Y-111206326D01*
X161121118Y-111206324D01*
X161121121Y-111206324D01*
X161181232Y-111181424D01*
X161225559Y-111163064D01*
X161274541Y-111163064D01*
X161304264Y-111175375D01*
X161378978Y-111206324D01*
X161378982Y-111206325D01*
X161378985Y-111206326D01*
X161430916Y-111216655D01*
X161508811Y-111232150D01*
X161508814Y-111232150D01*
X161641189Y-111232150D01*
X161706100Y-111219238D01*
X161771015Y-111206326D01*
X161771018Y-111206324D01*
X161771021Y-111206324D01*
X161875507Y-111163044D01*
X161893312Y-111155669D01*
X162003375Y-111082127D01*
X162096977Y-110988525D01*
X162170519Y-110878462D01*
X162193862Y-110822106D01*
X162221174Y-110756171D01*
X162221174Y-110756168D01*
X162221176Y-110756165D01*
X162236670Y-110678267D01*
X162247000Y-110626338D01*
X162247000Y-109164500D01*
X162265745Y-109119245D01*
X162311000Y-109100500D01*
X164683435Y-109100500D01*
X164728690Y-109119245D01*
X164747435Y-109164500D01*
X164734669Y-109202852D01*
X164696283Y-109254130D01*
X164656205Y-109307666D01*
X164605908Y-109442518D01*
X164599500Y-109502113D01*
X164599500Y-110497869D01*
X164599501Y-110497887D01*
X164605908Y-110557478D01*
X164605909Y-110557483D01*
X164656204Y-110692331D01*
X164656205Y-110692332D01*
X164656206Y-110692335D01*
X164742451Y-110807542D01*
X164742454Y-110807546D01*
X164742457Y-110807548D01*
X164857664Y-110893793D01*
X164857663Y-110893793D01*
X164857666Y-110893794D01*
X164857669Y-110893796D01*
X164992517Y-110944091D01*
X165052127Y-110950500D01*
X165947872Y-110950499D01*
X165947875Y-110950498D01*
X165947887Y-110950498D01*
X165979624Y-110947085D01*
X166007483Y-110944091D01*
X166142331Y-110893796D01*
X166166866Y-110875429D01*
X177099500Y-110875429D01*
X177099500Y-111124570D01*
X177132016Y-111371559D01*
X177132019Y-111371573D01*
X177196497Y-111612207D01*
X177291831Y-111842364D01*
X177291835Y-111842371D01*
X177291836Y-111842373D01*
X177416401Y-112058127D01*
X177568062Y-112255776D01*
X177744224Y-112431938D01*
X177941873Y-112583599D01*
X178157627Y-112708164D01*
X178157630Y-112708165D01*
X178157635Y-112708168D01*
X178387792Y-112803502D01*
X178628426Y-112867980D01*
X178628440Y-112867983D01*
X178778908Y-112887792D01*
X178875435Y-112900500D01*
X179124565Y-112900500D01*
X179277526Y-112880362D01*
X179371559Y-112867983D01*
X179371561Y-112867982D01*
X179371565Y-112867982D01*
X179371570Y-112867980D01*
X179371573Y-112867980D01*
X179612207Y-112803502D01*
X179842364Y-112708168D01*
X179842365Y-112708167D01*
X179842373Y-112708164D01*
X180058127Y-112583599D01*
X180255776Y-112431938D01*
X180431938Y-112255776D01*
X180583599Y-112058127D01*
X180708164Y-111842373D01*
X180725509Y-111800500D01*
X180803502Y-111612207D01*
X180867980Y-111371573D01*
X180867983Y-111371559D01*
X180889736Y-111206324D01*
X180900500Y-111124565D01*
X180900500Y-110875435D01*
X180884798Y-110756165D01*
X180867983Y-110628440D01*
X180867980Y-110628426D01*
X180803502Y-110387792D01*
X180708168Y-110157635D01*
X180708165Y-110157630D01*
X180708164Y-110157627D01*
X180583599Y-109941873D01*
X180431938Y-109744224D01*
X180255776Y-109568062D01*
X180058127Y-109416401D01*
X179842373Y-109291836D01*
X179842371Y-109291835D01*
X179842364Y-109291831D01*
X179612207Y-109196497D01*
X179371573Y-109132019D01*
X179371559Y-109132016D01*
X179124570Y-109099500D01*
X179124565Y-109099500D01*
X178875435Y-109099500D01*
X178875429Y-109099500D01*
X178628440Y-109132016D01*
X178628426Y-109132019D01*
X178387792Y-109196497D01*
X178157635Y-109291831D01*
X177941874Y-109416400D01*
X177744225Y-109568061D01*
X177568061Y-109744225D01*
X177416400Y-109941874D01*
X177291831Y-110157635D01*
X177196497Y-110387792D01*
X177132019Y-110628426D01*
X177132016Y-110628440D01*
X177099500Y-110875429D01*
X166166866Y-110875429D01*
X166257546Y-110807546D01*
X166343796Y-110692331D01*
X166394091Y-110557483D01*
X166396339Y-110536566D01*
X166400499Y-110497886D01*
X166400499Y-110497882D01*
X166400500Y-110497873D01*
X166400499Y-109502128D01*
X166400498Y-109502125D01*
X166400498Y-109502112D01*
X166394091Y-109442521D01*
X166394091Y-109442517D01*
X166343796Y-109307669D01*
X166343793Y-109307665D01*
X166343793Y-109307664D01*
X166260573Y-109196498D01*
X166257546Y-109192454D01*
X166257542Y-109192451D01*
X166142335Y-109106206D01*
X166142333Y-109106205D01*
X166142331Y-109106204D01*
X166142131Y-109106129D01*
X166142041Y-109106045D01*
X166138318Y-109104013D01*
X166138837Y-109103062D01*
X166106283Y-109072750D01*
X166100500Y-109046166D01*
X166100500Y-108237045D01*
X166119245Y-108191790D01*
X166142137Y-108177080D01*
X166145581Y-108175796D01*
X166260796Y-108089546D01*
X166347046Y-107974331D01*
X166359054Y-107942134D01*
X166392432Y-107906284D01*
X166419019Y-107900500D01*
X168623810Y-107900500D01*
X168623826Y-107900501D01*
X168627743Y-107900501D01*
X168785854Y-107900501D01*
X168785857Y-107900501D01*
X168785865Y-107900499D01*
X168798385Y-107897143D01*
X168938585Y-107859577D01*
X168988704Y-107830639D01*
X169075516Y-107780520D01*
X169187320Y-107668716D01*
X169187320Y-107668714D01*
X169192584Y-107663451D01*
X169192587Y-107663446D01*
X170926741Y-105929294D01*
X170971996Y-105910549D01*
X171479870Y-105910549D01*
X171479872Y-105910549D01*
X171479874Y-105910548D01*
X171479887Y-105910548D01*
X171511624Y-105907135D01*
X171539483Y-105904141D01*
X171616464Y-105875429D01*
X177099500Y-105875429D01*
X177099500Y-106124570D01*
X177132016Y-106371559D01*
X177132019Y-106371573D01*
X177196497Y-106612207D01*
X177291831Y-106842364D01*
X177291835Y-106842371D01*
X177291836Y-106842373D01*
X177416401Y-107058127D01*
X177568062Y-107255776D01*
X177744224Y-107431938D01*
X177941873Y-107583599D01*
X178157627Y-107708164D01*
X178157630Y-107708165D01*
X178157635Y-107708168D01*
X178387792Y-107803502D01*
X178628426Y-107867980D01*
X178628440Y-107867983D01*
X178781396Y-107888119D01*
X178875435Y-107900500D01*
X179124565Y-107900500D01*
X179313260Y-107875658D01*
X179371559Y-107867983D01*
X179371561Y-107867982D01*
X179371565Y-107867982D01*
X179371570Y-107867980D01*
X179371573Y-107867980D01*
X179612207Y-107803502D01*
X179842364Y-107708168D01*
X179842365Y-107708167D01*
X179842373Y-107708164D01*
X180058127Y-107583599D01*
X180255776Y-107431938D01*
X180431938Y-107255776D01*
X180583599Y-107058127D01*
X180708164Y-106842373D01*
X180717385Y-106820113D01*
X180803502Y-106612207D01*
X180867980Y-106371573D01*
X180867983Y-106371559D01*
X180900499Y-106124570D01*
X180900500Y-106124565D01*
X180900500Y-105875434D01*
X180900499Y-105875429D01*
X180867983Y-105628440D01*
X180867980Y-105628426D01*
X180803502Y-105387792D01*
X180708168Y-105157635D01*
X180708165Y-105157630D01*
X180708164Y-105157627D01*
X180583599Y-104941873D01*
X180431938Y-104744224D01*
X180255776Y-104568062D01*
X180058127Y-104416401D01*
X179842373Y-104291836D01*
X179842371Y-104291835D01*
X179842364Y-104291831D01*
X179612207Y-104196497D01*
X179371573Y-104132019D01*
X179371559Y-104132016D01*
X179124570Y-104099500D01*
X179124565Y-104099500D01*
X178875435Y-104099500D01*
X178875429Y-104099500D01*
X178628440Y-104132016D01*
X178628426Y-104132019D01*
X178387792Y-104196497D01*
X178157635Y-104291831D01*
X177941874Y-104416400D01*
X177744225Y-104568061D01*
X177568061Y-104744225D01*
X177416400Y-104941874D01*
X177291831Y-105157635D01*
X177196497Y-105387792D01*
X177132019Y-105628426D01*
X177132016Y-105628440D01*
X177099500Y-105875429D01*
X171616464Y-105875429D01*
X171674331Y-105853846D01*
X171674692Y-105853575D01*
X171716731Y-105822106D01*
X171745745Y-105800385D01*
X171789546Y-105767596D01*
X171875796Y-105652381D01*
X171926091Y-105517533D01*
X171932500Y-105457923D01*
X171932499Y-104555678D01*
X171932498Y-104555675D01*
X171932498Y-104555662D01*
X171928486Y-104518353D01*
X171926091Y-104496067D01*
X171875796Y-104361219D01*
X171823793Y-104291753D01*
X171811679Y-104244293D01*
X171823793Y-104215047D01*
X171875796Y-104145581D01*
X171926091Y-104010733D01*
X171928339Y-103989816D01*
X171932499Y-103951136D01*
X171932499Y-103951132D01*
X171932500Y-103951123D01*
X171932499Y-103048878D01*
X171932498Y-103048875D01*
X171932498Y-103048862D01*
X171926091Y-102989271D01*
X171926091Y-102989267D01*
X171875796Y-102854419D01*
X171875793Y-102854415D01*
X171875793Y-102854414D01*
X171800865Y-102754324D01*
X171789546Y-102739204D01*
X171745567Y-102706281D01*
X171674335Y-102652956D01*
X171674336Y-102652956D01*
X171539481Y-102602658D01*
X171479886Y-102596250D01*
X171479873Y-102596250D01*
X171014500Y-102596250D01*
X170969245Y-102577505D01*
X170950500Y-102532250D01*
X170950500Y-101939878D01*
X170969245Y-101894623D01*
X170996468Y-101878470D01*
X171059992Y-101859819D01*
X171181032Y-101782031D01*
X171275254Y-101673294D01*
X171335024Y-101542416D01*
X171355500Y-101400000D01*
X171355500Y-99900000D01*
X171350355Y-99828060D01*
X171309819Y-99690008D01*
X171232031Y-99568968D01*
X171224138Y-99562129D01*
X171123295Y-99474747D01*
X171123294Y-99474746D01*
X171123292Y-99474745D01*
X171123289Y-99474743D01*
X170992418Y-99414976D01*
X170921208Y-99404738D01*
X170850000Y-99394500D01*
X170284174Y-99394500D01*
X170284168Y-99394500D01*
X170153350Y-99411722D01*
X170153337Y-99411725D01*
X170026170Y-99445799D01*
X169904258Y-99496298D01*
X169790241Y-99562125D01*
X169790236Y-99562129D01*
X169685561Y-99642450D01*
X169685551Y-99642459D01*
X169592459Y-99735551D01*
X169592450Y-99735561D01*
X169512129Y-99840236D01*
X169512125Y-99840241D01*
X169446298Y-99954258D01*
X169395799Y-100076170D01*
X169361725Y-100203337D01*
X169361722Y-100203350D01*
X169344500Y-100334168D01*
X169344500Y-100965831D01*
X169361722Y-101096649D01*
X169361725Y-101096662D01*
X169395799Y-101223829D01*
X169446298Y-101345741D01*
X169512125Y-101459758D01*
X169512129Y-101459763D01*
X169592450Y-101564438D01*
X169592453Y-101564442D01*
X169592459Y-101564449D01*
X169685551Y-101657541D01*
X169724461Y-101687398D01*
X169748952Y-101729818D01*
X169749500Y-101738172D01*
X169749500Y-102752555D01*
X169730755Y-102797810D01*
X169685500Y-102816555D01*
X169640245Y-102797810D01*
X168122311Y-101279876D01*
X168103566Y-101234621D01*
X168105747Y-101218056D01*
X168121305Y-101159992D01*
X168138275Y-101096662D01*
X168155500Y-100965826D01*
X168155500Y-100334174D01*
X168138275Y-100203338D01*
X168104200Y-100076171D01*
X168053701Y-99954257D01*
X167987875Y-99840243D01*
X167987874Y-99840241D01*
X167987870Y-99840236D01*
X167907549Y-99735561D01*
X167907546Y-99735558D01*
X167907541Y-99735551D01*
X167814449Y-99642459D01*
X167775537Y-99612600D01*
X167751047Y-99570180D01*
X167750500Y-99561827D01*
X167750500Y-99234222D01*
X167750501Y-99234209D01*
X167750501Y-99070945D01*
X167750500Y-99070938D01*
X167729875Y-98993966D01*
X167709577Y-98918215D01*
X167664561Y-98840246D01*
X167630520Y-98781284D01*
X167518716Y-98669480D01*
X167516486Y-98667250D01*
X167516475Y-98667240D01*
X166984170Y-98134935D01*
X166984168Y-98134932D01*
X166868718Y-98019482D01*
X166868716Y-98019480D01*
X166781904Y-97969360D01*
X166781904Y-97969359D01*
X166781902Y-97969359D01*
X166731788Y-97940424D01*
X166731785Y-97940423D01*
X166579061Y-97899499D01*
X166579057Y-97899499D01*
X166420943Y-97899499D01*
X166417026Y-97899499D01*
X166417010Y-97899500D01*
X163688900Y-97899500D01*
X163643645Y-97880755D01*
X162395140Y-96632250D01*
X161131573Y-95368684D01*
X161112829Y-95323430D01*
X161131574Y-95278175D01*
X161147770Y-95266407D01*
X161287816Y-95195051D01*
X161401131Y-95112722D01*
X161438749Y-95100500D01*
X163327581Y-95100500D01*
X163372836Y-95119245D01*
X163387546Y-95142135D01*
X163399555Y-95174334D01*
X163399556Y-95174335D01*
X163477292Y-95278175D01*
X163485804Y-95289546D01*
X163493199Y-95295082D01*
X163601014Y-95375793D01*
X163601013Y-95375793D01*
X163601016Y-95375794D01*
X163601019Y-95375796D01*
X163735867Y-95426091D01*
X163795477Y-95432500D01*
X164697722Y-95432499D01*
X164697725Y-95432498D01*
X164697737Y-95432498D01*
X164729474Y-95429085D01*
X164757333Y-95426091D01*
X164892181Y-95375796D01*
X164961646Y-95323793D01*
X165009107Y-95311679D01*
X165038352Y-95323793D01*
X165107819Y-95375796D01*
X165242667Y-95426091D01*
X165302277Y-95432500D01*
X166204522Y-95432499D01*
X166204525Y-95432498D01*
X166204537Y-95432498D01*
X166236274Y-95429085D01*
X166264133Y-95426091D01*
X166398981Y-95375796D01*
X166514196Y-95289546D01*
X166600446Y-95174331D01*
X166650741Y-95039483D01*
X166657150Y-94979873D01*
X166657149Y-94020128D01*
X166657148Y-94020125D01*
X166657148Y-94020112D01*
X166650741Y-93960521D01*
X166650741Y-93960517D01*
X166600446Y-93825669D01*
X166600443Y-93825665D01*
X166600443Y-93825664D01*
X166535999Y-93739580D01*
X166514196Y-93710454D01*
X166477045Y-93682642D01*
X166452051Y-93640515D01*
X166451400Y-93631408D01*
X166451400Y-92903834D01*
X166470145Y-92858579D01*
X166489346Y-92846241D01*
X166489210Y-92845992D01*
X166492709Y-92844080D01*
X166493044Y-92843866D01*
X166493091Y-92843848D01*
X166493231Y-92843796D01*
X166608446Y-92757546D01*
X166694696Y-92642331D01*
X166744991Y-92507483D01*
X166747239Y-92486566D01*
X166751399Y-92447886D01*
X166751399Y-92447882D01*
X166751400Y-92447873D01*
X166751399Y-91878705D01*
X178149500Y-91878705D01*
X178149500Y-92121294D01*
X178181160Y-92361783D01*
X178181163Y-92361797D01*
X178243945Y-92596100D01*
X178336773Y-92820207D01*
X178458065Y-93030291D01*
X178531899Y-93126513D01*
X178605735Y-93222738D01*
X178777262Y-93394265D01*
X178915360Y-93500231D01*
X178943195Y-93521590D01*
X178969711Y-93541936D01*
X179179788Y-93663224D01*
X179179789Y-93663224D01*
X179179792Y-93663226D01*
X179403899Y-93756054D01*
X179638202Y-93818836D01*
X179638216Y-93818839D01*
X179833806Y-93844588D01*
X179878712Y-93850500D01*
X180121288Y-93850500D01*
X180241538Y-93834669D01*
X180361783Y-93818839D01*
X180361785Y-93818838D01*
X180361789Y-93818838D01*
X180361794Y-93818836D01*
X180361797Y-93818836D01*
X180596100Y-93756054D01*
X180820207Y-93663226D01*
X180820206Y-93663226D01*
X180820212Y-93663224D01*
X181030289Y-93541936D01*
X181222738Y-93394265D01*
X181394265Y-93222738D01*
X181541936Y-93030289D01*
X181663224Y-92820212D01*
X181756054Y-92596100D01*
X181818838Y-92361789D01*
X181829437Y-92281284D01*
X181839109Y-92207809D01*
X181850500Y-92121288D01*
X181850500Y-91878712D01*
X181818838Y-91638211D01*
X181810283Y-91606284D01*
X181756054Y-91403899D01*
X181663226Y-91179792D01*
X181649607Y-91156204D01*
X181541936Y-90969711D01*
X181514407Y-90933835D01*
X181433222Y-90828032D01*
X181394265Y-90777262D01*
X181222738Y-90605735D01*
X181126513Y-90531899D01*
X181030291Y-90458065D01*
X180820207Y-90336773D01*
X180596100Y-90243945D01*
X180361797Y-90181163D01*
X180361783Y-90181160D01*
X180121294Y-90149500D01*
X180121288Y-90149500D01*
X179878712Y-90149500D01*
X179878705Y-90149500D01*
X179638216Y-90181160D01*
X179638202Y-90181163D01*
X179403899Y-90243945D01*
X179179792Y-90336773D01*
X178969708Y-90458065D01*
X178777263Y-90605734D01*
X178605734Y-90777263D01*
X178458065Y-90969708D01*
X178336773Y-91179792D01*
X178243945Y-91403899D01*
X178181163Y-91638202D01*
X178181160Y-91638216D01*
X178149500Y-91878705D01*
X166751399Y-91878705D01*
X166751399Y-91552128D01*
X166751398Y-91552125D01*
X166751398Y-91552112D01*
X166744991Y-91492521D01*
X166744991Y-91492517D01*
X166694696Y-91357669D01*
X166694693Y-91357665D01*
X166694693Y-91357664D01*
X166608448Y-91242457D01*
X166608446Y-91242454D01*
X166608442Y-91242451D01*
X166493235Y-91156206D01*
X166493236Y-91156206D01*
X166358381Y-91105908D01*
X166298779Y-91099500D01*
X165403030Y-91099500D01*
X165403012Y-91099501D01*
X165343421Y-91105908D01*
X165343418Y-91105908D01*
X165343417Y-91105909D01*
X165208569Y-91156204D01*
X165208564Y-91156206D01*
X165093357Y-91242451D01*
X165093351Y-91242457D01*
X165007106Y-91357664D01*
X164956808Y-91492518D01*
X164950400Y-91552113D01*
X164950400Y-92447869D01*
X164950401Y-92447887D01*
X164956808Y-92507478D01*
X164956809Y-92507483D01*
X165007104Y-92642331D01*
X165007105Y-92642332D01*
X165007106Y-92642335D01*
X165076021Y-92734392D01*
X165093354Y-92757546D01*
X165116472Y-92774852D01*
X165208567Y-92843795D01*
X165208568Y-92843795D01*
X165208569Y-92843796D01*
X165208679Y-92843837D01*
X165208756Y-92843866D01*
X165208839Y-92843943D01*
X165212590Y-92845992D01*
X165212067Y-92846948D01*
X165244612Y-92877238D01*
X165250400Y-92903834D01*
X165250400Y-93526588D01*
X165231655Y-93571843D01*
X165208766Y-93586553D01*
X165107816Y-93624205D01*
X165038354Y-93676205D01*
X164990892Y-93688319D01*
X164961646Y-93676205D01*
X164892183Y-93624205D01*
X164892181Y-93624204D01*
X164824757Y-93599056D01*
X164757331Y-93573908D01*
X164697729Y-93567500D01*
X163795480Y-93567500D01*
X163795462Y-93567501D01*
X163735871Y-93573908D01*
X163735868Y-93573908D01*
X163735867Y-93573909D01*
X163723963Y-93578349D01*
X163601014Y-93624206D01*
X163485807Y-93710451D01*
X163485801Y-93710457D01*
X163399556Y-93825664D01*
X163399555Y-93825665D01*
X163387546Y-93857865D01*
X163354168Y-93893716D01*
X163327581Y-93899500D01*
X161979742Y-93899500D01*
X161934487Y-93880755D01*
X161916530Y-93845512D01*
X161913386Y-93825664D01*
X161897246Y-93723757D01*
X161831557Y-93521588D01*
X161831555Y-93521584D01*
X161831554Y-93521581D01*
X161735055Y-93332190D01*
X161735051Y-93332185D01*
X161735051Y-93332184D01*
X161610104Y-93160208D01*
X161459792Y-93009896D01*
X161287816Y-92884949D01*
X161287809Y-92884944D01*
X161098418Y-92788445D01*
X161098409Y-92788442D01*
X160896242Y-92722753D01*
X160762047Y-92701499D01*
X160686287Y-92689500D01*
X160473713Y-92689500D01*
X160406086Y-92700210D01*
X160263757Y-92722753D01*
X160091585Y-92778696D01*
X160042753Y-92774852D01*
X160010940Y-92737605D01*
X160009989Y-92734392D01*
X159989578Y-92658219D01*
X159989576Y-92658212D01*
X159939190Y-92570943D01*
X159939189Y-92570942D01*
X159915611Y-92530103D01*
X159910520Y-92521284D01*
X159798716Y-92409480D01*
X159796486Y-92407250D01*
X159796475Y-92407240D01*
X159347758Y-91958523D01*
X159329013Y-91913268D01*
X159332146Y-91893490D01*
X159357243Y-91816251D01*
X159357246Y-91816243D01*
X159390500Y-91606287D01*
X159390500Y-91393713D01*
X159357246Y-91183757D01*
X159291557Y-90981588D01*
X159291555Y-90981584D01*
X159291554Y-90981581D01*
X159195055Y-90792190D01*
X159195051Y-90792185D01*
X159195051Y-90792184D01*
X159070104Y-90620208D01*
X158919792Y-90469896D01*
X158747816Y-90344949D01*
X158747809Y-90344944D01*
X158558418Y-90248445D01*
X158558409Y-90248442D01*
X158356242Y-90182753D01*
X158222047Y-90161499D01*
X158146287Y-90149500D01*
X157933713Y-90149500D01*
X157866086Y-90160210D01*
X157723757Y-90182753D01*
X157521590Y-90248442D01*
X157521581Y-90248445D01*
X157332190Y-90344944D01*
X157332183Y-90344949D01*
X157160207Y-90469896D01*
X157009896Y-90620207D01*
X156884949Y-90792183D01*
X156884947Y-90792185D01*
X156827024Y-90905867D01*
X156789777Y-90937679D01*
X156740944Y-90933835D01*
X156712976Y-90905867D01*
X156655052Y-90792185D01*
X156655050Y-90792183D01*
X156644210Y-90777262D01*
X156530104Y-90620208D01*
X156379792Y-90469896D01*
X156207816Y-90344949D01*
X156207809Y-90344944D01*
X156018418Y-90248445D01*
X156018409Y-90248442D01*
X155816242Y-90182753D01*
X155682047Y-90161499D01*
X155606287Y-90149500D01*
X155393713Y-90149500D01*
X155326086Y-90160210D01*
X155183757Y-90182753D01*
X154981590Y-90248442D01*
X154981581Y-90248445D01*
X154792190Y-90344944D01*
X154792183Y-90344949D01*
X154620207Y-90469896D01*
X154469896Y-90620207D01*
X154344949Y-90792183D01*
X154344947Y-90792185D01*
X154287024Y-90905867D01*
X154249777Y-90937679D01*
X154200944Y-90933835D01*
X154172976Y-90905867D01*
X154115052Y-90792185D01*
X154115050Y-90792183D01*
X154104210Y-90777262D01*
X153990104Y-90620208D01*
X153839792Y-90469896D01*
X153667816Y-90344949D01*
X153667809Y-90344944D01*
X153478418Y-90248445D01*
X153478409Y-90248442D01*
X153276242Y-90182753D01*
X153142047Y-90161499D01*
X153066287Y-90149500D01*
X152853713Y-90149500D01*
X152786086Y-90160210D01*
X152643757Y-90182753D01*
X152441590Y-90248442D01*
X152441581Y-90248445D01*
X152252190Y-90344944D01*
X152252183Y-90344949D01*
X152080207Y-90469896D01*
X151929896Y-90620207D01*
X151804949Y-90792183D01*
X151804947Y-90792185D01*
X151747024Y-90905867D01*
X151709777Y-90937679D01*
X151660944Y-90933835D01*
X151632976Y-90905867D01*
X151575052Y-90792185D01*
X151575050Y-90792183D01*
X151564210Y-90777262D01*
X151450104Y-90620208D01*
X151299792Y-90469896D01*
X151127816Y-90344949D01*
X151127809Y-90344944D01*
X150938418Y-90248445D01*
X150938409Y-90248442D01*
X150736242Y-90182753D01*
X150602047Y-90161499D01*
X150526287Y-90149500D01*
X150313713Y-90149500D01*
X150246086Y-90160210D01*
X150103757Y-90182753D01*
X149901590Y-90248442D01*
X149901581Y-90248445D01*
X149712190Y-90344944D01*
X149712183Y-90344949D01*
X149540207Y-90469896D01*
X149389896Y-90620207D01*
X149264949Y-90792183D01*
X149264947Y-90792185D01*
X149207024Y-90905867D01*
X149169777Y-90937679D01*
X149120944Y-90933835D01*
X149092976Y-90905867D01*
X149035052Y-90792185D01*
X149035050Y-90792183D01*
X149024210Y-90777262D01*
X148910104Y-90620208D01*
X148759792Y-90469896D01*
X148587816Y-90344949D01*
X148587809Y-90344944D01*
X148398418Y-90248445D01*
X148398409Y-90248442D01*
X148196242Y-90182753D01*
X148062047Y-90161499D01*
X147986287Y-90149500D01*
X147773713Y-90149500D01*
X147706086Y-90160210D01*
X147563757Y-90182753D01*
X147361590Y-90248442D01*
X147361581Y-90248445D01*
X147172190Y-90344944D01*
X147172183Y-90344949D01*
X147000207Y-90469896D01*
X146849896Y-90620207D01*
X146724949Y-90792183D01*
X146724947Y-90792185D01*
X146667024Y-90905867D01*
X146629777Y-90937679D01*
X146580944Y-90933835D01*
X146552976Y-90905867D01*
X146495052Y-90792185D01*
X146495050Y-90792183D01*
X146484210Y-90777262D01*
X146370104Y-90620208D01*
X146219792Y-90469896D01*
X146047816Y-90344949D01*
X146047809Y-90344944D01*
X145858418Y-90248445D01*
X145858409Y-90248442D01*
X145656242Y-90182753D01*
X145522047Y-90161499D01*
X145446287Y-90149500D01*
X145233713Y-90149500D01*
X145166086Y-90160210D01*
X145023757Y-90182753D01*
X144821590Y-90248442D01*
X144821581Y-90248445D01*
X144632190Y-90344944D01*
X144632183Y-90344949D01*
X144460207Y-90469896D01*
X144309896Y-90620207D01*
X144184949Y-90792183D01*
X144184944Y-90792190D01*
X144088445Y-90981581D01*
X144088442Y-90981590D01*
X144022753Y-91183757D01*
X143997499Y-91343206D01*
X143989500Y-91393713D01*
X143989500Y-91606287D01*
X143994557Y-91638216D01*
X144022753Y-91816242D01*
X144047853Y-91893491D01*
X144044009Y-91942324D01*
X144032240Y-91958523D01*
X143821286Y-92169478D01*
X143709478Y-92281285D01*
X143704738Y-92289497D01*
X143704737Y-92289500D01*
X143630423Y-92418214D01*
X143630423Y-92418215D01*
X143589499Y-92570938D01*
X143589499Y-92734209D01*
X143589500Y-92734222D01*
X143589500Y-98542259D01*
X143589499Y-98542277D01*
X143589499Y-98704311D01*
X143630423Y-98857035D01*
X143630424Y-98857038D01*
X143643057Y-98878918D01*
X143657394Y-98903749D01*
X143702693Y-98982211D01*
X143709481Y-98993967D01*
X143824929Y-99109415D01*
X143824935Y-99109420D01*
X147581990Y-102866475D01*
X147581995Y-102866481D01*
X147584230Y-102868716D01*
X147696034Y-102980520D01*
X147750170Y-103011775D01*
X147832965Y-103059577D01*
X147946957Y-103090121D01*
X147985688Y-103100500D01*
X147985690Y-103100500D01*
X147985693Y-103100501D01*
X147985696Y-103100501D01*
X148147724Y-103100501D01*
X148147740Y-103100500D01*
X153226407Y-103100500D01*
X153271662Y-103119245D01*
X153734255Y-103581838D01*
X153753000Y-103627093D01*
X153753000Y-104894838D01*
X153778823Y-105024662D01*
X153778825Y-105024671D01*
X153829479Y-105146959D01*
X153829480Y-105146961D01*
X153829481Y-105146962D01*
X153903023Y-105257025D01*
X153996625Y-105350627D01*
X154106688Y-105424169D01*
X154106689Y-105424169D01*
X154106690Y-105424170D01*
X154228978Y-105474824D01*
X154228982Y-105474825D01*
X154228985Y-105474826D01*
X154280916Y-105485155D01*
X154358811Y-105500650D01*
X154358814Y-105500650D01*
X154491189Y-105500650D01*
X154558212Y-105487318D01*
X154621015Y-105474826D01*
X154621018Y-105474824D01*
X154621021Y-105474824D01*
X154681132Y-105449924D01*
X154725459Y-105431564D01*
X154774441Y-105431564D01*
X154804164Y-105443875D01*
X154878878Y-105474824D01*
X154878882Y-105474825D01*
X154878885Y-105474826D01*
X154930816Y-105485155D01*
X155008711Y-105500650D01*
X155008714Y-105500650D01*
X155141089Y-105500650D01*
X155208112Y-105487318D01*
X155270915Y-105474826D01*
X155270918Y-105474824D01*
X155270921Y-105474824D01*
X155375408Y-105431544D01*
X155424392Y-105431544D01*
X155528878Y-105474824D01*
X155528882Y-105474825D01*
X155528885Y-105474826D01*
X155580816Y-105485155D01*
X155658711Y-105500650D01*
X155658714Y-105500650D01*
X155791089Y-105500650D01*
X155858112Y-105487318D01*
X155920915Y-105474826D01*
X155920918Y-105474824D01*
X155920921Y-105474824D01*
X156025408Y-105431544D01*
X156074392Y-105431544D01*
X156178878Y-105474824D01*
X156178882Y-105474825D01*
X156178885Y-105474826D01*
X156230816Y-105485155D01*
X156308711Y-105500650D01*
X156308714Y-105500650D01*
X156441089Y-105500650D01*
X156508112Y-105487318D01*
X156570915Y-105474826D01*
X156570918Y-105474824D01*
X156570921Y-105474824D01*
X156675408Y-105431544D01*
X156724392Y-105431544D01*
X156828878Y-105474824D01*
X156828882Y-105474825D01*
X156828885Y-105474826D01*
X156880816Y-105485155D01*
X156958711Y-105500650D01*
X156958714Y-105500650D01*
X157091089Y-105500650D01*
X157158112Y-105487318D01*
X157220915Y-105474826D01*
X157220918Y-105474824D01*
X157220921Y-105474824D01*
X157292286Y-105445262D01*
X157325509Y-105431502D01*
X157374491Y-105431502D01*
X157395485Y-105440198D01*
X157479078Y-105474824D01*
X157479082Y-105474825D01*
X157479085Y-105474826D01*
X157531016Y-105485155D01*
X157608911Y-105500650D01*
X157608914Y-105500650D01*
X157741289Y-105500650D01*
X157808312Y-105487318D01*
X157871115Y-105474826D01*
X157871118Y-105474824D01*
X157871121Y-105474824D01*
X157975608Y-105431544D01*
X158024592Y-105431544D01*
X158129078Y-105474824D01*
X158129082Y-105474825D01*
X158129085Y-105474826D01*
X158181016Y-105485155D01*
X158258911Y-105500650D01*
X158258914Y-105500650D01*
X158391289Y-105500650D01*
X158458312Y-105487318D01*
X158521115Y-105474826D01*
X158521118Y-105474824D01*
X158521121Y-105474824D01*
X158625607Y-105431544D01*
X158643412Y-105424169D01*
X158753475Y-105350627D01*
X158847077Y-105257025D01*
X158920619Y-105146962D01*
X158920619Y-105146959D01*
X158921886Y-105145065D01*
X158962614Y-105117852D01*
X159010657Y-105127408D01*
X159028314Y-105145065D01*
X159029580Y-105146959D01*
X159029581Y-105146962D01*
X159103123Y-105257025D01*
X159196725Y-105350627D01*
X159306788Y-105424169D01*
X159306789Y-105424169D01*
X159306790Y-105424170D01*
X159429078Y-105474824D01*
X159429082Y-105474825D01*
X159429085Y-105474826D01*
X159481016Y-105485155D01*
X159558911Y-105500650D01*
X159558914Y-105500650D01*
X159691289Y-105500650D01*
X159758312Y-105487318D01*
X159821115Y-105474826D01*
X159821118Y-105474824D01*
X159821121Y-105474824D01*
X159925608Y-105431544D01*
X159974592Y-105431544D01*
X160079078Y-105474824D01*
X160079082Y-105474825D01*
X160079085Y-105474826D01*
X160131016Y-105485155D01*
X160208911Y-105500650D01*
X160208914Y-105500650D01*
X160341289Y-105500650D01*
X160408312Y-105487318D01*
X160471115Y-105474826D01*
X160471118Y-105474824D01*
X160471121Y-105474824D01*
X160575608Y-105431544D01*
X160624592Y-105431544D01*
X160729078Y-105474824D01*
X160729082Y-105474825D01*
X160729085Y-105474826D01*
X160781016Y-105485155D01*
X160858911Y-105500650D01*
X160858914Y-105500650D01*
X160991289Y-105500650D01*
X161058312Y-105487318D01*
X161121115Y-105474826D01*
X161121118Y-105474824D01*
X161121121Y-105474824D01*
X161181232Y-105449924D01*
X161225559Y-105431564D01*
X161274541Y-105431564D01*
X161304264Y-105443875D01*
X161378978Y-105474824D01*
X161378982Y-105474825D01*
X161378985Y-105474826D01*
X161430916Y-105485155D01*
X161508811Y-105500650D01*
X161508814Y-105500650D01*
X161641189Y-105500650D01*
X161708212Y-105487318D01*
X161771015Y-105474826D01*
X161771018Y-105474824D01*
X161771021Y-105474824D01*
X161875508Y-105431544D01*
X161924492Y-105431544D01*
X162028978Y-105474824D01*
X162028982Y-105474825D01*
X162028985Y-105474826D01*
X162080916Y-105485155D01*
X162158811Y-105500650D01*
X162158814Y-105500650D01*
X162291189Y-105500650D01*
X162358212Y-105487318D01*
X162421015Y-105474826D01*
X162421018Y-105474824D01*
X162421021Y-105474824D01*
X162466194Y-105456112D01*
X162543312Y-105424169D01*
X162572905Y-105404394D01*
X162620947Y-105394837D01*
X162653718Y-105412353D01*
X163377355Y-106135990D01*
X163396100Y-106181245D01*
X163396100Y-106361685D01*
X163377355Y-106406940D01*
X163354468Y-106421649D01*
X163347620Y-106424203D01*
X163347612Y-106424207D01*
X163232407Y-106510451D01*
X163232401Y-106510457D01*
X163146156Y-106625664D01*
X163146154Y-106625668D01*
X163146154Y-106625669D01*
X163137238Y-106649572D01*
X163095858Y-106760518D01*
X163089450Y-106820113D01*
X163089450Y-107779869D01*
X163089451Y-107779887D01*
X163094695Y-107828659D01*
X163080895Y-107875658D01*
X163037903Y-107899133D01*
X163031062Y-107899500D01*
X161954207Y-107899500D01*
X161796092Y-107899500D01*
X161796090Y-107899500D01*
X161796085Y-107899501D01*
X161643369Y-107940421D01*
X161643368Y-107940421D01*
X161593245Y-107969360D01*
X161506432Y-108019481D01*
X161295305Y-108230609D01*
X161250050Y-108249354D01*
X161204795Y-108230609D01*
X161193818Y-108219632D01*
X161193816Y-108219630D01*
X161107004Y-108169510D01*
X161107004Y-108169509D01*
X161107002Y-108169509D01*
X161056888Y-108140574D01*
X161056885Y-108140573D01*
X160904161Y-108099649D01*
X160904157Y-108099649D01*
X160746043Y-108099649D01*
X160742126Y-108099649D01*
X160742110Y-108099650D01*
X159808040Y-108099650D01*
X159804111Y-108099649D01*
X159804108Y-108099649D01*
X159681342Y-108099649D01*
X159681341Y-108099648D01*
X159664778Y-108097468D01*
X159579061Y-108074499D01*
X159579057Y-108074499D01*
X159420943Y-108074499D01*
X159417026Y-108074499D01*
X159417010Y-108074500D01*
X157883240Y-108074500D01*
X157883224Y-108074499D01*
X157879307Y-108074499D01*
X157721193Y-108074499D01*
X157721188Y-108074499D01*
X157568465Y-108115423D01*
X157568464Y-108115423D01*
X157518345Y-108144360D01*
X157431532Y-108194481D01*
X157194579Y-108431434D01*
X157171521Y-108471371D01*
X157132659Y-108501190D01*
X157103613Y-108502141D01*
X157091087Y-108499650D01*
X157091086Y-108499650D01*
X156958714Y-108499650D01*
X156958711Y-108499650D01*
X156828887Y-108525473D01*
X156828874Y-108525477D01*
X156724391Y-108568755D01*
X156675409Y-108568755D01*
X156570925Y-108525477D01*
X156570912Y-108525473D01*
X156441089Y-108499650D01*
X156441086Y-108499650D01*
X156308714Y-108499650D01*
X156296366Y-108502106D01*
X156248324Y-108492548D01*
X156228457Y-108471336D01*
X156205420Y-108431434D01*
X156093616Y-108319630D01*
X155993616Y-108219630D01*
X155906804Y-108169510D01*
X155906804Y-108169509D01*
X155906802Y-108169509D01*
X155856688Y-108140574D01*
X155856685Y-108140573D01*
X155703961Y-108099649D01*
X155703957Y-108099649D01*
X155545843Y-108099649D01*
X155541926Y-108099649D01*
X155541910Y-108099650D01*
X153358238Y-108099650D01*
X153312983Y-108080905D01*
X152469244Y-107237166D01*
X152450499Y-107191911D01*
X152450499Y-106952130D01*
X152450498Y-106952112D01*
X152444091Y-106892521D01*
X152444091Y-106892517D01*
X152393796Y-106757669D01*
X152393793Y-106757665D01*
X152393793Y-106757664D01*
X152307548Y-106642457D01*
X152307546Y-106642454D01*
X152285119Y-106625665D01*
X152192335Y-106556206D01*
X152192336Y-106556206D01*
X152057481Y-106505908D01*
X151997879Y-106499500D01*
X151002130Y-106499500D01*
X151002112Y-106499501D01*
X150942521Y-106505908D01*
X150942518Y-106505908D01*
X150942517Y-106505909D01*
X150807669Y-106556204D01*
X150807664Y-106556206D01*
X150692457Y-106642451D01*
X150692451Y-106642457D01*
X150606206Y-106757664D01*
X150606204Y-106757668D01*
X150606204Y-106757669D01*
X150597288Y-106781572D01*
X150555908Y-106892518D01*
X150549500Y-106952113D01*
X150549500Y-107847869D01*
X150549501Y-107847887D01*
X150555158Y-107900499D01*
X150555909Y-107907483D01*
X150606204Y-108042331D01*
X150606205Y-108042332D01*
X150606206Y-108042335D01*
X150672794Y-108131284D01*
X150692454Y-108157546D01*
X150708436Y-108169510D01*
X150807664Y-108243793D01*
X150807663Y-108243793D01*
X150807666Y-108243794D01*
X150807669Y-108243796D01*
X150942517Y-108294091D01*
X151002127Y-108300500D01*
X151241911Y-108300499D01*
X151287166Y-108319244D01*
X151458167Y-108490245D01*
X151476912Y-108535500D01*
X151458167Y-108580755D01*
X151412912Y-108599500D01*
X151002130Y-108599500D01*
X151002112Y-108599501D01*
X150942521Y-108605908D01*
X150942518Y-108605908D01*
X150942517Y-108605909D01*
X150807669Y-108656204D01*
X150807664Y-108656206D01*
X150692457Y-108742451D01*
X150692451Y-108742457D01*
X150606206Y-108857664D01*
X150555908Y-108992518D01*
X150549500Y-109052113D01*
X150549500Y-109947869D01*
X150549501Y-109947887D01*
X150555908Y-110007478D01*
X150555909Y-110007483D01*
X150606204Y-110142331D01*
X150606205Y-110142332D01*
X150606206Y-110142335D01*
X150620662Y-110161646D01*
X150632777Y-110209108D01*
X150620662Y-110238354D01*
X150606206Y-110257664D01*
X150555908Y-110392518D01*
X150549500Y-110452113D01*
X150549500Y-111347869D01*
X150549501Y-111347887D01*
X150555908Y-111407478D01*
X150555909Y-111407483D01*
X150606204Y-111542331D01*
X150606205Y-111542332D01*
X150606206Y-111542335D01*
X150673930Y-111632801D01*
X150692454Y-111657546D01*
X150692457Y-111657548D01*
X150807664Y-111743793D01*
X150807663Y-111743793D01*
X150807666Y-111743794D01*
X150807669Y-111743796D01*
X150942517Y-111794091D01*
X151002127Y-111800500D01*
X151997872Y-111800499D01*
X151997875Y-111800498D01*
X151997887Y-111800498D01*
X152029624Y-111797085D01*
X152057483Y-111794091D01*
X152192331Y-111743796D01*
X152307546Y-111657546D01*
X152307546Y-111657544D01*
X152307548Y-111657544D01*
X152310787Y-111654306D01*
X152311700Y-111655219D01*
X152349490Y-111632801D01*
X152358594Y-111632150D01*
X153259741Y-111632150D01*
X153304996Y-111650895D01*
X153323741Y-111696150D01*
X153310975Y-111734504D01*
X153256206Y-111807664D01*
X153205908Y-111942518D01*
X153199500Y-112002113D01*
X153199500Y-112997869D01*
X153199501Y-112997887D01*
X153205908Y-113057478D01*
X153205909Y-113057483D01*
X153256204Y-113192331D01*
X153256205Y-113192332D01*
X153256206Y-113192335D01*
X153342451Y-113307542D01*
X153342454Y-113307546D01*
X153342457Y-113307548D01*
X153407952Y-113356578D01*
X153432947Y-113398704D01*
X153420832Y-113446166D01*
X153414853Y-113453067D01*
X150989711Y-115878211D01*
X150878212Y-115989709D01*
X150790606Y-116120820D01*
X150790605Y-116120823D01*
X150730263Y-116266498D01*
X150730262Y-116266504D01*
X150699500Y-116421155D01*
X150699500Y-121810500D01*
X150680755Y-121855755D01*
X150635500Y-121874500D01*
X149202130Y-121874500D01*
X149202112Y-121874501D01*
X149142521Y-121880908D01*
X149142508Y-121880911D01*
X149086709Y-121901722D01*
X149037757Y-121899973D01*
X149019090Y-121887012D01*
X141316396Y-114184318D01*
X141297651Y-114139063D01*
X141302524Y-114114568D01*
X141302544Y-114114519D01*
X141303502Y-114112207D01*
X141367982Y-113871565D01*
X141400500Y-113624565D01*
X141400500Y-113375435D01*
X141367982Y-113128435D01*
X141348970Y-113057483D01*
X141303502Y-112887792D01*
X141208168Y-112657635D01*
X141208165Y-112657630D01*
X141208164Y-112657627D01*
X141083599Y-112441873D01*
X140931938Y-112244224D01*
X140755776Y-112068062D01*
X140558127Y-111916401D01*
X140342373Y-111791836D01*
X140342371Y-111791835D01*
X140342364Y-111791831D01*
X140112207Y-111696497D01*
X139871573Y-111632019D01*
X139871559Y-111632016D01*
X139624570Y-111599500D01*
X139624565Y-111599500D01*
X139375435Y-111599500D01*
X139375429Y-111599500D01*
X139128440Y-111632016D01*
X139128426Y-111632019D01*
X138887792Y-111696497D01*
X138657635Y-111791831D01*
X138441874Y-111916400D01*
X138244225Y-112068061D01*
X138068061Y-112244225D01*
X137916400Y-112441874D01*
X137791831Y-112657635D01*
X137696497Y-112887792D01*
X137632019Y-113128426D01*
X137632016Y-113128440D01*
X137599500Y-113375429D01*
X134600000Y-113375429D01*
X134600000Y-91878705D01*
X136149500Y-91878705D01*
X136149500Y-92121294D01*
X136181160Y-92361783D01*
X136181163Y-92361797D01*
X136243945Y-92596100D01*
X136336773Y-92820207D01*
X136458065Y-93030291D01*
X136531899Y-93126513D01*
X136605735Y-93222738D01*
X136777262Y-93394265D01*
X136915360Y-93500231D01*
X136943195Y-93521590D01*
X136969711Y-93541936D01*
X137179788Y-93663224D01*
X137179789Y-93663224D01*
X137179792Y-93663226D01*
X137403899Y-93756054D01*
X137638202Y-93818836D01*
X137638216Y-93818839D01*
X137833806Y-93844588D01*
X137878712Y-93850500D01*
X138121288Y-93850500D01*
X138241538Y-93834669D01*
X138361783Y-93818839D01*
X138361785Y-93818838D01*
X138361789Y-93818838D01*
X138361794Y-93818836D01*
X138361797Y-93818836D01*
X138596100Y-93756054D01*
X138820207Y-93663226D01*
X138820206Y-93663226D01*
X138820212Y-93663224D01*
X139030289Y-93541936D01*
X139222738Y-93394265D01*
X139394265Y-93222738D01*
X139541936Y-93030289D01*
X139663224Y-92820212D01*
X139756054Y-92596100D01*
X139818838Y-92361789D01*
X139829437Y-92281284D01*
X139839109Y-92207809D01*
X139850500Y-92121288D01*
X139850500Y-91878712D01*
X139818838Y-91638211D01*
X139810283Y-91606284D01*
X139756054Y-91403899D01*
X139663226Y-91179792D01*
X139649607Y-91156204D01*
X139541936Y-90969711D01*
X139514407Y-90933835D01*
X139433222Y-90828032D01*
X139394265Y-90777262D01*
X139222738Y-90605735D01*
X139126513Y-90531899D01*
X139030291Y-90458065D01*
X138820207Y-90336773D01*
X138596100Y-90243945D01*
X138361797Y-90181163D01*
X138361783Y-90181160D01*
X138121294Y-90149500D01*
X138121288Y-90149500D01*
X137878712Y-90149500D01*
X137878705Y-90149500D01*
X137638216Y-90181160D01*
X137638202Y-90181163D01*
X137403899Y-90243945D01*
X137179792Y-90336773D01*
X136969708Y-90458065D01*
X136777263Y-90605734D01*
X136605734Y-90777263D01*
X136458065Y-90969708D01*
X136336773Y-91179792D01*
X136243945Y-91403899D01*
X136181163Y-91638202D01*
X136181160Y-91638216D01*
X136149500Y-91878705D01*
X134600000Y-91878705D01*
X134600000Y-91626510D01*
X134618745Y-91581255D01*
X137581255Y-88618745D01*
X137626510Y-88600000D01*
X180373490Y-88600000D01*
X180418745Y-88618745D01*
G37*
%TD.AperFunction*%
%TD*%
M02*
