%TF.GenerationSoftware,KiCad,Pcbnew,10.0.3*%
%TF.CreationDate,2026-07-03T14:00:46+08:00*%
%TF.ProjectId,project,70726f6a-6563-4742-9e6b-696361645f70,rev?*%
%TF.SameCoordinates,Original*%
%TF.FileFunction,Copper,L4,Bot*%
%TF.FilePolarity,Positive*%
%FSLAX46Y46*%
G04 Gerber Fmt 4.6, Leading zero omitted, Abs format (unit mm)*
G04 Created by KiCad (PCBNEW 10.0.3) date 2026-07-03 14:00:46*
%MOMM*%
%LPD*%
G01*
G04 APERTURE LIST*
G04 Aperture macros list*
%AMRoundRect*
0 Rectangle with rounded corners*
0 $1 Rounding radius*
0 $2 $3 $4 $5 $6 $7 $8 $9 X,Y pos of 4 corners*
0 Add a 4 corners polygon primitive as box body*
4,1,4,$2,$3,$4,$5,$6,$7,$8,$9,$2,$3,0*
0 Add four circle primitives for the rounded corners*
1,1,$1+$1,$2,$3*
1,1,$1+$1,$4,$5*
1,1,$1+$1,$6,$7*
1,1,$1+$1,$8,$9*
0 Add four rect primitives between the rounded corners*
20,1,$1+$1,$2,$3,$4,$5,0*
20,1,$1+$1,$4,$5,$6,$7,0*
20,1,$1+$1,$6,$7,$8,$9,0*
20,1,$1+$1,$8,$9,$2,$3,0*%
G04 Aperture macros list end*
%TA.AperFunction,ComponentPad*%
%ADD10RoundRect,0.250001X-1.149999X1.149999X-1.149999X-1.149999X1.149999X-1.149999X1.149999X1.149999X0*%
%TD*%
%TA.AperFunction,ComponentPad*%
%ADD11C,2.800000*%
%TD*%
%TA.AperFunction,ComponentPad*%
%ADD12RoundRect,0.250000X1.150000X-1.150000X1.150000X1.150000X-1.150000X1.150000X-1.150000X-1.150000X0*%
%TD*%
%TA.AperFunction,ComponentPad*%
%ADD13C,0.600000*%
%TD*%
%TA.AperFunction,ComponentPad*%
%ADD14R,1.700000X1.700000*%
%TD*%
%TA.AperFunction,ComponentPad*%
%ADD15C,1.700000*%
%TD*%
%TA.AperFunction,ViaPad*%
%ADD16C,0.600000*%
%TD*%
%TA.AperFunction,Conductor*%
%ADD17C,0.200000*%
%TD*%
G04 APERTURE END LIST*
D10*
%TO.P,TB_PWR1,1,Pin_1_1*%
%TO.N,GND*%
X140300000Y-108500000D03*
D11*
%TO.P,TB_PWR1,2,Pin_2_2*%
%TO.N,VCC*%
X140300000Y-113500000D03*
%TD*%
D12*
%TO.P,P1,1,Pin_1_1*%
%TO.N,VCC*%
X179000000Y-121000000D03*
D11*
%TO.P,P1,2,Pin_2_2*%
%TO.N,M1*%
X179000000Y-116000000D03*
%TO.P,P1,3,Pin_3_3*%
%TO.N,M2*%
X179000000Y-111000000D03*
%TO.P,P1,4,Pin_4_4*%
%TO.N,M3*%
X179000000Y-106000000D03*
%TO.P,P1,5,Pin_5_5*%
%TO.N,GND*%
X179000000Y-101000000D03*
%TD*%
D13*
%TO.P,U1,29,EP_29*%
%TO.N,GND*%
X155134200Y-113724900D03*
X156134200Y-113724900D03*
X155134200Y-112724900D03*
X156134200Y-112724900D03*
X155134200Y-111724900D03*
X156134200Y-111724900D03*
X155134200Y-110724900D03*
X156134200Y-110724900D03*
%TD*%
D14*
%TO.P,H1,1,Pin_1_1*%
%TO.N,IN1*%
X145340000Y-91500000D03*
D15*
%TO.P,H1,2,Pin_2_2*%
%TO.N,EN1*%
X145340000Y-94040000D03*
%TO.P,H1,3,Pin_3_3*%
%TO.N,IN2*%
X147880000Y-91500000D03*
%TO.P,H1,4,Pin_4_4*%
%TO.N,EN2*%
X147880000Y-94040000D03*
%TO.P,H1,5,Pin_5_5*%
%TO.N,IN3*%
X150420000Y-91500000D03*
%TO.P,H1,6,Pin_6_6*%
%TO.N,EN3*%
X150420000Y-94040000D03*
%TO.P,H1,7,Pin_7_7*%
%TO.N,nFlt*%
X152960000Y-91500000D03*
%TO.P,H1,8,Pin_8_8*%
%TO.N,nCOMPO*%
X152960000Y-94040000D03*
%TO.P,H1,9,Pin_9_9*%
%TO.N,nRes*%
X155500000Y-91500000D03*
%TO.P,H1,10,Pin_10_10*%
%TO.N,nSlp*%
X155500000Y-94040000D03*
%TO.P,H1,11,Pin_11_11*%
%TO.N,VREF*%
X158040000Y-91500000D03*
%TO.P,H1,12,Pin_12_12*%
%TO.N,PGND*%
X158040000Y-94040000D03*
%TO.P,H1,13,Pin_13_13*%
%TO.N,GND*%
X160580000Y-91500000D03*
%TO.P,H1,14,Pin_14_14*%
%TO.N,3.3V*%
X160580000Y-94040000D03*
%TD*%
D16*
%TO.N,GND*%
X167000000Y-103000000D03*
X137000000Y-109000000D03*
X149000000Y-127000000D03*
X159400000Y-105000000D03*
X143000000Y-103000000D03*
X167000000Y-127000000D03*
X137000000Y-127000000D03*
X173000000Y-91000000D03*
X149000000Y-121000000D03*
X143000000Y-109000000D03*
X143000000Y-91000000D03*
X155000000Y-121000000D03*
X137000000Y-103000000D03*
X161000000Y-121000000D03*
X173000000Y-103000000D03*
X179000000Y-127000000D03*
X179000000Y-97000000D03*
X167000000Y-91000000D03*
X155000000Y-127000000D03*
X143000000Y-97000000D03*
X143000000Y-133000000D03*
X163100000Y-101900000D03*
X173000000Y-97000000D03*
X161000000Y-127000000D03*
X149000000Y-115000000D03*
X137000000Y-121000000D03*
X167000000Y-121000000D03*
X137000000Y-97000000D03*
%TO.N,3.3V*%
X156500000Y-101700000D03*
X152500000Y-101700000D03*
X154500000Y-101700000D03*
X150600000Y-101700000D03*
%TO.N,M1*%
X161000000Y-114000000D03*
X163000000Y-114000000D03*
X162000000Y-114000000D03*
%TO.N,M2*%
X162000000Y-111700000D03*
X164000000Y-111700000D03*
X163000000Y-111700000D03*
%TO.N,M3*%
X161500000Y-110600000D03*
X163500000Y-110600000D03*
X162500000Y-110600000D03*
%TO.N,PGND*%
X161900000Y-109700000D03*
X160800000Y-106900000D03*
%TD*%
%TO.N,3.3V*%
D17*
X156500000Y-101700000D02*
X150600000Y-101700000D01*
X154600000Y-101600000D02*
X154500000Y-101700000D01*
%TO.N,PGND*%
X158040000Y-94040000D02*
X161400000Y-97400000D01*
X160800000Y-108600000D02*
X160800000Y-106900000D01*
X161400000Y-97400000D02*
X161400000Y-106300000D01*
X161400000Y-106300000D02*
X160800000Y-106900000D01*
X161900000Y-109700000D02*
X160800000Y-108600000D01*
%TD*%
%TA.AperFunction,Conductor*%
%TO.N,M2*%
G36*
X181183365Y-108596118D02*
G01*
X181198372Y-108600492D01*
X181213397Y-108610105D01*
X181230524Y-108615101D01*
X181257207Y-108638137D01*
X181257225Y-108638149D01*
X181257239Y-108638165D01*
X181258427Y-108639531D01*
X181285974Y-108694300D01*
X181287634Y-108701857D01*
X181290522Y-108728215D01*
X181299551Y-113274259D01*
X181279999Y-113341337D01*
X181227286Y-113387197D01*
X181158582Y-113397339D01*
X181148115Y-113395893D01*
X176029279Y-113423857D01*
X176027753Y-113423856D01*
X175878167Y-113422832D01*
X175867493Y-113422298D01*
X166886888Y-112584109D01*
X161830230Y-112112153D01*
X161795918Y-112103908D01*
X161781391Y-112098129D01*
X161767345Y-112087132D01*
X161750774Y-112080538D01*
X161726385Y-112055065D01*
X161726376Y-112055058D01*
X161723535Y-112051087D01*
X161702134Y-111999644D01*
X161701738Y-111997304D01*
X161700765Y-111985730D01*
X161700549Y-111985108D01*
X161700670Y-111984600D01*
X161700000Y-111976614D01*
X161700000Y-111488022D01*
X161705023Y-111453086D01*
X161709427Y-111438088D01*
X161719059Y-111423095D01*
X161724071Y-111406011D01*
X161747177Y-111379332D01*
X161749013Y-111377740D01*
X161802753Y-111350518D01*
X161809262Y-111349038D01*
X161834430Y-111345977D01*
X164300000Y-111300000D01*
X166249716Y-110875465D01*
X177100000Y-110875465D01*
X177100000Y-111124533D01*
X177132506Y-111371452D01*
X177132507Y-111371457D01*
X177132508Y-111371463D01*
X177146343Y-111423095D01*
X177196973Y-111612051D01*
X177292285Y-111842154D01*
X177416808Y-112057833D01*
X177416816Y-112057846D01*
X177447727Y-112098129D01*
X177491400Y-112155045D01*
X178282924Y-111363520D01*
X178344245Y-111330037D01*
X178413936Y-111335021D01*
X178469870Y-111376893D01*
X178473691Y-111382292D01*
X178495112Y-111414351D01*
X178495116Y-111414355D01*
X178495116Y-111414356D01*
X178585643Y-111504883D01*
X178585646Y-111504885D01*
X178585649Y-111504888D01*
X178617685Y-111526293D01*
X178662489Y-111579904D01*
X178671197Y-111649229D01*
X178641043Y-111712257D01*
X178636475Y-111717076D01*
X177844953Y-112508597D01*
X177844953Y-112508598D01*
X177911284Y-112559496D01*
X177942152Y-112583182D01*
X177942155Y-112583184D01*
X177942158Y-112583186D01*
X178157840Y-112707711D01*
X178157851Y-112707716D01*
X178387950Y-112803026D01*
X178628536Y-112867491D01*
X178875466Y-112900000D01*
X179124527Y-112900000D01*
X179124534Y-112900000D01*
X179371463Y-112867491D01*
X179612049Y-112803026D01*
X179842148Y-112707716D01*
X179842159Y-112707711D01*
X180057855Y-112583178D01*
X180155045Y-112508600D01*
X180155045Y-112508597D01*
X179701493Y-112055045D01*
X179363524Y-111717076D01*
X179330039Y-111655753D01*
X179335023Y-111586061D01*
X179376895Y-111530128D01*
X179382270Y-111526323D01*
X179414351Y-111504888D01*
X179504888Y-111414351D01*
X179526295Y-111382312D01*
X179579903Y-111337510D01*
X179649227Y-111328801D01*
X179712256Y-111358955D01*
X179717074Y-111363522D01*
X180508597Y-112155045D01*
X180508599Y-112155045D01*
X180508600Y-112155045D01*
X180583178Y-112057855D01*
X180707711Y-111842159D01*
X180707716Y-111842148D01*
X180803026Y-111612049D01*
X180867491Y-111371463D01*
X180900000Y-111124533D01*
X180900000Y-110875466D01*
X180867491Y-110628536D01*
X180803026Y-110387950D01*
X180707716Y-110157851D01*
X180707711Y-110157840D01*
X180583186Y-109942158D01*
X180583180Y-109942150D01*
X180508598Y-109844953D01*
X180508597Y-109844953D01*
X179717076Y-110636474D01*
X179655753Y-110669959D01*
X179586061Y-110664975D01*
X179530128Y-110623103D01*
X179526293Y-110617684D01*
X179504886Y-110585646D01*
X179414356Y-110495116D01*
X179414352Y-110495113D01*
X179414351Y-110495112D01*
X179382310Y-110473703D01*
X179337507Y-110420091D01*
X179328800Y-110350766D01*
X179358955Y-110287739D01*
X179363501Y-110282942D01*
X180155045Y-109491400D01*
X180155044Y-109491399D01*
X180057846Y-109416816D01*
X180057833Y-109416808D01*
X179842154Y-109292285D01*
X179612053Y-109196974D01*
X179491756Y-109164740D01*
X179371463Y-109132508D01*
X179371462Y-109132507D01*
X179371459Y-109132507D01*
X179124535Y-109100000D01*
X179124534Y-109100000D01*
X178875466Y-109100000D01*
X178875465Y-109100000D01*
X178628546Y-109132506D01*
X178628539Y-109132507D01*
X178628536Y-109132508D01*
X178581342Y-109145153D01*
X178387947Y-109196973D01*
X178157846Y-109292284D01*
X177942150Y-109416818D01*
X177942134Y-109416829D01*
X177844953Y-109491398D01*
X177844953Y-109491400D01*
X178636475Y-110282922D01*
X178669960Y-110344245D01*
X178664976Y-110413937D01*
X178623104Y-110469870D01*
X178617688Y-110473703D01*
X178585648Y-110495112D01*
X178585643Y-110495116D01*
X178495116Y-110585643D01*
X178495112Y-110585648D01*
X178473703Y-110617688D01*
X178420090Y-110662491D01*
X178350764Y-110671197D01*
X178287738Y-110641040D01*
X178282922Y-110636475D01*
X177491400Y-109844953D01*
X177491399Y-109844953D01*
X177491398Y-109844953D01*
X177416829Y-109942134D01*
X177416818Y-109942150D01*
X177292284Y-110157846D01*
X177196973Y-110387947D01*
X177132509Y-110628533D01*
X177132506Y-110628546D01*
X177100000Y-110875465D01*
X166249716Y-110875465D01*
X176680662Y-108604210D01*
X176693634Y-108602100D01*
X176706657Y-108600685D01*
X176719788Y-108599959D01*
X181148423Y-108591164D01*
X181183365Y-108596118D01*
G37*
%TD.AperFunction*%
%TD*%
%TA.AperFunction,Conductor*%
%TO.N,M3*%
G36*
X181193106Y-103605023D02*
G01*
X181208104Y-103609427D01*
X181223094Y-103619057D01*
X181240175Y-103624067D01*
X181266855Y-103647172D01*
X181268042Y-103648541D01*
X181295518Y-103703402D01*
X181297163Y-103710960D01*
X181300000Y-103737331D01*
X181300000Y-108163325D01*
X181280315Y-108230364D01*
X181227511Y-108276119D01*
X181167400Y-108287026D01*
X181147838Y-108285666D01*
X181147820Y-108285665D01*
X181147816Y-108285665D01*
X180536969Y-108286878D01*
X176719156Y-108294460D01*
X176702940Y-108294924D01*
X176689785Y-108295651D01*
X176673647Y-108296973D01*
X176660650Y-108298385D01*
X176644587Y-108300562D01*
X176631607Y-108302674D01*
X176615666Y-108305703D01*
X172272064Y-109251487D01*
X172269099Y-109252095D01*
X163717387Y-110896656D01*
X163705733Y-110898328D01*
X163702477Y-110898638D01*
X163694049Y-110899441D01*
X163682290Y-110900000D01*
X161341830Y-110900000D01*
X161306889Y-110894975D01*
X161291890Y-110890570D01*
X161233144Y-110852827D01*
X161231957Y-110851458D01*
X161204477Y-110796583D01*
X161202832Y-110789021D01*
X161200000Y-110762668D01*
X161200000Y-110399105D01*
X161203203Y-110371103D01*
X161204011Y-110367614D01*
X161205330Y-110363124D01*
X161205353Y-110361826D01*
X161206931Y-110355021D01*
X161221866Y-110328531D01*
X161230631Y-110309782D01*
X161229282Y-110308883D01*
X161229344Y-110308790D01*
X161232222Y-110306379D01*
X161234744Y-110300986D01*
X161234759Y-110300970D01*
X161239487Y-110295613D01*
X161240113Y-110296166D01*
X161241246Y-110294158D01*
X161256340Y-110286180D01*
X161282909Y-110263929D01*
X161282912Y-110263927D01*
X161433267Y-110198512D01*
X161467294Y-110189184D01*
X161489674Y-110186377D01*
X161546723Y-110192607D01*
X161550464Y-110193940D01*
X161558128Y-110197482D01*
X161558637Y-110197565D01*
X161558986Y-110197879D01*
X161570843Y-110203359D01*
X161668216Y-110259577D01*
X161820943Y-110300500D01*
X161820945Y-110300500D01*
X161979055Y-110300500D01*
X161979057Y-110300500D01*
X162131784Y-110259577D01*
X162268716Y-110180520D01*
X162380520Y-110068716D01*
X162459577Y-109931784D01*
X162494016Y-109803251D01*
X162507910Y-109770808D01*
X162520248Y-109750567D01*
X162558747Y-109711012D01*
X162560360Y-109709969D01*
X162571460Y-109704013D01*
X162571949Y-109703570D01*
X162572442Y-109703486D01*
X162578247Y-109700372D01*
X171369825Y-105875465D01*
X177100000Y-105875465D01*
X177100000Y-106124533D01*
X177132506Y-106371452D01*
X177132507Y-106371457D01*
X177132508Y-106371463D01*
X177162426Y-106483121D01*
X177196973Y-106612051D01*
X177292285Y-106842154D01*
X177416808Y-107057833D01*
X177416816Y-107057846D01*
X177416824Y-107057856D01*
X177491400Y-107155045D01*
X178282924Y-106363520D01*
X178344245Y-106330037D01*
X178413936Y-106335021D01*
X178469870Y-106376893D01*
X178473691Y-106382292D01*
X178495112Y-106414351D01*
X178495116Y-106414355D01*
X178495116Y-106414356D01*
X178585643Y-106504883D01*
X178585646Y-106504885D01*
X178585649Y-106504888D01*
X178617685Y-106526293D01*
X178662489Y-106579904D01*
X178671197Y-106649229D01*
X178641043Y-106712257D01*
X178636475Y-106717076D01*
X177844953Y-107508597D01*
X177844953Y-107508598D01*
X177911284Y-107559496D01*
X177942152Y-107583182D01*
X177942155Y-107583184D01*
X177942158Y-107583186D01*
X178157840Y-107707711D01*
X178157851Y-107707716D01*
X178387950Y-107803026D01*
X178628536Y-107867491D01*
X178875466Y-107900000D01*
X179124527Y-107900000D01*
X179124534Y-107900000D01*
X179371463Y-107867491D01*
X179612049Y-107803026D01*
X179842148Y-107707716D01*
X179842159Y-107707711D01*
X180057855Y-107583178D01*
X180155045Y-107508600D01*
X180155045Y-107508597D01*
X179704281Y-107057833D01*
X179363524Y-106717076D01*
X179330039Y-106655753D01*
X179335023Y-106586061D01*
X179376895Y-106530128D01*
X179382270Y-106526323D01*
X179414351Y-106504888D01*
X179504888Y-106414351D01*
X179526295Y-106382312D01*
X179579903Y-106337510D01*
X179649227Y-106328801D01*
X179712256Y-106358955D01*
X179717074Y-106363522D01*
X180508597Y-107155045D01*
X180508599Y-107155045D01*
X180508600Y-107155045D01*
X180583178Y-107057855D01*
X180707711Y-106842159D01*
X180707716Y-106842148D01*
X180803026Y-106612049D01*
X180867491Y-106371463D01*
X180900000Y-106124533D01*
X180900000Y-105875466D01*
X180867491Y-105628536D01*
X180803026Y-105387950D01*
X180707716Y-105157851D01*
X180707711Y-105157840D01*
X180583186Y-104942158D01*
X180583180Y-104942150D01*
X180508598Y-104844953D01*
X180508597Y-104844953D01*
X179717076Y-105636474D01*
X179655753Y-105669959D01*
X179586061Y-105664975D01*
X179530128Y-105623103D01*
X179526293Y-105617684D01*
X179504886Y-105585646D01*
X179414356Y-105495116D01*
X179414352Y-105495113D01*
X179414351Y-105495112D01*
X179382310Y-105473703D01*
X179337507Y-105420091D01*
X179328800Y-105350766D01*
X179358955Y-105287739D01*
X179363501Y-105282942D01*
X180155045Y-104491400D01*
X180155044Y-104491399D01*
X180057846Y-104416816D01*
X180057833Y-104416808D01*
X179842154Y-104292285D01*
X179612053Y-104196974D01*
X179491756Y-104164740D01*
X179371463Y-104132508D01*
X179371462Y-104132507D01*
X179371459Y-104132507D01*
X179124535Y-104100000D01*
X179124534Y-104100000D01*
X178875466Y-104100000D01*
X178875465Y-104100000D01*
X178628546Y-104132506D01*
X178628539Y-104132507D01*
X178628536Y-104132508D01*
X178581342Y-104145153D01*
X178387947Y-104196973D01*
X178157846Y-104292284D01*
X177942150Y-104416818D01*
X177942134Y-104416829D01*
X177844953Y-104491398D01*
X177844953Y-104491400D01*
X178636475Y-105282922D01*
X178669960Y-105344245D01*
X178664976Y-105413937D01*
X178623104Y-105469870D01*
X178617688Y-105473703D01*
X178585648Y-105495112D01*
X178585643Y-105495116D01*
X178495116Y-105585643D01*
X178495112Y-105585648D01*
X178473703Y-105617688D01*
X178420090Y-105662491D01*
X178350764Y-105671197D01*
X178287738Y-105641040D01*
X178282922Y-105636475D01*
X177491400Y-104844953D01*
X177491399Y-104844953D01*
X177491398Y-104844953D01*
X177416829Y-104942134D01*
X177416818Y-104942150D01*
X177292284Y-105157846D01*
X177196973Y-105387947D01*
X177132509Y-105628533D01*
X177132506Y-105628546D01*
X177100000Y-105875465D01*
X171369825Y-105875465D01*
X174275022Y-104611516D01*
X174702242Y-104425648D01*
X176564638Y-103615384D01*
X176588830Y-103607694D01*
X176613313Y-103602599D01*
X176638572Y-103600000D01*
X181158170Y-103600000D01*
X181193106Y-103605023D01*
G37*
%TD.AperFunction*%
%TD*%
%TA.AperFunction,Conductor*%
%TO.N,M1*%
G36*
X176028254Y-113729368D02*
G01*
X181149784Y-113701388D01*
X181216929Y-113720706D01*
X181262971Y-113773259D01*
X181274458Y-113824709D01*
X181299319Y-118375323D01*
X181280001Y-118442469D01*
X181227448Y-118488511D01*
X181175321Y-118500000D01*
X176416300Y-118500000D01*
X176384255Y-118495788D01*
X175933945Y-118375323D01*
X172962575Y-117580434D01*
X167021853Y-115991196D01*
X166589243Y-115875466D01*
X177100000Y-115875466D01*
X177100000Y-116124533D01*
X177132508Y-116371463D01*
X177196973Y-116612049D01*
X177292283Y-116842148D01*
X177292288Y-116842159D01*
X177416813Y-117057841D01*
X177416819Y-117057849D01*
X177491400Y-117155045D01*
X178398958Y-116247487D01*
X178423978Y-116307890D01*
X178495112Y-116414351D01*
X178585649Y-116504888D01*
X178692110Y-116576022D01*
X178752511Y-116601041D01*
X177844953Y-117508598D01*
X177942150Y-117583180D01*
X177942158Y-117583186D01*
X178157840Y-117707711D01*
X178157851Y-117707716D01*
X178387950Y-117803026D01*
X178628536Y-117867491D01*
X178875466Y-117900000D01*
X179124534Y-117900000D01*
X179371463Y-117867491D01*
X179612049Y-117803026D01*
X179842148Y-117707716D01*
X179842159Y-117707711D01*
X180057855Y-117583178D01*
X180155045Y-117508600D01*
X180155045Y-117508597D01*
X179247488Y-116601041D01*
X179307890Y-116576022D01*
X179414351Y-116504888D01*
X179504888Y-116414351D01*
X179576022Y-116307890D01*
X179601041Y-116247489D01*
X180508597Y-117155045D01*
X180508600Y-117155045D01*
X180583178Y-117057855D01*
X180707711Y-116842159D01*
X180707716Y-116842148D01*
X180803026Y-116612049D01*
X180867491Y-116371463D01*
X180900000Y-116124533D01*
X180900000Y-115875466D01*
X180867491Y-115628536D01*
X180803026Y-115387950D01*
X180707716Y-115157851D01*
X180707711Y-115157840D01*
X180583186Y-114942158D01*
X180583180Y-114942150D01*
X180508598Y-114844953D01*
X179601041Y-115752510D01*
X179576022Y-115692110D01*
X179504888Y-115585649D01*
X179414351Y-115495112D01*
X179307890Y-115423978D01*
X179247487Y-115398957D01*
X180155045Y-114491400D01*
X180057849Y-114416819D01*
X180057841Y-114416813D01*
X179842159Y-114292288D01*
X179842148Y-114292283D01*
X179612049Y-114196973D01*
X179371463Y-114132508D01*
X179124534Y-114100000D01*
X178875466Y-114100000D01*
X178628536Y-114132508D01*
X178387950Y-114196973D01*
X178157851Y-114292283D01*
X178157847Y-114292285D01*
X177942143Y-114416823D01*
X177844953Y-114491399D01*
X177844953Y-114491400D01*
X178752511Y-115398958D01*
X178692110Y-115423978D01*
X178585649Y-115495112D01*
X178495112Y-115585649D01*
X178423978Y-115692110D01*
X178398958Y-115752511D01*
X177491400Y-114844953D01*
X177491399Y-114844953D01*
X177416823Y-114942143D01*
X177292285Y-115157847D01*
X177292283Y-115157851D01*
X177196973Y-115387950D01*
X177132508Y-115628536D01*
X177100000Y-115875466D01*
X166589243Y-115875466D01*
X162042505Y-114659141D01*
X160793716Y-114325070D01*
X160734041Y-114288729D01*
X160703486Y-114225894D01*
X160701782Y-114203009D01*
X160710160Y-113747133D01*
X160731073Y-113680470D01*
X160784709Y-113635693D01*
X160834984Y-113625418D01*
X176028254Y-113729368D01*
G37*
%TD.AperFunction*%
%TD*%
%TA.AperFunction,Conductor*%
%TO.N,GND*%
G36*
X180385247Y-88604870D02*
G01*
X180406985Y-88613874D01*
X180427745Y-88627745D01*
X183372254Y-91572254D01*
X183386125Y-91593014D01*
X183395128Y-91614747D01*
X183400000Y-91639238D01*
X183400000Y-134360761D01*
X183395127Y-134385252D01*
X183386128Y-134406981D01*
X183386127Y-134406983D01*
X183372254Y-134427745D01*
X180427745Y-137372254D01*
X180406983Y-137386126D01*
X180385250Y-137395128D01*
X180360761Y-137400000D01*
X137639239Y-137400000D01*
X137614748Y-137395128D01*
X137593016Y-137386126D01*
X137572254Y-137372254D01*
X134627745Y-134427745D01*
X134613874Y-134406985D01*
X134604870Y-134385247D01*
X134600000Y-134360761D01*
X134600000Y-133881976D01*
X136199500Y-133881976D01*
X136199500Y-134118022D01*
X136230304Y-134352003D01*
X136230306Y-134352014D01*
X136230310Y-134352031D01*
X136248186Y-134418745D01*
X136291393Y-134579993D01*
X136381716Y-134798050D01*
X136499728Y-135002452D01*
X136571567Y-135096074D01*
X136571566Y-135096074D01*
X136643399Y-135189688D01*
X136643402Y-135189692D01*
X136643408Y-135189699D01*
X136810301Y-135356592D01*
X136997550Y-135500273D01*
X137005998Y-135505150D01*
X137021758Y-135514250D01*
X137021759Y-135514250D01*
X137201949Y-135618283D01*
X137420006Y-135708606D01*
X137647977Y-135769691D01*
X137647991Y-135769694D01*
X137792899Y-135788771D01*
X137881989Y-135800500D01*
X138118011Y-135800500D01*
X138118013Y-135800500D01*
X138118015Y-135800499D01*
X138262924Y-135781421D01*
X138347863Y-135770239D01*
X138349844Y-135770109D01*
X138350134Y-135770054D01*
X138351997Y-135769752D01*
X138354688Y-135768985D01*
X138354813Y-135768999D01*
X138355684Y-135768710D01*
X138406531Y-135755085D01*
X138579993Y-135708606D01*
X138798049Y-135618284D01*
X139002450Y-135500273D01*
X139189699Y-135356592D01*
X139356592Y-135189699D01*
X139500273Y-135002450D01*
X139618284Y-134798049D01*
X139708606Y-134579993D01*
X139769691Y-134352022D01*
X139769694Y-134352008D01*
X139800226Y-134120085D01*
X139800396Y-134119063D01*
X139800500Y-134118015D01*
X139800500Y-133883039D01*
X139800500Y-133881988D01*
X139800499Y-133881983D01*
X139800498Y-133881976D01*
X178199500Y-133881976D01*
X178199500Y-134118022D01*
X178230304Y-134352003D01*
X178230306Y-134352014D01*
X178230310Y-134352031D01*
X178248186Y-134418745D01*
X178291393Y-134579993D01*
X178381716Y-134798050D01*
X178499728Y-135002452D01*
X178571567Y-135096074D01*
X178571566Y-135096074D01*
X178643399Y-135189688D01*
X178643402Y-135189692D01*
X178643408Y-135189699D01*
X178810301Y-135356592D01*
X178997550Y-135500273D01*
X179005998Y-135505150D01*
X179021758Y-135514250D01*
X179021759Y-135514250D01*
X179201949Y-135618283D01*
X179420006Y-135708606D01*
X179647977Y-135769691D01*
X179647991Y-135769694D01*
X179792899Y-135788771D01*
X179881989Y-135800500D01*
X180118011Y-135800500D01*
X180118013Y-135800500D01*
X180118015Y-135800499D01*
X180262924Y-135781421D01*
X180347863Y-135770239D01*
X180349844Y-135770109D01*
X180350134Y-135770054D01*
X180351997Y-135769752D01*
X180354688Y-135768985D01*
X180354813Y-135768999D01*
X180355684Y-135768710D01*
X180406531Y-135755085D01*
X180579993Y-135708606D01*
X180798049Y-135618284D01*
X181002450Y-135500273D01*
X181189699Y-135356592D01*
X181356592Y-135189699D01*
X181500273Y-135002450D01*
X181618284Y-134798049D01*
X181708606Y-134579993D01*
X181769691Y-134352022D01*
X181769694Y-134352008D01*
X181800226Y-134120085D01*
X181800396Y-134119063D01*
X181800500Y-134118015D01*
X181800500Y-133881983D01*
X181800395Y-133880932D01*
X181800226Y-133879909D01*
X181769694Y-133647991D01*
X181769691Y-133647977D01*
X181708606Y-133420006D01*
X181618283Y-133201949D01*
X181500271Y-132997547D01*
X181493144Y-132988259D01*
X181459695Y-132944666D01*
X181459695Y-132944665D01*
X181356600Y-132810311D01*
X181356597Y-132810308D01*
X181356592Y-132810301D01*
X181189699Y-132643408D01*
X181189692Y-132643402D01*
X181189688Y-132643399D01*
X181096074Y-132571566D01*
X181096074Y-132571567D01*
X181002452Y-132499728D01*
X180798050Y-132381716D01*
X180579993Y-132291393D01*
X180579994Y-132291393D01*
X180579991Y-132291392D01*
X180352031Y-132230310D01*
X180352014Y-132230306D01*
X180352003Y-132230304D01*
X180118022Y-132199500D01*
X180118016Y-132199500D01*
X180118011Y-132199500D01*
X179881989Y-132199500D01*
X179881983Y-132199500D01*
X179881976Y-132199500D01*
X179647995Y-132230304D01*
X179647984Y-132230306D01*
X179647967Y-132230310D01*
X179420008Y-132291392D01*
X179420007Y-132291392D01*
X179201950Y-132381715D01*
X178997545Y-132499728D01*
X178997540Y-132499732D01*
X178810312Y-132643398D01*
X178810302Y-132643407D01*
X178643407Y-132810302D01*
X178643398Y-132810312D01*
X178499732Y-132997540D01*
X178499728Y-132997545D01*
X178381715Y-133201950D01*
X178291392Y-133420007D01*
X178291392Y-133420008D01*
X178230310Y-133647967D01*
X178230306Y-133647984D01*
X178230304Y-133647995D01*
X178199500Y-133881976D01*
X139800498Y-133881976D01*
X139769694Y-133647991D01*
X139769691Y-133647977D01*
X139708606Y-133420006D01*
X139618283Y-133201949D01*
X139500271Y-132997547D01*
X139493144Y-132988259D01*
X139459695Y-132944666D01*
X139459695Y-132944665D01*
X139356600Y-132810311D01*
X139356597Y-132810308D01*
X139356592Y-132810301D01*
X139189699Y-132643408D01*
X139189692Y-132643402D01*
X139189688Y-132643399D01*
X139096074Y-132571566D01*
X139096074Y-132571567D01*
X139002452Y-132499728D01*
X138798050Y-132381716D01*
X138579993Y-132291393D01*
X138579994Y-132291393D01*
X138579991Y-132291392D01*
X138352031Y-132230310D01*
X138352014Y-132230306D01*
X138352003Y-132230304D01*
X138118022Y-132199500D01*
X138118016Y-132199500D01*
X138118011Y-132199500D01*
X137881989Y-132199500D01*
X137881983Y-132199500D01*
X137881976Y-132199500D01*
X137647995Y-132230304D01*
X137647984Y-132230306D01*
X137647967Y-132230310D01*
X137420008Y-132291392D01*
X137420007Y-132291392D01*
X137201950Y-132381715D01*
X136997545Y-132499728D01*
X136997540Y-132499732D01*
X136810312Y-132643398D01*
X136810302Y-132643407D01*
X136643407Y-132810302D01*
X136643398Y-132810312D01*
X136499732Y-132997540D01*
X136499728Y-132997545D01*
X136381715Y-133201950D01*
X136291392Y-133420007D01*
X136291392Y-133420008D01*
X136230310Y-133647967D01*
X136230306Y-133647984D01*
X136230304Y-133647995D01*
X136199500Y-133881976D01*
X134600000Y-133881976D01*
X134600000Y-113375420D01*
X138399500Y-113375420D01*
X138399500Y-113624578D01*
X138432014Y-113871553D01*
X138432017Y-113871565D01*
X138432021Y-113871582D01*
X138496496Y-114112204D01*
X138496496Y-114112205D01*
X138591828Y-114342359D01*
X138591831Y-114342364D01*
X138591835Y-114342371D01*
X138591836Y-114342373D01*
X138716401Y-114558127D01*
X138868062Y-114755776D01*
X139044224Y-114931938D01*
X139241873Y-115083599D01*
X139457210Y-115207923D01*
X139457736Y-115208227D01*
X139458505Y-115208559D01*
X139458750Y-115208669D01*
X139459704Y-115209025D01*
X139687792Y-115303502D01*
X139928426Y-115367980D01*
X139928440Y-115367983D01*
X140078908Y-115387792D01*
X140175435Y-115400500D01*
X140424565Y-115400500D01*
X140424567Y-115400500D01*
X140424569Y-115400499D01*
X140577526Y-115380362D01*
X140667412Y-115368528D01*
X140669389Y-115368399D01*
X140669685Y-115368343D01*
X140671548Y-115368041D01*
X140674239Y-115367274D01*
X140674364Y-115367288D01*
X140675235Y-115366999D01*
X140728790Y-115352648D01*
X140912207Y-115303502D01*
X141142364Y-115208168D01*
X141142365Y-115208167D01*
X141142373Y-115208164D01*
X141142377Y-115208161D01*
X141142755Y-115208005D01*
X141144136Y-115207145D01*
X141358127Y-115083599D01*
X141555776Y-114931938D01*
X141731938Y-114755776D01*
X141883599Y-114558127D01*
X142008164Y-114342373D01*
X142068588Y-114196498D01*
X142103502Y-114112207D01*
X142159975Y-113901449D01*
X142167980Y-113871573D01*
X142167983Y-113871559D01*
X142200225Y-113626648D01*
X142200395Y-113625622D01*
X142200500Y-113624569D01*
X142200500Y-113375429D01*
X142200396Y-113374379D01*
X142200225Y-113373353D01*
X142198090Y-113357134D01*
X142167982Y-113128435D01*
X142104043Y-112889813D01*
X142103661Y-112888174D01*
X142061219Y-112785713D01*
X142008168Y-112657635D01*
X142008165Y-112657630D01*
X142008164Y-112657627D01*
X141883599Y-112441873D01*
X141731938Y-112244224D01*
X141555776Y-112068062D01*
X141358127Y-111916401D01*
X141142373Y-111791836D01*
X141142371Y-111791835D01*
X141142364Y-111791831D01*
X141142359Y-111791828D01*
X140912205Y-111696496D01*
X140671582Y-111632021D01*
X140671565Y-111632017D01*
X140671552Y-111632014D01*
X140671553Y-111632014D01*
X140424578Y-111599500D01*
X140424570Y-111599500D01*
X140424565Y-111599500D01*
X140175435Y-111599500D01*
X140175429Y-111599500D01*
X140175420Y-111599500D01*
X139928445Y-111632014D01*
X139928433Y-111632017D01*
X139928416Y-111632021D01*
X139687794Y-111696496D01*
X139687792Y-111696496D01*
X139457643Y-111791826D01*
X139241875Y-111916399D01*
X139044226Y-112068060D01*
X138868060Y-112244226D01*
X138716399Y-112441875D01*
X138591826Y-112657643D01*
X138496496Y-112887792D01*
X138496496Y-112887794D01*
X138432021Y-113128416D01*
X138432017Y-113128433D01*
X138432014Y-113128445D01*
X138399500Y-113375420D01*
X134600000Y-113375420D01*
X134600000Y-101621152D01*
X149799500Y-101621152D01*
X149799500Y-101778846D01*
X149830066Y-101932511D01*
X149830218Y-101933346D01*
X149830264Y-101933505D01*
X149882897Y-102060568D01*
X149890606Y-102079179D01*
X149978211Y-102210289D01*
X150089711Y-102321789D01*
X150220820Y-102409393D01*
X150220824Y-102409396D01*
X150284355Y-102435711D01*
X150284356Y-102435711D01*
X150363616Y-102468542D01*
X150365875Y-102469611D01*
X150366493Y-102469733D01*
X150366498Y-102469736D01*
X150366502Y-102469736D01*
X150366503Y-102469737D01*
X150405166Y-102477427D01*
X150428366Y-102482042D01*
X150521152Y-102500500D01*
X150678845Y-102500500D01*
X150678848Y-102500500D01*
X150725353Y-102491248D01*
X150771635Y-102482042D01*
X150833497Y-102469737D01*
X150833498Y-102469736D01*
X150833501Y-102469736D01*
X150870705Y-102454324D01*
X150883874Y-102448870D01*
X150883875Y-102448870D01*
X150948039Y-102422291D01*
X150979179Y-102409394D01*
X151110289Y-102321789D01*
X151110293Y-102321784D01*
X151110917Y-102321368D01*
X151121975Y-102315458D01*
X151146328Y-102305370D01*
X151170817Y-102300500D01*
X151929183Y-102300500D01*
X151953670Y-102305370D01*
X151978024Y-102315458D01*
X151989082Y-102321368D01*
X151989708Y-102321786D01*
X151989711Y-102321789D01*
X152120820Y-102409393D01*
X152120824Y-102409396D01*
X152184355Y-102435711D01*
X152184356Y-102435711D01*
X152263616Y-102468542D01*
X152265875Y-102469611D01*
X152266493Y-102469733D01*
X152266498Y-102469736D01*
X152266502Y-102469736D01*
X152266503Y-102469737D01*
X152305166Y-102477427D01*
X152328366Y-102482042D01*
X152421152Y-102500500D01*
X152578845Y-102500500D01*
X152578848Y-102500500D01*
X152625353Y-102491248D01*
X152671635Y-102482042D01*
X152733497Y-102469737D01*
X152733498Y-102469736D01*
X152733501Y-102469736D01*
X152770705Y-102454324D01*
X152783874Y-102448870D01*
X152783875Y-102448870D01*
X152848039Y-102422291D01*
X152879179Y-102409394D01*
X153010289Y-102321789D01*
X153010293Y-102321784D01*
X153010917Y-102321368D01*
X153021975Y-102315458D01*
X153046328Y-102305370D01*
X153070817Y-102300500D01*
X153929183Y-102300500D01*
X153953670Y-102305370D01*
X153978024Y-102315458D01*
X153989082Y-102321368D01*
X153989708Y-102321786D01*
X153989711Y-102321789D01*
X154120820Y-102409393D01*
X154120824Y-102409396D01*
X154184355Y-102435711D01*
X154184356Y-102435711D01*
X154263616Y-102468542D01*
X154265875Y-102469611D01*
X154266493Y-102469733D01*
X154266498Y-102469736D01*
X154266502Y-102469736D01*
X154266503Y-102469737D01*
X154305166Y-102477427D01*
X154328366Y-102482042D01*
X154421152Y-102500500D01*
X154578845Y-102500500D01*
X154578848Y-102500500D01*
X154625353Y-102491248D01*
X154671635Y-102482042D01*
X154733497Y-102469737D01*
X154733498Y-102469736D01*
X154733501Y-102469736D01*
X154770705Y-102454324D01*
X154783874Y-102448870D01*
X154783875Y-102448870D01*
X154848039Y-102422291D01*
X154879179Y-102409394D01*
X155010289Y-102321789D01*
X155010293Y-102321784D01*
X155010917Y-102321368D01*
X155021975Y-102315458D01*
X155046328Y-102305370D01*
X155070817Y-102300500D01*
X155929183Y-102300500D01*
X155953670Y-102305370D01*
X155978024Y-102315458D01*
X155989082Y-102321368D01*
X155989708Y-102321786D01*
X155989711Y-102321789D01*
X156120820Y-102409393D01*
X156120824Y-102409396D01*
X156184355Y-102435711D01*
X156184356Y-102435711D01*
X156263616Y-102468542D01*
X156265875Y-102469611D01*
X156266493Y-102469733D01*
X156266498Y-102469736D01*
X156266502Y-102469736D01*
X156266503Y-102469737D01*
X156305166Y-102477427D01*
X156328366Y-102482042D01*
X156421152Y-102500500D01*
X156578845Y-102500500D01*
X156578848Y-102500500D01*
X156625353Y-102491248D01*
X156671635Y-102482042D01*
X156733497Y-102469737D01*
X156733498Y-102469736D01*
X156733501Y-102469736D01*
X156770705Y-102454324D01*
X156783874Y-102448870D01*
X156783875Y-102448870D01*
X156848039Y-102422291D01*
X156879179Y-102409394D01*
X157010289Y-102321789D01*
X157121789Y-102210289D01*
X157209394Y-102079179D01*
X157248869Y-101983875D01*
X157269736Y-101933501D01*
X157269737Y-101933495D01*
X157300500Y-101778844D01*
X157300500Y-101621155D01*
X157300499Y-101621152D01*
X157291671Y-101576774D01*
X157269737Y-101466504D01*
X157269736Y-101466498D01*
X157235711Y-101384356D01*
X157235515Y-101383882D01*
X157209396Y-101320824D01*
X157209393Y-101320820D01*
X157121789Y-101189711D01*
X157010289Y-101078211D01*
X156879179Y-100990606D01*
X156860568Y-100982897D01*
X156733505Y-100930264D01*
X156733346Y-100930218D01*
X156732511Y-100930066D01*
X156578848Y-100899500D01*
X156578845Y-100899500D01*
X156578842Y-100899500D01*
X156421158Y-100899500D01*
X156421155Y-100899500D01*
X156421152Y-100899500D01*
X156267487Y-100930066D01*
X156266655Y-100930218D01*
X156266493Y-100930264D01*
X156122924Y-100989734D01*
X156121559Y-100990243D01*
X156120821Y-100990605D01*
X156120820Y-100990606D01*
X155989709Y-101078212D01*
X155989707Y-101078213D01*
X155989084Y-101078630D01*
X155978021Y-101084542D01*
X155953672Y-101094628D01*
X155929183Y-101099500D01*
X155070817Y-101099500D01*
X155046326Y-101094628D01*
X155021978Y-101084542D01*
X155010915Y-101078630D01*
X155010291Y-101078213D01*
X155010290Y-101078212D01*
X154879179Y-100990606D01*
X154860568Y-100982897D01*
X154733505Y-100930264D01*
X154733346Y-100930218D01*
X154732511Y-100930066D01*
X154578848Y-100899500D01*
X154578845Y-100899500D01*
X154578842Y-100899500D01*
X154421158Y-100899500D01*
X154421155Y-100899500D01*
X154421152Y-100899500D01*
X154267487Y-100930066D01*
X154266655Y-100930218D01*
X154266493Y-100930264D01*
X154122924Y-100989734D01*
X154121559Y-100990243D01*
X154120821Y-100990605D01*
X154120820Y-100990606D01*
X153989709Y-101078212D01*
X153989707Y-101078213D01*
X153989084Y-101078630D01*
X153978021Y-101084542D01*
X153953672Y-101094628D01*
X153929183Y-101099500D01*
X153070817Y-101099500D01*
X153046326Y-101094628D01*
X153021978Y-101084542D01*
X153010915Y-101078630D01*
X153010291Y-101078213D01*
X153010290Y-101078212D01*
X152879179Y-100990606D01*
X152860568Y-100982897D01*
X152733505Y-100930264D01*
X152733346Y-100930218D01*
X152732511Y-100930066D01*
X152578848Y-100899500D01*
X152578845Y-100899500D01*
X152578842Y-100899500D01*
X152421158Y-100899500D01*
X152421155Y-100899500D01*
X152421152Y-100899500D01*
X152267487Y-100930066D01*
X152266655Y-100930218D01*
X152266493Y-100930264D01*
X152122924Y-100989734D01*
X152121559Y-100990243D01*
X152120821Y-100990605D01*
X152120820Y-100990606D01*
X151989709Y-101078212D01*
X151989707Y-101078213D01*
X151989084Y-101078630D01*
X151978021Y-101084542D01*
X151953672Y-101094628D01*
X151929183Y-101099500D01*
X151170817Y-101099500D01*
X151146326Y-101094628D01*
X151121978Y-101084542D01*
X151110915Y-101078630D01*
X151110291Y-101078213D01*
X151110290Y-101078212D01*
X150979179Y-100990606D01*
X150960568Y-100982897D01*
X150833505Y-100930264D01*
X150833346Y-100930218D01*
X150832511Y-100930066D01*
X150678848Y-100899500D01*
X150678845Y-100899500D01*
X150678842Y-100899500D01*
X150521158Y-100899500D01*
X150521155Y-100899500D01*
X150521152Y-100899500D01*
X150367487Y-100930066D01*
X150366655Y-100930218D01*
X150366493Y-100930264D01*
X150222924Y-100989734D01*
X150221559Y-100990243D01*
X150220821Y-100990605D01*
X150089707Y-101078213D01*
X149978213Y-101189707D01*
X149890605Y-101320821D01*
X149890243Y-101321559D01*
X149889734Y-101322924D01*
X149830264Y-101466493D01*
X149830218Y-101466655D01*
X149830066Y-101467487D01*
X149799500Y-101621152D01*
X134600000Y-101621152D01*
X134600000Y-91881976D01*
X136199500Y-91881976D01*
X136199500Y-92118022D01*
X136230304Y-92352003D01*
X136230306Y-92352014D01*
X136230310Y-92352031D01*
X136291392Y-92579990D01*
X136291392Y-92579991D01*
X136372621Y-92776092D01*
X136381716Y-92798050D01*
X136499728Y-93002452D01*
X136571567Y-93096074D01*
X136571566Y-93096074D01*
X136643399Y-93189688D01*
X136643402Y-93189692D01*
X136643408Y-93189699D01*
X136810301Y-93356592D01*
X136912764Y-93435214D01*
X136926647Y-93445867D01*
X136997540Y-93500266D01*
X136997545Y-93500270D01*
X136997547Y-93500271D01*
X137201949Y-93618283D01*
X137420006Y-93708606D01*
X137647977Y-93769691D01*
X137647991Y-93769694D01*
X137792899Y-93788771D01*
X137881989Y-93800500D01*
X138118011Y-93800500D01*
X138118013Y-93800500D01*
X138118015Y-93800499D01*
X138262924Y-93781421D01*
X138347863Y-93770239D01*
X138349844Y-93770109D01*
X138350134Y-93770054D01*
X138351997Y-93769752D01*
X138354688Y-93768985D01*
X138354813Y-93768999D01*
X138355684Y-93768710D01*
X138406531Y-93755085D01*
X138579993Y-93708606D01*
X138798049Y-93618284D01*
X139002450Y-93500273D01*
X139189699Y-93356592D01*
X139356592Y-93189699D01*
X139500273Y-93002450D01*
X139618284Y-92798049D01*
X139708606Y-92579993D01*
X139769693Y-92352014D01*
X139769695Y-92352003D01*
X139774946Y-92312118D01*
X139800223Y-92120117D01*
X139800394Y-92119085D01*
X139800500Y-92118015D01*
X139800500Y-91881982D01*
X139800395Y-91880930D01*
X139800225Y-91879903D01*
X139797620Y-91860117D01*
X139769693Y-91647986D01*
X139751812Y-91581255D01*
X139708606Y-91420006D01*
X139618283Y-91201949D01*
X139523828Y-91038349D01*
X139523828Y-91038348D01*
X139500273Y-90997549D01*
X139500271Y-90997546D01*
X139488026Y-90981589D01*
X139488025Y-90981589D01*
X139445808Y-90926571D01*
X139370197Y-90828032D01*
X139356592Y-90810301D01*
X139189699Y-90643408D01*
X139189692Y-90643402D01*
X139189688Y-90643399D01*
X139135878Y-90602109D01*
X143989500Y-90602109D01*
X143989500Y-92397877D01*
X143989501Y-92397900D01*
X143995907Y-92457475D01*
X143995908Y-92457480D01*
X143995908Y-92457482D01*
X143995909Y-92457483D01*
X144041602Y-92579993D01*
X144045809Y-92591271D01*
X144045809Y-92591273D01*
X144046318Y-92592640D01*
X144047443Y-92594260D01*
X144048942Y-92595990D01*
X144093155Y-92655050D01*
X144132454Y-92707546D01*
X144132695Y-92707774D01*
X144133849Y-92708590D01*
X144247664Y-92793793D01*
X144247663Y-92793793D01*
X144247666Y-92793794D01*
X144247669Y-92793796D01*
X144382517Y-92844091D01*
X144442127Y-92850500D01*
X144469895Y-92850499D01*
X144494384Y-92855369D01*
X144500749Y-92858005D01*
X144535388Y-92892640D01*
X144535393Y-92941619D01*
X144534215Y-92944464D01*
X144512701Y-92971757D01*
X144460208Y-93009895D01*
X144460204Y-93009899D01*
X144309896Y-93160206D01*
X144184960Y-93332167D01*
X144184943Y-93332191D01*
X144088444Y-93521583D01*
X144022752Y-93723758D01*
X144010598Y-93800500D01*
X143989500Y-93933715D01*
X143989500Y-94146284D01*
X144000032Y-94212788D01*
X144022752Y-94356240D01*
X144022753Y-94356242D01*
X144088442Y-94558409D01*
X144088445Y-94558418D01*
X144184944Y-94747809D01*
X144184949Y-94747816D01*
X144309896Y-94919792D01*
X144460207Y-95070103D01*
X144632183Y-95195050D01*
X144632190Y-95195055D01*
X144821581Y-95291554D01*
X144821584Y-95291555D01*
X144821588Y-95291557D01*
X145023757Y-95357246D01*
X145233713Y-95390500D01*
X145233716Y-95390500D01*
X145446284Y-95390500D01*
X145446287Y-95390500D01*
X145656243Y-95357246D01*
X145858412Y-95291557D01*
X145858418Y-95291554D01*
X146047809Y-95195055D01*
X146047811Y-95195053D01*
X146047816Y-95195051D01*
X146219792Y-95070104D01*
X146370104Y-94919792D01*
X146495051Y-94747816D01*
X146495055Y-94747809D01*
X146547200Y-94645468D01*
X146562650Y-94625869D01*
X146569504Y-94620015D01*
X146616087Y-94604881D01*
X146656320Y-94623429D01*
X146659855Y-94626964D01*
X146671624Y-94643164D01*
X146724938Y-94747799D01*
X146724943Y-94747807D01*
X146724944Y-94747809D01*
X146724949Y-94747816D01*
X146849896Y-94919792D01*
X147000207Y-95070103D01*
X147172183Y-95195050D01*
X147172190Y-95195055D01*
X147361581Y-95291554D01*
X147361584Y-95291555D01*
X147361588Y-95291557D01*
X147563757Y-95357246D01*
X147773713Y-95390500D01*
X147773716Y-95390500D01*
X147986284Y-95390500D01*
X147986287Y-95390500D01*
X148196243Y-95357246D01*
X148398412Y-95291557D01*
X148398418Y-95291554D01*
X148587809Y-95195055D01*
X148587811Y-95195053D01*
X148587816Y-95195051D01*
X148759792Y-95070104D01*
X148910104Y-94919792D01*
X149035051Y-94747816D01*
X149035055Y-94747809D01*
X149087200Y-94645468D01*
X149102650Y-94625869D01*
X149109504Y-94620015D01*
X149156087Y-94604881D01*
X149196320Y-94623429D01*
X149199855Y-94626964D01*
X149211624Y-94643164D01*
X149264938Y-94747799D01*
X149264943Y-94747807D01*
X149264944Y-94747809D01*
X149264949Y-94747816D01*
X149389896Y-94919792D01*
X149540207Y-95070103D01*
X149712183Y-95195050D01*
X149712190Y-95195055D01*
X149901581Y-95291554D01*
X149901584Y-95291555D01*
X149901588Y-95291557D01*
X150103757Y-95357246D01*
X150313713Y-95390500D01*
X150313716Y-95390500D01*
X150526284Y-95390500D01*
X150526287Y-95390500D01*
X150736243Y-95357246D01*
X150938412Y-95291557D01*
X150938418Y-95291554D01*
X151127809Y-95195055D01*
X151127811Y-95195053D01*
X151127816Y-95195051D01*
X151299792Y-95070104D01*
X151450104Y-94919792D01*
X151575051Y-94747816D01*
X151575055Y-94747809D01*
X151627200Y-94645468D01*
X151642650Y-94625869D01*
X151649504Y-94620015D01*
X151696087Y-94604881D01*
X151736320Y-94623429D01*
X151739855Y-94626964D01*
X151751624Y-94643164D01*
X151804938Y-94747799D01*
X151804943Y-94747807D01*
X151804944Y-94747809D01*
X151804949Y-94747816D01*
X151929896Y-94919792D01*
X152080207Y-95070103D01*
X152252183Y-95195050D01*
X152252190Y-95195055D01*
X152441581Y-95291554D01*
X152441584Y-95291555D01*
X152441588Y-95291557D01*
X152643757Y-95357246D01*
X152853713Y-95390500D01*
X152853716Y-95390500D01*
X153066284Y-95390500D01*
X153066287Y-95390500D01*
X153276243Y-95357246D01*
X153478412Y-95291557D01*
X153478418Y-95291554D01*
X153667809Y-95195055D01*
X153667811Y-95195053D01*
X153667816Y-95195051D01*
X153839792Y-95070104D01*
X153990104Y-94919792D01*
X154115051Y-94747816D01*
X154115055Y-94747809D01*
X154167200Y-94645468D01*
X154182650Y-94625869D01*
X154189504Y-94620015D01*
X154236087Y-94604881D01*
X154276320Y-94623429D01*
X154279855Y-94626964D01*
X154291624Y-94643164D01*
X154344938Y-94747799D01*
X154344943Y-94747807D01*
X154344944Y-94747809D01*
X154344949Y-94747816D01*
X154469896Y-94919792D01*
X154620207Y-95070103D01*
X154792183Y-95195050D01*
X154792190Y-95195055D01*
X154981581Y-95291554D01*
X154981584Y-95291555D01*
X154981588Y-95291557D01*
X155183757Y-95357246D01*
X155393713Y-95390500D01*
X155393716Y-95390500D01*
X155606284Y-95390500D01*
X155606287Y-95390500D01*
X155816243Y-95357246D01*
X156018412Y-95291557D01*
X156018418Y-95291554D01*
X156207809Y-95195055D01*
X156207811Y-95195053D01*
X156207816Y-95195051D01*
X156379792Y-95070104D01*
X156530104Y-94919792D01*
X156655051Y-94747816D01*
X156655055Y-94747809D01*
X156707200Y-94645468D01*
X156722650Y-94625869D01*
X156729504Y-94620015D01*
X156776087Y-94604881D01*
X156816320Y-94623429D01*
X156819855Y-94626964D01*
X156831624Y-94643164D01*
X156884938Y-94747799D01*
X156884943Y-94747807D01*
X156884944Y-94747809D01*
X156884949Y-94747816D01*
X157009896Y-94919792D01*
X157160207Y-95070103D01*
X157332183Y-95195050D01*
X157332190Y-95195055D01*
X157521581Y-95291554D01*
X157521584Y-95291555D01*
X157521588Y-95291557D01*
X157723757Y-95357246D01*
X157933713Y-95390500D01*
X157933716Y-95390500D01*
X158146284Y-95390500D01*
X158146287Y-95390500D01*
X158356243Y-95357246D01*
X158421384Y-95336079D01*
X158446177Y-95333144D01*
X158463592Y-95334514D01*
X158503827Y-95353062D01*
X160771754Y-97620989D01*
X160785625Y-97641749D01*
X160794629Y-97663485D01*
X160799500Y-97687973D01*
X160799500Y-106012026D01*
X160794627Y-106036520D01*
X160787751Y-106053118D01*
X160753116Y-106087752D01*
X160733909Y-106095708D01*
X160721903Y-106099350D01*
X160567487Y-106130066D01*
X160566655Y-106130218D01*
X160566493Y-106130264D01*
X160422924Y-106189734D01*
X160421559Y-106190243D01*
X160420821Y-106190605D01*
X160289707Y-106278213D01*
X160178213Y-106389707D01*
X160090605Y-106520821D01*
X160090243Y-106521559D01*
X160089734Y-106522924D01*
X160030264Y-106666493D01*
X160030218Y-106666655D01*
X160030066Y-106667487D01*
X159999500Y-106821152D01*
X159999500Y-106978846D01*
X160030066Y-107132511D01*
X160030218Y-107133346D01*
X160030264Y-107133505D01*
X160089734Y-107277074D01*
X160090244Y-107278441D01*
X160090605Y-107279176D01*
X160090606Y-107279179D01*
X160178211Y-107410289D01*
X160178630Y-107410915D01*
X160184541Y-107421973D01*
X160194629Y-107446328D01*
X160199500Y-107470816D01*
X160199500Y-108516102D01*
X160199499Y-108516177D01*
X160199499Y-108679065D01*
X160240417Y-108831764D01*
X160240421Y-108831777D01*
X160240424Y-108831788D01*
X160240427Y-108831795D01*
X160264307Y-108873154D01*
X160269356Y-108881897D01*
X160269358Y-108881905D01*
X160269360Y-108881904D01*
X160319480Y-108968716D01*
X160319482Y-108968718D01*
X160435944Y-109085180D01*
X160435966Y-109085201D01*
X161067227Y-109716462D01*
X161070162Y-109723548D01*
X161076387Y-109728028D01*
X161079224Y-109745426D01*
X161085972Y-109761717D01*
X161083036Y-109768803D01*
X161084271Y-109776373D01*
X161073974Y-109790681D01*
X161067227Y-109806972D01*
X161055661Y-109816132D01*
X161009495Y-109844714D01*
X161005755Y-109846859D01*
X161005036Y-109847239D01*
X161005033Y-109847241D01*
X161005028Y-109847245D01*
X161004745Y-109847450D01*
X161000809Y-109850094D01*
X160980915Y-109862411D01*
X160973282Y-109866451D01*
X160970124Y-109867858D01*
X160970113Y-109867865D01*
X160968441Y-109869287D01*
X160960699Y-109874927D01*
X160958366Y-109876371D01*
X160958344Y-109876388D01*
X160917145Y-109910889D01*
X160915495Y-109912367D01*
X160888811Y-109931777D01*
X160877607Y-109946314D01*
X160873217Y-109950249D01*
X160872902Y-109950359D01*
X160871977Y-109951331D01*
X160860523Y-109961073D01*
X160860519Y-109961077D01*
X160860518Y-109961079D01*
X160855775Y-109966452D01*
X160855728Y-109966506D01*
X160855718Y-109966516D01*
X160855711Y-109966525D01*
X160835277Y-109997697D01*
X160829415Y-110005321D01*
X160808746Y-110028384D01*
X160808744Y-110028386D01*
X160808678Y-110028485D01*
X160773018Y-110091273D01*
X160772180Y-110093961D01*
X160770581Y-110098483D01*
X160768974Y-110102537D01*
X160766594Y-110106760D01*
X160731304Y-110197576D01*
X160731191Y-110197862D01*
X160729117Y-110200000D01*
X160725018Y-110204665D01*
X160719003Y-110225143D01*
X160716622Y-110234209D01*
X160716623Y-110234210D01*
X160715694Y-110237749D01*
X160714497Y-110240831D01*
X160712919Y-110247636D01*
X160712758Y-110248938D01*
X160711887Y-110252258D01*
X160711543Y-110253569D01*
X160710737Y-110257047D01*
X160700979Y-110313652D01*
X160700973Y-110313689D01*
X160697776Y-110341639D01*
X160697775Y-110341653D01*
X160694500Y-110399096D01*
X160694500Y-110762681D01*
X160697391Y-110816656D01*
X160700226Y-110843031D01*
X160700228Y-110843045D01*
X160708881Y-110896455D01*
X160708888Y-110896496D01*
X160710528Y-110904032D01*
X160752484Y-111022930D01*
X160779966Y-111077807D01*
X160850027Y-111182606D01*
X160850036Y-111182618D01*
X160851212Y-111183974D01*
X160851214Y-111183976D01*
X160851217Y-111183979D01*
X160959905Y-111278116D01*
X161018651Y-111315859D01*
X161149448Y-111375586D01*
X161151963Y-111376324D01*
X161190103Y-111407057D01*
X161197770Y-111442297D01*
X161194500Y-111488022D01*
X161194500Y-111976616D01*
X161195608Y-112003108D01*
X161195614Y-112003214D01*
X161195811Y-112007917D01*
X161195647Y-112009685D01*
X161195950Y-112011252D01*
X161196270Y-112018875D01*
X161196940Y-112026861D01*
X161196957Y-112026859D01*
X161196998Y-112027569D01*
X161198884Y-112050039D01*
X161199462Y-112051103D01*
X161203325Y-112081655D01*
X161203719Y-112083983D01*
X161203723Y-112084001D01*
X161222637Y-112149544D01*
X161222988Y-112150759D01*
X161223023Y-112150937D01*
X161223122Y-112151224D01*
X161223576Y-112152797D01*
X161223575Y-112152799D01*
X161235408Y-112193798D01*
X161235411Y-112193808D01*
X161256812Y-112245250D01*
X161256812Y-112245251D01*
X161312416Y-112345216D01*
X161314179Y-112347679D01*
X161315258Y-112349187D01*
X161316184Y-112350478D01*
X161322764Y-112357305D01*
X161329592Y-112364391D01*
X161342934Y-112378234D01*
X161347783Y-112390580D01*
X161361258Y-112404654D01*
X161385647Y-112430127D01*
X161439123Y-112478538D01*
X161469742Y-112496131D01*
X161469768Y-112496151D01*
X161469779Y-112496159D01*
X161527574Y-112529359D01*
X161566101Y-112551496D01*
X161566178Y-112551536D01*
X161594525Y-112567821D01*
X161594534Y-112567825D01*
X161594536Y-112567826D01*
X161594540Y-112567828D01*
X161609067Y-112573607D01*
X161609083Y-112573612D01*
X161677806Y-112595416D01*
X161688556Y-112597999D01*
X161712123Y-112603662D01*
X161783254Y-112615466D01*
X166213304Y-113028938D01*
X166256622Y-113051808D01*
X166271080Y-113098608D01*
X166248210Y-113141926D01*
X166206919Y-113156659D01*
X160838442Y-113119930D01*
X160838441Y-113119930D01*
X160838438Y-113119930D01*
X160733765Y-113130155D01*
X160683488Y-113140431D01*
X160583200Y-113172093D01*
X160460753Y-113247642D01*
X160407111Y-113292425D01*
X160310918Y-113399399D01*
X160310917Y-113399401D01*
X160248749Y-113529161D01*
X160227842Y-113595802D01*
X160227835Y-113595827D01*
X160204744Y-113737849D01*
X160201671Y-113905050D01*
X160201565Y-113910767D01*
X160199500Y-113921155D01*
X160199500Y-114023239D01*
X160199489Y-114023838D01*
X160199489Y-114023841D01*
X160196366Y-114193717D01*
X160197677Y-114240543D01*
X160197677Y-114240556D01*
X160199379Y-114263405D01*
X160199382Y-114263436D01*
X160205019Y-114309924D01*
X160248883Y-114446950D01*
X160279441Y-114509792D01*
X160360128Y-114628904D01*
X160360134Y-114628911D01*
X160368250Y-114635606D01*
X160368251Y-114635607D01*
X160471111Y-114720466D01*
X160471115Y-114720469D01*
X160471118Y-114720471D01*
X160509577Y-114743892D01*
X160529479Y-114756012D01*
X160530590Y-114756726D01*
X160663080Y-114813398D01*
X164757045Y-115908599D01*
X166458607Y-116363794D01*
X170198933Y-117364391D01*
X176253619Y-118984116D01*
X176318379Y-118996977D01*
X176350424Y-119001189D01*
X176416289Y-119005499D01*
X176416290Y-119005500D01*
X177615956Y-119005500D01*
X177661211Y-119024245D01*
X177679956Y-119069500D01*
X177661211Y-119114755D01*
X177636087Y-119130251D01*
X177530728Y-119165163D01*
X177530729Y-119165164D01*
X177530667Y-119165184D01*
X177378464Y-119259063D01*
X177375050Y-119263581D01*
X177263581Y-119375050D01*
X177259063Y-119378464D01*
X177165184Y-119530667D01*
X177165164Y-119530729D01*
X177111670Y-119692156D01*
X177111647Y-119692229D01*
X177110003Y-119697192D01*
X177110002Y-119697198D01*
X177110001Y-119697200D01*
X177110001Y-119697203D01*
X177109941Y-119697785D01*
X177109777Y-119698321D01*
X177109670Y-119700443D01*
X177099500Y-119799995D01*
X177099500Y-122200004D01*
X177099603Y-122201255D01*
X177099706Y-122202021D01*
X177107001Y-122273428D01*
X177107001Y-122273429D01*
X177110001Y-122302801D01*
X177110847Y-122305713D01*
X177111451Y-122307176D01*
X177165184Y-122469329D01*
X177165186Y-122469334D01*
X177257288Y-122618656D01*
X177381344Y-122742712D01*
X177530666Y-122834814D01*
X177558844Y-122844151D01*
X177586507Y-122853318D01*
X177586510Y-122853318D01*
X177586514Y-122853320D01*
X177696043Y-122889615D01*
X177697054Y-122889972D01*
X177697182Y-122889992D01*
X177697192Y-122889996D01*
X177697195Y-122889996D01*
X177697203Y-122889999D01*
X177697252Y-122890004D01*
X177698712Y-122890240D01*
X177700407Y-122890326D01*
X177799991Y-122900500D01*
X180200008Y-122900499D01*
X180302797Y-122889999D01*
X180469334Y-122834814D01*
X180618656Y-122742712D01*
X180742712Y-122618656D01*
X180834814Y-122469334D01*
X180889999Y-122302797D01*
X180900500Y-122200009D01*
X180900499Y-119799992D01*
X180889999Y-119697203D01*
X180834814Y-119530666D01*
X180742712Y-119381344D01*
X180618656Y-119257288D01*
X180618655Y-119257287D01*
X180618654Y-119257286D01*
X180469331Y-119165184D01*
X180469332Y-119165184D01*
X180469270Y-119165164D01*
X180469270Y-119165163D01*
X180363912Y-119130251D01*
X180326850Y-119098223D01*
X180323292Y-119049369D01*
X180355320Y-119012307D01*
X180384043Y-119005500D01*
X181175322Y-119005500D01*
X181187170Y-119004209D01*
X181284124Y-118993652D01*
X181336251Y-118982163D01*
X181439947Y-118947177D01*
X181560560Y-118868730D01*
X181613113Y-118822688D01*
X181613115Y-118822686D01*
X181706741Y-118713436D01*
X181765796Y-118582233D01*
X181785114Y-118515087D01*
X181804811Y-118372561D01*
X181779950Y-113821947D01*
X181767811Y-113714560D01*
X181756324Y-113663110D01*
X181756324Y-113663109D01*
X181756323Y-113663105D01*
X181733284Y-113595127D01*
X181735627Y-113548114D01*
X181765303Y-113482794D01*
X181783988Y-113418689D01*
X181784318Y-113417734D01*
X181784855Y-113415717D01*
X181784855Y-113415715D01*
X181784857Y-113415711D01*
X181805050Y-113273255D01*
X181796021Y-108727211D01*
X181793344Y-108679065D01*
X181793016Y-108673166D01*
X181793015Y-108673153D01*
X181790128Y-108646810D01*
X181790126Y-108646793D01*
X181789120Y-108640668D01*
X181781363Y-108593403D01*
X181779703Y-108585846D01*
X181755266Y-108517009D01*
X181739534Y-108472693D01*
X181741629Y-108424695D01*
X181765338Y-108372784D01*
X181785023Y-108305745D01*
X181785024Y-108305741D01*
X181805500Y-108163325D01*
X181805500Y-103737331D01*
X181802600Y-103683261D01*
X181799763Y-103656890D01*
X181791099Y-103603455D01*
X181789454Y-103595897D01*
X181747501Y-103477036D01*
X181720025Y-103422175D01*
X181649969Y-103317389D01*
X181649967Y-103317386D01*
X181649964Y-103317383D01*
X181648788Y-103316026D01*
X181648779Y-103316017D01*
X181597786Y-103265053D01*
X181571099Y-103241942D01*
X181571098Y-103241941D01*
X181513344Y-103198733D01*
X181462913Y-103175719D01*
X181350525Y-103124405D01*
X181350521Y-103124404D01*
X181350519Y-103124403D01*
X181345883Y-103123042D01*
X181335527Y-103120001D01*
X181311391Y-103114750D01*
X181265051Y-103104669D01*
X181265049Y-103104668D01*
X181265046Y-103104668D01*
X181230110Y-103099645D01*
X181158170Y-103094500D01*
X181158169Y-103094500D01*
X176638572Y-103094500D01*
X176586831Y-103097154D01*
X176561577Y-103099753D01*
X176561568Y-103099754D01*
X176510307Y-103107704D01*
X176485846Y-103112795D01*
X176435691Y-103125948D01*
X176423737Y-103129748D01*
X176411503Y-103133637D01*
X176411498Y-103133638D01*
X176411485Y-103133643D01*
X176411480Y-103133644D01*
X176362987Y-103151846D01*
X176362950Y-103151861D01*
X174500576Y-103962117D01*
X172952553Y-104635607D01*
X171168159Y-105411934D01*
X170026575Y-105908597D01*
X166680421Y-107364391D01*
X162550575Y-109161141D01*
X162501600Y-109162007D01*
X162479788Y-109147710D01*
X162410290Y-109078212D01*
X162279179Y-108990606D01*
X162260568Y-108982897D01*
X162226333Y-108968716D01*
X162133505Y-108930264D01*
X162133346Y-108930218D01*
X162132511Y-108930066D01*
X161978096Y-108899350D01*
X161966091Y-108895708D01*
X161941753Y-108885627D01*
X161920989Y-108871754D01*
X161428245Y-108379010D01*
X161414374Y-108358250D01*
X161405370Y-108336512D01*
X161400500Y-108312026D01*
X161400500Y-107470816D01*
X161405370Y-107446330D01*
X161415460Y-107421970D01*
X161421368Y-107410917D01*
X161421784Y-107410293D01*
X161421789Y-107410289D01*
X161509394Y-107279179D01*
X161548869Y-107183875D01*
X161569736Y-107133501D01*
X161569737Y-107133495D01*
X161600500Y-106978844D01*
X161600500Y-106978842D01*
X161600648Y-106978099D01*
X161604290Y-106966094D01*
X161614373Y-106941751D01*
X161628244Y-106920989D01*
X161759711Y-106789521D01*
X161759718Y-106789517D01*
X161768715Y-106780520D01*
X161768716Y-106780520D01*
X161880520Y-106668716D01*
X161930639Y-106581904D01*
X161959577Y-106531785D01*
X161997646Y-106389709D01*
X162000500Y-106379058D01*
X162000500Y-97485465D01*
X162000501Y-97485412D01*
X162000501Y-97320945D01*
X162000500Y-97320938D01*
X161990121Y-97282206D01*
X161959577Y-97168216D01*
X161880520Y-97031284D01*
X160343983Y-95494747D01*
X160330110Y-95473983D01*
X160327474Y-95467619D01*
X160327474Y-95418636D01*
X160362101Y-95384004D01*
X160364949Y-95382824D01*
X160399454Y-95378738D01*
X160473713Y-95390500D01*
X160473716Y-95390500D01*
X160686284Y-95390500D01*
X160686287Y-95390500D01*
X160896243Y-95357246D01*
X161098412Y-95291557D01*
X161098418Y-95291554D01*
X161287809Y-95195055D01*
X161287811Y-95195053D01*
X161287816Y-95195051D01*
X161459792Y-95070104D01*
X161610104Y-94919792D01*
X161735051Y-94747816D01*
X161831557Y-94558412D01*
X161897246Y-94356243D01*
X161930500Y-94146287D01*
X161930500Y-93933713D01*
X161897246Y-93723757D01*
X161831557Y-93521588D01*
X161831555Y-93521584D01*
X161831554Y-93521581D01*
X161788372Y-93436832D01*
X161737896Y-93337766D01*
X161735055Y-93332190D01*
X161735051Y-93332185D01*
X161735051Y-93332184D01*
X161610104Y-93160208D01*
X161459792Y-93009896D01*
X161287816Y-92884949D01*
X161287809Y-92884944D01*
X161098418Y-92788445D01*
X161098409Y-92788442D01*
X161040411Y-92769597D01*
X160896241Y-92722752D01*
X160762047Y-92701499D01*
X160762047Y-92701498D01*
X160704510Y-92692386D01*
X160686287Y-92689500D01*
X160686285Y-92689500D01*
X160473714Y-92689500D01*
X160473713Y-92689500D01*
X160464468Y-92690964D01*
X160406086Y-92700209D01*
X160406086Y-92700210D01*
X160397948Y-92701499D01*
X160263762Y-92722751D01*
X160263755Y-92722753D01*
X160061583Y-92788444D01*
X159872191Y-92884943D01*
X159872167Y-92884960D01*
X159700206Y-93009896D01*
X159549896Y-93160206D01*
X159430641Y-93324346D01*
X159430636Y-93324355D01*
X159424949Y-93332183D01*
X159424947Y-93332185D01*
X159372680Y-93434766D01*
X159372445Y-93435214D01*
X159371900Y-93435668D01*
X159357342Y-93454135D01*
X159350497Y-93459981D01*
X159337753Y-93464121D01*
X159334814Y-93466571D01*
X159331220Y-93466244D01*
X159303911Y-93475117D01*
X159263678Y-93456569D01*
X159260141Y-93453032D01*
X159248375Y-93436838D01*
X159195052Y-93332185D01*
X159195050Y-93332183D01*
X159195038Y-93332167D01*
X159192093Y-93328113D01*
X159192093Y-93328112D01*
X159192090Y-93328109D01*
X159091529Y-93189698D01*
X159070103Y-93160207D01*
X158919792Y-93009896D01*
X158747816Y-92884949D01*
X158747809Y-92884944D01*
X158747810Y-92884944D01*
X158645473Y-92832802D01*
X158625865Y-92817344D01*
X158620015Y-92810494D01*
X158604881Y-92763910D01*
X158623428Y-92723680D01*
X158626970Y-92720138D01*
X158643158Y-92708377D01*
X158745250Y-92656358D01*
X158746341Y-92655864D01*
X158746852Y-92655582D01*
X158747719Y-92655121D01*
X158747814Y-92655051D01*
X158747816Y-92655051D01*
X158919792Y-92530104D01*
X159070104Y-92379792D01*
X159195051Y-92207816D01*
X159229501Y-92140205D01*
X159291554Y-92018418D01*
X159291554Y-92018417D01*
X159291557Y-92018412D01*
X159291559Y-92018405D01*
X159291786Y-92017960D01*
X159292326Y-92016045D01*
X159335885Y-91881985D01*
X159335886Y-91881982D01*
X159335888Y-91881976D01*
X178199500Y-91881976D01*
X178199500Y-92118022D01*
X178230304Y-92352003D01*
X178230306Y-92352014D01*
X178230310Y-92352031D01*
X178291392Y-92579990D01*
X178291392Y-92579991D01*
X178372621Y-92776092D01*
X178381716Y-92798050D01*
X178499728Y-93002452D01*
X178571567Y-93096074D01*
X178571566Y-93096074D01*
X178643399Y-93189688D01*
X178643402Y-93189692D01*
X178643408Y-93189699D01*
X178810301Y-93356592D01*
X178912764Y-93435214D01*
X178926647Y-93445867D01*
X178997540Y-93500266D01*
X178997545Y-93500270D01*
X178997547Y-93500271D01*
X179201949Y-93618283D01*
X179420006Y-93708606D01*
X179647977Y-93769691D01*
X179647991Y-93769694D01*
X179792899Y-93788771D01*
X179881989Y-93800500D01*
X180118011Y-93800500D01*
X180118013Y-93800500D01*
X180118015Y-93800499D01*
X180262924Y-93781421D01*
X180347863Y-93770239D01*
X180349844Y-93770109D01*
X180350134Y-93770054D01*
X180351997Y-93769752D01*
X180354688Y-93768985D01*
X180354813Y-93768999D01*
X180355684Y-93768710D01*
X180406531Y-93755085D01*
X180579993Y-93708606D01*
X180798049Y-93618284D01*
X181002450Y-93500273D01*
X181189699Y-93356592D01*
X181356592Y-93189699D01*
X181500273Y-93002450D01*
X181618284Y-92798049D01*
X181708606Y-92579993D01*
X181769693Y-92352014D01*
X181769695Y-92352003D01*
X181774946Y-92312118D01*
X181800223Y-92120117D01*
X181800394Y-92119085D01*
X181800500Y-92118015D01*
X181800500Y-91881982D01*
X181800395Y-91880930D01*
X181800225Y-91879903D01*
X181797620Y-91860117D01*
X181769693Y-91647986D01*
X181751812Y-91581255D01*
X181708606Y-91420006D01*
X181618283Y-91201949D01*
X181523828Y-91038349D01*
X181523828Y-91038348D01*
X181500273Y-90997549D01*
X181500271Y-90997546D01*
X181488026Y-90981589D01*
X181488025Y-90981589D01*
X181445808Y-90926571D01*
X181370197Y-90828032D01*
X181356592Y-90810301D01*
X181189699Y-90643408D01*
X181189692Y-90643402D01*
X181189688Y-90643399D01*
X181096074Y-90571566D01*
X181096074Y-90571567D01*
X181002452Y-90499728D01*
X180798050Y-90381716D01*
X180709288Y-90344949D01*
X180579991Y-90291392D01*
X180352031Y-90230310D01*
X180352014Y-90230306D01*
X180352003Y-90230304D01*
X180118022Y-90199500D01*
X180118016Y-90199500D01*
X180118011Y-90199500D01*
X179881989Y-90199500D01*
X179881983Y-90199500D01*
X179881976Y-90199500D01*
X179647995Y-90230304D01*
X179647984Y-90230306D01*
X179647967Y-90230310D01*
X179420008Y-90291392D01*
X179420007Y-90291392D01*
X179201950Y-90381715D01*
X178997545Y-90499728D01*
X178997540Y-90499732D01*
X178810312Y-90643398D01*
X178810302Y-90643407D01*
X178643407Y-90810302D01*
X178643398Y-90810312D01*
X178499732Y-90997540D01*
X178499728Y-90997545D01*
X178381715Y-91201950D01*
X178291392Y-91420007D01*
X178291392Y-91420008D01*
X178230310Y-91647967D01*
X178230306Y-91647984D01*
X178230304Y-91647995D01*
X178199500Y-91881976D01*
X159335888Y-91881976D01*
X159339237Y-91871669D01*
X159342993Y-91860113D01*
X159342993Y-91860112D01*
X159347966Y-91844802D01*
X159357246Y-91816242D01*
X159390500Y-91606287D01*
X159390500Y-91393713D01*
X159357246Y-91183757D01*
X159291557Y-90981588D01*
X159291555Y-90981584D01*
X159291554Y-90981581D01*
X159248372Y-90896832D01*
X159213316Y-90828030D01*
X159195055Y-90792190D01*
X159195051Y-90792185D01*
X159195051Y-90792184D01*
X159070104Y-90620208D01*
X158919792Y-90469896D01*
X158747816Y-90344949D01*
X158747809Y-90344944D01*
X158558418Y-90248445D01*
X158558409Y-90248442D01*
X158544355Y-90243875D01*
X158356241Y-90182752D01*
X158222047Y-90161499D01*
X158222047Y-90161498D01*
X158164510Y-90152386D01*
X158146287Y-90149500D01*
X158146285Y-90149500D01*
X157933714Y-90149500D01*
X157933713Y-90149500D01*
X157924468Y-90150964D01*
X157866086Y-90160209D01*
X157866086Y-90160210D01*
X157857948Y-90161499D01*
X157723762Y-90182751D01*
X157723755Y-90182753D01*
X157521583Y-90248444D01*
X157332191Y-90344943D01*
X157332167Y-90344960D01*
X157160206Y-90469896D01*
X157009896Y-90620206D01*
X156890641Y-90784346D01*
X156890636Y-90784355D01*
X156884949Y-90792183D01*
X156884947Y-90792185D01*
X156832680Y-90894766D01*
X156832445Y-90895214D01*
X156831900Y-90895668D01*
X156817342Y-90914135D01*
X156810497Y-90919981D01*
X156797753Y-90924121D01*
X156794814Y-90926571D01*
X156791220Y-90926244D01*
X156763911Y-90935117D01*
X156723678Y-90916569D01*
X156720141Y-90913032D01*
X156708375Y-90896838D01*
X156655052Y-90792185D01*
X156655050Y-90792183D01*
X156652093Y-90788112D01*
X156652090Y-90788109D01*
X156546960Y-90643408D01*
X156530107Y-90620211D01*
X156379792Y-90469896D01*
X156207816Y-90344949D01*
X156207809Y-90344944D01*
X156018418Y-90248445D01*
X156018409Y-90248442D01*
X156004355Y-90243875D01*
X155816241Y-90182752D01*
X155682047Y-90161499D01*
X155682047Y-90161498D01*
X155624510Y-90152386D01*
X155606287Y-90149500D01*
X155606285Y-90149500D01*
X155393714Y-90149500D01*
X155393713Y-90149500D01*
X155384468Y-90150964D01*
X155326086Y-90160209D01*
X155326086Y-90160210D01*
X155317948Y-90161499D01*
X155183762Y-90182751D01*
X155183755Y-90182753D01*
X154981583Y-90248444D01*
X154792191Y-90344943D01*
X154792167Y-90344960D01*
X154620206Y-90469896D01*
X154469896Y-90620206D01*
X154350641Y-90784346D01*
X154350636Y-90784355D01*
X154344949Y-90792183D01*
X154344947Y-90792185D01*
X154292680Y-90894766D01*
X154292445Y-90895214D01*
X154291900Y-90895668D01*
X154277342Y-90914135D01*
X154270497Y-90919981D01*
X154257753Y-90924121D01*
X154254814Y-90926571D01*
X154251220Y-90926244D01*
X154223911Y-90935117D01*
X154183678Y-90916569D01*
X154180141Y-90913032D01*
X154168375Y-90896838D01*
X154115052Y-90792185D01*
X154115050Y-90792183D01*
X154112093Y-90788112D01*
X154112090Y-90788109D01*
X154006960Y-90643408D01*
X153990107Y-90620211D01*
X153839792Y-90469896D01*
X153667816Y-90344949D01*
X153667809Y-90344944D01*
X153478418Y-90248445D01*
X153478409Y-90248442D01*
X153464355Y-90243875D01*
X153276241Y-90182752D01*
X153142047Y-90161499D01*
X153142047Y-90161498D01*
X153084510Y-90152386D01*
X153066287Y-90149500D01*
X153066285Y-90149500D01*
X152853714Y-90149500D01*
X152853713Y-90149500D01*
X152844468Y-90150964D01*
X152786086Y-90160209D01*
X152786086Y-90160210D01*
X152777948Y-90161499D01*
X152643762Y-90182751D01*
X152643755Y-90182753D01*
X152441583Y-90248444D01*
X152252191Y-90344943D01*
X152252167Y-90344960D01*
X152080206Y-90469896D01*
X151929896Y-90620206D01*
X151810641Y-90784346D01*
X151810636Y-90784355D01*
X151804949Y-90792183D01*
X151804947Y-90792185D01*
X151752680Y-90894766D01*
X151752445Y-90895214D01*
X151751900Y-90895668D01*
X151737342Y-90914135D01*
X151730497Y-90919981D01*
X151717753Y-90924121D01*
X151714814Y-90926571D01*
X151711220Y-90926244D01*
X151683911Y-90935117D01*
X151643678Y-90916569D01*
X151640141Y-90913032D01*
X151628375Y-90896838D01*
X151575052Y-90792185D01*
X151575050Y-90792183D01*
X151572093Y-90788112D01*
X151572090Y-90788109D01*
X151466960Y-90643408D01*
X151450107Y-90620211D01*
X151299792Y-90469896D01*
X151127816Y-90344949D01*
X151127809Y-90344944D01*
X150938418Y-90248445D01*
X150938409Y-90248442D01*
X150924355Y-90243875D01*
X150736241Y-90182752D01*
X150602047Y-90161499D01*
X150602047Y-90161498D01*
X150544510Y-90152386D01*
X150526287Y-90149500D01*
X150526285Y-90149500D01*
X150313714Y-90149500D01*
X150313713Y-90149500D01*
X150304468Y-90150964D01*
X150246086Y-90160209D01*
X150246086Y-90160210D01*
X150237948Y-90161499D01*
X150103762Y-90182751D01*
X150103755Y-90182753D01*
X149901583Y-90248444D01*
X149712191Y-90344943D01*
X149712167Y-90344960D01*
X149540206Y-90469896D01*
X149389896Y-90620206D01*
X149270641Y-90784346D01*
X149270636Y-90784355D01*
X149264949Y-90792183D01*
X149264947Y-90792185D01*
X149212680Y-90894766D01*
X149212445Y-90895214D01*
X149211900Y-90895668D01*
X149197342Y-90914135D01*
X149190497Y-90919981D01*
X149177753Y-90924121D01*
X149174814Y-90926571D01*
X149171220Y-90926244D01*
X149143911Y-90935117D01*
X149103678Y-90916569D01*
X149100141Y-90913032D01*
X149088375Y-90896838D01*
X149035052Y-90792185D01*
X149035050Y-90792183D01*
X149032093Y-90788112D01*
X149032090Y-90788109D01*
X148926960Y-90643408D01*
X148910107Y-90620211D01*
X148759792Y-90469896D01*
X148587816Y-90344949D01*
X148587809Y-90344944D01*
X148398418Y-90248445D01*
X148398409Y-90248442D01*
X148384355Y-90243875D01*
X148196241Y-90182752D01*
X148062047Y-90161499D01*
X148062047Y-90161498D01*
X148004510Y-90152386D01*
X147986287Y-90149500D01*
X147986285Y-90149500D01*
X147773714Y-90149500D01*
X147773713Y-90149500D01*
X147764468Y-90150964D01*
X147706086Y-90160209D01*
X147706086Y-90160210D01*
X147697948Y-90161499D01*
X147563762Y-90182751D01*
X147563755Y-90182753D01*
X147361583Y-90248444D01*
X147172191Y-90344943D01*
X147172167Y-90344960D01*
X147000206Y-90469896D01*
X146849899Y-90620203D01*
X146813758Y-90669947D01*
X146795424Y-90686895D01*
X146789550Y-90690495D01*
X146741170Y-90698160D01*
X146701540Y-90669371D01*
X146701539Y-90669369D01*
X146699924Y-90666734D01*
X146690499Y-90633303D01*
X146690499Y-90602138D01*
X146690499Y-90602130D01*
X146690498Y-90602112D01*
X146690497Y-90602105D01*
X146690497Y-90602098D01*
X146684458Y-90545934D01*
X146684352Y-90543968D01*
X146684091Y-90542521D01*
X146684091Y-90542517D01*
X146633796Y-90407669D01*
X146633793Y-90407665D01*
X146633793Y-90407664D01*
X146547548Y-90292457D01*
X146547546Y-90292454D01*
X146488758Y-90248445D01*
X146463983Y-90229898D01*
X146454924Y-90214630D01*
X146414356Y-90199500D01*
X146298195Y-90156174D01*
X146297554Y-90155926D01*
X146297477Y-90155907D01*
X146237892Y-90149500D01*
X146237879Y-90149500D01*
X144442130Y-90149500D01*
X144442121Y-90149500D01*
X144442098Y-90149501D01*
X144389469Y-90155160D01*
X144389460Y-90155161D01*
X144382521Y-90155908D01*
X144382518Y-90155908D01*
X144382517Y-90155909D01*
X144377275Y-90157863D01*
X144377266Y-90157866D01*
X144247663Y-90206206D01*
X144247662Y-90206207D01*
X144132456Y-90292451D01*
X144132451Y-90292456D01*
X144046207Y-90407661D01*
X144046206Y-90407664D01*
X143995907Y-90542518D01*
X143989500Y-90602109D01*
X139135878Y-90602109D01*
X139096074Y-90571566D01*
X139096074Y-90571567D01*
X139002452Y-90499728D01*
X138798050Y-90381716D01*
X138709288Y-90344949D01*
X138579991Y-90291392D01*
X138352031Y-90230310D01*
X138352014Y-90230306D01*
X138352003Y-90230304D01*
X138118022Y-90199500D01*
X138118016Y-90199500D01*
X138118011Y-90199500D01*
X137881989Y-90199500D01*
X137881983Y-90199500D01*
X137881976Y-90199500D01*
X137647995Y-90230304D01*
X137647984Y-90230306D01*
X137647967Y-90230310D01*
X137420008Y-90291392D01*
X137420007Y-90291392D01*
X137201950Y-90381715D01*
X136997545Y-90499728D01*
X136997540Y-90499732D01*
X136810312Y-90643398D01*
X136810302Y-90643407D01*
X136643407Y-90810302D01*
X136643398Y-90810312D01*
X136499732Y-90997540D01*
X136499728Y-90997545D01*
X136381715Y-91201950D01*
X136291392Y-91420007D01*
X136291392Y-91420008D01*
X136230310Y-91647967D01*
X136230306Y-91647984D01*
X136230304Y-91647995D01*
X136199500Y-91881976D01*
X134600000Y-91881976D01*
X134600000Y-91639238D01*
X134604869Y-91614753D01*
X134613875Y-91593011D01*
X134627742Y-91572257D01*
X137572257Y-88627742D01*
X137593014Y-88613874D01*
X137614751Y-88604870D01*
X137639239Y-88600000D01*
X180360761Y-88600000D01*
X180385247Y-88604870D01*
G37*
%TD.AperFunction*%
%TD*%
M02*
