%TF.GenerationSoftware,KiCad,Pcbnew,10.0.3*%
%TF.CreationDate,2026-07-03T14:00:46+08:00*%
%TF.ProjectId,project,70726f6a-6563-4742-9e6b-696361645f70,rev?*%
%TF.SameCoordinates,Original*%
%TF.FileFunction,Copper,L2,Inr*%
%TF.FilePolarity,Positive*%
%FSLAX46Y46*%
G04 Gerber Fmt 4.6, Leading zero omitted, Abs format (unit mm)*
G04 Created by KiCad (PCBNEW 10.0.3) date 2026-07-03 14:00:46*
%MOMM*%
%LPD*%
G01*
G04 APERTURE LIST*
G04 Aperture macros list*
%AMRoundRect*
0 Rectangle with rounded corners*
0 $1 Rounding radius*
0 $2 $3 $4 $5 $6 $7 $8 $9 X,Y pos of 4 corners*
0 Add a 4 corners polygon primitive as box body*
4,1,4,$2,$3,$4,$5,$6,$7,$8,$9,$2,$3,0*
0 Add four circle primitives for the rounded corners*
1,1,$1+$1,$2,$3*
1,1,$1+$1,$4,$5*
1,1,$1+$1,$6,$7*
1,1,$1+$1,$8,$9*
0 Add four rect primitives between the rounded corners*
20,1,$1+$1,$2,$3,$4,$5,0*
20,1,$1+$1,$4,$5,$6,$7,0*
20,1,$1+$1,$6,$7,$8,$9,0*
20,1,$1+$1,$8,$9,$2,$3,0*%
G04 Aperture macros list end*
%TA.AperFunction,ComponentPad*%
%ADD10RoundRect,0.250001X-1.149999X1.149999X-1.149999X-1.149999X1.149999X-1.149999X1.149999X1.149999X0*%
%TD*%
%TA.AperFunction,ComponentPad*%
%ADD11C,2.800000*%
%TD*%
%TA.AperFunction,ComponentPad*%
%ADD12RoundRect,0.250000X1.150000X-1.150000X1.150000X1.150000X-1.150000X1.150000X-1.150000X-1.150000X0*%
%TD*%
%TA.AperFunction,ComponentPad*%
%ADD13C,0.600000*%
%TD*%
%TA.AperFunction,ComponentPad*%
%ADD14R,1.700000X1.700000*%
%TD*%
%TA.AperFunction,ComponentPad*%
%ADD15C,1.700000*%
%TD*%
%TA.AperFunction,ViaPad*%
%ADD16C,0.600000*%
%TD*%
G04 APERTURE END LIST*
D10*
%TO.N,GND*%
%TO.C,TB_PWR1*%
X140300000Y-108500000D03*
D11*
%TO.N,VCC*%
X140300000Y-113500000D03*
%TD*%
D12*
%TO.N,VCC*%
%TO.C,P1*%
X179000000Y-121000000D03*
D11*
%TO.N,M1*%
X179000000Y-116000000D03*
%TO.N,M2*%
X179000000Y-111000000D03*
%TO.N,M3*%
X179000000Y-106000000D03*
%TO.N,GND*%
X179000000Y-101000000D03*
%TD*%
D13*
%TO.N,GND*%
%TO.C,U1*%
X155134200Y-113724900D03*
X156134200Y-113724900D03*
X155134200Y-112724900D03*
X156134200Y-112724900D03*
X155134200Y-111724900D03*
X156134200Y-111724900D03*
X155134200Y-110724900D03*
X156134200Y-110724900D03*
%TD*%
D14*
%TO.N,IN1*%
%TO.C,H1*%
X145340000Y-91500000D03*
D15*
%TO.N,EN1*%
X145340000Y-94040000D03*
%TO.N,IN2*%
X147880000Y-91500000D03*
%TO.N,EN2*%
X147880000Y-94040000D03*
%TO.N,IN3*%
X150420000Y-91500000D03*
%TO.N,EN3*%
X150420000Y-94040000D03*
%TO.N,nFlt*%
X152960000Y-91500000D03*
%TO.N,nCOMPO*%
X152960000Y-94040000D03*
%TO.N,nRes*%
X155500000Y-91500000D03*
%TO.N,nSlp*%
X155500000Y-94040000D03*
%TO.N,VREF*%
X158040000Y-91500000D03*
%TO.N,PGND*%
X158040000Y-94040000D03*
%TO.N,GND*%
X160580000Y-91500000D03*
%TO.N,3.3V*%
X160580000Y-94040000D03*
%TD*%
D16*
%TO.N,GND*%
X167000000Y-103000000D03*
X137000000Y-109000000D03*
X149000000Y-127000000D03*
X159400000Y-105000000D03*
X143000000Y-103000000D03*
X167000000Y-127000000D03*
X137000000Y-127000000D03*
X173000000Y-91000000D03*
X149000000Y-121000000D03*
X143000000Y-109000000D03*
X143000000Y-91000000D03*
X155000000Y-121000000D03*
X137000000Y-103000000D03*
X161000000Y-121000000D03*
X173000000Y-103000000D03*
X179000000Y-127000000D03*
X179000000Y-97000000D03*
X167000000Y-91000000D03*
X155000000Y-127000000D03*
X143000000Y-97000000D03*
X143000000Y-133000000D03*
X163100000Y-101900000D03*
X173000000Y-97000000D03*
X161000000Y-127000000D03*
X149000000Y-115000000D03*
X137000000Y-121000000D03*
X167000000Y-121000000D03*
X137000000Y-97000000D03*
%TO.N,3.3V*%
X156500000Y-101700000D03*
X152500000Y-101700000D03*
X154500000Y-101700000D03*
X150600000Y-101700000D03*
%TO.N,M1*%
X161000000Y-114000000D03*
X163000000Y-114000000D03*
X162000000Y-114000000D03*
%TO.N,M2*%
X162000000Y-111700000D03*
X164000000Y-111700000D03*
X163000000Y-111700000D03*
%TO.N,M3*%
X161500000Y-110600000D03*
X163500000Y-110600000D03*
X162500000Y-110600000D03*
%TO.N,PGND*%
X161900000Y-109700000D03*
X160800000Y-106900000D03*
%TD*%
%TA.AperFunction,Conductor*%
%TO.N,GND*%
G36*
X180418745Y-88618745D02*
G01*
X183381255Y-91581255D01*
X183400000Y-91626510D01*
X183400000Y-134373490D01*
X183381255Y-134418745D01*
X180418745Y-137381255D01*
X180373490Y-137400000D01*
X137626510Y-137400000D01*
X137581255Y-137381255D01*
X134618745Y-134418745D01*
X134600000Y-134373490D01*
X134600000Y-133881983D01*
X136199500Y-133881983D01*
X136199500Y-134118016D01*
X136230305Y-134352008D01*
X136230308Y-134352022D01*
X136291393Y-134579993D01*
X136381716Y-134798050D01*
X136499728Y-135002452D01*
X136571567Y-135096074D01*
X136643408Y-135189699D01*
X136810301Y-135356592D01*
X136997550Y-135500273D01*
X137021759Y-135514250D01*
X137201949Y-135618283D01*
X137420006Y-135708606D01*
X137647977Y-135769691D01*
X137647991Y-135769694D01*
X137792899Y-135788771D01*
X137881989Y-135800500D01*
X138118011Y-135800500D01*
X138262924Y-135781421D01*
X138352008Y-135769694D01*
X138352010Y-135769693D01*
X138352014Y-135769693D01*
X138352019Y-135769691D01*
X138352022Y-135769691D01*
X138579993Y-135708606D01*
X138798049Y-135618284D01*
X139002450Y-135500273D01*
X139189699Y-135356592D01*
X139356592Y-135189699D01*
X139500273Y-135002450D01*
X139618284Y-134798049D01*
X139708606Y-134579993D01*
X139769691Y-134352022D01*
X139769694Y-134352008D01*
X139800499Y-134118016D01*
X139800500Y-134118011D01*
X139800500Y-133881988D01*
X139800499Y-133881983D01*
X178199500Y-133881983D01*
X178199500Y-134118016D01*
X178230305Y-134352008D01*
X178230308Y-134352022D01*
X178291393Y-134579993D01*
X178381716Y-134798050D01*
X178499728Y-135002452D01*
X178571567Y-135096074D01*
X178643408Y-135189699D01*
X178810301Y-135356592D01*
X178997550Y-135500273D01*
X179021759Y-135514250D01*
X179201949Y-135618283D01*
X179420006Y-135708606D01*
X179647977Y-135769691D01*
X179647991Y-135769694D01*
X179792899Y-135788771D01*
X179881989Y-135800500D01*
X180118011Y-135800500D01*
X180262924Y-135781421D01*
X180352008Y-135769694D01*
X180352010Y-135769693D01*
X180352014Y-135769693D01*
X180352019Y-135769691D01*
X180352022Y-135769691D01*
X180579993Y-135708606D01*
X180798049Y-135618284D01*
X181002450Y-135500273D01*
X181189699Y-135356592D01*
X181356592Y-135189699D01*
X181500273Y-135002450D01*
X181618284Y-134798049D01*
X181708606Y-134579993D01*
X181769691Y-134352022D01*
X181769694Y-134352008D01*
X181800499Y-134118016D01*
X181800500Y-134118011D01*
X181800500Y-133881988D01*
X181800499Y-133881983D01*
X181769694Y-133647991D01*
X181769691Y-133647977D01*
X181708606Y-133420006D01*
X181618283Y-133201949D01*
X181500271Y-132997547D01*
X181459695Y-132944667D01*
X181356592Y-132810301D01*
X181189699Y-132643408D01*
X181096074Y-132571567D01*
X181002452Y-132499728D01*
X180798050Y-132381716D01*
X180579993Y-132291393D01*
X180352022Y-132230308D01*
X180352008Y-132230305D01*
X180118016Y-132199500D01*
X180118011Y-132199500D01*
X179881989Y-132199500D01*
X179881983Y-132199500D01*
X179647991Y-132230305D01*
X179647977Y-132230308D01*
X179420006Y-132291393D01*
X179201949Y-132381716D01*
X178997547Y-132499728D01*
X178810302Y-132643407D01*
X178643407Y-132810302D01*
X178499728Y-132997547D01*
X178381716Y-133201949D01*
X178291393Y-133420006D01*
X178230308Y-133647977D01*
X178230305Y-133647991D01*
X178199500Y-133881983D01*
X139800499Y-133881983D01*
X139769694Y-133647991D01*
X139769691Y-133647977D01*
X139708606Y-133420006D01*
X139618283Y-133201949D01*
X139500271Y-132997547D01*
X139459695Y-132944667D01*
X139356592Y-132810301D01*
X139189699Y-132643408D01*
X139096074Y-132571567D01*
X139002452Y-132499728D01*
X138798050Y-132381716D01*
X138579993Y-132291393D01*
X138352022Y-132230308D01*
X138352008Y-132230305D01*
X138118016Y-132199500D01*
X138118011Y-132199500D01*
X137881989Y-132199500D01*
X137881983Y-132199500D01*
X137647991Y-132230305D01*
X137647977Y-132230308D01*
X137420006Y-132291393D01*
X137201949Y-132381716D01*
X136997547Y-132499728D01*
X136810302Y-132643407D01*
X136643407Y-132810302D01*
X136499728Y-132997547D01*
X136381716Y-133201949D01*
X136291393Y-133420006D01*
X136230308Y-133647977D01*
X136230305Y-133647991D01*
X136199500Y-133881983D01*
X134600000Y-133881983D01*
X134600000Y-119799991D01*
X177099500Y-119799991D01*
X177099500Y-119799992D01*
X177099500Y-119799996D01*
X177099500Y-122200002D01*
X177099501Y-122200008D01*
X177107001Y-122273428D01*
X177110001Y-122302799D01*
X177110002Y-122302801D01*
X177165186Y-122469334D01*
X177257288Y-122618656D01*
X177381344Y-122742712D01*
X177530666Y-122834814D01*
X177586514Y-122853320D01*
X177697192Y-122889996D01*
X177697195Y-122889996D01*
X177697203Y-122889999D01*
X177799991Y-122900500D01*
X180200008Y-122900499D01*
X180302797Y-122889999D01*
X180469334Y-122834814D01*
X180618656Y-122742712D01*
X180742712Y-122618656D01*
X180834814Y-122469334D01*
X180889999Y-122302797D01*
X180900500Y-122200009D01*
X180900499Y-119799992D01*
X180889999Y-119697203D01*
X180834814Y-119530666D01*
X180742712Y-119381344D01*
X180618656Y-119257288D01*
X180618655Y-119257287D01*
X180469332Y-119165185D01*
X180469329Y-119165184D01*
X180302807Y-119110003D01*
X180302801Y-119110002D01*
X180302799Y-119110001D01*
X180302797Y-119110001D01*
X180200009Y-119099500D01*
X180200003Y-119099500D01*
X177799997Y-119099500D01*
X177799996Y-119099500D01*
X177799992Y-119099501D01*
X177741255Y-119105501D01*
X177697200Y-119110001D01*
X177530670Y-119165184D01*
X177530667Y-119165185D01*
X177381344Y-119257287D01*
X177381344Y-119257288D01*
X177257288Y-119381344D01*
X177257287Y-119381344D01*
X177165185Y-119530667D01*
X177165184Y-119530670D01*
X177110003Y-119697192D01*
X177110002Y-119697198D01*
X177110001Y-119697200D01*
X177110001Y-119697203D01*
X177099500Y-119799991D01*
X134600000Y-119799991D01*
X134600000Y-115875429D01*
X177099500Y-115875429D01*
X177099500Y-116124570D01*
X177132016Y-116371559D01*
X177132019Y-116371573D01*
X177196497Y-116612207D01*
X177291831Y-116842364D01*
X177291835Y-116842371D01*
X177291836Y-116842373D01*
X177416401Y-117058127D01*
X177568062Y-117255776D01*
X177744224Y-117431938D01*
X177941873Y-117583599D01*
X178157627Y-117708164D01*
X178157630Y-117708165D01*
X178157635Y-117708168D01*
X178387792Y-117803502D01*
X178628426Y-117867980D01*
X178628440Y-117867983D01*
X178781396Y-117888119D01*
X178875435Y-117900500D01*
X179124565Y-117900500D01*
X179277526Y-117880362D01*
X179371559Y-117867983D01*
X179371561Y-117867982D01*
X179371565Y-117867982D01*
X179371570Y-117867980D01*
X179371573Y-117867980D01*
X179612207Y-117803502D01*
X179842364Y-117708168D01*
X179842365Y-117708167D01*
X179842373Y-117708164D01*
X180058127Y-117583599D01*
X180255776Y-117431938D01*
X180431938Y-117255776D01*
X180583599Y-117058127D01*
X180708164Y-116842373D01*
X180803502Y-116612207D01*
X180867982Y-116371565D01*
X180900500Y-116124565D01*
X180900500Y-115875435D01*
X180867982Y-115628435D01*
X180803502Y-115387793D01*
X180803502Y-115387792D01*
X180708168Y-115157635D01*
X180708165Y-115157630D01*
X180708164Y-115157627D01*
X180583599Y-114941873D01*
X180431938Y-114744224D01*
X180255776Y-114568062D01*
X180058127Y-114416401D01*
X179842373Y-114291836D01*
X179842371Y-114291835D01*
X179842364Y-114291831D01*
X179612207Y-114196497D01*
X179371573Y-114132019D01*
X179371559Y-114132016D01*
X179124570Y-114099500D01*
X179124565Y-114099500D01*
X178875435Y-114099500D01*
X178875429Y-114099500D01*
X178628440Y-114132016D01*
X178628426Y-114132019D01*
X178387792Y-114196497D01*
X178157635Y-114291831D01*
X177941874Y-114416400D01*
X177744225Y-114568061D01*
X177568061Y-114744225D01*
X177416400Y-114941874D01*
X177291831Y-115157635D01*
X177196497Y-115387792D01*
X177132019Y-115628426D01*
X177132016Y-115628440D01*
X177099500Y-115875429D01*
X134600000Y-115875429D01*
X134600000Y-113375429D01*
X138399500Y-113375429D01*
X138399500Y-113624570D01*
X138432016Y-113871559D01*
X138432019Y-113871573D01*
X138496497Y-114112207D01*
X138591831Y-114342364D01*
X138591835Y-114342371D01*
X138591836Y-114342373D01*
X138716401Y-114558127D01*
X138868062Y-114755776D01*
X139044224Y-114931938D01*
X139241873Y-115083599D01*
X139457627Y-115208164D01*
X139457630Y-115208165D01*
X139457635Y-115208168D01*
X139687792Y-115303502D01*
X139928426Y-115367980D01*
X139928440Y-115367983D01*
X140078908Y-115387792D01*
X140175435Y-115400500D01*
X140424565Y-115400500D01*
X140577526Y-115380362D01*
X140671559Y-115367983D01*
X140671561Y-115367982D01*
X140671565Y-115367982D01*
X140671570Y-115367980D01*
X140671573Y-115367980D01*
X140912207Y-115303502D01*
X141142364Y-115208168D01*
X141142365Y-115208167D01*
X141142373Y-115208164D01*
X141358127Y-115083599D01*
X141555776Y-114931938D01*
X141731938Y-114755776D01*
X141883599Y-114558127D01*
X142008164Y-114342373D01*
X142068588Y-114196498D01*
X142103502Y-114112207D01*
X142154695Y-113921155D01*
X160199500Y-113921155D01*
X160199500Y-114078844D01*
X160230262Y-114233495D01*
X160230263Y-114233501D01*
X160282897Y-114360568D01*
X160290606Y-114379179D01*
X160378211Y-114510289D01*
X160489711Y-114621789D01*
X160620821Y-114709394D01*
X160684356Y-114735711D01*
X160766498Y-114769736D01*
X160766502Y-114769736D01*
X160766503Y-114769737D01*
X160805166Y-114777427D01*
X160921155Y-114800500D01*
X160921158Y-114800500D01*
X161078845Y-114800500D01*
X161171635Y-114782042D01*
X161233497Y-114769737D01*
X161233498Y-114769736D01*
X161233501Y-114769736D01*
X161295091Y-114744224D01*
X161379179Y-114709394D01*
X161464444Y-114652420D01*
X161512485Y-114642865D01*
X161535554Y-114652419D01*
X161620821Y-114709394D01*
X161684356Y-114735711D01*
X161766498Y-114769736D01*
X161766502Y-114769736D01*
X161766503Y-114769737D01*
X161805166Y-114777427D01*
X161921155Y-114800500D01*
X161921158Y-114800500D01*
X162078845Y-114800500D01*
X162171635Y-114782042D01*
X162233497Y-114769737D01*
X162233498Y-114769736D01*
X162233501Y-114769736D01*
X162295091Y-114744224D01*
X162379179Y-114709394D01*
X162464444Y-114652420D01*
X162512485Y-114642865D01*
X162535554Y-114652419D01*
X162620821Y-114709394D01*
X162684356Y-114735711D01*
X162766498Y-114769736D01*
X162766502Y-114769736D01*
X162766503Y-114769737D01*
X162805166Y-114777427D01*
X162921155Y-114800500D01*
X162921158Y-114800500D01*
X163078845Y-114800500D01*
X163171635Y-114782042D01*
X163233497Y-114769737D01*
X163233498Y-114769736D01*
X163233501Y-114769736D01*
X163295091Y-114744224D01*
X163379179Y-114709394D01*
X163510289Y-114621789D01*
X163621789Y-114510289D01*
X163709394Y-114379179D01*
X163748869Y-114283875D01*
X163769736Y-114233501D01*
X163769737Y-114233495D01*
X163777097Y-114196498D01*
X163800500Y-114078842D01*
X163800500Y-113921158D01*
X163800500Y-113921155D01*
X163769737Y-113766504D01*
X163769736Y-113766498D01*
X163735711Y-113684356D01*
X163709394Y-113620821D01*
X163621789Y-113489711D01*
X163510289Y-113378211D01*
X163379179Y-113290606D01*
X163360568Y-113282897D01*
X163233501Y-113230263D01*
X163233495Y-113230262D01*
X163078845Y-113199500D01*
X163078842Y-113199500D01*
X162921158Y-113199500D01*
X162921155Y-113199500D01*
X162766504Y-113230262D01*
X162766498Y-113230263D01*
X162620823Y-113290605D01*
X162620820Y-113290606D01*
X162568682Y-113325443D01*
X162535556Y-113347578D01*
X162487514Y-113357134D01*
X162464444Y-113347578D01*
X162379179Y-113290606D01*
X162360568Y-113282897D01*
X162233501Y-113230263D01*
X162233495Y-113230262D01*
X162078845Y-113199500D01*
X162078842Y-113199500D01*
X161921158Y-113199500D01*
X161921155Y-113199500D01*
X161766504Y-113230262D01*
X161766498Y-113230263D01*
X161620823Y-113290605D01*
X161620820Y-113290606D01*
X161568682Y-113325443D01*
X161535556Y-113347578D01*
X161487514Y-113357134D01*
X161464444Y-113347578D01*
X161379179Y-113290606D01*
X161360568Y-113282897D01*
X161233501Y-113230263D01*
X161233495Y-113230262D01*
X161078845Y-113199500D01*
X161078842Y-113199500D01*
X160921158Y-113199500D01*
X160921155Y-113199500D01*
X160766504Y-113230262D01*
X160766498Y-113230263D01*
X160620823Y-113290605D01*
X160620820Y-113290606D01*
X160489709Y-113378212D01*
X160378212Y-113489709D01*
X160290606Y-113620820D01*
X160290605Y-113620823D01*
X160230263Y-113766498D01*
X160230262Y-113766504D01*
X160199500Y-113921155D01*
X142154695Y-113921155D01*
X142159975Y-113901449D01*
X142167980Y-113871573D01*
X142167983Y-113871559D01*
X142200499Y-113624570D01*
X142200500Y-113624565D01*
X142200500Y-113375434D01*
X142200499Y-113375429D01*
X142198090Y-113357134D01*
X142167982Y-113128435D01*
X142103502Y-112887793D01*
X142103502Y-112887792D01*
X142008168Y-112657635D01*
X142008165Y-112657630D01*
X142008164Y-112657627D01*
X141883599Y-112441873D01*
X141731938Y-112244224D01*
X141555776Y-112068062D01*
X141358127Y-111916401D01*
X141142373Y-111791836D01*
X141142371Y-111791835D01*
X141142364Y-111791831D01*
X140912207Y-111696497D01*
X140671573Y-111632019D01*
X140671559Y-111632016D01*
X140424570Y-111599500D01*
X140424565Y-111599500D01*
X140175435Y-111599500D01*
X140175429Y-111599500D01*
X139928440Y-111632016D01*
X139928426Y-111632019D01*
X139687792Y-111696497D01*
X139457635Y-111791831D01*
X139241874Y-111916400D01*
X139044225Y-112068061D01*
X138868061Y-112244225D01*
X138716400Y-112441874D01*
X138591831Y-112657635D01*
X138496497Y-112887792D01*
X138432019Y-113128426D01*
X138432016Y-113128440D01*
X138399500Y-113375429D01*
X134600000Y-113375429D01*
X134600000Y-110521155D01*
X160699500Y-110521155D01*
X160699500Y-110678844D01*
X160730262Y-110833495D01*
X160730263Y-110833501D01*
X160770052Y-110929557D01*
X160790606Y-110979179D01*
X160878211Y-111110289D01*
X160989711Y-111221789D01*
X161120821Y-111309394D01*
X161120826Y-111309396D01*
X161210652Y-111346603D01*
X161245289Y-111381239D01*
X161245290Y-111430222D01*
X161230263Y-111466501D01*
X161230262Y-111466505D01*
X161199500Y-111621155D01*
X161199500Y-111778844D01*
X161230262Y-111933495D01*
X161230263Y-111933501D01*
X161281885Y-112058125D01*
X161290606Y-112079179D01*
X161378211Y-112210289D01*
X161489711Y-112321789D01*
X161620821Y-112409394D01*
X161684356Y-112435711D01*
X161766498Y-112469736D01*
X161766502Y-112469736D01*
X161766503Y-112469737D01*
X161805166Y-112477427D01*
X161921155Y-112500500D01*
X161921158Y-112500500D01*
X162078845Y-112500500D01*
X162171635Y-112482042D01*
X162233497Y-112469737D01*
X162233498Y-112469736D01*
X162233501Y-112469736D01*
X162283875Y-112448869D01*
X162379179Y-112409394D01*
X162464444Y-112352420D01*
X162512485Y-112342865D01*
X162535554Y-112352419D01*
X162620821Y-112409394D01*
X162684356Y-112435711D01*
X162766498Y-112469736D01*
X162766502Y-112469736D01*
X162766503Y-112469737D01*
X162805166Y-112477427D01*
X162921155Y-112500500D01*
X162921158Y-112500500D01*
X163078845Y-112500500D01*
X163171635Y-112482042D01*
X163233497Y-112469737D01*
X163233498Y-112469736D01*
X163233501Y-112469736D01*
X163283875Y-112448869D01*
X163379179Y-112409394D01*
X163464444Y-112352420D01*
X163512485Y-112342865D01*
X163535554Y-112352419D01*
X163620821Y-112409394D01*
X163684356Y-112435711D01*
X163766498Y-112469736D01*
X163766502Y-112469736D01*
X163766503Y-112469737D01*
X163805166Y-112477427D01*
X163921155Y-112500500D01*
X163921158Y-112500500D01*
X164078845Y-112500500D01*
X164171635Y-112482042D01*
X164233497Y-112469737D01*
X164233498Y-112469736D01*
X164233501Y-112469736D01*
X164283875Y-112448869D01*
X164379179Y-112409394D01*
X164510289Y-112321789D01*
X164621789Y-112210289D01*
X164709394Y-112079179D01*
X164748869Y-111983875D01*
X164769736Y-111933501D01*
X164769737Y-111933495D01*
X164773138Y-111916401D01*
X164787865Y-111842364D01*
X164800500Y-111778844D01*
X164800500Y-111621155D01*
X164769737Y-111466504D01*
X164769736Y-111466498D01*
X164730410Y-111371559D01*
X164709394Y-111320821D01*
X164621789Y-111189711D01*
X164510289Y-111078211D01*
X164379179Y-110990606D01*
X164351592Y-110979179D01*
X164289345Y-110953395D01*
X164289343Y-110953395D01*
X164254708Y-110918757D01*
X164254708Y-110875429D01*
X177099500Y-110875429D01*
X177099500Y-111124570D01*
X177132016Y-111371559D01*
X177132019Y-111371573D01*
X177196497Y-111612207D01*
X177291831Y-111842364D01*
X177291835Y-111842371D01*
X177291836Y-111842373D01*
X177416401Y-112058127D01*
X177568062Y-112255776D01*
X177744224Y-112431938D01*
X177941873Y-112583599D01*
X178157627Y-112708164D01*
X178157630Y-112708165D01*
X178157635Y-112708168D01*
X178387792Y-112803502D01*
X178628426Y-112867980D01*
X178628440Y-112867983D01*
X178778908Y-112887792D01*
X178875435Y-112900500D01*
X179124565Y-112900500D01*
X179277526Y-112880362D01*
X179371559Y-112867983D01*
X179371561Y-112867982D01*
X179371565Y-112867982D01*
X179371570Y-112867980D01*
X179371573Y-112867980D01*
X179612207Y-112803502D01*
X179842364Y-112708168D01*
X179842365Y-112708167D01*
X179842373Y-112708164D01*
X180058127Y-112583599D01*
X180255776Y-112431938D01*
X180431938Y-112255776D01*
X180583599Y-112058127D01*
X180708164Y-111842373D01*
X180734480Y-111778842D01*
X180803502Y-111612207D01*
X180867980Y-111371573D01*
X180867983Y-111371559D01*
X180887700Y-111221789D01*
X180900500Y-111124565D01*
X180900500Y-110875435D01*
X180888119Y-110781396D01*
X180867983Y-110628440D01*
X180867980Y-110628426D01*
X180803502Y-110387792D01*
X180708168Y-110157635D01*
X180708165Y-110157630D01*
X180708164Y-110157627D01*
X180583599Y-109941873D01*
X180431938Y-109744224D01*
X180255776Y-109568062D01*
X180058127Y-109416401D01*
X179842373Y-109291836D01*
X179842371Y-109291835D01*
X179842364Y-109291831D01*
X179612207Y-109196497D01*
X179371573Y-109132019D01*
X179371559Y-109132016D01*
X179124570Y-109099500D01*
X179124565Y-109099500D01*
X178875435Y-109099500D01*
X178875429Y-109099500D01*
X178628440Y-109132016D01*
X178628426Y-109132019D01*
X178387792Y-109196497D01*
X178157635Y-109291831D01*
X177941874Y-109416400D01*
X177744225Y-109568061D01*
X177568061Y-109744225D01*
X177416400Y-109941874D01*
X177291831Y-110157635D01*
X177196497Y-110387792D01*
X177132019Y-110628426D01*
X177132016Y-110628440D01*
X177099500Y-110875429D01*
X164254708Y-110875429D01*
X164254708Y-110869777D01*
X164269737Y-110833497D01*
X164300500Y-110678842D01*
X164300500Y-110521158D01*
X164300500Y-110521155D01*
X164269737Y-110366504D01*
X164269736Y-110366498D01*
X164235711Y-110284356D01*
X164209394Y-110220821D01*
X164121789Y-110089711D01*
X164010289Y-109978211D01*
X163879179Y-109890606D01*
X163860568Y-109882897D01*
X163733501Y-109830263D01*
X163733495Y-109830262D01*
X163578845Y-109799500D01*
X163578842Y-109799500D01*
X163421158Y-109799500D01*
X163421155Y-109799500D01*
X163266504Y-109830262D01*
X163266498Y-109830263D01*
X163120823Y-109890605D01*
X163120820Y-109890606D01*
X163086068Y-109913827D01*
X163035556Y-109947578D01*
X162987514Y-109957134D01*
X162964444Y-109947578D01*
X162879179Y-109890606D01*
X162850230Y-109878615D01*
X162740008Y-109832959D01*
X162705372Y-109798323D01*
X162700500Y-109773831D01*
X162700500Y-109621155D01*
X162669737Y-109466504D01*
X162669736Y-109466498D01*
X162635711Y-109384356D01*
X162609394Y-109320821D01*
X162521789Y-109189711D01*
X162410289Y-109078211D01*
X162279179Y-108990606D01*
X162260568Y-108982897D01*
X162133501Y-108930263D01*
X162133495Y-108930262D01*
X161978845Y-108899500D01*
X161978842Y-108899500D01*
X161821158Y-108899500D01*
X161821155Y-108899500D01*
X161666504Y-108930262D01*
X161666498Y-108930263D01*
X161520823Y-108990605D01*
X161520820Y-108990606D01*
X161389709Y-109078212D01*
X161278212Y-109189709D01*
X161190606Y-109320820D01*
X161190605Y-109320823D01*
X161130263Y-109466498D01*
X161130262Y-109466504D01*
X161099500Y-109621155D01*
X161099500Y-109778844D01*
X161113281Y-109848127D01*
X161103725Y-109896170D01*
X161086068Y-109913827D01*
X160989709Y-109978212D01*
X160878212Y-110089709D01*
X160790606Y-110220820D01*
X160790605Y-110220823D01*
X160730263Y-110366498D01*
X160730262Y-110366504D01*
X160699500Y-110521155D01*
X134600000Y-110521155D01*
X134600000Y-106821155D01*
X159999500Y-106821155D01*
X159999500Y-106978844D01*
X160030262Y-107133495D01*
X160030263Y-107133501D01*
X160080911Y-107255774D01*
X160090606Y-107279179D01*
X160178211Y-107410289D01*
X160289711Y-107521789D01*
X160420821Y-107609394D01*
X160484356Y-107635711D01*
X160566498Y-107669736D01*
X160566502Y-107669736D01*
X160566503Y-107669737D01*
X160605166Y-107677427D01*
X160721155Y-107700500D01*
X160721158Y-107700500D01*
X160878845Y-107700500D01*
X160971635Y-107682042D01*
X161033497Y-107669737D01*
X161033498Y-107669736D01*
X161033501Y-107669736D01*
X161083875Y-107648869D01*
X161179179Y-107609394D01*
X161310289Y-107521789D01*
X161421789Y-107410289D01*
X161509394Y-107279179D01*
X161548869Y-107183875D01*
X161569736Y-107133501D01*
X161569737Y-107133495D01*
X161600500Y-106978844D01*
X161600500Y-106821155D01*
X161569737Y-106666504D01*
X161569736Y-106666498D01*
X161535711Y-106584356D01*
X161509394Y-106520821D01*
X161421789Y-106389711D01*
X161310289Y-106278211D01*
X161179179Y-106190606D01*
X161160568Y-106182897D01*
X161033501Y-106130263D01*
X161033495Y-106130262D01*
X160878845Y-106099500D01*
X160878842Y-106099500D01*
X160721158Y-106099500D01*
X160721155Y-106099500D01*
X160566504Y-106130262D01*
X160566498Y-106130263D01*
X160420823Y-106190605D01*
X160420820Y-106190606D01*
X160289709Y-106278212D01*
X160178212Y-106389709D01*
X160090606Y-106520820D01*
X160090605Y-106520823D01*
X160030263Y-106666498D01*
X160030262Y-106666504D01*
X159999500Y-106821155D01*
X134600000Y-106821155D01*
X134600000Y-105875429D01*
X177099500Y-105875429D01*
X177099500Y-106124570D01*
X177132016Y-106371559D01*
X177132019Y-106371573D01*
X177196497Y-106612207D01*
X177291831Y-106842364D01*
X177291835Y-106842371D01*
X177291836Y-106842373D01*
X177416401Y-107058127D01*
X177568062Y-107255776D01*
X177744224Y-107431938D01*
X177941873Y-107583599D01*
X178157627Y-107708164D01*
X178157630Y-107708165D01*
X178157635Y-107708168D01*
X178387792Y-107803502D01*
X178628426Y-107867980D01*
X178628440Y-107867983D01*
X178781396Y-107888119D01*
X178875435Y-107900500D01*
X179124565Y-107900500D01*
X179277526Y-107880362D01*
X179371559Y-107867983D01*
X179371561Y-107867982D01*
X179371565Y-107867982D01*
X179371570Y-107867980D01*
X179371573Y-107867980D01*
X179612207Y-107803502D01*
X179842364Y-107708168D01*
X179842365Y-107708167D01*
X179842373Y-107708164D01*
X180058127Y-107583599D01*
X180255776Y-107431938D01*
X180431938Y-107255776D01*
X180583599Y-107058127D01*
X180708164Y-106842373D01*
X180803502Y-106612207D01*
X180867982Y-106371565D01*
X180900500Y-106124565D01*
X180900500Y-105875435D01*
X180867982Y-105628435D01*
X180803502Y-105387793D01*
X180803502Y-105387792D01*
X180708168Y-105157635D01*
X180708165Y-105157630D01*
X180708164Y-105157627D01*
X180583599Y-104941873D01*
X180431938Y-104744224D01*
X180255776Y-104568062D01*
X180058127Y-104416401D01*
X179842373Y-104291836D01*
X179842371Y-104291835D01*
X179842364Y-104291831D01*
X179612207Y-104196497D01*
X179371573Y-104132019D01*
X179371559Y-104132016D01*
X179124570Y-104099500D01*
X179124565Y-104099500D01*
X178875435Y-104099500D01*
X178875429Y-104099500D01*
X178628440Y-104132016D01*
X178628426Y-104132019D01*
X178387792Y-104196497D01*
X178157635Y-104291831D01*
X177941874Y-104416400D01*
X177744225Y-104568061D01*
X177568061Y-104744225D01*
X177416400Y-104941874D01*
X177291831Y-105157635D01*
X177196497Y-105387792D01*
X177132019Y-105628426D01*
X177132016Y-105628440D01*
X177099500Y-105875429D01*
X134600000Y-105875429D01*
X134600000Y-101621155D01*
X149799500Y-101621155D01*
X149799500Y-101778844D01*
X149830262Y-101933495D01*
X149830263Y-101933501D01*
X149882897Y-102060568D01*
X149890606Y-102079179D01*
X149978211Y-102210289D01*
X150089711Y-102321789D01*
X150220821Y-102409394D01*
X150284356Y-102435711D01*
X150366498Y-102469736D01*
X150366502Y-102469736D01*
X150366503Y-102469737D01*
X150405166Y-102477427D01*
X150521155Y-102500500D01*
X150521158Y-102500500D01*
X150678845Y-102500500D01*
X150771635Y-102482042D01*
X150833497Y-102469737D01*
X150833498Y-102469736D01*
X150833501Y-102469736D01*
X150883875Y-102448869D01*
X150979179Y-102409394D01*
X151110289Y-102321789D01*
X151221789Y-102210289D01*
X151309394Y-102079179D01*
X151348869Y-101983875D01*
X151369736Y-101933501D01*
X151369737Y-101933495D01*
X151400500Y-101778844D01*
X151400500Y-101621155D01*
X151699500Y-101621155D01*
X151699500Y-101778844D01*
X151730262Y-101933495D01*
X151730263Y-101933501D01*
X151782897Y-102060568D01*
X151790606Y-102079179D01*
X151878211Y-102210289D01*
X151989711Y-102321789D01*
X152120821Y-102409394D01*
X152184356Y-102435711D01*
X152266498Y-102469736D01*
X152266502Y-102469736D01*
X152266503Y-102469737D01*
X152305166Y-102477427D01*
X152421155Y-102500500D01*
X152421158Y-102500500D01*
X152578845Y-102500500D01*
X152671635Y-102482042D01*
X152733497Y-102469737D01*
X152733498Y-102469736D01*
X152733501Y-102469736D01*
X152783875Y-102448869D01*
X152879179Y-102409394D01*
X153010289Y-102321789D01*
X153121789Y-102210289D01*
X153209394Y-102079179D01*
X153248869Y-101983875D01*
X153269736Y-101933501D01*
X153269737Y-101933495D01*
X153300500Y-101778844D01*
X153300500Y-101621155D01*
X153699500Y-101621155D01*
X153699500Y-101778844D01*
X153730262Y-101933495D01*
X153730263Y-101933501D01*
X153782897Y-102060568D01*
X153790606Y-102079179D01*
X153878211Y-102210289D01*
X153989711Y-102321789D01*
X154120821Y-102409394D01*
X154184356Y-102435711D01*
X154266498Y-102469736D01*
X154266502Y-102469736D01*
X154266503Y-102469737D01*
X154305166Y-102477427D01*
X154421155Y-102500500D01*
X154421158Y-102500500D01*
X154578845Y-102500500D01*
X154671635Y-102482042D01*
X154733497Y-102469737D01*
X154733498Y-102469736D01*
X154733501Y-102469736D01*
X154783875Y-102448869D01*
X154879179Y-102409394D01*
X155010289Y-102321789D01*
X155121789Y-102210289D01*
X155209394Y-102079179D01*
X155248869Y-101983875D01*
X155269736Y-101933501D01*
X155269737Y-101933495D01*
X155300500Y-101778844D01*
X155300500Y-101621155D01*
X155699500Y-101621155D01*
X155699500Y-101778844D01*
X155730262Y-101933495D01*
X155730263Y-101933501D01*
X155782897Y-102060568D01*
X155790606Y-102079179D01*
X155878211Y-102210289D01*
X155989711Y-102321789D01*
X156120821Y-102409394D01*
X156184356Y-102435711D01*
X156266498Y-102469736D01*
X156266502Y-102469736D01*
X156266503Y-102469737D01*
X156305166Y-102477427D01*
X156421155Y-102500500D01*
X156421158Y-102500500D01*
X156578845Y-102500500D01*
X156671635Y-102482042D01*
X156733497Y-102469737D01*
X156733498Y-102469736D01*
X156733501Y-102469736D01*
X156783875Y-102448869D01*
X156879179Y-102409394D01*
X157010289Y-102321789D01*
X157121789Y-102210289D01*
X157209394Y-102079179D01*
X157248869Y-101983875D01*
X157269736Y-101933501D01*
X157269737Y-101933495D01*
X157300500Y-101778844D01*
X157300500Y-101621155D01*
X157269737Y-101466504D01*
X157269736Y-101466498D01*
X157235711Y-101384356D01*
X157209394Y-101320821D01*
X157121789Y-101189711D01*
X157010289Y-101078211D01*
X156879179Y-100990606D01*
X156860568Y-100982897D01*
X156733501Y-100930263D01*
X156733495Y-100930262D01*
X156578845Y-100899500D01*
X156578842Y-100899500D01*
X156421158Y-100899500D01*
X156421155Y-100899500D01*
X156266504Y-100930262D01*
X156266498Y-100930263D01*
X156120823Y-100990605D01*
X156120820Y-100990606D01*
X155989709Y-101078212D01*
X155878212Y-101189709D01*
X155790606Y-101320820D01*
X155790605Y-101320823D01*
X155730263Y-101466498D01*
X155730262Y-101466504D01*
X155699500Y-101621155D01*
X155300500Y-101621155D01*
X155269737Y-101466504D01*
X155269736Y-101466498D01*
X155235711Y-101384356D01*
X155209394Y-101320821D01*
X155121789Y-101189711D01*
X155010289Y-101078211D01*
X154879179Y-100990606D01*
X154860568Y-100982897D01*
X154733501Y-100930263D01*
X154733495Y-100930262D01*
X154578845Y-100899500D01*
X154578842Y-100899500D01*
X154421158Y-100899500D01*
X154421155Y-100899500D01*
X154266504Y-100930262D01*
X154266498Y-100930263D01*
X154120823Y-100990605D01*
X154120820Y-100990606D01*
X153989709Y-101078212D01*
X153878212Y-101189709D01*
X153790606Y-101320820D01*
X153790605Y-101320823D01*
X153730263Y-101466498D01*
X153730262Y-101466504D01*
X153699500Y-101621155D01*
X153300500Y-101621155D01*
X153269737Y-101466504D01*
X153269736Y-101466498D01*
X153235711Y-101384356D01*
X153209394Y-101320821D01*
X153121789Y-101189711D01*
X153010289Y-101078211D01*
X152879179Y-100990606D01*
X152860568Y-100982897D01*
X152733501Y-100930263D01*
X152733495Y-100930262D01*
X152578845Y-100899500D01*
X152578842Y-100899500D01*
X152421158Y-100899500D01*
X152421155Y-100899500D01*
X152266504Y-100930262D01*
X152266498Y-100930263D01*
X152120823Y-100990605D01*
X152120820Y-100990606D01*
X151989709Y-101078212D01*
X151878212Y-101189709D01*
X151790606Y-101320820D01*
X151790605Y-101320823D01*
X151730263Y-101466498D01*
X151730262Y-101466504D01*
X151699500Y-101621155D01*
X151400500Y-101621155D01*
X151369737Y-101466504D01*
X151369736Y-101466498D01*
X151335711Y-101384356D01*
X151309394Y-101320821D01*
X151221789Y-101189711D01*
X151110289Y-101078211D01*
X150979179Y-100990606D01*
X150960568Y-100982897D01*
X150833501Y-100930263D01*
X150833495Y-100930262D01*
X150678845Y-100899500D01*
X150678842Y-100899500D01*
X150521158Y-100899500D01*
X150521155Y-100899500D01*
X150366504Y-100930262D01*
X150366498Y-100930263D01*
X150220823Y-100990605D01*
X150220820Y-100990606D01*
X150089709Y-101078212D01*
X149978212Y-101189709D01*
X149890606Y-101320820D01*
X149890605Y-101320823D01*
X149830263Y-101466498D01*
X149830262Y-101466504D01*
X149799500Y-101621155D01*
X134600000Y-101621155D01*
X134600000Y-91881983D01*
X136199500Y-91881983D01*
X136199500Y-92118016D01*
X136230305Y-92352008D01*
X136230308Y-92352022D01*
X136291393Y-92579993D01*
X136381716Y-92798050D01*
X136499728Y-93002452D01*
X136571567Y-93096074D01*
X136643408Y-93189699D01*
X136810301Y-93356592D01*
X136926647Y-93445867D01*
X136997547Y-93500271D01*
X137201949Y-93618283D01*
X137420006Y-93708606D01*
X137647977Y-93769691D01*
X137647991Y-93769694D01*
X137792899Y-93788771D01*
X137881989Y-93800500D01*
X138118011Y-93800500D01*
X138262924Y-93781421D01*
X138352008Y-93769694D01*
X138352010Y-93769693D01*
X138352014Y-93769693D01*
X138352019Y-93769691D01*
X138352022Y-93769691D01*
X138579993Y-93708606D01*
X138798049Y-93618284D01*
X139002450Y-93500273D01*
X139189699Y-93356592D01*
X139356592Y-93189699D01*
X139500273Y-93002450D01*
X139618284Y-92798049D01*
X139708606Y-92579993D01*
X139769693Y-92352014D01*
X139774946Y-92312118D01*
X139800499Y-92118016D01*
X139800500Y-92118011D01*
X139800500Y-91881988D01*
X139800499Y-91881983D01*
X139797620Y-91860117D01*
X139769693Y-91647986D01*
X139751812Y-91581255D01*
X139708606Y-91420006D01*
X139618283Y-91201949D01*
X139523828Y-91038349D01*
X139500273Y-90997550D01*
X139488026Y-90981590D01*
X139370197Y-90828032D01*
X139356592Y-90810301D01*
X139189699Y-90643408D01*
X139135882Y-90602113D01*
X143989500Y-90602113D01*
X143989500Y-92397869D01*
X143989501Y-92397887D01*
X143995908Y-92457478D01*
X143995909Y-92457483D01*
X144046204Y-92592331D01*
X144046205Y-92592332D01*
X144046206Y-92592335D01*
X144093155Y-92655050D01*
X144132454Y-92707546D01*
X144132457Y-92707548D01*
X144247664Y-92793793D01*
X144247663Y-92793793D01*
X144247666Y-92793794D01*
X144247669Y-92793796D01*
X144382517Y-92844091D01*
X144442127Y-92850500D01*
X144482627Y-92850499D01*
X144527881Y-92869243D01*
X144546627Y-92914497D01*
X144527883Y-92959753D01*
X144520246Y-92966276D01*
X144460204Y-93009899D01*
X144309896Y-93160207D01*
X144184949Y-93332183D01*
X144184944Y-93332190D01*
X144088445Y-93521581D01*
X144088442Y-93521590D01*
X144022753Y-93723757D01*
X143989500Y-93933715D01*
X143989500Y-94146284D01*
X144022753Y-94356242D01*
X144088442Y-94558409D01*
X144088445Y-94558418D01*
X144184944Y-94747809D01*
X144184949Y-94747816D01*
X144309896Y-94919792D01*
X144460207Y-95070103D01*
X144632183Y-95195050D01*
X144632190Y-95195055D01*
X144821581Y-95291554D01*
X144821584Y-95291555D01*
X144821588Y-95291557D01*
X145023757Y-95357246D01*
X145233713Y-95390500D01*
X145233716Y-95390500D01*
X145446284Y-95390500D01*
X145446287Y-95390500D01*
X145656243Y-95357246D01*
X145858412Y-95291557D01*
X145858418Y-95291554D01*
X146047809Y-95195055D01*
X146047811Y-95195053D01*
X146047816Y-95195051D01*
X146219792Y-95070104D01*
X146370104Y-94919792D01*
X146495051Y-94747816D01*
X146495055Y-94747809D01*
X146552976Y-94634133D01*
X146590223Y-94602320D01*
X146639055Y-94606164D01*
X146667024Y-94634133D01*
X146724944Y-94747809D01*
X146724949Y-94747816D01*
X146849896Y-94919792D01*
X147000207Y-95070103D01*
X147172183Y-95195050D01*
X147172190Y-95195055D01*
X147361581Y-95291554D01*
X147361584Y-95291555D01*
X147361588Y-95291557D01*
X147563757Y-95357246D01*
X147773713Y-95390500D01*
X147773716Y-95390500D01*
X147986284Y-95390500D01*
X147986287Y-95390500D01*
X148196243Y-95357246D01*
X148398412Y-95291557D01*
X148398418Y-95291554D01*
X148587809Y-95195055D01*
X148587811Y-95195053D01*
X148587816Y-95195051D01*
X148759792Y-95070104D01*
X148910104Y-94919792D01*
X149035051Y-94747816D01*
X149035055Y-94747809D01*
X149092976Y-94634133D01*
X149130223Y-94602320D01*
X149179055Y-94606164D01*
X149207024Y-94634133D01*
X149264944Y-94747809D01*
X149264949Y-94747816D01*
X149389896Y-94919792D01*
X149540207Y-95070103D01*
X149712183Y-95195050D01*
X149712190Y-95195055D01*
X149901581Y-95291554D01*
X149901584Y-95291555D01*
X149901588Y-95291557D01*
X150103757Y-95357246D01*
X150313713Y-95390500D01*
X150313716Y-95390500D01*
X150526284Y-95390500D01*
X150526287Y-95390500D01*
X150736243Y-95357246D01*
X150938412Y-95291557D01*
X150938418Y-95291554D01*
X151127809Y-95195055D01*
X151127811Y-95195053D01*
X151127816Y-95195051D01*
X151299792Y-95070104D01*
X151450104Y-94919792D01*
X151575051Y-94747816D01*
X151575055Y-94747809D01*
X151632976Y-94634133D01*
X151670223Y-94602320D01*
X151719055Y-94606164D01*
X151747024Y-94634133D01*
X151804944Y-94747809D01*
X151804949Y-94747816D01*
X151929896Y-94919792D01*
X152080207Y-95070103D01*
X152252183Y-95195050D01*
X152252190Y-95195055D01*
X152441581Y-95291554D01*
X152441584Y-95291555D01*
X152441588Y-95291557D01*
X152643757Y-95357246D01*
X152853713Y-95390500D01*
X152853716Y-95390500D01*
X153066284Y-95390500D01*
X153066287Y-95390500D01*
X153276243Y-95357246D01*
X153478412Y-95291557D01*
X153478418Y-95291554D01*
X153667809Y-95195055D01*
X153667811Y-95195053D01*
X153667816Y-95195051D01*
X153839792Y-95070104D01*
X153990104Y-94919792D01*
X154115051Y-94747816D01*
X154115055Y-94747809D01*
X154172976Y-94634133D01*
X154210223Y-94602320D01*
X154259055Y-94606164D01*
X154287024Y-94634133D01*
X154344944Y-94747809D01*
X154344949Y-94747816D01*
X154469896Y-94919792D01*
X154620207Y-95070103D01*
X154792183Y-95195050D01*
X154792190Y-95195055D01*
X154981581Y-95291554D01*
X154981584Y-95291555D01*
X154981588Y-95291557D01*
X155183757Y-95357246D01*
X155393713Y-95390500D01*
X155393716Y-95390500D01*
X155606284Y-95390500D01*
X155606287Y-95390500D01*
X155816243Y-95357246D01*
X156018412Y-95291557D01*
X156018418Y-95291554D01*
X156207809Y-95195055D01*
X156207811Y-95195053D01*
X156207816Y-95195051D01*
X156379792Y-95070104D01*
X156530104Y-94919792D01*
X156655051Y-94747816D01*
X156655055Y-94747809D01*
X156712976Y-94634133D01*
X156750223Y-94602320D01*
X156799055Y-94606164D01*
X156827024Y-94634133D01*
X156884944Y-94747809D01*
X156884949Y-94747816D01*
X157009896Y-94919792D01*
X157160207Y-95070103D01*
X157332183Y-95195050D01*
X157332190Y-95195055D01*
X157521581Y-95291554D01*
X157521584Y-95291555D01*
X157521588Y-95291557D01*
X157723757Y-95357246D01*
X157933713Y-95390500D01*
X157933716Y-95390500D01*
X158146284Y-95390500D01*
X158146287Y-95390500D01*
X158356243Y-95357246D01*
X158558412Y-95291557D01*
X158558418Y-95291554D01*
X158747809Y-95195055D01*
X158747811Y-95195053D01*
X158747816Y-95195051D01*
X158919792Y-95070104D01*
X159070104Y-94919792D01*
X159195051Y-94747816D01*
X159195055Y-94747809D01*
X159252976Y-94634133D01*
X159290223Y-94602320D01*
X159339055Y-94606164D01*
X159367024Y-94634133D01*
X159424944Y-94747809D01*
X159424949Y-94747816D01*
X159549896Y-94919792D01*
X159700207Y-95070103D01*
X159872183Y-95195050D01*
X159872190Y-95195055D01*
X160061581Y-95291554D01*
X160061584Y-95291555D01*
X160061588Y-95291557D01*
X160263757Y-95357246D01*
X160473713Y-95390500D01*
X160473716Y-95390500D01*
X160686284Y-95390500D01*
X160686287Y-95390500D01*
X160896243Y-95357246D01*
X161098412Y-95291557D01*
X161098418Y-95291554D01*
X161287809Y-95195055D01*
X161287811Y-95195053D01*
X161287816Y-95195051D01*
X161459792Y-95070104D01*
X161610104Y-94919792D01*
X161735051Y-94747816D01*
X161831557Y-94558412D01*
X161897246Y-94356243D01*
X161930500Y-94146287D01*
X161930500Y-93933713D01*
X161897246Y-93723757D01*
X161831557Y-93521588D01*
X161831555Y-93521584D01*
X161831554Y-93521581D01*
X161735055Y-93332190D01*
X161735051Y-93332185D01*
X161735051Y-93332184D01*
X161610104Y-93160208D01*
X161459792Y-93009896D01*
X161287816Y-92884949D01*
X161287809Y-92884944D01*
X161098418Y-92788445D01*
X161098409Y-92788442D01*
X160896242Y-92722753D01*
X160762047Y-92701499D01*
X160686287Y-92689500D01*
X160473713Y-92689500D01*
X160406086Y-92700210D01*
X160263757Y-92722753D01*
X160061590Y-92788442D01*
X160061581Y-92788445D01*
X159872190Y-92884944D01*
X159872183Y-92884949D01*
X159700207Y-93009896D01*
X159549896Y-93160207D01*
X159424949Y-93332183D01*
X159424947Y-93332185D01*
X159367024Y-93445867D01*
X159329777Y-93477679D01*
X159280944Y-93473835D01*
X159252976Y-93445867D01*
X159195052Y-93332185D01*
X159195050Y-93332183D01*
X159070103Y-93160207D01*
X158919792Y-93009896D01*
X158747816Y-92884949D01*
X158747809Y-92884944D01*
X158634133Y-92827024D01*
X158602320Y-92789777D01*
X158606164Y-92740945D01*
X158634133Y-92712976D01*
X158747809Y-92655055D01*
X158747811Y-92655053D01*
X158747816Y-92655051D01*
X158919792Y-92530104D01*
X159070104Y-92379792D01*
X159195051Y-92207816D01*
X159229501Y-92140205D01*
X159291554Y-92018418D01*
X159291554Y-92018417D01*
X159291557Y-92018412D01*
X159335886Y-91881983D01*
X178199500Y-91881983D01*
X178199500Y-92118016D01*
X178230305Y-92352008D01*
X178230308Y-92352022D01*
X178291393Y-92579993D01*
X178381716Y-92798050D01*
X178499728Y-93002452D01*
X178571567Y-93096074D01*
X178643408Y-93189699D01*
X178810301Y-93356592D01*
X178926647Y-93445867D01*
X178997547Y-93500271D01*
X179201949Y-93618283D01*
X179420006Y-93708606D01*
X179647977Y-93769691D01*
X179647991Y-93769694D01*
X179792899Y-93788771D01*
X179881989Y-93800500D01*
X180118011Y-93800500D01*
X180262924Y-93781421D01*
X180352008Y-93769694D01*
X180352010Y-93769693D01*
X180352014Y-93769693D01*
X180352019Y-93769691D01*
X180352022Y-93769691D01*
X180579993Y-93708606D01*
X180798049Y-93618284D01*
X181002450Y-93500273D01*
X181189699Y-93356592D01*
X181356592Y-93189699D01*
X181500273Y-93002450D01*
X181618284Y-92798049D01*
X181708606Y-92579993D01*
X181769693Y-92352014D01*
X181774946Y-92312118D01*
X181800499Y-92118016D01*
X181800500Y-92118011D01*
X181800500Y-91881988D01*
X181800499Y-91881983D01*
X181797620Y-91860117D01*
X181769693Y-91647986D01*
X181751812Y-91581255D01*
X181708606Y-91420006D01*
X181618283Y-91201949D01*
X181523828Y-91038349D01*
X181500273Y-90997550D01*
X181488026Y-90981590D01*
X181370197Y-90828032D01*
X181356592Y-90810301D01*
X181189699Y-90643408D01*
X181096074Y-90571567D01*
X181002452Y-90499728D01*
X180798050Y-90381716D01*
X180579993Y-90291393D01*
X180352022Y-90230308D01*
X180352008Y-90230305D01*
X180118016Y-90199500D01*
X180118011Y-90199500D01*
X179881989Y-90199500D01*
X179881983Y-90199500D01*
X179647991Y-90230305D01*
X179647977Y-90230308D01*
X179420006Y-90291393D01*
X179201949Y-90381716D01*
X178997547Y-90499728D01*
X178810302Y-90643407D01*
X178643407Y-90810302D01*
X178499728Y-90997547D01*
X178381716Y-91201949D01*
X178291393Y-91420006D01*
X178230308Y-91647977D01*
X178230305Y-91647991D01*
X178199500Y-91881983D01*
X159335886Y-91881983D01*
X159342991Y-91860117D01*
X159357246Y-91816242D01*
X159390500Y-91606287D01*
X159390500Y-91393713D01*
X159357246Y-91183757D01*
X159291557Y-90981588D01*
X159291555Y-90981584D01*
X159291554Y-90981581D01*
X159195055Y-90792190D01*
X159195051Y-90792185D01*
X159195051Y-90792184D01*
X159070104Y-90620208D01*
X158919792Y-90469896D01*
X158747816Y-90344949D01*
X158747809Y-90344944D01*
X158558418Y-90248445D01*
X158558409Y-90248442D01*
X158356242Y-90182753D01*
X158222047Y-90161499D01*
X158146287Y-90149500D01*
X157933713Y-90149500D01*
X157866086Y-90160210D01*
X157723757Y-90182753D01*
X157521590Y-90248442D01*
X157521581Y-90248445D01*
X157332190Y-90344944D01*
X157332183Y-90344949D01*
X157160207Y-90469896D01*
X157009896Y-90620207D01*
X156884949Y-90792183D01*
X156884947Y-90792185D01*
X156827024Y-90905867D01*
X156789777Y-90937679D01*
X156740944Y-90933835D01*
X156712976Y-90905867D01*
X156655052Y-90792185D01*
X156655050Y-90792183D01*
X156546960Y-90643408D01*
X156530104Y-90620208D01*
X156379792Y-90469896D01*
X156207816Y-90344949D01*
X156207809Y-90344944D01*
X156018418Y-90248445D01*
X156018409Y-90248442D01*
X155816242Y-90182753D01*
X155682047Y-90161499D01*
X155606287Y-90149500D01*
X155393713Y-90149500D01*
X155326086Y-90160210D01*
X155183757Y-90182753D01*
X154981590Y-90248442D01*
X154981581Y-90248445D01*
X154792190Y-90344944D01*
X154792183Y-90344949D01*
X154620207Y-90469896D01*
X154469896Y-90620207D01*
X154344949Y-90792183D01*
X154344947Y-90792185D01*
X154287024Y-90905867D01*
X154249777Y-90937679D01*
X154200944Y-90933835D01*
X154172976Y-90905867D01*
X154115052Y-90792185D01*
X154115050Y-90792183D01*
X154006960Y-90643408D01*
X153990104Y-90620208D01*
X153839792Y-90469896D01*
X153667816Y-90344949D01*
X153667809Y-90344944D01*
X153478418Y-90248445D01*
X153478409Y-90248442D01*
X153276242Y-90182753D01*
X153142047Y-90161499D01*
X153066287Y-90149500D01*
X152853713Y-90149500D01*
X152786086Y-90160210D01*
X152643757Y-90182753D01*
X152441590Y-90248442D01*
X152441581Y-90248445D01*
X152252190Y-90344944D01*
X152252183Y-90344949D01*
X152080207Y-90469896D01*
X151929896Y-90620207D01*
X151804949Y-90792183D01*
X151804947Y-90792185D01*
X151747024Y-90905867D01*
X151709777Y-90937679D01*
X151660944Y-90933835D01*
X151632976Y-90905867D01*
X151575052Y-90792185D01*
X151575050Y-90792183D01*
X151466960Y-90643408D01*
X151450104Y-90620208D01*
X151299792Y-90469896D01*
X151127816Y-90344949D01*
X151127809Y-90344944D01*
X150938418Y-90248445D01*
X150938409Y-90248442D01*
X150736242Y-90182753D01*
X150602047Y-90161499D01*
X150526287Y-90149500D01*
X150313713Y-90149500D01*
X150246086Y-90160210D01*
X150103757Y-90182753D01*
X149901590Y-90248442D01*
X149901581Y-90248445D01*
X149712190Y-90344944D01*
X149712183Y-90344949D01*
X149540207Y-90469896D01*
X149389896Y-90620207D01*
X149264949Y-90792183D01*
X149264947Y-90792185D01*
X149207024Y-90905867D01*
X149169777Y-90937679D01*
X149120944Y-90933835D01*
X149092976Y-90905867D01*
X149035052Y-90792185D01*
X149035050Y-90792183D01*
X148926960Y-90643408D01*
X148910104Y-90620208D01*
X148759792Y-90469896D01*
X148587816Y-90344949D01*
X148587809Y-90344944D01*
X148398418Y-90248445D01*
X148398409Y-90248442D01*
X148196242Y-90182753D01*
X148062047Y-90161499D01*
X147986287Y-90149500D01*
X147773713Y-90149500D01*
X147706086Y-90160210D01*
X147563757Y-90182753D01*
X147361590Y-90248442D01*
X147361581Y-90248445D01*
X147172190Y-90344944D01*
X147172183Y-90344949D01*
X147000207Y-90469896D01*
X146849896Y-90620207D01*
X146806276Y-90680246D01*
X146764511Y-90705840D01*
X146716881Y-90694405D01*
X146691287Y-90652640D01*
X146690499Y-90642628D01*
X146690499Y-90602130D01*
X146690498Y-90602112D01*
X146684091Y-90542521D01*
X146684091Y-90542517D01*
X146633796Y-90407669D01*
X146633793Y-90407665D01*
X146633793Y-90407664D01*
X146547548Y-90292457D01*
X146547546Y-90292454D01*
X146488758Y-90248445D01*
X146432335Y-90206206D01*
X146432336Y-90206206D01*
X146414356Y-90199500D01*
X146297486Y-90155910D01*
X146297481Y-90155908D01*
X146237879Y-90149500D01*
X144442130Y-90149500D01*
X144442112Y-90149501D01*
X144382521Y-90155908D01*
X144382518Y-90155908D01*
X144382517Y-90155909D01*
X144247669Y-90206204D01*
X144247664Y-90206206D01*
X144132457Y-90292451D01*
X144132451Y-90292457D01*
X144046206Y-90407664D01*
X143995908Y-90542518D01*
X143989500Y-90602113D01*
X139135882Y-90602113D01*
X139096074Y-90571567D01*
X139002452Y-90499728D01*
X138798050Y-90381716D01*
X138579993Y-90291393D01*
X138352022Y-90230308D01*
X138352008Y-90230305D01*
X138118016Y-90199500D01*
X138118011Y-90199500D01*
X137881989Y-90199500D01*
X137881983Y-90199500D01*
X137647991Y-90230305D01*
X137647977Y-90230308D01*
X137420006Y-90291393D01*
X137201949Y-90381716D01*
X136997547Y-90499728D01*
X136810302Y-90643407D01*
X136643407Y-90810302D01*
X136499728Y-90997547D01*
X136381716Y-91201949D01*
X136291393Y-91420006D01*
X136230308Y-91647977D01*
X136230305Y-91647991D01*
X136199500Y-91881983D01*
X134600000Y-91881983D01*
X134600000Y-91626510D01*
X134618745Y-91581255D01*
X137581255Y-88618745D01*
X137626510Y-88600000D01*
X180373490Y-88600000D01*
X180418745Y-88618745D01*
G37*
%TD.AperFunction*%
%TD*%
M02*
