%TF.GenerationSoftware,KiCad,Pcbnew,10.0.3*%
%TF.CreationDate,2026-07-03T14:00:46+08:00*%
%TF.ProjectId,project,70726f6a-6563-4742-9e6b-696361645f70,rev?*%
%TF.SameCoordinates,Original*%
%TF.FileFunction,Legend,Bot*%
%TF.FilePolarity,Positive*%
%FSLAX46Y46*%
G04 Gerber Fmt 4.6, Leading zero omitted, Abs format (unit mm)*
G04 Created by KiCad (PCBNEW 10.0.3) date 2026-07-03 14:00:46*
%MOMM*%
%LPD*%
G01*
G04 APERTURE LIST*
%ADD10C,0.100000*%
G04 APERTURE END LIST*
D10*
X159083330Y-131261466D02*
X159083330Y-131828133D01*
X159083330Y-131828133D02*
X159116663Y-131894800D01*
X159116663Y-131894800D02*
X159149997Y-131928133D01*
X159149997Y-131928133D02*
X159216663Y-131961466D01*
X159216663Y-131961466D02*
X159316663Y-131961466D01*
X159316663Y-131961466D02*
X159383330Y-131928133D01*
X159083330Y-131694800D02*
X159149997Y-131728133D01*
X159149997Y-131728133D02*
X159283330Y-131728133D01*
X159283330Y-131728133D02*
X159349997Y-131694800D01*
X159349997Y-131694800D02*
X159383330Y-131661466D01*
X159383330Y-131661466D02*
X159416663Y-131594800D01*
X159416663Y-131594800D02*
X159416663Y-131394800D01*
X159416663Y-131394800D02*
X159383330Y-131328133D01*
X159383330Y-131328133D02*
X159349997Y-131294800D01*
X159349997Y-131294800D02*
X159283330Y-131261466D01*
X159283330Y-131261466D02*
X159149997Y-131261466D01*
X159149997Y-131261466D02*
X159083330Y-131294800D01*
X158749997Y-131728133D02*
X158749997Y-131261466D01*
X158749997Y-131028133D02*
X158783330Y-131061466D01*
X158783330Y-131061466D02*
X158749997Y-131094800D01*
X158749997Y-131094800D02*
X158716664Y-131061466D01*
X158716664Y-131061466D02*
X158749997Y-131028133D01*
X158749997Y-131028133D02*
X158749997Y-131094800D01*
X158516664Y-131261466D02*
X158249997Y-131261466D01*
X158416664Y-131028133D02*
X158416664Y-131628133D01*
X158416664Y-131628133D02*
X158383331Y-131694800D01*
X158383331Y-131694800D02*
X158316664Y-131728133D01*
X158316664Y-131728133D02*
X158249997Y-131728133D01*
X158016664Y-131728133D02*
X158016664Y-131028133D01*
X157716664Y-131728133D02*
X157716664Y-131361466D01*
X157716664Y-131361466D02*
X157749997Y-131294800D01*
X157749997Y-131294800D02*
X157816664Y-131261466D01*
X157816664Y-131261466D02*
X157916664Y-131261466D01*
X157916664Y-131261466D02*
X157983331Y-131294800D01*
X157983331Y-131294800D02*
X158016664Y-131328133D01*
X157083331Y-131261466D02*
X157083331Y-131728133D01*
X157383331Y-131261466D02*
X157383331Y-131628133D01*
X157383331Y-131628133D02*
X157349998Y-131694800D01*
X157349998Y-131694800D02*
X157283331Y-131728133D01*
X157283331Y-131728133D02*
X157183331Y-131728133D01*
X157183331Y-131728133D02*
X157116664Y-131694800D01*
X157116664Y-131694800D02*
X157083331Y-131661466D01*
X156749998Y-131728133D02*
X156749998Y-131028133D01*
X156749998Y-131294800D02*
X156683331Y-131261466D01*
X156683331Y-131261466D02*
X156549998Y-131261466D01*
X156549998Y-131261466D02*
X156483331Y-131294800D01*
X156483331Y-131294800D02*
X156449998Y-131328133D01*
X156449998Y-131328133D02*
X156416665Y-131394800D01*
X156416665Y-131394800D02*
X156416665Y-131594800D01*
X156416665Y-131594800D02*
X156449998Y-131661466D01*
X156449998Y-131661466D02*
X156483331Y-131694800D01*
X156483331Y-131694800D02*
X156549998Y-131728133D01*
X156549998Y-131728133D02*
X156683331Y-131728133D01*
X156683331Y-131728133D02*
X156749998Y-131694800D01*
X156116665Y-131661466D02*
X156083332Y-131694800D01*
X156083332Y-131694800D02*
X156116665Y-131728133D01*
X156116665Y-131728133D02*
X156149998Y-131694800D01*
X156149998Y-131694800D02*
X156116665Y-131661466D01*
X156116665Y-131661466D02*
X156116665Y-131728133D01*
X155483332Y-131694800D02*
X155549999Y-131728133D01*
X155549999Y-131728133D02*
X155683332Y-131728133D01*
X155683332Y-131728133D02*
X155749999Y-131694800D01*
X155749999Y-131694800D02*
X155783332Y-131661466D01*
X155783332Y-131661466D02*
X155816665Y-131594800D01*
X155816665Y-131594800D02*
X155816665Y-131394800D01*
X155816665Y-131394800D02*
X155783332Y-131328133D01*
X155783332Y-131328133D02*
X155749999Y-131294800D01*
X155749999Y-131294800D02*
X155683332Y-131261466D01*
X155683332Y-131261466D02*
X155549999Y-131261466D01*
X155549999Y-131261466D02*
X155483332Y-131294800D01*
X155083332Y-131728133D02*
X155149999Y-131694800D01*
X155149999Y-131694800D02*
X155183332Y-131661466D01*
X155183332Y-131661466D02*
X155216665Y-131594800D01*
X155216665Y-131594800D02*
X155216665Y-131394800D01*
X155216665Y-131394800D02*
X155183332Y-131328133D01*
X155183332Y-131328133D02*
X155149999Y-131294800D01*
X155149999Y-131294800D02*
X155083332Y-131261466D01*
X155083332Y-131261466D02*
X154983332Y-131261466D01*
X154983332Y-131261466D02*
X154916665Y-131294800D01*
X154916665Y-131294800D02*
X154883332Y-131328133D01*
X154883332Y-131328133D02*
X154849999Y-131394800D01*
X154849999Y-131394800D02*
X154849999Y-131594800D01*
X154849999Y-131594800D02*
X154883332Y-131661466D01*
X154883332Y-131661466D02*
X154916665Y-131694800D01*
X154916665Y-131694800D02*
X154983332Y-131728133D01*
X154983332Y-131728133D02*
X155083332Y-131728133D01*
X154549999Y-131728133D02*
X154549999Y-131261466D01*
X154549999Y-131328133D02*
X154516666Y-131294800D01*
X154516666Y-131294800D02*
X154449999Y-131261466D01*
X154449999Y-131261466D02*
X154349999Y-131261466D01*
X154349999Y-131261466D02*
X154283332Y-131294800D01*
X154283332Y-131294800D02*
X154249999Y-131361466D01*
X154249999Y-131361466D02*
X154249999Y-131728133D01*
X154249999Y-131361466D02*
X154216666Y-131294800D01*
X154216666Y-131294800D02*
X154149999Y-131261466D01*
X154149999Y-131261466D02*
X154049999Y-131261466D01*
X154049999Y-131261466D02*
X153983332Y-131294800D01*
X153983332Y-131294800D02*
X153949999Y-131361466D01*
X153949999Y-131361466D02*
X153949999Y-131728133D01*
X153116666Y-130994800D02*
X153716666Y-131894800D01*
X152883333Y-131728133D02*
X152883333Y-131028133D01*
X152816666Y-131461466D02*
X152616666Y-131728133D01*
X152616666Y-131261466D02*
X152883333Y-131528133D01*
X152016666Y-131728133D02*
X152016666Y-131361466D01*
X152016666Y-131361466D02*
X152049999Y-131294800D01*
X152049999Y-131294800D02*
X152116666Y-131261466D01*
X152116666Y-131261466D02*
X152249999Y-131261466D01*
X152249999Y-131261466D02*
X152316666Y-131294800D01*
X152016666Y-131694800D02*
X152083333Y-131728133D01*
X152083333Y-131728133D02*
X152249999Y-131728133D01*
X152249999Y-131728133D02*
X152316666Y-131694800D01*
X152316666Y-131694800D02*
X152349999Y-131628133D01*
X152349999Y-131628133D02*
X152349999Y-131561466D01*
X152349999Y-131561466D02*
X152316666Y-131494800D01*
X152316666Y-131494800D02*
X152249999Y-131461466D01*
X152249999Y-131461466D02*
X152083333Y-131461466D01*
X152083333Y-131461466D02*
X152016666Y-131428133D01*
X151750000Y-131261466D02*
X151583333Y-131728133D01*
X151416666Y-131261466D02*
X151583333Y-131728133D01*
X151583333Y-131728133D02*
X151650000Y-131894800D01*
X151650000Y-131894800D02*
X151683333Y-131928133D01*
X151683333Y-131928133D02*
X151750000Y-131961466D01*
X150850000Y-131728133D02*
X150850000Y-131028133D01*
X150850000Y-131694800D02*
X150916667Y-131728133D01*
X150916667Y-131728133D02*
X151050000Y-131728133D01*
X151050000Y-131728133D02*
X151116667Y-131694800D01*
X151116667Y-131694800D02*
X151150000Y-131661466D01*
X151150000Y-131661466D02*
X151183333Y-131594800D01*
X151183333Y-131594800D02*
X151183333Y-131394800D01*
X151183333Y-131394800D02*
X151150000Y-131328133D01*
X151150000Y-131328133D02*
X151116667Y-131294800D01*
X151116667Y-131294800D02*
X151050000Y-131261466D01*
X151050000Y-131261466D02*
X150916667Y-131261466D01*
X150916667Y-131261466D02*
X150850000Y-131294800D01*
X150250000Y-131694800D02*
X150316667Y-131728133D01*
X150316667Y-131728133D02*
X150450000Y-131728133D01*
X150450000Y-131728133D02*
X150516667Y-131694800D01*
X150516667Y-131694800D02*
X150550000Y-131628133D01*
X150550000Y-131628133D02*
X150550000Y-131361466D01*
X150550000Y-131361466D02*
X150516667Y-131294800D01*
X150516667Y-131294800D02*
X150450000Y-131261466D01*
X150450000Y-131261466D02*
X150316667Y-131261466D01*
X150316667Y-131261466D02*
X150250000Y-131294800D01*
X150250000Y-131294800D02*
X150216667Y-131361466D01*
X150216667Y-131361466D02*
X150216667Y-131428133D01*
X150216667Y-131428133D02*
X150550000Y-131494800D01*
X149916667Y-131261466D02*
X149916667Y-131728133D01*
X149916667Y-131328133D02*
X149883334Y-131294800D01*
X149883334Y-131294800D02*
X149816667Y-131261466D01*
X149816667Y-131261466D02*
X149716667Y-131261466D01*
X149716667Y-131261466D02*
X149650000Y-131294800D01*
X149650000Y-131294800D02*
X149616667Y-131361466D01*
X149616667Y-131361466D02*
X149616667Y-131728133D01*
X149316667Y-131694800D02*
X149250001Y-131728133D01*
X149250001Y-131728133D02*
X149116667Y-131728133D01*
X149116667Y-131728133D02*
X149050001Y-131694800D01*
X149050001Y-131694800D02*
X149016667Y-131628133D01*
X149016667Y-131628133D02*
X149016667Y-131594800D01*
X149016667Y-131594800D02*
X149050001Y-131528133D01*
X149050001Y-131528133D02*
X149116667Y-131494800D01*
X149116667Y-131494800D02*
X149216667Y-131494800D01*
X149216667Y-131494800D02*
X149283334Y-131461466D01*
X149283334Y-131461466D02*
X149316667Y-131394800D01*
X149316667Y-131394800D02*
X149316667Y-131361466D01*
X149316667Y-131361466D02*
X149283334Y-131294800D01*
X149283334Y-131294800D02*
X149216667Y-131261466D01*
X149216667Y-131261466D02*
X149116667Y-131261466D01*
X149116667Y-131261466D02*
X149050001Y-131294800D01*
X148716667Y-131728133D02*
X148716667Y-131261466D01*
X148716667Y-131028133D02*
X148750000Y-131061466D01*
X148750000Y-131061466D02*
X148716667Y-131094800D01*
X148716667Y-131094800D02*
X148683334Y-131061466D01*
X148683334Y-131061466D02*
X148716667Y-131028133D01*
X148716667Y-131028133D02*
X148716667Y-131094800D01*
X148083334Y-131261466D02*
X148083334Y-131828133D01*
X148083334Y-131828133D02*
X148116667Y-131894800D01*
X148116667Y-131894800D02*
X148150001Y-131928133D01*
X148150001Y-131928133D02*
X148216667Y-131961466D01*
X148216667Y-131961466D02*
X148316667Y-131961466D01*
X148316667Y-131961466D02*
X148383334Y-131928133D01*
X148083334Y-131694800D02*
X148150001Y-131728133D01*
X148150001Y-131728133D02*
X148283334Y-131728133D01*
X148283334Y-131728133D02*
X148350001Y-131694800D01*
X148350001Y-131694800D02*
X148383334Y-131661466D01*
X148383334Y-131661466D02*
X148416667Y-131594800D01*
X148416667Y-131594800D02*
X148416667Y-131394800D01*
X148416667Y-131394800D02*
X148383334Y-131328133D01*
X148383334Y-131328133D02*
X148350001Y-131294800D01*
X148350001Y-131294800D02*
X148283334Y-131261466D01*
X148283334Y-131261466D02*
X148150001Y-131261466D01*
X148150001Y-131261466D02*
X148083334Y-131294800D01*
X147750001Y-131728133D02*
X147750001Y-131028133D01*
X147450001Y-131728133D02*
X147450001Y-131361466D01*
X147450001Y-131361466D02*
X147483334Y-131294800D01*
X147483334Y-131294800D02*
X147550001Y-131261466D01*
X147550001Y-131261466D02*
X147650001Y-131261466D01*
X147650001Y-131261466D02*
X147716668Y-131294800D01*
X147716668Y-131294800D02*
X147750001Y-131328133D01*
X146616668Y-130994800D02*
X147216668Y-131894800D01*
X146083335Y-131728133D02*
X146083335Y-131028133D01*
X146083335Y-131694800D02*
X146150002Y-131728133D01*
X146150002Y-131728133D02*
X146283335Y-131728133D01*
X146283335Y-131728133D02*
X146350002Y-131694800D01*
X146350002Y-131694800D02*
X146383335Y-131661466D01*
X146383335Y-131661466D02*
X146416668Y-131594800D01*
X146416668Y-131594800D02*
X146416668Y-131394800D01*
X146416668Y-131394800D02*
X146383335Y-131328133D01*
X146383335Y-131328133D02*
X146350002Y-131294800D01*
X146350002Y-131294800D02*
X146283335Y-131261466D01*
X146283335Y-131261466D02*
X146150002Y-131261466D01*
X146150002Y-131261466D02*
X146083335Y-131294800D01*
X145750002Y-131728133D02*
X145750002Y-131261466D01*
X145750002Y-131394800D02*
X145716669Y-131328133D01*
X145716669Y-131328133D02*
X145683335Y-131294800D01*
X145683335Y-131294800D02*
X145616669Y-131261466D01*
X145616669Y-131261466D02*
X145550002Y-131261466D01*
X145383336Y-131261466D02*
X145216669Y-131728133D01*
X145216669Y-131728133D02*
X145050002Y-131261466D01*
X144683336Y-131328133D02*
X144750003Y-131294800D01*
X144750003Y-131294800D02*
X144783336Y-131261466D01*
X144783336Y-131261466D02*
X144816669Y-131194800D01*
X144816669Y-131194800D02*
X144816669Y-131161466D01*
X144816669Y-131161466D02*
X144783336Y-131094800D01*
X144783336Y-131094800D02*
X144750003Y-131061466D01*
X144750003Y-131061466D02*
X144683336Y-131028133D01*
X144683336Y-131028133D02*
X144550003Y-131028133D01*
X144550003Y-131028133D02*
X144483336Y-131061466D01*
X144483336Y-131061466D02*
X144450003Y-131094800D01*
X144450003Y-131094800D02*
X144416669Y-131161466D01*
X144416669Y-131161466D02*
X144416669Y-131194800D01*
X144416669Y-131194800D02*
X144450003Y-131261466D01*
X144450003Y-131261466D02*
X144483336Y-131294800D01*
X144483336Y-131294800D02*
X144550003Y-131328133D01*
X144550003Y-131328133D02*
X144683336Y-131328133D01*
X144683336Y-131328133D02*
X144750003Y-131361466D01*
X144750003Y-131361466D02*
X144783336Y-131394800D01*
X144783336Y-131394800D02*
X144816669Y-131461466D01*
X144816669Y-131461466D02*
X144816669Y-131594800D01*
X144816669Y-131594800D02*
X144783336Y-131661466D01*
X144783336Y-131661466D02*
X144750003Y-131694800D01*
X144750003Y-131694800D02*
X144683336Y-131728133D01*
X144683336Y-131728133D02*
X144550003Y-131728133D01*
X144550003Y-131728133D02*
X144483336Y-131694800D01*
X144483336Y-131694800D02*
X144450003Y-131661466D01*
X144450003Y-131661466D02*
X144416669Y-131594800D01*
X144416669Y-131594800D02*
X144416669Y-131461466D01*
X144416669Y-131461466D02*
X144450003Y-131394800D01*
X144450003Y-131394800D02*
X144483336Y-131361466D01*
X144483336Y-131361466D02*
X144550003Y-131328133D01*
X144183336Y-131028133D02*
X143750002Y-131028133D01*
X143750002Y-131028133D02*
X143983336Y-131294800D01*
X143983336Y-131294800D02*
X143883336Y-131294800D01*
X143883336Y-131294800D02*
X143816669Y-131328133D01*
X143816669Y-131328133D02*
X143783336Y-131361466D01*
X143783336Y-131361466D02*
X143750002Y-131428133D01*
X143750002Y-131428133D02*
X143750002Y-131594800D01*
X143750002Y-131594800D02*
X143783336Y-131661466D01*
X143783336Y-131661466D02*
X143816669Y-131694800D01*
X143816669Y-131694800D02*
X143883336Y-131728133D01*
X143883336Y-131728133D02*
X144083336Y-131728133D01*
X144083336Y-131728133D02*
X144150002Y-131694800D01*
X144150002Y-131694800D02*
X144183336Y-131661466D01*
X143083335Y-131728133D02*
X143483335Y-131728133D01*
X143283335Y-131728133D02*
X143283335Y-131028133D01*
X143283335Y-131028133D02*
X143350002Y-131128133D01*
X143350002Y-131128133D02*
X143416669Y-131194800D01*
X143416669Y-131194800D02*
X143483335Y-131228133D01*
X142850002Y-131028133D02*
X142416668Y-131028133D01*
X142416668Y-131028133D02*
X142650002Y-131294800D01*
X142650002Y-131294800D02*
X142550002Y-131294800D01*
X142550002Y-131294800D02*
X142483335Y-131328133D01*
X142483335Y-131328133D02*
X142450002Y-131361466D01*
X142450002Y-131361466D02*
X142416668Y-131428133D01*
X142416668Y-131428133D02*
X142416668Y-131594800D01*
X142416668Y-131594800D02*
X142450002Y-131661466D01*
X142450002Y-131661466D02*
X142483335Y-131694800D01*
X142483335Y-131694800D02*
X142550002Y-131728133D01*
X142550002Y-131728133D02*
X142750002Y-131728133D01*
X142750002Y-131728133D02*
X142816668Y-131694800D01*
X142816668Y-131694800D02*
X142850002Y-131661466D01*
X142116668Y-131461466D02*
X141583335Y-131461466D01*
X141250001Y-131728133D02*
X141250001Y-131028133D01*
X141250001Y-131294800D02*
X141183334Y-131261466D01*
X141183334Y-131261466D02*
X141050001Y-131261466D01*
X141050001Y-131261466D02*
X140983334Y-131294800D01*
X140983334Y-131294800D02*
X140950001Y-131328133D01*
X140950001Y-131328133D02*
X140916668Y-131394800D01*
X140916668Y-131394800D02*
X140916668Y-131594800D01*
X140916668Y-131594800D02*
X140950001Y-131661466D01*
X140950001Y-131661466D02*
X140983334Y-131694800D01*
X140983334Y-131694800D02*
X141050001Y-131728133D01*
X141050001Y-131728133D02*
X141183334Y-131728133D01*
X141183334Y-131728133D02*
X141250001Y-131694800D01*
X140516668Y-131728133D02*
X140583335Y-131694800D01*
X140583335Y-131694800D02*
X140616668Y-131661466D01*
X140616668Y-131661466D02*
X140650001Y-131594800D01*
X140650001Y-131594800D02*
X140650001Y-131394800D01*
X140650001Y-131394800D02*
X140616668Y-131328133D01*
X140616668Y-131328133D02*
X140583335Y-131294800D01*
X140583335Y-131294800D02*
X140516668Y-131261466D01*
X140516668Y-131261466D02*
X140416668Y-131261466D01*
X140416668Y-131261466D02*
X140350001Y-131294800D01*
X140350001Y-131294800D02*
X140316668Y-131328133D01*
X140316668Y-131328133D02*
X140283335Y-131394800D01*
X140283335Y-131394800D02*
X140283335Y-131594800D01*
X140283335Y-131594800D02*
X140316668Y-131661466D01*
X140316668Y-131661466D02*
X140350001Y-131694800D01*
X140350001Y-131694800D02*
X140416668Y-131728133D01*
X140416668Y-131728133D02*
X140516668Y-131728133D01*
X139683335Y-131728133D02*
X139683335Y-131361466D01*
X139683335Y-131361466D02*
X139716668Y-131294800D01*
X139716668Y-131294800D02*
X139783335Y-131261466D01*
X139783335Y-131261466D02*
X139916668Y-131261466D01*
X139916668Y-131261466D02*
X139983335Y-131294800D01*
X139683335Y-131694800D02*
X139750002Y-131728133D01*
X139750002Y-131728133D02*
X139916668Y-131728133D01*
X139916668Y-131728133D02*
X139983335Y-131694800D01*
X139983335Y-131694800D02*
X140016668Y-131628133D01*
X140016668Y-131628133D02*
X140016668Y-131561466D01*
X140016668Y-131561466D02*
X139983335Y-131494800D01*
X139983335Y-131494800D02*
X139916668Y-131461466D01*
X139916668Y-131461466D02*
X139750002Y-131461466D01*
X139750002Y-131461466D02*
X139683335Y-131428133D01*
X139350002Y-131728133D02*
X139350002Y-131261466D01*
X139350002Y-131394800D02*
X139316669Y-131328133D01*
X139316669Y-131328133D02*
X139283335Y-131294800D01*
X139283335Y-131294800D02*
X139216669Y-131261466D01*
X139216669Y-131261466D02*
X139150002Y-131261466D01*
X138616669Y-131728133D02*
X138616669Y-131028133D01*
X138616669Y-131694800D02*
X138683336Y-131728133D01*
X138683336Y-131728133D02*
X138816669Y-131728133D01*
X138816669Y-131728133D02*
X138883336Y-131694800D01*
X138883336Y-131694800D02*
X138916669Y-131661466D01*
X138916669Y-131661466D02*
X138950002Y-131594800D01*
X138950002Y-131594800D02*
X138950002Y-131394800D01*
X138950002Y-131394800D02*
X138916669Y-131328133D01*
X138916669Y-131328133D02*
X138883336Y-131294800D01*
X138883336Y-131294800D02*
X138816669Y-131261466D01*
X138816669Y-131261466D02*
X138683336Y-131261466D01*
X138683336Y-131261466D02*
X138616669Y-131294800D01*
M02*
