%TF.GenerationSoftware,KiCad,Pcbnew,10.0.3*%
%TF.CreationDate,2026-06-27T00:27:45+08:00*%
%TF.ProjectId,project,70726f6a-6563-4742-9e6b-696361645f70,rev?*%
%TF.SameCoordinates,Original*%
%TF.FileFunction,Legend,Bot*%
%TF.FilePolarity,Positive*%
%FSLAX46Y46*%
G04 Gerber Fmt 4.6, Leading zero omitted, Abs format (unit mm)*
G04 Created by KiCad (PCBNEW 10.0.3) date 2026-06-27 00:27:45*
%MOMM*%
%LPD*%
G01*
G04 APERTURE LIST*
%ADD10C,0.175000*%
G04 APERTURE END LIST*
D10*
X159083330Y-131257566D02*
X159083330Y-131824233D01*
X159083330Y-131824233D02*
X159116663Y-131890900D01*
X159116663Y-131890900D02*
X159149997Y-131924233D01*
X159149997Y-131924233D02*
X159216663Y-131957566D01*
X159216663Y-131957566D02*
X159316663Y-131957566D01*
X159316663Y-131957566D02*
X159383330Y-131924233D01*
X159083330Y-131690900D02*
X159149997Y-131724233D01*
X159149997Y-131724233D02*
X159283330Y-131724233D01*
X159283330Y-131724233D02*
X159349997Y-131690900D01*
X159349997Y-131690900D02*
X159383330Y-131657566D01*
X159383330Y-131657566D02*
X159416663Y-131590900D01*
X159416663Y-131590900D02*
X159416663Y-131390900D01*
X159416663Y-131390900D02*
X159383330Y-131324233D01*
X159383330Y-131324233D02*
X159349997Y-131290900D01*
X159349997Y-131290900D02*
X159283330Y-131257566D01*
X159283330Y-131257566D02*
X159149997Y-131257566D01*
X159149997Y-131257566D02*
X159083330Y-131290900D01*
X158749997Y-131724233D02*
X158749997Y-131257566D01*
X158749997Y-131024233D02*
X158783330Y-131057566D01*
X158783330Y-131057566D02*
X158749997Y-131090900D01*
X158749997Y-131090900D02*
X158716664Y-131057566D01*
X158716664Y-131057566D02*
X158749997Y-131024233D01*
X158749997Y-131024233D02*
X158749997Y-131090900D01*
X158516664Y-131257566D02*
X158249997Y-131257566D01*
X158416664Y-131024233D02*
X158416664Y-131624233D01*
X158416664Y-131624233D02*
X158383331Y-131690900D01*
X158383331Y-131690900D02*
X158316664Y-131724233D01*
X158316664Y-131724233D02*
X158249997Y-131724233D01*
X158016664Y-131724233D02*
X158016664Y-131024233D01*
X157716664Y-131724233D02*
X157716664Y-131357566D01*
X157716664Y-131357566D02*
X157749997Y-131290900D01*
X157749997Y-131290900D02*
X157816664Y-131257566D01*
X157816664Y-131257566D02*
X157916664Y-131257566D01*
X157916664Y-131257566D02*
X157983331Y-131290900D01*
X157983331Y-131290900D02*
X158016664Y-131324233D01*
X157083331Y-131257566D02*
X157083331Y-131724233D01*
X157383331Y-131257566D02*
X157383331Y-131624233D01*
X157383331Y-131624233D02*
X157349998Y-131690900D01*
X157349998Y-131690900D02*
X157283331Y-131724233D01*
X157283331Y-131724233D02*
X157183331Y-131724233D01*
X157183331Y-131724233D02*
X157116664Y-131690900D01*
X157116664Y-131690900D02*
X157083331Y-131657566D01*
X156749998Y-131724233D02*
X156749998Y-131024233D01*
X156749998Y-131290900D02*
X156683331Y-131257566D01*
X156683331Y-131257566D02*
X156549998Y-131257566D01*
X156549998Y-131257566D02*
X156483331Y-131290900D01*
X156483331Y-131290900D02*
X156449998Y-131324233D01*
X156449998Y-131324233D02*
X156416665Y-131390900D01*
X156416665Y-131390900D02*
X156416665Y-131590900D01*
X156416665Y-131590900D02*
X156449998Y-131657566D01*
X156449998Y-131657566D02*
X156483331Y-131690900D01*
X156483331Y-131690900D02*
X156549998Y-131724233D01*
X156549998Y-131724233D02*
X156683331Y-131724233D01*
X156683331Y-131724233D02*
X156749998Y-131690900D01*
X156116665Y-131657566D02*
X156083332Y-131690900D01*
X156083332Y-131690900D02*
X156116665Y-131724233D01*
X156116665Y-131724233D02*
X156149998Y-131690900D01*
X156149998Y-131690900D02*
X156116665Y-131657566D01*
X156116665Y-131657566D02*
X156116665Y-131724233D01*
X155483332Y-131690900D02*
X155549999Y-131724233D01*
X155549999Y-131724233D02*
X155683332Y-131724233D01*
X155683332Y-131724233D02*
X155749999Y-131690900D01*
X155749999Y-131690900D02*
X155783332Y-131657566D01*
X155783332Y-131657566D02*
X155816665Y-131590900D01*
X155816665Y-131590900D02*
X155816665Y-131390900D01*
X155816665Y-131390900D02*
X155783332Y-131324233D01*
X155783332Y-131324233D02*
X155749999Y-131290900D01*
X155749999Y-131290900D02*
X155683332Y-131257566D01*
X155683332Y-131257566D02*
X155549999Y-131257566D01*
X155549999Y-131257566D02*
X155483332Y-131290900D01*
X155083332Y-131724233D02*
X155149999Y-131690900D01*
X155149999Y-131690900D02*
X155183332Y-131657566D01*
X155183332Y-131657566D02*
X155216665Y-131590900D01*
X155216665Y-131590900D02*
X155216665Y-131390900D01*
X155216665Y-131390900D02*
X155183332Y-131324233D01*
X155183332Y-131324233D02*
X155149999Y-131290900D01*
X155149999Y-131290900D02*
X155083332Y-131257566D01*
X155083332Y-131257566D02*
X154983332Y-131257566D01*
X154983332Y-131257566D02*
X154916665Y-131290900D01*
X154916665Y-131290900D02*
X154883332Y-131324233D01*
X154883332Y-131324233D02*
X154849999Y-131390900D01*
X154849999Y-131390900D02*
X154849999Y-131590900D01*
X154849999Y-131590900D02*
X154883332Y-131657566D01*
X154883332Y-131657566D02*
X154916665Y-131690900D01*
X154916665Y-131690900D02*
X154983332Y-131724233D01*
X154983332Y-131724233D02*
X155083332Y-131724233D01*
X154549999Y-131724233D02*
X154549999Y-131257566D01*
X154549999Y-131324233D02*
X154516666Y-131290900D01*
X154516666Y-131290900D02*
X154449999Y-131257566D01*
X154449999Y-131257566D02*
X154349999Y-131257566D01*
X154349999Y-131257566D02*
X154283332Y-131290900D01*
X154283332Y-131290900D02*
X154249999Y-131357566D01*
X154249999Y-131357566D02*
X154249999Y-131724233D01*
X154249999Y-131357566D02*
X154216666Y-131290900D01*
X154216666Y-131290900D02*
X154149999Y-131257566D01*
X154149999Y-131257566D02*
X154049999Y-131257566D01*
X154049999Y-131257566D02*
X153983332Y-131290900D01*
X153983332Y-131290900D02*
X153949999Y-131357566D01*
X153949999Y-131357566D02*
X153949999Y-131724233D01*
X153116666Y-130990900D02*
X153716666Y-131890900D01*
X152883333Y-131724233D02*
X152883333Y-131024233D01*
X152816666Y-131457566D02*
X152616666Y-131724233D01*
X152616666Y-131257566D02*
X152883333Y-131524233D01*
X152016666Y-131724233D02*
X152016666Y-131357566D01*
X152016666Y-131357566D02*
X152049999Y-131290900D01*
X152049999Y-131290900D02*
X152116666Y-131257566D01*
X152116666Y-131257566D02*
X152249999Y-131257566D01*
X152249999Y-131257566D02*
X152316666Y-131290900D01*
X152016666Y-131690900D02*
X152083333Y-131724233D01*
X152083333Y-131724233D02*
X152249999Y-131724233D01*
X152249999Y-131724233D02*
X152316666Y-131690900D01*
X152316666Y-131690900D02*
X152349999Y-131624233D01*
X152349999Y-131624233D02*
X152349999Y-131557566D01*
X152349999Y-131557566D02*
X152316666Y-131490900D01*
X152316666Y-131490900D02*
X152249999Y-131457566D01*
X152249999Y-131457566D02*
X152083333Y-131457566D01*
X152083333Y-131457566D02*
X152016666Y-131424233D01*
X151750000Y-131257566D02*
X151583333Y-131724233D01*
X151416666Y-131257566D02*
X151583333Y-131724233D01*
X151583333Y-131724233D02*
X151650000Y-131890900D01*
X151650000Y-131890900D02*
X151683333Y-131924233D01*
X151683333Y-131924233D02*
X151750000Y-131957566D01*
X150850000Y-131724233D02*
X150850000Y-131024233D01*
X150850000Y-131690900D02*
X150916667Y-131724233D01*
X150916667Y-131724233D02*
X151050000Y-131724233D01*
X151050000Y-131724233D02*
X151116667Y-131690900D01*
X151116667Y-131690900D02*
X151150000Y-131657566D01*
X151150000Y-131657566D02*
X151183333Y-131590900D01*
X151183333Y-131590900D02*
X151183333Y-131390900D01*
X151183333Y-131390900D02*
X151150000Y-131324233D01*
X151150000Y-131324233D02*
X151116667Y-131290900D01*
X151116667Y-131290900D02*
X151050000Y-131257566D01*
X151050000Y-131257566D02*
X150916667Y-131257566D01*
X150916667Y-131257566D02*
X150850000Y-131290900D01*
X150250000Y-131690900D02*
X150316667Y-131724233D01*
X150316667Y-131724233D02*
X150450000Y-131724233D01*
X150450000Y-131724233D02*
X150516667Y-131690900D01*
X150516667Y-131690900D02*
X150550000Y-131624233D01*
X150550000Y-131624233D02*
X150550000Y-131357566D01*
X150550000Y-131357566D02*
X150516667Y-131290900D01*
X150516667Y-131290900D02*
X150450000Y-131257566D01*
X150450000Y-131257566D02*
X150316667Y-131257566D01*
X150316667Y-131257566D02*
X150250000Y-131290900D01*
X150250000Y-131290900D02*
X150216667Y-131357566D01*
X150216667Y-131357566D02*
X150216667Y-131424233D01*
X150216667Y-131424233D02*
X150550000Y-131490900D01*
X149916667Y-131257566D02*
X149916667Y-131724233D01*
X149916667Y-131324233D02*
X149883334Y-131290900D01*
X149883334Y-131290900D02*
X149816667Y-131257566D01*
X149816667Y-131257566D02*
X149716667Y-131257566D01*
X149716667Y-131257566D02*
X149650000Y-131290900D01*
X149650000Y-131290900D02*
X149616667Y-131357566D01*
X149616667Y-131357566D02*
X149616667Y-131724233D01*
X149316667Y-131690900D02*
X149250001Y-131724233D01*
X149250001Y-131724233D02*
X149116667Y-131724233D01*
X149116667Y-131724233D02*
X149050001Y-131690900D01*
X149050001Y-131690900D02*
X149016667Y-131624233D01*
X149016667Y-131624233D02*
X149016667Y-131590900D01*
X149016667Y-131590900D02*
X149050001Y-131524233D01*
X149050001Y-131524233D02*
X149116667Y-131490900D01*
X149116667Y-131490900D02*
X149216667Y-131490900D01*
X149216667Y-131490900D02*
X149283334Y-131457566D01*
X149283334Y-131457566D02*
X149316667Y-131390900D01*
X149316667Y-131390900D02*
X149316667Y-131357566D01*
X149316667Y-131357566D02*
X149283334Y-131290900D01*
X149283334Y-131290900D02*
X149216667Y-131257566D01*
X149216667Y-131257566D02*
X149116667Y-131257566D01*
X149116667Y-131257566D02*
X149050001Y-131290900D01*
X148716667Y-131724233D02*
X148716667Y-131257566D01*
X148716667Y-131024233D02*
X148750000Y-131057566D01*
X148750000Y-131057566D02*
X148716667Y-131090900D01*
X148716667Y-131090900D02*
X148683334Y-131057566D01*
X148683334Y-131057566D02*
X148716667Y-131024233D01*
X148716667Y-131024233D02*
X148716667Y-131090900D01*
X148083334Y-131257566D02*
X148083334Y-131824233D01*
X148083334Y-131824233D02*
X148116667Y-131890900D01*
X148116667Y-131890900D02*
X148150001Y-131924233D01*
X148150001Y-131924233D02*
X148216667Y-131957566D01*
X148216667Y-131957566D02*
X148316667Y-131957566D01*
X148316667Y-131957566D02*
X148383334Y-131924233D01*
X148083334Y-131690900D02*
X148150001Y-131724233D01*
X148150001Y-131724233D02*
X148283334Y-131724233D01*
X148283334Y-131724233D02*
X148350001Y-131690900D01*
X148350001Y-131690900D02*
X148383334Y-131657566D01*
X148383334Y-131657566D02*
X148416667Y-131590900D01*
X148416667Y-131590900D02*
X148416667Y-131390900D01*
X148416667Y-131390900D02*
X148383334Y-131324233D01*
X148383334Y-131324233D02*
X148350001Y-131290900D01*
X148350001Y-131290900D02*
X148283334Y-131257566D01*
X148283334Y-131257566D02*
X148150001Y-131257566D01*
X148150001Y-131257566D02*
X148083334Y-131290900D01*
X147750001Y-131724233D02*
X147750001Y-131024233D01*
X147450001Y-131724233D02*
X147450001Y-131357566D01*
X147450001Y-131357566D02*
X147483334Y-131290900D01*
X147483334Y-131290900D02*
X147550001Y-131257566D01*
X147550001Y-131257566D02*
X147650001Y-131257566D01*
X147650001Y-131257566D02*
X147716668Y-131290900D01*
X147716668Y-131290900D02*
X147750001Y-131324233D01*
X146616668Y-130990900D02*
X147216668Y-131890900D01*
X146083335Y-131724233D02*
X146083335Y-131024233D01*
X146083335Y-131690900D02*
X146150002Y-131724233D01*
X146150002Y-131724233D02*
X146283335Y-131724233D01*
X146283335Y-131724233D02*
X146350002Y-131690900D01*
X146350002Y-131690900D02*
X146383335Y-131657566D01*
X146383335Y-131657566D02*
X146416668Y-131590900D01*
X146416668Y-131590900D02*
X146416668Y-131390900D01*
X146416668Y-131390900D02*
X146383335Y-131324233D01*
X146383335Y-131324233D02*
X146350002Y-131290900D01*
X146350002Y-131290900D02*
X146283335Y-131257566D01*
X146283335Y-131257566D02*
X146150002Y-131257566D01*
X146150002Y-131257566D02*
X146083335Y-131290900D01*
X145750002Y-131724233D02*
X145750002Y-131257566D01*
X145750002Y-131390900D02*
X145716669Y-131324233D01*
X145716669Y-131324233D02*
X145683335Y-131290900D01*
X145683335Y-131290900D02*
X145616669Y-131257566D01*
X145616669Y-131257566D02*
X145550002Y-131257566D01*
X145383336Y-131257566D02*
X145216669Y-131724233D01*
X145216669Y-131724233D02*
X145050002Y-131257566D01*
X144683336Y-131324233D02*
X144750003Y-131290900D01*
X144750003Y-131290900D02*
X144783336Y-131257566D01*
X144783336Y-131257566D02*
X144816669Y-131190900D01*
X144816669Y-131190900D02*
X144816669Y-131157566D01*
X144816669Y-131157566D02*
X144783336Y-131090900D01*
X144783336Y-131090900D02*
X144750003Y-131057566D01*
X144750003Y-131057566D02*
X144683336Y-131024233D01*
X144683336Y-131024233D02*
X144550003Y-131024233D01*
X144550003Y-131024233D02*
X144483336Y-131057566D01*
X144483336Y-131057566D02*
X144450003Y-131090900D01*
X144450003Y-131090900D02*
X144416669Y-131157566D01*
X144416669Y-131157566D02*
X144416669Y-131190900D01*
X144416669Y-131190900D02*
X144450003Y-131257566D01*
X144450003Y-131257566D02*
X144483336Y-131290900D01*
X144483336Y-131290900D02*
X144550003Y-131324233D01*
X144550003Y-131324233D02*
X144683336Y-131324233D01*
X144683336Y-131324233D02*
X144750003Y-131357566D01*
X144750003Y-131357566D02*
X144783336Y-131390900D01*
X144783336Y-131390900D02*
X144816669Y-131457566D01*
X144816669Y-131457566D02*
X144816669Y-131590900D01*
X144816669Y-131590900D02*
X144783336Y-131657566D01*
X144783336Y-131657566D02*
X144750003Y-131690900D01*
X144750003Y-131690900D02*
X144683336Y-131724233D01*
X144683336Y-131724233D02*
X144550003Y-131724233D01*
X144550003Y-131724233D02*
X144483336Y-131690900D01*
X144483336Y-131690900D02*
X144450003Y-131657566D01*
X144450003Y-131657566D02*
X144416669Y-131590900D01*
X144416669Y-131590900D02*
X144416669Y-131457566D01*
X144416669Y-131457566D02*
X144450003Y-131390900D01*
X144450003Y-131390900D02*
X144483336Y-131357566D01*
X144483336Y-131357566D02*
X144550003Y-131324233D01*
X144183336Y-131024233D02*
X143750002Y-131024233D01*
X143750002Y-131024233D02*
X143983336Y-131290900D01*
X143983336Y-131290900D02*
X143883336Y-131290900D01*
X143883336Y-131290900D02*
X143816669Y-131324233D01*
X143816669Y-131324233D02*
X143783336Y-131357566D01*
X143783336Y-131357566D02*
X143750002Y-131424233D01*
X143750002Y-131424233D02*
X143750002Y-131590900D01*
X143750002Y-131590900D02*
X143783336Y-131657566D01*
X143783336Y-131657566D02*
X143816669Y-131690900D01*
X143816669Y-131690900D02*
X143883336Y-131724233D01*
X143883336Y-131724233D02*
X144083336Y-131724233D01*
X144083336Y-131724233D02*
X144150002Y-131690900D01*
X144150002Y-131690900D02*
X144183336Y-131657566D01*
X143083335Y-131724233D02*
X143483335Y-131724233D01*
X143283335Y-131724233D02*
X143283335Y-131024233D01*
X143283335Y-131024233D02*
X143350002Y-131124233D01*
X143350002Y-131124233D02*
X143416669Y-131190900D01*
X143416669Y-131190900D02*
X143483335Y-131224233D01*
X142850002Y-131024233D02*
X142416668Y-131024233D01*
X142416668Y-131024233D02*
X142650002Y-131290900D01*
X142650002Y-131290900D02*
X142550002Y-131290900D01*
X142550002Y-131290900D02*
X142483335Y-131324233D01*
X142483335Y-131324233D02*
X142450002Y-131357566D01*
X142450002Y-131357566D02*
X142416668Y-131424233D01*
X142416668Y-131424233D02*
X142416668Y-131590900D01*
X142416668Y-131590900D02*
X142450002Y-131657566D01*
X142450002Y-131657566D02*
X142483335Y-131690900D01*
X142483335Y-131690900D02*
X142550002Y-131724233D01*
X142550002Y-131724233D02*
X142750002Y-131724233D01*
X142750002Y-131724233D02*
X142816668Y-131690900D01*
X142816668Y-131690900D02*
X142850002Y-131657566D01*
X142116668Y-131457566D02*
X141583335Y-131457566D01*
X141250001Y-131724233D02*
X141250001Y-131024233D01*
X141250001Y-131290900D02*
X141183334Y-131257566D01*
X141183334Y-131257566D02*
X141050001Y-131257566D01*
X141050001Y-131257566D02*
X140983334Y-131290900D01*
X140983334Y-131290900D02*
X140950001Y-131324233D01*
X140950001Y-131324233D02*
X140916668Y-131390900D01*
X140916668Y-131390900D02*
X140916668Y-131590900D01*
X140916668Y-131590900D02*
X140950001Y-131657566D01*
X140950001Y-131657566D02*
X140983334Y-131690900D01*
X140983334Y-131690900D02*
X141050001Y-131724233D01*
X141050001Y-131724233D02*
X141183334Y-131724233D01*
X141183334Y-131724233D02*
X141250001Y-131690900D01*
X140516668Y-131724233D02*
X140583335Y-131690900D01*
X140583335Y-131690900D02*
X140616668Y-131657566D01*
X140616668Y-131657566D02*
X140650001Y-131590900D01*
X140650001Y-131590900D02*
X140650001Y-131390900D01*
X140650001Y-131390900D02*
X140616668Y-131324233D01*
X140616668Y-131324233D02*
X140583335Y-131290900D01*
X140583335Y-131290900D02*
X140516668Y-131257566D01*
X140516668Y-131257566D02*
X140416668Y-131257566D01*
X140416668Y-131257566D02*
X140350001Y-131290900D01*
X140350001Y-131290900D02*
X140316668Y-131324233D01*
X140316668Y-131324233D02*
X140283335Y-131390900D01*
X140283335Y-131390900D02*
X140283335Y-131590900D01*
X140283335Y-131590900D02*
X140316668Y-131657566D01*
X140316668Y-131657566D02*
X140350001Y-131690900D01*
X140350001Y-131690900D02*
X140416668Y-131724233D01*
X140416668Y-131724233D02*
X140516668Y-131724233D01*
X139683335Y-131724233D02*
X139683335Y-131357566D01*
X139683335Y-131357566D02*
X139716668Y-131290900D01*
X139716668Y-131290900D02*
X139783335Y-131257566D01*
X139783335Y-131257566D02*
X139916668Y-131257566D01*
X139916668Y-131257566D02*
X139983335Y-131290900D01*
X139683335Y-131690900D02*
X139750002Y-131724233D01*
X139750002Y-131724233D02*
X139916668Y-131724233D01*
X139916668Y-131724233D02*
X139983335Y-131690900D01*
X139983335Y-131690900D02*
X140016668Y-131624233D01*
X140016668Y-131624233D02*
X140016668Y-131557566D01*
X140016668Y-131557566D02*
X139983335Y-131490900D01*
X139983335Y-131490900D02*
X139916668Y-131457566D01*
X139916668Y-131457566D02*
X139750002Y-131457566D01*
X139750002Y-131457566D02*
X139683335Y-131424233D01*
X139350002Y-131724233D02*
X139350002Y-131257566D01*
X139350002Y-131390900D02*
X139316669Y-131324233D01*
X139316669Y-131324233D02*
X139283335Y-131290900D01*
X139283335Y-131290900D02*
X139216669Y-131257566D01*
X139216669Y-131257566D02*
X139150002Y-131257566D01*
X138616669Y-131724233D02*
X138616669Y-131024233D01*
X138616669Y-131690900D02*
X138683336Y-131724233D01*
X138683336Y-131724233D02*
X138816669Y-131724233D01*
X138816669Y-131724233D02*
X138883336Y-131690900D01*
X138883336Y-131690900D02*
X138916669Y-131657566D01*
X138916669Y-131657566D02*
X138950002Y-131590900D01*
X138950002Y-131590900D02*
X138950002Y-131390900D01*
X138950002Y-131390900D02*
X138916669Y-131324233D01*
X138916669Y-131324233D02*
X138883336Y-131290900D01*
X138883336Y-131290900D02*
X138816669Y-131257566D01*
X138816669Y-131257566D02*
X138683336Y-131257566D01*
X138683336Y-131257566D02*
X138616669Y-131290900D01*
M02*
