%TF.GenerationSoftware,KiCad,Pcbnew,10.0.3*%
%TF.CreationDate,2026-06-18T12:42:18+08:00*%
%TF.ProjectId,project,70726f6a-6563-4742-9e6b-696361645f70,rev?*%
%TF.SameCoordinates,Original*%
%TF.FileFunction,Soldermask,Top*%
%TF.FilePolarity,Negative*%
%FSLAX46Y46*%
G04 Gerber Fmt 4.6, Leading zero omitted, Abs format (unit mm)*
G04 Created by KiCad (PCBNEW 10.0.3) date 2026-06-18 12:42:18*
%MOMM*%
%LPD*%
G01*
G04 APERTURE LIST*
G04 Aperture macros list*
%AMRoundRect*
0 Rectangle with rounded corners*
0 $1 Rounding radius*
0 $2 $3 $4 $5 $6 $7 $8 $9 X,Y pos of 4 corners*
0 Add a 4 corners polygon primitive as box body*
4,1,4,$2,$3,$4,$5,$6,$7,$8,$9,$2,$3,0*
0 Add four circle primitives for the rounded corners*
1,1,$1+$1,$2,$3*
1,1,$1+$1,$4,$5*
1,1,$1+$1,$6,$7*
1,1,$1+$1,$8,$9*
0 Add four rect primitives between the rounded corners*
20,1,$1+$1,$2,$3,$4,$5,0*
20,1,$1+$1,$4,$5,$6,$7,0*
20,1,$1+$1,$6,$7,$8,$9,0*
20,1,$1+$1,$8,$9,$2,$3,0*%
%AMFreePoly0*
4,1,23,0.500000,-0.750000,0.000000,-0.750000,0.000000,-0.745722,-0.065263,-0.745722,-0.191342,-0.711940,-0.304381,-0.646677,-0.396677,-0.554381,-0.461940,-0.441342,-0.495722,-0.315263,-0.495722,-0.250000,-0.500000,-0.250000,-0.500000,0.250000,-0.495722,0.250000,-0.495722,0.315263,-0.461940,0.441342,-0.396677,0.554381,-0.304381,0.646677,-0.191342,0.711940,-0.065263,0.745722,0.000000,0.745722,
0.000000,0.750000,0.500000,0.750000,0.500000,-0.750000,0.500000,-0.750000,$1*%
%AMFreePoly1*
4,1,23,0.000000,0.745722,0.065263,0.745722,0.191342,0.711940,0.304381,0.646677,0.396677,0.554381,0.461940,0.441342,0.495722,0.315263,0.495722,0.250000,0.500000,0.250000,0.500000,-0.250000,0.495722,-0.250000,0.495722,-0.315263,0.461940,-0.441342,0.396677,-0.554381,0.304381,-0.646677,0.191342,-0.711940,0.065263,-0.745722,0.000000,-0.745722,0.000000,-0.750000,-0.500000,-0.750000,
-0.500000,0.750000,0.000000,0.750000,0.000000,0.745722,0.000000,0.745722,$1*%
G04 Aperture macros list end*
%ADD10C,3.200000*%
%ADD11RoundRect,0.050800X0.450000X-0.400000X0.450000X0.400000X-0.450000X0.400000X-0.450000X-0.400000X0*%
%ADD12RoundRect,0.050800X0.432000X-0.403250X0.432000X0.403250X-0.432000X0.403250X-0.432000X-0.403250X0*%
%ADD13RoundRect,0.250001X-1.149999X1.149999X-1.149999X-1.149999X1.149999X-1.149999X1.149999X1.149999X0*%
%ADD14C,2.800000*%
%ADD15RoundRect,0.050800X-0.432000X0.403250X-0.432000X-0.403250X0.432000X-0.403250X0.432000X0.403250X0*%
%ADD16FreePoly0,90.000000*%
%ADD17FreePoly1,90.000000*%
%ADD18RoundRect,0.250001X1.149999X-1.149999X1.149999X1.149999X-1.149999X1.149999X-1.149999X-1.149999X0*%
%ADD19C,0.600000*%
%ADD20O,0.444600X1.833100*%
%ADD21RoundRect,0.050800X-3.100000X-1.375000X3.100000X-1.375000X3.100000X1.375000X-3.100000X1.375000X0*%
%ADD22RoundRect,0.250000X-0.362500X-1.425000X0.362500X-1.425000X0.362500X1.425000X-0.362500X1.425000X0*%
%ADD23R,1.700000X1.700000*%
%ADD24C,1.700000*%
%ADD25R,1.650000X4.500000*%
%ADD26RoundRect,0.050800X0.400000X0.400000X-0.400000X0.400000X-0.400000X-0.400000X0.400000X-0.400000X0*%
G04 APERTURE END LIST*
%TO.C,SJ1*%
G36*
X161250000Y-130049999D02*
G01*
X162750000Y-130049999D01*
X162750000Y-130349999D01*
X161250000Y-130349999D01*
X161250000Y-130049999D01*
G37*
%TO.C,SJ2*%
G36*
X161250000Y-125850000D02*
G01*
X162750000Y-125850000D01*
X162750000Y-126150000D01*
X161250000Y-126150000D01*
X161250000Y-125850000D01*
G37*
%TD*%
D10*
%TO.C,MH1*%
X138000000Y-92000000D03*
%TD*%
D11*
%TO.C,C6*%
X164800000Y-130899999D03*
X164800000Y-129499999D03*
%TD*%
D12*
%TO.C,R5*%
X160000000Y-100753400D03*
X160000000Y-99246600D03*
%TD*%
D11*
%TO.C,C2*%
X151500000Y-116700000D03*
X151500000Y-115300000D03*
%TD*%
D12*
%TO.C,R12*%
X152000000Y-100753400D03*
X152000000Y-99246600D03*
%TD*%
D10*
%TO.C,MH2*%
X180000000Y-92000000D03*
%TD*%
D13*
%TO.C,TB_PWR1*%
X139500000Y-107500000D03*
D14*
X139500000Y-112500000D03*
%TD*%
D15*
%TO.C,R9*%
X159000000Y-125246600D03*
X159000000Y-126753400D03*
%TD*%
D16*
%TO.C,SJ1*%
X162000000Y-130849999D03*
D17*
X162000000Y-129549999D03*
%TD*%
D18*
%TO.C,P1*%
X179000000Y-120500000D03*
D14*
X179000000Y-115500000D03*
X179000000Y-110500000D03*
X179000000Y-105500000D03*
X179000000Y-100500000D03*
%TD*%
D19*
%TO.C,U1*%
X153500100Y-109500100D03*
X153500100Y-110500100D03*
X154500100Y-109500100D03*
X154500100Y-110500100D03*
X155500100Y-109500100D03*
X155500100Y-110500100D03*
X156500100Y-109500100D03*
X156500100Y-110500100D03*
D20*
X150775000Y-112865900D03*
X151425000Y-112865900D03*
X152074900Y-112865900D03*
X152724900Y-112865900D03*
X153374900Y-112865900D03*
X154024900Y-112865900D03*
X154675100Y-112865900D03*
X155325100Y-112865900D03*
X155975100Y-112865900D03*
X156625100Y-112865900D03*
X157275100Y-112865900D03*
X157925100Y-112865900D03*
X158575000Y-112865900D03*
X159225000Y-112865900D03*
X159225000Y-107134400D03*
X158575000Y-107134400D03*
X157925100Y-107134400D03*
X157275100Y-107134400D03*
X156625100Y-107134400D03*
X155975100Y-107134400D03*
X155325100Y-107134400D03*
X154675100Y-107134400D03*
X154024900Y-107134400D03*
X153374900Y-107134400D03*
X152724900Y-107134400D03*
X152074900Y-107134400D03*
X151425000Y-107134400D03*
X150775000Y-107134400D03*
D21*
X155000000Y-110000000D03*
%TD*%
D11*
%TO.C,C4*%
X147000000Y-116700000D03*
X147000000Y-115300000D03*
%TD*%
D12*
%TO.C,R3*%
X158000000Y-100753400D03*
X158000000Y-99246600D03*
%TD*%
D10*
%TO.C,MH4*%
X138000000Y-129000000D03*
%TD*%
D12*
%TO.C,R7*%
X150000000Y-100753400D03*
X150000000Y-99246600D03*
%TD*%
D22*
%TO.C,R8*%
X151037500Y-123000000D03*
X156962500Y-123000000D03*
%TD*%
D12*
%TO.C,R6*%
X148000000Y-100753400D03*
X148000000Y-99246600D03*
%TD*%
D23*
%TO.C,H1*%
X145380000Y-91730000D03*
D24*
X145380000Y-94270000D03*
X147920000Y-91730000D03*
X147920000Y-94270000D03*
X150460000Y-91730000D03*
X150460000Y-94270000D03*
X153000000Y-91730000D03*
X153000000Y-94270000D03*
X155540000Y-91730000D03*
X155540000Y-94270000D03*
X158080000Y-91730000D03*
X158080000Y-94270000D03*
X160620000Y-91730000D03*
X160620000Y-94270000D03*
%TD*%
D12*
%TO.C,R2*%
X154000000Y-100753400D03*
X154000000Y-99246600D03*
%TD*%
D25*
%TO.C,C5*%
X168600000Y-123200000D03*
X168600000Y-114800000D03*
%TD*%
D12*
%TO.C,R1*%
X156000000Y-100753400D03*
X156000000Y-99246600D03*
%TD*%
D15*
%TO.C,R10*%
X159000000Y-129446599D03*
X159000000Y-130953399D03*
%TD*%
D10*
%TO.C,MH3*%
X180000000Y-129000000D03*
%TD*%
D12*
%TO.C,R11*%
X164800000Y-126753400D03*
X164800000Y-125246600D03*
%TD*%
%TO.C,R4*%
X146000000Y-99153400D03*
X146000000Y-97646600D03*
%TD*%
D16*
%TO.C,SJ2*%
X162000000Y-126650000D03*
D17*
X162000000Y-125350000D03*
%TD*%
D26*
%TO.C,LED1*%
X162000000Y-99149100D03*
X162000000Y-100850900D03*
%TD*%
D11*
%TO.C,C1*%
X149500000Y-116700000D03*
X149500000Y-115300000D03*
%TD*%
D25*
%TO.C,C3*%
X168600000Y-101700000D03*
X168600000Y-93300000D03*
%TD*%
M02*
