%TF.GenerationSoftware,KiCad,Pcbnew,10.0.3*%
%TF.CreationDate,2026-07-03T14:00:46+08:00*%
%TF.ProjectId,project,70726f6a-6563-4742-9e6b-696361645f70,rev?*%
%TF.SameCoordinates,Original*%
%TF.FileFunction,Copper,L1,Top*%
%TF.FilePolarity,Positive*%
%FSLAX46Y46*%
G04 Gerber Fmt 4.6, Leading zero omitted, Abs format (unit mm)*
G04 Created by KiCad (PCBNEW 10.0.3) date 2026-07-03 14:00:46*
%MOMM*%
%LPD*%
G01*
G04 APERTURE LIST*
G04 Aperture macros list*
%AMRoundRect*
0 Rectangle with rounded corners*
0 $1 Rounding radius*
0 $2 $3 $4 $5 $6 $7 $8 $9 X,Y pos of 4 corners*
0 Add a 4 corners polygon primitive as box body*
4,1,4,$2,$3,$4,$5,$6,$7,$8,$9,$2,$3,0*
0 Add four circle primitives for the rounded corners*
1,1,$1+$1,$2,$3*
1,1,$1+$1,$4,$5*
1,1,$1+$1,$6,$7*
1,1,$1+$1,$8,$9*
0 Add four rect primitives between the rounded corners*
20,1,$1+$1,$2,$3,$4,$5,0*
20,1,$1+$1,$4,$5,$6,$7,0*
20,1,$1+$1,$6,$7,$8,$9,0*
20,1,$1+$1,$8,$9,$2,$3,0*%
%AMFreePoly0*
4,1,23,0.500000,-0.750000,0.000000,-0.750000,0.000000,-0.745722,-0.065263,-0.745722,-0.191342,-0.711940,-0.304381,-0.646677,-0.396677,-0.554381,-0.461940,-0.441342,-0.495722,-0.315263,-0.495722,-0.250000,-0.500000,-0.250000,-0.500000,0.250000,-0.495722,0.250000,-0.495722,0.315263,-0.461940,0.441342,-0.396677,0.554381,-0.304381,0.646677,-0.191342,0.711940,-0.065263,0.745722,0.000000,0.745722,
0.000000,0.750000,0.500000,0.750000,0.500000,-0.750000,0.500000,-0.750000,$1*%
%AMFreePoly1*
4,1,23,0.000000,0.745722,0.065263,0.745722,0.191342,0.711940,0.304381,0.646677,0.396677,0.554381,0.461940,0.441342,0.495722,0.315263,0.495722,0.250000,0.500000,0.250000,0.500000,-0.250000,0.495722,-0.250000,0.495722,-0.315263,0.461940,-0.441342,0.396677,-0.554381,0.304381,-0.646677,0.191342,-0.711940,0.065263,-0.745722,0.000000,-0.745722,0.000000,-0.750000,-0.500000,-0.750000,
-0.500000,0.750000,0.000000,0.750000,0.000000,0.745722,0.000000,0.745722,$1*%
G04 Aperture macros list end*
%TA.AperFunction,EtchedComponent*%
%ADD10C,0.000000*%
%TD*%
%TA.AperFunction,SMDPad,CuDef*%
%ADD11FreePoly0,0.000000*%
%TD*%
%TA.AperFunction,SMDPad,CuDef*%
%ADD12FreePoly1,0.000000*%
%TD*%
%TA.AperFunction,SMDPad,CuDef*%
%ADD13R,0.806500X0.864000*%
%TD*%
%TA.AperFunction,SMDPad,CuDef*%
%ADD14R,0.900000X0.800000*%
%TD*%
%TA.AperFunction,SMDPad,CuDef*%
%ADD15R,0.864000X0.806500*%
%TD*%
%TA.AperFunction,ComponentPad*%
%ADD16RoundRect,0.250001X-1.149999X1.149999X-1.149999X-1.149999X1.149999X-1.149999X1.149999X1.149999X0*%
%TD*%
%TA.AperFunction,ComponentPad*%
%ADD17C,2.800000*%
%TD*%
%TA.AperFunction,ComponentPad*%
%ADD18RoundRect,0.250000X1.150000X-1.150000X1.150000X1.150000X-1.150000X1.150000X-1.150000X-1.150000X0*%
%TD*%
%TA.AperFunction,SMDPad,CuDef*%
%ADD19O,1.731500X0.343000*%
%TD*%
%TA.AperFunction,ComponentPad*%
%ADD20C,0.600000*%
%TD*%
%TA.AperFunction,SMDPad,CuDef*%
%ADD21R,2.750000X6.200000*%
%TD*%
%TA.AperFunction,SMDPad,CuDef*%
%ADD22RoundRect,0.250000X-1.425000X0.362500X-1.425000X-0.362500X1.425000X-0.362500X1.425000X0.362500X0*%
%TD*%
%TA.AperFunction,ComponentPad*%
%ADD23R,1.700000X1.700000*%
%TD*%
%TA.AperFunction,ComponentPad*%
%ADD24C,1.700000*%
%TD*%
%TA.AperFunction,SMDPad,CuDef*%
%ADD25R,1.650000X4.500000*%
%TD*%
%TA.AperFunction,SMDPad,CuDef*%
%ADD26R,0.800000X0.800000*%
%TD*%
%TA.AperFunction,SMDPad,CuDef*%
%ADD27R,0.800000X0.900000*%
%TD*%
%TA.AperFunction,ViaPad*%
%ADD28C,0.600000*%
%TD*%
%TA.AperFunction,Conductor*%
%ADD29C,0.200000*%
%TD*%
%TA.AperFunction,Conductor*%
%ADD30C,0.340000*%
%TD*%
G04 APERTURE END LIST*
D10*
%TA.AperFunction,EtchedComponent*%
%TO.C,SJ3*%
G36*
X169700000Y-99200000D02*
G01*
X169200000Y-99200000D01*
X169200000Y-98600000D01*
X169700000Y-98600000D01*
X169700000Y-99200000D01*
G37*
%TD.AperFunction*%
%TA.AperFunction,EtchedComponent*%
%TO.C,SJ1*%
G36*
X165700000Y-101100000D02*
G01*
X165200000Y-101100000D01*
X165200000Y-100500000D01*
X165700000Y-100500000D01*
X165700000Y-101100000D01*
G37*
%TD.AperFunction*%
%TA.AperFunction,EtchedComponent*%
%TO.C,SJ2*%
G36*
X165700000Y-97300000D02*
G01*
X165200000Y-97300000D01*
X165200000Y-96700000D01*
X165700000Y-96700000D01*
X165700000Y-97300000D01*
G37*
%TD.AperFunction*%
%TD*%
D11*
%TO.P,SJ3,1,A_1*%
%TO.N,Net-(SJ3-A)*%
X168800000Y-98900000D03*
D12*
%TO.P,SJ3,2,B_2*%
%TO.N,GND*%
X170100000Y-98900000D03*
%TD*%
D13*
%TO.P,R5,1*%
%TO.N,3.3V*%
X158493200Y-100000000D03*
%TO.P,R5,2*%
%TO.N,Net-(LED1-A)*%
X160000000Y-100000000D03*
%TD*%
D14*
%TO.P,C2,1*%
%TO.N,VCC*%
X162100000Y-115800000D03*
%TO.P,C2,2*%
%TO.N,Net-(U1-VCP)*%
X162100000Y-117200000D03*
%TD*%
D15*
%TO.P,R12,1*%
%TO.N,nCOMPO*%
X150545000Y-99000000D03*
%TO.P,R12,2*%
%TO.N,3.3V*%
X150545000Y-100506800D03*
%TD*%
D16*
%TO.P,TB_PWR1,1,Pin_1_1*%
%TO.N,GND*%
X140300000Y-108500000D03*
D17*
%TO.P,TB_PWR1,2,Pin_2_2*%
%TO.N,VCC*%
X140300000Y-113500000D03*
%TD*%
D13*
%TO.P,R9,1*%
%TO.N,3.3V*%
X158500000Y-103600000D03*
%TO.P,R9,2*%
%TO.N,Net-(SJ1-A)*%
X160006800Y-103600000D03*
%TD*%
D11*
%TO.P,SJ1,1,A_1*%
%TO.N,Net-(SJ1-A)*%
X164800000Y-100800000D03*
D12*
%TO.P,SJ1,2,B_2*%
%TO.N,VREF*%
X166100000Y-100800000D03*
%TD*%
D18*
%TO.P,P1,1,Pin_1_1*%
%TO.N,VCC*%
X179000000Y-121000000D03*
D17*
%TO.P,P1,2,Pin_2_2*%
%TO.N,M1*%
X179000000Y-116000000D03*
%TO.P,P1,3,Pin_3_3*%
%TO.N,M2*%
X179000000Y-111000000D03*
%TO.P,P1,4,Pin_4_4*%
%TO.N,M3*%
X179000000Y-106000000D03*
%TO.P,P1,5,Pin_5_5*%
%TO.N,GND*%
X179000000Y-101000000D03*
%TD*%
D19*
%TO.P,U1,1,CP1_1*%
%TO.N,Net-(U1-CP1)*%
X158500000Y-116450000D03*
%TO.P,U1,2,CP2_2*%
%TO.N,Net-(U1-CP2)*%
X158500000Y-115800000D03*
%TO.P,U1,3,VCP_3*%
%TO.N,Net-(U1-VCP)*%
X158500000Y-115150100D03*
%TO.P,U1,4,VM_4*%
%TO.N,VCC*%
X158500000Y-114500100D03*
%TO.P,U1,5,OUT1_5*%
%TO.N,M1*%
X158500000Y-113850100D03*
%TO.P,U1,6,PGND1_6*%
%TO.N,PGND*%
X158500000Y-113200100D03*
%TO.P,U1,7,PGND2_7*%
X158500000Y-112549900D03*
%TO.P,U1,8,OUT2_8*%
%TO.N,M2*%
X158500000Y-111899900D03*
%TO.P,U1,9,OUT3_9*%
%TO.N,M3*%
X158500000Y-111249900D03*
%TO.P,U1,10,PGND3_10*%
%TO.N,PGND*%
X158500000Y-110599900D03*
%TO.P,U1,11,VM_11*%
%TO.N,VCC*%
X158500000Y-109949900D03*
%TO.P,U1,12,COMPP_12*%
%TO.N,PGND*%
X158500000Y-109299900D03*
%TO.P,U1,13,COMPN_13*%
%TO.N,VREF*%
X158500000Y-108650000D03*
%TO.P,U1,14,GND_14*%
%TO.N,GND*%
X158500000Y-108000000D03*
%TO.P,U1,15,V3P3OUT_15*%
%TO.N,3.3V*%
X152768500Y-108000000D03*
%TO.P,U1,16,RESET#_16*%
%TO.N,nRes*%
X152768500Y-108650000D03*
%TO.P,U1,17,SLEEP#_17*%
%TO.N,nSlp*%
X152768500Y-109299900D03*
%TO.P,U1,18,FAULT#_18*%
%TO.N,nFlt*%
X152768500Y-109949900D03*
%TO.P,U1,19,COMPO#_19*%
%TO.N,nCOMPO*%
X152768500Y-110599900D03*
%TO.P,U1,20,GND_20*%
%TO.N,GND*%
X152768500Y-111249900D03*
%TO.P,U1,21,NC_21*%
X152768500Y-111899900D03*
%TO.P,U1,22,EN3_22*%
%TO.N,EN3*%
X152768500Y-112549900D03*
%TO.P,U1,23,IN3_23*%
%TO.N,IN3*%
X152768500Y-113200100D03*
%TO.P,U1,24,EN2_24*%
%TO.N,EN2*%
X152768500Y-113850100D03*
%TO.P,U1,25,IN2_25*%
%TO.N,IN2*%
X152768500Y-114500100D03*
%TO.P,U1,26,EN1_26*%
%TO.N,EN1*%
X152768500Y-115150100D03*
%TO.P,U1,27,IN1_27*%
%TO.N,IN1*%
X152768500Y-115800000D03*
%TO.P,U1,28,GND_28*%
%TO.N,GND*%
X152768500Y-116450000D03*
D20*
%TO.P,U1,29,EP_29*%
X155134200Y-113724900D03*
X156134200Y-113724900D03*
X155134200Y-112724900D03*
X156134200Y-112724900D03*
D21*
X155634100Y-112225000D03*
D20*
X155134200Y-111724900D03*
X156134200Y-111724900D03*
X155134200Y-110724900D03*
X156134200Y-110724900D03*
%TD*%
D15*
%TO.P,R3,1*%
%TO.N,3.3V*%
X156500000Y-100506800D03*
%TO.P,R3,2*%
%TO.N,nRes*%
X156500000Y-99000000D03*
%TD*%
D22*
%TO.P,R8,1*%
%TO.N,PGND*%
X167500000Y-112300000D03*
%TO.P,R8,2*%
%TO.N,GND*%
X167500000Y-118225000D03*
%TD*%
D23*
%TO.P,H1,1,Pin_1_1*%
%TO.N,IN1*%
X145340000Y-91500000D03*
D24*
%TO.P,H1,2,Pin_2_2*%
%TO.N,EN1*%
X145340000Y-94040000D03*
%TO.P,H1,3,Pin_3_3*%
%TO.N,IN2*%
X147880000Y-91500000D03*
%TO.P,H1,4,Pin_4_4*%
%TO.N,EN2*%
X147880000Y-94040000D03*
%TO.P,H1,5,Pin_5_5*%
%TO.N,IN3*%
X150420000Y-91500000D03*
%TO.P,H1,6,Pin_6_6*%
%TO.N,EN3*%
X150420000Y-94040000D03*
%TO.P,H1,7,Pin_7_7*%
%TO.N,nFlt*%
X152960000Y-91500000D03*
%TO.P,H1,8,Pin_8_8*%
%TO.N,nCOMPO*%
X152960000Y-94040000D03*
%TO.P,H1,9,Pin_9_9*%
%TO.N,nRes*%
X155500000Y-91500000D03*
%TO.P,H1,10,Pin_10_10*%
%TO.N,nSlp*%
X155500000Y-94040000D03*
%TO.P,H1,11,Pin_11_11*%
%TO.N,VREF*%
X158040000Y-91500000D03*
%TO.P,H1,12,Pin_12_12*%
%TO.N,PGND*%
X158040000Y-94040000D03*
%TO.P,H1,13,Pin_13_13*%
%TO.N,GND*%
X160580000Y-91500000D03*
%TO.P,H1,14,Pin_14_14*%
%TO.N,3.3V*%
X160580000Y-94040000D03*
%TD*%
D15*
%TO.P,R2,1*%
%TO.N,3.3V*%
X154500000Y-100506800D03*
%TO.P,R2,2*%
%TO.N,nSlp*%
X154500000Y-99000000D03*
%TD*%
D25*
%TO.P,C5,1*%
%TO.N,VCC*%
X150700000Y-131900000D03*
%TO.P,C5,2*%
%TO.N,GND*%
X150700000Y-123500000D03*
%TD*%
D14*
%TO.P,C7,1*%
%TO.N,GND*%
X164100000Y-117200000D03*
%TO.P,C7,2*%
%TO.N,VCC*%
X164100000Y-115800000D03*
%TD*%
D15*
%TO.P,R1,1*%
%TO.N,3.3V*%
X152545000Y-100506800D03*
%TO.P,R1,2*%
%TO.N,nFlt*%
X152545000Y-99000000D03*
%TD*%
D13*
%TO.P,R10,1*%
%TO.N,3.3V*%
X158493200Y-101800000D03*
%TO.P,R10,2*%
%TO.N,Net-(SJ2-A)*%
X160000000Y-101800000D03*
%TD*%
D14*
%TO.P,C8,1*%
%TO.N,GND*%
X162300000Y-106500000D03*
%TO.P,C8,2*%
%TO.N,VCC*%
X162300000Y-107900000D03*
%TD*%
D13*
%TO.P,R11,1*%
%TO.N,VREF*%
X162893200Y-103500000D03*
%TO.P,R11,2*%
%TO.N,Net-(SJ3-A)*%
X164400000Y-103500000D03*
%TD*%
D11*
%TO.P,SJ2,1,A_1*%
%TO.N,Net-(SJ2-A)*%
X164800000Y-97000000D03*
D12*
%TO.P,SJ2,2,B_2*%
%TO.N,VREF*%
X166100000Y-97000000D03*
%TD*%
D26*
%TO.P,LED1,1,A_1*%
%TO.N,Net-(LED1-A)*%
X164000000Y-93701800D03*
%TO.P,LED1,2,C_2*%
%TO.N,GND*%
X164000000Y-92000000D03*
%TD*%
D27*
%TO.P,C1,1*%
%TO.N,Net-(U1-CP2)*%
X160000000Y-118300000D03*
%TO.P,C1,2*%
%TO.N,Net-(U1-CP1)*%
X158600000Y-118300000D03*
%TD*%
%TO.P,C4,1*%
%TO.N,GND*%
X157500000Y-106000000D03*
%TO.P,C4,2*%
%TO.N,3.3V*%
X156100000Y-106000000D03*
%TD*%
D25*
%TO.P,C3,1*%
%TO.N,VCC*%
X162500000Y-131900000D03*
%TO.P,C3,2*%
%TO.N,GND*%
X162500000Y-123500000D03*
%TD*%
D28*
%TO.N,GND*%
X167000000Y-103000000D03*
X137000000Y-109000000D03*
X149000000Y-127000000D03*
X159400000Y-105000000D03*
X143000000Y-103000000D03*
X167000000Y-127000000D03*
X137000000Y-127000000D03*
X173000000Y-91000000D03*
X149000000Y-121000000D03*
X143000000Y-109000000D03*
X143000000Y-91000000D03*
X155000000Y-121000000D03*
X137000000Y-103000000D03*
X161000000Y-121000000D03*
X173000000Y-103000000D03*
X179000000Y-127000000D03*
X179000000Y-97000000D03*
X167000000Y-91000000D03*
X155000000Y-127000000D03*
X143000000Y-97000000D03*
X143000000Y-133000000D03*
X163100000Y-101900000D03*
X173000000Y-97000000D03*
X161000000Y-127000000D03*
X149000000Y-115000000D03*
X137000000Y-121000000D03*
X167000000Y-121000000D03*
X137000000Y-97000000D03*
%TO.N,3.3V*%
X156500000Y-101700000D03*
X152500000Y-101700000D03*
X154500000Y-101700000D03*
X150600000Y-101700000D03*
%TO.N,M1*%
X161000000Y-114000000D03*
X163000000Y-114000000D03*
X162000000Y-114000000D03*
%TO.N,M2*%
X162000000Y-111700000D03*
X164000000Y-111700000D03*
X163000000Y-111700000D03*
%TO.N,M3*%
X161500000Y-110600000D03*
X163500000Y-110600000D03*
X162500000Y-110600000D03*
%TO.N,PGND*%
X161900000Y-109700000D03*
X160800000Y-106900000D03*
%TD*%
%TO.N,Net-(SJ3-A)*%
D29*
X168800000Y-98900000D02*
X168800000Y-99655000D01*
X164955000Y-103500000D02*
X164400000Y-103500000D01*
X168800000Y-99655000D02*
X164955000Y-103500000D01*
%TO.N,3.3V*%
X150545000Y-101645000D02*
X150600000Y-101700000D01*
X160580000Y-94040000D02*
X158493200Y-96126800D01*
X154500000Y-100506800D02*
X154500000Y-101700000D01*
X154500000Y-101700000D02*
X154500000Y-101590000D01*
X152768500Y-108000000D02*
X152768500Y-107531500D01*
X156500000Y-100506800D02*
X156500000Y-101700000D01*
X152545000Y-100506800D02*
X152545000Y-101655000D01*
X152545000Y-101655000D02*
X152500000Y-101700000D01*
X156100000Y-106000000D02*
X158500000Y-103600000D01*
X154300000Y-106000000D02*
X156100000Y-106000000D01*
X158500000Y-103600000D02*
X158500000Y-101600000D01*
X152768500Y-107531500D02*
X154300000Y-106000000D01*
X156500000Y-101700000D02*
X158400000Y-101700000D01*
X158493200Y-101800000D02*
X158493200Y-100000000D01*
X150545000Y-100506800D02*
X150545000Y-101645000D01*
X158400000Y-101700000D02*
X158500000Y-101600000D01*
X158493200Y-96126800D02*
X158493200Y-100000000D01*
X154500000Y-101590000D02*
X154545000Y-101545000D01*
%TO.N,Net-(LED1-A)*%
X164000000Y-96000000D02*
X160000000Y-100000000D01*
X164000000Y-93701800D02*
X164000000Y-96000000D01*
%TO.N,VCC*%
D30*
X158500000Y-109949900D02*
X160175100Y-109949900D01*
%TO.N,Net-(U1-VCP)*%
D29*
X159550100Y-115150100D02*
X161300000Y-116900000D01*
X161300000Y-116900000D02*
X161800000Y-116900000D01*
X158500000Y-115150100D02*
X159550100Y-115150100D01*
%TO.N,nCOMPO*%
X152960000Y-96040000D02*
X152960000Y-94040000D01*
X150400000Y-106800000D02*
X151400000Y-105800000D01*
X151400000Y-105800000D02*
X151400000Y-99855000D01*
X152768500Y-110599900D02*
X151899900Y-110599900D01*
X150400000Y-109100000D02*
X150400000Y-106800000D01*
X151400000Y-99855000D02*
X150545000Y-99000000D01*
X151899900Y-110599900D02*
X150400000Y-109100000D01*
X150545000Y-98455000D02*
X152960000Y-96040000D01*
X150545000Y-99000000D02*
X150545000Y-98455000D01*
%TO.N,Net-(SJ1-A)*%
X160006800Y-103600000D02*
X162806800Y-100800000D01*
X162806800Y-100800000D02*
X164800000Y-100800000D01*
%TO.N,VREF*%
X162893200Y-103500000D02*
X164293200Y-102100000D01*
X164293200Y-102100000D02*
X165555000Y-102100000D01*
X166100000Y-92700000D02*
X163750000Y-90350000D01*
X166100000Y-101555000D02*
X166100000Y-100800000D01*
X159190000Y-90350000D02*
X158040000Y-91500000D01*
X160000000Y-106600000D02*
X162893200Y-103706800D01*
X166100000Y-100800000D02*
X166100000Y-97000000D01*
X158500000Y-108650000D02*
X159565750Y-108650000D01*
X162893200Y-103706800D02*
X162893200Y-103500000D01*
X160000000Y-108215750D02*
X160000000Y-106600000D01*
X165555000Y-102100000D02*
X166100000Y-101555000D01*
X159565750Y-108650000D02*
X160000000Y-108215750D01*
X163750000Y-90350000D02*
X159190000Y-90350000D01*
X166100000Y-97000000D02*
X166100000Y-92700000D01*
%TO.N,M1*%
D30*
X162850100Y-113850100D02*
X163000000Y-114000000D01*
X178000000Y-115000000D02*
X179000000Y-116000000D01*
X158500000Y-113850100D02*
X162850100Y-113850100D01*
%TO.N,M2*%
X158500100Y-111900000D02*
X163800000Y-111900000D01*
X163800000Y-111900000D02*
X164000000Y-111700000D01*
X178100100Y-111899900D02*
X179000000Y-111000000D01*
X158500000Y-111899900D02*
X158500100Y-111900000D01*
%TO.N,M3*%
X161500000Y-110600000D02*
X163500000Y-110600000D01*
X158500000Y-111249900D02*
X160850100Y-111249900D01*
X158500000Y-111249900D02*
X158500100Y-111250000D01*
X160850100Y-111249900D02*
X161500000Y-110600000D01*
%TO.N,Net-(U1-CP1)*%
D29*
X158500000Y-116450000D02*
X158500000Y-118200000D01*
X158500000Y-118200000D02*
X158600000Y-118300000D01*
%TO.N,Net-(U1-CP2)*%
X159565750Y-115800000D02*
X160000000Y-116234250D01*
X158500000Y-115800000D02*
X159565750Y-115800000D01*
X160000000Y-116234250D02*
X160000000Y-118300000D01*
%TO.N,PGND*%
D30*
X158500000Y-110599900D02*
X160500100Y-110599900D01*
D29*
X159705750Y-109299900D02*
X160400000Y-108605650D01*
X160400000Y-107300000D02*
X160800000Y-106900000D01*
D30*
X165237500Y-112300000D02*
X167500000Y-112300000D01*
X158500000Y-112549900D02*
X164987600Y-112549900D01*
X161900000Y-109700000D02*
X161800000Y-109600000D01*
X161900000Y-109700000D02*
X164900000Y-109700000D01*
X160500100Y-110599900D02*
X161400000Y-109700000D01*
X166599900Y-113200100D02*
X167500000Y-112300000D01*
X164900000Y-109700000D02*
X167500000Y-112300000D01*
X158500000Y-113200100D02*
X166599900Y-113200100D01*
D29*
X160400000Y-108605650D02*
X160400000Y-107300000D01*
D30*
X164987600Y-112549900D02*
X165237500Y-112300000D01*
D29*
X158500000Y-109299900D02*
X159705750Y-109299900D01*
D30*
X161400000Y-109700000D02*
X161900000Y-109700000D01*
%TO.N,nRes*%
D29*
X156650000Y-98850000D02*
X156650000Y-92650000D01*
X152050000Y-108650000D02*
X151600000Y-108200000D01*
X156500000Y-99000000D02*
X156650000Y-98850000D01*
X155700000Y-103500000D02*
X155700000Y-99800000D01*
X155700000Y-99800000D02*
X156500000Y-99000000D01*
X151600000Y-107600000D02*
X155700000Y-103500000D01*
X151600000Y-108200000D02*
X151600000Y-107600000D01*
X152768500Y-108650000D02*
X152050000Y-108650000D01*
X156650000Y-92650000D02*
X155500000Y-91500000D01*
%TO.N,nSlp*%
X154500000Y-99000000D02*
X155500000Y-98000000D01*
X152768500Y-109299900D02*
X151999900Y-109299900D01*
X151999900Y-109299900D02*
X151200000Y-108500000D01*
X151200000Y-108500000D02*
X151200000Y-107300000D01*
X155500000Y-98000000D02*
X155500000Y-94040000D01*
X155300000Y-103200000D02*
X155300000Y-99800000D01*
X151200000Y-107300000D02*
X155300000Y-103200000D01*
X155300000Y-99800000D02*
X154500000Y-99000000D01*
%TO.N,nFlt*%
X154110000Y-92650000D02*
X152960000Y-91500000D01*
X153400000Y-104400000D02*
X153400000Y-99855000D01*
X150800000Y-107000000D02*
X153400000Y-104400000D01*
X153400000Y-99855000D02*
X152545000Y-99000000D01*
X152768500Y-109949900D02*
X151949900Y-109949900D01*
X150800000Y-108800000D02*
X150800000Y-107000000D01*
X154110000Y-97435000D02*
X154110000Y-92650000D01*
X152545000Y-99000000D02*
X154110000Y-97435000D01*
X151949900Y-109949900D02*
X150800000Y-108800000D01*
%TO.N,EN3*%
X152768500Y-112549900D02*
X151949900Y-112549900D01*
X149700000Y-110300000D02*
X149700000Y-96900000D01*
X149700000Y-96900000D02*
X150420000Y-96180000D01*
X151949900Y-112549900D02*
X149700000Y-110300000D01*
X150420000Y-96180000D02*
X150420000Y-94040000D01*
%TO.N,IN3*%
X149270000Y-110470000D02*
X149270000Y-92650000D01*
X149270000Y-92650000D02*
X150420000Y-91500000D01*
X152768500Y-113200100D02*
X152000100Y-113200100D01*
X152000100Y-113200100D02*
X149270000Y-110470000D01*
%TO.N,EN2*%
X148800000Y-110700000D02*
X148800000Y-94960000D01*
X148800000Y-94960000D02*
X147880000Y-94040000D01*
X152768500Y-113850100D02*
X151950100Y-113850100D01*
X151950100Y-113850100D02*
X148800000Y-110700000D01*
%TO.N,IN2*%
X152000100Y-114500100D02*
X148400000Y-110900000D01*
X148400000Y-110900000D02*
X148400000Y-96900000D01*
X148400000Y-92020000D02*
X147880000Y-91500000D01*
X148400000Y-96900000D02*
X146730000Y-95230000D01*
X146730000Y-92650000D02*
X147880000Y-91500000D01*
X152768500Y-114500100D02*
X152000100Y-114500100D01*
X146730000Y-95230000D02*
X146730000Y-92650000D01*
%TO.N,EN1*%
X152768500Y-115150100D02*
X152050100Y-115150100D01*
X145340000Y-95340000D02*
X145340000Y-94040000D01*
X148000000Y-98000000D02*
X145340000Y-95340000D01*
X148000000Y-111100000D02*
X148000000Y-98000000D01*
X152050100Y-115150100D02*
X148000000Y-111100000D01*
%TO.N,IN1*%
X143700000Y-93140000D02*
X145340000Y-91500000D01*
X147600000Y-98900000D02*
X143700000Y-95000000D01*
X143700000Y-95000000D02*
X143700000Y-93140000D01*
X152768500Y-115800000D02*
X152000000Y-115800000D01*
X152000000Y-115800000D02*
X147600000Y-111400000D01*
X145000000Y-91840000D02*
X145340000Y-91500000D01*
X147600000Y-111400000D02*
X147600000Y-98900000D01*
%TO.N,Net-(SJ2-A)*%
X160000000Y-101800000D02*
X164800000Y-97000000D01*
%TD*%
%TA.AperFunction,Conductor*%
%TO.N,VCC*%
G36*
X173893095Y-107404617D02*
G01*
X173908095Y-107409020D01*
X173923111Y-107418669D01*
X173940238Y-107423703D01*
X173966839Y-107446766D01*
X173966873Y-107446788D01*
X173967898Y-107447970D01*
X173968088Y-107448189D01*
X173995516Y-107502994D01*
X173997163Y-107510561D01*
X174000000Y-107536933D01*
X174000000Y-114236369D01*
X173999245Y-114246920D01*
X174000667Y-118501237D01*
X174000668Y-118501237D01*
X174000669Y-118501237D01*
X174000669Y-118501238D01*
X181458141Y-118498742D01*
X181493069Y-118503754D01*
X181502132Y-118506412D01*
X181508070Y-118508154D01*
X181566859Y-118545911D01*
X181566864Y-118545916D01*
X181568043Y-118547276D01*
X181595508Y-118602108D01*
X181597159Y-118609687D01*
X181600000Y-118636080D01*
X181600000Y-123458117D01*
X181599999Y-123458123D01*
X181600000Y-123458126D01*
X181594975Y-123493061D01*
X181590570Y-123508059D01*
X181552827Y-123566802D01*
X181552792Y-123566832D01*
X181552791Y-123566834D01*
X181552789Y-123566834D01*
X181551458Y-123567989D01*
X181496594Y-123595466D01*
X181489035Y-123597111D01*
X181462669Y-123599947D01*
X173999921Y-123600050D01*
X173999920Y-123600050D01*
X174000080Y-135364210D01*
X174000081Y-135364211D01*
X173995059Y-135399146D01*
X173990656Y-135414143D01*
X173952884Y-135472922D01*
X173951520Y-135474104D01*
X173896662Y-135501562D01*
X173889086Y-135503209D01*
X173862716Y-135506040D01*
X146795230Y-135500020D01*
X146760300Y-135494990D01*
X146744451Y-135490333D01*
X146686751Y-135453767D01*
X146677310Y-135443151D01*
X146658558Y-135415186D01*
X146063738Y-134197852D01*
X149375000Y-134197852D01*
X149381400Y-134257370D01*
X149381402Y-134257377D01*
X149431646Y-134392088D01*
X149431648Y-134392091D01*
X149517807Y-134507185D01*
X149517809Y-134507187D01*
X149517812Y-134507190D01*
X149632906Y-134593350D01*
X149632913Y-134593354D01*
X149767620Y-134643596D01*
X149767627Y-134643598D01*
X149774468Y-134644333D01*
X149827138Y-134649998D01*
X149827155Y-134649999D01*
X149827172Y-134650000D01*
X150450000Y-134650000D01*
X150950000Y-134650000D01*
X151572828Y-134650000D01*
X151572836Y-134650000D01*
X151572847Y-134649999D01*
X151608560Y-134646158D01*
X151632372Y-134643598D01*
X151632379Y-134643596D01*
X151767086Y-134593354D01*
X151767093Y-134593350D01*
X151882187Y-134507190D01*
X151882190Y-134507187D01*
X151968350Y-134392093D01*
X151968354Y-134392086D01*
X152018596Y-134257379D01*
X152018598Y-134257372D01*
X152020069Y-134243689D01*
X152024998Y-134197860D01*
X152024998Y-134197852D01*
X161175000Y-134197852D01*
X161181400Y-134257370D01*
X161181402Y-134257377D01*
X161231646Y-134392088D01*
X161231648Y-134392091D01*
X161317807Y-134507185D01*
X161317809Y-134507187D01*
X161317812Y-134507190D01*
X161432906Y-134593350D01*
X161432913Y-134593354D01*
X161567620Y-134643596D01*
X161567627Y-134643598D01*
X161574468Y-134644333D01*
X161627138Y-134649998D01*
X161627155Y-134649999D01*
X161627172Y-134650000D01*
X162250000Y-134650000D01*
X162750000Y-134650000D01*
X163372828Y-134650000D01*
X163372836Y-134650000D01*
X163372847Y-134649999D01*
X163408560Y-134646158D01*
X163432372Y-134643598D01*
X163432379Y-134643596D01*
X163567086Y-134593354D01*
X163567093Y-134593350D01*
X163682187Y-134507190D01*
X163682190Y-134507187D01*
X163768350Y-134392093D01*
X163768354Y-134392086D01*
X163818596Y-134257379D01*
X163818598Y-134257372D01*
X163820069Y-134243689D01*
X163824998Y-134197860D01*
X163825000Y-134197827D01*
X163825000Y-132150000D01*
X162750000Y-132150000D01*
X162750000Y-134650000D01*
X162250000Y-134650000D01*
X162250000Y-132150000D01*
X161175000Y-132150000D01*
X161175000Y-134197852D01*
X152024998Y-134197852D01*
X152025000Y-134197827D01*
X152025000Y-132150000D01*
X150950000Y-132150000D01*
X150950000Y-134650000D01*
X150450000Y-134650000D01*
X150450000Y-132150000D01*
X149375000Y-132150000D01*
X149375000Y-134197852D01*
X146063738Y-134197852D01*
X145064608Y-132153076D01*
X145063105Y-132150000D01*
X143818172Y-129602172D01*
X143818159Y-129602146D01*
X149375000Y-129602146D01*
X149375000Y-129602155D01*
X149375000Y-131650000D01*
X150450000Y-131650000D01*
X150950000Y-131650000D01*
X152025000Y-131650000D01*
X152025000Y-129602172D01*
X152024999Y-129602155D01*
X152024998Y-129602146D01*
X161175000Y-129602146D01*
X161175000Y-129602155D01*
X161175000Y-131650000D01*
X162250000Y-131650000D01*
X162750000Y-131650000D01*
X163825000Y-131650000D01*
X163825000Y-129602172D01*
X163824999Y-129602155D01*
X163824998Y-129602146D01*
X163824998Y-129602138D01*
X163818598Y-129542628D01*
X163818596Y-129542621D01*
X163818596Y-129542620D01*
X163768354Y-129407913D01*
X163768350Y-129407906D01*
X163682190Y-129292812D01*
X163682187Y-129292809D01*
X163682185Y-129292807D01*
X163624317Y-129249487D01*
X163567093Y-129206649D01*
X163567086Y-129206645D01*
X163499732Y-129181524D01*
X163432377Y-129156402D01*
X163432370Y-129156400D01*
X163372852Y-129150000D01*
X163372844Y-129150000D01*
X162750000Y-129150000D01*
X162750000Y-131650000D01*
X162250000Y-131650000D01*
X162250000Y-129150000D01*
X161627146Y-129150000D01*
X161567628Y-129156400D01*
X161567621Y-129156402D01*
X161432910Y-129206646D01*
X161432907Y-129206648D01*
X161317813Y-129292807D01*
X161317807Y-129292813D01*
X161231648Y-129407907D01*
X161231646Y-129407910D01*
X161181402Y-129542621D01*
X161181400Y-129542628D01*
X161175000Y-129602146D01*
X152024998Y-129602146D01*
X152024998Y-129602138D01*
X152018598Y-129542628D01*
X152018596Y-129542621D01*
X152018596Y-129542620D01*
X151968354Y-129407913D01*
X151968350Y-129407906D01*
X151882190Y-129292812D01*
X151882187Y-129292809D01*
X151882185Y-129292807D01*
X151824317Y-129249487D01*
X151767093Y-129206649D01*
X151767088Y-129206646D01*
X151767089Y-129206646D01*
X151632377Y-129156402D01*
X151632370Y-129156400D01*
X151572852Y-129150000D01*
X151572844Y-129150000D01*
X150950000Y-129150000D01*
X150950000Y-131650000D01*
X150450000Y-131650000D01*
X150450000Y-129150000D01*
X149827146Y-129150000D01*
X149767628Y-129156400D01*
X149767621Y-129156402D01*
X149632910Y-129206646D01*
X149632907Y-129206648D01*
X149517813Y-129292807D01*
X149517807Y-129292813D01*
X149431648Y-129407907D01*
X149431646Y-129407910D01*
X149381402Y-129542621D01*
X149381400Y-129542628D01*
X149375000Y-129602146D01*
X143818159Y-129602146D01*
X137940868Y-117573931D01*
X137931563Y-117547834D01*
X137925346Y-117521342D01*
X137922071Y-117493826D01*
X137921811Y-117453904D01*
X137912770Y-116063681D01*
X137895287Y-113375465D01*
X138400000Y-113375465D01*
X138400000Y-113624533D01*
X138432506Y-113871452D01*
X138432507Y-113871457D01*
X138432508Y-113871463D01*
X138462426Y-113983121D01*
X138496973Y-114112051D01*
X138592285Y-114342154D01*
X138716808Y-114557833D01*
X138716816Y-114557846D01*
X138747729Y-114598132D01*
X138791400Y-114655045D01*
X139582924Y-113863520D01*
X139644245Y-113830037D01*
X139713936Y-113835021D01*
X139769870Y-113876893D01*
X139773691Y-113882292D01*
X139795112Y-113914351D01*
X139795116Y-113914355D01*
X139795116Y-113914356D01*
X139885643Y-114004883D01*
X139885646Y-114004885D01*
X139885649Y-114004888D01*
X139917685Y-114026293D01*
X139962489Y-114079904D01*
X139971197Y-114149229D01*
X139941043Y-114212257D01*
X139936475Y-114217076D01*
X139144953Y-115008597D01*
X139144953Y-115008598D01*
X139189543Y-115042813D01*
X139242152Y-115083182D01*
X139242155Y-115083184D01*
X139242158Y-115083186D01*
X139457840Y-115207711D01*
X139457842Y-115207712D01*
X139457844Y-115207713D01*
X139662844Y-115292627D01*
X139687950Y-115303026D01*
X139928536Y-115367491D01*
X140175466Y-115400000D01*
X140424527Y-115400000D01*
X140424534Y-115400000D01*
X140671463Y-115367491D01*
X140912049Y-115303026D01*
X141142148Y-115207716D01*
X141142159Y-115207711D01*
X141357855Y-115083178D01*
X141455045Y-115008600D01*
X141455045Y-115008597D01*
X141004281Y-114557833D01*
X140663524Y-114217076D01*
X140630039Y-114155753D01*
X140635023Y-114086061D01*
X140676895Y-114030128D01*
X140682270Y-114026323D01*
X140714351Y-114004888D01*
X140804888Y-113914351D01*
X140826295Y-113882312D01*
X140879903Y-113837510D01*
X140949227Y-113828801D01*
X141012256Y-113858955D01*
X141017076Y-113863524D01*
X141808597Y-114655045D01*
X141808599Y-114655045D01*
X141808600Y-114655045D01*
X141883178Y-114557855D01*
X142007711Y-114342159D01*
X142007716Y-114342148D01*
X142103026Y-114112049D01*
X142167491Y-113871463D01*
X142200000Y-113624533D01*
X142200000Y-113375466D01*
X142167491Y-113128536D01*
X142103026Y-112887950D01*
X142007716Y-112657851D01*
X142007711Y-112657840D01*
X141883186Y-112442158D01*
X141883180Y-112442150D01*
X141808598Y-112344953D01*
X141808597Y-112344953D01*
X141017076Y-113136474D01*
X140955753Y-113169959D01*
X140886061Y-113164975D01*
X140830128Y-113123103D01*
X140826293Y-113117684D01*
X140804886Y-113085646D01*
X140714356Y-112995116D01*
X140714352Y-112995113D01*
X140714351Y-112995112D01*
X140682310Y-112973703D01*
X140637507Y-112920091D01*
X140628800Y-112850766D01*
X140658955Y-112787739D01*
X140663501Y-112782942D01*
X141455045Y-111991400D01*
X141455044Y-111991399D01*
X141357846Y-111916816D01*
X141357833Y-111916808D01*
X141142154Y-111792285D01*
X140912053Y-111696974D01*
X140791756Y-111664740D01*
X140671463Y-111632508D01*
X140671462Y-111632507D01*
X140671459Y-111632507D01*
X140424535Y-111600000D01*
X140424534Y-111600000D01*
X140175466Y-111600000D01*
X140175465Y-111600000D01*
X139928546Y-111632506D01*
X139928539Y-111632507D01*
X139928536Y-111632508D01*
X139881342Y-111645153D01*
X139687947Y-111696973D01*
X139457846Y-111792284D01*
X139242150Y-111916818D01*
X139242134Y-111916829D01*
X139144953Y-111991398D01*
X139144953Y-111991400D01*
X139936475Y-112782922D01*
X139969960Y-112844245D01*
X139964976Y-112913937D01*
X139923104Y-112969870D01*
X139917688Y-112973703D01*
X139885648Y-112995112D01*
X139885643Y-112995116D01*
X139795116Y-113085643D01*
X139795112Y-113085648D01*
X139773703Y-113117688D01*
X139720090Y-113162491D01*
X139650764Y-113171197D01*
X139587738Y-113141040D01*
X139582922Y-113136475D01*
X138791400Y-112344953D01*
X138791399Y-112344953D01*
X138791398Y-112344953D01*
X138716829Y-112442134D01*
X138716818Y-112442150D01*
X138592284Y-112657846D01*
X138496973Y-112887947D01*
X138432509Y-113128533D01*
X138432506Y-113128546D01*
X138400000Y-113375465D01*
X137895287Y-113375465D01*
X137879217Y-110904577D01*
X137884012Y-110869619D01*
X137888320Y-110854585D01*
X137925708Y-110795570D01*
X137927070Y-110794374D01*
X137981778Y-110766574D01*
X137989399Y-110764869D01*
X138015810Y-110761881D01*
X142557517Y-110737912D01*
X142592471Y-110742748D01*
X142595531Y-110743628D01*
X142607495Y-110747073D01*
X142666470Y-110784532D01*
X142667558Y-110785774D01*
X142695366Y-110840783D01*
X142697095Y-110848630D01*
X142700000Y-110875312D01*
X142700000Y-117453904D01*
X146081877Y-123600050D01*
X148777047Y-128498190D01*
X148777048Y-128498191D01*
X159254816Y-128501819D01*
X159276617Y-128501828D01*
X159276622Y-128501830D01*
X159276622Y-128501828D01*
X159281724Y-128501830D01*
X169995286Y-128506502D01*
X169995286Y-128506501D01*
X169998473Y-121198584D01*
X169999083Y-119800007D01*
X177100000Y-119800007D01*
X177100000Y-119800010D01*
X177100000Y-119800013D01*
X177100000Y-120750000D01*
X178235899Y-120750000D01*
X178302938Y-120769685D01*
X178348693Y-120822489D01*
X178358637Y-120891647D01*
X178357517Y-120898190D01*
X178350000Y-120935982D01*
X178350000Y-121064017D01*
X178357517Y-121101810D01*
X178351288Y-121171401D01*
X178308425Y-121226578D01*
X178242535Y-121249822D01*
X178235899Y-121250000D01*
X177100001Y-121250000D01*
X177100001Y-122199995D01*
X177110493Y-122302694D01*
X177110493Y-122302695D01*
X177110494Y-122302697D01*
X177165641Y-122469119D01*
X177165643Y-122469124D01*
X177257684Y-122618345D01*
X177381654Y-122742315D01*
X177530875Y-122834356D01*
X177530880Y-122834358D01*
X177697299Y-122889504D01*
X177697300Y-122889504D01*
X177697302Y-122889505D01*
X177697309Y-122889506D01*
X177800019Y-122899999D01*
X178749999Y-122899999D01*
X178750000Y-122899998D01*
X178750000Y-121764100D01*
X178769685Y-121697061D01*
X178822489Y-121651306D01*
X178891647Y-121641362D01*
X178898172Y-121642479D01*
X178935981Y-121650000D01*
X179064019Y-121650000D01*
X179101808Y-121642483D01*
X179171399Y-121648710D01*
X179226577Y-121691572D01*
X179249822Y-121757461D01*
X179250000Y-121764100D01*
X179250000Y-122899999D01*
X180199960Y-122899999D01*
X180199972Y-122899999D01*
X180199986Y-122899998D01*
X180302697Y-122889505D01*
X180469119Y-122834358D01*
X180469124Y-122834356D01*
X180618345Y-122742315D01*
X180742315Y-122618345D01*
X180834356Y-122469124D01*
X180834358Y-122469119D01*
X180889505Y-122302697D01*
X180889506Y-122302690D01*
X180899999Y-122199986D01*
X180900000Y-122199973D01*
X180900000Y-121250000D01*
X179764101Y-121250000D01*
X179697062Y-121230315D01*
X179651307Y-121177511D01*
X179641363Y-121108353D01*
X179642483Y-121101810D01*
X179650000Y-121064017D01*
X179650000Y-120935982D01*
X179642483Y-120898190D01*
X179648712Y-120828599D01*
X179691575Y-120773422D01*
X179757465Y-120750178D01*
X179764101Y-120750000D01*
X180899999Y-120750000D01*
X180899999Y-119800032D01*
X180899999Y-119800028D01*
X180899998Y-119800013D01*
X180889505Y-119697302D01*
X180834358Y-119530880D01*
X180834356Y-119530875D01*
X180742315Y-119381654D01*
X180618345Y-119257684D01*
X180469124Y-119165643D01*
X180469119Y-119165641D01*
X180469110Y-119165638D01*
X180302699Y-119110494D01*
X180302694Y-119110493D01*
X180199991Y-119100000D01*
X180199986Y-119100000D01*
X179250000Y-119100000D01*
X179250000Y-120235899D01*
X179230315Y-120302938D01*
X179177511Y-120348693D01*
X179108353Y-120358637D01*
X179101810Y-120357517D01*
X179096541Y-120356469D01*
X179064019Y-120350000D01*
X179064018Y-120350000D01*
X178935982Y-120350000D01*
X178935981Y-120350000D01*
X178898190Y-120357517D01*
X178828599Y-120351288D01*
X178773422Y-120308425D01*
X178750178Y-120242535D01*
X178750000Y-120235899D01*
X178750000Y-119100000D01*
X177800028Y-119100000D01*
X177800012Y-119100001D01*
X177800002Y-119100001D01*
X177800002Y-119100002D01*
X177697304Y-119110493D01*
X177697302Y-119110494D01*
X177530887Y-119165638D01*
X177530879Y-119165641D01*
X177530877Y-119165642D01*
X177530875Y-119165643D01*
X177431394Y-119227003D01*
X177381652Y-119257685D01*
X177257685Y-119381652D01*
X177165641Y-119530879D01*
X177165638Y-119530888D01*
X177110494Y-119697299D01*
X177110493Y-119697304D01*
X177100000Y-119800007D01*
X169999083Y-119800007D01*
X169999084Y-119796810D01*
X169999085Y-119796810D01*
X169999084Y-119796802D01*
X169999650Y-118498696D01*
X170000053Y-117573935D01*
X170000696Y-116100000D01*
X170000695Y-116100000D01*
X165169192Y-116100000D01*
X165169191Y-116099999D01*
X165169191Y-116100000D01*
X165134256Y-116094977D01*
X165109014Y-116087565D01*
X165056269Y-116056269D01*
X165050000Y-116050000D01*
X161132642Y-116050000D01*
X161132640Y-116050000D01*
X161117550Y-116053851D01*
X161117248Y-116052669D01*
X161108390Y-116057502D01*
X161073260Y-116059999D01*
X161073222Y-116060008D01*
X161073185Y-116060005D01*
X161071378Y-116059875D01*
X161013237Y-116040511D01*
X161006728Y-116036328D01*
X160986086Y-116019693D01*
X160318539Y-115352146D01*
X161150000Y-115352146D01*
X161150000Y-115352155D01*
X161150000Y-115550000D01*
X161850000Y-115550000D01*
X162350000Y-115550000D01*
X163850000Y-115550000D01*
X164350000Y-115550000D01*
X165050000Y-115550000D01*
X165050000Y-115352172D01*
X165049999Y-115352155D01*
X165049998Y-115352146D01*
X165049998Y-115352138D01*
X165043598Y-115292628D01*
X165043596Y-115292621D01*
X165043596Y-115292620D01*
X164993354Y-115157913D01*
X164993350Y-115157906D01*
X164907190Y-115042812D01*
X164907187Y-115042809D01*
X164907185Y-115042807D01*
X164849317Y-114999487D01*
X164792093Y-114956649D01*
X164792088Y-114956646D01*
X164792089Y-114956646D01*
X164657377Y-114906402D01*
X164657370Y-114906400D01*
X164597852Y-114900000D01*
X164597844Y-114900000D01*
X164350000Y-114900000D01*
X164350000Y-115550000D01*
X163850000Y-115550000D01*
X163850000Y-114900000D01*
X163602146Y-114900000D01*
X163542628Y-114906400D01*
X163542621Y-114906402D01*
X163407910Y-114956646D01*
X163407907Y-114956648D01*
X163292813Y-115042807D01*
X163292810Y-115042810D01*
X163292805Y-115042816D01*
X163217365Y-115143590D01*
X163205776Y-115156964D01*
X163186406Y-115176332D01*
X163125081Y-115209814D01*
X163055391Y-115204826D01*
X163055173Y-115204744D01*
X163054752Y-115204586D01*
X163054694Y-115204564D01*
X163004960Y-115169828D01*
X162999952Y-115164049D01*
X162999951Y-115164049D01*
X162988125Y-115150401D01*
X162982594Y-115143537D01*
X162907190Y-115042812D01*
X162907187Y-115042809D01*
X162907185Y-115042807D01*
X162849317Y-114999487D01*
X162792093Y-114956649D01*
X162792088Y-114956646D01*
X162792089Y-114956646D01*
X162657377Y-114906402D01*
X162657370Y-114906400D01*
X162597852Y-114900000D01*
X162597844Y-114900000D01*
X162350000Y-114900000D01*
X162350000Y-115550000D01*
X161850000Y-115550000D01*
X161850000Y-114900000D01*
X161602146Y-114900000D01*
X161542628Y-114906400D01*
X161542621Y-114906402D01*
X161407910Y-114956646D01*
X161407907Y-114956648D01*
X161292813Y-115042807D01*
X161292807Y-115042813D01*
X161206648Y-115157907D01*
X161206646Y-115157910D01*
X161156402Y-115292621D01*
X161156400Y-115292628D01*
X161150000Y-115352146D01*
X160318539Y-115352146D01*
X159796015Y-114829622D01*
X159796013Y-114829620D01*
X159796010Y-114829618D01*
X159796006Y-114829615D01*
X159727244Y-114789915D01*
X159727241Y-114789914D01*
X159704690Y-114776893D01*
X159679223Y-114770069D01*
X159653757Y-114763246D01*
X159653756Y-114763245D01*
X159602830Y-114749600D01*
X159602827Y-114749600D01*
X159602826Y-114749600D01*
X159494115Y-114749600D01*
X159462019Y-114745374D01*
X159431553Y-114737210D01*
X159401650Y-114724824D01*
X159390572Y-114718428D01*
X159384041Y-114713416D01*
X159368829Y-114707115D01*
X159360668Y-114706041D01*
X159311404Y-114692841D01*
X159256390Y-114678100D01*
X159256389Y-114678100D01*
X159141833Y-114678100D01*
X159120381Y-114676230D01*
X159111050Y-114674591D01*
X159108220Y-114673190D01*
X159106892Y-114673075D01*
X159102520Y-114671791D01*
X159102803Y-114670824D01*
X159086690Y-114666711D01*
X159086435Y-114667397D01*
X159083587Y-114666334D01*
X159082747Y-114665705D01*
X159080999Y-114665259D01*
X159078292Y-114664023D01*
X159078854Y-114662790D01*
X159066878Y-114653823D01*
X159057123Y-114650955D01*
X159052509Y-114645625D01*
X159048427Y-114643606D01*
X159044512Y-114637077D01*
X159032434Y-114628033D01*
X159031407Y-114628924D01*
X159030492Y-114627868D01*
X159029597Y-114625909D01*
X159027684Y-114624477D01*
X159025858Y-114622038D01*
X159027327Y-114620937D01*
X159023077Y-114611630D01*
X159011390Y-114598132D01*
X159001488Y-114564357D01*
X159001468Y-114564312D01*
X159001461Y-114564263D01*
X159001255Y-114562826D01*
X159000000Y-114545230D01*
X159000000Y-114463929D01*
X159005023Y-114428993D01*
X159005206Y-114428372D01*
X159009427Y-114413994D01*
X159047172Y-114355244D01*
X159048541Y-114354057D01*
X159103420Y-114326577D01*
X159110979Y-114324933D01*
X159137332Y-114322100D01*
X159261450Y-114322100D01*
X159268010Y-114321117D01*
X159270939Y-114320925D01*
X159271883Y-114320864D01*
X159279976Y-114320600D01*
X160403580Y-114320600D01*
X160438512Y-114325621D01*
X160460708Y-114332139D01*
X160509729Y-114359862D01*
X160513432Y-114363269D01*
X160519048Y-114368436D01*
X160522772Y-114372008D01*
X160631283Y-114480519D01*
X160631976Y-114481019D01*
X160634493Y-114482373D01*
X160742759Y-114544880D01*
X160742761Y-114544880D01*
X160768216Y-114559577D01*
X160920943Y-114600500D01*
X160920945Y-114600500D01*
X161079055Y-114600500D01*
X161079057Y-114600500D01*
X161231784Y-114559577D01*
X161368716Y-114480520D01*
X161399715Y-114449520D01*
X161427964Y-114428373D01*
X161441688Y-114420879D01*
X161509946Y-114406028D01*
X161511756Y-114406157D01*
X161569953Y-114425523D01*
X161576471Y-114429712D01*
X161597106Y-114446342D01*
X161631283Y-114480519D01*
X161631976Y-114481019D01*
X161634493Y-114482373D01*
X161742759Y-114544880D01*
X161742761Y-114544880D01*
X161768216Y-114559577D01*
X161920943Y-114600500D01*
X161920945Y-114600500D01*
X162079055Y-114600500D01*
X162079057Y-114600500D01*
X162231784Y-114559577D01*
X162368716Y-114480520D01*
X162399715Y-114449520D01*
X162427964Y-114428373D01*
X162441688Y-114420879D01*
X162509946Y-114406028D01*
X162511756Y-114406157D01*
X162569953Y-114425523D01*
X162576471Y-114429712D01*
X162597106Y-114446342D01*
X162631283Y-114480519D01*
X162631976Y-114481019D01*
X162634493Y-114482373D01*
X162742759Y-114544880D01*
X162742761Y-114544880D01*
X162768216Y-114559577D01*
X162920943Y-114600500D01*
X162920945Y-114600500D01*
X163079055Y-114600500D01*
X163079057Y-114600500D01*
X163231784Y-114559577D01*
X163368716Y-114480520D01*
X163480520Y-114368716D01*
X163480525Y-114368707D01*
X163483293Y-114365100D01*
X163496099Y-114350840D01*
X163510925Y-114336705D01*
X163567257Y-114305950D01*
X163569716Y-114305353D01*
X163577384Y-114303494D01*
X163606612Y-114300000D01*
X170299055Y-114300000D01*
X170299056Y-114300000D01*
X170299226Y-113828440D01*
X170300489Y-113810846D01*
X170300914Y-113807890D01*
X170305500Y-113776000D01*
X170305500Y-110924000D01*
X170301011Y-110882254D01*
X170300301Y-110868962D01*
X170300307Y-110854587D01*
X170300942Y-109106142D01*
X170291843Y-109106132D01*
X161404200Y-109097034D01*
X161404198Y-109097035D01*
X161282017Y-109218966D01*
X161257558Y-109237919D01*
X161256882Y-109238318D01*
X161225142Y-109256624D01*
X161225298Y-109257001D01*
X161185421Y-109280591D01*
X161185166Y-109280655D01*
X161184289Y-109281253D01*
X161111112Y-109323501D01*
X161111100Y-109323509D01*
X161065898Y-109368714D01*
X161023504Y-109411108D01*
X160666898Y-109767715D01*
X160354140Y-110080472D01*
X160328330Y-110100252D01*
X160327071Y-110100976D01*
X160314604Y-110107784D01*
X160309064Y-110111344D01*
X160306430Y-110112861D01*
X160275304Y-110120372D01*
X160244562Y-110129400D01*
X160041830Y-110129400D01*
X160006889Y-110124375D01*
X159991890Y-110119970D01*
X159933144Y-110082227D01*
X159931957Y-110080858D01*
X159904477Y-110025983D01*
X159902832Y-110018421D01*
X159900000Y-109992068D01*
X159900000Y-109869191D01*
X159905022Y-109834258D01*
X159912434Y-109809013D01*
X159943728Y-109756271D01*
X160376495Y-109323505D01*
X160900068Y-108799932D01*
X160900024Y-108347852D01*
X161350000Y-108347852D01*
X161356400Y-108407370D01*
X161356402Y-108407377D01*
X161406646Y-108542088D01*
X161406648Y-108542091D01*
X161492807Y-108657185D01*
X161492809Y-108657187D01*
X161492812Y-108657190D01*
X161607906Y-108743350D01*
X161607913Y-108743354D01*
X161742620Y-108793596D01*
X161742627Y-108793598D01*
X161749468Y-108794333D01*
X161802138Y-108799998D01*
X161802155Y-108799999D01*
X161802172Y-108800000D01*
X162050000Y-108800000D01*
X162550000Y-108800000D01*
X162797828Y-108800000D01*
X162797836Y-108800000D01*
X162797847Y-108799999D01*
X162833560Y-108796158D01*
X162857372Y-108793598D01*
X162857379Y-108793596D01*
X162992086Y-108743354D01*
X162992093Y-108743350D01*
X163107187Y-108657190D01*
X163107190Y-108657187D01*
X163193350Y-108542093D01*
X163193354Y-108542086D01*
X163243596Y-108407379D01*
X163243598Y-108407372D01*
X163245069Y-108393689D01*
X163249998Y-108347860D01*
X163250000Y-108347827D01*
X163250000Y-108150000D01*
X162550000Y-108150000D01*
X162550000Y-108800000D01*
X162050000Y-108800000D01*
X162050000Y-108150000D01*
X161350000Y-108150000D01*
X161350000Y-108347852D01*
X160900024Y-108347852D01*
X160899951Y-107607881D01*
X160904970Y-107572954D01*
X160909375Y-107557950D01*
X160947131Y-107499185D01*
X160953838Y-107493372D01*
X161002957Y-107467300D01*
X161031784Y-107459577D01*
X161090650Y-107425589D01*
X161109666Y-107416667D01*
X161115020Y-107414688D01*
X161120257Y-107413285D01*
X161122201Y-107412035D01*
X161131171Y-107408721D01*
X161135075Y-107408453D01*
X161156549Y-107402291D01*
X161157809Y-107402110D01*
X161158040Y-107402077D01*
X161175617Y-107400822D01*
X161208163Y-107400818D01*
X161243101Y-107405839D01*
X161250376Y-107407975D01*
X161258101Y-107410243D01*
X161273088Y-107419869D01*
X161290156Y-107424871D01*
X161316842Y-107447970D01*
X161318026Y-107449337D01*
X161345518Y-107504219D01*
X161347164Y-107511783D01*
X161350000Y-107538150D01*
X161350000Y-107650000D01*
X163250000Y-107650000D01*
X163250000Y-107542438D01*
X163250617Y-107538150D01*
X163255023Y-107507502D01*
X163259427Y-107492504D01*
X163297190Y-107433737D01*
X163297201Y-107433727D01*
X163298563Y-107432546D01*
X163353401Y-107405088D01*
X163360951Y-107403445D01*
X163387301Y-107400608D01*
X173858166Y-107399598D01*
X173893095Y-107404617D01*
G37*
%TD.AperFunction*%
%TD*%
%TA.AperFunction,Conductor*%
%TO.N,GND*%
G36*
X180385247Y-88604870D02*
G01*
X180406985Y-88613874D01*
X180427745Y-88627745D01*
X183372254Y-91572254D01*
X183386125Y-91593014D01*
X183395128Y-91614747D01*
X183400000Y-91639238D01*
X183400000Y-134360761D01*
X183395128Y-134385250D01*
X183386128Y-134406981D01*
X183386127Y-134406983D01*
X183372254Y-134427745D01*
X180427745Y-137372254D01*
X180406983Y-137386126D01*
X180385250Y-137395128D01*
X180360761Y-137400000D01*
X137639239Y-137400000D01*
X137614748Y-137395128D01*
X137593016Y-137386126D01*
X137572254Y-137372254D01*
X134627745Y-134427745D01*
X134613874Y-134406985D01*
X134604870Y-134385247D01*
X134600000Y-134360761D01*
X134600000Y-133881976D01*
X136199500Y-133881976D01*
X136199500Y-134118022D01*
X136230304Y-134352003D01*
X136230306Y-134352014D01*
X136230310Y-134352031D01*
X136248186Y-134418745D01*
X136291393Y-134579993D01*
X136381716Y-134798050D01*
X136499728Y-135002452D01*
X136571567Y-135096074D01*
X136571566Y-135096074D01*
X136643399Y-135189688D01*
X136643402Y-135189692D01*
X136643408Y-135189699D01*
X136810301Y-135356592D01*
X136997550Y-135500273D01*
X137005998Y-135505150D01*
X137021758Y-135514250D01*
X137021759Y-135514250D01*
X137201949Y-135618283D01*
X137420006Y-135708606D01*
X137647977Y-135769691D01*
X137647991Y-135769694D01*
X137792899Y-135788771D01*
X137881989Y-135800500D01*
X138118011Y-135800500D01*
X138118013Y-135800500D01*
X138118015Y-135800499D01*
X138262924Y-135781421D01*
X138347863Y-135770239D01*
X138349844Y-135770109D01*
X138350134Y-135770054D01*
X138351997Y-135769752D01*
X138354688Y-135768985D01*
X138354813Y-135768999D01*
X138355684Y-135768710D01*
X138431566Y-135748377D01*
X138579993Y-135708606D01*
X138798049Y-135618284D01*
X139002450Y-135500273D01*
X139189699Y-135356592D01*
X139356592Y-135189699D01*
X139500273Y-135002450D01*
X139618284Y-134798049D01*
X139708606Y-134579993D01*
X139744085Y-134447584D01*
X139769691Y-134352022D01*
X139769694Y-134352008D01*
X139800226Y-134120085D01*
X139800396Y-134119063D01*
X139800500Y-134118015D01*
X139800500Y-133881983D01*
X139800395Y-133880932D01*
X139800223Y-133879889D01*
X139769694Y-133647991D01*
X139769691Y-133647977D01*
X139708606Y-133420006D01*
X139618283Y-133201949D01*
X139500271Y-132997547D01*
X139493144Y-132988259D01*
X139459695Y-132944666D01*
X139459695Y-132944665D01*
X139356600Y-132810311D01*
X139356597Y-132810308D01*
X139356592Y-132810301D01*
X139189699Y-132643408D01*
X139189692Y-132643402D01*
X139189688Y-132643399D01*
X139096074Y-132571566D01*
X139096074Y-132571567D01*
X139002452Y-132499728D01*
X138798050Y-132381716D01*
X138579993Y-132291393D01*
X138579994Y-132291393D01*
X138579991Y-132291392D01*
X138352031Y-132230310D01*
X138352014Y-132230306D01*
X138352003Y-132230304D01*
X138118022Y-132199500D01*
X138118016Y-132199500D01*
X138118011Y-132199500D01*
X137881989Y-132199500D01*
X137881983Y-132199500D01*
X137881976Y-132199500D01*
X137647995Y-132230304D01*
X137647984Y-132230306D01*
X137647967Y-132230310D01*
X137420008Y-132291392D01*
X137420007Y-132291392D01*
X137201950Y-132381715D01*
X136997545Y-132499728D01*
X136997540Y-132499732D01*
X136810312Y-132643398D01*
X136810302Y-132643407D01*
X136643407Y-132810302D01*
X136643398Y-132810312D01*
X136499732Y-132997540D01*
X136499728Y-132997545D01*
X136381715Y-133201950D01*
X136291392Y-133420007D01*
X136291392Y-133420008D01*
X136230310Y-133647967D01*
X136230306Y-133647984D01*
X136230304Y-133647995D01*
X136199500Y-133881976D01*
X134600000Y-133881976D01*
X134600000Y-110906559D01*
X137573723Y-110906559D01*
X137573723Y-110906564D01*
X137589793Y-113377452D01*
X137589910Y-113395490D01*
X137611596Y-116730009D01*
X137616577Y-117495811D01*
X137616577Y-117495823D01*
X137618711Y-117529917D01*
X137618714Y-117529950D01*
X137621988Y-117557460D01*
X137627921Y-117591116D01*
X137627921Y-117591117D01*
X137634145Y-117617639D01*
X137643808Y-117650439D01*
X137653116Y-117676545D01*
X137666378Y-117708040D01*
X137666383Y-117708051D01*
X143486142Y-129618524D01*
X143543674Y-129736266D01*
X145715715Y-134181473D01*
X145789253Y-134331972D01*
X146384073Y-135549306D01*
X146384076Y-135549311D01*
X146404819Y-135585322D01*
X146404820Y-135585324D01*
X146423562Y-135613276D01*
X146423572Y-135613290D01*
X146423575Y-135613294D01*
X146449025Y-135646169D01*
X146458466Y-135656785D01*
X146523220Y-135711813D01*
X146580920Y-135748379D01*
X146658325Y-135783442D01*
X146674174Y-135788099D01*
X146716756Y-135797371D01*
X146751686Y-135802401D01*
X146795162Y-135805520D01*
X173862648Y-135811540D01*
X173895326Y-135809795D01*
X173921696Y-135806964D01*
X173953985Y-135801736D01*
X173961561Y-135800089D01*
X174033401Y-135774752D01*
X174088259Y-135747294D01*
X174088264Y-135747290D01*
X174088267Y-135747289D01*
X174109655Y-135732997D01*
X174151588Y-135704978D01*
X174152952Y-135703796D01*
X174209893Y-135638079D01*
X174247665Y-135579300D01*
X174247669Y-135579290D01*
X174247671Y-135579288D01*
X174283780Y-135500213D01*
X174283780Y-135500210D01*
X174283784Y-135500203D01*
X174288187Y-135485206D01*
X174297451Y-135442616D01*
X174302473Y-135407681D01*
X174303329Y-135389949D01*
X174305579Y-135384868D01*
X174305579Y-135364206D01*
X174305580Y-135364206D01*
X174305560Y-133881976D01*
X178199500Y-133881976D01*
X178199500Y-134118022D01*
X178230304Y-134352003D01*
X178230306Y-134352014D01*
X178230310Y-134352031D01*
X178248186Y-134418745D01*
X178291393Y-134579993D01*
X178381716Y-134798050D01*
X178499728Y-135002452D01*
X178571567Y-135096074D01*
X178571566Y-135096074D01*
X178643399Y-135189688D01*
X178643402Y-135189692D01*
X178643408Y-135189699D01*
X178810301Y-135356592D01*
X178997550Y-135500273D01*
X179005998Y-135505150D01*
X179021758Y-135514250D01*
X179021759Y-135514250D01*
X179201949Y-135618283D01*
X179420006Y-135708606D01*
X179647977Y-135769691D01*
X179647991Y-135769694D01*
X179792899Y-135788771D01*
X179881989Y-135800500D01*
X180118011Y-135800500D01*
X180118013Y-135800500D01*
X180118015Y-135800499D01*
X180262924Y-135781421D01*
X180347863Y-135770239D01*
X180349844Y-135770109D01*
X180350134Y-135770054D01*
X180351997Y-135769752D01*
X180354688Y-135768985D01*
X180354813Y-135768999D01*
X180355684Y-135768710D01*
X180431566Y-135748377D01*
X180579993Y-135708606D01*
X180798049Y-135618284D01*
X181002450Y-135500273D01*
X181189699Y-135356592D01*
X181356592Y-135189699D01*
X181500273Y-135002450D01*
X181618284Y-134798049D01*
X181708606Y-134579993D01*
X181744085Y-134447584D01*
X181769691Y-134352022D01*
X181769694Y-134352008D01*
X181800226Y-134120085D01*
X181800396Y-134119063D01*
X181800500Y-134118015D01*
X181800500Y-133881983D01*
X181800395Y-133880932D01*
X181800223Y-133879889D01*
X181769694Y-133647991D01*
X181769691Y-133647977D01*
X181708606Y-133420006D01*
X181618283Y-133201949D01*
X181500271Y-132997547D01*
X181493144Y-132988259D01*
X181459695Y-132944666D01*
X181459695Y-132944665D01*
X181356600Y-132810311D01*
X181356597Y-132810308D01*
X181356592Y-132810301D01*
X181189699Y-132643408D01*
X181189692Y-132643402D01*
X181189688Y-132643399D01*
X181096074Y-132571566D01*
X181096074Y-132571567D01*
X181002452Y-132499728D01*
X180798050Y-132381716D01*
X180579993Y-132291393D01*
X180579994Y-132291393D01*
X180579991Y-132291392D01*
X180352031Y-132230310D01*
X180352014Y-132230306D01*
X180352003Y-132230304D01*
X180118022Y-132199500D01*
X180118016Y-132199500D01*
X180118011Y-132199500D01*
X179881989Y-132199500D01*
X179881983Y-132199500D01*
X179881976Y-132199500D01*
X179647995Y-132230304D01*
X179647984Y-132230306D01*
X179647967Y-132230310D01*
X179420008Y-132291392D01*
X179420007Y-132291392D01*
X179201950Y-132381715D01*
X178997545Y-132499728D01*
X178997540Y-132499732D01*
X178810312Y-132643398D01*
X178810302Y-132643407D01*
X178643407Y-132810302D01*
X178643398Y-132810312D01*
X178499732Y-132997540D01*
X178499728Y-132997545D01*
X178381715Y-133201950D01*
X178291392Y-133420007D01*
X178291392Y-133420008D01*
X178230310Y-133647967D01*
X178230306Y-133647984D01*
X178230304Y-133647995D01*
X178199500Y-133881976D01*
X174305560Y-133881976D01*
X174305424Y-123969542D01*
X174324169Y-123924290D01*
X174369422Y-123905544D01*
X181462673Y-123905447D01*
X181495341Y-123903695D01*
X181521707Y-123900859D01*
X181553998Y-123895624D01*
X181561557Y-123893979D01*
X181633397Y-123868624D01*
X181688261Y-123841147D01*
X181751604Y-123798779D01*
X181751609Y-123798785D01*
X181751644Y-123798755D01*
X181751648Y-123798749D01*
X181751684Y-123798726D01*
X181752713Y-123797832D01*
X181752732Y-123797820D01*
X181754468Y-123796332D01*
X181754573Y-123796228D01*
X181756077Y-123794913D01*
X181756083Y-123794910D01*
X181756260Y-123794754D01*
X181762728Y-123789141D01*
X181764321Y-123784905D01*
X181767101Y-123781235D01*
X181769836Y-123777870D01*
X181809848Y-123731940D01*
X181847591Y-123673197D01*
X181883689Y-123594150D01*
X181888094Y-123579152D01*
X181897363Y-123536556D01*
X181902388Y-123501621D01*
X181905150Y-123472738D01*
X181905149Y-123472737D01*
X181905072Y-123469021D01*
X181905392Y-123469014D01*
X181905195Y-123461801D01*
X181905499Y-123458132D01*
X181905500Y-123458111D01*
X181905500Y-118636079D01*
X181905402Y-118634263D01*
X181903745Y-118603384D01*
X181900904Y-118576991D01*
X181899059Y-118565618D01*
X181895665Y-118544695D01*
X181895659Y-118544665D01*
X181895659Y-118544662D01*
X181894008Y-118537083D01*
X181868658Y-118465289D01*
X181841193Y-118410457D01*
X181798822Y-118347098D01*
X181798815Y-118347090D01*
X181798813Y-118347087D01*
X181797644Y-118345740D01*
X181797638Y-118345733D01*
X181731949Y-118288860D01*
X181698773Y-118267552D01*
X181673167Y-118251107D01*
X181673158Y-118251102D01*
X181594059Y-118215005D01*
X181589517Y-118213672D01*
X181579054Y-118210604D01*
X181579048Y-118210602D01*
X181579039Y-118210600D01*
X181536478Y-118201355D01*
X181536453Y-118201350D01*
X181501531Y-118196339D01*
X181501521Y-118196338D01*
X181460855Y-118193442D01*
X181458039Y-118193242D01*
X181458033Y-118193242D01*
X174370063Y-118195613D01*
X174324802Y-118176883D01*
X174306042Y-118131635D01*
X174305293Y-115888530D01*
X177299500Y-115888530D01*
X177299500Y-116111468D01*
X177328593Y-116332452D01*
X177328595Y-116332463D01*
X177328599Y-116332480D01*
X177386288Y-116547778D01*
X177386288Y-116547779D01*
X177471593Y-116753724D01*
X177514299Y-116827690D01*
X177514300Y-116827693D01*
X177583045Y-116946763D01*
X177583048Y-116946767D01*
X177583052Y-116946774D01*
X177718753Y-117123624D01*
X177876376Y-117281247D01*
X178053226Y-117416948D01*
X178246274Y-117528405D01*
X178246275Y-117528405D01*
X178246278Y-117528407D01*
X178246280Y-117528408D01*
X178247209Y-117528944D01*
X178247211Y-117528946D01*
X178247493Y-117529109D01*
X178250141Y-117530008D01*
X178345333Y-117569437D01*
X178452218Y-117613710D01*
X178667528Y-117671402D01*
X178667542Y-117671405D01*
X178667545Y-117671405D01*
X178667548Y-117671406D01*
X178667547Y-117671406D01*
X178804383Y-117689420D01*
X178804394Y-117689421D01*
X178804401Y-117689422D01*
X178888539Y-117700499D01*
X178888541Y-117700500D01*
X178888543Y-117700500D01*
X179111457Y-117700500D01*
X179288165Y-117677236D01*
X179328312Y-117671950D01*
X179330292Y-117671820D01*
X179330583Y-117671765D01*
X179332446Y-117671463D01*
X179335137Y-117670696D01*
X179335262Y-117670710D01*
X179336133Y-117670421D01*
X179410721Y-117650435D01*
X179547781Y-117613710D01*
X179663241Y-117565885D01*
X179663242Y-117565885D01*
X179753718Y-117528409D01*
X179753718Y-117528408D01*
X179753726Y-117528405D01*
X179946774Y-117416948D01*
X180123624Y-117281247D01*
X180281247Y-117123624D01*
X180416948Y-116946774D01*
X180528405Y-116753726D01*
X180613710Y-116547781D01*
X180656560Y-116387862D01*
X180671402Y-116332471D01*
X180671405Y-116332457D01*
X180700226Y-116113531D01*
X180700396Y-116112509D01*
X180700500Y-116111461D01*
X180700500Y-115888537D01*
X180700395Y-115887477D01*
X180700223Y-115886446D01*
X180697023Y-115862137D01*
X180689422Y-115804401D01*
X180680662Y-115737862D01*
X180671406Y-115667547D01*
X180671403Y-115667535D01*
X180671402Y-115667528D01*
X180613710Y-115452218D01*
X180528407Y-115246278D01*
X180528406Y-115246275D01*
X180517413Y-115227234D01*
X180517413Y-115227233D01*
X180416954Y-115053236D01*
X180416955Y-115053236D01*
X180416950Y-115053229D01*
X180416948Y-115053226D01*
X180281247Y-114876376D01*
X180123624Y-114718753D01*
X179946774Y-114583052D01*
X179946775Y-114583052D01*
X179946773Y-114583051D01*
X179935715Y-114576667D01*
X179909553Y-114561562D01*
X179846675Y-114525259D01*
X179753725Y-114471594D01*
X179753718Y-114471590D01*
X179547779Y-114386288D01*
X179332480Y-114328599D01*
X179332463Y-114328595D01*
X179332452Y-114328593D01*
X179111468Y-114299500D01*
X179111462Y-114299500D01*
X179111457Y-114299500D01*
X178888543Y-114299500D01*
X178888537Y-114299500D01*
X178888530Y-114299500D01*
X178667546Y-114328593D01*
X178667535Y-114328595D01*
X178667518Y-114328599D01*
X178452220Y-114386288D01*
X178452218Y-114386288D01*
X178246282Y-114471589D01*
X178153323Y-114525259D01*
X178129676Y-114533286D01*
X178106354Y-114536356D01*
X178081435Y-114534722D01*
X178061949Y-114529500D01*
X178061947Y-114529500D01*
X178061943Y-114529500D01*
X177938057Y-114529500D01*
X177938052Y-114529500D01*
X177938047Y-114529500D01*
X177818397Y-114561562D01*
X177711103Y-114623508D01*
X177623508Y-114711103D01*
X177561562Y-114818396D01*
X177561562Y-114818397D01*
X177529500Y-114938047D01*
X177529500Y-115061949D01*
X177534722Y-115081435D01*
X177536356Y-115106354D01*
X177533286Y-115129676D01*
X177525259Y-115153323D01*
X177471589Y-115246282D01*
X177386288Y-115452218D01*
X177386288Y-115452220D01*
X177328599Y-115667518D01*
X177328595Y-115667535D01*
X177328593Y-115667546D01*
X177299500Y-115888530D01*
X174305293Y-115888530D01*
X174304748Y-114258531D01*
X174304789Y-114256244D01*
X174305500Y-114236370D01*
X174305500Y-110888530D01*
X177299500Y-110888530D01*
X177299500Y-111111468D01*
X177328593Y-111332452D01*
X177328595Y-111332463D01*
X177328599Y-111332480D01*
X177386288Y-111547778D01*
X177386288Y-111547780D01*
X177471589Y-111753715D01*
X177471590Y-111753718D01*
X177471592Y-111753721D01*
X177583049Y-111946769D01*
X177583051Y-111946773D01*
X177583053Y-111946775D01*
X177602094Y-111971592D01*
X177602095Y-111971592D01*
X177635711Y-112015401D01*
X177635716Y-112015409D01*
X177636793Y-112016813D01*
X177643413Y-112027460D01*
X177648878Y-112038542D01*
X177653297Y-112050284D01*
X177661093Y-112079382D01*
X177661094Y-112079382D01*
X177661663Y-112081505D01*
X177661664Y-112081506D01*
X177723606Y-112188793D01*
X177811207Y-112276394D01*
X177918494Y-112338336D01*
X177949719Y-112346702D01*
X177961449Y-112351117D01*
X177972538Y-112356585D01*
X177983193Y-112363210D01*
X178053226Y-112416948D01*
X178246274Y-112528405D01*
X178246275Y-112528405D01*
X178246278Y-112528407D01*
X178246280Y-112528408D01*
X178247209Y-112528944D01*
X178247211Y-112528946D01*
X178247493Y-112529109D01*
X178250141Y-112530008D01*
X178388316Y-112587241D01*
X178452218Y-112613710D01*
X178667528Y-112671402D01*
X178667542Y-112671405D01*
X178667545Y-112671405D01*
X178667548Y-112671406D01*
X178667547Y-112671406D01*
X178804383Y-112689420D01*
X178804394Y-112689421D01*
X178804401Y-112689422D01*
X178888539Y-112700499D01*
X178888541Y-112700500D01*
X179111457Y-112700500D01*
X179111459Y-112700500D01*
X179111461Y-112700499D01*
X179248321Y-112682481D01*
X179328310Y-112671950D01*
X179330287Y-112671821D01*
X179330583Y-112671765D01*
X179332446Y-112671463D01*
X179335137Y-112670696D01*
X179335262Y-112670710D01*
X179336133Y-112670421D01*
X179382826Y-112657909D01*
X179547781Y-112613710D01*
X179753721Y-112528407D01*
X179753720Y-112528407D01*
X179753726Y-112528405D01*
X179753734Y-112528399D01*
X179754635Y-112528027D01*
X179754637Y-112528026D01*
X179781037Y-112517090D01*
X179793434Y-112505478D01*
X179946774Y-112416948D01*
X180123624Y-112281247D01*
X180281247Y-112123624D01*
X180416948Y-111946774D01*
X180528405Y-111753726D01*
X180613710Y-111547781D01*
X180635028Y-111468220D01*
X180671402Y-111332471D01*
X180671405Y-111332457D01*
X180690454Y-111187762D01*
X180700500Y-111111457D01*
X180700500Y-110888543D01*
X180686484Y-110782080D01*
X180671405Y-110667542D01*
X180671402Y-110667528D01*
X180613710Y-110452218D01*
X180528407Y-110246278D01*
X180513143Y-110219841D01*
X180484657Y-110170499D01*
X180484657Y-110170498D01*
X180416954Y-110053235D01*
X180416949Y-110053228D01*
X180416948Y-110053226D01*
X180281247Y-109876376D01*
X180123624Y-109718753D01*
X179955460Y-109589717D01*
X179946773Y-109583051D01*
X179938421Y-109578229D01*
X179930069Y-109573407D01*
X179753721Y-109471592D01*
X179753718Y-109471590D01*
X179753715Y-109471589D01*
X179547779Y-109386288D01*
X179332480Y-109328599D01*
X179332463Y-109328595D01*
X179332452Y-109328593D01*
X179111468Y-109299500D01*
X179111462Y-109299500D01*
X179111457Y-109299500D01*
X178888543Y-109299500D01*
X178888537Y-109299500D01*
X178888530Y-109299500D01*
X178667546Y-109328593D01*
X178667535Y-109328595D01*
X178667518Y-109328599D01*
X178452220Y-109386288D01*
X178452218Y-109386288D01*
X178246283Y-109471589D01*
X178053230Y-109583048D01*
X177876385Y-109718745D01*
X177876377Y-109718752D01*
X177718752Y-109876377D01*
X177718745Y-109876385D01*
X177583048Y-110053230D01*
X177471589Y-110246283D01*
X177386288Y-110452218D01*
X177386288Y-110452220D01*
X177328599Y-110667518D01*
X177328595Y-110667535D01*
X177328593Y-110667546D01*
X177299500Y-110888530D01*
X174305500Y-110888530D01*
X174305500Y-107536935D01*
X174305500Y-107536933D01*
X174303747Y-107504257D01*
X174300910Y-107477885D01*
X174295674Y-107445588D01*
X174294027Y-107438021D01*
X174268713Y-107366269D01*
X174241285Y-107311464D01*
X174241283Y-107311460D01*
X174198889Y-107248036D01*
X174198888Y-107248035D01*
X174198886Y-107248032D01*
X174197671Y-107246631D01*
X174197667Y-107246628D01*
X174197664Y-107246624D01*
X174187254Y-107237580D01*
X174183689Y-107230441D01*
X174150617Y-107201768D01*
X174140363Y-107192878D01*
X174126450Y-107181514D01*
X174126444Y-107181510D01*
X174094319Y-107165164D01*
X174094319Y-107165165D01*
X174088055Y-107161977D01*
X174088262Y-107161657D01*
X174073246Y-107152008D01*
X174026604Y-107130711D01*
X174026387Y-107130601D01*
X174026382Y-107130599D01*
X174025931Y-107130370D01*
X174024809Y-107129890D01*
X173994146Y-107115891D01*
X173994143Y-107115890D01*
X173994139Y-107115888D01*
X173979139Y-107111485D01*
X173979140Y-107111485D01*
X173979136Y-107111484D01*
X173979138Y-107111484D01*
X173949004Y-107104932D01*
X173936546Y-107102223D01*
X173936540Y-107102222D01*
X173936535Y-107102221D01*
X173936529Y-107102220D01*
X173901624Y-107097204D01*
X173901610Y-107097203D01*
X173858146Y-107094098D01*
X173858137Y-107094098D01*
X173849063Y-107094098D01*
X163387273Y-107095107D01*
X163354592Y-107096863D01*
X163328269Y-107099696D01*
X163328234Y-107099701D01*
X163295998Y-107104930D01*
X163288439Y-107106575D01*
X163216620Y-107131918D01*
X163216614Y-107131921D01*
X163161775Y-107159380D01*
X163098383Y-107201768D01*
X163098381Y-107201770D01*
X163097003Y-107202965D01*
X163096999Y-107202969D01*
X163040349Y-107268386D01*
X162996553Y-107290325D01*
X162950072Y-107274869D01*
X162946728Y-107271757D01*
X162922765Y-107247794D01*
X162819991Y-107202415D01*
X162794865Y-107199500D01*
X162794864Y-107199500D01*
X161805138Y-107199500D01*
X161805095Y-107199505D01*
X161780006Y-107202415D01*
X161702927Y-107236449D01*
X161677237Y-107247792D01*
X161677235Y-107247793D01*
X161654863Y-107270166D01*
X161609608Y-107288910D01*
X161564353Y-107270164D01*
X161556397Y-107260469D01*
X161548952Y-107249328D01*
X161547767Y-107247960D01*
X161537384Y-107237580D01*
X161516781Y-107216983D01*
X161490095Y-107193884D01*
X161476177Y-107182535D01*
X161476176Y-107182534D01*
X161444191Y-107166292D01*
X161442072Y-107165165D01*
X161438099Y-107162956D01*
X161438186Y-107162823D01*
X161423199Y-107153197D01*
X161408352Y-107146419D01*
X161406134Y-107145186D01*
X161392363Y-107127831D01*
X161377269Y-107111623D01*
X161377126Y-107108626D01*
X161375688Y-107106814D01*
X161376643Y-107098516D01*
X161375412Y-107072684D01*
X161400499Y-106979061D01*
X161400500Y-106979054D01*
X161400500Y-106820945D01*
X161400498Y-106820936D01*
X161380843Y-106747584D01*
X161359577Y-106668216D01*
X161280520Y-106531284D01*
X161168716Y-106419480D01*
X161124001Y-106393664D01*
X161072504Y-106363932D01*
X161072501Y-106363930D01*
X161031784Y-106340423D01*
X161031783Y-106340422D01*
X161031780Y-106340421D01*
X161031781Y-106340421D01*
X160984848Y-106327846D01*
X160981035Y-106326276D01*
X160978630Y-106323881D01*
X160966436Y-106317868D01*
X160958706Y-106311936D01*
X160947985Y-106293368D01*
X160946324Y-106291714D01*
X160946321Y-106290485D01*
X160934217Y-106269521D01*
X160934119Y-106268777D01*
X160942139Y-106228430D01*
X160943628Y-106225849D01*
X160953798Y-106212593D01*
X161277861Y-105888530D01*
X177299500Y-105888530D01*
X177299500Y-106111468D01*
X177328593Y-106332452D01*
X177328595Y-106332463D01*
X177328599Y-106332480D01*
X177386288Y-106547778D01*
X177386288Y-106547779D01*
X177471591Y-106753719D01*
X177471627Y-106753791D01*
X177471865Y-106754194D01*
X177583052Y-106946774D01*
X177718753Y-107123624D01*
X177876376Y-107281247D01*
X178053226Y-107416948D01*
X178246274Y-107528405D01*
X178246275Y-107528405D01*
X178246278Y-107528407D01*
X178246280Y-107528408D01*
X178247209Y-107528944D01*
X178247211Y-107528946D01*
X178247493Y-107529109D01*
X178250141Y-107530008D01*
X178388316Y-107587241D01*
X178452218Y-107613710D01*
X178667528Y-107671402D01*
X178667542Y-107671405D01*
X178667545Y-107671405D01*
X178667548Y-107671406D01*
X178667547Y-107671406D01*
X178804383Y-107689420D01*
X178804394Y-107689421D01*
X178804401Y-107689422D01*
X178888539Y-107700499D01*
X178888541Y-107700500D01*
X179111457Y-107700500D01*
X179111459Y-107700500D01*
X179111461Y-107700499D01*
X179248321Y-107682481D01*
X179328310Y-107671950D01*
X179330287Y-107671821D01*
X179330583Y-107671765D01*
X179332446Y-107671463D01*
X179335137Y-107670696D01*
X179335262Y-107670710D01*
X179336133Y-107670421D01*
X179382826Y-107657909D01*
X179547781Y-107613710D01*
X179753721Y-107528407D01*
X179753720Y-107528407D01*
X179753726Y-107528405D01*
X179753734Y-107528399D01*
X179754635Y-107528027D01*
X179754637Y-107528026D01*
X179781037Y-107517090D01*
X179793434Y-107505478D01*
X179946774Y-107416948D01*
X180123624Y-107281247D01*
X180281247Y-107123624D01*
X180416948Y-106946774D01*
X180528405Y-106753726D01*
X180613710Y-106547781D01*
X180636025Y-106464500D01*
X180671402Y-106332471D01*
X180671405Y-106332457D01*
X180700226Y-106113531D01*
X180700396Y-106112509D01*
X180700500Y-106111461D01*
X180700500Y-105888537D01*
X180700395Y-105887486D01*
X180700226Y-105886463D01*
X180671405Y-105667542D01*
X180671402Y-105667528D01*
X180613710Y-105452218D01*
X180528407Y-105246278D01*
X180417903Y-105054881D01*
X180417413Y-105053969D01*
X180416950Y-105053230D01*
X180416948Y-105053226D01*
X180281247Y-104876376D01*
X180123624Y-104718753D01*
X179946774Y-104583052D01*
X179754194Y-104471865D01*
X179753791Y-104471627D01*
X179753719Y-104471591D01*
X179547779Y-104386288D01*
X179332480Y-104328599D01*
X179332463Y-104328595D01*
X179332452Y-104328593D01*
X179111468Y-104299500D01*
X179111462Y-104299500D01*
X179111457Y-104299500D01*
X178888543Y-104299500D01*
X178888537Y-104299500D01*
X178888530Y-104299500D01*
X178667546Y-104328593D01*
X178667535Y-104328595D01*
X178667518Y-104328599D01*
X178452220Y-104386288D01*
X178452218Y-104386288D01*
X178246283Y-104471589D01*
X178053230Y-104583048D01*
X177876385Y-104718745D01*
X177876377Y-104718752D01*
X177718752Y-104876377D01*
X177718745Y-104876385D01*
X177583048Y-105053230D01*
X177471589Y-105246283D01*
X177386288Y-105452218D01*
X177386288Y-105452220D01*
X177328599Y-105667518D01*
X177328595Y-105667535D01*
X177328593Y-105667546D01*
X177299500Y-105888530D01*
X161277861Y-105888530D01*
X162906148Y-104260241D01*
X162926907Y-104246371D01*
X162948644Y-104237368D01*
X162973132Y-104232499D01*
X163341309Y-104232499D01*
X163341314Y-104232499D01*
X163366441Y-104229585D01*
X163469215Y-104184206D01*
X163548656Y-104104765D01*
X163582911Y-104027180D01*
X163597254Y-104006751D01*
X163602721Y-104001531D01*
X163648392Y-103983836D01*
X163692177Y-104002569D01*
X163696691Y-104007084D01*
X163709977Y-104026480D01*
X163717094Y-104042597D01*
X163744544Y-104104765D01*
X163823985Y-104184206D01*
X163926759Y-104229585D01*
X163951885Y-104232500D01*
X164848114Y-104232499D01*
X164873241Y-104229585D01*
X164976015Y-104184206D01*
X165055456Y-104104765D01*
X165100835Y-104001991D01*
X165103750Y-103976865D01*
X165103749Y-103926257D01*
X165108620Y-103901768D01*
X165115550Y-103885036D01*
X165115554Y-103885032D01*
X165142679Y-103854101D01*
X165200913Y-103820480D01*
X169038150Y-99983242D01*
X169058907Y-99969374D01*
X169080644Y-99960370D01*
X169105132Y-99955500D01*
X169299998Y-99955500D01*
X169300000Y-99955500D01*
X169328188Y-99954197D01*
X169436173Y-99923472D01*
X169525767Y-99855814D01*
X169584870Y-99760359D01*
X169590424Y-99730651D01*
X169605500Y-99650000D01*
X169605500Y-98150002D01*
X169605500Y-98150000D01*
X169604197Y-98121812D01*
X169573472Y-98013827D01*
X169505814Y-97924233D01*
X169505813Y-97924232D01*
X169505812Y-97924231D01*
X169505811Y-97924230D01*
X169505806Y-97924226D01*
X169410361Y-97865130D01*
X169410356Y-97865128D01*
X169300004Y-97844500D01*
X169300002Y-97844500D01*
X169300000Y-97844500D01*
X168734174Y-97844500D01*
X168734167Y-97844500D01*
X168734160Y-97844500D01*
X168655131Y-97854904D01*
X168655109Y-97854908D01*
X168655092Y-97854912D01*
X168527938Y-97888983D01*
X168527937Y-97888983D01*
X168454256Y-97919503D01*
X168340238Y-97985331D01*
X168340151Y-97985391D01*
X168339711Y-97985736D01*
X168276996Y-98033858D01*
X168276980Y-98033872D01*
X168276970Y-98033881D01*
X168183881Y-98126970D01*
X168183872Y-98126980D01*
X168183858Y-98126996D01*
X168135736Y-98189711D01*
X168135391Y-98190151D01*
X168135331Y-98190238D01*
X168069503Y-98304256D01*
X168038983Y-98377937D01*
X168038983Y-98377938D01*
X168004912Y-98505092D01*
X168004908Y-98505109D01*
X168004904Y-98505131D01*
X167994500Y-98584160D01*
X167994500Y-99215838D01*
X168004904Y-99294867D01*
X168004908Y-99294889D01*
X168004910Y-99294897D01*
X168034973Y-99407096D01*
X168038984Y-99422063D01*
X168069504Y-99495744D01*
X168135330Y-99609758D01*
X168135332Y-99609760D01*
X168137882Y-99613084D01*
X168137888Y-99613091D01*
X168155724Y-99636336D01*
X168166769Y-99658734D01*
X168169917Y-99670484D01*
X168165499Y-99715348D01*
X168162629Y-99721169D01*
X168150482Y-99738122D01*
X167023755Y-100864850D01*
X167002991Y-100878723D01*
X166996627Y-100881359D01*
X166947644Y-100881359D01*
X166913008Y-100846722D01*
X166910372Y-100840358D01*
X166905500Y-100815867D01*
X166905500Y-100484167D01*
X166905394Y-100483105D01*
X166905224Y-100482075D01*
X166905222Y-100482065D01*
X166905222Y-100482064D01*
X166904551Y-100476969D01*
X166895092Y-100405115D01*
X166895091Y-100405110D01*
X166895090Y-100405103D01*
X166893235Y-100398182D01*
X166861015Y-100277936D01*
X166830495Y-100204255D01*
X166766546Y-100093493D01*
X166764670Y-100090243D01*
X166764669Y-100090241D01*
X166764665Y-100090236D01*
X166721175Y-100033559D01*
X166716783Y-100027835D01*
X166716309Y-100027196D01*
X166716124Y-100026977D01*
X166716122Y-100026975D01*
X166716120Y-100026972D01*
X166623028Y-99933880D01*
X166623021Y-99933874D01*
X166623017Y-99933871D01*
X166559763Y-99885334D01*
X166559759Y-99885331D01*
X166540678Y-99874314D01*
X166538008Y-99872382D01*
X166536319Y-99869638D01*
X166524748Y-99859490D01*
X166513724Y-99845122D01*
X166500500Y-99806163D01*
X166500500Y-97998560D01*
X166505369Y-97974075D01*
X166512303Y-97957336D01*
X166539432Y-97926404D01*
X166559757Y-97914670D01*
X166623028Y-97866120D01*
X166716120Y-97773028D01*
X166764670Y-97709757D01*
X166830496Y-97595743D01*
X166861015Y-97522064D01*
X166895090Y-97394897D01*
X166905500Y-97315826D01*
X166905500Y-96684174D01*
X166895090Y-96605103D01*
X166861015Y-96477936D01*
X166830496Y-96404257D01*
X166790273Y-96334588D01*
X166781390Y-96319201D01*
X166781390Y-96319200D01*
X166764676Y-96290251D01*
X166764618Y-96290166D01*
X166764313Y-96289777D01*
X166716774Y-96227825D01*
X166716255Y-96227122D01*
X166716163Y-96227016D01*
X166716122Y-96226975D01*
X166716120Y-96226972D01*
X166623028Y-96133880D01*
X166623021Y-96133874D01*
X166623017Y-96133871D01*
X166559763Y-96085334D01*
X166559759Y-96085331D01*
X166540678Y-96074314D01*
X166538008Y-96072382D01*
X166536319Y-96069638D01*
X166524748Y-96059490D01*
X166513724Y-96045122D01*
X166500500Y-96006163D01*
X166500500Y-92647275D01*
X166500499Y-92647268D01*
X166493774Y-92622172D01*
X166493774Y-92622171D01*
X166475389Y-92553555D01*
X166474834Y-92549343D01*
X166474812Y-92549289D01*
X166473459Y-92545302D01*
X166471603Y-92541538D01*
X166471584Y-92541492D01*
X166468998Y-92538123D01*
X166420480Y-92454087D01*
X165848369Y-91881976D01*
X178199500Y-91881976D01*
X178199500Y-92118022D01*
X178230304Y-92352003D01*
X178230306Y-92352014D01*
X178230310Y-92352031D01*
X178291392Y-92579990D01*
X178291392Y-92579991D01*
X178381715Y-92798048D01*
X178499727Y-93002451D01*
X178540820Y-93056004D01*
X178540819Y-93056004D01*
X178643399Y-93189688D01*
X178643402Y-93189692D01*
X178643408Y-93189699D01*
X178810301Y-93356592D01*
X178915077Y-93436989D01*
X178915099Y-93437006D01*
X178997540Y-93500266D01*
X178997545Y-93500270D01*
X178997547Y-93500271D01*
X179201949Y-93618283D01*
X179420006Y-93708606D01*
X179647977Y-93769691D01*
X179647991Y-93769694D01*
X179790680Y-93788479D01*
X179881989Y-93800500D01*
X180118011Y-93800500D01*
X180118013Y-93800500D01*
X180118015Y-93800499D01*
X180262924Y-93781421D01*
X180347863Y-93770239D01*
X180349844Y-93770109D01*
X180350134Y-93770054D01*
X180351997Y-93769752D01*
X180354688Y-93768985D01*
X180354813Y-93768999D01*
X180355684Y-93768710D01*
X180435257Y-93747388D01*
X180579993Y-93708606D01*
X180798049Y-93618284D01*
X181002450Y-93500273D01*
X181189699Y-93356592D01*
X181356592Y-93189699D01*
X181500273Y-93002450D01*
X181618284Y-92798049D01*
X181708606Y-92579993D01*
X181729088Y-92503553D01*
X181731269Y-92495414D01*
X181731269Y-92495413D01*
X181742343Y-92454085D01*
X181769691Y-92352022D01*
X181769694Y-92352008D01*
X181783189Y-92249501D01*
X181800500Y-92118011D01*
X181800500Y-91881989D01*
X181769693Y-91647986D01*
X181754301Y-91590543D01*
X181754300Y-91590541D01*
X181739069Y-91533697D01*
X181708606Y-91420006D01*
X181644737Y-91265815D01*
X181618284Y-91201951D01*
X181500273Y-90997550D01*
X181500265Y-90997540D01*
X181423131Y-90897017D01*
X181356592Y-90810301D01*
X181189699Y-90643408D01*
X181189692Y-90643402D01*
X181189688Y-90643399D01*
X181023664Y-90516004D01*
X181023662Y-90516003D01*
X181002452Y-90499728D01*
X180798050Y-90381716D01*
X180788662Y-90377827D01*
X180579991Y-90291392D01*
X180352031Y-90230310D01*
X180352014Y-90230306D01*
X180352003Y-90230304D01*
X180118022Y-90199500D01*
X180118016Y-90199500D01*
X180118011Y-90199500D01*
X179881989Y-90199500D01*
X179881983Y-90199500D01*
X179881976Y-90199500D01*
X179647995Y-90230304D01*
X179647984Y-90230306D01*
X179647967Y-90230310D01*
X179420008Y-90291392D01*
X179420007Y-90291392D01*
X179201950Y-90381715D01*
X178997545Y-90499728D01*
X178997540Y-90499732D01*
X178810312Y-90643398D01*
X178810302Y-90643407D01*
X178643407Y-90810302D01*
X178643398Y-90810312D01*
X178499732Y-90997540D01*
X178499728Y-90997545D01*
X178381715Y-91201950D01*
X178291392Y-91420007D01*
X178291392Y-91420008D01*
X178230310Y-91647967D01*
X178230306Y-91647984D01*
X178230304Y-91647995D01*
X178199500Y-91881976D01*
X165848369Y-91881976D01*
X163995913Y-90029520D01*
X163904588Y-89976793D01*
X163904586Y-89976792D01*
X163904584Y-89976791D01*
X163904581Y-89976790D01*
X163904579Y-89976789D01*
X163904581Y-89976789D01*
X163802729Y-89949500D01*
X163802728Y-89949500D01*
X163802727Y-89949500D01*
X159247675Y-89949500D01*
X159247611Y-89949499D01*
X159246644Y-89949499D01*
X159242727Y-89949499D01*
X159137273Y-89949499D01*
X159137268Y-89949499D01*
X159137263Y-89949499D01*
X159035435Y-89976786D01*
X159035407Y-89976794D01*
X158944087Y-90029518D01*
X158944085Y-90029520D01*
X158869518Y-90104089D01*
X158562016Y-90411589D01*
X158541252Y-90425462D01*
X158525768Y-90431876D01*
X158525694Y-90431907D01*
X158488714Y-90435548D01*
X158488131Y-90435432D01*
X158480844Y-90433530D01*
X158309397Y-90377825D01*
X158192736Y-90359349D01*
X158148952Y-90352415D01*
X158130546Y-90349500D01*
X158130545Y-90349500D01*
X157949455Y-90349500D01*
X157949454Y-90349500D01*
X157942751Y-90350561D01*
X157893722Y-90358325D01*
X157893723Y-90358326D01*
X157770603Y-90377825D01*
X157770597Y-90377827D01*
X157770590Y-90377829D01*
X157758630Y-90381715D01*
X157598359Y-90433789D01*
X157598337Y-90433798D01*
X157437019Y-90515993D01*
X157437017Y-90515995D01*
X157437006Y-90516003D01*
X157290497Y-90622447D01*
X157162447Y-90750497D01*
X157056015Y-90896989D01*
X157055995Y-90897017D01*
X157055993Y-90897019D01*
X156973798Y-91058337D01*
X156973789Y-91058359D01*
X156917825Y-91230603D01*
X156893213Y-91386010D01*
X156889500Y-91409456D01*
X156889500Y-91590543D01*
X156889892Y-91593016D01*
X156917825Y-91769395D01*
X156917826Y-91769400D01*
X156917827Y-91769402D01*
X156917829Y-91769409D01*
X156954404Y-91881976D01*
X156973789Y-91941639D01*
X156973798Y-91941661D01*
X157055993Y-92102979D01*
X157055995Y-92102981D01*
X157055998Y-92102985D01*
X157055999Y-92102987D01*
X157056004Y-92102994D01*
X157162447Y-92249501D01*
X157290499Y-92377553D01*
X157348911Y-92419991D01*
X157437005Y-92483995D01*
X157437012Y-92484000D01*
X157437014Y-92484001D01*
X157437017Y-92484003D01*
X157437019Y-92484005D01*
X157596392Y-92565209D01*
X157596393Y-92565209D01*
X157598352Y-92566207D01*
X157598354Y-92566207D01*
X157598357Y-92566209D01*
X157598358Y-92566209D01*
X157598361Y-92566211D01*
X157770591Y-92622171D01*
X157949454Y-92650500D01*
X157949457Y-92650500D01*
X158130543Y-92650500D01*
X158130546Y-92650500D01*
X158309409Y-92622171D01*
X158481639Y-92566211D01*
X158482958Y-92565539D01*
X158642987Y-92484000D01*
X158642989Y-92483998D01*
X158642994Y-92483996D01*
X158789501Y-92377553D01*
X158917553Y-92249501D01*
X159023996Y-92102994D01*
X159069843Y-92013016D01*
X159106207Y-91941647D01*
X159106207Y-91941646D01*
X159106211Y-91941639D01*
X159106214Y-91941627D01*
X159106437Y-91941191D01*
X159106969Y-91939303D01*
X159162171Y-91769409D01*
X159190500Y-91590546D01*
X159190500Y-91409454D01*
X159162171Y-91230591D01*
X159108667Y-91065921D01*
X159105536Y-91046161D01*
X159105533Y-91027373D01*
X159124270Y-90982119D01*
X159328148Y-90778243D01*
X159348906Y-90764374D01*
X159370643Y-90755370D01*
X159395131Y-90750500D01*
X163544868Y-90750500D01*
X163569354Y-90755370D01*
X163591092Y-90764374D01*
X163611852Y-90778245D01*
X165671754Y-92838147D01*
X165685625Y-92858907D01*
X165694629Y-92880643D01*
X165699500Y-92905131D01*
X165699500Y-95867771D01*
X165694626Y-95892265D01*
X165694384Y-95892852D01*
X165690897Y-95901269D01*
X165656269Y-95935897D01*
X165653818Y-95936912D01*
X165647265Y-95939626D01*
X165622771Y-95944500D01*
X165600000Y-95944500D01*
X165571812Y-95945803D01*
X165479229Y-95972144D01*
X165454340Y-95974161D01*
X165431771Y-95971543D01*
X165413049Y-95965926D01*
X165412953Y-95966167D01*
X165410362Y-95965131D01*
X165410359Y-95965130D01*
X165410354Y-95965128D01*
X165383270Y-95960065D01*
X165300004Y-95944500D01*
X165300002Y-95944500D01*
X165300000Y-95944500D01*
X164734174Y-95944500D01*
X164734167Y-95944500D01*
X164734160Y-95944500D01*
X164655131Y-95954904D01*
X164655109Y-95954908D01*
X164655092Y-95954912D01*
X164527938Y-95988983D01*
X164500750Y-96000244D01*
X164476260Y-96005115D01*
X164466518Y-96005115D01*
X164421263Y-95986370D01*
X164421252Y-95986359D01*
X164419234Y-95984340D01*
X164400500Y-95939096D01*
X164400500Y-94477178D01*
X164405370Y-94452692D01*
X164409919Y-94441709D01*
X164441184Y-94408585D01*
X164447385Y-94405586D01*
X164467877Y-94399629D01*
X164469991Y-94399385D01*
X164572765Y-94354006D01*
X164652206Y-94274565D01*
X164697585Y-94171791D01*
X164700500Y-94146665D01*
X164700499Y-93256936D01*
X164697585Y-93231809D01*
X164652206Y-93129035D01*
X164572765Y-93049594D01*
X164469991Y-93004215D01*
X164444865Y-93001300D01*
X164444864Y-93001300D01*
X163555138Y-93001300D01*
X163555095Y-93001305D01*
X163530006Y-93004215D01*
X163456121Y-93036839D01*
X163427237Y-93049593D01*
X163427235Y-93049594D01*
X163347794Y-93129035D01*
X163302415Y-93231809D01*
X163299500Y-93256935D01*
X163299500Y-94146660D01*
X163299501Y-94146665D01*
X163299501Y-94146667D01*
X163302415Y-94171793D01*
X163325104Y-94223178D01*
X163325103Y-94223178D01*
X163347792Y-94274561D01*
X163347794Y-94274565D01*
X163427235Y-94354006D01*
X163530009Y-94399385D01*
X163530229Y-94399410D01*
X163530903Y-94399627D01*
X163534651Y-94400647D01*
X163534603Y-94400820D01*
X163553995Y-94407071D01*
X163564375Y-94412852D01*
X163593676Y-94447720D01*
X163595941Y-94454225D01*
X163599500Y-94475270D01*
X163599500Y-95794867D01*
X163594628Y-95819356D01*
X163588204Y-95834868D01*
X163585627Y-95841089D01*
X163571754Y-95861851D01*
X160193850Y-99239754D01*
X160173088Y-99253626D01*
X160151355Y-99262628D01*
X160126866Y-99267500D01*
X159551888Y-99267500D01*
X159551845Y-99267505D01*
X159526756Y-99270415D01*
X159471312Y-99294896D01*
X159471312Y-99294897D01*
X159423985Y-99315794D01*
X159344544Y-99395235D01*
X159310289Y-99472815D01*
X159295938Y-99493252D01*
X159290476Y-99498467D01*
X159244800Y-99516161D01*
X159201025Y-99497433D01*
X159196511Y-99492919D01*
X159183196Y-99473463D01*
X159183098Y-99473240D01*
X159183073Y-99473183D01*
X159148658Y-99395238D01*
X159148656Y-99395236D01*
X159148656Y-99395235D01*
X159069215Y-99315794D01*
X158966441Y-99270415D01*
X158966440Y-99270414D01*
X158966436Y-99270413D01*
X158966437Y-99270413D01*
X158955244Y-99269114D01*
X158947953Y-99266392D01*
X158945946Y-99264522D01*
X158939199Y-99262347D01*
X158928819Y-99256565D01*
X158899518Y-99221688D01*
X158897255Y-99215185D01*
X158893700Y-99194151D01*
X158893700Y-96331932D01*
X158898571Y-96307442D01*
X158905691Y-96290251D01*
X158907572Y-96285709D01*
X158921444Y-96264947D01*
X160057984Y-95128406D01*
X160078745Y-95114536D01*
X160094300Y-95108093D01*
X160131339Y-95104464D01*
X160131944Y-95104584D01*
X160139164Y-95106472D01*
X160310591Y-95162171D01*
X160489454Y-95190500D01*
X160489457Y-95190500D01*
X160670543Y-95190500D01*
X160670546Y-95190500D01*
X160849409Y-95162171D01*
X161021639Y-95106211D01*
X161025068Y-95104464D01*
X161027903Y-95103020D01*
X161103300Y-95064602D01*
X161182987Y-95024000D01*
X161182989Y-95023998D01*
X161182994Y-95023996D01*
X161329501Y-94917553D01*
X161457553Y-94789501D01*
X161563996Y-94642994D01*
X161569501Y-94632191D01*
X161646207Y-94481647D01*
X161646207Y-94481646D01*
X161646211Y-94481639D01*
X161646213Y-94481630D01*
X161646437Y-94481192D01*
X161646969Y-94479303D01*
X161702171Y-94309409D01*
X161730500Y-94130546D01*
X161730500Y-93949454D01*
X161702171Y-93770591D01*
X161646211Y-93598361D01*
X161646208Y-93598356D01*
X161646207Y-93598352D01*
X161645209Y-93596393D01*
X161645208Y-93596390D01*
X161564005Y-93437019D01*
X161564003Y-93437017D01*
X161564001Y-93437014D01*
X161564000Y-93437012D01*
X161563995Y-93437005D01*
X161457552Y-93290498D01*
X161329501Y-93162447D01*
X161182994Y-93056004D01*
X161182987Y-93055999D01*
X161182986Y-93055998D01*
X161182981Y-93055995D01*
X161182979Y-93055993D01*
X161021661Y-92973798D01*
X161021649Y-92973793D01*
X161021647Y-92973792D01*
X161021639Y-92973789D01*
X160849409Y-92917829D01*
X160849402Y-92917827D01*
X160849400Y-92917826D01*
X160849395Y-92917825D01*
X160732736Y-92899349D01*
X160699497Y-92894085D01*
X160670546Y-92889500D01*
X160670545Y-92889500D01*
X160489455Y-92889500D01*
X160489454Y-92889500D01*
X160482751Y-92890561D01*
X160433722Y-92898325D01*
X160433723Y-92898326D01*
X160310603Y-92917825D01*
X160310597Y-92917827D01*
X160310590Y-92917829D01*
X160240335Y-92940655D01*
X160138359Y-92973789D01*
X160138337Y-92973798D01*
X159977019Y-93055993D01*
X159977017Y-93055995D01*
X159977005Y-93056004D01*
X159830497Y-93162447D01*
X159702447Y-93290497D01*
X159596015Y-93436989D01*
X159595995Y-93437017D01*
X159595993Y-93437019D01*
X159513798Y-93598337D01*
X159513789Y-93598359D01*
X159507315Y-93618284D01*
X159457986Y-93770109D01*
X159457825Y-93770603D01*
X159436066Y-93907993D01*
X159429500Y-93949454D01*
X159429500Y-94130546D01*
X159432059Y-94146703D01*
X159436033Y-94171791D01*
X159436033Y-94171792D01*
X159457825Y-94309395D01*
X159457826Y-94309400D01*
X159457827Y-94309402D01*
X159457829Y-94309409D01*
X159508204Y-94464450D01*
X159511330Y-94474070D01*
X159514463Y-94493852D01*
X159514462Y-94512635D01*
X159495717Y-94557887D01*
X158172722Y-95880883D01*
X158166148Y-95892269D01*
X158119991Y-95972215D01*
X158119991Y-95972216D01*
X158107321Y-96019504D01*
X158100708Y-96044186D01*
X158098851Y-96051117D01*
X158093889Y-96069638D01*
X158092700Y-96074074D01*
X158092700Y-99192243D01*
X158087828Y-99216732D01*
X158083280Y-99227713D01*
X158052010Y-99260839D01*
X158045809Y-99263837D01*
X158025330Y-99269791D01*
X158019958Y-99270414D01*
X157964512Y-99294896D01*
X157964512Y-99294897D01*
X157917185Y-99315794D01*
X157837744Y-99395235D01*
X157792365Y-99498009D01*
X157789450Y-99523135D01*
X157789450Y-100476858D01*
X157789451Y-100476867D01*
X157792365Y-100501993D01*
X157815054Y-100553378D01*
X157815053Y-100553378D01*
X157837742Y-100604761D01*
X157837744Y-100604765D01*
X157917185Y-100684206D01*
X158019957Y-100729584D01*
X158019959Y-100729585D01*
X158023431Y-100729987D01*
X158047195Y-100737648D01*
X158057575Y-100743429D01*
X158086876Y-100778297D01*
X158088606Y-100783267D01*
X158089141Y-100784802D01*
X158092700Y-100805847D01*
X158092700Y-100992243D01*
X158087828Y-101016732D01*
X158083280Y-101027713D01*
X158052010Y-101060839D01*
X158045809Y-101063837D01*
X158025330Y-101069791D01*
X158019955Y-101070414D01*
X157942877Y-101104449D01*
X157917186Y-101115793D01*
X157917184Y-101115794D01*
X157837744Y-101195235D01*
X157837742Y-101195238D01*
X157813690Y-101249708D01*
X157799345Y-101270141D01*
X157796545Y-101272815D01*
X157787150Y-101281785D01*
X157742951Y-101299500D01*
X157110059Y-101299500D01*
X157085567Y-101294627D01*
X157079197Y-101291989D01*
X157044564Y-101257351D01*
X157044543Y-101208429D01*
X157044634Y-101208208D01*
X157077930Y-101174104D01*
X157104765Y-101162256D01*
X157184206Y-101082815D01*
X157229585Y-100980041D01*
X157232500Y-100954915D01*
X157232499Y-100058686D01*
X157229585Y-100033559D01*
X157226775Y-100027196D01*
X157197269Y-99960371D01*
X157184206Y-99930785D01*
X157104765Y-99851344D01*
X157052182Y-99828126D01*
X157027183Y-99817088D01*
X157006744Y-99802737D01*
X157006291Y-99802263D01*
X157001530Y-99797276D01*
X156983837Y-99751600D01*
X157002560Y-99707830D01*
X157007076Y-99703313D01*
X157026477Y-99690022D01*
X157104765Y-99655456D01*
X157184206Y-99576015D01*
X157229585Y-99473241D01*
X157232500Y-99448115D01*
X157232499Y-98551886D01*
X157229585Y-98526759D01*
X157184206Y-98423985D01*
X157104765Y-98344544D01*
X157103241Y-98343871D01*
X157103238Y-98343869D01*
X157100290Y-98342567D01*
X157079854Y-98328216D01*
X157068208Y-98316017D01*
X157050500Y-98271824D01*
X157050500Y-94844635D01*
X157055372Y-94820144D01*
X157058008Y-94813780D01*
X157092644Y-94779143D01*
X157141626Y-94779143D01*
X157147723Y-94781668D01*
X157168487Y-94795541D01*
X157290498Y-94917552D01*
X157435070Y-95022589D01*
X157435418Y-95022862D01*
X157437012Y-95024001D01*
X157437019Y-95024005D01*
X157596392Y-95105209D01*
X157596393Y-95105209D01*
X157598352Y-95106207D01*
X157598354Y-95106207D01*
X157598357Y-95106209D01*
X157598358Y-95106209D01*
X157598361Y-95106211D01*
X157770591Y-95162171D01*
X157949454Y-95190500D01*
X157949457Y-95190500D01*
X158130543Y-95190500D01*
X158130546Y-95190500D01*
X158309409Y-95162171D01*
X158481639Y-95106211D01*
X158485068Y-95104464D01*
X158487903Y-95103020D01*
X158563300Y-95064602D01*
X158642987Y-95024000D01*
X158642989Y-95023998D01*
X158642994Y-95023996D01*
X158789501Y-94917553D01*
X158917553Y-94789501D01*
X159023996Y-94642994D01*
X159029501Y-94632191D01*
X159106207Y-94481647D01*
X159106207Y-94481646D01*
X159106211Y-94481639D01*
X159106213Y-94481630D01*
X159106437Y-94481192D01*
X159106969Y-94479303D01*
X159162171Y-94309409D01*
X159190500Y-94130546D01*
X159190500Y-93949454D01*
X159162171Y-93770591D01*
X159106211Y-93598361D01*
X159106208Y-93598356D01*
X159106207Y-93598352D01*
X159105209Y-93596393D01*
X159105208Y-93596390D01*
X159024005Y-93437019D01*
X159024003Y-93437017D01*
X159024001Y-93437014D01*
X159024000Y-93437012D01*
X159023995Y-93437005D01*
X158917552Y-93290498D01*
X158789501Y-93162447D01*
X158642994Y-93056004D01*
X158642987Y-93055999D01*
X158642986Y-93055998D01*
X158642981Y-93055995D01*
X158642979Y-93055993D01*
X158481661Y-92973798D01*
X158481649Y-92973793D01*
X158481647Y-92973792D01*
X158481639Y-92973789D01*
X158309409Y-92917829D01*
X158309402Y-92917827D01*
X158309400Y-92917826D01*
X158309395Y-92917825D01*
X158192736Y-92899349D01*
X158159497Y-92894085D01*
X158130546Y-92889500D01*
X158130545Y-92889500D01*
X157949455Y-92889500D01*
X157949454Y-92889500D01*
X157942751Y-92890561D01*
X157893722Y-92898325D01*
X157893723Y-92898326D01*
X157770603Y-92917825D01*
X157770597Y-92917827D01*
X157770590Y-92917829D01*
X157700335Y-92940655D01*
X157598359Y-92973789D01*
X157598337Y-92973798D01*
X157437019Y-93055993D01*
X157437017Y-93055995D01*
X157437005Y-93056004D01*
X157290501Y-93162443D01*
X157170584Y-93282360D01*
X157154382Y-93294130D01*
X157145681Y-93298563D01*
X157096849Y-93302405D01*
X157059603Y-93270591D01*
X157057468Y-93266400D01*
X157050500Y-93237359D01*
X157050500Y-92709134D01*
X157050501Y-92709081D01*
X157050501Y-92597275D01*
X157050500Y-92597268D01*
X157036915Y-92546572D01*
X157023207Y-92495413D01*
X156979662Y-92419991D01*
X156970480Y-92404087D01*
X156895913Y-92329520D01*
X156893683Y-92327290D01*
X156893672Y-92327280D01*
X156588408Y-92022016D01*
X156574536Y-92001255D01*
X156568093Y-91985700D01*
X156564453Y-91948722D01*
X156564581Y-91948080D01*
X156566471Y-91940837D01*
X156622171Y-91769409D01*
X156650500Y-91590546D01*
X156650500Y-91409454D01*
X156622171Y-91230591D01*
X156566211Y-91058361D01*
X156566208Y-91058356D01*
X156566207Y-91058352D01*
X156565209Y-91056393D01*
X156565208Y-91056390D01*
X156484005Y-90897019D01*
X156484003Y-90897017D01*
X156484001Y-90897014D01*
X156484000Y-90897012D01*
X156483995Y-90897005D01*
X156433884Y-90828032D01*
X156377553Y-90750499D01*
X156249501Y-90622447D01*
X156102994Y-90516004D01*
X156102987Y-90515999D01*
X156102981Y-90515995D01*
X156102979Y-90515993D01*
X155941661Y-90433798D01*
X155941649Y-90433793D01*
X155941647Y-90433792D01*
X155941639Y-90433789D01*
X155769409Y-90377829D01*
X155769402Y-90377827D01*
X155769400Y-90377826D01*
X155769395Y-90377825D01*
X155652736Y-90359349D01*
X155608952Y-90352415D01*
X155590546Y-90349500D01*
X155590545Y-90349500D01*
X155409455Y-90349500D01*
X155409454Y-90349500D01*
X155402751Y-90350561D01*
X155353722Y-90358325D01*
X155353723Y-90358326D01*
X155230603Y-90377825D01*
X155230597Y-90377827D01*
X155230590Y-90377829D01*
X155218630Y-90381715D01*
X155058359Y-90433789D01*
X155058337Y-90433798D01*
X154897019Y-90515993D01*
X154897017Y-90515995D01*
X154897006Y-90516003D01*
X154750497Y-90622447D01*
X154622447Y-90750497D01*
X154516015Y-90896989D01*
X154515995Y-90897017D01*
X154515993Y-90897019D01*
X154433798Y-91058337D01*
X154433789Y-91058359D01*
X154377825Y-91230603D01*
X154353213Y-91386010D01*
X154349500Y-91409456D01*
X154349500Y-91590543D01*
X154349892Y-91593016D01*
X154377825Y-91769395D01*
X154377826Y-91769400D01*
X154377827Y-91769402D01*
X154377829Y-91769409D01*
X154414404Y-91881976D01*
X154433789Y-91941639D01*
X154433798Y-91941661D01*
X154515993Y-92102979D01*
X154515995Y-92102981D01*
X154515998Y-92102985D01*
X154515999Y-92102987D01*
X154516004Y-92102994D01*
X154622447Y-92249501D01*
X154750499Y-92377553D01*
X154808911Y-92419991D01*
X154897005Y-92483995D01*
X154897012Y-92484000D01*
X154897014Y-92484001D01*
X154897017Y-92484003D01*
X154897019Y-92484005D01*
X155056392Y-92565209D01*
X155056393Y-92565209D01*
X155058352Y-92566207D01*
X155058354Y-92566207D01*
X155058357Y-92566209D01*
X155058358Y-92566209D01*
X155058361Y-92566211D01*
X155230591Y-92622171D01*
X155409454Y-92650500D01*
X155409457Y-92650500D01*
X155590543Y-92650500D01*
X155590546Y-92650500D01*
X155769409Y-92622171D01*
X155934074Y-92568668D01*
X155953819Y-92565538D01*
X155972611Y-92565532D01*
X156017870Y-92584263D01*
X156017885Y-92584277D01*
X156221754Y-92788146D01*
X156235625Y-92808906D01*
X156244628Y-92830639D01*
X156249500Y-92855130D01*
X156249500Y-93024110D01*
X156244627Y-93048604D01*
X156241182Y-93056920D01*
X156206544Y-93091555D01*
X156162285Y-93093296D01*
X156157528Y-93091751D01*
X156139674Y-93082653D01*
X156138904Y-93082094D01*
X156138895Y-93082087D01*
X156103348Y-93056261D01*
X156103340Y-93056255D01*
X156102990Y-93056000D01*
X156102871Y-93055940D01*
X156102870Y-93055939D01*
X155941657Y-92973796D01*
X155941639Y-92973789D01*
X155769409Y-92917829D01*
X155769402Y-92917827D01*
X155769400Y-92917826D01*
X155769395Y-92917825D01*
X155652736Y-92899349D01*
X155619497Y-92894085D01*
X155590546Y-92889500D01*
X155590545Y-92889500D01*
X155409455Y-92889500D01*
X155409454Y-92889500D01*
X155402751Y-92890561D01*
X155353722Y-92898325D01*
X155353723Y-92898326D01*
X155230603Y-92917825D01*
X155230597Y-92917827D01*
X155230590Y-92917829D01*
X155160335Y-92940655D01*
X155058359Y-92973789D01*
X155058337Y-92973798D01*
X154897019Y-93055993D01*
X154897017Y-93055995D01*
X154897005Y-93056004D01*
X154750501Y-93162443D01*
X154630584Y-93282360D01*
X154614382Y-93294130D01*
X154605681Y-93298563D01*
X154556849Y-93302405D01*
X154519603Y-93270591D01*
X154517468Y-93266400D01*
X154510500Y-93237359D01*
X154510500Y-92709134D01*
X154510501Y-92709081D01*
X154510501Y-92597275D01*
X154510500Y-92597268D01*
X154496915Y-92546572D01*
X154483207Y-92495413D01*
X154439662Y-92419991D01*
X154430480Y-92404087D01*
X154355913Y-92329520D01*
X154353683Y-92327290D01*
X154353672Y-92327280D01*
X154048408Y-92022016D01*
X154034536Y-92001255D01*
X154028093Y-91985700D01*
X154024453Y-91948722D01*
X154024581Y-91948080D01*
X154026471Y-91940837D01*
X154082171Y-91769409D01*
X154110500Y-91590546D01*
X154110500Y-91409454D01*
X154082171Y-91230591D01*
X154026211Y-91058361D01*
X154026208Y-91058356D01*
X154026207Y-91058352D01*
X154025209Y-91056393D01*
X154025208Y-91056390D01*
X153944005Y-90897019D01*
X153944003Y-90897017D01*
X153944001Y-90897014D01*
X153944000Y-90897012D01*
X153943995Y-90897005D01*
X153893884Y-90828032D01*
X153837553Y-90750499D01*
X153709501Y-90622447D01*
X153562994Y-90516004D01*
X153562987Y-90515999D01*
X153562981Y-90515995D01*
X153562979Y-90515993D01*
X153401661Y-90433798D01*
X153401649Y-90433793D01*
X153401647Y-90433792D01*
X153401639Y-90433789D01*
X153229409Y-90377829D01*
X153229402Y-90377827D01*
X153229400Y-90377826D01*
X153229395Y-90377825D01*
X153112736Y-90359349D01*
X153068952Y-90352415D01*
X153050546Y-90349500D01*
X153050545Y-90349500D01*
X152869455Y-90349500D01*
X152869454Y-90349500D01*
X152862751Y-90350561D01*
X152813722Y-90358325D01*
X152813723Y-90358326D01*
X152690603Y-90377825D01*
X152690597Y-90377827D01*
X152690590Y-90377829D01*
X152678630Y-90381715D01*
X152518359Y-90433789D01*
X152518337Y-90433798D01*
X152357019Y-90515993D01*
X152357017Y-90515995D01*
X152357006Y-90516003D01*
X152210497Y-90622447D01*
X152082447Y-90750497D01*
X151976015Y-90896989D01*
X151975995Y-90897017D01*
X151975993Y-90897019D01*
X151893798Y-91058337D01*
X151893789Y-91058359D01*
X151837825Y-91230603D01*
X151813213Y-91386010D01*
X151809500Y-91409456D01*
X151809500Y-91590543D01*
X151809892Y-91593016D01*
X151837825Y-91769395D01*
X151837826Y-91769400D01*
X151837827Y-91769402D01*
X151837829Y-91769409D01*
X151874404Y-91881976D01*
X151893789Y-91941639D01*
X151893798Y-91941661D01*
X151975993Y-92102979D01*
X151975995Y-92102981D01*
X151975998Y-92102985D01*
X151975999Y-92102987D01*
X151976004Y-92102994D01*
X152082447Y-92249501D01*
X152210499Y-92377553D01*
X152268911Y-92419991D01*
X152357005Y-92483995D01*
X152357012Y-92484000D01*
X152357014Y-92484001D01*
X152357017Y-92484003D01*
X152357019Y-92484005D01*
X152516392Y-92565209D01*
X152516393Y-92565209D01*
X152518352Y-92566207D01*
X152518354Y-92566207D01*
X152518357Y-92566209D01*
X152518358Y-92566209D01*
X152518361Y-92566211D01*
X152690591Y-92622171D01*
X152869454Y-92650500D01*
X152869457Y-92650500D01*
X153050543Y-92650500D01*
X153050546Y-92650500D01*
X153229409Y-92622171D01*
X153394074Y-92568668D01*
X153413819Y-92565538D01*
X153432611Y-92565532D01*
X153477870Y-92584263D01*
X153477885Y-92584277D01*
X153681754Y-92788146D01*
X153695625Y-92808906D01*
X153704628Y-92830639D01*
X153709500Y-92855130D01*
X153709500Y-93024110D01*
X153704627Y-93048604D01*
X153701182Y-93056920D01*
X153666544Y-93091555D01*
X153622285Y-93093296D01*
X153617528Y-93091751D01*
X153599674Y-93082653D01*
X153598904Y-93082094D01*
X153598895Y-93082087D01*
X153563348Y-93056261D01*
X153563340Y-93056255D01*
X153562990Y-93056000D01*
X153562871Y-93055940D01*
X153562870Y-93055939D01*
X153401657Y-92973796D01*
X153401639Y-92973789D01*
X153229409Y-92917829D01*
X153229402Y-92917827D01*
X153229400Y-92917826D01*
X153229395Y-92917825D01*
X153112736Y-92899349D01*
X153079497Y-92894085D01*
X153050546Y-92889500D01*
X153050545Y-92889500D01*
X152869455Y-92889500D01*
X152869454Y-92889500D01*
X152862751Y-92890561D01*
X152813722Y-92898325D01*
X152813723Y-92898326D01*
X152690603Y-92917825D01*
X152690597Y-92917827D01*
X152690590Y-92917829D01*
X152620335Y-92940655D01*
X152518359Y-92973789D01*
X152518337Y-92973798D01*
X152357019Y-93055993D01*
X152357017Y-93055995D01*
X152357005Y-93056004D01*
X152210497Y-93162447D01*
X152082447Y-93290497D01*
X151976015Y-93436989D01*
X151975995Y-93437017D01*
X151975993Y-93437019D01*
X151893798Y-93598337D01*
X151893789Y-93598359D01*
X151887315Y-93618284D01*
X151837986Y-93770109D01*
X151837825Y-93770603D01*
X151816066Y-93907993D01*
X151809500Y-93949454D01*
X151809500Y-94130546D01*
X151812059Y-94146703D01*
X151816033Y-94171791D01*
X151816033Y-94171792D01*
X151837825Y-94309395D01*
X151837826Y-94309400D01*
X151837827Y-94309402D01*
X151837829Y-94309409D01*
X151869079Y-94405587D01*
X151893789Y-94481639D01*
X151893798Y-94481661D01*
X151975993Y-94642979D01*
X151975995Y-94642981D01*
X151975998Y-94642985D01*
X151975999Y-94642987D01*
X151976001Y-94642989D01*
X151976015Y-94643009D01*
X152082447Y-94789501D01*
X152210498Y-94917552D01*
X152355070Y-95022589D01*
X152355418Y-95022862D01*
X152357008Y-95023998D01*
X152357013Y-95024001D01*
X152511274Y-95102601D01*
X152527464Y-95114360D01*
X152540748Y-95127640D01*
X152559500Y-95172892D01*
X152559500Y-95834868D01*
X152554628Y-95859357D01*
X152551144Y-95867771D01*
X152545627Y-95881090D01*
X152531754Y-95901852D01*
X150224518Y-98209088D01*
X150221964Y-98212417D01*
X150221201Y-98211832D01*
X150209822Y-98224797D01*
X150204357Y-98228990D01*
X150157042Y-98241665D01*
X150114622Y-98217171D01*
X150114618Y-98217165D01*
X150113719Y-98215993D01*
X150100500Y-98177041D01*
X150100500Y-97105131D01*
X150105371Y-97080641D01*
X150114372Y-97058909D01*
X150128244Y-97038146D01*
X150656908Y-96509481D01*
X150656915Y-96509477D01*
X150665912Y-96500480D01*
X150665913Y-96500480D01*
X150740480Y-96425913D01*
X150775217Y-96365748D01*
X150778254Y-96360487D01*
X150778254Y-96360486D01*
X150778258Y-96360480D01*
X150793207Y-96334588D01*
X150793207Y-96334585D01*
X150793209Y-96334583D01*
X150793920Y-96331932D01*
X150820500Y-96232729D01*
X150820500Y-95178742D01*
X150825370Y-95154255D01*
X150831814Y-95138697D01*
X150855415Y-95109956D01*
X150855931Y-95109611D01*
X150862449Y-95105798D01*
X150862958Y-95105539D01*
X151022987Y-95024000D01*
X151022989Y-95023998D01*
X151022994Y-95023996D01*
X151169501Y-94917553D01*
X151297553Y-94789501D01*
X151403996Y-94642994D01*
X151409501Y-94632191D01*
X151486207Y-94481647D01*
X151486207Y-94481646D01*
X151486211Y-94481639D01*
X151486213Y-94481630D01*
X151486437Y-94481192D01*
X151486969Y-94479303D01*
X151542171Y-94309409D01*
X151570500Y-94130546D01*
X151570500Y-93949454D01*
X151542171Y-93770591D01*
X151486211Y-93598361D01*
X151486208Y-93598356D01*
X151486207Y-93598352D01*
X151485209Y-93596393D01*
X151485208Y-93596390D01*
X151404005Y-93437019D01*
X151404003Y-93437017D01*
X151404001Y-93437014D01*
X151404000Y-93437012D01*
X151403995Y-93437005D01*
X151297552Y-93290498D01*
X151169501Y-93162447D01*
X151022994Y-93056004D01*
X151022987Y-93055999D01*
X151022986Y-93055998D01*
X151022981Y-93055995D01*
X151022979Y-93055993D01*
X150861661Y-92973798D01*
X150861649Y-92973793D01*
X150861647Y-92973792D01*
X150861639Y-92973789D01*
X150689409Y-92917829D01*
X150689402Y-92917827D01*
X150689400Y-92917826D01*
X150689395Y-92917825D01*
X150572736Y-92899349D01*
X150539497Y-92894085D01*
X150510546Y-92889500D01*
X150510545Y-92889500D01*
X150329455Y-92889500D01*
X150329454Y-92889500D01*
X150322751Y-92890561D01*
X150273722Y-92898325D01*
X150273723Y-92898326D01*
X150150603Y-92917825D01*
X150150597Y-92917827D01*
X150150590Y-92917829D01*
X150080335Y-92940655D01*
X149978359Y-92973789D01*
X149978341Y-92973796D01*
X149817028Y-93055991D01*
X149816997Y-93056007D01*
X149809226Y-93060448D01*
X149806061Y-93063956D01*
X149791608Y-93074457D01*
X149791607Y-93074458D01*
X149782418Y-93081134D01*
X149759740Y-93091588D01*
X149750984Y-93093690D01*
X149702603Y-93086027D01*
X149675173Y-93051222D01*
X149673626Y-93046463D01*
X149670500Y-93026702D01*
X149670500Y-92855130D01*
X149675369Y-92830645D01*
X149684375Y-92808903D01*
X149698242Y-92788149D01*
X149783665Y-92702727D01*
X149897981Y-92588409D01*
X149918745Y-92574536D01*
X149934300Y-92568093D01*
X149971339Y-92564464D01*
X149971944Y-92564584D01*
X149979164Y-92566472D01*
X150150591Y-92622171D01*
X150329454Y-92650500D01*
X150329457Y-92650500D01*
X150510543Y-92650500D01*
X150510546Y-92650500D01*
X150689409Y-92622171D01*
X150861639Y-92566211D01*
X150862958Y-92565539D01*
X151022987Y-92484000D01*
X151022989Y-92483998D01*
X151022994Y-92483996D01*
X151169501Y-92377553D01*
X151297553Y-92249501D01*
X151403996Y-92102994D01*
X151449843Y-92013016D01*
X151486207Y-91941647D01*
X151486207Y-91941646D01*
X151486211Y-91941639D01*
X151486214Y-91941627D01*
X151486437Y-91941191D01*
X151486969Y-91939303D01*
X151542171Y-91769409D01*
X151570500Y-91590546D01*
X151570500Y-91409454D01*
X151542171Y-91230591D01*
X151486211Y-91058361D01*
X151486208Y-91058356D01*
X151486207Y-91058352D01*
X151485209Y-91056393D01*
X151485208Y-91056390D01*
X151404005Y-90897019D01*
X151404003Y-90897017D01*
X151404001Y-90897014D01*
X151404000Y-90897012D01*
X151403995Y-90897005D01*
X151353884Y-90828032D01*
X151297553Y-90750499D01*
X151169501Y-90622447D01*
X151022994Y-90516004D01*
X151022987Y-90515999D01*
X151022981Y-90515995D01*
X151022979Y-90515993D01*
X150861661Y-90433798D01*
X150861649Y-90433793D01*
X150861647Y-90433792D01*
X150861639Y-90433789D01*
X150689409Y-90377829D01*
X150689402Y-90377827D01*
X150689400Y-90377826D01*
X150689395Y-90377825D01*
X150572736Y-90359349D01*
X150528952Y-90352415D01*
X150510546Y-90349500D01*
X150510545Y-90349500D01*
X150329455Y-90349500D01*
X150329454Y-90349500D01*
X150322751Y-90350561D01*
X150273722Y-90358325D01*
X150273723Y-90358326D01*
X150150603Y-90377825D01*
X150150597Y-90377827D01*
X150150590Y-90377829D01*
X150138630Y-90381715D01*
X149978359Y-90433789D01*
X149978337Y-90433798D01*
X149817019Y-90515993D01*
X149817017Y-90515995D01*
X149817006Y-90516003D01*
X149670497Y-90622447D01*
X149542447Y-90750497D01*
X149436015Y-90896989D01*
X149435995Y-90897017D01*
X149435993Y-90897019D01*
X149353798Y-91058337D01*
X149353789Y-91058359D01*
X149297825Y-91230603D01*
X149273213Y-91386010D01*
X149269500Y-91409456D01*
X149269500Y-91590543D01*
X149269892Y-91593016D01*
X149297825Y-91769395D01*
X149297826Y-91769400D01*
X149297827Y-91769402D01*
X149297829Y-91769409D01*
X149351331Y-91934077D01*
X149354463Y-91953853D01*
X149354462Y-91972635D01*
X149335717Y-92017887D01*
X148949522Y-92404083D01*
X148896793Y-92495411D01*
X148894613Y-92503551D01*
X148894612Y-92503553D01*
X148869500Y-92597266D01*
X148869500Y-93235363D01*
X148864625Y-93259862D01*
X148861988Y-93266226D01*
X148827347Y-93300858D01*
X148778371Y-93300855D01*
X148772270Y-93298328D01*
X148751510Y-93284456D01*
X148629501Y-93162447D01*
X148482994Y-93056004D01*
X148482981Y-93055995D01*
X148482979Y-93055993D01*
X148321661Y-92973798D01*
X148321649Y-92973793D01*
X148321647Y-92973792D01*
X148321639Y-92973789D01*
X148149409Y-92917829D01*
X148149402Y-92917827D01*
X148149400Y-92917826D01*
X148149395Y-92917825D01*
X148032736Y-92899349D01*
X147999497Y-92894085D01*
X147970546Y-92889500D01*
X147970545Y-92889500D01*
X147789455Y-92889500D01*
X147789454Y-92889500D01*
X147782751Y-92890561D01*
X147733722Y-92898325D01*
X147733723Y-92898326D01*
X147610603Y-92917825D01*
X147610597Y-92917827D01*
X147610590Y-92917829D01*
X147540335Y-92940655D01*
X147438359Y-92973789D01*
X147438341Y-92973796D01*
X147277028Y-93055991D01*
X147276997Y-93056007D01*
X147269226Y-93060448D01*
X147266061Y-93063956D01*
X147251608Y-93074457D01*
X147251607Y-93074458D01*
X147242418Y-93081134D01*
X147219740Y-93091588D01*
X147210984Y-93093690D01*
X147162603Y-93086027D01*
X147135173Y-93051222D01*
X147133626Y-93046463D01*
X147130500Y-93026702D01*
X147130500Y-92855130D01*
X147135369Y-92830645D01*
X147144375Y-92808903D01*
X147158242Y-92788149D01*
X147243665Y-92702727D01*
X147357981Y-92588409D01*
X147378745Y-92574536D01*
X147394300Y-92568093D01*
X147431339Y-92564464D01*
X147431944Y-92564584D01*
X147439164Y-92566472D01*
X147610591Y-92622171D01*
X147789454Y-92650500D01*
X147789457Y-92650500D01*
X147970543Y-92650500D01*
X147970546Y-92650500D01*
X148149409Y-92622171D01*
X148321639Y-92566211D01*
X148322958Y-92565539D01*
X148482987Y-92484000D01*
X148482989Y-92483998D01*
X148482994Y-92483996D01*
X148629501Y-92377553D01*
X148757553Y-92249501D01*
X148863996Y-92102994D01*
X148909843Y-92013016D01*
X148946207Y-91941647D01*
X148946207Y-91941646D01*
X148946211Y-91941639D01*
X148946214Y-91941627D01*
X148946437Y-91941191D01*
X148946969Y-91939303D01*
X149002171Y-91769409D01*
X149030500Y-91590546D01*
X149030500Y-91409454D01*
X149002171Y-91230591D01*
X148946211Y-91058361D01*
X148946208Y-91058356D01*
X148946207Y-91058352D01*
X148945209Y-91056393D01*
X148945208Y-91056390D01*
X148864005Y-90897019D01*
X148864003Y-90897017D01*
X148864001Y-90897014D01*
X148864000Y-90897012D01*
X148863995Y-90897005D01*
X148813884Y-90828032D01*
X148757553Y-90750499D01*
X148629501Y-90622447D01*
X148482994Y-90516004D01*
X148482987Y-90515999D01*
X148482981Y-90515995D01*
X148482979Y-90515993D01*
X148321661Y-90433798D01*
X148321649Y-90433793D01*
X148321647Y-90433792D01*
X148321639Y-90433789D01*
X148149409Y-90377829D01*
X148149402Y-90377827D01*
X148149400Y-90377826D01*
X148149395Y-90377825D01*
X148032736Y-90359349D01*
X147988952Y-90352415D01*
X147970546Y-90349500D01*
X147970545Y-90349500D01*
X147789455Y-90349500D01*
X147789454Y-90349500D01*
X147782751Y-90350561D01*
X147733722Y-90358325D01*
X147733723Y-90358326D01*
X147610603Y-90377825D01*
X147610597Y-90377827D01*
X147610590Y-90377829D01*
X147598630Y-90381715D01*
X147438359Y-90433789D01*
X147438337Y-90433798D01*
X147277019Y-90515993D01*
X147277017Y-90515995D01*
X147277006Y-90516003D01*
X147130497Y-90622447D01*
X147002447Y-90750497D01*
X146896015Y-90896989D01*
X146895995Y-90897017D01*
X146895993Y-90897019D01*
X146813798Y-91058337D01*
X146813789Y-91058359D01*
X146757825Y-91230603D01*
X146733213Y-91386010D01*
X146729500Y-91409456D01*
X146729500Y-91590543D01*
X146729892Y-91593016D01*
X146757825Y-91769395D01*
X146757826Y-91769400D01*
X146757827Y-91769402D01*
X146757829Y-91769409D01*
X146811331Y-91934077D01*
X146814463Y-91953853D01*
X146814462Y-91972635D01*
X146795717Y-92017887D01*
X146608754Y-92204851D01*
X146587990Y-92218724D01*
X146581626Y-92221360D01*
X146532643Y-92221360D01*
X146498007Y-92186723D01*
X146495371Y-92180359D01*
X146490499Y-92155868D01*
X146490499Y-90605141D01*
X146490499Y-90605136D01*
X146487585Y-90580009D01*
X146442206Y-90477235D01*
X146362765Y-90397794D01*
X146259991Y-90352415D01*
X146234865Y-90349500D01*
X146234864Y-90349500D01*
X144445138Y-90349500D01*
X144445095Y-90349505D01*
X144420006Y-90352415D01*
X144353648Y-90381716D01*
X144353647Y-90381715D01*
X144317238Y-90397792D01*
X144317235Y-90397794D01*
X144237794Y-90477235D01*
X144192415Y-90580009D01*
X144189500Y-90605135D01*
X144189500Y-92044867D01*
X144184628Y-92069356D01*
X144175627Y-92091089D01*
X144161754Y-92111851D01*
X143379522Y-92894083D01*
X143365815Y-92917825D01*
X143333499Y-92973798D01*
X143326792Y-92985414D01*
X143324697Y-92993230D01*
X143324681Y-92993292D01*
X143299500Y-93087271D01*
X143299500Y-95052729D01*
X143325758Y-95150731D01*
X143325761Y-95150739D01*
X143326791Y-95154583D01*
X143326791Y-95154584D01*
X143326792Y-95154586D01*
X143326793Y-95154588D01*
X143331171Y-95162171D01*
X143339889Y-95177272D01*
X143379520Y-95245913D01*
X147171754Y-99038147D01*
X147185625Y-99058907D01*
X147194629Y-99080643D01*
X147199500Y-99105131D01*
X147199500Y-111452729D01*
X147225758Y-111550731D01*
X147225761Y-111550739D01*
X147226791Y-111554583D01*
X147226791Y-111554584D01*
X147226792Y-111554586D01*
X147226793Y-111554588D01*
X147265103Y-111620943D01*
X147265104Y-111620944D01*
X147265103Y-111620944D01*
X147279519Y-111645911D01*
X147279522Y-111645915D01*
X151650931Y-116017323D01*
X151656452Y-116023619D01*
X151661513Y-116030215D01*
X151666162Y-116037173D01*
X151692028Y-116081974D01*
X151696556Y-116089815D01*
X151784435Y-116177694D01*
X151892065Y-116239834D01*
X151892067Y-116239834D01*
X151892068Y-116239835D01*
X151910848Y-116244867D01*
X151955495Y-116256830D01*
X152012105Y-116271999D01*
X152012107Y-116271999D01*
X152012110Y-116272000D01*
X152012113Y-116272000D01*
X153524887Y-116272000D01*
X153524890Y-116272000D01*
X153644935Y-116239834D01*
X153752565Y-116177694D01*
X153840444Y-116089815D01*
X153902584Y-115982185D01*
X153934750Y-115862140D01*
X153934750Y-115737860D01*
X153902584Y-115617815D01*
X153844996Y-115518071D01*
X153836972Y-115494429D01*
X153834608Y-115476475D01*
X153842633Y-115436122D01*
X153902584Y-115332285D01*
X153934750Y-115212240D01*
X153934750Y-115087960D01*
X153902584Y-114967915D01*
X153844968Y-114868121D01*
X153836943Y-114844478D01*
X153834579Y-114826525D01*
X153842604Y-114786173D01*
X153902584Y-114682285D01*
X153934750Y-114562240D01*
X153934750Y-114437960D01*
X153902584Y-114317915D01*
X153844968Y-114218121D01*
X153836943Y-114194478D01*
X153834579Y-114176525D01*
X153842604Y-114136173D01*
X153902584Y-114032285D01*
X153934750Y-113912240D01*
X153934750Y-113787960D01*
X153902584Y-113667915D01*
X153844968Y-113568121D01*
X153836943Y-113544478D01*
X153834579Y-113526525D01*
X153842604Y-113486173D01*
X153902584Y-113382285D01*
X153934750Y-113262240D01*
X153934750Y-113137960D01*
X153902584Y-113017915D01*
X153844910Y-112918020D01*
X153836885Y-112894379D01*
X153834521Y-112876424D01*
X153842546Y-112836073D01*
X153902584Y-112732085D01*
X153934750Y-112612040D01*
X153934750Y-112487760D01*
X153902584Y-112367715D01*
X153840444Y-112260085D01*
X153752565Y-112172206D01*
X153645746Y-112110534D01*
X153644997Y-112110086D01*
X153644934Y-112110065D01*
X153644931Y-112110064D01*
X153644925Y-112110062D01*
X153644902Y-112110055D01*
X153524920Y-112077906D01*
X153524893Y-112077900D01*
X153524892Y-112077900D01*
X153524890Y-112077900D01*
X153524887Y-112077900D01*
X152083532Y-112077900D01*
X152059041Y-112073028D01*
X152037309Y-112064026D01*
X152016547Y-112050154D01*
X150128245Y-110161852D01*
X150114374Y-110141092D01*
X150105370Y-110119354D01*
X150100500Y-110094868D01*
X150100500Y-109534131D01*
X150105372Y-109509640D01*
X150108008Y-109503276D01*
X150142644Y-109468639D01*
X150191626Y-109468639D01*
X150197991Y-109471275D01*
X150218755Y-109485148D01*
X151653987Y-110920380D01*
X151745312Y-110973107D01*
X151791633Y-110985517D01*
X151799562Y-110988210D01*
X151807224Y-110991384D01*
X151814729Y-110995084D01*
X151884731Y-111035500D01*
X151892067Y-111039735D01*
X151965530Y-111059419D01*
X151986066Y-111064921D01*
X152012105Y-111071899D01*
X152012107Y-111071899D01*
X152012110Y-111071900D01*
X152012113Y-111071900D01*
X153524887Y-111071900D01*
X153524890Y-111071900D01*
X153644935Y-111039734D01*
X153752565Y-110977594D01*
X153840444Y-110889715D01*
X153902584Y-110782085D01*
X153902585Y-110782081D01*
X153902586Y-110782080D01*
X153922760Y-110706784D01*
X153934750Y-110662040D01*
X153934750Y-110537760D01*
X153902584Y-110417715D01*
X153844968Y-110317921D01*
X153836943Y-110294278D01*
X153834579Y-110276325D01*
X153842604Y-110235973D01*
X153902584Y-110132085D01*
X153934750Y-110012040D01*
X153934750Y-109887760D01*
X153902584Y-109767715D01*
X153844968Y-109667921D01*
X153836943Y-109644278D01*
X153834579Y-109626325D01*
X153842604Y-109585973D01*
X153902584Y-109482085D01*
X153934750Y-109362040D01*
X153934750Y-109237760D01*
X153902584Y-109117715D01*
X153844996Y-109017971D01*
X153836972Y-108994329D01*
X153834608Y-108976375D01*
X153842633Y-108936022D01*
X153902584Y-108832185D01*
X153934750Y-108712140D01*
X153934750Y-108587860D01*
X153902584Y-108467815D01*
X153844968Y-108368021D01*
X153836943Y-108344378D01*
X153834579Y-108326425D01*
X153842604Y-108286073D01*
X153902584Y-108182185D01*
X153934750Y-108062140D01*
X153934750Y-107937860D01*
X153902584Y-107817815D01*
X153840444Y-107710185D01*
X153752565Y-107622306D01*
X153645746Y-107560634D01*
X153644997Y-107560186D01*
X153644934Y-107560165D01*
X153644931Y-107560164D01*
X153644925Y-107560162D01*
X153644902Y-107560155D01*
X153524920Y-107528006D01*
X153524893Y-107528000D01*
X153524892Y-107528000D01*
X153524890Y-107528000D01*
X153524887Y-107528000D01*
X153505632Y-107528000D01*
X153481140Y-107523127D01*
X153474770Y-107520489D01*
X153440137Y-107485851D01*
X153440137Y-107478730D01*
X153440138Y-107436873D01*
X153442776Y-107430505D01*
X153456645Y-107409747D01*
X154438150Y-106428242D01*
X154458907Y-106414374D01*
X154480644Y-106405370D01*
X154505132Y-106400500D01*
X155322772Y-106400500D01*
X155347262Y-106405371D01*
X155356264Y-106409100D01*
X155390897Y-106443729D01*
X155394628Y-106452735D01*
X155399501Y-106477228D01*
X155399501Y-106494867D01*
X155402415Y-106519993D01*
X155407400Y-106531282D01*
X155447794Y-106622765D01*
X155527235Y-106702206D01*
X155630009Y-106747585D01*
X155655135Y-106750500D01*
X156544864Y-106750499D01*
X156569991Y-106747585D01*
X156672765Y-106702206D01*
X156752206Y-106622765D01*
X156797585Y-106519991D01*
X156800500Y-106494865D01*
X156800499Y-105905128D01*
X156805369Y-105880643D01*
X156814372Y-105858906D01*
X156828240Y-105838149D01*
X158306148Y-104360241D01*
X158326907Y-104346371D01*
X158348644Y-104337368D01*
X158373132Y-104332499D01*
X158948109Y-104332499D01*
X158948114Y-104332499D01*
X158973241Y-104329585D01*
X159076015Y-104284206D01*
X159155456Y-104204765D01*
X159164534Y-104184206D01*
X159189711Y-104127182D01*
X159204054Y-104106751D01*
X159209521Y-104101531D01*
X159255192Y-104083836D01*
X159298972Y-104102564D01*
X159303488Y-104107080D01*
X159316779Y-104126483D01*
X159319703Y-104133105D01*
X159319703Y-104133107D01*
X159319704Y-104133107D01*
X159351344Y-104204765D01*
X159430785Y-104284206D01*
X159533559Y-104329585D01*
X159558685Y-104332500D01*
X160454914Y-104332499D01*
X160480041Y-104329585D01*
X160582815Y-104284206D01*
X160662256Y-104204765D01*
X160707635Y-104101991D01*
X160710550Y-104076865D01*
X160710549Y-103501878D01*
X160715419Y-103477393D01*
X160724422Y-103455656D01*
X160738290Y-103434900D01*
X162944949Y-101228243D01*
X162965707Y-101214374D01*
X162987444Y-101205370D01*
X163011932Y-101200500D01*
X163944573Y-101200500D01*
X163969060Y-101205370D01*
X163982483Y-101210930D01*
X164013419Y-101238060D01*
X164014909Y-101240641D01*
X164016827Y-101245272D01*
X164017120Y-101245565D01*
X164017120Y-101245979D01*
X164021301Y-101256074D01*
X164038974Y-101322028D01*
X164038984Y-101322064D01*
X164069504Y-101395744D01*
X164135331Y-101509760D01*
X164135388Y-101509842D01*
X164135736Y-101510287D01*
X164178567Y-101566105D01*
X164183632Y-101572705D01*
X164183831Y-101572968D01*
X164183877Y-101573025D01*
X164208200Y-101597348D01*
X164222073Y-101618111D01*
X164225801Y-101627111D01*
X164225801Y-101676094D01*
X164225795Y-101676109D01*
X164225509Y-101676799D01*
X164198401Y-101707711D01*
X164195820Y-101709202D01*
X164180372Y-101715602D01*
X164154101Y-101722641D01*
X164138614Y-101726791D01*
X164138612Y-101726792D01*
X164047287Y-101779518D01*
X164047285Y-101779520D01*
X163087050Y-102739754D01*
X163066288Y-102753626D01*
X163044555Y-102762628D01*
X163020066Y-102767500D01*
X162445088Y-102767500D01*
X162445045Y-102767505D01*
X162419956Y-102770415D01*
X162342877Y-102804449D01*
X162317186Y-102815793D01*
X162317184Y-102815794D01*
X162237744Y-102895235D01*
X162192365Y-102998009D01*
X162189450Y-103023135D01*
X162189450Y-103804917D01*
X162184578Y-103829406D01*
X162184550Y-103829477D01*
X162175577Y-103851139D01*
X162161704Y-103871901D01*
X159679522Y-106354083D01*
X159679521Y-106354085D01*
X159626791Y-106445415D01*
X159626791Y-106445416D01*
X159613542Y-106494865D01*
X159606810Y-106519991D01*
X159606809Y-106519990D01*
X159603786Y-106531277D01*
X159603785Y-106531282D01*
X159602356Y-106536612D01*
X159599500Y-106547271D01*
X159599500Y-108010617D01*
X159594628Y-108035106D01*
X159585627Y-108056839D01*
X159571754Y-108077601D01*
X159459945Y-108189409D01*
X159439184Y-108203281D01*
X159425755Y-108208844D01*
X159384715Y-108211541D01*
X159358728Y-108204586D01*
X159356452Y-108204810D01*
X159256420Y-108178007D01*
X159256393Y-108178000D01*
X159256392Y-108178000D01*
X159256390Y-108178000D01*
X157743610Y-108178000D01*
X157743608Y-108178000D01*
X157743607Y-108178000D01*
X157743602Y-108178001D01*
X157701028Y-108189409D01*
X157631709Y-108207983D01*
X157631704Y-108207983D01*
X157631705Y-108207984D01*
X157623567Y-108210164D01*
X157515931Y-108272308D01*
X157428058Y-108360181D01*
X157365914Y-108467817D01*
X157363734Y-108475955D01*
X157363733Y-108475954D01*
X157363733Y-108475958D01*
X157333751Y-108587851D01*
X157333750Y-108587855D01*
X157333750Y-108712143D01*
X157333751Y-108712147D01*
X157363733Y-108824040D01*
X157363734Y-108824044D01*
X157365914Y-108832181D01*
X157423500Y-108931924D01*
X157431527Y-108955571D01*
X157433891Y-108973528D01*
X157425864Y-109013881D01*
X157365914Y-109117718D01*
X157363733Y-109125859D01*
X157333751Y-109237751D01*
X157333750Y-109237755D01*
X157333750Y-109362043D01*
X157333751Y-109362047D01*
X157364093Y-109475286D01*
X157365914Y-109482080D01*
X157365914Y-109482081D01*
X157365915Y-109482084D01*
X157365916Y-109482085D01*
X157368718Y-109486938D01*
X157368720Y-109486943D01*
X157409067Y-109556825D01*
X157418640Y-109573407D01*
X157423528Y-109581872D01*
X157431556Y-109605520D01*
X157433920Y-109623479D01*
X157425893Y-109663831D01*
X157365914Y-109767718D01*
X157363733Y-109775859D01*
X157333751Y-109887751D01*
X157333750Y-109887755D01*
X157333750Y-110012043D01*
X157333751Y-110012047D01*
X157359353Y-110107597D01*
X157365914Y-110132080D01*
X157365914Y-110132081D01*
X157365915Y-110132084D01*
X157365916Y-110132085D01*
X157423529Y-110231875D01*
X157431556Y-110255520D01*
X157433920Y-110273478D01*
X157425893Y-110313831D01*
X157365914Y-110417718D01*
X157363733Y-110425859D01*
X157333751Y-110537751D01*
X157333750Y-110537755D01*
X157333750Y-110662043D01*
X157333751Y-110662047D01*
X157362792Y-110770431D01*
X157365914Y-110782080D01*
X157365914Y-110782081D01*
X157365915Y-110782084D01*
X157365916Y-110782085D01*
X157394610Y-110831784D01*
X157423529Y-110881874D01*
X157431556Y-110905521D01*
X157433920Y-110923478D01*
X157425893Y-110963831D01*
X157365914Y-111067718D01*
X157363733Y-111075859D01*
X157333751Y-111187751D01*
X157333750Y-111187755D01*
X157333750Y-111312043D01*
X157333751Y-111312047D01*
X157339223Y-111332470D01*
X157365914Y-111432080D01*
X157365914Y-111432081D01*
X157365915Y-111432084D01*
X157365916Y-111432085D01*
X157423529Y-111531875D01*
X157431556Y-111555520D01*
X157433920Y-111573478D01*
X157425893Y-111613831D01*
X157365914Y-111717718D01*
X157363733Y-111725859D01*
X157333751Y-111837751D01*
X157333750Y-111837755D01*
X157333750Y-111962043D01*
X157333751Y-111962047D01*
X157363488Y-112073028D01*
X157365914Y-112082080D01*
X157365914Y-112082081D01*
X157365915Y-112082084D01*
X157365916Y-112082085D01*
X157417947Y-112172206D01*
X157417948Y-112172207D01*
X157423529Y-112181874D01*
X157431556Y-112205520D01*
X157433920Y-112223478D01*
X157425893Y-112263831D01*
X157365914Y-112367718D01*
X157363733Y-112375859D01*
X157333751Y-112487751D01*
X157333750Y-112487755D01*
X157333750Y-112612043D01*
X157333751Y-112612047D01*
X157354483Y-112689422D01*
X157365914Y-112732080D01*
X157365914Y-112732081D01*
X157365915Y-112732084D01*
X157365916Y-112732085D01*
X157368715Y-112736934D01*
X157368718Y-112736940D01*
X157401698Y-112794063D01*
X157423586Y-112831973D01*
X157431614Y-112855623D01*
X157433977Y-112873578D01*
X157427209Y-112907616D01*
X157428346Y-112908043D01*
X157428343Y-112908051D01*
X157426236Y-112912511D01*
X157425958Y-112913914D01*
X157423852Y-112917564D01*
X157423850Y-112917565D01*
X157423844Y-112917579D01*
X157391196Y-112974127D01*
X157391195Y-112974126D01*
X157365913Y-113017918D01*
X157363733Y-113026056D01*
X157363733Y-113026058D01*
X157333751Y-113137951D01*
X157333750Y-113137955D01*
X157333750Y-113262243D01*
X157333751Y-113262246D01*
X157365914Y-113382280D01*
X157365914Y-113382281D01*
X157365915Y-113382284D01*
X157365916Y-113382285D01*
X157368716Y-113387135D01*
X157368719Y-113387142D01*
X157369526Y-113388539D01*
X157369529Y-113388543D01*
X157423529Y-113482074D01*
X157431556Y-113505721D01*
X157433920Y-113523678D01*
X157425893Y-113564031D01*
X157365914Y-113667918D01*
X157363733Y-113676059D01*
X157333751Y-113787951D01*
X157333750Y-113787955D01*
X157333750Y-113912243D01*
X157333751Y-113912247D01*
X157363733Y-114024140D01*
X157363734Y-114024144D01*
X157365914Y-114032281D01*
X157423529Y-114132074D01*
X157431555Y-114155720D01*
X157433919Y-114173675D01*
X157426590Y-114210503D01*
X157427245Y-114210784D01*
X157427242Y-114210791D01*
X157426065Y-114213140D01*
X157425887Y-114214039D01*
X157423851Y-114217563D01*
X157423845Y-114217576D01*
X157415648Y-114231776D01*
X157415646Y-114231780D01*
X157365914Y-114317918D01*
X157363733Y-114326059D01*
X157333751Y-114437951D01*
X157333750Y-114437955D01*
X157333750Y-114562243D01*
X157333751Y-114562247D01*
X157339325Y-114583051D01*
X157365914Y-114682280D01*
X157365914Y-114682281D01*
X157365915Y-114682284D01*
X157365916Y-114682285D01*
X157368717Y-114687137D01*
X157368721Y-114687146D01*
X157386969Y-114718752D01*
X157386970Y-114718752D01*
X157423529Y-114782074D01*
X157431556Y-114805721D01*
X157433920Y-114823678D01*
X157425893Y-114864031D01*
X157365914Y-114967918D01*
X157363733Y-114976059D01*
X157333751Y-115087951D01*
X157333750Y-115087955D01*
X157333750Y-115212243D01*
X157333751Y-115212247D01*
X157337766Y-115227233D01*
X157365914Y-115332280D01*
X157365914Y-115332281D01*
X157365915Y-115332284D01*
X157365916Y-115332285D01*
X157368719Y-115337140D01*
X157368720Y-115337142D01*
X157379108Y-115355136D01*
X157379109Y-115355136D01*
X157423500Y-115432024D01*
X157431527Y-115455671D01*
X157433891Y-115473628D01*
X157425864Y-115513981D01*
X157365914Y-115617818D01*
X157363733Y-115625959D01*
X157333751Y-115737851D01*
X157333750Y-115737855D01*
X157333750Y-115737860D01*
X157333750Y-115737862D01*
X157333750Y-115862137D01*
X157333751Y-115862146D01*
X157340824Y-115888542D01*
X157363733Y-115974040D01*
X157363734Y-115974044D01*
X157365914Y-115982181D01*
X157423529Y-116081974D01*
X157431556Y-116105621D01*
X157433920Y-116123578D01*
X157425893Y-116163931D01*
X157365914Y-116267818D01*
X157363733Y-116275959D01*
X157333751Y-116387851D01*
X157333750Y-116387855D01*
X157333750Y-116512143D01*
X157333751Y-116512147D01*
X157345033Y-116554253D01*
X157365914Y-116632180D01*
X157365914Y-116632181D01*
X157365915Y-116632184D01*
X157365916Y-116632185D01*
X157428056Y-116739815D01*
X157515935Y-116827694D01*
X157623565Y-116889834D01*
X157623567Y-116889834D01*
X157623568Y-116889835D01*
X157697030Y-116909519D01*
X157717566Y-116915021D01*
X157743605Y-116921999D01*
X157743607Y-116921999D01*
X157743610Y-116922000D01*
X158022771Y-116922000D01*
X158047261Y-116926871D01*
X158056263Y-116930600D01*
X158090896Y-116965229D01*
X158094627Y-116974235D01*
X158099500Y-116998728D01*
X158099500Y-117511453D01*
X158094628Y-117535942D01*
X158088424Y-117550922D01*
X158088175Y-117551524D01*
X158054900Y-117585577D01*
X158042356Y-117591116D01*
X158027237Y-117597792D01*
X157947794Y-117677235D01*
X157902415Y-117780009D01*
X157899500Y-117805135D01*
X157899500Y-118794860D01*
X157899505Y-118794903D01*
X157902415Y-118819992D01*
X157925104Y-118871378D01*
X157925103Y-118871378D01*
X157942874Y-118911623D01*
X157947794Y-118922765D01*
X158027235Y-119002206D01*
X158130009Y-119047585D01*
X158155135Y-119050500D01*
X159044864Y-119050499D01*
X159069991Y-119047585D01*
X159172765Y-119002206D01*
X159245751Y-118929219D01*
X159266506Y-118915353D01*
X159275514Y-118911622D01*
X159324487Y-118911622D01*
X159333494Y-118915353D01*
X159354253Y-118929224D01*
X159427235Y-119002206D01*
X159530009Y-119047585D01*
X159555135Y-119050500D01*
X160444864Y-119050499D01*
X160469991Y-119047585D01*
X160572765Y-119002206D01*
X160652206Y-118922765D01*
X160697585Y-118819991D01*
X160700500Y-118794865D01*
X160700499Y-117805136D01*
X160697585Y-117780009D01*
X160694386Y-117772765D01*
X160689243Y-117761116D01*
X160652206Y-117677235D01*
X160572765Y-117597794D01*
X160481390Y-117557448D01*
X160469994Y-117552416D01*
X160469981Y-117552412D01*
X160466692Y-117551878D01*
X160445807Y-117544617D01*
X160435619Y-117538942D01*
X160406318Y-117504065D01*
X160404055Y-117497562D01*
X160400500Y-117476528D01*
X160400500Y-116734131D01*
X160405372Y-116709640D01*
X160408008Y-116703276D01*
X160442644Y-116668639D01*
X160491626Y-116668639D01*
X160497991Y-116671275D01*
X160518755Y-116685148D01*
X160979519Y-117145912D01*
X160979520Y-117145913D01*
X161054087Y-117220480D01*
X161145413Y-117273207D01*
X161145414Y-117273207D01*
X161145416Y-117273208D01*
X161247271Y-117300500D01*
X161247272Y-117300500D01*
X161247273Y-117300500D01*
X161272772Y-117300500D01*
X161297262Y-117305371D01*
X161306264Y-117309100D01*
X161340897Y-117343729D01*
X161344628Y-117352735D01*
X161349501Y-117377228D01*
X161349501Y-117644870D01*
X161350147Y-117650439D01*
X161352415Y-117669993D01*
X161365886Y-117700500D01*
X161397794Y-117772765D01*
X161477235Y-117852206D01*
X161580009Y-117897585D01*
X161605135Y-117900500D01*
X162594864Y-117900499D01*
X162619991Y-117897585D01*
X162722765Y-117852206D01*
X162802206Y-117772765D01*
X162847585Y-117669991D01*
X162850500Y-117644865D01*
X162850499Y-116755136D01*
X162847585Y-116730009D01*
X162802206Y-116627235D01*
X162729224Y-116554253D01*
X162715353Y-116533494D01*
X162711623Y-116524487D01*
X162711623Y-116500392D01*
X162711622Y-116475514D01*
X162715353Y-116466506D01*
X162729219Y-116445751D01*
X162800726Y-116374244D01*
X162845980Y-116355500D01*
X163354020Y-116355500D01*
X163399273Y-116374244D01*
X163477235Y-116452206D01*
X163580009Y-116497585D01*
X163605135Y-116500500D01*
X164594864Y-116500499D01*
X164619991Y-116497585D01*
X164722765Y-116452206D01*
X164800726Y-116374244D01*
X164845980Y-116355500D01*
X164951751Y-116355500D01*
X164977294Y-116360818D01*
X165022942Y-116380689D01*
X165048184Y-116388101D01*
X165090778Y-116397367D01*
X165125713Y-116402390D01*
X165151634Y-116403043D01*
X165161768Y-116404112D01*
X165169192Y-116405500D01*
X169631035Y-116405500D01*
X169676290Y-116424245D01*
X169695035Y-116469500D01*
X169695035Y-116469528D01*
X169693585Y-119794076D01*
X169693585Y-119794077D01*
X169693583Y-119799867D01*
X169693583Y-119799874D01*
X169693576Y-119815574D01*
X169689946Y-128136868D01*
X169671181Y-128182115D01*
X169625918Y-128200840D01*
X159892876Y-128196596D01*
X159276755Y-128196328D01*
X159276743Y-128196328D01*
X159276741Y-128196327D01*
X159255045Y-128196319D01*
X159254942Y-128196319D01*
X159254929Y-128196319D01*
X159254922Y-128196319D01*
X148995494Y-128192766D01*
X148950245Y-128174005D01*
X148939444Y-128159619D01*
X148926925Y-128136868D01*
X144337810Y-119796714D01*
X143013428Y-117389812D01*
X143005500Y-117358959D01*
X143005500Y-110875327D01*
X143005499Y-110875296D01*
X143004835Y-110863062D01*
X143003705Y-110842246D01*
X143000800Y-110815564D01*
X142995439Y-110782893D01*
X142993710Y-110775046D01*
X142968009Y-110702957D01*
X142968005Y-110702949D01*
X142968000Y-110702938D01*
X142940204Y-110647953D01*
X142940195Y-110647938D01*
X142897360Y-110584475D01*
X142897349Y-110584462D01*
X142896269Y-110583229D01*
X142830265Y-110526653D01*
X142830262Y-110526651D01*
X142771295Y-110489196D01*
X142771284Y-110489191D01*
X142692028Y-110453501D01*
X142692023Y-110453499D01*
X142680122Y-110450072D01*
X142680085Y-110450062D01*
X142679806Y-110449982D01*
X142676913Y-110449150D01*
X142676909Y-110449149D01*
X142676905Y-110449148D01*
X142634339Y-110440131D01*
X142634334Y-110440130D01*
X142634328Y-110440129D01*
X142599390Y-110435295D01*
X142599381Y-110435294D01*
X142555921Y-110432416D01*
X142555903Y-110432416D01*
X138014219Y-110456384D01*
X138014202Y-110456384D01*
X138014198Y-110456385D01*
X137981466Y-110458318D01*
X137981464Y-110458318D01*
X137981450Y-110458319D01*
X137955063Y-110461304D01*
X137955051Y-110461305D01*
X137922707Y-110466737D01*
X137915075Y-110468445D01*
X137843380Y-110494220D01*
X137843375Y-110494222D01*
X137788671Y-110522020D01*
X137725491Y-110564816D01*
X137725489Y-110564817D01*
X137724137Y-110566005D01*
X137724129Y-110566013D01*
X137667640Y-110632073D01*
X137667638Y-110632076D01*
X137630250Y-110691091D01*
X137630248Y-110691095D01*
X137594642Y-110770423D01*
X137594637Y-110770437D01*
X137590337Y-110785438D01*
X137590332Y-110785461D01*
X137581345Y-110828108D01*
X137581344Y-110828113D01*
X137576553Y-110863042D01*
X137576550Y-110863070D01*
X137573723Y-110906559D01*
X134600000Y-110906559D01*
X134600000Y-91881976D01*
X136199500Y-91881976D01*
X136199500Y-92118022D01*
X136230304Y-92352003D01*
X136230306Y-92352014D01*
X136230310Y-92352031D01*
X136291392Y-92579990D01*
X136291392Y-92579991D01*
X136381715Y-92798048D01*
X136499727Y-93002451D01*
X136540820Y-93056004D01*
X136540819Y-93056004D01*
X136643399Y-93189688D01*
X136643402Y-93189692D01*
X136643408Y-93189699D01*
X136810301Y-93356592D01*
X136915077Y-93436989D01*
X136915099Y-93437006D01*
X136997540Y-93500266D01*
X136997545Y-93500270D01*
X136997547Y-93500271D01*
X137201949Y-93618283D01*
X137420006Y-93708606D01*
X137647977Y-93769691D01*
X137647991Y-93769694D01*
X137790680Y-93788479D01*
X137881989Y-93800500D01*
X138118011Y-93800500D01*
X138118013Y-93800500D01*
X138118015Y-93800499D01*
X138262924Y-93781421D01*
X138347863Y-93770239D01*
X138349844Y-93770109D01*
X138350134Y-93770054D01*
X138351997Y-93769752D01*
X138354688Y-93768985D01*
X138354813Y-93768999D01*
X138355684Y-93768710D01*
X138435257Y-93747388D01*
X138579993Y-93708606D01*
X138798049Y-93618284D01*
X139002450Y-93500273D01*
X139189699Y-93356592D01*
X139356592Y-93189699D01*
X139500273Y-93002450D01*
X139618284Y-92798049D01*
X139708606Y-92579993D01*
X139729088Y-92503553D01*
X139731269Y-92495414D01*
X139731269Y-92495413D01*
X139742343Y-92454085D01*
X139769691Y-92352022D01*
X139769694Y-92352008D01*
X139783189Y-92249501D01*
X139800500Y-92118011D01*
X139800500Y-91881989D01*
X139769693Y-91647986D01*
X139754301Y-91590543D01*
X139754300Y-91590541D01*
X139739069Y-91533697D01*
X139708606Y-91420006D01*
X139644737Y-91265815D01*
X139618284Y-91201951D01*
X139500273Y-90997550D01*
X139500265Y-90997540D01*
X139423131Y-90897017D01*
X139356592Y-90810301D01*
X139189699Y-90643408D01*
X139189692Y-90643402D01*
X139189688Y-90643399D01*
X139023664Y-90516004D01*
X139023662Y-90516003D01*
X139002452Y-90499728D01*
X138798050Y-90381716D01*
X138788662Y-90377827D01*
X138579991Y-90291392D01*
X138352031Y-90230310D01*
X138352014Y-90230306D01*
X138352003Y-90230304D01*
X138118022Y-90199500D01*
X138118016Y-90199500D01*
X138118011Y-90199500D01*
X137881989Y-90199500D01*
X137881983Y-90199500D01*
X137881976Y-90199500D01*
X137647995Y-90230304D01*
X137647984Y-90230306D01*
X137647967Y-90230310D01*
X137420008Y-90291392D01*
X137420007Y-90291392D01*
X137201950Y-90381715D01*
X136997545Y-90499728D01*
X136997540Y-90499732D01*
X136810312Y-90643398D01*
X136810302Y-90643407D01*
X136643407Y-90810302D01*
X136643398Y-90810312D01*
X136499732Y-90997540D01*
X136499728Y-90997545D01*
X136381715Y-91201950D01*
X136291392Y-91420007D01*
X136291392Y-91420008D01*
X136230310Y-91647967D01*
X136230306Y-91647984D01*
X136230304Y-91647995D01*
X136199500Y-91881976D01*
X134600000Y-91881976D01*
X134600000Y-91639238D01*
X134604869Y-91614753D01*
X134613875Y-91593011D01*
X134627742Y-91572257D01*
X137572257Y-88627742D01*
X137593014Y-88613874D01*
X137614751Y-88604870D01*
X137639239Y-88600000D01*
X180360761Y-88600000D01*
X180385247Y-88604870D01*
G37*
%TD.AperFunction*%
%TD*%
%TA.AperFunction,Conductor*%
%TO.N,PGND*%
G36*
X166273366Y-109519685D02*
G01*
X166284034Y-109527369D01*
X167866589Y-110800000D01*
X167866590Y-110800000D01*
X169876000Y-110800000D01*
X169943039Y-110819685D01*
X169988794Y-110872489D01*
X170000000Y-110924000D01*
X170000000Y-113776000D01*
X169980315Y-113843039D01*
X169927511Y-113888794D01*
X169876000Y-113900000D01*
X163690037Y-113900000D01*
X163622998Y-113880315D01*
X163577243Y-113827511D01*
X163570262Y-113808094D01*
X163564867Y-113787960D01*
X163559577Y-113768216D01*
X163501669Y-113667915D01*
X163480524Y-113631290D01*
X163480518Y-113631282D01*
X163368717Y-113519481D01*
X163368709Y-113519475D01*
X163231790Y-113440426D01*
X163231786Y-113440424D01*
X163231784Y-113440423D01*
X163079057Y-113399500D01*
X163079056Y-113399500D01*
X163002636Y-113399500D01*
X162970543Y-113395275D01*
X162945615Y-113388595D01*
X162912043Y-113379600D01*
X162912042Y-113379600D01*
X159624000Y-113379600D01*
X159556961Y-113359915D01*
X159511206Y-113307111D01*
X159500000Y-113255600D01*
X159500000Y-112712486D01*
X165325001Y-112712486D01*
X165335494Y-112815197D01*
X165390641Y-112981619D01*
X165390643Y-112981624D01*
X165482684Y-113130845D01*
X165606654Y-113254815D01*
X165755875Y-113346856D01*
X165755880Y-113346858D01*
X165922302Y-113402005D01*
X165922309Y-113402006D01*
X166025019Y-113412499D01*
X167249999Y-113412499D01*
X167750000Y-113412499D01*
X168974972Y-113412499D01*
X168974986Y-113412498D01*
X169077697Y-113402005D01*
X169244119Y-113346858D01*
X169244124Y-113346856D01*
X169393345Y-113254815D01*
X169517315Y-113130845D01*
X169609356Y-112981624D01*
X169609358Y-112981619D01*
X169664505Y-112815197D01*
X169664506Y-112815190D01*
X169674999Y-112712486D01*
X169675000Y-112712473D01*
X169675000Y-112550000D01*
X167750000Y-112550000D01*
X167750000Y-113412499D01*
X167249999Y-113412499D01*
X167250000Y-113412498D01*
X167250000Y-112550000D01*
X165325001Y-112550000D01*
X165325001Y-112712486D01*
X159500000Y-112712486D01*
X159500000Y-112494500D01*
X159519685Y-112427461D01*
X159572489Y-112381706D01*
X159624000Y-112370500D01*
X163861940Y-112370500D01*
X163861943Y-112370500D01*
X163981606Y-112338436D01*
X163999810Y-112327925D01*
X164018542Y-112317112D01*
X164031614Y-112313271D01*
X164039954Y-112307330D01*
X164067785Y-112302646D01*
X164071013Y-112301698D01*
X164070995Y-112301561D01*
X164071875Y-112301445D01*
X164074609Y-112300642D01*
X164077574Y-112300500D01*
X164079057Y-112300500D01*
X164079379Y-112300413D01*
X164085050Y-112300142D01*
X164085851Y-112300336D01*
X164090981Y-112300000D01*
X164800000Y-112300000D01*
X164800000Y-111887513D01*
X165325000Y-111887513D01*
X165325000Y-112050000D01*
X167250000Y-112050000D01*
X167750000Y-112050000D01*
X169674999Y-112050000D01*
X169674999Y-111887528D01*
X169674998Y-111887513D01*
X169664505Y-111784802D01*
X169609358Y-111618380D01*
X169609356Y-111618375D01*
X169517315Y-111469154D01*
X169393345Y-111345184D01*
X169244124Y-111253143D01*
X169244119Y-111253141D01*
X169077697Y-111197994D01*
X169077690Y-111197993D01*
X168974986Y-111187500D01*
X167750000Y-111187500D01*
X167750000Y-112050000D01*
X167250000Y-112050000D01*
X167250000Y-111187500D01*
X166025028Y-111187500D01*
X166025012Y-111187501D01*
X165922302Y-111197994D01*
X165755880Y-111253141D01*
X165755875Y-111253143D01*
X165606654Y-111345184D01*
X165482684Y-111469154D01*
X165390643Y-111618375D01*
X165390641Y-111618380D01*
X165335494Y-111784802D01*
X165335493Y-111784809D01*
X165325000Y-111887513D01*
X164800000Y-111887513D01*
X164800000Y-110400000D01*
X164799998Y-110399998D01*
X164000001Y-110000000D01*
X164000000Y-110000000D01*
X163580923Y-110000000D01*
X163579057Y-109999500D01*
X163420943Y-109999500D01*
X163419077Y-110000000D01*
X162590981Y-110000000D01*
X162583352Y-109999500D01*
X162579057Y-109999500D01*
X162420943Y-109999500D01*
X162416648Y-109999500D01*
X162409019Y-110000000D01*
X162122925Y-110000000D01*
X162055886Y-109980315D01*
X162010131Y-109927511D01*
X161998930Y-109877079D01*
X161996737Y-109625079D01*
X162015837Y-109557871D01*
X162068241Y-109511658D01*
X162120732Y-109500000D01*
X166206327Y-109500000D01*
X166273366Y-109519685D01*
G37*
%TD.AperFunction*%
%TD*%
M02*
