%TF.GenerationSoftware,KiCad,Pcbnew,10.0.3*%
%TF.CreationDate,2026-06-18T05:01:43+08:00*%
%TF.ProjectId,project,70726f6a-6563-4742-9e6b-696361645f70,rev?*%
%TF.SameCoordinates,Original*%
%TF.FileFunction,Copper,L4,Bot*%
%TF.FilePolarity,Positive*%
%FSLAX46Y46*%
G04 Gerber Fmt 4.6, Leading zero omitted, Abs format (unit mm)*
G04 Created by KiCad (PCBNEW 10.0.3) date 2026-06-18 05:01:43*
%MOMM*%
%LPD*%
G01*
G04 APERTURE LIST*
G04 Aperture macros list*
%AMRoundRect*
0 Rectangle with rounded corners*
0 $1 Rounding radius*
0 $2 $3 $4 $5 $6 $7 $8 $9 X,Y pos of 4 corners*
0 Add a 4 corners polygon primitive as box body*
4,1,4,$2,$3,$4,$5,$6,$7,$8,$9,$2,$3,0*
0 Add four circle primitives for the rounded corners*
1,1,$1+$1,$2,$3*
1,1,$1+$1,$4,$5*
1,1,$1+$1,$6,$7*
1,1,$1+$1,$8,$9*
0 Add four rect primitives between the rounded corners*
20,1,$1+$1,$2,$3,$4,$5,0*
20,1,$1+$1,$4,$5,$6,$7,0*
20,1,$1+$1,$6,$7,$8,$9,0*
20,1,$1+$1,$8,$9,$2,$3,0*%
G04 Aperture macros list end*
%TA.AperFunction,ComponentPad*%
%ADD10RoundRect,0.250001X1.149999X-1.149999X1.149999X1.149999X-1.149999X1.149999X-1.149999X-1.149999X0*%
%TD*%
%TA.AperFunction,ComponentPad*%
%ADD11C,2.800000*%
%TD*%
%TA.AperFunction,ComponentPad*%
%ADD12C,0.600000*%
%TD*%
%TA.AperFunction,ComponentPad*%
%ADD13R,1.700000X1.700000*%
%TD*%
%TA.AperFunction,ComponentPad*%
%ADD14C,1.700000*%
%TD*%
%TA.AperFunction,ViaPad*%
%ADD15C,0.400000*%
%TD*%
%TA.AperFunction,ViaPad*%
%ADD16C,0.500000*%
%TD*%
%TA.AperFunction,ViaPad*%
%ADD17C,0.600000*%
%TD*%
%TA.AperFunction,Conductor*%
%ADD18C,0.200000*%
%TD*%
%TA.AperFunction,Conductor*%
%ADD19C,0.500000*%
%TD*%
%TA.AperFunction,Conductor*%
%ADD20C,0.600000*%
%TD*%
%TA.AperFunction,Conductor*%
%ADD21C,0.300000*%
%TD*%
G04 APERTURE END LIST*
D10*
%TO.P,TB_PWR1,1*%
%TO.N,GND*%
X139500000Y-112500000D03*
D11*
%TO.P,TB_PWR1,2*%
%TO.N,VCC*%
X139500000Y-107500000D03*
%TD*%
D10*
%TO.P,P1,1*%
%TO.N,GND*%
X179000000Y-120500000D03*
D11*
%TO.P,P1,2*%
%TO.N,M1*%
X179000000Y-115500000D03*
%TO.P,P1,3*%
%TO.N,M2*%
X179000000Y-110500000D03*
%TO.P,P1,4*%
%TO.N,M3*%
X179000000Y-105500000D03*
%TO.P,P1,5*%
%TO.N,VCC*%
X179000000Y-100500000D03*
%TD*%
D12*
%TO.P,U1,*%
%TO.N,GND*%
X153500100Y-109500100D03*
X153500100Y-110500100D03*
X154500100Y-109500100D03*
X154500100Y-110500100D03*
X155500100Y-109500100D03*
X155500100Y-110500100D03*
X156500100Y-109500100D03*
X156500100Y-110500100D03*
%TD*%
D13*
%TO.P,H1,1*%
%TO.N,GND*%
X145380000Y-91730000D03*
D14*
%TO.P,H1,2*%
%TO.N,3.3V*%
X145380000Y-94270000D03*
%TO.P,H1,3*%
%TO.N,IN1*%
X147920000Y-91730000D03*
%TO.P,H1,4*%
%TO.N,EN1H*%
X147920000Y-94270000D03*
%TO.P,H1,5*%
%TO.N,IN2*%
X150460000Y-91730000D03*
%TO.P,H1,6*%
%TO.N,EN2H*%
X150460000Y-94270000D03*
%TO.P,H1,7*%
%TO.N,IN3*%
X153000000Y-91730000D03*
%TO.P,H1,8*%
%TO.N,EN3H*%
X153000000Y-94270000D03*
%TO.P,H1,9*%
%TO.N,nRes*%
X155540000Y-91730000D03*
%TO.P,H1,10*%
%TO.N,nSlp*%
X155540000Y-94270000D03*
%TO.P,H1,11*%
%TO.N,nFlt*%
X158080000Y-91730000D03*
%TO.P,H1,12*%
%TO.N,nCOMPO*%
X158080000Y-94270000D03*
%TO.P,H1,13*%
%TO.N,PGND*%
X160620000Y-91730000D03*
%TO.P,H1,14*%
%TO.N,VREF*%
X160620000Y-94270000D03*
%TD*%
D15*
%TO.N,VREF*%
X161450000Y-105750000D03*
X159850000Y-107350000D03*
X161600000Y-118150000D03*
X161600000Y-111650000D03*
D16*
%TO.N,GND*%
X155975100Y-107134400D03*
D15*
X162000000Y-125350000D03*
D16*
X162000000Y-100850900D03*
X147000000Y-116700000D03*
X155000000Y-110000000D03*
D17*
X168600000Y-113000000D03*
D16*
X150600000Y-107100000D03*
D17*
X168600000Y-93300000D03*
D16*
X143670000Y-101000000D03*
D15*
X164800000Y-129500000D03*
D16*
X148670000Y-126000000D03*
X156962500Y-123000000D03*
X159250000Y-112100000D03*
D15*
%TO.N,3.3V*%
X159500000Y-125247000D03*
D16*
X151800000Y-97750000D03*
X159400000Y-101050000D03*
X149350000Y-110800000D03*
X154200000Y-100950000D03*
X156600000Y-100900000D03*
X158150000Y-100900000D03*
X149000000Y-117950000D03*
X150250000Y-119200000D03*
X158600000Y-108550000D03*
D15*
X159500000Y-129447000D03*
%TO.N,VCC*%
X157280000Y-117450000D03*
X152700000Y-112850000D03*
X152700000Y-114050000D03*
X157280000Y-113500000D03*
D16*
%TO.N,Net-(U1-VCP)*%
X152050000Y-113500000D03*
X151700000Y-115100000D03*
%TO.N,nCOMPO*%
X155100000Y-105500000D03*
X153250000Y-103650000D03*
X152400000Y-100150000D03*
D17*
%TO.N,M1*%
X162500000Y-114700000D03*
%TO.N,M2*%
X162500000Y-112850000D03*
D16*
%TO.N,M3*%
X169200000Y-105500000D03*
X156050000Y-111850000D03*
X162300000Y-109400000D03*
X171200000Y-105500000D03*
D15*
%TO.N,Net-(U1-CP1)*%
X150100000Y-109150000D03*
X149350000Y-111650000D03*
%TO.N,Net-(U1-CP2)*%
X149650000Y-108700000D03*
X148900000Y-112100000D03*
D16*
%TO.N,PGND*%
X160850000Y-110900000D03*
X151050000Y-118400000D03*
X157950000Y-112850000D03*
X154700000Y-112600000D03*
X162050000Y-94950000D03*
X153950000Y-111850000D03*
X156650000Y-112850000D03*
%TO.N,nRes*%
X158150000Y-99400000D03*
X158950000Y-100450000D03*
%TO.N,nFlt*%
X157200000Y-103300000D03*
X158050000Y-102450000D03*
%TO.N,EN3*%
X150650000Y-99250000D03*
X154450000Y-101700000D03*
%TO.N,IN2*%
X150000000Y-102100000D03*
X150000000Y-98350000D03*
D15*
%TO.N,EN1*%
X150100000Y-103300000D03*
X146900000Y-99400000D03*
%TD*%
%TO.N,VREF*%
D18*
X161600000Y-111650000D02*
X161600000Y-118150000D01*
X159850000Y-107350000D02*
X161450000Y-105750000D01*
%TO.N,3.3V*%
X155050000Y-101950000D02*
X154300000Y-102700000D01*
X154300000Y-102700000D02*
X149750000Y-102700000D01*
X158150000Y-100900000D02*
X156600000Y-100900000D01*
X149250000Y-98100000D02*
X145400000Y-94250000D01*
X149400000Y-102350000D02*
X149400000Y-98100000D01*
X151600000Y-108550000D02*
X149350000Y-110800000D01*
X159400000Y-101050000D02*
X158750000Y-101050000D01*
X156600000Y-100900000D02*
X156550000Y-100950000D01*
X145400000Y-94250000D02*
X145380000Y-94270000D01*
X149000000Y-117950000D02*
X150250000Y-119200000D01*
X155050000Y-100950000D02*
X155050000Y-101950000D01*
X149750000Y-97750000D02*
X151800000Y-97750000D01*
X158600000Y-108550000D02*
X151600000Y-108550000D01*
X159500000Y-125247000D02*
X159500000Y-129447000D01*
X158750000Y-101050000D02*
X158600000Y-100900000D01*
X149750000Y-102700000D02*
X149400000Y-102350000D01*
X149400000Y-98100000D02*
X149750000Y-97750000D01*
X156550000Y-100950000D02*
X154200000Y-100950000D01*
X158600000Y-100900000D02*
X158150000Y-100900000D01*
X149400000Y-98100000D02*
X149250000Y-98100000D01*
%TO.N,VCC*%
D19*
X152700000Y-112850000D02*
X152700000Y-112950000D01*
X157280000Y-113500000D02*
X157280000Y-117450000D01*
X152850000Y-113100000D02*
X152850000Y-113900000D01*
X152850000Y-113900000D02*
X152700000Y-114050000D01*
X152700000Y-112950000D02*
X152850000Y-113100000D01*
%TO.N,Net-(U1-VCP)*%
D18*
X151700000Y-115100000D02*
X152050000Y-114750000D01*
X152050000Y-114750000D02*
X152050000Y-113500000D01*
%TO.N,nCOMPO*%
X152400000Y-100150000D02*
X152400000Y-99950000D01*
X152400000Y-99950000D02*
X158100000Y-94250000D01*
X158100000Y-94250000D02*
X158080000Y-94270000D01*
X153250000Y-103650000D02*
X155100000Y-105500000D01*
%TO.N,M1*%
D20*
X162500000Y-114700000D02*
X178000000Y-115500000D01*
X178000000Y-115500000D02*
X179000000Y-115500000D01*
%TO.N,M2*%
X162500000Y-112850000D02*
X177000000Y-110500000D01*
X177000000Y-110500000D02*
X179000000Y-110500000D01*
%TO.N,M3*%
D18*
X157150000Y-110750000D02*
X157075125Y-110824875D01*
D20*
X159400000Y-110800000D02*
X159800000Y-110400000D01*
D18*
X160000000Y-111400000D02*
X159350000Y-110750000D01*
D20*
X159350000Y-110750000D02*
X159400000Y-110800000D01*
X169200000Y-105500000D02*
X171200000Y-105500000D01*
X159800000Y-110400000D02*
X159800000Y-110000000D01*
D18*
X159350000Y-110750000D02*
X157150000Y-110750000D01*
D20*
X160400000Y-109400000D02*
X162300000Y-109400000D01*
D18*
X157075125Y-110824875D02*
X156050000Y-111850000D01*
D20*
X159800000Y-110000000D02*
X160400000Y-109400000D01*
%TO.N,Net-(U1-CP1)*%
D18*
X148750000Y-111050000D02*
X149350000Y-111650000D01*
X150100000Y-109150000D02*
X148750000Y-110500000D01*
X148750000Y-110500000D02*
X148750000Y-111050000D01*
%TO.N,Net-(U1-CP2)*%
X148300000Y-111500000D02*
X148900000Y-112100000D01*
X149650000Y-108700000D02*
X148300000Y-110050000D01*
X148300000Y-110050000D02*
X148300000Y-111500000D01*
%TO.N,PGND*%
X152850000Y-110750000D02*
X150650000Y-110750000D01*
D21*
X157950000Y-112850000D02*
X156650000Y-112850000D01*
D20*
X160600000Y-91750000D02*
X160620000Y-91730000D01*
D18*
X156650000Y-112850000D02*
X156400000Y-112600000D01*
X150600000Y-110800000D02*
X150600000Y-117950000D01*
X150600000Y-117950000D02*
X151050000Y-118400000D01*
X156139340Y-112600000D02*
X154700000Y-112600000D01*
D20*
X160850000Y-111900000D02*
X160850000Y-110900000D01*
X162050000Y-94950000D02*
X162050000Y-93200000D01*
D18*
X150650000Y-110750000D02*
X150600000Y-110800000D01*
D20*
X157950000Y-112850000D02*
X159900000Y-112850000D01*
D18*
X153950000Y-111850000D02*
X152850000Y-110750000D01*
X156400000Y-112600000D02*
X156139340Y-112600000D01*
D20*
X162050000Y-93200000D02*
X160600000Y-91750000D01*
X159900000Y-112850000D02*
X160850000Y-111900000D01*
%TO.N,nRes*%
D18*
X158150000Y-99650000D02*
X158950000Y-100450000D01*
X158150000Y-99400000D02*
X158150000Y-99650000D01*
%TO.N,nFlt*%
X158050000Y-102450000D02*
X157200000Y-103300000D01*
%TO.N,EN3*%
X153100000Y-101700000D02*
X150650000Y-99250000D01*
X154450000Y-101700000D02*
X153100000Y-101700000D01*
%TO.N,IN2*%
X150000000Y-102100000D02*
X150000000Y-98350000D01*
%TO.N,EN1*%
X146900000Y-100800000D02*
X146900000Y-99400000D01*
X149400000Y-103300000D02*
X146900000Y-100800000D01*
X150100000Y-103300000D02*
X149400000Y-103300000D01*
%TD*%
M02*
