%TF.GenerationSoftware,KiCad,Pcbnew,10.0.3*%
%TF.CreationDate,2026-06-27T00:27:45+08:00*%
%TF.ProjectId,project,70726f6a-6563-4742-9e6b-696361645f70,rev?*%
%TF.SameCoordinates,Original*%
%TF.FileFunction,Legend,Top*%
%TF.FilePolarity,Positive*%
%FSLAX46Y46*%
G04 Gerber Fmt 4.6, Leading zero omitted, Abs format (unit mm)*
G04 Created by KiCad (PCBNEW 10.0.3) date 2026-06-27 00:27:45*
%MOMM*%
%LPD*%
G01*
G04 APERTURE LIST*
%ADD10C,0.087500*%
%ADD11C,0.120000*%
%ADD12C,0.100000*%
%ADD13C,0.130000*%
%ADD14C,0.150000*%
%ADD15C,0.152400*%
%ADD16C,0.254000*%
%ADD17C,0.300000*%
%ADD18C,0.060000*%
%ADD19C,0.000000*%
%ADD20C,0.203000*%
G04 APERTURE END LIST*
D10*
X146159999Y-88880716D02*
X146159999Y-89580716D01*
X145826666Y-88880716D02*
X145826666Y-89580716D01*
X145826666Y-89580716D02*
X145426666Y-88880716D01*
X145426666Y-88880716D02*
X145426666Y-89580716D01*
X144726666Y-88880716D02*
X145126666Y-88880716D01*
X144926666Y-88880716D02*
X144926666Y-89580716D01*
X144926666Y-89580716D02*
X144993333Y-89480716D01*
X144993333Y-89480716D02*
X145060000Y-89414050D01*
X145060000Y-89414050D02*
X145126666Y-89380716D01*
X146309999Y-96347383D02*
X146076666Y-96347383D01*
X145976666Y-95980716D02*
X146309999Y-95980716D01*
X146309999Y-95980716D02*
X146309999Y-96680716D01*
X146309999Y-96680716D02*
X145976666Y-96680716D01*
X145676666Y-95980716D02*
X145676666Y-96680716D01*
X145676666Y-96680716D02*
X145276666Y-95980716D01*
X145276666Y-95980716D02*
X145276666Y-96680716D01*
X144576666Y-95980716D02*
X144976666Y-95980716D01*
X144776666Y-95980716D02*
X144776666Y-96680716D01*
X144776666Y-96680716D02*
X144843333Y-96580716D01*
X144843333Y-96580716D02*
X144910000Y-96514050D01*
X144910000Y-96514050D02*
X144976666Y-96480716D01*
X148699999Y-88880716D02*
X148699999Y-89580716D01*
X148366666Y-88880716D02*
X148366666Y-89580716D01*
X148366666Y-89580716D02*
X147966666Y-88880716D01*
X147966666Y-88880716D02*
X147966666Y-89580716D01*
X147666666Y-89514050D02*
X147633333Y-89547383D01*
X147633333Y-89547383D02*
X147566666Y-89580716D01*
X147566666Y-89580716D02*
X147400000Y-89580716D01*
X147400000Y-89580716D02*
X147333333Y-89547383D01*
X147333333Y-89547383D02*
X147300000Y-89514050D01*
X147300000Y-89514050D02*
X147266666Y-89447383D01*
X147266666Y-89447383D02*
X147266666Y-89380716D01*
X147266666Y-89380716D02*
X147300000Y-89280716D01*
X147300000Y-89280716D02*
X147700000Y-88880716D01*
X147700000Y-88880716D02*
X147266666Y-88880716D01*
X148849999Y-96347383D02*
X148616666Y-96347383D01*
X148516666Y-95980716D02*
X148849999Y-95980716D01*
X148849999Y-95980716D02*
X148849999Y-96680716D01*
X148849999Y-96680716D02*
X148516666Y-96680716D01*
X148216666Y-95980716D02*
X148216666Y-96680716D01*
X148216666Y-96680716D02*
X147816666Y-95980716D01*
X147816666Y-95980716D02*
X147816666Y-96680716D01*
X147516666Y-96614050D02*
X147483333Y-96647383D01*
X147483333Y-96647383D02*
X147416666Y-96680716D01*
X147416666Y-96680716D02*
X147250000Y-96680716D01*
X147250000Y-96680716D02*
X147183333Y-96647383D01*
X147183333Y-96647383D02*
X147150000Y-96614050D01*
X147150000Y-96614050D02*
X147116666Y-96547383D01*
X147116666Y-96547383D02*
X147116666Y-96480716D01*
X147116666Y-96480716D02*
X147150000Y-96380716D01*
X147150000Y-96380716D02*
X147550000Y-95980716D01*
X147550000Y-95980716D02*
X147116666Y-95980716D01*
X151239999Y-88880716D02*
X151239999Y-89580716D01*
X150906666Y-88880716D02*
X150906666Y-89580716D01*
X150906666Y-89580716D02*
X150506666Y-88880716D01*
X150506666Y-88880716D02*
X150506666Y-89580716D01*
X150240000Y-89580716D02*
X149806666Y-89580716D01*
X149806666Y-89580716D02*
X150040000Y-89314050D01*
X150040000Y-89314050D02*
X149940000Y-89314050D01*
X149940000Y-89314050D02*
X149873333Y-89280716D01*
X149873333Y-89280716D02*
X149840000Y-89247383D01*
X149840000Y-89247383D02*
X149806666Y-89180716D01*
X149806666Y-89180716D02*
X149806666Y-89014050D01*
X149806666Y-89014050D02*
X149840000Y-88947383D01*
X149840000Y-88947383D02*
X149873333Y-88914050D01*
X149873333Y-88914050D02*
X149940000Y-88880716D01*
X149940000Y-88880716D02*
X150140000Y-88880716D01*
X150140000Y-88880716D02*
X150206666Y-88914050D01*
X150206666Y-88914050D02*
X150240000Y-88947383D01*
X151389999Y-96347383D02*
X151156666Y-96347383D01*
X151056666Y-95980716D02*
X151389999Y-95980716D01*
X151389999Y-95980716D02*
X151389999Y-96680716D01*
X151389999Y-96680716D02*
X151056666Y-96680716D01*
X150756666Y-95980716D02*
X150756666Y-96680716D01*
X150756666Y-96680716D02*
X150356666Y-95980716D01*
X150356666Y-95980716D02*
X150356666Y-96680716D01*
X150090000Y-96680716D02*
X149656666Y-96680716D01*
X149656666Y-96680716D02*
X149890000Y-96414050D01*
X149890000Y-96414050D02*
X149790000Y-96414050D01*
X149790000Y-96414050D02*
X149723333Y-96380716D01*
X149723333Y-96380716D02*
X149690000Y-96347383D01*
X149690000Y-96347383D02*
X149656666Y-96280716D01*
X149656666Y-96280716D02*
X149656666Y-96114050D01*
X149656666Y-96114050D02*
X149690000Y-96047383D01*
X149690000Y-96047383D02*
X149723333Y-96014050D01*
X149723333Y-96014050D02*
X149790000Y-95980716D01*
X149790000Y-95980716D02*
X149990000Y-95980716D01*
X149990000Y-95980716D02*
X150056666Y-96014050D01*
X150056666Y-96014050D02*
X150090000Y-96047383D01*
X153450000Y-89247383D02*
X153683333Y-89247383D01*
X153683333Y-88880716D02*
X153683333Y-89580716D01*
X153683333Y-89580716D02*
X153350000Y-89580716D01*
X152750000Y-88880716D02*
X153083333Y-88880716D01*
X153083333Y-88880716D02*
X153083333Y-89580716D01*
X152616666Y-89580716D02*
X152216666Y-89580716D01*
X152416666Y-88880716D02*
X152416666Y-89580716D01*
X153533333Y-96047383D02*
X153566666Y-96014050D01*
X153566666Y-96014050D02*
X153666666Y-95980716D01*
X153666666Y-95980716D02*
X153733333Y-95980716D01*
X153733333Y-95980716D02*
X153833333Y-96014050D01*
X153833333Y-96014050D02*
X153900000Y-96080716D01*
X153900000Y-96080716D02*
X153933333Y-96147383D01*
X153933333Y-96147383D02*
X153966666Y-96280716D01*
X153966666Y-96280716D02*
X153966666Y-96380716D01*
X153966666Y-96380716D02*
X153933333Y-96514050D01*
X153933333Y-96514050D02*
X153900000Y-96580716D01*
X153900000Y-96580716D02*
X153833333Y-96647383D01*
X153833333Y-96647383D02*
X153733333Y-96680716D01*
X153733333Y-96680716D02*
X153666666Y-96680716D01*
X153666666Y-96680716D02*
X153566666Y-96647383D01*
X153566666Y-96647383D02*
X153533333Y-96614050D01*
X153233333Y-95980716D02*
X153233333Y-96680716D01*
X153233333Y-96680716D02*
X153000000Y-96180716D01*
X153000000Y-96180716D02*
X152766666Y-96680716D01*
X152766666Y-96680716D02*
X152766666Y-95980716D01*
X152433333Y-95980716D02*
X152433333Y-96680716D01*
X152433333Y-96680716D02*
X152166666Y-96680716D01*
X152166666Y-96680716D02*
X152100000Y-96647383D01*
X152100000Y-96647383D02*
X152066666Y-96614050D01*
X152066666Y-96614050D02*
X152033333Y-96547383D01*
X152033333Y-96547383D02*
X152033333Y-96447383D01*
X152033333Y-96447383D02*
X152066666Y-96380716D01*
X152066666Y-96380716D02*
X152100000Y-96347383D01*
X152100000Y-96347383D02*
X152166666Y-96314050D01*
X152166666Y-96314050D02*
X152433333Y-96314050D01*
X155883333Y-88880716D02*
X156116666Y-89214050D01*
X156283333Y-88880716D02*
X156283333Y-89580716D01*
X156283333Y-89580716D02*
X156016666Y-89580716D01*
X156016666Y-89580716D02*
X155950000Y-89547383D01*
X155950000Y-89547383D02*
X155916666Y-89514050D01*
X155916666Y-89514050D02*
X155883333Y-89447383D01*
X155883333Y-89447383D02*
X155883333Y-89347383D01*
X155883333Y-89347383D02*
X155916666Y-89280716D01*
X155916666Y-89280716D02*
X155950000Y-89247383D01*
X155950000Y-89247383D02*
X156016666Y-89214050D01*
X156016666Y-89214050D02*
X156283333Y-89214050D01*
X155616666Y-88914050D02*
X155516666Y-88880716D01*
X155516666Y-88880716D02*
X155350000Y-88880716D01*
X155350000Y-88880716D02*
X155283333Y-88914050D01*
X155283333Y-88914050D02*
X155250000Y-88947383D01*
X155250000Y-88947383D02*
X155216666Y-89014050D01*
X155216666Y-89014050D02*
X155216666Y-89080716D01*
X155216666Y-89080716D02*
X155250000Y-89147383D01*
X155250000Y-89147383D02*
X155283333Y-89180716D01*
X155283333Y-89180716D02*
X155350000Y-89214050D01*
X155350000Y-89214050D02*
X155483333Y-89247383D01*
X155483333Y-89247383D02*
X155550000Y-89280716D01*
X155550000Y-89280716D02*
X155583333Y-89314050D01*
X155583333Y-89314050D02*
X155616666Y-89380716D01*
X155616666Y-89380716D02*
X155616666Y-89447383D01*
X155616666Y-89447383D02*
X155583333Y-89514050D01*
X155583333Y-89514050D02*
X155550000Y-89547383D01*
X155550000Y-89547383D02*
X155483333Y-89580716D01*
X155483333Y-89580716D02*
X155316666Y-89580716D01*
X155316666Y-89580716D02*
X155216666Y-89547383D01*
X155016666Y-89580716D02*
X154616666Y-89580716D01*
X154816666Y-88880716D02*
X154816666Y-89580716D01*
X156333333Y-96014050D02*
X156233333Y-95980716D01*
X156233333Y-95980716D02*
X156066667Y-95980716D01*
X156066667Y-95980716D02*
X156000000Y-96014050D01*
X156000000Y-96014050D02*
X155966667Y-96047383D01*
X155966667Y-96047383D02*
X155933333Y-96114050D01*
X155933333Y-96114050D02*
X155933333Y-96180716D01*
X155933333Y-96180716D02*
X155966667Y-96247383D01*
X155966667Y-96247383D02*
X156000000Y-96280716D01*
X156000000Y-96280716D02*
X156066667Y-96314050D01*
X156066667Y-96314050D02*
X156200000Y-96347383D01*
X156200000Y-96347383D02*
X156266667Y-96380716D01*
X156266667Y-96380716D02*
X156300000Y-96414050D01*
X156300000Y-96414050D02*
X156333333Y-96480716D01*
X156333333Y-96480716D02*
X156333333Y-96547383D01*
X156333333Y-96547383D02*
X156300000Y-96614050D01*
X156300000Y-96614050D02*
X156266667Y-96647383D01*
X156266667Y-96647383D02*
X156200000Y-96680716D01*
X156200000Y-96680716D02*
X156033333Y-96680716D01*
X156033333Y-96680716D02*
X155933333Y-96647383D01*
X155300000Y-95980716D02*
X155633333Y-95980716D01*
X155633333Y-95980716D02*
X155633333Y-96680716D01*
X155066666Y-95980716D02*
X155066666Y-96680716D01*
X155066666Y-96680716D02*
X154799999Y-96680716D01*
X154799999Y-96680716D02*
X154733333Y-96647383D01*
X154733333Y-96647383D02*
X154699999Y-96614050D01*
X154699999Y-96614050D02*
X154666666Y-96547383D01*
X154666666Y-96547383D02*
X154666666Y-96447383D01*
X154666666Y-96447383D02*
X154699999Y-96380716D01*
X154699999Y-96380716D02*
X154733333Y-96347383D01*
X154733333Y-96347383D02*
X154799999Y-96314050D01*
X154799999Y-96314050D02*
X155066666Y-96314050D01*
X159399999Y-89580716D02*
X159166666Y-88880716D01*
X159166666Y-88880716D02*
X158933332Y-89580716D01*
X158299999Y-88880716D02*
X158533332Y-89214050D01*
X158699999Y-88880716D02*
X158699999Y-89580716D01*
X158699999Y-89580716D02*
X158433332Y-89580716D01*
X158433332Y-89580716D02*
X158366666Y-89547383D01*
X158366666Y-89547383D02*
X158333332Y-89514050D01*
X158333332Y-89514050D02*
X158299999Y-89447383D01*
X158299999Y-89447383D02*
X158299999Y-89347383D01*
X158299999Y-89347383D02*
X158333332Y-89280716D01*
X158333332Y-89280716D02*
X158366666Y-89247383D01*
X158366666Y-89247383D02*
X158433332Y-89214050D01*
X158433332Y-89214050D02*
X158699999Y-89214050D01*
X157999999Y-89247383D02*
X157766666Y-89247383D01*
X157666666Y-88880716D02*
X157999999Y-88880716D01*
X157999999Y-88880716D02*
X157999999Y-89580716D01*
X157999999Y-89580716D02*
X157666666Y-89580716D01*
X157133333Y-89247383D02*
X157366666Y-89247383D01*
X157366666Y-88880716D02*
X157366666Y-89580716D01*
X157366666Y-89580716D02*
X157033333Y-89580716D01*
X159449999Y-95980716D02*
X159449999Y-96680716D01*
X159449999Y-96680716D02*
X159183332Y-96680716D01*
X159183332Y-96680716D02*
X159116666Y-96647383D01*
X159116666Y-96647383D02*
X159083332Y-96614050D01*
X159083332Y-96614050D02*
X159049999Y-96547383D01*
X159049999Y-96547383D02*
X159049999Y-96447383D01*
X159049999Y-96447383D02*
X159083332Y-96380716D01*
X159083332Y-96380716D02*
X159116666Y-96347383D01*
X159116666Y-96347383D02*
X159183332Y-96314050D01*
X159183332Y-96314050D02*
X159449999Y-96314050D01*
X158383332Y-96647383D02*
X158449999Y-96680716D01*
X158449999Y-96680716D02*
X158549999Y-96680716D01*
X158549999Y-96680716D02*
X158649999Y-96647383D01*
X158649999Y-96647383D02*
X158716666Y-96580716D01*
X158716666Y-96580716D02*
X158749999Y-96514050D01*
X158749999Y-96514050D02*
X158783332Y-96380716D01*
X158783332Y-96380716D02*
X158783332Y-96280716D01*
X158783332Y-96280716D02*
X158749999Y-96147383D01*
X158749999Y-96147383D02*
X158716666Y-96080716D01*
X158716666Y-96080716D02*
X158649999Y-96014050D01*
X158649999Y-96014050D02*
X158549999Y-95980716D01*
X158549999Y-95980716D02*
X158483332Y-95980716D01*
X158483332Y-95980716D02*
X158383332Y-96014050D01*
X158383332Y-96014050D02*
X158349999Y-96047383D01*
X158349999Y-96047383D02*
X158349999Y-96280716D01*
X158349999Y-96280716D02*
X158483332Y-96280716D01*
X158049999Y-95980716D02*
X158049999Y-96680716D01*
X158049999Y-96680716D02*
X157649999Y-95980716D01*
X157649999Y-95980716D02*
X157649999Y-96680716D01*
X157316666Y-95980716D02*
X157316666Y-96680716D01*
X157316666Y-96680716D02*
X157149999Y-96680716D01*
X157149999Y-96680716D02*
X157049999Y-96647383D01*
X157049999Y-96647383D02*
X156983333Y-96580716D01*
X156983333Y-96580716D02*
X156949999Y-96514050D01*
X156949999Y-96514050D02*
X156916666Y-96380716D01*
X156916666Y-96380716D02*
X156916666Y-96280716D01*
X156916666Y-96280716D02*
X156949999Y-96147383D01*
X156949999Y-96147383D02*
X156983333Y-96080716D01*
X156983333Y-96080716D02*
X157049999Y-96014050D01*
X157049999Y-96014050D02*
X157149999Y-95980716D01*
X157149999Y-95980716D02*
X157316666Y-95980716D01*
X161533332Y-89547383D02*
X161599999Y-89580716D01*
X161599999Y-89580716D02*
X161699999Y-89580716D01*
X161699999Y-89580716D02*
X161799999Y-89547383D01*
X161799999Y-89547383D02*
X161866666Y-89480716D01*
X161866666Y-89480716D02*
X161899999Y-89414050D01*
X161899999Y-89414050D02*
X161933332Y-89280716D01*
X161933332Y-89280716D02*
X161933332Y-89180716D01*
X161933332Y-89180716D02*
X161899999Y-89047383D01*
X161899999Y-89047383D02*
X161866666Y-88980716D01*
X161866666Y-88980716D02*
X161799999Y-88914050D01*
X161799999Y-88914050D02*
X161699999Y-88880716D01*
X161699999Y-88880716D02*
X161633332Y-88880716D01*
X161633332Y-88880716D02*
X161533332Y-88914050D01*
X161533332Y-88914050D02*
X161499999Y-88947383D01*
X161499999Y-88947383D02*
X161499999Y-89180716D01*
X161499999Y-89180716D02*
X161633332Y-89180716D01*
X161199999Y-88880716D02*
X161199999Y-89580716D01*
X161199999Y-89580716D02*
X160799999Y-88880716D01*
X160799999Y-88880716D02*
X160799999Y-89580716D01*
X160466666Y-88880716D02*
X160466666Y-89580716D01*
X160466666Y-89580716D02*
X160299999Y-89580716D01*
X160299999Y-89580716D02*
X160199999Y-89547383D01*
X160199999Y-89547383D02*
X160133333Y-89480716D01*
X160133333Y-89480716D02*
X160099999Y-89414050D01*
X160099999Y-89414050D02*
X160066666Y-89280716D01*
X160066666Y-89280716D02*
X160066666Y-89180716D01*
X160066666Y-89180716D02*
X160099999Y-89047383D01*
X160099999Y-89047383D02*
X160133333Y-88980716D01*
X160133333Y-88980716D02*
X160199999Y-88914050D01*
X160199999Y-88914050D02*
X160299999Y-88880716D01*
X160299999Y-88880716D02*
X160466666Y-88880716D01*
X161866667Y-96680716D02*
X161433333Y-96680716D01*
X161433333Y-96680716D02*
X161666667Y-96414050D01*
X161666667Y-96414050D02*
X161566667Y-96414050D01*
X161566667Y-96414050D02*
X161500000Y-96380716D01*
X161500000Y-96380716D02*
X161466667Y-96347383D01*
X161466667Y-96347383D02*
X161433333Y-96280716D01*
X161433333Y-96280716D02*
X161433333Y-96114050D01*
X161433333Y-96114050D02*
X161466667Y-96047383D01*
X161466667Y-96047383D02*
X161500000Y-96014050D01*
X161500000Y-96014050D02*
X161566667Y-95980716D01*
X161566667Y-95980716D02*
X161766667Y-95980716D01*
X161766667Y-95980716D02*
X161833333Y-96014050D01*
X161833333Y-96014050D02*
X161866667Y-96047383D01*
X161233333Y-96680716D02*
X161000000Y-95980716D01*
X161000000Y-95980716D02*
X160766666Y-96680716D01*
X160600000Y-96680716D02*
X160166666Y-96680716D01*
X160166666Y-96680716D02*
X160400000Y-96414050D01*
X160400000Y-96414050D02*
X160300000Y-96414050D01*
X160300000Y-96414050D02*
X160233333Y-96380716D01*
X160233333Y-96380716D02*
X160200000Y-96347383D01*
X160200000Y-96347383D02*
X160166666Y-96280716D01*
X160166666Y-96280716D02*
X160166666Y-96114050D01*
X160166666Y-96114050D02*
X160200000Y-96047383D01*
X160200000Y-96047383D02*
X160233333Y-96014050D01*
X160233333Y-96014050D02*
X160300000Y-95980716D01*
X160300000Y-95980716D02*
X160500000Y-95980716D01*
X160500000Y-95980716D02*
X160566666Y-96014050D01*
X160566666Y-96014050D02*
X160600000Y-96047383D01*
D11*
X183767593Y-106066666D02*
X183067593Y-106066666D01*
X183067593Y-106066666D02*
X183567593Y-105833333D01*
X183567593Y-105833333D02*
X183067593Y-105599999D01*
X183067593Y-105599999D02*
X183767593Y-105599999D01*
X183067593Y-105333333D02*
X183067593Y-104899999D01*
X183067593Y-104899999D02*
X183334260Y-105133333D01*
X183334260Y-105133333D02*
X183334260Y-105033333D01*
X183334260Y-105033333D02*
X183367593Y-104966666D01*
X183367593Y-104966666D02*
X183400926Y-104933333D01*
X183400926Y-104933333D02*
X183467593Y-104899999D01*
X183467593Y-104899999D02*
X183634260Y-104899999D01*
X183634260Y-104899999D02*
X183700926Y-104933333D01*
X183700926Y-104933333D02*
X183734260Y-104966666D01*
X183734260Y-104966666D02*
X183767593Y-105033333D01*
X183767593Y-105033333D02*
X183767593Y-105233333D01*
X183767593Y-105233333D02*
X183734260Y-105299999D01*
X183734260Y-105299999D02*
X183700926Y-105333333D01*
X183767593Y-111066666D02*
X183067593Y-111066666D01*
X183067593Y-111066666D02*
X183567593Y-110833333D01*
X183567593Y-110833333D02*
X183067593Y-110599999D01*
X183067593Y-110599999D02*
X183767593Y-110599999D01*
X183134260Y-110299999D02*
X183100926Y-110266666D01*
X183100926Y-110266666D02*
X183067593Y-110199999D01*
X183067593Y-110199999D02*
X183067593Y-110033333D01*
X183067593Y-110033333D02*
X183100926Y-109966666D01*
X183100926Y-109966666D02*
X183134260Y-109933333D01*
X183134260Y-109933333D02*
X183200926Y-109899999D01*
X183200926Y-109899999D02*
X183267593Y-109899999D01*
X183267593Y-109899999D02*
X183367593Y-109933333D01*
X183367593Y-109933333D02*
X183767593Y-110333333D01*
X183767593Y-110333333D02*
X183767593Y-109899999D01*
X183767593Y-116066666D02*
X183067593Y-116066666D01*
X183067593Y-116066666D02*
X183567593Y-115833333D01*
X183567593Y-115833333D02*
X183067593Y-115599999D01*
X183067593Y-115599999D02*
X183767593Y-115599999D01*
X183767593Y-114899999D02*
X183767593Y-115299999D01*
X183767593Y-115099999D02*
X183067593Y-115099999D01*
X183067593Y-115099999D02*
X183167593Y-115166666D01*
X183167593Y-115166666D02*
X183234260Y-115233333D01*
X183234260Y-115233333D02*
X183267593Y-115299999D01*
X183150926Y-101533332D02*
X183117593Y-101599999D01*
X183117593Y-101599999D02*
X183117593Y-101699999D01*
X183117593Y-101699999D02*
X183150926Y-101799999D01*
X183150926Y-101799999D02*
X183217593Y-101866666D01*
X183217593Y-101866666D02*
X183284260Y-101899999D01*
X183284260Y-101899999D02*
X183417593Y-101933332D01*
X183417593Y-101933332D02*
X183517593Y-101933332D01*
X183517593Y-101933332D02*
X183650926Y-101899999D01*
X183650926Y-101899999D02*
X183717593Y-101866666D01*
X183717593Y-101866666D02*
X183784260Y-101799999D01*
X183784260Y-101799999D02*
X183817593Y-101699999D01*
X183817593Y-101699999D02*
X183817593Y-101633332D01*
X183817593Y-101633332D02*
X183784260Y-101533332D01*
X183784260Y-101533332D02*
X183750926Y-101499999D01*
X183750926Y-101499999D02*
X183517593Y-101499999D01*
X183517593Y-101499999D02*
X183517593Y-101633332D01*
X183817593Y-101199999D02*
X183117593Y-101199999D01*
X183117593Y-101199999D02*
X183817593Y-100799999D01*
X183817593Y-100799999D02*
X183117593Y-100799999D01*
X183817593Y-100466666D02*
X183117593Y-100466666D01*
X183117593Y-100466666D02*
X183117593Y-100299999D01*
X183117593Y-100299999D02*
X183150926Y-100199999D01*
X183150926Y-100199999D02*
X183217593Y-100133333D01*
X183217593Y-100133333D02*
X183284260Y-100099999D01*
X183284260Y-100099999D02*
X183417593Y-100066666D01*
X183417593Y-100066666D02*
X183517593Y-100066666D01*
X183517593Y-100066666D02*
X183650926Y-100099999D01*
X183650926Y-100099999D02*
X183717593Y-100133333D01*
X183717593Y-100133333D02*
X183784260Y-100199999D01*
X183784260Y-100199999D02*
X183817593Y-100299999D01*
X183817593Y-100299999D02*
X183817593Y-100466666D01*
X183117593Y-120133333D02*
X183817593Y-119900000D01*
X183817593Y-119900000D02*
X183117593Y-119666666D01*
X183817593Y-119433333D02*
X183117593Y-119433333D01*
X183117593Y-119433333D02*
X183617593Y-119200000D01*
X183617593Y-119200000D02*
X183117593Y-118966666D01*
X183117593Y-118966666D02*
X183817593Y-118966666D01*
X134899073Y-105966667D02*
X134932406Y-105900000D01*
X134932406Y-105900000D02*
X134932406Y-105800000D01*
X134932406Y-105800000D02*
X134899073Y-105700000D01*
X134899073Y-105700000D02*
X134832406Y-105633334D01*
X134832406Y-105633334D02*
X134765740Y-105600000D01*
X134765740Y-105600000D02*
X134632406Y-105566667D01*
X134632406Y-105566667D02*
X134532406Y-105566667D01*
X134532406Y-105566667D02*
X134399073Y-105600000D01*
X134399073Y-105600000D02*
X134332406Y-105633334D01*
X134332406Y-105633334D02*
X134265740Y-105700000D01*
X134265740Y-105700000D02*
X134232406Y-105800000D01*
X134232406Y-105800000D02*
X134232406Y-105866667D01*
X134232406Y-105866667D02*
X134265740Y-105966667D01*
X134265740Y-105966667D02*
X134299073Y-106000000D01*
X134299073Y-106000000D02*
X134532406Y-106000000D01*
X134532406Y-106000000D02*
X134532406Y-105866667D01*
X134232406Y-106300000D02*
X134932406Y-106300000D01*
X134932406Y-106300000D02*
X134232406Y-106700000D01*
X134232406Y-106700000D02*
X134932406Y-106700000D01*
X134232406Y-107033333D02*
X134932406Y-107033333D01*
X134932406Y-107033333D02*
X134932406Y-107200000D01*
X134932406Y-107200000D02*
X134899073Y-107300000D01*
X134899073Y-107300000D02*
X134832406Y-107366667D01*
X134832406Y-107366667D02*
X134765740Y-107400000D01*
X134765740Y-107400000D02*
X134632406Y-107433333D01*
X134632406Y-107433333D02*
X134532406Y-107433333D01*
X134532406Y-107433333D02*
X134399073Y-107400000D01*
X134399073Y-107400000D02*
X134332406Y-107366667D01*
X134332406Y-107366667D02*
X134265740Y-107300000D01*
X134265740Y-107300000D02*
X134232406Y-107200000D01*
X134232406Y-107200000D02*
X134232406Y-107033333D01*
X134932406Y-113366666D02*
X134232406Y-113600000D01*
X134232406Y-113600000D02*
X134932406Y-113833333D01*
X134232406Y-114066666D02*
X134932406Y-114066666D01*
X134932406Y-114066666D02*
X134432406Y-114300000D01*
X134432406Y-114300000D02*
X134932406Y-114533333D01*
X134932406Y-114533333D02*
X134232406Y-114533333D01*
D12*
X154523809Y-125732895D02*
X154523809Y-124932895D01*
X154523809Y-124932895D02*
X154714285Y-124932895D01*
X154714285Y-124932895D02*
X154828571Y-124970990D01*
X154828571Y-124970990D02*
X154904761Y-125047180D01*
X154904761Y-125047180D02*
X154942856Y-125123371D01*
X154942856Y-125123371D02*
X154980952Y-125275752D01*
X154980952Y-125275752D02*
X154980952Y-125390038D01*
X154980952Y-125390038D02*
X154942856Y-125542419D01*
X154942856Y-125542419D02*
X154904761Y-125618609D01*
X154904761Y-125618609D02*
X154828571Y-125694800D01*
X154828571Y-125694800D02*
X154714285Y-125732895D01*
X154714285Y-125732895D02*
X154523809Y-125732895D01*
X155780952Y-125732895D02*
X155514285Y-125351942D01*
X155323809Y-125732895D02*
X155323809Y-124932895D01*
X155323809Y-124932895D02*
X155628571Y-124932895D01*
X155628571Y-124932895D02*
X155704761Y-124970990D01*
X155704761Y-124970990D02*
X155742856Y-125009085D01*
X155742856Y-125009085D02*
X155780952Y-125085276D01*
X155780952Y-125085276D02*
X155780952Y-125199561D01*
X155780952Y-125199561D02*
X155742856Y-125275752D01*
X155742856Y-125275752D02*
X155704761Y-125313847D01*
X155704761Y-125313847D02*
X155628571Y-125351942D01*
X155628571Y-125351942D02*
X155323809Y-125351942D01*
X156009523Y-124932895D02*
X156276190Y-125732895D01*
X156276190Y-125732895D02*
X156542856Y-124932895D01*
X156923808Y-125275752D02*
X156847618Y-125237657D01*
X156847618Y-125237657D02*
X156809523Y-125199561D01*
X156809523Y-125199561D02*
X156771427Y-125123371D01*
X156771427Y-125123371D02*
X156771427Y-125085276D01*
X156771427Y-125085276D02*
X156809523Y-125009085D01*
X156809523Y-125009085D02*
X156847618Y-124970990D01*
X156847618Y-124970990D02*
X156923808Y-124932895D01*
X156923808Y-124932895D02*
X157076189Y-124932895D01*
X157076189Y-124932895D02*
X157152380Y-124970990D01*
X157152380Y-124970990D02*
X157190475Y-125009085D01*
X157190475Y-125009085D02*
X157228570Y-125085276D01*
X157228570Y-125085276D02*
X157228570Y-125123371D01*
X157228570Y-125123371D02*
X157190475Y-125199561D01*
X157190475Y-125199561D02*
X157152380Y-125237657D01*
X157152380Y-125237657D02*
X157076189Y-125275752D01*
X157076189Y-125275752D02*
X156923808Y-125275752D01*
X156923808Y-125275752D02*
X156847618Y-125313847D01*
X156847618Y-125313847D02*
X156809523Y-125351942D01*
X156809523Y-125351942D02*
X156771427Y-125428133D01*
X156771427Y-125428133D02*
X156771427Y-125580514D01*
X156771427Y-125580514D02*
X156809523Y-125656704D01*
X156809523Y-125656704D02*
X156847618Y-125694800D01*
X156847618Y-125694800D02*
X156923808Y-125732895D01*
X156923808Y-125732895D02*
X157076189Y-125732895D01*
X157076189Y-125732895D02*
X157152380Y-125694800D01*
X157152380Y-125694800D02*
X157190475Y-125656704D01*
X157190475Y-125656704D02*
X157228570Y-125580514D01*
X157228570Y-125580514D02*
X157228570Y-125428133D01*
X157228570Y-125428133D02*
X157190475Y-125351942D01*
X157190475Y-125351942D02*
X157152380Y-125313847D01*
X157152380Y-125313847D02*
X157076189Y-125275752D01*
X157495237Y-124932895D02*
X157990475Y-124932895D01*
X157990475Y-124932895D02*
X157723809Y-125237657D01*
X157723809Y-125237657D02*
X157838094Y-125237657D01*
X157838094Y-125237657D02*
X157914285Y-125275752D01*
X157914285Y-125275752D02*
X157952380Y-125313847D01*
X157952380Y-125313847D02*
X157990475Y-125390038D01*
X157990475Y-125390038D02*
X157990475Y-125580514D01*
X157990475Y-125580514D02*
X157952380Y-125656704D01*
X157952380Y-125656704D02*
X157914285Y-125694800D01*
X157914285Y-125694800D02*
X157838094Y-125732895D01*
X157838094Y-125732895D02*
X157609523Y-125732895D01*
X157609523Y-125732895D02*
X157533332Y-125694800D01*
X157533332Y-125694800D02*
X157495237Y-125656704D01*
X158752380Y-125732895D02*
X158295237Y-125732895D01*
X158523809Y-125732895D02*
X158523809Y-124932895D01*
X158523809Y-124932895D02*
X158447618Y-125047180D01*
X158447618Y-125047180D02*
X158371428Y-125123371D01*
X158371428Y-125123371D02*
X158295237Y-125161466D01*
X159019047Y-124932895D02*
X159514285Y-124932895D01*
X159514285Y-124932895D02*
X159247619Y-125237657D01*
X159247619Y-125237657D02*
X159361904Y-125237657D01*
X159361904Y-125237657D02*
X159438095Y-125275752D01*
X159438095Y-125275752D02*
X159476190Y-125313847D01*
X159476190Y-125313847D02*
X159514285Y-125390038D01*
X159514285Y-125390038D02*
X159514285Y-125580514D01*
X159514285Y-125580514D02*
X159476190Y-125656704D01*
X159476190Y-125656704D02*
X159438095Y-125694800D01*
X159438095Y-125694800D02*
X159361904Y-125732895D01*
X159361904Y-125732895D02*
X159133333Y-125732895D01*
X159133333Y-125732895D02*
X159057142Y-125694800D01*
X159057142Y-125694800D02*
X159019047Y-125656704D01*
X154161903Y-127113847D02*
X154276189Y-127151942D01*
X154276189Y-127151942D02*
X154314284Y-127190038D01*
X154314284Y-127190038D02*
X154352380Y-127266228D01*
X154352380Y-127266228D02*
X154352380Y-127380514D01*
X154352380Y-127380514D02*
X154314284Y-127456704D01*
X154314284Y-127456704D02*
X154276189Y-127494800D01*
X154276189Y-127494800D02*
X154199999Y-127532895D01*
X154199999Y-127532895D02*
X153895237Y-127532895D01*
X153895237Y-127532895D02*
X153895237Y-126732895D01*
X153895237Y-126732895D02*
X154161903Y-126732895D01*
X154161903Y-126732895D02*
X154238094Y-126770990D01*
X154238094Y-126770990D02*
X154276189Y-126809085D01*
X154276189Y-126809085D02*
X154314284Y-126885276D01*
X154314284Y-126885276D02*
X154314284Y-126961466D01*
X154314284Y-126961466D02*
X154276189Y-127037657D01*
X154276189Y-127037657D02*
X154238094Y-127075752D01*
X154238094Y-127075752D02*
X154161903Y-127113847D01*
X154161903Y-127113847D02*
X153895237Y-127113847D01*
X154809522Y-127532895D02*
X154733332Y-127494800D01*
X154733332Y-127494800D02*
X154695237Y-127456704D01*
X154695237Y-127456704D02*
X154657141Y-127380514D01*
X154657141Y-127380514D02*
X154657141Y-127151942D01*
X154657141Y-127151942D02*
X154695237Y-127075752D01*
X154695237Y-127075752D02*
X154733332Y-127037657D01*
X154733332Y-127037657D02*
X154809522Y-126999561D01*
X154809522Y-126999561D02*
X154923808Y-126999561D01*
X154923808Y-126999561D02*
X154999999Y-127037657D01*
X154999999Y-127037657D02*
X155038094Y-127075752D01*
X155038094Y-127075752D02*
X155076189Y-127151942D01*
X155076189Y-127151942D02*
X155076189Y-127380514D01*
X155076189Y-127380514D02*
X155038094Y-127456704D01*
X155038094Y-127456704D02*
X154999999Y-127494800D01*
X154999999Y-127494800D02*
X154923808Y-127532895D01*
X154923808Y-127532895D02*
X154809522Y-127532895D01*
X155761904Y-127532895D02*
X155761904Y-127113847D01*
X155761904Y-127113847D02*
X155723809Y-127037657D01*
X155723809Y-127037657D02*
X155647618Y-126999561D01*
X155647618Y-126999561D02*
X155495237Y-126999561D01*
X155495237Y-126999561D02*
X155419047Y-127037657D01*
X155761904Y-127494800D02*
X155685713Y-127532895D01*
X155685713Y-127532895D02*
X155495237Y-127532895D01*
X155495237Y-127532895D02*
X155419047Y-127494800D01*
X155419047Y-127494800D02*
X155380951Y-127418609D01*
X155380951Y-127418609D02*
X155380951Y-127342419D01*
X155380951Y-127342419D02*
X155419047Y-127266228D01*
X155419047Y-127266228D02*
X155495237Y-127228133D01*
X155495237Y-127228133D02*
X155685713Y-127228133D01*
X155685713Y-127228133D02*
X155761904Y-127190038D01*
X156142857Y-127532895D02*
X156142857Y-126999561D01*
X156142857Y-127151942D02*
X156180952Y-127075752D01*
X156180952Y-127075752D02*
X156219047Y-127037657D01*
X156219047Y-127037657D02*
X156295238Y-126999561D01*
X156295238Y-126999561D02*
X156371428Y-126999561D01*
X156980952Y-127532895D02*
X156980952Y-126732895D01*
X156980952Y-127494800D02*
X156904761Y-127532895D01*
X156904761Y-127532895D02*
X156752380Y-127532895D01*
X156752380Y-127532895D02*
X156676190Y-127494800D01*
X156676190Y-127494800D02*
X156638095Y-127456704D01*
X156638095Y-127456704D02*
X156599999Y-127380514D01*
X156599999Y-127380514D02*
X156599999Y-127151942D01*
X156599999Y-127151942D02*
X156638095Y-127075752D01*
X156638095Y-127075752D02*
X156676190Y-127037657D01*
X156676190Y-127037657D02*
X156752380Y-126999561D01*
X156752380Y-126999561D02*
X156904761Y-126999561D01*
X156904761Y-126999561D02*
X156980952Y-127037657D01*
X157895238Y-126999561D02*
X158085714Y-127532895D01*
X158085714Y-127532895D02*
X158276191Y-126999561D01*
X159000000Y-127532895D02*
X158542857Y-127532895D01*
X158771429Y-127532895D02*
X158771429Y-126732895D01*
X158771429Y-126732895D02*
X158695238Y-126847180D01*
X158695238Y-126847180D02*
X158619048Y-126923371D01*
X158619048Y-126923371D02*
X158542857Y-126961466D01*
X159342858Y-127456704D02*
X159380953Y-127494800D01*
X159380953Y-127494800D02*
X159342858Y-127532895D01*
X159342858Y-127532895D02*
X159304762Y-127494800D01*
X159304762Y-127494800D02*
X159342858Y-127456704D01*
X159342858Y-127456704D02*
X159342858Y-127532895D01*
X159876191Y-126732895D02*
X159952381Y-126732895D01*
X159952381Y-126732895D02*
X160028572Y-126770990D01*
X160028572Y-126770990D02*
X160066667Y-126809085D01*
X160066667Y-126809085D02*
X160104762Y-126885276D01*
X160104762Y-126885276D02*
X160142857Y-127037657D01*
X160142857Y-127037657D02*
X160142857Y-127228133D01*
X160142857Y-127228133D02*
X160104762Y-127380514D01*
X160104762Y-127380514D02*
X160066667Y-127456704D01*
X160066667Y-127456704D02*
X160028572Y-127494800D01*
X160028572Y-127494800D02*
X159952381Y-127532895D01*
X159952381Y-127532895D02*
X159876191Y-127532895D01*
X159876191Y-127532895D02*
X159800000Y-127494800D01*
X159800000Y-127494800D02*
X159761905Y-127456704D01*
X159761905Y-127456704D02*
X159723810Y-127380514D01*
X159723810Y-127380514D02*
X159685714Y-127228133D01*
X159685714Y-127228133D02*
X159685714Y-127037657D01*
X159685714Y-127037657D02*
X159723810Y-126885276D01*
X159723810Y-126885276D02*
X159761905Y-126809085D01*
X159761905Y-126809085D02*
X159800000Y-126770990D01*
X159800000Y-126770990D02*
X159876191Y-126732895D01*
X155400000Y-128532895D02*
X155476190Y-128532895D01*
X155476190Y-128532895D02*
X155552381Y-128570990D01*
X155552381Y-128570990D02*
X155590476Y-128609085D01*
X155590476Y-128609085D02*
X155628571Y-128685276D01*
X155628571Y-128685276D02*
X155666666Y-128837657D01*
X155666666Y-128837657D02*
X155666666Y-129028133D01*
X155666666Y-129028133D02*
X155628571Y-129180514D01*
X155628571Y-129180514D02*
X155590476Y-129256704D01*
X155590476Y-129256704D02*
X155552381Y-129294800D01*
X155552381Y-129294800D02*
X155476190Y-129332895D01*
X155476190Y-129332895D02*
X155400000Y-129332895D01*
X155400000Y-129332895D02*
X155323809Y-129294800D01*
X155323809Y-129294800D02*
X155285714Y-129256704D01*
X155285714Y-129256704D02*
X155247619Y-129180514D01*
X155247619Y-129180514D02*
X155209523Y-129028133D01*
X155209523Y-129028133D02*
X155209523Y-128837657D01*
X155209523Y-128837657D02*
X155247619Y-128685276D01*
X155247619Y-128685276D02*
X155285714Y-128609085D01*
X155285714Y-128609085D02*
X155323809Y-128570990D01*
X155323809Y-128570990D02*
X155400000Y-128532895D01*
X156352381Y-128532895D02*
X156200000Y-128532895D01*
X156200000Y-128532895D02*
X156123809Y-128570990D01*
X156123809Y-128570990D02*
X156085714Y-128609085D01*
X156085714Y-128609085D02*
X156009524Y-128723371D01*
X156009524Y-128723371D02*
X155971428Y-128875752D01*
X155971428Y-128875752D02*
X155971428Y-129180514D01*
X155971428Y-129180514D02*
X156009524Y-129256704D01*
X156009524Y-129256704D02*
X156047619Y-129294800D01*
X156047619Y-129294800D02*
X156123809Y-129332895D01*
X156123809Y-129332895D02*
X156276190Y-129332895D01*
X156276190Y-129332895D02*
X156352381Y-129294800D01*
X156352381Y-129294800D02*
X156390476Y-129256704D01*
X156390476Y-129256704D02*
X156428571Y-129180514D01*
X156428571Y-129180514D02*
X156428571Y-128990038D01*
X156428571Y-128990038D02*
X156390476Y-128913847D01*
X156390476Y-128913847D02*
X156352381Y-128875752D01*
X156352381Y-128875752D02*
X156276190Y-128837657D01*
X156276190Y-128837657D02*
X156123809Y-128837657D01*
X156123809Y-128837657D02*
X156047619Y-128875752D01*
X156047619Y-128875752D02*
X156009524Y-128913847D01*
X156009524Y-128913847D02*
X155971428Y-128990038D01*
X157342857Y-128494800D02*
X156657143Y-129523371D01*
X157571428Y-128609085D02*
X157609524Y-128570990D01*
X157609524Y-128570990D02*
X157685714Y-128532895D01*
X157685714Y-128532895D02*
X157876190Y-128532895D01*
X157876190Y-128532895D02*
X157952381Y-128570990D01*
X157952381Y-128570990D02*
X157990476Y-128609085D01*
X157990476Y-128609085D02*
X158028571Y-128685276D01*
X158028571Y-128685276D02*
X158028571Y-128761466D01*
X158028571Y-128761466D02*
X157990476Y-128875752D01*
X157990476Y-128875752D02*
X157533333Y-129332895D01*
X157533333Y-129332895D02*
X158028571Y-129332895D01*
X158714286Y-128532895D02*
X158561905Y-128532895D01*
X158561905Y-128532895D02*
X158485714Y-128570990D01*
X158485714Y-128570990D02*
X158447619Y-128609085D01*
X158447619Y-128609085D02*
X158371429Y-128723371D01*
X158371429Y-128723371D02*
X158333333Y-128875752D01*
X158333333Y-128875752D02*
X158333333Y-129180514D01*
X158333333Y-129180514D02*
X158371429Y-129256704D01*
X158371429Y-129256704D02*
X158409524Y-129294800D01*
X158409524Y-129294800D02*
X158485714Y-129332895D01*
X158485714Y-129332895D02*
X158638095Y-129332895D01*
X158638095Y-129332895D02*
X158714286Y-129294800D01*
X158714286Y-129294800D02*
X158752381Y-129256704D01*
X158752381Y-129256704D02*
X158790476Y-129180514D01*
X158790476Y-129180514D02*
X158790476Y-128990038D01*
X158790476Y-128990038D02*
X158752381Y-128913847D01*
X158752381Y-128913847D02*
X158714286Y-128875752D01*
X158714286Y-128875752D02*
X158638095Y-128837657D01*
X158638095Y-128837657D02*
X158485714Y-128837657D01*
X158485714Y-128837657D02*
X158409524Y-128875752D01*
X158409524Y-128875752D02*
X158371429Y-128913847D01*
X158371429Y-128913847D02*
X158333333Y-128990038D01*
D13*
X137823809Y-116906192D02*
X137747619Y-116868097D01*
X137747619Y-116868097D02*
X137709524Y-116830001D01*
X137709524Y-116830001D02*
X137671428Y-116753811D01*
X137671428Y-116753811D02*
X137671428Y-116715716D01*
X137671428Y-116715716D02*
X137709524Y-116639525D01*
X137709524Y-116639525D02*
X137747619Y-116601430D01*
X137747619Y-116601430D02*
X137823809Y-116563335D01*
X137823809Y-116563335D02*
X137976190Y-116563335D01*
X137976190Y-116563335D02*
X138052381Y-116601430D01*
X138052381Y-116601430D02*
X138090476Y-116639525D01*
X138090476Y-116639525D02*
X138128571Y-116715716D01*
X138128571Y-116715716D02*
X138128571Y-116753811D01*
X138128571Y-116753811D02*
X138090476Y-116830001D01*
X138090476Y-116830001D02*
X138052381Y-116868097D01*
X138052381Y-116868097D02*
X137976190Y-116906192D01*
X137976190Y-116906192D02*
X137823809Y-116906192D01*
X137823809Y-116906192D02*
X137747619Y-116944287D01*
X137747619Y-116944287D02*
X137709524Y-116982382D01*
X137709524Y-116982382D02*
X137671428Y-117058573D01*
X137671428Y-117058573D02*
X137671428Y-117210954D01*
X137671428Y-117210954D02*
X137709524Y-117287144D01*
X137709524Y-117287144D02*
X137747619Y-117325240D01*
X137747619Y-117325240D02*
X137823809Y-117363335D01*
X137823809Y-117363335D02*
X137976190Y-117363335D01*
X137976190Y-117363335D02*
X138052381Y-117325240D01*
X138052381Y-117325240D02*
X138090476Y-117287144D01*
X138090476Y-117287144D02*
X138128571Y-117210954D01*
X138128571Y-117210954D02*
X138128571Y-117058573D01*
X138128571Y-117058573D02*
X138090476Y-116982382D01*
X138090476Y-116982382D02*
X138052381Y-116944287D01*
X138052381Y-116944287D02*
X137976190Y-116906192D01*
X138471429Y-117058573D02*
X139080953Y-117058573D01*
X139804762Y-116563335D02*
X139652381Y-116563335D01*
X139652381Y-116563335D02*
X139576190Y-116601430D01*
X139576190Y-116601430D02*
X139538095Y-116639525D01*
X139538095Y-116639525D02*
X139461905Y-116753811D01*
X139461905Y-116753811D02*
X139423809Y-116906192D01*
X139423809Y-116906192D02*
X139423809Y-117210954D01*
X139423809Y-117210954D02*
X139461905Y-117287144D01*
X139461905Y-117287144D02*
X139500000Y-117325240D01*
X139500000Y-117325240D02*
X139576190Y-117363335D01*
X139576190Y-117363335D02*
X139728571Y-117363335D01*
X139728571Y-117363335D02*
X139804762Y-117325240D01*
X139804762Y-117325240D02*
X139842857Y-117287144D01*
X139842857Y-117287144D02*
X139880952Y-117210954D01*
X139880952Y-117210954D02*
X139880952Y-117020478D01*
X139880952Y-117020478D02*
X139842857Y-116944287D01*
X139842857Y-116944287D02*
X139804762Y-116906192D01*
X139804762Y-116906192D02*
X139728571Y-116868097D01*
X139728571Y-116868097D02*
X139576190Y-116868097D01*
X139576190Y-116868097D02*
X139500000Y-116906192D01*
X139500000Y-116906192D02*
X139461905Y-116944287D01*
X139461905Y-116944287D02*
X139423809Y-117020478D01*
X140376191Y-116563335D02*
X140452381Y-116563335D01*
X140452381Y-116563335D02*
X140528572Y-116601430D01*
X140528572Y-116601430D02*
X140566667Y-116639525D01*
X140566667Y-116639525D02*
X140604762Y-116715716D01*
X140604762Y-116715716D02*
X140642857Y-116868097D01*
X140642857Y-116868097D02*
X140642857Y-117058573D01*
X140642857Y-117058573D02*
X140604762Y-117210954D01*
X140604762Y-117210954D02*
X140566667Y-117287144D01*
X140566667Y-117287144D02*
X140528572Y-117325240D01*
X140528572Y-117325240D02*
X140452381Y-117363335D01*
X140452381Y-117363335D02*
X140376191Y-117363335D01*
X140376191Y-117363335D02*
X140300000Y-117325240D01*
X140300000Y-117325240D02*
X140261905Y-117287144D01*
X140261905Y-117287144D02*
X140223810Y-117210954D01*
X140223810Y-117210954D02*
X140185714Y-117058573D01*
X140185714Y-117058573D02*
X140185714Y-116868097D01*
X140185714Y-116868097D02*
X140223810Y-116715716D01*
X140223810Y-116715716D02*
X140261905Y-116639525D01*
X140261905Y-116639525D02*
X140300000Y-116601430D01*
X140300000Y-116601430D02*
X140376191Y-116563335D01*
X140871429Y-116563335D02*
X141138096Y-117363335D01*
X141138096Y-117363335D02*
X141404762Y-116563335D01*
D14*
X165657142Y-101765700D02*
X166342857Y-101765700D01*
X165999999Y-102108557D02*
X165999999Y-101422842D01*
X165657142Y-123265700D02*
X166342857Y-123265700D01*
X165999999Y-123608557D02*
X165999999Y-122922842D01*
D10*
X167462116Y-110016666D02*
X167495450Y-110049999D01*
X167495450Y-110049999D02*
X167528783Y-110149999D01*
X167528783Y-110149999D02*
X167528783Y-110216666D01*
X167528783Y-110216666D02*
X167495450Y-110316666D01*
X167495450Y-110316666D02*
X167428783Y-110383333D01*
X167428783Y-110383333D02*
X167362116Y-110416666D01*
X167362116Y-110416666D02*
X167228783Y-110449999D01*
X167228783Y-110449999D02*
X167128783Y-110449999D01*
X167128783Y-110449999D02*
X166995450Y-110416666D01*
X166995450Y-110416666D02*
X166928783Y-110383333D01*
X166928783Y-110383333D02*
X166862116Y-110316666D01*
X166862116Y-110316666D02*
X166828783Y-110216666D01*
X166828783Y-110216666D02*
X166828783Y-110149999D01*
X166828783Y-110149999D02*
X166862116Y-110049999D01*
X166862116Y-110049999D02*
X166895450Y-110016666D01*
X166828783Y-109416666D02*
X166828783Y-109549999D01*
X166828783Y-109549999D02*
X166862116Y-109616666D01*
X166862116Y-109616666D02*
X166895450Y-109649999D01*
X166895450Y-109649999D02*
X166995450Y-109716666D01*
X166995450Y-109716666D02*
X167128783Y-109749999D01*
X167128783Y-109749999D02*
X167395450Y-109749999D01*
X167395450Y-109749999D02*
X167462116Y-109716666D01*
X167462116Y-109716666D02*
X167495450Y-109683333D01*
X167495450Y-109683333D02*
X167528783Y-109616666D01*
X167528783Y-109616666D02*
X167528783Y-109483333D01*
X167528783Y-109483333D02*
X167495450Y-109416666D01*
X167495450Y-109416666D02*
X167462116Y-109383333D01*
X167462116Y-109383333D02*
X167395450Y-109349999D01*
X167395450Y-109349999D02*
X167228783Y-109349999D01*
X167228783Y-109349999D02*
X167162116Y-109383333D01*
X167162116Y-109383333D02*
X167128783Y-109416666D01*
X167128783Y-109416666D02*
X167095450Y-109483333D01*
X167095450Y-109483333D02*
X167095450Y-109616666D01*
X167095450Y-109616666D02*
X167128783Y-109683333D01*
X167128783Y-109683333D02*
X167162116Y-109716666D01*
X167162116Y-109716666D02*
X167228783Y-109749999D01*
D12*
X167621371Y-94751503D02*
X167335657Y-94951503D01*
X167621371Y-95094360D02*
X167021371Y-95094360D01*
X167021371Y-95094360D02*
X167021371Y-94865789D01*
X167021371Y-94865789D02*
X167049942Y-94808646D01*
X167049942Y-94808646D02*
X167078514Y-94780075D01*
X167078514Y-94780075D02*
X167135657Y-94751503D01*
X167135657Y-94751503D02*
X167221371Y-94751503D01*
X167221371Y-94751503D02*
X167278514Y-94780075D01*
X167278514Y-94780075D02*
X167307085Y-94808646D01*
X167307085Y-94808646D02*
X167335657Y-94865789D01*
X167335657Y-94865789D02*
X167335657Y-95094360D01*
X167021371Y-94208646D02*
X167021371Y-94494360D01*
X167021371Y-94494360D02*
X167307085Y-94522932D01*
X167307085Y-94522932D02*
X167278514Y-94494360D01*
X167278514Y-94494360D02*
X167249942Y-94437218D01*
X167249942Y-94437218D02*
X167249942Y-94294360D01*
X167249942Y-94294360D02*
X167278514Y-94237218D01*
X167278514Y-94237218D02*
X167307085Y-94208646D01*
X167307085Y-94208646D02*
X167364228Y-94180075D01*
X167364228Y-94180075D02*
X167507085Y-94180075D01*
X167507085Y-94180075D02*
X167564228Y-94208646D01*
X167564228Y-94208646D02*
X167592800Y-94237218D01*
X167592800Y-94237218D02*
X167621371Y-94294360D01*
X167621371Y-94294360D02*
X167621371Y-94437218D01*
X167621371Y-94437218D02*
X167592800Y-94494360D01*
X167592800Y-94494360D02*
X167564228Y-94522932D01*
D10*
X153883333Y-114343116D02*
X153850000Y-114376450D01*
X153850000Y-114376450D02*
X153750000Y-114409783D01*
X153750000Y-114409783D02*
X153683333Y-114409783D01*
X153683333Y-114409783D02*
X153583333Y-114376450D01*
X153583333Y-114376450D02*
X153516667Y-114309783D01*
X153516667Y-114309783D02*
X153483333Y-114243116D01*
X153483333Y-114243116D02*
X153450000Y-114109783D01*
X153450000Y-114109783D02*
X153450000Y-114009783D01*
X153450000Y-114009783D02*
X153483333Y-113876450D01*
X153483333Y-113876450D02*
X153516667Y-113809783D01*
X153516667Y-113809783D02*
X153583333Y-113743116D01*
X153583333Y-113743116D02*
X153683333Y-113709783D01*
X153683333Y-113709783D02*
X153750000Y-113709783D01*
X153750000Y-113709783D02*
X153850000Y-113743116D01*
X153850000Y-113743116D02*
X153883333Y-113776450D01*
X154150000Y-113776450D02*
X154183333Y-113743116D01*
X154183333Y-113743116D02*
X154250000Y-113709783D01*
X154250000Y-113709783D02*
X154416667Y-113709783D01*
X154416667Y-113709783D02*
X154483333Y-113743116D01*
X154483333Y-113743116D02*
X154516667Y-113776450D01*
X154516667Y-113776450D02*
X154550000Y-113843116D01*
X154550000Y-113843116D02*
X154550000Y-113909783D01*
X154550000Y-113909783D02*
X154516667Y-114009783D01*
X154516667Y-114009783D02*
X154116667Y-114409783D01*
X154116667Y-114409783D02*
X154550000Y-114409783D01*
D12*
X154614285Y-101123371D02*
X154414285Y-100837657D01*
X154271428Y-101123371D02*
X154271428Y-100523371D01*
X154271428Y-100523371D02*
X154499999Y-100523371D01*
X154499999Y-100523371D02*
X154557142Y-100551942D01*
X154557142Y-100551942D02*
X154585713Y-100580514D01*
X154585713Y-100580514D02*
X154614285Y-100637657D01*
X154614285Y-100637657D02*
X154614285Y-100723371D01*
X154614285Y-100723371D02*
X154585713Y-100780514D01*
X154585713Y-100780514D02*
X154557142Y-100809085D01*
X154557142Y-100809085D02*
X154499999Y-100837657D01*
X154499999Y-100837657D02*
X154271428Y-100837657D01*
X155185713Y-101123371D02*
X154842856Y-101123371D01*
X155014285Y-101123371D02*
X155014285Y-100523371D01*
X155014285Y-100523371D02*
X154957142Y-100609085D01*
X154957142Y-100609085D02*
X154899999Y-100666228D01*
X154899999Y-100666228D02*
X154842856Y-100694800D01*
X155414285Y-100580514D02*
X155442857Y-100551942D01*
X155442857Y-100551942D02*
X155500000Y-100523371D01*
X155500000Y-100523371D02*
X155642857Y-100523371D01*
X155642857Y-100523371D02*
X155700000Y-100551942D01*
X155700000Y-100551942D02*
X155728571Y-100580514D01*
X155728571Y-100580514D02*
X155757142Y-100637657D01*
X155757142Y-100637657D02*
X155757142Y-100694800D01*
X155757142Y-100694800D02*
X155728571Y-100780514D01*
X155728571Y-100780514D02*
X155385714Y-101123371D01*
X155385714Y-101123371D02*
X155757142Y-101123371D01*
X136571428Y-103672371D02*
X136914286Y-103672371D01*
X136742857Y-104272371D02*
X136742857Y-103672371D01*
X137314286Y-103958085D02*
X137400000Y-103986657D01*
X137400000Y-103986657D02*
X137428571Y-104015228D01*
X137428571Y-104015228D02*
X137457143Y-104072371D01*
X137457143Y-104072371D02*
X137457143Y-104158085D01*
X137457143Y-104158085D02*
X137428571Y-104215228D01*
X137428571Y-104215228D02*
X137400000Y-104243800D01*
X137400000Y-104243800D02*
X137342857Y-104272371D01*
X137342857Y-104272371D02*
X137114286Y-104272371D01*
X137114286Y-104272371D02*
X137114286Y-103672371D01*
X137114286Y-103672371D02*
X137314286Y-103672371D01*
X137314286Y-103672371D02*
X137371429Y-103700942D01*
X137371429Y-103700942D02*
X137400000Y-103729514D01*
X137400000Y-103729514D02*
X137428571Y-103786657D01*
X137428571Y-103786657D02*
X137428571Y-103843800D01*
X137428571Y-103843800D02*
X137400000Y-103900942D01*
X137400000Y-103900942D02*
X137371429Y-103929514D01*
X137371429Y-103929514D02*
X137314286Y-103958085D01*
X137314286Y-103958085D02*
X137114286Y-103958085D01*
X137571429Y-104329514D02*
X138028571Y-104329514D01*
X138171429Y-104272371D02*
X138171429Y-103672371D01*
X138171429Y-103672371D02*
X138400000Y-103672371D01*
X138400000Y-103672371D02*
X138457143Y-103700942D01*
X138457143Y-103700942D02*
X138485714Y-103729514D01*
X138485714Y-103729514D02*
X138514286Y-103786657D01*
X138514286Y-103786657D02*
X138514286Y-103872371D01*
X138514286Y-103872371D02*
X138485714Y-103929514D01*
X138485714Y-103929514D02*
X138457143Y-103958085D01*
X138457143Y-103958085D02*
X138400000Y-103986657D01*
X138400000Y-103986657D02*
X138171429Y-103986657D01*
X138714286Y-103672371D02*
X138857143Y-104272371D01*
X138857143Y-104272371D02*
X138971429Y-103843800D01*
X138971429Y-103843800D02*
X139085714Y-104272371D01*
X139085714Y-104272371D02*
X139228572Y-103672371D01*
X139800000Y-104272371D02*
X139600000Y-103986657D01*
X139457143Y-104272371D02*
X139457143Y-103672371D01*
X139457143Y-103672371D02*
X139685714Y-103672371D01*
X139685714Y-103672371D02*
X139742857Y-103700942D01*
X139742857Y-103700942D02*
X139771428Y-103729514D01*
X139771428Y-103729514D02*
X139800000Y-103786657D01*
X139800000Y-103786657D02*
X139800000Y-103872371D01*
X139800000Y-103872371D02*
X139771428Y-103929514D01*
X139771428Y-103929514D02*
X139742857Y-103958085D01*
X139742857Y-103958085D02*
X139685714Y-103986657D01*
X139685714Y-103986657D02*
X139457143Y-103986657D01*
X140371428Y-104272371D02*
X140028571Y-104272371D01*
X140200000Y-104272371D02*
X140200000Y-103672371D01*
X140200000Y-103672371D02*
X140142857Y-103758085D01*
X140142857Y-103758085D02*
X140085714Y-103815228D01*
X140085714Y-103815228D02*
X140028571Y-103843800D01*
X167367971Y-108051503D02*
X167082257Y-108251503D01*
X167367971Y-108394360D02*
X166767971Y-108394360D01*
X166767971Y-108394360D02*
X166767971Y-108165789D01*
X166767971Y-108165789D02*
X166796542Y-108108646D01*
X166796542Y-108108646D02*
X166825114Y-108080075D01*
X166825114Y-108080075D02*
X166882257Y-108051503D01*
X166882257Y-108051503D02*
X166967971Y-108051503D01*
X166967971Y-108051503D02*
X167025114Y-108080075D01*
X167025114Y-108080075D02*
X167053685Y-108108646D01*
X167053685Y-108108646D02*
X167082257Y-108165789D01*
X167082257Y-108165789D02*
X167082257Y-108394360D01*
X167367971Y-107765789D02*
X167367971Y-107651503D01*
X167367971Y-107651503D02*
X167339400Y-107594360D01*
X167339400Y-107594360D02*
X167310828Y-107565789D01*
X167310828Y-107565789D02*
X167225114Y-107508646D01*
X167225114Y-107508646D02*
X167110828Y-107480075D01*
X167110828Y-107480075D02*
X166882257Y-107480075D01*
X166882257Y-107480075D02*
X166825114Y-107508646D01*
X166825114Y-107508646D02*
X166796542Y-107537218D01*
X166796542Y-107537218D02*
X166767971Y-107594360D01*
X166767971Y-107594360D02*
X166767971Y-107708646D01*
X166767971Y-107708646D02*
X166796542Y-107765789D01*
X166796542Y-107765789D02*
X166825114Y-107794360D01*
X166825114Y-107794360D02*
X166882257Y-107822932D01*
X166882257Y-107822932D02*
X167025114Y-107822932D01*
X167025114Y-107822932D02*
X167082257Y-107794360D01*
X167082257Y-107794360D02*
X167110828Y-107765789D01*
X167110828Y-107765789D02*
X167139400Y-107708646D01*
X167139400Y-107708646D02*
X167139400Y-107594360D01*
X167139400Y-107594360D02*
X167110828Y-107537218D01*
X167110828Y-107537218D02*
X167082257Y-107508646D01*
X167082257Y-107508646D02*
X167025114Y-107480075D01*
X165928572Y-99052300D02*
X166000000Y-99076109D01*
X166000000Y-99076109D02*
X166119048Y-99076109D01*
X166119048Y-99076109D02*
X166166667Y-99052300D01*
X166166667Y-99052300D02*
X166190476Y-99028490D01*
X166190476Y-99028490D02*
X166214286Y-98980871D01*
X166214286Y-98980871D02*
X166214286Y-98933252D01*
X166214286Y-98933252D02*
X166190476Y-98885633D01*
X166190476Y-98885633D02*
X166166667Y-98861823D01*
X166166667Y-98861823D02*
X166119048Y-98838014D01*
X166119048Y-98838014D02*
X166023810Y-98814204D01*
X166023810Y-98814204D02*
X165976191Y-98790395D01*
X165976191Y-98790395D02*
X165952381Y-98766585D01*
X165952381Y-98766585D02*
X165928572Y-98718966D01*
X165928572Y-98718966D02*
X165928572Y-98671347D01*
X165928572Y-98671347D02*
X165952381Y-98623728D01*
X165952381Y-98623728D02*
X165976191Y-98599919D01*
X165976191Y-98599919D02*
X166023810Y-98576109D01*
X166023810Y-98576109D02*
X166142857Y-98576109D01*
X166142857Y-98576109D02*
X166214286Y-98599919D01*
X166571428Y-98576109D02*
X166571428Y-98933252D01*
X166571428Y-98933252D02*
X166547619Y-99004680D01*
X166547619Y-99004680D02*
X166500000Y-99052300D01*
X166500000Y-99052300D02*
X166428571Y-99076109D01*
X166428571Y-99076109D02*
X166380952Y-99076109D01*
X167071428Y-99076109D02*
X166785714Y-99076109D01*
X166928571Y-99076109D02*
X166928571Y-98576109D01*
X166928571Y-98576109D02*
X166880952Y-98647538D01*
X166880952Y-98647538D02*
X166833333Y-98695157D01*
X166833333Y-98695157D02*
X166785714Y-98718966D01*
X179442856Y-125727628D02*
X179442856Y-126327628D01*
X179442856Y-126327628D02*
X179214285Y-126327628D01*
X179214285Y-126327628D02*
X179157142Y-126299057D01*
X179157142Y-126299057D02*
X179128571Y-126270485D01*
X179128571Y-126270485D02*
X179099999Y-126213342D01*
X179099999Y-126213342D02*
X179099999Y-126127628D01*
X179099999Y-126127628D02*
X179128571Y-126070485D01*
X179128571Y-126070485D02*
X179157142Y-126041914D01*
X179157142Y-126041914D02*
X179214285Y-126013342D01*
X179214285Y-126013342D02*
X179442856Y-126013342D01*
X178528571Y-125727628D02*
X178871428Y-125727628D01*
X178699999Y-125727628D02*
X178699999Y-126327628D01*
X178699999Y-126327628D02*
X178757142Y-126241914D01*
X178757142Y-126241914D02*
X178814285Y-126184771D01*
X178814285Y-126184771D02*
X178871428Y-126156200D01*
D15*
X158063977Y-101803217D02*
X158063977Y-102543446D01*
X158063977Y-102543446D02*
X158107520Y-102630532D01*
X158107520Y-102630532D02*
X158151063Y-102674075D01*
X158151063Y-102674075D02*
X158238148Y-102717617D01*
X158238148Y-102717617D02*
X158412320Y-102717617D01*
X158412320Y-102717617D02*
X158499405Y-102674075D01*
X158499405Y-102674075D02*
X158542948Y-102630532D01*
X158542948Y-102630532D02*
X158586491Y-102543446D01*
X158586491Y-102543446D02*
X158586491Y-101803217D01*
X159500891Y-102717617D02*
X158978377Y-102717617D01*
X159239634Y-102717617D02*
X159239634Y-101803217D01*
X159239634Y-101803217D02*
X159152548Y-101933846D01*
X159152548Y-101933846D02*
X159065463Y-102020932D01*
X159065463Y-102020932D02*
X158978377Y-102064475D01*
D12*
X161400000Y-101123371D02*
X161200000Y-100837657D01*
X161057143Y-101123371D02*
X161057143Y-100523371D01*
X161057143Y-100523371D02*
X161285714Y-100523371D01*
X161285714Y-100523371D02*
X161342857Y-100551942D01*
X161342857Y-100551942D02*
X161371428Y-100580514D01*
X161371428Y-100580514D02*
X161400000Y-100637657D01*
X161400000Y-100637657D02*
X161400000Y-100723371D01*
X161400000Y-100723371D02*
X161371428Y-100780514D01*
X161371428Y-100780514D02*
X161342857Y-100809085D01*
X161342857Y-100809085D02*
X161285714Y-100837657D01*
X161285714Y-100837657D02*
X161057143Y-100837657D01*
X161600000Y-100523371D02*
X161971428Y-100523371D01*
X161971428Y-100523371D02*
X161771428Y-100751942D01*
X161771428Y-100751942D02*
X161857143Y-100751942D01*
X161857143Y-100751942D02*
X161914286Y-100780514D01*
X161914286Y-100780514D02*
X161942857Y-100809085D01*
X161942857Y-100809085D02*
X161971428Y-100866228D01*
X161971428Y-100866228D02*
X161971428Y-101009085D01*
X161971428Y-101009085D02*
X161942857Y-101066228D01*
X161942857Y-101066228D02*
X161914286Y-101094800D01*
X161914286Y-101094800D02*
X161857143Y-101123371D01*
X161857143Y-101123371D02*
X161685714Y-101123371D01*
X161685714Y-101123371D02*
X161628571Y-101094800D01*
X161628571Y-101094800D02*
X161600000Y-101066228D01*
X151900000Y-101123371D02*
X151700000Y-100837657D01*
X151557143Y-101123371D02*
X151557143Y-100523371D01*
X151557143Y-100523371D02*
X151785714Y-100523371D01*
X151785714Y-100523371D02*
X151842857Y-100551942D01*
X151842857Y-100551942D02*
X151871428Y-100580514D01*
X151871428Y-100580514D02*
X151900000Y-100637657D01*
X151900000Y-100637657D02*
X151900000Y-100723371D01*
X151900000Y-100723371D02*
X151871428Y-100780514D01*
X151871428Y-100780514D02*
X151842857Y-100809085D01*
X151842857Y-100809085D02*
X151785714Y-100837657D01*
X151785714Y-100837657D02*
X151557143Y-100837657D01*
X152100000Y-100523371D02*
X152500000Y-100523371D01*
X152500000Y-100523371D02*
X152242857Y-101123371D01*
D10*
X159949283Y-118616666D02*
X159615950Y-118849999D01*
X159949283Y-119016666D02*
X159249283Y-119016666D01*
X159249283Y-119016666D02*
X159249283Y-118749999D01*
X159249283Y-118749999D02*
X159282616Y-118683333D01*
X159282616Y-118683333D02*
X159315950Y-118649999D01*
X159315950Y-118649999D02*
X159382616Y-118616666D01*
X159382616Y-118616666D02*
X159482616Y-118616666D01*
X159482616Y-118616666D02*
X159549283Y-118649999D01*
X159549283Y-118649999D02*
X159582616Y-118683333D01*
X159582616Y-118683333D02*
X159615950Y-118749999D01*
X159615950Y-118749999D02*
X159615950Y-119016666D01*
X159549283Y-118216666D02*
X159515950Y-118283333D01*
X159515950Y-118283333D02*
X159482616Y-118316666D01*
X159482616Y-118316666D02*
X159415950Y-118349999D01*
X159415950Y-118349999D02*
X159382616Y-118349999D01*
X159382616Y-118349999D02*
X159315950Y-118316666D01*
X159315950Y-118316666D02*
X159282616Y-118283333D01*
X159282616Y-118283333D02*
X159249283Y-118216666D01*
X159249283Y-118216666D02*
X159249283Y-118083333D01*
X159249283Y-118083333D02*
X159282616Y-118016666D01*
X159282616Y-118016666D02*
X159315950Y-117983333D01*
X159315950Y-117983333D02*
X159382616Y-117949999D01*
X159382616Y-117949999D02*
X159415950Y-117949999D01*
X159415950Y-117949999D02*
X159482616Y-117983333D01*
X159482616Y-117983333D02*
X159515950Y-118016666D01*
X159515950Y-118016666D02*
X159549283Y-118083333D01*
X159549283Y-118083333D02*
X159549283Y-118216666D01*
X159549283Y-118216666D02*
X159582616Y-118283333D01*
X159582616Y-118283333D02*
X159615950Y-118316666D01*
X159615950Y-118316666D02*
X159682616Y-118349999D01*
X159682616Y-118349999D02*
X159815950Y-118349999D01*
X159815950Y-118349999D02*
X159882616Y-118316666D01*
X159882616Y-118316666D02*
X159915950Y-118283333D01*
X159915950Y-118283333D02*
X159949283Y-118216666D01*
X159949283Y-118216666D02*
X159949283Y-118083333D01*
X159949283Y-118083333D02*
X159915950Y-118016666D01*
X159915950Y-118016666D02*
X159882616Y-117983333D01*
X159882616Y-117983333D02*
X159815950Y-117949999D01*
X159815950Y-117949999D02*
X159682616Y-117949999D01*
X159682616Y-117949999D02*
X159615950Y-117983333D01*
X159615950Y-117983333D02*
X159582616Y-118016666D01*
X159582616Y-118016666D02*
X159549283Y-118083333D01*
D12*
X148900000Y-101130171D02*
X148700000Y-100844457D01*
X148557143Y-101130171D02*
X148557143Y-100530171D01*
X148557143Y-100530171D02*
X148785714Y-100530171D01*
X148785714Y-100530171D02*
X148842857Y-100558742D01*
X148842857Y-100558742D02*
X148871428Y-100587314D01*
X148871428Y-100587314D02*
X148900000Y-100644457D01*
X148900000Y-100644457D02*
X148900000Y-100730171D01*
X148900000Y-100730171D02*
X148871428Y-100787314D01*
X148871428Y-100787314D02*
X148842857Y-100815885D01*
X148842857Y-100815885D02*
X148785714Y-100844457D01*
X148785714Y-100844457D02*
X148557143Y-100844457D01*
X149414286Y-100530171D02*
X149300000Y-100530171D01*
X149300000Y-100530171D02*
X149242857Y-100558742D01*
X149242857Y-100558742D02*
X149214286Y-100587314D01*
X149214286Y-100587314D02*
X149157143Y-100673028D01*
X149157143Y-100673028D02*
X149128571Y-100787314D01*
X149128571Y-100787314D02*
X149128571Y-101015885D01*
X149128571Y-101015885D02*
X149157143Y-101073028D01*
X149157143Y-101073028D02*
X149185714Y-101101600D01*
X149185714Y-101101600D02*
X149242857Y-101130171D01*
X149242857Y-101130171D02*
X149357143Y-101130171D01*
X149357143Y-101130171D02*
X149414286Y-101101600D01*
X149414286Y-101101600D02*
X149442857Y-101073028D01*
X149442857Y-101073028D02*
X149471428Y-101015885D01*
X149471428Y-101015885D02*
X149471428Y-100873028D01*
X149471428Y-100873028D02*
X149442857Y-100815885D01*
X149442857Y-100815885D02*
X149414286Y-100787314D01*
X149414286Y-100787314D02*
X149357143Y-100758742D01*
X149357143Y-100758742D02*
X149242857Y-100758742D01*
X149242857Y-100758742D02*
X149185714Y-100787314D01*
X149185714Y-100787314D02*
X149157143Y-100815885D01*
X149157143Y-100815885D02*
X149128571Y-100873028D01*
X142842371Y-93227142D02*
X142242371Y-93227142D01*
X142528085Y-93227142D02*
X142528085Y-92884285D01*
X142842371Y-92884285D02*
X142242371Y-92884285D01*
X142842371Y-92284286D02*
X142842371Y-92627143D01*
X142842371Y-92455714D02*
X142242371Y-92455714D01*
X142242371Y-92455714D02*
X142328085Y-92512857D01*
X142328085Y-92512857D02*
X142385228Y-92570000D01*
X142385228Y-92570000D02*
X142413800Y-92627143D01*
X159400000Y-101123371D02*
X159200000Y-100837657D01*
X159057143Y-101123371D02*
X159057143Y-100523371D01*
X159057143Y-100523371D02*
X159285714Y-100523371D01*
X159285714Y-100523371D02*
X159342857Y-100551942D01*
X159342857Y-100551942D02*
X159371428Y-100580514D01*
X159371428Y-100580514D02*
X159400000Y-100637657D01*
X159400000Y-100637657D02*
X159400000Y-100723371D01*
X159400000Y-100723371D02*
X159371428Y-100780514D01*
X159371428Y-100780514D02*
X159342857Y-100809085D01*
X159342857Y-100809085D02*
X159285714Y-100837657D01*
X159285714Y-100837657D02*
X159057143Y-100837657D01*
X159628571Y-100580514D02*
X159657143Y-100551942D01*
X159657143Y-100551942D02*
X159714286Y-100523371D01*
X159714286Y-100523371D02*
X159857143Y-100523371D01*
X159857143Y-100523371D02*
X159914286Y-100551942D01*
X159914286Y-100551942D02*
X159942857Y-100580514D01*
X159942857Y-100580514D02*
X159971428Y-100637657D01*
X159971428Y-100637657D02*
X159971428Y-100694800D01*
X159971428Y-100694800D02*
X159942857Y-100780514D01*
X159942857Y-100780514D02*
X159600000Y-101123371D01*
X159600000Y-101123371D02*
X159971428Y-101123371D01*
D10*
X166383333Y-117252616D02*
X166350000Y-117285950D01*
X166350000Y-117285950D02*
X166250000Y-117319283D01*
X166250000Y-117319283D02*
X166183333Y-117319283D01*
X166183333Y-117319283D02*
X166083333Y-117285950D01*
X166083333Y-117285950D02*
X166016667Y-117219283D01*
X166016667Y-117219283D02*
X165983333Y-117152616D01*
X165983333Y-117152616D02*
X165950000Y-117019283D01*
X165950000Y-117019283D02*
X165950000Y-116919283D01*
X165950000Y-116919283D02*
X165983333Y-116785950D01*
X165983333Y-116785950D02*
X166016667Y-116719283D01*
X166016667Y-116719283D02*
X166083333Y-116652616D01*
X166083333Y-116652616D02*
X166183333Y-116619283D01*
X166183333Y-116619283D02*
X166250000Y-116619283D01*
X166250000Y-116619283D02*
X166350000Y-116652616D01*
X166350000Y-116652616D02*
X166383333Y-116685950D01*
X167016667Y-116619283D02*
X166683333Y-116619283D01*
X166683333Y-116619283D02*
X166650000Y-116952616D01*
X166650000Y-116952616D02*
X166683333Y-116919283D01*
X166683333Y-116919283D02*
X166750000Y-116885950D01*
X166750000Y-116885950D02*
X166916667Y-116885950D01*
X166916667Y-116885950D02*
X166983333Y-116919283D01*
X166983333Y-116919283D02*
X167016667Y-116952616D01*
X167016667Y-116952616D02*
X167050000Y-117019283D01*
X167050000Y-117019283D02*
X167050000Y-117185950D01*
X167050000Y-117185950D02*
X167016667Y-117252616D01*
X167016667Y-117252616D02*
X166983333Y-117285950D01*
X166983333Y-117285950D02*
X166916667Y-117319283D01*
X166916667Y-117319283D02*
X166750000Y-117319283D01*
X166750000Y-117319283D02*
X166683333Y-117285950D01*
X166683333Y-117285950D02*
X166650000Y-117252616D01*
X149883333Y-106743115D02*
X149850000Y-106776449D01*
X149850000Y-106776449D02*
X149750000Y-106809782D01*
X149750000Y-106809782D02*
X149683333Y-106809782D01*
X149683333Y-106809782D02*
X149583333Y-106776449D01*
X149583333Y-106776449D02*
X149516667Y-106709782D01*
X149516667Y-106709782D02*
X149483333Y-106643115D01*
X149483333Y-106643115D02*
X149450000Y-106509782D01*
X149450000Y-106509782D02*
X149450000Y-106409782D01*
X149450000Y-106409782D02*
X149483333Y-106276449D01*
X149483333Y-106276449D02*
X149516667Y-106209782D01*
X149516667Y-106209782D02*
X149583333Y-106143115D01*
X149583333Y-106143115D02*
X149683333Y-106109782D01*
X149683333Y-106109782D02*
X149750000Y-106109782D01*
X149750000Y-106109782D02*
X149850000Y-106143115D01*
X149850000Y-106143115D02*
X149883333Y-106176449D01*
X150116667Y-106109782D02*
X150583333Y-106109782D01*
X150583333Y-106109782D02*
X150283333Y-106809782D01*
D12*
X156900000Y-101123371D02*
X156700000Y-100837657D01*
X156557143Y-101123371D02*
X156557143Y-100523371D01*
X156557143Y-100523371D02*
X156785714Y-100523371D01*
X156785714Y-100523371D02*
X156842857Y-100551942D01*
X156842857Y-100551942D02*
X156871428Y-100580514D01*
X156871428Y-100580514D02*
X156900000Y-100637657D01*
X156900000Y-100637657D02*
X156900000Y-100723371D01*
X156900000Y-100723371D02*
X156871428Y-100780514D01*
X156871428Y-100780514D02*
X156842857Y-100809085D01*
X156842857Y-100809085D02*
X156785714Y-100837657D01*
X156785714Y-100837657D02*
X156557143Y-100837657D01*
X157471428Y-101123371D02*
X157128571Y-101123371D01*
X157300000Y-101123371D02*
X157300000Y-100523371D01*
X157300000Y-100523371D02*
X157242857Y-100609085D01*
X157242857Y-100609085D02*
X157185714Y-100666228D01*
X157185714Y-100666228D02*
X157128571Y-100694800D01*
X168051503Y-104623371D02*
X167851503Y-104337657D01*
X167708646Y-104623371D02*
X167708646Y-104023371D01*
X167708646Y-104023371D02*
X167937217Y-104023371D01*
X167937217Y-104023371D02*
X167994360Y-104051942D01*
X167994360Y-104051942D02*
X168022931Y-104080514D01*
X168022931Y-104080514D02*
X168051503Y-104137657D01*
X168051503Y-104137657D02*
X168051503Y-104223371D01*
X168051503Y-104223371D02*
X168022931Y-104280514D01*
X168022931Y-104280514D02*
X167994360Y-104309085D01*
X167994360Y-104309085D02*
X167937217Y-104337657D01*
X167937217Y-104337657D02*
X167708646Y-104337657D01*
X168622931Y-104623371D02*
X168280074Y-104623371D01*
X168451503Y-104623371D02*
X168451503Y-104023371D01*
X168451503Y-104023371D02*
X168394360Y-104109085D01*
X168394360Y-104109085D02*
X168337217Y-104166228D01*
X168337217Y-104166228D02*
X168280074Y-104194800D01*
X168994360Y-104023371D02*
X169051503Y-104023371D01*
X169051503Y-104023371D02*
X169108646Y-104051942D01*
X169108646Y-104051942D02*
X169137218Y-104080514D01*
X169137218Y-104080514D02*
X169165789Y-104137657D01*
X169165789Y-104137657D02*
X169194360Y-104251942D01*
X169194360Y-104251942D02*
X169194360Y-104394800D01*
X169194360Y-104394800D02*
X169165789Y-104509085D01*
X169165789Y-104509085D02*
X169137218Y-104566228D01*
X169137218Y-104566228D02*
X169108646Y-104594800D01*
X169108646Y-104594800D02*
X169051503Y-104623371D01*
X169051503Y-104623371D02*
X168994360Y-104623371D01*
X168994360Y-104623371D02*
X168937218Y-104594800D01*
X168937218Y-104594800D02*
X168908646Y-104566228D01*
X168908646Y-104566228D02*
X168880075Y-104509085D01*
X168880075Y-104509085D02*
X168851503Y-104394800D01*
X168851503Y-104394800D02*
X168851503Y-104251942D01*
X168851503Y-104251942D02*
X168880075Y-104137657D01*
X168880075Y-104137657D02*
X168908646Y-104080514D01*
X168908646Y-104080514D02*
X168937218Y-104051942D01*
X168937218Y-104051942D02*
X168994360Y-104023371D01*
D10*
X160383333Y-114162116D02*
X160350000Y-114195450D01*
X160350000Y-114195450D02*
X160250000Y-114228783D01*
X160250000Y-114228783D02*
X160183333Y-114228783D01*
X160183333Y-114228783D02*
X160083333Y-114195450D01*
X160083333Y-114195450D02*
X160016667Y-114128783D01*
X160016667Y-114128783D02*
X159983333Y-114062116D01*
X159983333Y-114062116D02*
X159950000Y-113928783D01*
X159950000Y-113928783D02*
X159950000Y-113828783D01*
X159950000Y-113828783D02*
X159983333Y-113695450D01*
X159983333Y-113695450D02*
X160016667Y-113628783D01*
X160016667Y-113628783D02*
X160083333Y-113562116D01*
X160083333Y-113562116D02*
X160183333Y-113528783D01*
X160183333Y-113528783D02*
X160250000Y-113528783D01*
X160250000Y-113528783D02*
X160350000Y-113562116D01*
X160350000Y-113562116D02*
X160383333Y-113595450D01*
X160783333Y-113828783D02*
X160716667Y-113795450D01*
X160716667Y-113795450D02*
X160683333Y-113762116D01*
X160683333Y-113762116D02*
X160650000Y-113695450D01*
X160650000Y-113695450D02*
X160650000Y-113662116D01*
X160650000Y-113662116D02*
X160683333Y-113595450D01*
X160683333Y-113595450D02*
X160716667Y-113562116D01*
X160716667Y-113562116D02*
X160783333Y-113528783D01*
X160783333Y-113528783D02*
X160916667Y-113528783D01*
X160916667Y-113528783D02*
X160983333Y-113562116D01*
X160983333Y-113562116D02*
X161016667Y-113595450D01*
X161016667Y-113595450D02*
X161050000Y-113662116D01*
X161050000Y-113662116D02*
X161050000Y-113695450D01*
X161050000Y-113695450D02*
X161016667Y-113762116D01*
X161016667Y-113762116D02*
X160983333Y-113795450D01*
X160983333Y-113795450D02*
X160916667Y-113828783D01*
X160916667Y-113828783D02*
X160783333Y-113828783D01*
X160783333Y-113828783D02*
X160716667Y-113862116D01*
X160716667Y-113862116D02*
X160683333Y-113895450D01*
X160683333Y-113895450D02*
X160650000Y-113962116D01*
X160650000Y-113962116D02*
X160650000Y-114095450D01*
X160650000Y-114095450D02*
X160683333Y-114162116D01*
X160683333Y-114162116D02*
X160716667Y-114195450D01*
X160716667Y-114195450D02*
X160783333Y-114228783D01*
X160783333Y-114228783D02*
X160916667Y-114228783D01*
X160916667Y-114228783D02*
X160983333Y-114195450D01*
X160983333Y-114195450D02*
X161016667Y-114162116D01*
X161016667Y-114162116D02*
X161050000Y-114095450D01*
X161050000Y-114095450D02*
X161050000Y-113962116D01*
X161050000Y-113962116D02*
X161016667Y-113895450D01*
X161016667Y-113895450D02*
X160983333Y-113862116D01*
X160983333Y-113862116D02*
X160916667Y-113828783D01*
D12*
X172551503Y-104623371D02*
X172351503Y-104337657D01*
X172208646Y-104623371D02*
X172208646Y-104023371D01*
X172208646Y-104023371D02*
X172437217Y-104023371D01*
X172437217Y-104023371D02*
X172494360Y-104051942D01*
X172494360Y-104051942D02*
X172522931Y-104080514D01*
X172522931Y-104080514D02*
X172551503Y-104137657D01*
X172551503Y-104137657D02*
X172551503Y-104223371D01*
X172551503Y-104223371D02*
X172522931Y-104280514D01*
X172522931Y-104280514D02*
X172494360Y-104309085D01*
X172494360Y-104309085D02*
X172437217Y-104337657D01*
X172437217Y-104337657D02*
X172208646Y-104337657D01*
X173122931Y-104623371D02*
X172780074Y-104623371D01*
X172951503Y-104623371D02*
X172951503Y-104023371D01*
X172951503Y-104023371D02*
X172894360Y-104109085D01*
X172894360Y-104109085D02*
X172837217Y-104166228D01*
X172837217Y-104166228D02*
X172780074Y-104194800D01*
X173694360Y-104623371D02*
X173351503Y-104623371D01*
X173522932Y-104623371D02*
X173522932Y-104023371D01*
X173522932Y-104023371D02*
X173465789Y-104109085D01*
X173465789Y-104109085D02*
X173408646Y-104166228D01*
X173408646Y-104166228D02*
X173351503Y-104194800D01*
X146400000Y-101123371D02*
X146200000Y-100837657D01*
X146057143Y-101123371D02*
X146057143Y-100523371D01*
X146057143Y-100523371D02*
X146285714Y-100523371D01*
X146285714Y-100523371D02*
X146342857Y-100551942D01*
X146342857Y-100551942D02*
X146371428Y-100580514D01*
X146371428Y-100580514D02*
X146400000Y-100637657D01*
X146400000Y-100637657D02*
X146400000Y-100723371D01*
X146400000Y-100723371D02*
X146371428Y-100780514D01*
X146371428Y-100780514D02*
X146342857Y-100809085D01*
X146342857Y-100809085D02*
X146285714Y-100837657D01*
X146285714Y-100837657D02*
X146057143Y-100837657D01*
X146914286Y-100723371D02*
X146914286Y-101123371D01*
X146771428Y-100494800D02*
X146628571Y-100923371D01*
X146628571Y-100923371D02*
X147000000Y-100923371D01*
X170428572Y-99052300D02*
X170500000Y-99076109D01*
X170500000Y-99076109D02*
X170619048Y-99076109D01*
X170619048Y-99076109D02*
X170666667Y-99052300D01*
X170666667Y-99052300D02*
X170690476Y-99028490D01*
X170690476Y-99028490D02*
X170714286Y-98980871D01*
X170714286Y-98980871D02*
X170714286Y-98933252D01*
X170714286Y-98933252D02*
X170690476Y-98885633D01*
X170690476Y-98885633D02*
X170666667Y-98861823D01*
X170666667Y-98861823D02*
X170619048Y-98838014D01*
X170619048Y-98838014D02*
X170523810Y-98814204D01*
X170523810Y-98814204D02*
X170476191Y-98790395D01*
X170476191Y-98790395D02*
X170452381Y-98766585D01*
X170452381Y-98766585D02*
X170428572Y-98718966D01*
X170428572Y-98718966D02*
X170428572Y-98671347D01*
X170428572Y-98671347D02*
X170452381Y-98623728D01*
X170452381Y-98623728D02*
X170476191Y-98599919D01*
X170476191Y-98599919D02*
X170523810Y-98576109D01*
X170523810Y-98576109D02*
X170642857Y-98576109D01*
X170642857Y-98576109D02*
X170714286Y-98599919D01*
X171071428Y-98576109D02*
X171071428Y-98933252D01*
X171071428Y-98933252D02*
X171047619Y-99004680D01*
X171047619Y-99004680D02*
X171000000Y-99052300D01*
X171000000Y-99052300D02*
X170928571Y-99076109D01*
X170928571Y-99076109D02*
X170880952Y-99076109D01*
X171285714Y-98623728D02*
X171309523Y-98599919D01*
X171309523Y-98599919D02*
X171357142Y-98576109D01*
X171357142Y-98576109D02*
X171476190Y-98576109D01*
X171476190Y-98576109D02*
X171523809Y-98599919D01*
X171523809Y-98599919D02*
X171547618Y-98623728D01*
X171547618Y-98623728D02*
X171571428Y-98671347D01*
X171571428Y-98671347D02*
X171571428Y-98718966D01*
X171571428Y-98718966D02*
X171547618Y-98790395D01*
X171547618Y-98790395D02*
X171261904Y-99076109D01*
X171261904Y-99076109D02*
X171571428Y-99076109D01*
D10*
X168079683Y-92783333D02*
X168079683Y-93116666D01*
X168079683Y-93116666D02*
X167379683Y-93116666D01*
X167713016Y-92549999D02*
X167713016Y-92316666D01*
X168079683Y-92216666D02*
X168079683Y-92549999D01*
X168079683Y-92549999D02*
X167379683Y-92549999D01*
X167379683Y-92549999D02*
X167379683Y-92216666D01*
X168079683Y-91916666D02*
X167379683Y-91916666D01*
X167379683Y-91916666D02*
X167379683Y-91749999D01*
X167379683Y-91749999D02*
X167413016Y-91649999D01*
X167413016Y-91649999D02*
X167479683Y-91583333D01*
X167479683Y-91583333D02*
X167546350Y-91549999D01*
X167546350Y-91549999D02*
X167679683Y-91516666D01*
X167679683Y-91516666D02*
X167779683Y-91516666D01*
X167779683Y-91516666D02*
X167913016Y-91549999D01*
X167913016Y-91549999D02*
X167979683Y-91583333D01*
X167979683Y-91583333D02*
X168046350Y-91649999D01*
X168046350Y-91649999D02*
X168079683Y-91749999D01*
X168079683Y-91749999D02*
X168079683Y-91916666D01*
X168079683Y-90849999D02*
X168079683Y-91249999D01*
X168079683Y-91049999D02*
X167379683Y-91049999D01*
X167379683Y-91049999D02*
X167479683Y-91116666D01*
X167479683Y-91116666D02*
X167546350Y-91183333D01*
X167546350Y-91183333D02*
X167579683Y-91249999D01*
X149883333Y-110662116D02*
X149850000Y-110695450D01*
X149850000Y-110695450D02*
X149750000Y-110728783D01*
X149750000Y-110728783D02*
X149683333Y-110728783D01*
X149683333Y-110728783D02*
X149583333Y-110695450D01*
X149583333Y-110695450D02*
X149516667Y-110628783D01*
X149516667Y-110628783D02*
X149483333Y-110562116D01*
X149483333Y-110562116D02*
X149450000Y-110428783D01*
X149450000Y-110428783D02*
X149450000Y-110328783D01*
X149450000Y-110328783D02*
X149483333Y-110195450D01*
X149483333Y-110195450D02*
X149516667Y-110128783D01*
X149516667Y-110128783D02*
X149583333Y-110062116D01*
X149583333Y-110062116D02*
X149683333Y-110028783D01*
X149683333Y-110028783D02*
X149750000Y-110028783D01*
X149750000Y-110028783D02*
X149850000Y-110062116D01*
X149850000Y-110062116D02*
X149883333Y-110095450D01*
X150550000Y-110728783D02*
X150150000Y-110728783D01*
X150350000Y-110728783D02*
X150350000Y-110028783D01*
X150350000Y-110028783D02*
X150283333Y-110128783D01*
X150283333Y-110128783D02*
X150216667Y-110195450D01*
X150216667Y-110195450D02*
X150150000Y-110228783D01*
X163383333Y-100843116D02*
X163350000Y-100876450D01*
X163350000Y-100876450D02*
X163250000Y-100909783D01*
X163250000Y-100909783D02*
X163183333Y-100909783D01*
X163183333Y-100909783D02*
X163083333Y-100876450D01*
X163083333Y-100876450D02*
X163016667Y-100809783D01*
X163016667Y-100809783D02*
X162983333Y-100743116D01*
X162983333Y-100743116D02*
X162950000Y-100609783D01*
X162950000Y-100609783D02*
X162950000Y-100509783D01*
X162950000Y-100509783D02*
X162983333Y-100376450D01*
X162983333Y-100376450D02*
X163016667Y-100309783D01*
X163016667Y-100309783D02*
X163083333Y-100243116D01*
X163083333Y-100243116D02*
X163183333Y-100209783D01*
X163183333Y-100209783D02*
X163250000Y-100209783D01*
X163250000Y-100209783D02*
X163350000Y-100243116D01*
X163350000Y-100243116D02*
X163383333Y-100276450D01*
X163983333Y-100443116D02*
X163983333Y-100909783D01*
X163816667Y-100176450D02*
X163650000Y-100676450D01*
X163650000Y-100676450D02*
X164083333Y-100676450D01*
X146883333Y-117252616D02*
X146850000Y-117285950D01*
X146850000Y-117285950D02*
X146750000Y-117319283D01*
X146750000Y-117319283D02*
X146683333Y-117319283D01*
X146683333Y-117319283D02*
X146583333Y-117285950D01*
X146583333Y-117285950D02*
X146516667Y-117219283D01*
X146516667Y-117219283D02*
X146483333Y-117152616D01*
X146483333Y-117152616D02*
X146450000Y-117019283D01*
X146450000Y-117019283D02*
X146450000Y-116919283D01*
X146450000Y-116919283D02*
X146483333Y-116785950D01*
X146483333Y-116785950D02*
X146516667Y-116719283D01*
X146516667Y-116719283D02*
X146583333Y-116652616D01*
X146583333Y-116652616D02*
X146683333Y-116619283D01*
X146683333Y-116619283D02*
X146750000Y-116619283D01*
X146750000Y-116619283D02*
X146850000Y-116652616D01*
X146850000Y-116652616D02*
X146883333Y-116685950D01*
X147116667Y-116619283D02*
X147550000Y-116619283D01*
X147550000Y-116619283D02*
X147316667Y-116885950D01*
X147316667Y-116885950D02*
X147416667Y-116885950D01*
X147416667Y-116885950D02*
X147483333Y-116919283D01*
X147483333Y-116919283D02*
X147516667Y-116952616D01*
X147516667Y-116952616D02*
X147550000Y-117019283D01*
X147550000Y-117019283D02*
X147550000Y-117185950D01*
X147550000Y-117185950D02*
X147516667Y-117252616D01*
X147516667Y-117252616D02*
X147483333Y-117285950D01*
X147483333Y-117285950D02*
X147416667Y-117319283D01*
X147416667Y-117319283D02*
X147216667Y-117319283D01*
X147216667Y-117319283D02*
X147150000Y-117285950D01*
X147150000Y-117285950D02*
X147116667Y-117252616D01*
%TO.C,C6*%
D16*
X163410000Y-110399800D02*
X163410000Y-109599700D01*
X164519700Y-109290000D02*
X163719800Y-109290000D01*
X164519700Y-110709600D02*
X163719800Y-110709600D01*
X165095600Y-109295800D02*
X165895600Y-109295800D01*
X165095600Y-110715400D02*
X165895600Y-110715400D01*
X166205500Y-110405600D02*
X166205500Y-109605600D01*
X163410000Y-109599800D02*
G75*
G02*
X163719800Y-109290000I309800J0D01*
G01*
X163719800Y-110709600D02*
G75*
G02*
X163410000Y-110399800I0J309800D01*
G01*
X165895700Y-109295800D02*
G75*
G02*
X166205500Y-109605600I1J-309799D01*
G01*
X166205500Y-110405600D02*
G75*
G02*
X165895700Y-110715400I-309799J-1D01*
G01*
%TO.C,R5*%
D15*
X163614900Y-93839400D02*
X164573800Y-93839400D01*
X163614900Y-95160600D02*
X163614900Y-93839400D01*
X164573800Y-95160600D02*
X163614900Y-95160600D01*
X165426200Y-95160600D02*
X166385100Y-95160600D01*
X166385100Y-93839400D02*
X165426200Y-93839400D01*
X166385100Y-95160600D02*
X166385100Y-93839400D01*
%TO.C,C2*%
D16*
X153410000Y-112899800D02*
X153410000Y-112099700D01*
X154519700Y-111790000D02*
X153719800Y-111790000D01*
X154519700Y-113209600D02*
X153719800Y-113209600D01*
X155095600Y-111795800D02*
X155895600Y-111795800D01*
X155095600Y-113215400D02*
X155895600Y-113215400D01*
X156205500Y-112905600D02*
X156205500Y-112105600D01*
X153410000Y-112099800D02*
G75*
G02*
X153719800Y-111790000I309800J0D01*
G01*
X153719800Y-113209600D02*
G75*
G02*
X153410000Y-112899800I0J309800D01*
G01*
X155895700Y-111795800D02*
G75*
G02*
X156205500Y-112105600I1J-309799D01*
G01*
X156205500Y-112905600D02*
G75*
G02*
X155895700Y-113215400I-309799J-1D01*
G01*
%TO.C,R12*%
D15*
X154384400Y-97368300D02*
X155705600Y-97368300D01*
X154384400Y-98327200D02*
X154384400Y-97368300D01*
X154384400Y-99179600D02*
X154384400Y-100138500D01*
X154384400Y-100138500D02*
X155705600Y-100138500D01*
X155705600Y-97368300D02*
X155705600Y-98327200D01*
X155705600Y-100138500D02*
X155705600Y-99179600D01*
%TO.C,TB_PWR1*%
D11*
X135580000Y-105380000D02*
X143620000Y-105380000D01*
X135580000Y-108200000D02*
X135580000Y-105380000D01*
X135580000Y-116120000D02*
X135580000Y-108800000D01*
X137700000Y-105380000D02*
X137700000Y-106620000D01*
X137700000Y-110380000D02*
X137700000Y-112957000D01*
X137700000Y-114043000D02*
X137700000Y-116120000D01*
X139000000Y-105380000D02*
X139000000Y-106620000D01*
X139000000Y-110380000D02*
X139000000Y-111688000D01*
X139000000Y-115312000D02*
X139000000Y-116120000D01*
X140000000Y-105380000D02*
X140000000Y-106620000D01*
X140000000Y-110380000D02*
X140000000Y-111688000D01*
X140000000Y-115312000D02*
X140000000Y-116120000D01*
X143620000Y-105380000D02*
X143620000Y-116120000D01*
X143620000Y-116120000D02*
X135580000Y-116120000D01*
X135580000Y-108500000D02*
X134970000Y-108940000D01*
X134970000Y-108060000D01*
X135580000Y-108500000D01*
G36*
X135580000Y-108500000D02*
G01*
X134970000Y-108940000D01*
X134970000Y-108060000D01*
X135580000Y-108500000D01*
G37*
%TO.C,R9*%
D15*
X163361500Y-106639400D02*
X164320400Y-106639400D01*
X163361500Y-107960600D02*
X163361500Y-106639400D01*
X164320400Y-107960600D02*
X163361500Y-107960600D01*
X165172800Y-107960600D02*
X166131700Y-107960600D01*
X166131700Y-106639400D02*
X165172800Y-106639400D01*
X166131700Y-107960600D02*
X166131700Y-106639400D01*
%TO.C,SJ1*%
D11*
X165100000Y-100950000D02*
X165100000Y-100350000D01*
X165800000Y-99650000D02*
X167200000Y-99650000D01*
X167200000Y-101650000D02*
X165800000Y-101650000D01*
X167900000Y-100350000D02*
X167900000Y-100950000D01*
X165100000Y-100350000D02*
G75*
G02*
X165800000Y-99650000I699999J1D01*
G01*
X165800000Y-101650000D02*
G75*
G02*
X165100000Y-100950000I-1J699999D01*
G01*
X167200000Y-99650000D02*
G75*
G02*
X167900000Y-100350000I0J-700000D01*
G01*
X167900000Y-100950000D02*
G75*
G02*
X167200000Y-101650000I-700000J0D01*
G01*
%TO.C,P1*%
X174880000Y-98380000D02*
X182920000Y-98380000D01*
X174880000Y-124120000D02*
X174880000Y-98380000D01*
X178500000Y-99188000D02*
X178500000Y-98380000D01*
X178500000Y-104188000D02*
X178500000Y-102812000D01*
X178500000Y-109188000D02*
X178500000Y-107812000D01*
X178500000Y-114188000D02*
X178500000Y-112812000D01*
X178500000Y-119120000D02*
X178500000Y-117812000D01*
X178500000Y-124120000D02*
X178500000Y-122880000D01*
X179500000Y-99188000D02*
X179500000Y-98380000D01*
X179500000Y-104188000D02*
X179500000Y-102812000D01*
X179500000Y-109188000D02*
X179500000Y-107812000D01*
X179500000Y-114188000D02*
X179500000Y-112812000D01*
X179500000Y-119120000D02*
X179500000Y-117812000D01*
X179500000Y-124120000D02*
X179500000Y-122880000D01*
X180800000Y-100457000D02*
X180800000Y-98380000D01*
X180800000Y-105457000D02*
X180800000Y-101543000D01*
X180800000Y-110457000D02*
X180800000Y-106543000D01*
X180800000Y-115457000D02*
X180800000Y-111543000D01*
X180800000Y-119120000D02*
X180800000Y-116543000D01*
X180800000Y-124120000D02*
X180800000Y-122880000D01*
X182920000Y-98380000D02*
X182920000Y-120700000D01*
X182920000Y-121300000D02*
X182920000Y-124120000D01*
X182920000Y-124120000D02*
X174880000Y-124120000D01*
X182920000Y-121000000D02*
X183530000Y-120560000D01*
X183530000Y-121440000D01*
X182920000Y-121000000D01*
G36*
X183530000Y-121440000D02*
G01*
X182920000Y-121000000D01*
X183530000Y-120560000D01*
X183530000Y-121440000D01*
G37*
%TO.C,U1*%
D15*
X153073800Y-105228500D02*
X162926200Y-105228500D01*
X153073800Y-108771300D02*
X153073800Y-105228500D01*
X162926200Y-105228500D02*
X162926200Y-108771300D01*
X162926200Y-108771300D02*
X153073800Y-108771300D01*
D17*
X153301200Y-109865900D02*
G75*
G02*
X153001000Y-109865900I-150100J0D01*
G01*
X153001000Y-109865900D02*
G75*
G02*
X153301200Y-109865900I150100J0D01*
G01*
X153925100Y-108019000D02*
G75*
G02*
X153624900Y-108019000I-150100J0D01*
G01*
X153624900Y-108019000D02*
G75*
G02*
X153925100Y-108019000I150100J0D01*
G01*
%TO.C,R3*%
D15*
X160884400Y-97368300D02*
X160884400Y-98327200D01*
X160884400Y-100138500D02*
X160884400Y-99179600D01*
X162205600Y-97368300D02*
X160884400Y-97368300D01*
X162205600Y-98327200D02*
X162205600Y-97368300D01*
X162205600Y-99179600D02*
X162205600Y-100138500D01*
X162205600Y-100138500D02*
X160884400Y-100138500D01*
%TO.C,R7*%
X151339400Y-97368300D02*
X152660600Y-97368300D01*
X151339400Y-98327200D02*
X151339400Y-97368300D01*
X151339400Y-99179600D02*
X151339400Y-100138500D01*
X151339400Y-100138500D02*
X152660600Y-100138500D01*
X152660600Y-97368300D02*
X152660600Y-98327200D01*
X152660600Y-100138500D02*
X152660600Y-99179600D01*
%TO.C,R8*%
D11*
X155290000Y-116322936D02*
X155290000Y-120677064D01*
X158710000Y-116322936D02*
X158710000Y-120677064D01*
%TO.C,R6*%
D15*
X148339400Y-97368300D02*
X149660600Y-97368300D01*
X148339400Y-98327200D02*
X148339400Y-97368300D01*
X148339400Y-99179600D02*
X148339400Y-100138500D01*
X148339400Y-100138500D02*
X149660600Y-100138500D01*
X149660600Y-97368300D02*
X149660600Y-98327200D01*
X149660600Y-100138500D02*
X149660600Y-99179600D01*
%TO.C,H1*%
D11*
X144010000Y-90170000D02*
X145340000Y-90170000D01*
X144010000Y-91500000D02*
X144010000Y-90170000D01*
X144010000Y-92770000D02*
X146610000Y-92770000D01*
X144010000Y-95370000D02*
X144010000Y-92770000D01*
X144010000Y-95370000D02*
X161910000Y-95370000D01*
X146610000Y-90170000D02*
X161910000Y-90170000D01*
X146610000Y-92770000D02*
X146610000Y-90170000D01*
X161910000Y-95370000D02*
X161910000Y-90170000D01*
%TO.C,R2*%
D15*
X158684400Y-97368300D02*
X158684400Y-98327200D01*
X158684400Y-100138500D02*
X158684400Y-99179600D01*
X160005600Y-97368300D02*
X158684400Y-97368300D01*
X160005600Y-98327200D02*
X160005600Y-97368300D01*
X160005600Y-99179600D02*
X160005600Y-100138500D01*
X160005600Y-100138500D02*
X158684400Y-100138500D01*
%TO.C,C5*%
D14*
X161270000Y-120110000D02*
X161270000Y-122350000D01*
X161270000Y-126290000D02*
X161270000Y-124050000D01*
X163410000Y-117970000D02*
X161270000Y-120110000D01*
X163410000Y-128430000D02*
X161270000Y-126290000D01*
X171730000Y-117970000D02*
X163410000Y-117970000D01*
X171730000Y-122350000D02*
X171730000Y-117970000D01*
X171730000Y-124050000D02*
X171730000Y-128430000D01*
X171730000Y-128430000D02*
X163410000Y-128430000D01*
D18*
X161030000Y-128350000D02*
G75*
G02*
X160970000Y-128350000I-30000J0D01*
G01*
X160970000Y-128350000D02*
G75*
G02*
X161030000Y-128350000I30000J0D01*
G01*
D19*
G36*
X162894978Y-125723363D02*
G01*
X161658963Y-125723363D01*
X161658963Y-125414372D01*
X162894978Y-125414372D01*
X162894978Y-125723363D01*
G37*
G36*
X162431479Y-126598876D02*
G01*
X162122462Y-126598876D01*
X162122462Y-124538885D01*
X162431479Y-124538885D01*
X162431479Y-126598876D01*
G37*
G36*
X171340986Y-125723363D02*
G01*
X170104971Y-125723363D01*
X170104971Y-125414372D01*
X171340986Y-125414372D01*
X171340986Y-125723363D01*
G37*
%TO.C,C7*%
D16*
X150790000Y-106980300D02*
X150790000Y-107780200D01*
X150795800Y-106404400D02*
X150795800Y-105604400D01*
X151899800Y-108090000D02*
X151099700Y-108090000D01*
X151905600Y-105294500D02*
X151105600Y-105294500D01*
X152209600Y-106980300D02*
X152209600Y-107780200D01*
X152215400Y-106404400D02*
X152215400Y-105604400D01*
X150795800Y-105604300D02*
G75*
G02*
X151105600Y-105294500I309799J1D01*
G01*
X151099800Y-108090000D02*
G75*
G02*
X150790000Y-107780200I0J309800D01*
G01*
X151905600Y-105294500D02*
G75*
G02*
X152215400Y-105604300I1J-309799D01*
G01*
X152209600Y-107780200D02*
G75*
G02*
X151899800Y-108090000I-309800J0D01*
G01*
%TO.C,R1*%
D15*
X156384400Y-97368300D02*
X156384400Y-98327200D01*
X156384400Y-100138500D02*
X156384400Y-99179600D01*
X157705600Y-97368300D02*
X156384400Y-97368300D01*
X157705600Y-98327200D02*
X157705600Y-97368300D01*
X157705600Y-99179600D02*
X157705600Y-100138500D01*
X157705600Y-100138500D02*
X156384400Y-100138500D01*
%TO.C,R10*%
X165839400Y-102868300D02*
X165839400Y-103827200D01*
X165839400Y-105638500D02*
X165839400Y-104679600D01*
X167160600Y-102868300D02*
X165839400Y-102868300D01*
X167160600Y-103827200D02*
X167160600Y-102868300D01*
X167160600Y-104679600D02*
X167160600Y-105638500D01*
X167160600Y-105638500D02*
X165839400Y-105638500D01*
%TO.C,C8*%
D16*
X159910000Y-112899800D02*
X159910000Y-112099700D01*
X161019700Y-111790000D02*
X160219800Y-111790000D01*
X161019700Y-113209600D02*
X160219800Y-113209600D01*
X161595600Y-111795800D02*
X162395600Y-111795800D01*
X161595600Y-113215400D02*
X162395600Y-113215400D01*
X162705500Y-112905600D02*
X162705500Y-112105600D01*
X159910000Y-112099800D02*
G75*
G02*
X160219800Y-111790000I309800J0D01*
G01*
X160219800Y-113209600D02*
G75*
G02*
X159910000Y-112899800I0J309800D01*
G01*
X162395700Y-111795800D02*
G75*
G02*
X162705500Y-112105600I1J-309799D01*
G01*
X162705500Y-112905600D02*
G75*
G02*
X162395700Y-113215400I-309799J-1D01*
G01*
%TO.C,R11*%
D15*
X170339400Y-102868300D02*
X170339400Y-103827200D01*
X170339400Y-105638500D02*
X170339400Y-104679600D01*
X171660600Y-102868300D02*
X170339400Y-102868300D01*
X171660600Y-103827200D02*
X171660600Y-102868300D01*
X171660600Y-104679600D02*
X171660600Y-105638500D01*
X171660600Y-105638500D02*
X170339400Y-105638500D01*
%TO.C,R4*%
X145839400Y-97361500D02*
X147160600Y-97361500D01*
X145839400Y-98320400D02*
X145839400Y-97361500D01*
X145839400Y-99172800D02*
X145839400Y-100131700D01*
X145839400Y-100131700D02*
X147160600Y-100131700D01*
X147160600Y-97361500D02*
X147160600Y-98320400D01*
X147160600Y-100131700D02*
X147160600Y-99172800D01*
%TO.C,SJ2*%
D11*
X169600000Y-100950000D02*
X169600000Y-100350000D01*
X170300000Y-99650000D02*
X171700000Y-99650000D01*
X171700000Y-101650000D02*
X170300000Y-101650000D01*
X172400000Y-100350000D02*
X172400000Y-100950000D01*
X169600000Y-100350000D02*
G75*
G02*
X170300000Y-99650000I699999J1D01*
G01*
X170300000Y-101650000D02*
G75*
G02*
X169600000Y-100950000I-1J699999D01*
G01*
X171700000Y-99650000D02*
G75*
G02*
X172400000Y-100350000I0J-700000D01*
G01*
X172400000Y-100950000D02*
G75*
G02*
X171700000Y-101650000I-700000J0D01*
G01*
%TO.C,LED1*%
D16*
X163183900Y-91492000D02*
X163539500Y-91136400D01*
X163183900Y-92508000D02*
X163183900Y-91492000D01*
X163539500Y-92863600D02*
X163183900Y-92508000D01*
X164682500Y-92863600D02*
X163539500Y-92863600D01*
X164707900Y-91136400D02*
X163539500Y-91136400D01*
D20*
X165076200Y-92008000D02*
X164900800Y-92008000D01*
X165076200Y-92406400D02*
X165076200Y-91619000D01*
D16*
X166765300Y-91136400D02*
X165292100Y-91136400D01*
X166765300Y-92863600D02*
X165292100Y-92863600D01*
X166765300Y-92863600D02*
X166765300Y-91136400D01*
%TO.C,C1*%
X150784600Y-110495600D02*
X150784600Y-111295600D01*
X150790400Y-109919700D02*
X150790400Y-109119800D01*
X151094400Y-111605500D02*
X151894400Y-111605500D01*
X151100200Y-108810000D02*
X151900300Y-108810000D01*
X152204200Y-110495600D02*
X152204200Y-111295600D01*
X152210000Y-109919700D02*
X152210000Y-109119800D01*
X150790400Y-109119800D02*
G75*
G02*
X151100200Y-108810000I309800J0D01*
G01*
X151094400Y-111605500D02*
G75*
G02*
X150784600Y-111295700I-1J309799D01*
G01*
X151900200Y-108810000D02*
G75*
G02*
X152210000Y-109119800I0J-309800D01*
G01*
X152204200Y-111295700D02*
G75*
G02*
X151894400Y-111605500I-309799J-1D01*
G01*
%TO.C,C4*%
X163290000Y-102980300D02*
X163290000Y-103780200D01*
X163295800Y-102404400D02*
X163295800Y-101604400D01*
X164399800Y-104090000D02*
X163599700Y-104090000D01*
X164405600Y-101294500D02*
X163605600Y-101294500D01*
X164709600Y-102980300D02*
X164709600Y-103780200D01*
X164715400Y-102404400D02*
X164715400Y-101604400D01*
X163295800Y-101604300D02*
G75*
G02*
X163605600Y-101294500I309799J1D01*
G01*
X163599800Y-104090000D02*
G75*
G02*
X163290000Y-103780200I0J309800D01*
G01*
X164405600Y-101294500D02*
G75*
G02*
X164715400Y-101604300I1J-309799D01*
G01*
X164709600Y-103780200D02*
G75*
G02*
X164399800Y-104090000I-309800J0D01*
G01*
%TO.C,C3*%
D14*
X142070000Y-117970000D02*
X150390000Y-117970000D01*
X142070000Y-122350000D02*
X142070000Y-117970000D01*
X142070000Y-124050000D02*
X142070000Y-128430000D01*
X142070000Y-128430000D02*
X150390000Y-128430000D01*
X150390000Y-117970000D02*
X152530000Y-120110000D01*
X150390000Y-128430000D02*
X152530000Y-126290000D01*
X152530000Y-120110000D02*
X152530000Y-122350000D01*
X152530000Y-126290000D02*
X152530000Y-124050000D01*
D18*
X152830000Y-118050000D02*
G75*
G02*
X152770000Y-118050000I-30000J0D01*
G01*
X152770000Y-118050000D02*
G75*
G02*
X152830000Y-118050000I30000J0D01*
G01*
D19*
G36*
X143695029Y-120985628D02*
G01*
X142459014Y-120985628D01*
X142459014Y-120676637D01*
X143695029Y-120676637D01*
X143695029Y-120985628D01*
G37*
G36*
X151677538Y-121861115D02*
G01*
X151368521Y-121861115D01*
X151368521Y-119801124D01*
X151677538Y-119801124D01*
X151677538Y-121861115D01*
G37*
G36*
X152141037Y-120985628D02*
G01*
X150905022Y-120985628D01*
X150905022Y-120676637D01*
X152141037Y-120676637D01*
X152141037Y-120985628D01*
G37*
%TD*%
M02*
