%TF.GenerationSoftware,KiCad,Pcbnew,10.0.3*%
%TF.CreationDate,2026-07-03T14:00:46+08:00*%
%TF.ProjectId,project,70726f6a-6563-4742-9e6b-696361645f70,rev?*%
%TF.SameCoordinates,Original*%
%TF.FileFunction,Legend,Top*%
%TF.FilePolarity,Positive*%
%FSLAX46Y46*%
G04 Gerber Fmt 4.6, Leading zero omitted, Abs format (unit mm)*
G04 Created by KiCad (PCBNEW 10.0.3) date 2026-07-03 14:00:46*
%MOMM*%
%LPD*%
G01*
G04 APERTURE LIST*
%ADD10C,0.100000*%
%ADD11C,0.120000*%
%ADD12C,0.152400*%
%ADD13C,0.254000*%
%ADD14C,0.300000*%
%ADD15C,0.150000*%
%ADD16C,0.060000*%
%ADD17C,0.000000*%
%ADD18C,0.203000*%
G04 APERTURE END LIST*
D10*
X137633332Y-123828133D02*
X137633332Y-123128133D01*
X137633332Y-123128133D02*
X137799999Y-123128133D01*
X137799999Y-123128133D02*
X137899999Y-123161466D01*
X137899999Y-123161466D02*
X137966666Y-123228133D01*
X137966666Y-123228133D02*
X137999999Y-123294800D01*
X137999999Y-123294800D02*
X138033332Y-123428133D01*
X138033332Y-123428133D02*
X138033332Y-123528133D01*
X138033332Y-123528133D02*
X137999999Y-123661466D01*
X137999999Y-123661466D02*
X137966666Y-123728133D01*
X137966666Y-123728133D02*
X137899999Y-123794800D01*
X137899999Y-123794800D02*
X137799999Y-123828133D01*
X137799999Y-123828133D02*
X137633332Y-123828133D01*
X138733332Y-123828133D02*
X138499999Y-123494800D01*
X138333332Y-123828133D02*
X138333332Y-123128133D01*
X138333332Y-123128133D02*
X138599999Y-123128133D01*
X138599999Y-123128133D02*
X138666666Y-123161466D01*
X138666666Y-123161466D02*
X138699999Y-123194800D01*
X138699999Y-123194800D02*
X138733332Y-123261466D01*
X138733332Y-123261466D02*
X138733332Y-123361466D01*
X138733332Y-123361466D02*
X138699999Y-123428133D01*
X138699999Y-123428133D02*
X138666666Y-123461466D01*
X138666666Y-123461466D02*
X138599999Y-123494800D01*
X138599999Y-123494800D02*
X138333332Y-123494800D01*
X138933332Y-123128133D02*
X139166666Y-123828133D01*
X139166666Y-123828133D02*
X139399999Y-123128133D01*
X139733332Y-123428133D02*
X139666666Y-123394800D01*
X139666666Y-123394800D02*
X139633332Y-123361466D01*
X139633332Y-123361466D02*
X139599999Y-123294800D01*
X139599999Y-123294800D02*
X139599999Y-123261466D01*
X139599999Y-123261466D02*
X139633332Y-123194800D01*
X139633332Y-123194800D02*
X139666666Y-123161466D01*
X139666666Y-123161466D02*
X139733332Y-123128133D01*
X139733332Y-123128133D02*
X139866666Y-123128133D01*
X139866666Y-123128133D02*
X139933332Y-123161466D01*
X139933332Y-123161466D02*
X139966666Y-123194800D01*
X139966666Y-123194800D02*
X139999999Y-123261466D01*
X139999999Y-123261466D02*
X139999999Y-123294800D01*
X139999999Y-123294800D02*
X139966666Y-123361466D01*
X139966666Y-123361466D02*
X139933332Y-123394800D01*
X139933332Y-123394800D02*
X139866666Y-123428133D01*
X139866666Y-123428133D02*
X139733332Y-123428133D01*
X139733332Y-123428133D02*
X139666666Y-123461466D01*
X139666666Y-123461466D02*
X139633332Y-123494800D01*
X139633332Y-123494800D02*
X139599999Y-123561466D01*
X139599999Y-123561466D02*
X139599999Y-123694800D01*
X139599999Y-123694800D02*
X139633332Y-123761466D01*
X139633332Y-123761466D02*
X139666666Y-123794800D01*
X139666666Y-123794800D02*
X139733332Y-123828133D01*
X139733332Y-123828133D02*
X139866666Y-123828133D01*
X139866666Y-123828133D02*
X139933332Y-123794800D01*
X139933332Y-123794800D02*
X139966666Y-123761466D01*
X139966666Y-123761466D02*
X139999999Y-123694800D01*
X139999999Y-123694800D02*
X139999999Y-123561466D01*
X139999999Y-123561466D02*
X139966666Y-123494800D01*
X139966666Y-123494800D02*
X139933332Y-123461466D01*
X139933332Y-123461466D02*
X139866666Y-123428133D01*
X140233333Y-123128133D02*
X140666666Y-123128133D01*
X140666666Y-123128133D02*
X140433333Y-123394800D01*
X140433333Y-123394800D02*
X140533333Y-123394800D01*
X140533333Y-123394800D02*
X140599999Y-123428133D01*
X140599999Y-123428133D02*
X140633333Y-123461466D01*
X140633333Y-123461466D02*
X140666666Y-123528133D01*
X140666666Y-123528133D02*
X140666666Y-123694800D01*
X140666666Y-123694800D02*
X140633333Y-123761466D01*
X140633333Y-123761466D02*
X140599999Y-123794800D01*
X140599999Y-123794800D02*
X140533333Y-123828133D01*
X140533333Y-123828133D02*
X140333333Y-123828133D01*
X140333333Y-123828133D02*
X140266666Y-123794800D01*
X140266666Y-123794800D02*
X140233333Y-123761466D01*
X141333333Y-123828133D02*
X140933333Y-123828133D01*
X141133333Y-123828133D02*
X141133333Y-123128133D01*
X141133333Y-123128133D02*
X141066666Y-123228133D01*
X141066666Y-123228133D02*
X141000000Y-123294800D01*
X141000000Y-123294800D02*
X140933333Y-123328133D01*
X141566667Y-123128133D02*
X142000000Y-123128133D01*
X142000000Y-123128133D02*
X141766667Y-123394800D01*
X141766667Y-123394800D02*
X141866667Y-123394800D01*
X141866667Y-123394800D02*
X141933333Y-123428133D01*
X141933333Y-123428133D02*
X141966667Y-123461466D01*
X141966667Y-123461466D02*
X142000000Y-123528133D01*
X142000000Y-123528133D02*
X142000000Y-123694800D01*
X142000000Y-123694800D02*
X141966667Y-123761466D01*
X141966667Y-123761466D02*
X141933333Y-123794800D01*
X141933333Y-123794800D02*
X141866667Y-123828133D01*
X141866667Y-123828133D02*
X141666667Y-123828133D01*
X141666667Y-123828133D02*
X141600000Y-123794800D01*
X141600000Y-123794800D02*
X141566667Y-123761466D01*
X137316668Y-125261466D02*
X137416668Y-125294800D01*
X137416668Y-125294800D02*
X137450001Y-125328133D01*
X137450001Y-125328133D02*
X137483334Y-125394800D01*
X137483334Y-125394800D02*
X137483334Y-125494800D01*
X137483334Y-125494800D02*
X137450001Y-125561466D01*
X137450001Y-125561466D02*
X137416668Y-125594800D01*
X137416668Y-125594800D02*
X137350001Y-125628133D01*
X137350001Y-125628133D02*
X137083334Y-125628133D01*
X137083334Y-125628133D02*
X137083334Y-124928133D01*
X137083334Y-124928133D02*
X137316668Y-124928133D01*
X137316668Y-124928133D02*
X137383334Y-124961466D01*
X137383334Y-124961466D02*
X137416668Y-124994800D01*
X137416668Y-124994800D02*
X137450001Y-125061466D01*
X137450001Y-125061466D02*
X137450001Y-125128133D01*
X137450001Y-125128133D02*
X137416668Y-125194800D01*
X137416668Y-125194800D02*
X137383334Y-125228133D01*
X137383334Y-125228133D02*
X137316668Y-125261466D01*
X137316668Y-125261466D02*
X137083334Y-125261466D01*
X137883334Y-125628133D02*
X137816668Y-125594800D01*
X137816668Y-125594800D02*
X137783334Y-125561466D01*
X137783334Y-125561466D02*
X137750001Y-125494800D01*
X137750001Y-125494800D02*
X137750001Y-125294800D01*
X137750001Y-125294800D02*
X137783334Y-125228133D01*
X137783334Y-125228133D02*
X137816668Y-125194800D01*
X137816668Y-125194800D02*
X137883334Y-125161466D01*
X137883334Y-125161466D02*
X137983334Y-125161466D01*
X137983334Y-125161466D02*
X138050001Y-125194800D01*
X138050001Y-125194800D02*
X138083334Y-125228133D01*
X138083334Y-125228133D02*
X138116668Y-125294800D01*
X138116668Y-125294800D02*
X138116668Y-125494800D01*
X138116668Y-125494800D02*
X138083334Y-125561466D01*
X138083334Y-125561466D02*
X138050001Y-125594800D01*
X138050001Y-125594800D02*
X137983334Y-125628133D01*
X137983334Y-125628133D02*
X137883334Y-125628133D01*
X138716667Y-125628133D02*
X138716667Y-125261466D01*
X138716667Y-125261466D02*
X138683334Y-125194800D01*
X138683334Y-125194800D02*
X138616667Y-125161466D01*
X138616667Y-125161466D02*
X138483334Y-125161466D01*
X138483334Y-125161466D02*
X138416667Y-125194800D01*
X138716667Y-125594800D02*
X138650001Y-125628133D01*
X138650001Y-125628133D02*
X138483334Y-125628133D01*
X138483334Y-125628133D02*
X138416667Y-125594800D01*
X138416667Y-125594800D02*
X138383334Y-125528133D01*
X138383334Y-125528133D02*
X138383334Y-125461466D01*
X138383334Y-125461466D02*
X138416667Y-125394800D01*
X138416667Y-125394800D02*
X138483334Y-125361466D01*
X138483334Y-125361466D02*
X138650001Y-125361466D01*
X138650001Y-125361466D02*
X138716667Y-125328133D01*
X139050000Y-125628133D02*
X139050000Y-125161466D01*
X139050000Y-125294800D02*
X139083334Y-125228133D01*
X139083334Y-125228133D02*
X139116667Y-125194800D01*
X139116667Y-125194800D02*
X139183334Y-125161466D01*
X139183334Y-125161466D02*
X139250000Y-125161466D01*
X139783333Y-125628133D02*
X139783333Y-124928133D01*
X139783333Y-125594800D02*
X139716667Y-125628133D01*
X139716667Y-125628133D02*
X139583333Y-125628133D01*
X139583333Y-125628133D02*
X139516667Y-125594800D01*
X139516667Y-125594800D02*
X139483333Y-125561466D01*
X139483333Y-125561466D02*
X139450000Y-125494800D01*
X139450000Y-125494800D02*
X139450000Y-125294800D01*
X139450000Y-125294800D02*
X139483333Y-125228133D01*
X139483333Y-125228133D02*
X139516667Y-125194800D01*
X139516667Y-125194800D02*
X139583333Y-125161466D01*
X139583333Y-125161466D02*
X139716667Y-125161466D01*
X139716667Y-125161466D02*
X139783333Y-125194800D01*
X140583333Y-125161466D02*
X140749999Y-125628133D01*
X140749999Y-125628133D02*
X140916666Y-125161466D01*
X141549999Y-125628133D02*
X141149999Y-125628133D01*
X141349999Y-125628133D02*
X141349999Y-124928133D01*
X141349999Y-124928133D02*
X141283332Y-125028133D01*
X141283332Y-125028133D02*
X141216666Y-125094800D01*
X141216666Y-125094800D02*
X141149999Y-125128133D01*
X141849999Y-125561466D02*
X141883333Y-125594800D01*
X141883333Y-125594800D02*
X141849999Y-125628133D01*
X141849999Y-125628133D02*
X141816666Y-125594800D01*
X141816666Y-125594800D02*
X141849999Y-125561466D01*
X141849999Y-125561466D02*
X141849999Y-125628133D01*
X142316666Y-124928133D02*
X142383332Y-124928133D01*
X142383332Y-124928133D02*
X142449999Y-124961466D01*
X142449999Y-124961466D02*
X142483332Y-124994800D01*
X142483332Y-124994800D02*
X142516666Y-125061466D01*
X142516666Y-125061466D02*
X142549999Y-125194800D01*
X142549999Y-125194800D02*
X142549999Y-125361466D01*
X142549999Y-125361466D02*
X142516666Y-125494800D01*
X142516666Y-125494800D02*
X142483332Y-125561466D01*
X142483332Y-125561466D02*
X142449999Y-125594800D01*
X142449999Y-125594800D02*
X142383332Y-125628133D01*
X142383332Y-125628133D02*
X142316666Y-125628133D01*
X142316666Y-125628133D02*
X142249999Y-125594800D01*
X142249999Y-125594800D02*
X142216666Y-125561466D01*
X142216666Y-125561466D02*
X142183332Y-125494800D01*
X142183332Y-125494800D02*
X142149999Y-125361466D01*
X142149999Y-125361466D02*
X142149999Y-125194800D01*
X142149999Y-125194800D02*
X142183332Y-125061466D01*
X142183332Y-125061466D02*
X142216666Y-124994800D01*
X142216666Y-124994800D02*
X142249999Y-124961466D01*
X142249999Y-124961466D02*
X142316666Y-124928133D01*
X138400000Y-126728133D02*
X138466666Y-126728133D01*
X138466666Y-126728133D02*
X138533333Y-126761466D01*
X138533333Y-126761466D02*
X138566666Y-126794800D01*
X138566666Y-126794800D02*
X138600000Y-126861466D01*
X138600000Y-126861466D02*
X138633333Y-126994800D01*
X138633333Y-126994800D02*
X138633333Y-127161466D01*
X138633333Y-127161466D02*
X138600000Y-127294800D01*
X138600000Y-127294800D02*
X138566666Y-127361466D01*
X138566666Y-127361466D02*
X138533333Y-127394800D01*
X138533333Y-127394800D02*
X138466666Y-127428133D01*
X138466666Y-127428133D02*
X138400000Y-127428133D01*
X138400000Y-127428133D02*
X138333333Y-127394800D01*
X138333333Y-127394800D02*
X138300000Y-127361466D01*
X138300000Y-127361466D02*
X138266666Y-127294800D01*
X138266666Y-127294800D02*
X138233333Y-127161466D01*
X138233333Y-127161466D02*
X138233333Y-126994800D01*
X138233333Y-126994800D02*
X138266666Y-126861466D01*
X138266666Y-126861466D02*
X138300000Y-126794800D01*
X138300000Y-126794800D02*
X138333333Y-126761466D01*
X138333333Y-126761466D02*
X138400000Y-126728133D01*
X139233333Y-126728133D02*
X139100000Y-126728133D01*
X139100000Y-126728133D02*
X139033333Y-126761466D01*
X139033333Y-126761466D02*
X139000000Y-126794800D01*
X139000000Y-126794800D02*
X138933333Y-126894800D01*
X138933333Y-126894800D02*
X138900000Y-127028133D01*
X138900000Y-127028133D02*
X138900000Y-127294800D01*
X138900000Y-127294800D02*
X138933333Y-127361466D01*
X138933333Y-127361466D02*
X138966667Y-127394800D01*
X138966667Y-127394800D02*
X139033333Y-127428133D01*
X139033333Y-127428133D02*
X139166667Y-127428133D01*
X139166667Y-127428133D02*
X139233333Y-127394800D01*
X139233333Y-127394800D02*
X139266667Y-127361466D01*
X139266667Y-127361466D02*
X139300000Y-127294800D01*
X139300000Y-127294800D02*
X139300000Y-127128133D01*
X139300000Y-127128133D02*
X139266667Y-127061466D01*
X139266667Y-127061466D02*
X139233333Y-127028133D01*
X139233333Y-127028133D02*
X139166667Y-126994800D01*
X139166667Y-126994800D02*
X139033333Y-126994800D01*
X139033333Y-126994800D02*
X138966667Y-127028133D01*
X138966667Y-127028133D02*
X138933333Y-127061466D01*
X138933333Y-127061466D02*
X138900000Y-127128133D01*
X140100000Y-126694800D02*
X139500000Y-127594800D01*
X140300000Y-126794800D02*
X140333333Y-126761466D01*
X140333333Y-126761466D02*
X140400000Y-126728133D01*
X140400000Y-126728133D02*
X140566667Y-126728133D01*
X140566667Y-126728133D02*
X140633333Y-126761466D01*
X140633333Y-126761466D02*
X140666667Y-126794800D01*
X140666667Y-126794800D02*
X140700000Y-126861466D01*
X140700000Y-126861466D02*
X140700000Y-126928133D01*
X140700000Y-126928133D02*
X140666667Y-127028133D01*
X140666667Y-127028133D02*
X140266667Y-127428133D01*
X140266667Y-127428133D02*
X140700000Y-127428133D01*
X141300000Y-126728133D02*
X141166667Y-126728133D01*
X141166667Y-126728133D02*
X141100000Y-126761466D01*
X141100000Y-126761466D02*
X141066667Y-126794800D01*
X141066667Y-126794800D02*
X141000000Y-126894800D01*
X141000000Y-126894800D02*
X140966667Y-127028133D01*
X140966667Y-127028133D02*
X140966667Y-127294800D01*
X140966667Y-127294800D02*
X141000000Y-127361466D01*
X141000000Y-127361466D02*
X141033334Y-127394800D01*
X141033334Y-127394800D02*
X141100000Y-127428133D01*
X141100000Y-127428133D02*
X141233334Y-127428133D01*
X141233334Y-127428133D02*
X141300000Y-127394800D01*
X141300000Y-127394800D02*
X141333334Y-127361466D01*
X141333334Y-127361466D02*
X141366667Y-127294800D01*
X141366667Y-127294800D02*
X141366667Y-127128133D01*
X141366667Y-127128133D02*
X141333334Y-127061466D01*
X141333334Y-127061466D02*
X141300000Y-127028133D01*
X141300000Y-127028133D02*
X141233334Y-126994800D01*
X141233334Y-126994800D02*
X141100000Y-126994800D01*
X141100000Y-126994800D02*
X141033334Y-127028133D01*
X141033334Y-127028133D02*
X141000000Y-127061466D01*
X141000000Y-127061466D02*
X140966667Y-127128133D01*
X165733333Y-123251966D02*
X166266667Y-123251966D01*
X166000000Y-123518633D02*
X166000000Y-122985300D01*
X183768633Y-106066666D02*
X183068633Y-106066666D01*
X183068633Y-106066666D02*
X183568633Y-105833333D01*
X183568633Y-105833333D02*
X183068633Y-105599999D01*
X183068633Y-105599999D02*
X183768633Y-105599999D01*
X183068633Y-105333333D02*
X183068633Y-104899999D01*
X183068633Y-104899999D02*
X183335300Y-105133333D01*
X183335300Y-105133333D02*
X183335300Y-105033333D01*
X183335300Y-105033333D02*
X183368633Y-104966666D01*
X183368633Y-104966666D02*
X183401966Y-104933333D01*
X183401966Y-104933333D02*
X183468633Y-104899999D01*
X183468633Y-104899999D02*
X183635300Y-104899999D01*
X183635300Y-104899999D02*
X183701966Y-104933333D01*
X183701966Y-104933333D02*
X183735300Y-104966666D01*
X183735300Y-104966666D02*
X183768633Y-105033333D01*
X183768633Y-105033333D02*
X183768633Y-105233333D01*
X183768633Y-105233333D02*
X183735300Y-105299999D01*
X183735300Y-105299999D02*
X183701966Y-105333333D01*
X183768633Y-111066666D02*
X183068633Y-111066666D01*
X183068633Y-111066666D02*
X183568633Y-110833333D01*
X183568633Y-110833333D02*
X183068633Y-110599999D01*
X183068633Y-110599999D02*
X183768633Y-110599999D01*
X183135300Y-110299999D02*
X183101966Y-110266666D01*
X183101966Y-110266666D02*
X183068633Y-110199999D01*
X183068633Y-110199999D02*
X183068633Y-110033333D01*
X183068633Y-110033333D02*
X183101966Y-109966666D01*
X183101966Y-109966666D02*
X183135300Y-109933333D01*
X183135300Y-109933333D02*
X183201966Y-109899999D01*
X183201966Y-109899999D02*
X183268633Y-109899999D01*
X183268633Y-109899999D02*
X183368633Y-109933333D01*
X183368633Y-109933333D02*
X183768633Y-110333333D01*
X183768633Y-110333333D02*
X183768633Y-109899999D01*
X183768633Y-116066666D02*
X183068633Y-116066666D01*
X183068633Y-116066666D02*
X183568633Y-115833333D01*
X183568633Y-115833333D02*
X183068633Y-115599999D01*
X183068633Y-115599999D02*
X183768633Y-115599999D01*
X183768633Y-114899999D02*
X183768633Y-115299999D01*
X183768633Y-115099999D02*
X183068633Y-115099999D01*
X183068633Y-115099999D02*
X183168633Y-115166666D01*
X183168633Y-115166666D02*
X183235300Y-115233333D01*
X183235300Y-115233333D02*
X183268633Y-115299999D01*
X183151966Y-101533332D02*
X183118633Y-101599999D01*
X183118633Y-101599999D02*
X183118633Y-101699999D01*
X183118633Y-101699999D02*
X183151966Y-101799999D01*
X183151966Y-101799999D02*
X183218633Y-101866666D01*
X183218633Y-101866666D02*
X183285300Y-101899999D01*
X183285300Y-101899999D02*
X183418633Y-101933332D01*
X183418633Y-101933332D02*
X183518633Y-101933332D01*
X183518633Y-101933332D02*
X183651966Y-101899999D01*
X183651966Y-101899999D02*
X183718633Y-101866666D01*
X183718633Y-101866666D02*
X183785300Y-101799999D01*
X183785300Y-101799999D02*
X183818633Y-101699999D01*
X183818633Y-101699999D02*
X183818633Y-101633332D01*
X183818633Y-101633332D02*
X183785300Y-101533332D01*
X183785300Y-101533332D02*
X183751966Y-101499999D01*
X183751966Y-101499999D02*
X183518633Y-101499999D01*
X183518633Y-101499999D02*
X183518633Y-101633332D01*
X183818633Y-101199999D02*
X183118633Y-101199999D01*
X183118633Y-101199999D02*
X183818633Y-100799999D01*
X183818633Y-100799999D02*
X183118633Y-100799999D01*
X183818633Y-100466666D02*
X183118633Y-100466666D01*
X183118633Y-100466666D02*
X183118633Y-100299999D01*
X183118633Y-100299999D02*
X183151966Y-100199999D01*
X183151966Y-100199999D02*
X183218633Y-100133333D01*
X183218633Y-100133333D02*
X183285300Y-100099999D01*
X183285300Y-100099999D02*
X183418633Y-100066666D01*
X183418633Y-100066666D02*
X183518633Y-100066666D01*
X183518633Y-100066666D02*
X183651966Y-100099999D01*
X183651966Y-100099999D02*
X183718633Y-100133333D01*
X183718633Y-100133333D02*
X183785300Y-100199999D01*
X183785300Y-100199999D02*
X183818633Y-100299999D01*
X183818633Y-100299999D02*
X183818633Y-100466666D01*
X183118633Y-120133333D02*
X183818633Y-119900000D01*
X183818633Y-119900000D02*
X183118633Y-119666666D01*
X183818633Y-119433333D02*
X183118633Y-119433333D01*
X183118633Y-119433333D02*
X183618633Y-119200000D01*
X183618633Y-119200000D02*
X183118633Y-118966666D01*
X183118633Y-118966666D02*
X183818633Y-118966666D01*
X146159999Y-88881366D02*
X146159999Y-89581366D01*
X145826666Y-88881366D02*
X145826666Y-89581366D01*
X145826666Y-89581366D02*
X145426666Y-88881366D01*
X145426666Y-88881366D02*
X145426666Y-89581366D01*
X144726666Y-88881366D02*
X145126666Y-88881366D01*
X144926666Y-88881366D02*
X144926666Y-89581366D01*
X144926666Y-89581366D02*
X144993333Y-89481366D01*
X144993333Y-89481366D02*
X145060000Y-89414700D01*
X145060000Y-89414700D02*
X145126666Y-89381366D01*
X146309999Y-96348033D02*
X146076666Y-96348033D01*
X145976666Y-95981366D02*
X146309999Y-95981366D01*
X146309999Y-95981366D02*
X146309999Y-96681366D01*
X146309999Y-96681366D02*
X145976666Y-96681366D01*
X145676666Y-95981366D02*
X145676666Y-96681366D01*
X145676666Y-96681366D02*
X145276666Y-95981366D01*
X145276666Y-95981366D02*
X145276666Y-96681366D01*
X144576666Y-95981366D02*
X144976666Y-95981366D01*
X144776666Y-95981366D02*
X144776666Y-96681366D01*
X144776666Y-96681366D02*
X144843333Y-96581366D01*
X144843333Y-96581366D02*
X144910000Y-96514700D01*
X144910000Y-96514700D02*
X144976666Y-96481366D01*
X148699999Y-88881366D02*
X148699999Y-89581366D01*
X148366666Y-88881366D02*
X148366666Y-89581366D01*
X148366666Y-89581366D02*
X147966666Y-88881366D01*
X147966666Y-88881366D02*
X147966666Y-89581366D01*
X147666666Y-89514700D02*
X147633333Y-89548033D01*
X147633333Y-89548033D02*
X147566666Y-89581366D01*
X147566666Y-89581366D02*
X147400000Y-89581366D01*
X147400000Y-89581366D02*
X147333333Y-89548033D01*
X147333333Y-89548033D02*
X147300000Y-89514700D01*
X147300000Y-89514700D02*
X147266666Y-89448033D01*
X147266666Y-89448033D02*
X147266666Y-89381366D01*
X147266666Y-89381366D02*
X147300000Y-89281366D01*
X147300000Y-89281366D02*
X147700000Y-88881366D01*
X147700000Y-88881366D02*
X147266666Y-88881366D01*
X148849999Y-96348033D02*
X148616666Y-96348033D01*
X148516666Y-95981366D02*
X148849999Y-95981366D01*
X148849999Y-95981366D02*
X148849999Y-96681366D01*
X148849999Y-96681366D02*
X148516666Y-96681366D01*
X148216666Y-95981366D02*
X148216666Y-96681366D01*
X148216666Y-96681366D02*
X147816666Y-95981366D01*
X147816666Y-95981366D02*
X147816666Y-96681366D01*
X147516666Y-96614700D02*
X147483333Y-96648033D01*
X147483333Y-96648033D02*
X147416666Y-96681366D01*
X147416666Y-96681366D02*
X147250000Y-96681366D01*
X147250000Y-96681366D02*
X147183333Y-96648033D01*
X147183333Y-96648033D02*
X147150000Y-96614700D01*
X147150000Y-96614700D02*
X147116666Y-96548033D01*
X147116666Y-96548033D02*
X147116666Y-96481366D01*
X147116666Y-96481366D02*
X147150000Y-96381366D01*
X147150000Y-96381366D02*
X147550000Y-95981366D01*
X147550000Y-95981366D02*
X147116666Y-95981366D01*
X151239999Y-88881366D02*
X151239999Y-89581366D01*
X150906666Y-88881366D02*
X150906666Y-89581366D01*
X150906666Y-89581366D02*
X150506666Y-88881366D01*
X150506666Y-88881366D02*
X150506666Y-89581366D01*
X150240000Y-89581366D02*
X149806666Y-89581366D01*
X149806666Y-89581366D02*
X150040000Y-89314700D01*
X150040000Y-89314700D02*
X149940000Y-89314700D01*
X149940000Y-89314700D02*
X149873333Y-89281366D01*
X149873333Y-89281366D02*
X149840000Y-89248033D01*
X149840000Y-89248033D02*
X149806666Y-89181366D01*
X149806666Y-89181366D02*
X149806666Y-89014700D01*
X149806666Y-89014700D02*
X149840000Y-88948033D01*
X149840000Y-88948033D02*
X149873333Y-88914700D01*
X149873333Y-88914700D02*
X149940000Y-88881366D01*
X149940000Y-88881366D02*
X150140000Y-88881366D01*
X150140000Y-88881366D02*
X150206666Y-88914700D01*
X150206666Y-88914700D02*
X150240000Y-88948033D01*
X151389999Y-96348033D02*
X151156666Y-96348033D01*
X151056666Y-95981366D02*
X151389999Y-95981366D01*
X151389999Y-95981366D02*
X151389999Y-96681366D01*
X151389999Y-96681366D02*
X151056666Y-96681366D01*
X150756666Y-95981366D02*
X150756666Y-96681366D01*
X150756666Y-96681366D02*
X150356666Y-95981366D01*
X150356666Y-95981366D02*
X150356666Y-96681366D01*
X150090000Y-96681366D02*
X149656666Y-96681366D01*
X149656666Y-96681366D02*
X149890000Y-96414700D01*
X149890000Y-96414700D02*
X149790000Y-96414700D01*
X149790000Y-96414700D02*
X149723333Y-96381366D01*
X149723333Y-96381366D02*
X149690000Y-96348033D01*
X149690000Y-96348033D02*
X149656666Y-96281366D01*
X149656666Y-96281366D02*
X149656666Y-96114700D01*
X149656666Y-96114700D02*
X149690000Y-96048033D01*
X149690000Y-96048033D02*
X149723333Y-96014700D01*
X149723333Y-96014700D02*
X149790000Y-95981366D01*
X149790000Y-95981366D02*
X149990000Y-95981366D01*
X149990000Y-95981366D02*
X150056666Y-96014700D01*
X150056666Y-96014700D02*
X150090000Y-96048033D01*
X153450000Y-89248033D02*
X153683333Y-89248033D01*
X153683333Y-88881366D02*
X153683333Y-89581366D01*
X153683333Y-89581366D02*
X153350000Y-89581366D01*
X152750000Y-88881366D02*
X153083333Y-88881366D01*
X153083333Y-88881366D02*
X153083333Y-89581366D01*
X152616666Y-89581366D02*
X152216666Y-89581366D01*
X152416666Y-88881366D02*
X152416666Y-89581366D01*
X153533333Y-96048033D02*
X153566666Y-96014700D01*
X153566666Y-96014700D02*
X153666666Y-95981366D01*
X153666666Y-95981366D02*
X153733333Y-95981366D01*
X153733333Y-95981366D02*
X153833333Y-96014700D01*
X153833333Y-96014700D02*
X153900000Y-96081366D01*
X153900000Y-96081366D02*
X153933333Y-96148033D01*
X153933333Y-96148033D02*
X153966666Y-96281366D01*
X153966666Y-96281366D02*
X153966666Y-96381366D01*
X153966666Y-96381366D02*
X153933333Y-96514700D01*
X153933333Y-96514700D02*
X153900000Y-96581366D01*
X153900000Y-96581366D02*
X153833333Y-96648033D01*
X153833333Y-96648033D02*
X153733333Y-96681366D01*
X153733333Y-96681366D02*
X153666666Y-96681366D01*
X153666666Y-96681366D02*
X153566666Y-96648033D01*
X153566666Y-96648033D02*
X153533333Y-96614700D01*
X153233333Y-95981366D02*
X153233333Y-96681366D01*
X153233333Y-96681366D02*
X153000000Y-96181366D01*
X153000000Y-96181366D02*
X152766666Y-96681366D01*
X152766666Y-96681366D02*
X152766666Y-95981366D01*
X152433333Y-95981366D02*
X152433333Y-96681366D01*
X152433333Y-96681366D02*
X152166666Y-96681366D01*
X152166666Y-96681366D02*
X152100000Y-96648033D01*
X152100000Y-96648033D02*
X152066666Y-96614700D01*
X152066666Y-96614700D02*
X152033333Y-96548033D01*
X152033333Y-96548033D02*
X152033333Y-96448033D01*
X152033333Y-96448033D02*
X152066666Y-96381366D01*
X152066666Y-96381366D02*
X152100000Y-96348033D01*
X152100000Y-96348033D02*
X152166666Y-96314700D01*
X152166666Y-96314700D02*
X152433333Y-96314700D01*
X155883333Y-88881366D02*
X156116666Y-89214700D01*
X156283333Y-88881366D02*
X156283333Y-89581366D01*
X156283333Y-89581366D02*
X156016666Y-89581366D01*
X156016666Y-89581366D02*
X155950000Y-89548033D01*
X155950000Y-89548033D02*
X155916666Y-89514700D01*
X155916666Y-89514700D02*
X155883333Y-89448033D01*
X155883333Y-89448033D02*
X155883333Y-89348033D01*
X155883333Y-89348033D02*
X155916666Y-89281366D01*
X155916666Y-89281366D02*
X155950000Y-89248033D01*
X155950000Y-89248033D02*
X156016666Y-89214700D01*
X156016666Y-89214700D02*
X156283333Y-89214700D01*
X155616666Y-88914700D02*
X155516666Y-88881366D01*
X155516666Y-88881366D02*
X155350000Y-88881366D01*
X155350000Y-88881366D02*
X155283333Y-88914700D01*
X155283333Y-88914700D02*
X155250000Y-88948033D01*
X155250000Y-88948033D02*
X155216666Y-89014700D01*
X155216666Y-89014700D02*
X155216666Y-89081366D01*
X155216666Y-89081366D02*
X155250000Y-89148033D01*
X155250000Y-89148033D02*
X155283333Y-89181366D01*
X155283333Y-89181366D02*
X155350000Y-89214700D01*
X155350000Y-89214700D02*
X155483333Y-89248033D01*
X155483333Y-89248033D02*
X155550000Y-89281366D01*
X155550000Y-89281366D02*
X155583333Y-89314700D01*
X155583333Y-89314700D02*
X155616666Y-89381366D01*
X155616666Y-89381366D02*
X155616666Y-89448033D01*
X155616666Y-89448033D02*
X155583333Y-89514700D01*
X155583333Y-89514700D02*
X155550000Y-89548033D01*
X155550000Y-89548033D02*
X155483333Y-89581366D01*
X155483333Y-89581366D02*
X155316666Y-89581366D01*
X155316666Y-89581366D02*
X155216666Y-89548033D01*
X155016666Y-89581366D02*
X154616666Y-89581366D01*
X154816666Y-88881366D02*
X154816666Y-89581366D01*
X156333333Y-96014700D02*
X156233333Y-95981366D01*
X156233333Y-95981366D02*
X156066667Y-95981366D01*
X156066667Y-95981366D02*
X156000000Y-96014700D01*
X156000000Y-96014700D02*
X155966667Y-96048033D01*
X155966667Y-96048033D02*
X155933333Y-96114700D01*
X155933333Y-96114700D02*
X155933333Y-96181366D01*
X155933333Y-96181366D02*
X155966667Y-96248033D01*
X155966667Y-96248033D02*
X156000000Y-96281366D01*
X156000000Y-96281366D02*
X156066667Y-96314700D01*
X156066667Y-96314700D02*
X156200000Y-96348033D01*
X156200000Y-96348033D02*
X156266667Y-96381366D01*
X156266667Y-96381366D02*
X156300000Y-96414700D01*
X156300000Y-96414700D02*
X156333333Y-96481366D01*
X156333333Y-96481366D02*
X156333333Y-96548033D01*
X156333333Y-96548033D02*
X156300000Y-96614700D01*
X156300000Y-96614700D02*
X156266667Y-96648033D01*
X156266667Y-96648033D02*
X156200000Y-96681366D01*
X156200000Y-96681366D02*
X156033333Y-96681366D01*
X156033333Y-96681366D02*
X155933333Y-96648033D01*
X155300000Y-95981366D02*
X155633333Y-95981366D01*
X155633333Y-95981366D02*
X155633333Y-96681366D01*
X155066666Y-95981366D02*
X155066666Y-96681366D01*
X155066666Y-96681366D02*
X154799999Y-96681366D01*
X154799999Y-96681366D02*
X154733333Y-96648033D01*
X154733333Y-96648033D02*
X154699999Y-96614700D01*
X154699999Y-96614700D02*
X154666666Y-96548033D01*
X154666666Y-96548033D02*
X154666666Y-96448033D01*
X154666666Y-96448033D02*
X154699999Y-96381366D01*
X154699999Y-96381366D02*
X154733333Y-96348033D01*
X154733333Y-96348033D02*
X154799999Y-96314700D01*
X154799999Y-96314700D02*
X155066666Y-96314700D01*
X159399999Y-89581366D02*
X159166666Y-88881366D01*
X159166666Y-88881366D02*
X158933332Y-89581366D01*
X158299999Y-88881366D02*
X158533332Y-89214700D01*
X158699999Y-88881366D02*
X158699999Y-89581366D01*
X158699999Y-89581366D02*
X158433332Y-89581366D01*
X158433332Y-89581366D02*
X158366666Y-89548033D01*
X158366666Y-89548033D02*
X158333332Y-89514700D01*
X158333332Y-89514700D02*
X158299999Y-89448033D01*
X158299999Y-89448033D02*
X158299999Y-89348033D01*
X158299999Y-89348033D02*
X158333332Y-89281366D01*
X158333332Y-89281366D02*
X158366666Y-89248033D01*
X158366666Y-89248033D02*
X158433332Y-89214700D01*
X158433332Y-89214700D02*
X158699999Y-89214700D01*
X157999999Y-89248033D02*
X157766666Y-89248033D01*
X157666666Y-88881366D02*
X157999999Y-88881366D01*
X157999999Y-88881366D02*
X157999999Y-89581366D01*
X157999999Y-89581366D02*
X157666666Y-89581366D01*
X157133333Y-89248033D02*
X157366666Y-89248033D01*
X157366666Y-88881366D02*
X157366666Y-89581366D01*
X157366666Y-89581366D02*
X157033333Y-89581366D01*
X159449999Y-95981366D02*
X159449999Y-96681366D01*
X159449999Y-96681366D02*
X159183332Y-96681366D01*
X159183332Y-96681366D02*
X159116666Y-96648033D01*
X159116666Y-96648033D02*
X159083332Y-96614700D01*
X159083332Y-96614700D02*
X159049999Y-96548033D01*
X159049999Y-96548033D02*
X159049999Y-96448033D01*
X159049999Y-96448033D02*
X159083332Y-96381366D01*
X159083332Y-96381366D02*
X159116666Y-96348033D01*
X159116666Y-96348033D02*
X159183332Y-96314700D01*
X159183332Y-96314700D02*
X159449999Y-96314700D01*
X158383332Y-96648033D02*
X158449999Y-96681366D01*
X158449999Y-96681366D02*
X158549999Y-96681366D01*
X158549999Y-96681366D02*
X158649999Y-96648033D01*
X158649999Y-96648033D02*
X158716666Y-96581366D01*
X158716666Y-96581366D02*
X158749999Y-96514700D01*
X158749999Y-96514700D02*
X158783332Y-96381366D01*
X158783332Y-96381366D02*
X158783332Y-96281366D01*
X158783332Y-96281366D02*
X158749999Y-96148033D01*
X158749999Y-96148033D02*
X158716666Y-96081366D01*
X158716666Y-96081366D02*
X158649999Y-96014700D01*
X158649999Y-96014700D02*
X158549999Y-95981366D01*
X158549999Y-95981366D02*
X158483332Y-95981366D01*
X158483332Y-95981366D02*
X158383332Y-96014700D01*
X158383332Y-96014700D02*
X158349999Y-96048033D01*
X158349999Y-96048033D02*
X158349999Y-96281366D01*
X158349999Y-96281366D02*
X158483332Y-96281366D01*
X158049999Y-95981366D02*
X158049999Y-96681366D01*
X158049999Y-96681366D02*
X157649999Y-95981366D01*
X157649999Y-95981366D02*
X157649999Y-96681366D01*
X157316666Y-95981366D02*
X157316666Y-96681366D01*
X157316666Y-96681366D02*
X157149999Y-96681366D01*
X157149999Y-96681366D02*
X157049999Y-96648033D01*
X157049999Y-96648033D02*
X156983333Y-96581366D01*
X156983333Y-96581366D02*
X156949999Y-96514700D01*
X156949999Y-96514700D02*
X156916666Y-96381366D01*
X156916666Y-96381366D02*
X156916666Y-96281366D01*
X156916666Y-96281366D02*
X156949999Y-96148033D01*
X156949999Y-96148033D02*
X156983333Y-96081366D01*
X156983333Y-96081366D02*
X157049999Y-96014700D01*
X157049999Y-96014700D02*
X157149999Y-95981366D01*
X157149999Y-95981366D02*
X157316666Y-95981366D01*
X161533332Y-89548033D02*
X161599999Y-89581366D01*
X161599999Y-89581366D02*
X161699999Y-89581366D01*
X161699999Y-89581366D02*
X161799999Y-89548033D01*
X161799999Y-89548033D02*
X161866666Y-89481366D01*
X161866666Y-89481366D02*
X161899999Y-89414700D01*
X161899999Y-89414700D02*
X161933332Y-89281366D01*
X161933332Y-89281366D02*
X161933332Y-89181366D01*
X161933332Y-89181366D02*
X161899999Y-89048033D01*
X161899999Y-89048033D02*
X161866666Y-88981366D01*
X161866666Y-88981366D02*
X161799999Y-88914700D01*
X161799999Y-88914700D02*
X161699999Y-88881366D01*
X161699999Y-88881366D02*
X161633332Y-88881366D01*
X161633332Y-88881366D02*
X161533332Y-88914700D01*
X161533332Y-88914700D02*
X161499999Y-88948033D01*
X161499999Y-88948033D02*
X161499999Y-89181366D01*
X161499999Y-89181366D02*
X161633332Y-89181366D01*
X161199999Y-88881366D02*
X161199999Y-89581366D01*
X161199999Y-89581366D02*
X160799999Y-88881366D01*
X160799999Y-88881366D02*
X160799999Y-89581366D01*
X160466666Y-88881366D02*
X160466666Y-89581366D01*
X160466666Y-89581366D02*
X160299999Y-89581366D01*
X160299999Y-89581366D02*
X160199999Y-89548033D01*
X160199999Y-89548033D02*
X160133333Y-89481366D01*
X160133333Y-89481366D02*
X160099999Y-89414700D01*
X160099999Y-89414700D02*
X160066666Y-89281366D01*
X160066666Y-89281366D02*
X160066666Y-89181366D01*
X160066666Y-89181366D02*
X160099999Y-89048033D01*
X160099999Y-89048033D02*
X160133333Y-88981366D01*
X160133333Y-88981366D02*
X160199999Y-88914700D01*
X160199999Y-88914700D02*
X160299999Y-88881366D01*
X160299999Y-88881366D02*
X160466666Y-88881366D01*
X161866667Y-96681366D02*
X161433333Y-96681366D01*
X161433333Y-96681366D02*
X161666667Y-96414700D01*
X161666667Y-96414700D02*
X161566667Y-96414700D01*
X161566667Y-96414700D02*
X161500000Y-96381366D01*
X161500000Y-96381366D02*
X161466667Y-96348033D01*
X161466667Y-96348033D02*
X161433333Y-96281366D01*
X161433333Y-96281366D02*
X161433333Y-96114700D01*
X161433333Y-96114700D02*
X161466667Y-96048033D01*
X161466667Y-96048033D02*
X161500000Y-96014700D01*
X161500000Y-96014700D02*
X161566667Y-95981366D01*
X161566667Y-95981366D02*
X161766667Y-95981366D01*
X161766667Y-95981366D02*
X161833333Y-96014700D01*
X161833333Y-96014700D02*
X161866667Y-96048033D01*
X161233333Y-96681366D02*
X161000000Y-95981366D01*
X161000000Y-95981366D02*
X160766666Y-96681366D01*
X160600000Y-96681366D02*
X160166666Y-96681366D01*
X160166666Y-96681366D02*
X160400000Y-96414700D01*
X160400000Y-96414700D02*
X160300000Y-96414700D01*
X160300000Y-96414700D02*
X160233333Y-96381366D01*
X160233333Y-96381366D02*
X160200000Y-96348033D01*
X160200000Y-96348033D02*
X160166666Y-96281366D01*
X160166666Y-96281366D02*
X160166666Y-96114700D01*
X160166666Y-96114700D02*
X160200000Y-96048033D01*
X160200000Y-96048033D02*
X160233333Y-96014700D01*
X160233333Y-96014700D02*
X160300000Y-95981366D01*
X160300000Y-95981366D02*
X160500000Y-95981366D01*
X160500000Y-95981366D02*
X160566666Y-96014700D01*
X160566666Y-96014700D02*
X160600000Y-96048033D01*
X135381366Y-112766666D02*
X134681366Y-113000000D01*
X134681366Y-113000000D02*
X135381366Y-113233333D01*
X134681366Y-113466666D02*
X135381366Y-113466666D01*
X135381366Y-113466666D02*
X134881366Y-113700000D01*
X134881366Y-113700000D02*
X135381366Y-113933333D01*
X135381366Y-113933333D02*
X134681366Y-113933333D01*
X135448033Y-107966667D02*
X135481366Y-107900000D01*
X135481366Y-107900000D02*
X135481366Y-107800000D01*
X135481366Y-107800000D02*
X135448033Y-107700000D01*
X135448033Y-107700000D02*
X135381366Y-107633334D01*
X135381366Y-107633334D02*
X135314700Y-107600000D01*
X135314700Y-107600000D02*
X135181366Y-107566667D01*
X135181366Y-107566667D02*
X135081366Y-107566667D01*
X135081366Y-107566667D02*
X134948033Y-107600000D01*
X134948033Y-107600000D02*
X134881366Y-107633334D01*
X134881366Y-107633334D02*
X134814700Y-107700000D01*
X134814700Y-107700000D02*
X134781366Y-107800000D01*
X134781366Y-107800000D02*
X134781366Y-107866667D01*
X134781366Y-107866667D02*
X134814700Y-107966667D01*
X134814700Y-107966667D02*
X134848033Y-108000000D01*
X134848033Y-108000000D02*
X135081366Y-108000000D01*
X135081366Y-108000000D02*
X135081366Y-107866667D01*
X134781366Y-108300000D02*
X135481366Y-108300000D01*
X135481366Y-108300000D02*
X134781366Y-108700000D01*
X134781366Y-108700000D02*
X135481366Y-108700000D01*
X134781366Y-109033333D02*
X135481366Y-109033333D01*
X135481366Y-109033333D02*
X135481366Y-109200000D01*
X135481366Y-109200000D02*
X135448033Y-109300000D01*
X135448033Y-109300000D02*
X135381366Y-109366667D01*
X135381366Y-109366667D02*
X135314700Y-109400000D01*
X135314700Y-109400000D02*
X135181366Y-109433333D01*
X135181366Y-109433333D02*
X135081366Y-109433333D01*
X135081366Y-109433333D02*
X134948033Y-109400000D01*
X134948033Y-109400000D02*
X134881366Y-109366667D01*
X134881366Y-109366667D02*
X134814700Y-109300000D01*
X134814700Y-109300000D02*
X134781366Y-109200000D01*
X134781366Y-109200000D02*
X134781366Y-109033333D01*
X139481366Y-117333332D02*
X139514700Y-117266666D01*
X139514700Y-117266666D02*
X139548033Y-117233332D01*
X139548033Y-117233332D02*
X139614700Y-117199999D01*
X139614700Y-117199999D02*
X139648033Y-117199999D01*
X139648033Y-117199999D02*
X139714700Y-117233332D01*
X139714700Y-117233332D02*
X139748033Y-117266666D01*
X139748033Y-117266666D02*
X139781366Y-117333332D01*
X139781366Y-117333332D02*
X139781366Y-117466666D01*
X139781366Y-117466666D02*
X139748033Y-117533332D01*
X139748033Y-117533332D02*
X139714700Y-117566666D01*
X139714700Y-117566666D02*
X139648033Y-117599999D01*
X139648033Y-117599999D02*
X139614700Y-117599999D01*
X139614700Y-117599999D02*
X139548033Y-117566666D01*
X139548033Y-117566666D02*
X139514700Y-117533332D01*
X139514700Y-117533332D02*
X139481366Y-117466666D01*
X139481366Y-117466666D02*
X139481366Y-117333332D01*
X139481366Y-117333332D02*
X139448033Y-117266666D01*
X139448033Y-117266666D02*
X139414700Y-117233332D01*
X139414700Y-117233332D02*
X139348033Y-117199999D01*
X139348033Y-117199999D02*
X139214700Y-117199999D01*
X139214700Y-117199999D02*
X139148033Y-117233332D01*
X139148033Y-117233332D02*
X139114700Y-117266666D01*
X139114700Y-117266666D02*
X139081366Y-117333332D01*
X139081366Y-117333332D02*
X139081366Y-117466666D01*
X139081366Y-117466666D02*
X139114700Y-117533332D01*
X139114700Y-117533332D02*
X139148033Y-117566666D01*
X139148033Y-117566666D02*
X139214700Y-117599999D01*
X139214700Y-117599999D02*
X139348033Y-117599999D01*
X139348033Y-117599999D02*
X139414700Y-117566666D01*
X139414700Y-117566666D02*
X139448033Y-117533332D01*
X139448033Y-117533332D02*
X139481366Y-117466666D01*
X139348033Y-117899999D02*
X139348033Y-118433333D01*
X139781366Y-119066666D02*
X139781366Y-118933333D01*
X139781366Y-118933333D02*
X139748033Y-118866666D01*
X139748033Y-118866666D02*
X139714700Y-118833333D01*
X139714700Y-118833333D02*
X139614700Y-118766666D01*
X139614700Y-118766666D02*
X139481366Y-118733333D01*
X139481366Y-118733333D02*
X139214700Y-118733333D01*
X139214700Y-118733333D02*
X139148033Y-118766666D01*
X139148033Y-118766666D02*
X139114700Y-118800000D01*
X139114700Y-118800000D02*
X139081366Y-118866666D01*
X139081366Y-118866666D02*
X139081366Y-119000000D01*
X139081366Y-119000000D02*
X139114700Y-119066666D01*
X139114700Y-119066666D02*
X139148033Y-119100000D01*
X139148033Y-119100000D02*
X139214700Y-119133333D01*
X139214700Y-119133333D02*
X139381366Y-119133333D01*
X139381366Y-119133333D02*
X139448033Y-119100000D01*
X139448033Y-119100000D02*
X139481366Y-119066666D01*
X139481366Y-119066666D02*
X139514700Y-119000000D01*
X139514700Y-119000000D02*
X139514700Y-118866666D01*
X139514700Y-118866666D02*
X139481366Y-118800000D01*
X139481366Y-118800000D02*
X139448033Y-118766666D01*
X139448033Y-118766666D02*
X139381366Y-118733333D01*
X139781366Y-119566667D02*
X139781366Y-119633333D01*
X139781366Y-119633333D02*
X139748033Y-119700000D01*
X139748033Y-119700000D02*
X139714700Y-119733333D01*
X139714700Y-119733333D02*
X139648033Y-119766667D01*
X139648033Y-119766667D02*
X139514700Y-119800000D01*
X139514700Y-119800000D02*
X139348033Y-119800000D01*
X139348033Y-119800000D02*
X139214700Y-119766667D01*
X139214700Y-119766667D02*
X139148033Y-119733333D01*
X139148033Y-119733333D02*
X139114700Y-119700000D01*
X139114700Y-119700000D02*
X139081366Y-119633333D01*
X139081366Y-119633333D02*
X139081366Y-119566667D01*
X139081366Y-119566667D02*
X139114700Y-119500000D01*
X139114700Y-119500000D02*
X139148033Y-119466667D01*
X139148033Y-119466667D02*
X139214700Y-119433333D01*
X139214700Y-119433333D02*
X139348033Y-119400000D01*
X139348033Y-119400000D02*
X139514700Y-119400000D01*
X139514700Y-119400000D02*
X139648033Y-119433333D01*
X139648033Y-119433333D02*
X139714700Y-119466667D01*
X139714700Y-119466667D02*
X139748033Y-119500000D01*
X139748033Y-119500000D02*
X139781366Y-119566667D01*
X139781366Y-120000000D02*
X139081366Y-120233334D01*
X139081366Y-120233334D02*
X139781366Y-120466667D01*
X172899999Y-98614700D02*
X172799999Y-98581366D01*
X172799999Y-98581366D02*
X172633333Y-98581366D01*
X172633333Y-98581366D02*
X172566666Y-98614700D01*
X172566666Y-98614700D02*
X172533333Y-98648033D01*
X172533333Y-98648033D02*
X172499999Y-98714700D01*
X172499999Y-98714700D02*
X172499999Y-98781366D01*
X172499999Y-98781366D02*
X172533333Y-98848033D01*
X172533333Y-98848033D02*
X172566666Y-98881366D01*
X172566666Y-98881366D02*
X172633333Y-98914700D01*
X172633333Y-98914700D02*
X172766666Y-98948033D01*
X172766666Y-98948033D02*
X172833333Y-98981366D01*
X172833333Y-98981366D02*
X172866666Y-99014700D01*
X172866666Y-99014700D02*
X172899999Y-99081366D01*
X172899999Y-99081366D02*
X172899999Y-99148033D01*
X172899999Y-99148033D02*
X172866666Y-99214700D01*
X172866666Y-99214700D02*
X172833333Y-99248033D01*
X172833333Y-99248033D02*
X172766666Y-99281366D01*
X172766666Y-99281366D02*
X172599999Y-99281366D01*
X172599999Y-99281366D02*
X172499999Y-99248033D01*
X171999999Y-99281366D02*
X171999999Y-98781366D01*
X171999999Y-98781366D02*
X172033332Y-98681366D01*
X172033332Y-98681366D02*
X172099999Y-98614700D01*
X172099999Y-98614700D02*
X172199999Y-98581366D01*
X172199999Y-98581366D02*
X172266666Y-98581366D01*
X171733333Y-99281366D02*
X171299999Y-99281366D01*
X171299999Y-99281366D02*
X171533333Y-99014700D01*
X171533333Y-99014700D02*
X171433333Y-99014700D01*
X171433333Y-99014700D02*
X171366666Y-98981366D01*
X171366666Y-98981366D02*
X171333333Y-98948033D01*
X171333333Y-98948033D02*
X171299999Y-98881366D01*
X171299999Y-98881366D02*
X171299999Y-98714700D01*
X171299999Y-98714700D02*
X171333333Y-98648033D01*
X171333333Y-98648033D02*
X171366666Y-98614700D01*
X171366666Y-98614700D02*
X171433333Y-98581366D01*
X171433333Y-98581366D02*
X171633333Y-98581366D01*
X171633333Y-98581366D02*
X171699999Y-98614700D01*
X171699999Y-98614700D02*
X171733333Y-98648033D01*
X159634210Y-99109133D02*
X159400877Y-98775800D01*
X159234210Y-99109133D02*
X159234210Y-98409133D01*
X159234210Y-98409133D02*
X159500877Y-98409133D01*
X159500877Y-98409133D02*
X159567544Y-98442466D01*
X159567544Y-98442466D02*
X159600877Y-98475800D01*
X159600877Y-98475800D02*
X159634210Y-98542466D01*
X159634210Y-98542466D02*
X159634210Y-98642466D01*
X159634210Y-98642466D02*
X159600877Y-98709133D01*
X159600877Y-98709133D02*
X159567544Y-98742466D01*
X159567544Y-98742466D02*
X159500877Y-98775800D01*
X159500877Y-98775800D02*
X159234210Y-98775800D01*
X160267544Y-98409133D02*
X159934210Y-98409133D01*
X159934210Y-98409133D02*
X159900877Y-98742466D01*
X159900877Y-98742466D02*
X159934210Y-98709133D01*
X159934210Y-98709133D02*
X160000877Y-98675800D01*
X160000877Y-98675800D02*
X160167544Y-98675800D01*
X160167544Y-98675800D02*
X160234210Y-98709133D01*
X160234210Y-98709133D02*
X160267544Y-98742466D01*
X160267544Y-98742466D02*
X160300877Y-98809133D01*
X160300877Y-98809133D02*
X160300877Y-98975800D01*
X160300877Y-98975800D02*
X160267544Y-99042466D01*
X160267544Y-99042466D02*
X160234210Y-99075800D01*
X160234210Y-99075800D02*
X160167544Y-99109133D01*
X160167544Y-99109133D02*
X160000877Y-99109133D01*
X160000877Y-99109133D02*
X159934210Y-99075800D01*
X159934210Y-99075800D02*
X159900877Y-99042466D01*
X162483333Y-119142466D02*
X162450000Y-119175800D01*
X162450000Y-119175800D02*
X162350000Y-119209133D01*
X162350000Y-119209133D02*
X162283333Y-119209133D01*
X162283333Y-119209133D02*
X162183333Y-119175800D01*
X162183333Y-119175800D02*
X162116667Y-119109133D01*
X162116667Y-119109133D02*
X162083333Y-119042466D01*
X162083333Y-119042466D02*
X162050000Y-118909133D01*
X162050000Y-118909133D02*
X162050000Y-118809133D01*
X162050000Y-118809133D02*
X162083333Y-118675800D01*
X162083333Y-118675800D02*
X162116667Y-118609133D01*
X162116667Y-118609133D02*
X162183333Y-118542466D01*
X162183333Y-118542466D02*
X162283333Y-118509133D01*
X162283333Y-118509133D02*
X162350000Y-118509133D01*
X162350000Y-118509133D02*
X162450000Y-118542466D01*
X162450000Y-118542466D02*
X162483333Y-118575800D01*
X162750000Y-118575800D02*
X162783333Y-118542466D01*
X162783333Y-118542466D02*
X162850000Y-118509133D01*
X162850000Y-118509133D02*
X163016667Y-118509133D01*
X163016667Y-118509133D02*
X163083333Y-118542466D01*
X163083333Y-118542466D02*
X163116667Y-118575800D01*
X163116667Y-118575800D02*
X163150000Y-118642466D01*
X163150000Y-118642466D02*
X163150000Y-118709133D01*
X163150000Y-118709133D02*
X163116667Y-118809133D01*
X163116667Y-118809133D02*
X162716667Y-119209133D01*
X162716667Y-119209133D02*
X163150000Y-119209133D01*
X150049999Y-102228133D02*
X149816666Y-101894800D01*
X149649999Y-102228133D02*
X149649999Y-101528133D01*
X149649999Y-101528133D02*
X149916666Y-101528133D01*
X149916666Y-101528133D02*
X149983333Y-101561466D01*
X149983333Y-101561466D02*
X150016666Y-101594800D01*
X150016666Y-101594800D02*
X150049999Y-101661466D01*
X150049999Y-101661466D02*
X150049999Y-101761466D01*
X150049999Y-101761466D02*
X150016666Y-101828133D01*
X150016666Y-101828133D02*
X149983333Y-101861466D01*
X149983333Y-101861466D02*
X149916666Y-101894800D01*
X149916666Y-101894800D02*
X149649999Y-101894800D01*
X150716666Y-102228133D02*
X150316666Y-102228133D01*
X150516666Y-102228133D02*
X150516666Y-101528133D01*
X150516666Y-101528133D02*
X150449999Y-101628133D01*
X150449999Y-101628133D02*
X150383333Y-101694800D01*
X150383333Y-101694800D02*
X150316666Y-101728133D01*
X150983333Y-101594800D02*
X151016666Y-101561466D01*
X151016666Y-101561466D02*
X151083333Y-101528133D01*
X151083333Y-101528133D02*
X151250000Y-101528133D01*
X151250000Y-101528133D02*
X151316666Y-101561466D01*
X151316666Y-101561466D02*
X151350000Y-101594800D01*
X151350000Y-101594800D02*
X151383333Y-101661466D01*
X151383333Y-101661466D02*
X151383333Y-101728133D01*
X151383333Y-101728133D02*
X151350000Y-101828133D01*
X151350000Y-101828133D02*
X150950000Y-102228133D01*
X150950000Y-102228133D02*
X151383333Y-102228133D01*
X140381366Y-99650000D02*
X140381366Y-100050000D01*
X139681366Y-99850000D02*
X140381366Y-99850000D01*
X140048033Y-100516667D02*
X140014700Y-100616667D01*
X140014700Y-100616667D02*
X139981366Y-100650000D01*
X139981366Y-100650000D02*
X139914700Y-100683333D01*
X139914700Y-100683333D02*
X139814700Y-100683333D01*
X139814700Y-100683333D02*
X139748033Y-100650000D01*
X139748033Y-100650000D02*
X139714700Y-100616667D01*
X139714700Y-100616667D02*
X139681366Y-100550000D01*
X139681366Y-100550000D02*
X139681366Y-100283333D01*
X139681366Y-100283333D02*
X140381366Y-100283333D01*
X140381366Y-100283333D02*
X140381366Y-100516667D01*
X140381366Y-100516667D02*
X140348033Y-100583333D01*
X140348033Y-100583333D02*
X140314700Y-100616667D01*
X140314700Y-100616667D02*
X140248033Y-100650000D01*
X140248033Y-100650000D02*
X140181366Y-100650000D01*
X140181366Y-100650000D02*
X140114700Y-100616667D01*
X140114700Y-100616667D02*
X140081366Y-100583333D01*
X140081366Y-100583333D02*
X140048033Y-100516667D01*
X140048033Y-100516667D02*
X140048033Y-100283333D01*
X139614700Y-100816667D02*
X139614700Y-101350000D01*
X139681366Y-101516666D02*
X140381366Y-101516666D01*
X140381366Y-101516666D02*
X140381366Y-101783333D01*
X140381366Y-101783333D02*
X140348033Y-101850000D01*
X140348033Y-101850000D02*
X140314700Y-101883333D01*
X140314700Y-101883333D02*
X140248033Y-101916666D01*
X140248033Y-101916666D02*
X140148033Y-101916666D01*
X140148033Y-101916666D02*
X140081366Y-101883333D01*
X140081366Y-101883333D02*
X140048033Y-101850000D01*
X140048033Y-101850000D02*
X140014700Y-101783333D01*
X140014700Y-101783333D02*
X140014700Y-101516666D01*
X140381366Y-102150000D02*
X139681366Y-102316666D01*
X139681366Y-102316666D02*
X140181366Y-102450000D01*
X140181366Y-102450000D02*
X139681366Y-102583333D01*
X139681366Y-102583333D02*
X140381366Y-102750000D01*
X139681366Y-103416666D02*
X140014700Y-103183333D01*
X139681366Y-103016666D02*
X140381366Y-103016666D01*
X140381366Y-103016666D02*
X140381366Y-103283333D01*
X140381366Y-103283333D02*
X140348033Y-103350000D01*
X140348033Y-103350000D02*
X140314700Y-103383333D01*
X140314700Y-103383333D02*
X140248033Y-103416666D01*
X140248033Y-103416666D02*
X140148033Y-103416666D01*
X140148033Y-103416666D02*
X140081366Y-103383333D01*
X140081366Y-103383333D02*
X140048033Y-103350000D01*
X140048033Y-103350000D02*
X140014700Y-103283333D01*
X140014700Y-103283333D02*
X140014700Y-103016666D01*
X139681366Y-104083333D02*
X139681366Y-103683333D01*
X139681366Y-103883333D02*
X140381366Y-103883333D01*
X140381366Y-103883333D02*
X140281366Y-103816666D01*
X140281366Y-103816666D02*
X140214700Y-103750000D01*
X140214700Y-103750000D02*
X140181366Y-103683333D01*
X160334210Y-105209133D02*
X160100877Y-104875800D01*
X159934210Y-105209133D02*
X159934210Y-104509133D01*
X159934210Y-104509133D02*
X160200877Y-104509133D01*
X160200877Y-104509133D02*
X160267544Y-104542466D01*
X160267544Y-104542466D02*
X160300877Y-104575800D01*
X160300877Y-104575800D02*
X160334210Y-104642466D01*
X160334210Y-104642466D02*
X160334210Y-104742466D01*
X160334210Y-104742466D02*
X160300877Y-104809133D01*
X160300877Y-104809133D02*
X160267544Y-104842466D01*
X160267544Y-104842466D02*
X160200877Y-104875800D01*
X160200877Y-104875800D02*
X159934210Y-104875800D01*
X160667544Y-105209133D02*
X160800877Y-105209133D01*
X160800877Y-105209133D02*
X160867544Y-105175800D01*
X160867544Y-105175800D02*
X160900877Y-105142466D01*
X160900877Y-105142466D02*
X160967544Y-105042466D01*
X160967544Y-105042466D02*
X161000877Y-104909133D01*
X161000877Y-104909133D02*
X161000877Y-104642466D01*
X161000877Y-104642466D02*
X160967544Y-104575800D01*
X160967544Y-104575800D02*
X160934210Y-104542466D01*
X160934210Y-104542466D02*
X160867544Y-104509133D01*
X160867544Y-104509133D02*
X160734210Y-104509133D01*
X160734210Y-104509133D02*
X160667544Y-104542466D01*
X160667544Y-104542466D02*
X160634210Y-104575800D01*
X160634210Y-104575800D02*
X160600877Y-104642466D01*
X160600877Y-104642466D02*
X160600877Y-104809133D01*
X160600877Y-104809133D02*
X160634210Y-104875800D01*
X160634210Y-104875800D02*
X160667544Y-104909133D01*
X160667544Y-104909133D02*
X160734210Y-104942466D01*
X160734210Y-104942466D02*
X160867544Y-104942466D01*
X160867544Y-104942466D02*
X160934210Y-104909133D01*
X160934210Y-104909133D02*
X160967544Y-104875800D01*
X160967544Y-104875800D02*
X161000877Y-104809133D01*
X168899999Y-100514700D02*
X168799999Y-100481366D01*
X168799999Y-100481366D02*
X168633333Y-100481366D01*
X168633333Y-100481366D02*
X168566666Y-100514700D01*
X168566666Y-100514700D02*
X168533333Y-100548033D01*
X168533333Y-100548033D02*
X168499999Y-100614700D01*
X168499999Y-100614700D02*
X168499999Y-100681366D01*
X168499999Y-100681366D02*
X168533333Y-100748033D01*
X168533333Y-100748033D02*
X168566666Y-100781366D01*
X168566666Y-100781366D02*
X168633333Y-100814700D01*
X168633333Y-100814700D02*
X168766666Y-100848033D01*
X168766666Y-100848033D02*
X168833333Y-100881366D01*
X168833333Y-100881366D02*
X168866666Y-100914700D01*
X168866666Y-100914700D02*
X168899999Y-100981366D01*
X168899999Y-100981366D02*
X168899999Y-101048033D01*
X168899999Y-101048033D02*
X168866666Y-101114700D01*
X168866666Y-101114700D02*
X168833333Y-101148033D01*
X168833333Y-101148033D02*
X168766666Y-101181366D01*
X168766666Y-101181366D02*
X168599999Y-101181366D01*
X168599999Y-101181366D02*
X168499999Y-101148033D01*
X167999999Y-101181366D02*
X167999999Y-100681366D01*
X167999999Y-100681366D02*
X168033332Y-100581366D01*
X168033332Y-100581366D02*
X168099999Y-100514700D01*
X168099999Y-100514700D02*
X168199999Y-100481366D01*
X168199999Y-100481366D02*
X168266666Y-100481366D01*
X167299999Y-100481366D02*
X167699999Y-100481366D01*
X167499999Y-100481366D02*
X167499999Y-101181366D01*
X167499999Y-101181366D02*
X167566666Y-101081366D01*
X167566666Y-101081366D02*
X167633333Y-101014700D01*
X167633333Y-101014700D02*
X167699999Y-100981366D01*
X179318633Y-126516666D02*
X178618633Y-126516666D01*
X178618633Y-126516666D02*
X178618633Y-126249999D01*
X178618633Y-126249999D02*
X178651966Y-126183333D01*
X178651966Y-126183333D02*
X178685300Y-126149999D01*
X178685300Y-126149999D02*
X178751966Y-126116666D01*
X178751966Y-126116666D02*
X178851966Y-126116666D01*
X178851966Y-126116666D02*
X178918633Y-126149999D01*
X178918633Y-126149999D02*
X178951966Y-126183333D01*
X178951966Y-126183333D02*
X178985300Y-126249999D01*
X178985300Y-126249999D02*
X178985300Y-126516666D01*
X179318633Y-125449999D02*
X179318633Y-125849999D01*
X179318633Y-125649999D02*
X178618633Y-125649999D01*
X178618633Y-125649999D02*
X178718633Y-125716666D01*
X178718633Y-125716666D02*
X178785300Y-125783333D01*
X178785300Y-125783333D02*
X178818633Y-125849999D01*
X150429833Y-112246544D02*
X150996500Y-112246544D01*
X150996500Y-112246544D02*
X151063166Y-112213211D01*
X151063166Y-112213211D02*
X151096500Y-112179877D01*
X151096500Y-112179877D02*
X151129833Y-112113211D01*
X151129833Y-112113211D02*
X151129833Y-111979877D01*
X151129833Y-111979877D02*
X151096500Y-111913211D01*
X151096500Y-111913211D02*
X151063166Y-111879877D01*
X151063166Y-111879877D02*
X150996500Y-111846544D01*
X150996500Y-111846544D02*
X150429833Y-111846544D01*
X151129833Y-111146544D02*
X151129833Y-111546544D01*
X151129833Y-111346544D02*
X150429833Y-111346544D01*
X150429833Y-111346544D02*
X150529833Y-111413211D01*
X150529833Y-111413211D02*
X150596500Y-111479878D01*
X150596500Y-111479878D02*
X150629833Y-111546544D01*
X156338333Y-102228133D02*
X156105000Y-101894800D01*
X155938333Y-102228133D02*
X155938333Y-101528133D01*
X155938333Y-101528133D02*
X156205000Y-101528133D01*
X156205000Y-101528133D02*
X156271667Y-101561466D01*
X156271667Y-101561466D02*
X156305000Y-101594800D01*
X156305000Y-101594800D02*
X156338333Y-101661466D01*
X156338333Y-101661466D02*
X156338333Y-101761466D01*
X156338333Y-101761466D02*
X156305000Y-101828133D01*
X156305000Y-101828133D02*
X156271667Y-101861466D01*
X156271667Y-101861466D02*
X156205000Y-101894800D01*
X156205000Y-101894800D02*
X155938333Y-101894800D01*
X156571667Y-101528133D02*
X157005000Y-101528133D01*
X157005000Y-101528133D02*
X156771667Y-101794800D01*
X156771667Y-101794800D02*
X156871667Y-101794800D01*
X156871667Y-101794800D02*
X156938333Y-101828133D01*
X156938333Y-101828133D02*
X156971667Y-101861466D01*
X156971667Y-101861466D02*
X157005000Y-101928133D01*
X157005000Y-101928133D02*
X157005000Y-102094800D01*
X157005000Y-102094800D02*
X156971667Y-102161466D01*
X156971667Y-102161466D02*
X156938333Y-102194800D01*
X156938333Y-102194800D02*
X156871667Y-102228133D01*
X156871667Y-102228133D02*
X156671667Y-102228133D01*
X156671667Y-102228133D02*
X156605000Y-102194800D01*
X156605000Y-102194800D02*
X156571667Y-102161466D01*
X170448633Y-115379166D02*
X170115300Y-115612499D01*
X170448633Y-115779166D02*
X169748633Y-115779166D01*
X169748633Y-115779166D02*
X169748633Y-115512499D01*
X169748633Y-115512499D02*
X169781966Y-115445833D01*
X169781966Y-115445833D02*
X169815300Y-115412499D01*
X169815300Y-115412499D02*
X169881966Y-115379166D01*
X169881966Y-115379166D02*
X169981966Y-115379166D01*
X169981966Y-115379166D02*
X170048633Y-115412499D01*
X170048633Y-115412499D02*
X170081966Y-115445833D01*
X170081966Y-115445833D02*
X170115300Y-115512499D01*
X170115300Y-115512499D02*
X170115300Y-115779166D01*
X170048633Y-114979166D02*
X170015300Y-115045833D01*
X170015300Y-115045833D02*
X169981966Y-115079166D01*
X169981966Y-115079166D02*
X169915300Y-115112499D01*
X169915300Y-115112499D02*
X169881966Y-115112499D01*
X169881966Y-115112499D02*
X169815300Y-115079166D01*
X169815300Y-115079166D02*
X169781966Y-115045833D01*
X169781966Y-115045833D02*
X169748633Y-114979166D01*
X169748633Y-114979166D02*
X169748633Y-114845833D01*
X169748633Y-114845833D02*
X169781966Y-114779166D01*
X169781966Y-114779166D02*
X169815300Y-114745833D01*
X169815300Y-114745833D02*
X169881966Y-114712499D01*
X169881966Y-114712499D02*
X169915300Y-114712499D01*
X169915300Y-114712499D02*
X169981966Y-114745833D01*
X169981966Y-114745833D02*
X170015300Y-114779166D01*
X170015300Y-114779166D02*
X170048633Y-114845833D01*
X170048633Y-114845833D02*
X170048633Y-114979166D01*
X170048633Y-114979166D02*
X170081966Y-115045833D01*
X170081966Y-115045833D02*
X170115300Y-115079166D01*
X170115300Y-115079166D02*
X170181966Y-115112499D01*
X170181966Y-115112499D02*
X170315300Y-115112499D01*
X170315300Y-115112499D02*
X170381966Y-115079166D01*
X170381966Y-115079166D02*
X170415300Y-115045833D01*
X170415300Y-115045833D02*
X170448633Y-114979166D01*
X170448633Y-114979166D02*
X170448633Y-114845833D01*
X170448633Y-114845833D02*
X170415300Y-114779166D01*
X170415300Y-114779166D02*
X170381966Y-114745833D01*
X170381966Y-114745833D02*
X170315300Y-114712499D01*
X170315300Y-114712499D02*
X170181966Y-114712499D01*
X170181966Y-114712499D02*
X170115300Y-114745833D01*
X170115300Y-114745833D02*
X170081966Y-114779166D01*
X170081966Y-114779166D02*
X170048633Y-114845833D01*
X142888633Y-93303333D02*
X142188633Y-93303333D01*
X142521966Y-93303333D02*
X142521966Y-92903333D01*
X142888633Y-92903333D02*
X142188633Y-92903333D01*
X142888633Y-92203333D02*
X142888633Y-92603333D01*
X142888633Y-92403333D02*
X142188633Y-92403333D01*
X142188633Y-92403333D02*
X142288633Y-92470000D01*
X142288633Y-92470000D02*
X142355300Y-92536667D01*
X142355300Y-92536667D02*
X142388633Y-92603333D01*
X154538333Y-102228133D02*
X154305000Y-101894800D01*
X154138333Y-102228133D02*
X154138333Y-101528133D01*
X154138333Y-101528133D02*
X154405000Y-101528133D01*
X154405000Y-101528133D02*
X154471667Y-101561466D01*
X154471667Y-101561466D02*
X154505000Y-101594800D01*
X154505000Y-101594800D02*
X154538333Y-101661466D01*
X154538333Y-101661466D02*
X154538333Y-101761466D01*
X154538333Y-101761466D02*
X154505000Y-101828133D01*
X154505000Y-101828133D02*
X154471667Y-101861466D01*
X154471667Y-101861466D02*
X154405000Y-101894800D01*
X154405000Y-101894800D02*
X154138333Y-101894800D01*
X154805000Y-101594800D02*
X154838333Y-101561466D01*
X154838333Y-101561466D02*
X154905000Y-101528133D01*
X154905000Y-101528133D02*
X155071667Y-101528133D01*
X155071667Y-101528133D02*
X155138333Y-101561466D01*
X155138333Y-101561466D02*
X155171667Y-101594800D01*
X155171667Y-101594800D02*
X155205000Y-101661466D01*
X155205000Y-101661466D02*
X155205000Y-101728133D01*
X155205000Y-101728133D02*
X155171667Y-101828133D01*
X155171667Y-101828133D02*
X154771667Y-102228133D01*
X154771667Y-102228133D02*
X155205000Y-102228133D01*
X144751966Y-127816666D02*
X144785300Y-127849999D01*
X144785300Y-127849999D02*
X144818633Y-127949999D01*
X144818633Y-127949999D02*
X144818633Y-128016666D01*
X144818633Y-128016666D02*
X144785300Y-128116666D01*
X144785300Y-128116666D02*
X144718633Y-128183333D01*
X144718633Y-128183333D02*
X144651966Y-128216666D01*
X144651966Y-128216666D02*
X144518633Y-128249999D01*
X144518633Y-128249999D02*
X144418633Y-128249999D01*
X144418633Y-128249999D02*
X144285300Y-128216666D01*
X144285300Y-128216666D02*
X144218633Y-128183333D01*
X144218633Y-128183333D02*
X144151966Y-128116666D01*
X144151966Y-128116666D02*
X144118633Y-128016666D01*
X144118633Y-128016666D02*
X144118633Y-127949999D01*
X144118633Y-127949999D02*
X144151966Y-127849999D01*
X144151966Y-127849999D02*
X144185300Y-127816666D01*
X144118633Y-127183333D02*
X144118633Y-127516666D01*
X144118633Y-127516666D02*
X144451966Y-127549999D01*
X144451966Y-127549999D02*
X144418633Y-127516666D01*
X144418633Y-127516666D02*
X144385300Y-127449999D01*
X144385300Y-127449999D02*
X144385300Y-127283333D01*
X144385300Y-127283333D02*
X144418633Y-127216666D01*
X144418633Y-127216666D02*
X144451966Y-127183333D01*
X144451966Y-127183333D02*
X144518633Y-127149999D01*
X144518633Y-127149999D02*
X144685300Y-127149999D01*
X144685300Y-127149999D02*
X144751966Y-127183333D01*
X144751966Y-127183333D02*
X144785300Y-127216666D01*
X144785300Y-127216666D02*
X144818633Y-127283333D01*
X144818633Y-127283333D02*
X144818633Y-127449999D01*
X144818633Y-127449999D02*
X144785300Y-127516666D01*
X144785300Y-127516666D02*
X144751966Y-127549999D01*
X164483333Y-118961466D02*
X164450000Y-118994800D01*
X164450000Y-118994800D02*
X164350000Y-119028133D01*
X164350000Y-119028133D02*
X164283333Y-119028133D01*
X164283333Y-119028133D02*
X164183333Y-118994800D01*
X164183333Y-118994800D02*
X164116667Y-118928133D01*
X164116667Y-118928133D02*
X164083333Y-118861466D01*
X164083333Y-118861466D02*
X164050000Y-118728133D01*
X164050000Y-118728133D02*
X164050000Y-118628133D01*
X164050000Y-118628133D02*
X164083333Y-118494800D01*
X164083333Y-118494800D02*
X164116667Y-118428133D01*
X164116667Y-118428133D02*
X164183333Y-118361466D01*
X164183333Y-118361466D02*
X164283333Y-118328133D01*
X164283333Y-118328133D02*
X164350000Y-118328133D01*
X164350000Y-118328133D02*
X164450000Y-118361466D01*
X164450000Y-118361466D02*
X164483333Y-118394800D01*
X164716667Y-118328133D02*
X165183333Y-118328133D01*
X165183333Y-118328133D02*
X164883333Y-119028133D01*
X152383333Y-102228133D02*
X152150000Y-101894800D01*
X151983333Y-102228133D02*
X151983333Y-101528133D01*
X151983333Y-101528133D02*
X152250000Y-101528133D01*
X152250000Y-101528133D02*
X152316667Y-101561466D01*
X152316667Y-101561466D02*
X152350000Y-101594800D01*
X152350000Y-101594800D02*
X152383333Y-101661466D01*
X152383333Y-101661466D02*
X152383333Y-101761466D01*
X152383333Y-101761466D02*
X152350000Y-101828133D01*
X152350000Y-101828133D02*
X152316667Y-101861466D01*
X152316667Y-101861466D02*
X152250000Y-101894800D01*
X152250000Y-101894800D02*
X151983333Y-101894800D01*
X153050000Y-102228133D02*
X152650000Y-102228133D01*
X152850000Y-102228133D02*
X152850000Y-101528133D01*
X152850000Y-101528133D02*
X152783333Y-101628133D01*
X152783333Y-101628133D02*
X152716667Y-101694800D01*
X152716667Y-101694800D02*
X152650000Y-101728133D01*
X161367543Y-102209133D02*
X161134210Y-101875800D01*
X160967543Y-102209133D02*
X160967543Y-101509133D01*
X160967543Y-101509133D02*
X161234210Y-101509133D01*
X161234210Y-101509133D02*
X161300877Y-101542466D01*
X161300877Y-101542466D02*
X161334210Y-101575800D01*
X161334210Y-101575800D02*
X161367543Y-101642466D01*
X161367543Y-101642466D02*
X161367543Y-101742466D01*
X161367543Y-101742466D02*
X161334210Y-101809133D01*
X161334210Y-101809133D02*
X161300877Y-101842466D01*
X161300877Y-101842466D02*
X161234210Y-101875800D01*
X161234210Y-101875800D02*
X160967543Y-101875800D01*
X162034210Y-102209133D02*
X161634210Y-102209133D01*
X161834210Y-102209133D02*
X161834210Y-101509133D01*
X161834210Y-101509133D02*
X161767543Y-101609133D01*
X161767543Y-101609133D02*
X161700877Y-101675800D01*
X161700877Y-101675800D02*
X161634210Y-101709133D01*
X162467544Y-101509133D02*
X162534210Y-101509133D01*
X162534210Y-101509133D02*
X162600877Y-101542466D01*
X162600877Y-101542466D02*
X162634210Y-101575800D01*
X162634210Y-101575800D02*
X162667544Y-101642466D01*
X162667544Y-101642466D02*
X162700877Y-101775800D01*
X162700877Y-101775800D02*
X162700877Y-101942466D01*
X162700877Y-101942466D02*
X162667544Y-102075800D01*
X162667544Y-102075800D02*
X162634210Y-102142466D01*
X162634210Y-102142466D02*
X162600877Y-102175800D01*
X162600877Y-102175800D02*
X162534210Y-102209133D01*
X162534210Y-102209133D02*
X162467544Y-102209133D01*
X162467544Y-102209133D02*
X162400877Y-102175800D01*
X162400877Y-102175800D02*
X162367544Y-102142466D01*
X162367544Y-102142466D02*
X162334210Y-102075800D01*
X162334210Y-102075800D02*
X162300877Y-101942466D01*
X162300877Y-101942466D02*
X162300877Y-101775800D01*
X162300877Y-101775800D02*
X162334210Y-101642466D01*
X162334210Y-101642466D02*
X162367544Y-101575800D01*
X162367544Y-101575800D02*
X162400877Y-101542466D01*
X162400877Y-101542466D02*
X162467544Y-101509133D01*
X163883333Y-107361466D02*
X163850000Y-107394800D01*
X163850000Y-107394800D02*
X163750000Y-107428133D01*
X163750000Y-107428133D02*
X163683333Y-107428133D01*
X163683333Y-107428133D02*
X163583333Y-107394800D01*
X163583333Y-107394800D02*
X163516667Y-107328133D01*
X163516667Y-107328133D02*
X163483333Y-107261466D01*
X163483333Y-107261466D02*
X163450000Y-107128133D01*
X163450000Y-107128133D02*
X163450000Y-107028133D01*
X163450000Y-107028133D02*
X163483333Y-106894800D01*
X163483333Y-106894800D02*
X163516667Y-106828133D01*
X163516667Y-106828133D02*
X163583333Y-106761466D01*
X163583333Y-106761466D02*
X163683333Y-106728133D01*
X163683333Y-106728133D02*
X163750000Y-106728133D01*
X163750000Y-106728133D02*
X163850000Y-106761466D01*
X163850000Y-106761466D02*
X163883333Y-106794800D01*
X164283333Y-107028133D02*
X164216667Y-106994800D01*
X164216667Y-106994800D02*
X164183333Y-106961466D01*
X164183333Y-106961466D02*
X164150000Y-106894800D01*
X164150000Y-106894800D02*
X164150000Y-106861466D01*
X164150000Y-106861466D02*
X164183333Y-106794800D01*
X164183333Y-106794800D02*
X164216667Y-106761466D01*
X164216667Y-106761466D02*
X164283333Y-106728133D01*
X164283333Y-106728133D02*
X164416667Y-106728133D01*
X164416667Y-106728133D02*
X164483333Y-106761466D01*
X164483333Y-106761466D02*
X164516667Y-106794800D01*
X164516667Y-106794800D02*
X164550000Y-106861466D01*
X164550000Y-106861466D02*
X164550000Y-106894800D01*
X164550000Y-106894800D02*
X164516667Y-106961466D01*
X164516667Y-106961466D02*
X164483333Y-106994800D01*
X164483333Y-106994800D02*
X164416667Y-107028133D01*
X164416667Y-107028133D02*
X164283333Y-107028133D01*
X164283333Y-107028133D02*
X164216667Y-107061466D01*
X164216667Y-107061466D02*
X164183333Y-107094800D01*
X164183333Y-107094800D02*
X164150000Y-107161466D01*
X164150000Y-107161466D02*
X164150000Y-107294800D01*
X164150000Y-107294800D02*
X164183333Y-107361466D01*
X164183333Y-107361466D02*
X164216667Y-107394800D01*
X164216667Y-107394800D02*
X164283333Y-107428133D01*
X164283333Y-107428133D02*
X164416667Y-107428133D01*
X164416667Y-107428133D02*
X164483333Y-107394800D01*
X164483333Y-107394800D02*
X164516667Y-107361466D01*
X164516667Y-107361466D02*
X164550000Y-107294800D01*
X164550000Y-107294800D02*
X164550000Y-107161466D01*
X164550000Y-107161466D02*
X164516667Y-107094800D01*
X164516667Y-107094800D02*
X164483333Y-107061466D01*
X164483333Y-107061466D02*
X164416667Y-107028133D01*
X163867543Y-105309133D02*
X163634210Y-104975800D01*
X163467543Y-105309133D02*
X163467543Y-104609133D01*
X163467543Y-104609133D02*
X163734210Y-104609133D01*
X163734210Y-104609133D02*
X163800877Y-104642466D01*
X163800877Y-104642466D02*
X163834210Y-104675800D01*
X163834210Y-104675800D02*
X163867543Y-104742466D01*
X163867543Y-104742466D02*
X163867543Y-104842466D01*
X163867543Y-104842466D02*
X163834210Y-104909133D01*
X163834210Y-104909133D02*
X163800877Y-104942466D01*
X163800877Y-104942466D02*
X163734210Y-104975800D01*
X163734210Y-104975800D02*
X163467543Y-104975800D01*
X164534210Y-105309133D02*
X164134210Y-105309133D01*
X164334210Y-105309133D02*
X164334210Y-104609133D01*
X164334210Y-104609133D02*
X164267543Y-104709133D01*
X164267543Y-104709133D02*
X164200877Y-104775800D01*
X164200877Y-104775800D02*
X164134210Y-104809133D01*
X165200877Y-105309133D02*
X164800877Y-105309133D01*
X165000877Y-105309133D02*
X165000877Y-104609133D01*
X165000877Y-104609133D02*
X164934210Y-104709133D01*
X164934210Y-104709133D02*
X164867544Y-104775800D01*
X164867544Y-104775800D02*
X164800877Y-104809133D01*
X168899999Y-96714700D02*
X168799999Y-96681366D01*
X168799999Y-96681366D02*
X168633333Y-96681366D01*
X168633333Y-96681366D02*
X168566666Y-96714700D01*
X168566666Y-96714700D02*
X168533333Y-96748033D01*
X168533333Y-96748033D02*
X168499999Y-96814700D01*
X168499999Y-96814700D02*
X168499999Y-96881366D01*
X168499999Y-96881366D02*
X168533333Y-96948033D01*
X168533333Y-96948033D02*
X168566666Y-96981366D01*
X168566666Y-96981366D02*
X168633333Y-97014700D01*
X168633333Y-97014700D02*
X168766666Y-97048033D01*
X168766666Y-97048033D02*
X168833333Y-97081366D01*
X168833333Y-97081366D02*
X168866666Y-97114700D01*
X168866666Y-97114700D02*
X168899999Y-97181366D01*
X168899999Y-97181366D02*
X168899999Y-97248033D01*
X168899999Y-97248033D02*
X168866666Y-97314700D01*
X168866666Y-97314700D02*
X168833333Y-97348033D01*
X168833333Y-97348033D02*
X168766666Y-97381366D01*
X168766666Y-97381366D02*
X168599999Y-97381366D01*
X168599999Y-97381366D02*
X168499999Y-97348033D01*
X167999999Y-97381366D02*
X167999999Y-96881366D01*
X167999999Y-96881366D02*
X168033332Y-96781366D01*
X168033332Y-96781366D02*
X168099999Y-96714700D01*
X168099999Y-96714700D02*
X168199999Y-96681366D01*
X168199999Y-96681366D02*
X168266666Y-96681366D01*
X167699999Y-97314700D02*
X167666666Y-97348033D01*
X167666666Y-97348033D02*
X167599999Y-97381366D01*
X167599999Y-97381366D02*
X167433333Y-97381366D01*
X167433333Y-97381366D02*
X167366666Y-97348033D01*
X167366666Y-97348033D02*
X167333333Y-97314700D01*
X167333333Y-97314700D02*
X167299999Y-97248033D01*
X167299999Y-97248033D02*
X167299999Y-97181366D01*
X167299999Y-97181366D02*
X167333333Y-97081366D01*
X167333333Y-97081366D02*
X167733333Y-96681366D01*
X167733333Y-96681366D02*
X167299999Y-96681366D01*
X163216667Y-90429933D02*
X162883333Y-90429933D01*
X162883333Y-90429933D02*
X162883333Y-89729933D01*
X163450000Y-90063266D02*
X163683334Y-90063266D01*
X163783334Y-90429933D02*
X163450000Y-90429933D01*
X163450000Y-90429933D02*
X163450000Y-89729933D01*
X163450000Y-89729933D02*
X163783334Y-89729933D01*
X164083333Y-90429933D02*
X164083333Y-89729933D01*
X164083333Y-89729933D02*
X164250000Y-89729933D01*
X164250000Y-89729933D02*
X164350000Y-89763266D01*
X164350000Y-89763266D02*
X164416667Y-89829933D01*
X164416667Y-89829933D02*
X164450000Y-89896600D01*
X164450000Y-89896600D02*
X164483333Y-90029933D01*
X164483333Y-90029933D02*
X164483333Y-90129933D01*
X164483333Y-90129933D02*
X164450000Y-90263266D01*
X164450000Y-90263266D02*
X164416667Y-90329933D01*
X164416667Y-90329933D02*
X164350000Y-90396600D01*
X164350000Y-90396600D02*
X164250000Y-90429933D01*
X164250000Y-90429933D02*
X164083333Y-90429933D01*
X165150000Y-90429933D02*
X164750000Y-90429933D01*
X164950000Y-90429933D02*
X164950000Y-89729933D01*
X164950000Y-89729933D02*
X164883333Y-89829933D01*
X164883333Y-89829933D02*
X164816667Y-89896600D01*
X164816667Y-89896600D02*
X164750000Y-89929933D01*
X159383333Y-119961466D02*
X159350000Y-119994800D01*
X159350000Y-119994800D02*
X159250000Y-120028133D01*
X159250000Y-120028133D02*
X159183333Y-120028133D01*
X159183333Y-120028133D02*
X159083333Y-119994800D01*
X159083333Y-119994800D02*
X159016667Y-119928133D01*
X159016667Y-119928133D02*
X158983333Y-119861466D01*
X158983333Y-119861466D02*
X158950000Y-119728133D01*
X158950000Y-119728133D02*
X158950000Y-119628133D01*
X158950000Y-119628133D02*
X158983333Y-119494800D01*
X158983333Y-119494800D02*
X159016667Y-119428133D01*
X159016667Y-119428133D02*
X159083333Y-119361466D01*
X159083333Y-119361466D02*
X159183333Y-119328133D01*
X159183333Y-119328133D02*
X159250000Y-119328133D01*
X159250000Y-119328133D02*
X159350000Y-119361466D01*
X159350000Y-119361466D02*
X159383333Y-119394800D01*
X160050000Y-120028133D02*
X159650000Y-120028133D01*
X159850000Y-120028133D02*
X159850000Y-119328133D01*
X159850000Y-119328133D02*
X159783333Y-119428133D01*
X159783333Y-119428133D02*
X159716667Y-119494800D01*
X159716667Y-119494800D02*
X159650000Y-119528133D01*
X158883333Y-106161466D02*
X158850000Y-106194800D01*
X158850000Y-106194800D02*
X158750000Y-106228133D01*
X158750000Y-106228133D02*
X158683333Y-106228133D01*
X158683333Y-106228133D02*
X158583333Y-106194800D01*
X158583333Y-106194800D02*
X158516667Y-106128133D01*
X158516667Y-106128133D02*
X158483333Y-106061466D01*
X158483333Y-106061466D02*
X158450000Y-105928133D01*
X158450000Y-105928133D02*
X158450000Y-105828133D01*
X158450000Y-105828133D02*
X158483333Y-105694800D01*
X158483333Y-105694800D02*
X158516667Y-105628133D01*
X158516667Y-105628133D02*
X158583333Y-105561466D01*
X158583333Y-105561466D02*
X158683333Y-105528133D01*
X158683333Y-105528133D02*
X158750000Y-105528133D01*
X158750000Y-105528133D02*
X158850000Y-105561466D01*
X158850000Y-105561466D02*
X158883333Y-105594800D01*
X159483333Y-105761466D02*
X159483333Y-106228133D01*
X159316667Y-105494800D02*
X159150000Y-105994800D01*
X159150000Y-105994800D02*
X159583333Y-105994800D01*
X168951966Y-127516666D02*
X168985300Y-127549999D01*
X168985300Y-127549999D02*
X169018633Y-127649999D01*
X169018633Y-127649999D02*
X169018633Y-127716666D01*
X169018633Y-127716666D02*
X168985300Y-127816666D01*
X168985300Y-127816666D02*
X168918633Y-127883333D01*
X168918633Y-127883333D02*
X168851966Y-127916666D01*
X168851966Y-127916666D02*
X168718633Y-127949999D01*
X168718633Y-127949999D02*
X168618633Y-127949999D01*
X168618633Y-127949999D02*
X168485300Y-127916666D01*
X168485300Y-127916666D02*
X168418633Y-127883333D01*
X168418633Y-127883333D02*
X168351966Y-127816666D01*
X168351966Y-127816666D02*
X168318633Y-127716666D01*
X168318633Y-127716666D02*
X168318633Y-127649999D01*
X168318633Y-127649999D02*
X168351966Y-127549999D01*
X168351966Y-127549999D02*
X168385300Y-127516666D01*
X168318633Y-127283333D02*
X168318633Y-126849999D01*
X168318633Y-126849999D02*
X168585300Y-127083333D01*
X168585300Y-127083333D02*
X168585300Y-126983333D01*
X168585300Y-126983333D02*
X168618633Y-126916666D01*
X168618633Y-126916666D02*
X168651966Y-126883333D01*
X168651966Y-126883333D02*
X168718633Y-126849999D01*
X168718633Y-126849999D02*
X168885300Y-126849999D01*
X168885300Y-126849999D02*
X168951966Y-126883333D01*
X168951966Y-126883333D02*
X168985300Y-126916666D01*
X168985300Y-126916666D02*
X169018633Y-126983333D01*
X169018633Y-126983333D02*
X169018633Y-127183333D01*
X169018633Y-127183333D02*
X168985300Y-127249999D01*
X168985300Y-127249999D02*
X168951966Y-127283333D01*
%TO.C,SJ3*%
D11*
X168050000Y-99200000D02*
X168050000Y-98600000D01*
X168750000Y-97900000D02*
X170150000Y-97900000D01*
X170150000Y-99900000D02*
X168750000Y-99900000D01*
X170850000Y-98600000D02*
X170850000Y-99200000D01*
X168050000Y-98600000D02*
G75*
G02*
X168750000Y-97900000I699999J1D01*
G01*
X168750000Y-99900000D02*
G75*
G02*
X168050000Y-99200000I-1J699999D01*
G01*
X170150000Y-97900000D02*
G75*
G02*
X170850000Y-98600000I0J-700000D01*
G01*
X170850000Y-99200000D02*
G75*
G02*
X170150000Y-99900000I-700000J0D01*
G01*
%TO.C,R5*%
D12*
X157861500Y-99339400D02*
X158820400Y-99339400D01*
X157861500Y-100660600D02*
X157861500Y-99339400D01*
X158820400Y-100660600D02*
X157861500Y-100660600D01*
X159672800Y-100660600D02*
X160631700Y-100660600D01*
X160631700Y-99339400D02*
X159672800Y-99339400D01*
X160631700Y-100660600D02*
X160631700Y-99339400D01*
%TO.C,C2*%
D13*
X161390000Y-116780300D02*
X161390000Y-117580200D01*
X161395800Y-116204400D02*
X161395800Y-115404400D01*
X162499800Y-117890000D02*
X161699700Y-117890000D01*
X162505600Y-115094500D02*
X161705600Y-115094500D01*
X162809600Y-116780300D02*
X162809600Y-117580200D01*
X162815400Y-116204400D02*
X162815400Y-115404400D01*
X161395800Y-115404300D02*
G75*
G02*
X161705600Y-115094500I309799J1D01*
G01*
X161699800Y-117890000D02*
G75*
G02*
X161390000Y-117580200I0J309800D01*
G01*
X162505600Y-115094500D02*
G75*
G02*
X162815400Y-115404300I1J-309799D01*
G01*
X162809600Y-117580200D02*
G75*
G02*
X162499800Y-117890000I-309800J0D01*
G01*
%TO.C,R12*%
D12*
X149884400Y-98368300D02*
X151205600Y-98368300D01*
X149884400Y-99327200D02*
X149884400Y-98368300D01*
X149884400Y-100179600D02*
X149884400Y-101138500D01*
X149884400Y-101138500D02*
X151205600Y-101138500D01*
X151205600Y-98368300D02*
X151205600Y-99327200D01*
X151205600Y-101138500D02*
X151205600Y-100179600D01*
%TO.C,TB_PWR1*%
D11*
X136380000Y-105380000D02*
X144420000Y-105380000D01*
X136380000Y-108200000D02*
X136380000Y-105380000D01*
X136380000Y-116120000D02*
X136380000Y-108800000D01*
X138500000Y-105380000D02*
X138500000Y-106620000D01*
X138500000Y-110380000D02*
X138500000Y-112957000D01*
X138500000Y-114043000D02*
X138500000Y-116120000D01*
X139800000Y-105380000D02*
X139800000Y-106620000D01*
X139800000Y-110380000D02*
X139800000Y-111688000D01*
X139800000Y-115312000D02*
X139800000Y-116120000D01*
X140800000Y-105380000D02*
X140800000Y-106620000D01*
X140800000Y-110380000D02*
X140800000Y-111688000D01*
X140800000Y-115312000D02*
X140800000Y-116120000D01*
X144420000Y-105380000D02*
X144420000Y-116120000D01*
X144420000Y-116120000D02*
X136380000Y-116120000D01*
X136380000Y-108500000D02*
X135770000Y-108940000D01*
X135770000Y-108060000D01*
X136380000Y-108500000D01*
G36*
X136380000Y-108500000D02*
G01*
X135770000Y-108940000D01*
X135770000Y-108060000D01*
X136380000Y-108500000D01*
G37*
%TO.C,R9*%
D12*
X157868300Y-102939400D02*
X158827200Y-102939400D01*
X157868300Y-104260600D02*
X157868300Y-102939400D01*
X158827200Y-104260600D02*
X157868300Y-104260600D01*
X159679600Y-104260600D02*
X160638500Y-104260600D01*
X160638500Y-102939400D02*
X159679600Y-102939400D01*
X160638500Y-104260600D02*
X160638500Y-102939400D01*
%TO.C,SJ1*%
D11*
X164050000Y-101100000D02*
X164050000Y-100500000D01*
X164750000Y-99800000D02*
X166150000Y-99800000D01*
X166150000Y-101800000D02*
X164750000Y-101800000D01*
X166850000Y-100500000D02*
X166850000Y-101100000D01*
X164050000Y-100500000D02*
G75*
G02*
X164750000Y-99800000I699999J1D01*
G01*
X164750000Y-101800000D02*
G75*
G02*
X164050000Y-101100000I-1J699999D01*
G01*
X166150000Y-99800000D02*
G75*
G02*
X166850000Y-100500000I0J-700000D01*
G01*
X166850000Y-101100000D02*
G75*
G02*
X166150000Y-101800000I-700000J0D01*
G01*
%TO.C,P1*%
X174880000Y-98380000D02*
X182920000Y-98380000D01*
X174880000Y-124120000D02*
X174880000Y-98380000D01*
X178500000Y-99188000D02*
X178500000Y-98380000D01*
X178500000Y-104188000D02*
X178500000Y-102812000D01*
X178500000Y-109188000D02*
X178500000Y-107812000D01*
X178500000Y-114188000D02*
X178500000Y-112812000D01*
X178500000Y-119120000D02*
X178500000Y-117812000D01*
X178500000Y-124120000D02*
X178500000Y-122880000D01*
X179500000Y-99188000D02*
X179500000Y-98380000D01*
X179500000Y-104188000D02*
X179500000Y-102812000D01*
X179500000Y-109188000D02*
X179500000Y-107812000D01*
X179500000Y-114188000D02*
X179500000Y-112812000D01*
X179500000Y-119120000D02*
X179500000Y-117812000D01*
X179500000Y-124120000D02*
X179500000Y-122880000D01*
X180800000Y-100457000D02*
X180800000Y-98380000D01*
X180800000Y-105457000D02*
X180800000Y-101543000D01*
X180800000Y-110457000D02*
X180800000Y-106543000D01*
X180800000Y-115457000D02*
X180800000Y-111543000D01*
X180800000Y-119120000D02*
X180800000Y-116543000D01*
X180800000Y-124120000D02*
X180800000Y-122880000D01*
X182920000Y-98380000D02*
X182920000Y-120700000D01*
X182920000Y-121300000D02*
X182920000Y-124120000D01*
X182920000Y-124120000D02*
X174880000Y-124120000D01*
X182920000Y-121000000D02*
X183530000Y-120560000D01*
X183530000Y-121440000D01*
X182920000Y-121000000D01*
G36*
X183530000Y-121440000D02*
G01*
X182920000Y-121000000D01*
X183530000Y-120560000D01*
X183530000Y-121440000D01*
G37*
%TO.C,U1*%
D12*
X153862600Y-107298800D02*
X157405400Y-107298800D01*
X153862600Y-117151200D02*
X153862600Y-107298800D01*
X157405400Y-107298800D02*
X157405400Y-117151200D01*
X157405400Y-117151200D02*
X153862600Y-117151200D01*
D14*
X156803200Y-116450000D02*
G75*
G02*
X156503000Y-116450000I-150100J0D01*
G01*
X156503000Y-116450000D02*
G75*
G02*
X156803200Y-116450000I150100J0D01*
G01*
X158650100Y-117073900D02*
G75*
G02*
X158349900Y-117073900I-150100J0D01*
G01*
X158349900Y-117073900D02*
G75*
G02*
X158650100Y-117073900I150100J0D01*
G01*
%TO.C,R3*%
D12*
X155839400Y-98368300D02*
X155839400Y-99327200D01*
X155839400Y-101138500D02*
X155839400Y-100179600D01*
X157160600Y-98368300D02*
X155839400Y-98368300D01*
X157160600Y-99327200D02*
X157160600Y-98368300D01*
X157160600Y-100179600D02*
X157160600Y-101138500D01*
X157160600Y-101138500D02*
X155839400Y-101138500D01*
%TO.C,R8*%
D11*
X165790000Y-113085436D02*
X165790000Y-117439564D01*
X169210000Y-113085436D02*
X169210000Y-117439564D01*
%TO.C,H1*%
X144010000Y-90170000D02*
X145340000Y-90170000D01*
X144010000Y-91500000D02*
X144010000Y-90170000D01*
X144010000Y-92770000D02*
X146610000Y-92770000D01*
X144010000Y-95370000D02*
X144010000Y-92770000D01*
X144010000Y-95370000D02*
X161910000Y-95370000D01*
X146610000Y-90170000D02*
X161910000Y-90170000D01*
X146610000Y-92770000D02*
X146610000Y-90170000D01*
X161910000Y-95370000D02*
X161910000Y-90170000D01*
%TO.C,R2*%
D12*
X153839400Y-98368300D02*
X153839400Y-99327200D01*
X153839400Y-101138500D02*
X153839400Y-100179600D01*
X155160600Y-98368300D02*
X153839400Y-98368300D01*
X155160600Y-99327200D02*
X155160600Y-98368300D01*
X155160600Y-100179600D02*
X155160600Y-101138500D01*
X155160600Y-101138500D02*
X153839400Y-101138500D01*
%TO.C,C5*%
D15*
X145470000Y-122470000D02*
X145470000Y-130790000D01*
X145470000Y-130790000D02*
X147610000Y-132930000D01*
X147610000Y-132930000D02*
X149850000Y-132930000D01*
X149850000Y-122470000D02*
X145470000Y-122470000D01*
X151550000Y-122470000D02*
X155930000Y-122470000D01*
X153790000Y-132930000D02*
X151550000Y-132930000D01*
X155930000Y-122470000D02*
X155930000Y-130790000D01*
X155930000Y-130790000D02*
X153790000Y-132930000D01*
D16*
X155880000Y-133200000D02*
G75*
G02*
X155820000Y-133200000I-30000J0D01*
G01*
X155820000Y-133200000D02*
G75*
G02*
X155880000Y-133200000I30000J0D01*
G01*
D17*
G36*
X154098876Y-132077538D02*
G01*
X152038885Y-132077538D01*
X152038885Y-131768521D01*
X154098876Y-131768521D01*
X154098876Y-132077538D01*
G37*
G36*
X153223363Y-124095029D02*
G01*
X152914372Y-124095029D01*
X152914372Y-122859014D01*
X153223363Y-122859014D01*
X153223363Y-124095029D01*
G37*
G36*
X153223363Y-132541037D02*
G01*
X152914372Y-132541037D01*
X152914372Y-131305022D01*
X153223363Y-131305022D01*
X153223363Y-132541037D01*
G37*
%TO.C,C7*%
D13*
X163384600Y-116795600D02*
X163384600Y-117595600D01*
X163390400Y-116219700D02*
X163390400Y-115419800D01*
X163694400Y-117905500D02*
X164494400Y-117905500D01*
X163700200Y-115110000D02*
X164500300Y-115110000D01*
X164804200Y-116795600D02*
X164804200Y-117595600D01*
X164810000Y-116219700D02*
X164810000Y-115419800D01*
X163390400Y-115419800D02*
G75*
G02*
X163700200Y-115110000I309800J0D01*
G01*
X163694400Y-117905500D02*
G75*
G02*
X163384600Y-117595700I-1J309799D01*
G01*
X164500200Y-115110000D02*
G75*
G02*
X164810000Y-115419800I0J-309800D01*
G01*
X164804200Y-117595700D02*
G75*
G02*
X164494400Y-117905500I-309799J-1D01*
G01*
%TO.C,R1*%
D12*
X151884400Y-98368300D02*
X151884400Y-99327200D01*
X151884400Y-101138500D02*
X151884400Y-100179600D01*
X153205600Y-98368300D02*
X151884400Y-98368300D01*
X153205600Y-99327200D02*
X153205600Y-98368300D01*
X153205600Y-100179600D02*
X153205600Y-101138500D01*
X153205600Y-101138500D02*
X151884400Y-101138500D01*
%TO.C,R10*%
X157861500Y-101139400D02*
X158820400Y-101139400D01*
X157861500Y-102460600D02*
X157861500Y-101139400D01*
X158820400Y-102460600D02*
X157861500Y-102460600D01*
X159672800Y-102460600D02*
X160631700Y-102460600D01*
X160631700Y-101139400D02*
X159672800Y-101139400D01*
X160631700Y-102460600D02*
X160631700Y-101139400D01*
%TO.C,C8*%
D13*
X161590000Y-107480300D02*
X161590000Y-108280200D01*
X161595800Y-106904400D02*
X161595800Y-106104400D01*
X162699800Y-108590000D02*
X161899700Y-108590000D01*
X162705600Y-105794500D02*
X161905600Y-105794500D01*
X163009600Y-107480300D02*
X163009600Y-108280200D01*
X163015400Y-106904400D02*
X163015400Y-106104400D01*
X161595800Y-106104300D02*
G75*
G02*
X161905600Y-105794500I309799J1D01*
G01*
X161899800Y-108590000D02*
G75*
G02*
X161590000Y-108280200I0J309800D01*
G01*
X162705600Y-105794500D02*
G75*
G02*
X163015400Y-106104300I1J-309799D01*
G01*
X163009600Y-108280200D02*
G75*
G02*
X162699800Y-108590000I-309800J0D01*
G01*
%TO.C,R11*%
D12*
X162261500Y-102839400D02*
X163220400Y-102839400D01*
X162261500Y-104160600D02*
X162261500Y-102839400D01*
X163220400Y-104160600D02*
X162261500Y-104160600D01*
X164072800Y-104160600D02*
X165031700Y-104160600D01*
X165031700Y-102839400D02*
X164072800Y-102839400D01*
X165031700Y-104160600D02*
X165031700Y-102839400D01*
%TO.C,SJ2*%
D11*
X164050000Y-97300000D02*
X164050000Y-96700000D01*
X164750000Y-96000000D02*
X166150000Y-96000000D01*
X166150000Y-98000000D02*
X164750000Y-98000000D01*
X166850000Y-96700000D02*
X166850000Y-97300000D01*
X164050000Y-96700000D02*
G75*
G02*
X164750000Y-96000000I699999J1D01*
G01*
X164750000Y-98000000D02*
G75*
G02*
X164050000Y-97300000I-1J699999D01*
G01*
X166150000Y-96000000D02*
G75*
G02*
X166850000Y-96700000I0J-700000D01*
G01*
X166850000Y-97300000D02*
G75*
G02*
X166150000Y-98000000I-700000J0D01*
G01*
%TO.C,LED1*%
D13*
X163136400Y-91390400D02*
X163492000Y-91034800D01*
X163136400Y-92533400D02*
X163136400Y-91390400D01*
X163136400Y-94616200D02*
X163136400Y-93143000D01*
X163136400Y-94616200D02*
X164863600Y-94616200D01*
X163492000Y-91034800D02*
X164508000Y-91034800D01*
D18*
X163593600Y-92927100D02*
X164381000Y-92927100D01*
X163992000Y-92927100D02*
X163992000Y-92751700D01*
D13*
X164508000Y-91034800D02*
X164863600Y-91390400D01*
X164863600Y-92558800D02*
X164863600Y-91390400D01*
X164863600Y-94616200D02*
X164863600Y-93143000D01*
%TO.C,C1*%
X157910000Y-118699800D02*
X157910000Y-117899700D01*
X159019700Y-117590000D02*
X158219800Y-117590000D01*
X159019700Y-119009600D02*
X158219800Y-119009600D01*
X159595600Y-117595800D02*
X160395600Y-117595800D01*
X159595600Y-119015400D02*
X160395600Y-119015400D01*
X160705500Y-118705600D02*
X160705500Y-117905600D01*
X157910000Y-117899800D02*
G75*
G02*
X158219800Y-117590000I309800J0D01*
G01*
X158219800Y-119009600D02*
G75*
G02*
X157910000Y-118699800I0J309800D01*
G01*
X160395700Y-117595800D02*
G75*
G02*
X160705500Y-117905600I1J-309799D01*
G01*
X160705500Y-118705600D02*
G75*
G02*
X160395700Y-119015400I-309799J-1D01*
G01*
%TO.C,C4*%
X155410000Y-106399800D02*
X155410000Y-105599700D01*
X156519700Y-105290000D02*
X155719800Y-105290000D01*
X156519700Y-106709600D02*
X155719800Y-106709600D01*
X157095600Y-105295800D02*
X157895600Y-105295800D01*
X157095600Y-106715400D02*
X157895600Y-106715400D01*
X158205500Y-106405600D02*
X158205500Y-105605600D01*
X155410000Y-105599800D02*
G75*
G02*
X155719800Y-105290000I309800J0D01*
G01*
X155719800Y-106709600D02*
G75*
G02*
X155410000Y-106399800I0J309800D01*
G01*
X157895700Y-105295800D02*
G75*
G02*
X158205500Y-105605600I1J-309799D01*
G01*
X158205500Y-106405600D02*
G75*
G02*
X157895700Y-106715400I-309799J-1D01*
G01*
%TO.C,C3*%
D15*
X157270000Y-122470000D02*
X157270000Y-130790000D01*
X157270000Y-130790000D02*
X159410000Y-132930000D01*
X159410000Y-132930000D02*
X161650000Y-132930000D01*
X161650000Y-122470000D02*
X157270000Y-122470000D01*
X163350000Y-122470000D02*
X167730000Y-122470000D01*
X165590000Y-132930000D02*
X163350000Y-132930000D01*
X167730000Y-122470000D02*
X167730000Y-130790000D01*
X167730000Y-130790000D02*
X165590000Y-132930000D01*
D16*
X167680000Y-133200000D02*
G75*
G02*
X167620000Y-133200000I-30000J0D01*
G01*
X167620000Y-133200000D02*
G75*
G02*
X167680000Y-133200000I30000J0D01*
G01*
D17*
G36*
X165898876Y-132077538D02*
G01*
X163838885Y-132077538D01*
X163838885Y-131768521D01*
X165898876Y-131768521D01*
X165898876Y-132077538D01*
G37*
G36*
X165023363Y-124095029D02*
G01*
X164714372Y-124095029D01*
X164714372Y-122859014D01*
X165023363Y-122859014D01*
X165023363Y-124095029D01*
G37*
G36*
X165023363Y-132541037D02*
G01*
X164714372Y-132541037D01*
X164714372Y-131305022D01*
X165023363Y-131305022D01*
X165023363Y-132541037D01*
G37*
%TD*%
M02*
