%TF.GenerationSoftware,KiCad,Pcbnew,10.0.3*%
%TF.CreationDate,2026-06-28T12:09:58+08:00*%
%TF.ProjectId,project,70726f6a-6563-4742-9e6b-696361645f70,rev?*%
%TF.SameCoordinates,Original*%
%TF.FileFunction,Paste,Top*%
%TF.FilePolarity,Positive*%
%FSLAX46Y46*%
G04 Gerber Fmt 4.6, Leading zero omitted, Abs format (unit mm)*
G04 Created by KiCad (PCBNEW 10.0.3) date 2026-06-28 12:09:58*
%MOMM*%
%LPD*%
G01*
G04 APERTURE LIST*
G04 Aperture macros list*
%AMRoundRect*
0 Rectangle with rounded corners*
0 $1 Rounding radius*
0 $2 $3 $4 $5 $6 $7 $8 $9 X,Y pos of 4 corners*
0 Add a 4 corners polygon primitive as box body*
4,1,4,$2,$3,$4,$5,$6,$7,$8,$9,$2,$3,0*
0 Add four circle primitives for the rounded corners*
1,1,$1+$1,$2,$3*
1,1,$1+$1,$4,$5*
1,1,$1+$1,$6,$7*
1,1,$1+$1,$8,$9*
0 Add four rect primitives between the rounded corners*
20,1,$1+$1,$2,$3,$4,$5,0*
20,1,$1+$1,$4,$5,$6,$7,0*
20,1,$1+$1,$6,$7,$8,$9,0*
20,1,$1+$1,$8,$9,$2,$3,0*%
G04 Aperture macros list end*
%ADD10R,0.800000X0.900000*%
%ADD11R,0.806500X0.864000*%
%ADD12R,0.864000X0.806500*%
%ADD13O,0.343000X1.731500*%
%ADD14R,6.200000X2.750000*%
%ADD15RoundRect,0.250000X-1.425000X0.362500X-1.425000X-0.362500X1.425000X-0.362500X1.425000X0.362500X0*%
%ADD16R,4.500000X1.650000*%
%ADD17R,0.900000X0.800000*%
%ADD18R,0.800000X0.800000*%
G04 APERTURE END LIST*
D10*
%TO.C,C6*%
X165500000Y-110000000D03*
X164100000Y-110000000D03*
%TD*%
D11*
%TO.C,R5*%
X164246600Y-94500000D03*
X165753400Y-94500000D03*
%TD*%
D10*
%TO.C,C2*%
X155500000Y-112500000D03*
X154100000Y-112500000D03*
%TD*%
D12*
%TO.C,R12*%
X155045000Y-98000000D03*
X155045000Y-99506800D03*
%TD*%
D11*
%TO.C,R9*%
X163993200Y-107300000D03*
X165500000Y-107300000D03*
%TD*%
D13*
%TO.C,U1*%
X153775000Y-109865900D03*
X154425000Y-109865900D03*
X155074900Y-109865900D03*
X155724900Y-109865900D03*
X156374900Y-109865900D03*
X157024900Y-109865900D03*
X157675100Y-109865900D03*
X158325100Y-109865900D03*
X158975100Y-109865900D03*
X159625100Y-109865900D03*
X160275100Y-109865900D03*
X160925100Y-109865900D03*
X161575000Y-109865900D03*
X162225000Y-109865900D03*
X162225000Y-104134400D03*
X161575000Y-104134400D03*
X160925100Y-104134400D03*
X160275100Y-104134400D03*
X159625100Y-104134400D03*
X158975100Y-104134400D03*
X158325100Y-104134400D03*
X157675100Y-104134400D03*
X157024900Y-104134400D03*
X156374900Y-104134400D03*
X155724900Y-104134400D03*
X155074900Y-104134400D03*
X154425000Y-104134400D03*
X153775000Y-104134400D03*
D14*
X158000000Y-107000000D03*
%TD*%
D12*
%TO.C,R3*%
X161545000Y-99506800D03*
X161545000Y-98000000D03*
%TD*%
%TO.C,R7*%
X152000000Y-98000000D03*
X152000000Y-99506800D03*
%TD*%
D15*
%TO.C,R8*%
X157000000Y-115537500D03*
X157000000Y-121462500D03*
%TD*%
D12*
%TO.C,R6*%
X149000000Y-98000000D03*
X149000000Y-99506800D03*
%TD*%
%TO.C,R2*%
X159345000Y-99506800D03*
X159345000Y-98000000D03*
%TD*%
D16*
%TO.C,C5*%
X162300000Y-123200000D03*
X170700000Y-123200000D03*
%TD*%
D17*
%TO.C,C7*%
X151500000Y-106000000D03*
X151500000Y-107400000D03*
%TD*%
D12*
%TO.C,R1*%
X157045000Y-99506800D03*
X157045000Y-98000000D03*
%TD*%
%TO.C,R10*%
X166500000Y-105006800D03*
X166500000Y-103500000D03*
%TD*%
D10*
%TO.C,C8*%
X162000000Y-112500000D03*
X160600000Y-112500000D03*
%TD*%
D12*
%TO.C,R11*%
X171000000Y-105006800D03*
X171000000Y-103500000D03*
%TD*%
%TO.C,R4*%
X146500000Y-97993200D03*
X146500000Y-99500000D03*
%TD*%
D18*
%TO.C,LED1*%
X165850900Y-92000000D03*
X164149100Y-92000000D03*
%TD*%
D17*
%TO.C,C1*%
X151500000Y-110900000D03*
X151500000Y-109500000D03*
%TD*%
%TO.C,C4*%
X164000000Y-102000000D03*
X164000000Y-103400000D03*
%TD*%
D16*
%TO.C,C3*%
X151500000Y-123200000D03*
X143100000Y-123200000D03*
%TD*%
M02*
