M48
; DRILL file KiCad 10.0.3 date 2026-06-18T05:01:44
; FORMAT={-:-/ absolute / metric / decimal}
; #@! TF.CreationDate,2026-06-18T05:01:44+08:00
; #@! TF.GenerationSoftware,Kicad,Pcbnew,10.0.3
; #@! TF.FileFunction,MixedPlating,1,4
FMAT,2
METRIC
; #@! TA.AperFunction,Plated,PTH,ViaDrill
T1C0.250
; #@! TA.AperFunction,Plated,PTH,ViaDrill
T2C0.300
; #@! TA.AperFunction,Plated,PTH,ComponentDrill
T3C0.300
; #@! TA.AperFunction,Plated,PTH,ComponentDrill
T4C1.000
; #@! TA.AperFunction,Plated,PTH,ComponentDrill
T5C1.300
; #@! TA.AperFunction,NonPlated,NPTH,ComponentDrill
T6C3.200
%
G90
G05
T1
X146.9Y-99.4
X148.9Y-112.1
X149.35Y-111.65
X149.65Y-108.7
X150.1Y-103.3
X150.1Y-109.15
X152.7Y-112.85
X152.7Y-114.05
X157.28Y-113.5
X157.28Y-117.45
X159.5Y-125.247
X159.5Y-129.447
X159.85Y-107.35
X161.45Y-105.75
X161.6Y-111.65
X161.6Y-118.15
X162.0Y-125.35
X164.8Y-129.5
T2
X143.67Y-101.0
X147.0Y-116.7
X148.67Y-126.0
X149.0Y-117.95
X149.35Y-110.8
X150.0Y-98.35
X150.0Y-102.1
X150.25Y-119.2
X150.6Y-107.1
X150.65Y-99.25
X151.05Y-118.4
X151.7Y-115.1
X151.8Y-97.75
X152.05Y-113.5
X152.4Y-100.15
X153.25Y-103.65
X153.95Y-111.85
X154.2Y-100.95
X154.45Y-101.7
X154.7Y-112.6
X155.0Y-110.0
X155.1Y-105.5
X155.975Y-107.134
X156.05Y-111.85
X156.6Y-100.9
X156.65Y-112.85
X156.963Y-123.0
X157.2Y-103.3
X157.95Y-112.85
X158.05Y-102.45
X158.15Y-99.4
X158.15Y-100.9
X158.6Y-108.55
X158.95Y-100.45
X159.25Y-112.1
X159.4Y-101.05
X160.85Y-110.9
X162.0Y-100.851
X162.05Y-94.95
X162.3Y-109.4
X162.5Y-112.85
X162.5Y-114.7
X168.6Y-93.3
X168.6Y-113.0
X169.2Y-105.5
X171.2Y-105.5
T3
X153.5Y-109.5
X153.5Y-110.5
X154.5Y-109.5
X154.5Y-110.5
X155.5Y-109.5
X155.5Y-110.5
X156.5Y-109.5
X156.5Y-110.5
T4
X145.38Y-91.73
X145.38Y-94.27
X147.92Y-91.73
X147.92Y-94.27
X150.46Y-91.73
X150.46Y-94.27
X153.0Y-91.73
X153.0Y-94.27
X155.54Y-91.73
X155.54Y-94.27
X158.08Y-91.73
X158.08Y-94.27
X160.62Y-91.73
X160.62Y-94.27
T5
X139.5Y-107.5
X139.5Y-112.5
X179.0Y-100.5
X179.0Y-105.5
X179.0Y-110.5
X179.0Y-115.5
X179.0Y-120.5
T6
X138.0Y-92.0
X138.0Y-129.0
X180.0Y-92.0
X180.0Y-129.0
M30
