%TF.GenerationSoftware,KiCad,Pcbnew,10.0.3*%
%TF.CreationDate,2026-07-03T14:00:46+08:00*%
%TF.ProjectId,project,70726f6a-6563-4742-9e6b-696361645f70,rev?*%
%TF.SameCoordinates,Original*%
%TF.FileFunction,Paste,Top*%
%TF.FilePolarity,Positive*%
%FSLAX46Y46*%
G04 Gerber Fmt 4.6, Leading zero omitted, Abs format (unit mm)*
G04 Created by KiCad (PCBNEW 10.0.3) date 2026-07-03 14:00:46*
%MOMM*%
%LPD*%
G01*
G04 APERTURE LIST*
G04 Aperture macros list*
%AMRoundRect*
0 Rectangle with rounded corners*
0 $1 Rounding radius*
0 $2 $3 $4 $5 $6 $7 $8 $9 X,Y pos of 4 corners*
0 Add a 4 corners polygon primitive as box body*
4,1,4,$2,$3,$4,$5,$6,$7,$8,$9,$2,$3,0*
0 Add four circle primitives for the rounded corners*
1,1,$1+$1,$2,$3*
1,1,$1+$1,$4,$5*
1,1,$1+$1,$6,$7*
1,1,$1+$1,$8,$9*
0 Add four rect primitives between the rounded corners*
20,1,$1+$1,$2,$3,$4,$5,0*
20,1,$1+$1,$4,$5,$6,$7,0*
20,1,$1+$1,$6,$7,$8,$9,0*
20,1,$1+$1,$8,$9,$2,$3,0*%
G04 Aperture macros list end*
%ADD10R,0.806500X0.864000*%
%ADD11R,0.900000X0.800000*%
%ADD12R,0.864000X0.806500*%
%ADD13O,1.731500X0.343000*%
%ADD14R,2.750000X6.200000*%
%ADD15RoundRect,0.250000X-1.425000X0.362500X-1.425000X-0.362500X1.425000X-0.362500X1.425000X0.362500X0*%
%ADD16R,1.650000X4.500000*%
%ADD17R,0.800000X0.800000*%
%ADD18R,0.800000X0.900000*%
G04 APERTURE END LIST*
D10*
%TO.C,R5*%
X158493200Y-100000000D03*
X160000000Y-100000000D03*
%TD*%
D11*
%TO.C,C2*%
X162100000Y-115800000D03*
X162100000Y-117200000D03*
%TD*%
D12*
%TO.C,R12*%
X150545000Y-99000000D03*
X150545000Y-100506800D03*
%TD*%
D10*
%TO.C,R9*%
X158500000Y-103600000D03*
X160006800Y-103600000D03*
%TD*%
D13*
%TO.C,U1*%
X158500000Y-116450000D03*
X158500000Y-115800000D03*
X158500000Y-115150100D03*
X158500000Y-114500100D03*
X158500000Y-113850100D03*
X158500000Y-113200100D03*
X158500000Y-112549900D03*
X158500000Y-111899900D03*
X158500000Y-111249900D03*
X158500000Y-110599900D03*
X158500000Y-109949900D03*
X158500000Y-109299900D03*
X158500000Y-108650000D03*
X158500000Y-108000000D03*
X152768500Y-108000000D03*
X152768500Y-108650000D03*
X152768500Y-109299900D03*
X152768500Y-109949900D03*
X152768500Y-110599900D03*
X152768500Y-111249900D03*
X152768500Y-111899900D03*
X152768500Y-112549900D03*
X152768500Y-113200100D03*
X152768500Y-113850100D03*
X152768500Y-114500100D03*
X152768500Y-115150100D03*
X152768500Y-115800000D03*
X152768500Y-116450000D03*
D14*
X155634100Y-112225000D03*
%TD*%
D12*
%TO.C,R3*%
X156500000Y-100506800D03*
X156500000Y-99000000D03*
%TD*%
D15*
%TO.C,R8*%
X167500000Y-112300000D03*
X167500000Y-118225000D03*
%TD*%
D12*
%TO.C,R2*%
X154500000Y-100506800D03*
X154500000Y-99000000D03*
%TD*%
D16*
%TO.C,C5*%
X150700000Y-131900000D03*
X150700000Y-123500000D03*
%TD*%
D11*
%TO.C,C7*%
X164100000Y-117200000D03*
X164100000Y-115800000D03*
%TD*%
D12*
%TO.C,R1*%
X152545000Y-100506800D03*
X152545000Y-99000000D03*
%TD*%
D10*
%TO.C,R10*%
X158493200Y-101800000D03*
X160000000Y-101800000D03*
%TD*%
D11*
%TO.C,C8*%
X162300000Y-106500000D03*
X162300000Y-107900000D03*
%TD*%
D10*
%TO.C,R11*%
X162893200Y-103500000D03*
X164400000Y-103500000D03*
%TD*%
D17*
%TO.C,LED1*%
X164000000Y-93701800D03*
X164000000Y-92000000D03*
%TD*%
D18*
%TO.C,C1*%
X160000000Y-118300000D03*
X158600000Y-118300000D03*
%TD*%
%TO.C,C4*%
X157500000Y-106000000D03*
X156100000Y-106000000D03*
%TD*%
D16*
%TO.C,C3*%
X162500000Y-131900000D03*
X162500000Y-123500000D03*
%TD*%
M02*
