<?xml version="1.0" standalone="no"?>
 <!DOCTYPE svg PUBLIC "-//W3C//DTD SVG 1.1//EN" 
 "http://www.w3.org/Graphics/SVG/1.1/DTD/svg11.dtd"> 
<svg
  xmlns:svg="http://www.w3.org/2000/svg"
  xmlns="http://www.w3.org/2000/svg"
  xmlns:xlink="http://www.w3.org/1999/xlink"
  xmlns:inkscape="http://www.inkscape.org/namespaces/inkscape"
  version="1.1"
  width="49.9872mm" height="49.9872mm" viewBox="0.0000 0.0000 49.9872 49.9872">
<rect x="0.0000" y="0.0000" width="49.9872" height="49.9872" fill="#14161b" />
<title>SVG Image created as pcb-bottom.svg date 2026-06-27T00:28:56 </title>
  <desc>Image generated by PCBNEW </desc>
<g style="fill:#000000; fill-opacity:1.0000;stroke:#000000; stroke-opacity:1.0000;
stroke-linecap:round; stroke-linejoin:round;"
 transform="translate(0 0) scale(1 1)">
<path style="fill:#4D7FC4; fill-opacity:1.0000; stroke:none;fill-rule:evenodd;"
d="M 6.6500,19.1000
6.7457,19.1190
6.8268,19.1732
6.8810,19.2543
6.9000,19.3500
6.9000,21.6500
6.8810,21.7457
6.8268,21.8268
6.7457,21.8810
6.6500,21.9000
4.3500,21.9000
4.2543,21.8810
4.1732,21.8268
4.1190,21.7457
4.1000,21.6500
4.1000,19.3500
4.1190,19.2543
4.1732,19.1732
4.2543,19.1190
4.3500,19.1000
Z" /> 
</g>
<g style="fill:#4D7FC4; fill-opacity:1.0000; stroke:none;">
<circle cx="5.5000" cy="25.5000" r="1.4000" /> 
<circle cx="45.0000" cy="33.0000" r="1.4000" /> 
<circle cx="45.0000" cy="28.0000" r="1.4000" /> 
<circle cx="45.0000" cy="23.0000" r="1.4000" /> 
<circle cx="45.0000" cy="18.0000" r="1.4000" /> 
<path style="fill:#4D7FC4; fill-opacity:1.0000; stroke:none;fill-rule:evenodd;"
d="M 43.8500,14.4000
43.7543,14.3810
43.6732,14.3268
43.6190,14.2457
43.6000,14.1500
43.6000,11.8500
43.6190,11.7543
43.6732,11.6732
43.7543,11.6190
43.8500,11.6000
46.1500,11.6000
46.2457,11.6190
46.3268,11.6732
46.3810,11.7543
46.4000,11.8500
46.4000,14.1500
46.3810,14.2457
46.3268,14.3268
46.2457,14.3810
46.1500,14.4000
Z" /> 
<circle cx="22.5001" cy="18.5001" r="0.3000" /> 
<circle cx="22.5001" cy="19.5001" r="0.3000" /> 
<circle cx="23.5001" cy="18.5001" r="0.3000" /> 
<circle cx="23.5001" cy="19.5001" r="0.3000" /> 
<circle cx="24.5001" cy="18.5001" r="0.3000" /> 
<circle cx="24.5001" cy="19.5001" r="0.3000" /> 
<circle cx="25.5001" cy="18.5001" r="0.3000" /> 
<circle cx="25.5001" cy="19.5001" r="0.3000" /> 
<circle cx="11.3400" cy="3.5000" r="0.8500" /> 
<circle cx="11.3400" cy="6.0400" r="0.8500" /> 
<circle cx="13.8800" cy="3.5000" r="0.8500" /> 
<circle cx="13.8800" cy="6.0400" r="0.8500" /> 
<circle cx="16.4200" cy="3.5000" r="0.8500" /> 
<circle cx="16.4200" cy="6.0400" r="0.8500" /> 
<circle cx="18.9600" cy="3.5000" r="0.8500" /> 
<circle cx="18.9600" cy="6.0400" r="0.8500" /> 
<circle cx="21.5000" cy="3.5000" r="0.8500" /> 
<circle cx="21.5000" cy="6.0400" r="0.8500" /> 
<circle cx="24.0400" cy="3.5000" r="0.8500" /> 
<circle cx="24.0400" cy="6.0400" r="0.8500" /> 
<path style="fill:#4D7FC4; fill-opacity:1.0000; stroke:none;fill-rule:evenodd;"
d="M 27.4300,4.3500
25.7300,4.3500
25.7300,2.6500
27.4300,2.6500
Z" /> 
<circle cx="26.5800" cy="6.0400" r="0.8500" /> 
<circle cx="3.0000" cy="21.0000" r="0.3000" /> 
<circle cx="30.0000" cy="14.0000" r="0.3000" /> 
<circle cx="15.0000" cy="39.0000" r="0.3000" /> 
<circle cx="9.0000" cy="15.0000" r="0.3000" /> 
<circle cx="33.0000" cy="39.0000" r="0.3000" /> 
<circle cx="3.0000" cy="39.0000" r="0.3000" /> 
<circle cx="17.5000" cy="18.0000" r="0.3000" /> 
<circle cx="39.0000" cy="3.0000" r="0.3000" /> 
<circle cx="9.0000" cy="21.0000" r="0.3000" /> 
<circle cx="24.0000" cy="30.0000" r="0.3000" /> 
<circle cx="9.0000" cy="3.0000" r="0.3000" /> 
<circle cx="3.0000" cy="15.0000" r="0.3000" /> 
<circle cx="21.5000" cy="19.5000" r="0.3000" /> 
<circle cx="28.2250" cy="21.2000" r="0.2500" /> 
<circle cx="21.0000" cy="45.0000" r="0.3000" /> 
<circle cx="3.0000" cy="27.0000" r="0.3000" /> 
<circle cx="39.0000" cy="15.0000" r="0.3000" /> 
<circle cx="45.0000" cy="39.0000" r="0.3000" /> 
<circle cx="39.0000" cy="27.0000" r="0.3000" /> 
<circle cx="33.0000" cy="21.0000" r="0.3000" /> 
<circle cx="45.0000" cy="9.0000" r="0.3000" /> 
<circle cx="37.6500" cy="12.6500" r="0.3000" /> 
<circle cx="26.5000" cy="18.5000" r="0.3000" /> 
<circle cx="9.1000" cy="35.2000" r="0.3000" /> 
<circle cx="23.0000" cy="33.4625" r="0.3000" /> 
<circle cx="19.7750" cy="16.9000" r="0.2500" /> 
<circle cx="10.1000" cy="35.2000" r="0.3000" /> 
<circle cx="39.0000" cy="39.0000" r="0.3000" /> 
<circle cx="27.0000" cy="45.0000" r="0.3000" /> 
<circle cx="25.0000" cy="16.9000" r="0.2500" /> 
<circle cx="28.0000" cy="24.5000" r="0.3000" /> 
<circle cx="30.1491" cy="4.0000" r="0.3000" /> 
<circle cx="15.0000" cy="45.0000" r="0.3000" /> 
<circle cx="39.0000" cy="21.0000" r="0.3000" /> 
<circle cx="15.0000" cy="21.0000" r="0.3000" /> 
<circle cx="33.0000" cy="9.0000" r="0.3000" /> 
<circle cx="33.0000" cy="3.0000" r="0.3000" /> 
<circle cx="36.7000" cy="35.2000" r="0.3000" /> 
<circle cx="33.0000" cy="27.0000" r="0.3000" /> 
<circle cx="21.0000" cy="39.0000" r="0.3000" /> 
<circle cx="37.7000" cy="35.2000" r="0.3000" /> 
<circle cx="21.5000" cy="18.5000" r="0.3000" /> 
<circle cx="9.0000" cy="9.0000" r="0.3000" /> 
<circle cx="9.0000" cy="45.0000" r="0.3000" /> 
<circle cx="39.0000" cy="9.0000" r="0.3000" /> 
<circle cx="27.0000" cy="39.0000" r="0.3000" /> 
<circle cx="9.0000" cy="39.0000" r="0.3000" /> 
<circle cx="26.5000" cy="19.5000" r="0.3000" /> 
<circle cx="15.0000" cy="33.0000" r="0.3000" /> 
<circle cx="8.1000" cy="35.2000" r="0.3000" /> 
<circle cx="9.0000" cy="27.0000" r="0.3000" /> 
<circle cx="39.0000" cy="45.0000" r="0.3000" /> 
<circle cx="15.0000" cy="27.0000" r="0.3000" /> 
<circle cx="33.0000" cy="45.0000" r="0.3000" /> 
<circle cx="3.0000" cy="33.0000" r="0.3000" /> 
<circle cx="35.7000" cy="35.2000" r="0.3000" /> 
<circle cx="3.0000" cy="9.0000" r="0.3000" /> 
<circle cx="30.1000" cy="22.0000" r="0.3000" /> 
<circle cx="21.0450" cy="11.5068" r="0.3000" /> 
<circle cx="28.2250" cy="16.1344" r="0.2500" /> 
<circle cx="27.5450" cy="11.5068" r="0.3000" /> 
<circle cx="23.0450" cy="11.5068" r="0.3000" /> 
<circle cx="25.3450" cy="11.5068" r="0.3000" /> 
<circle cx="22.3749" cy="21.8659" r="0.2500" /> 
<circle cx="24.3251" cy="21.8659" r="0.2500" /> 
<circle cx="24.9751" cy="22.3659" r="0.2500" /> 
<circle cx="23.0000" cy="27.5375" r="0.3000" /> 
</g>
<g style="fill:none; 
stroke:#4D7FC4; stroke-width:0.2000; stroke-opacity:1; 
stroke-linecap:round; stroke-linejoin:round;">
<path d="M26.4932 11.5068
L26.5800 11.4200
" />
<path d="M21.0450 11.5068
L27.5450 11.5068
" />
<path d="M28.2250 16.1344
L28.2250 14.2250
" />
<path d="M27.5450 13.5450
L27.5450 11.5068
" />
<path d="M26.5800 11.4200
L26.5800 6.0400
" />
<path d="M28.2250 14.2250
L27.5450 13.5450
" />
</g>
<g style="fill:none; 
stroke:#4D7FC4; stroke-width:0.6000; stroke-opacity:1; 
stroke-linecap:round; stroke-linejoin:round;">
<path d="M26.7498 28.0000
L45.0000 28.0000
" />
<path d="M22.3749 23.6251
L26.7498 28.0000
" />
</g>
<g style="fill:none; 
stroke:#4D7FC4; stroke-width:0.2000; stroke-opacity:1; 
stroke-linecap:round; stroke-linejoin:round;">
<path d="M22.3749 21.8659
L22.3749 23.6251
" />
<path d="M24.3251 21.8659
L24.3251 23.8251
" />
</g>
<g style="fill:none; 
stroke:#4D7FC4; stroke-width:0.6000; stroke-opacity:1; 
stroke-linecap:round; stroke-linejoin:round;">
<path d="M42.0000 26.0000
L45.0000 23.0000
" />
<path d="M26.5000 26.0000
L42.0000 26.0000
" />
<path d="M24.3251 23.8251
L26.5000 26.0000
" />
<path d="M25.5000 23.5000
L39.5000 23.5000
" />
</g>
<g style="fill:none; 
stroke:#4D7FC4; stroke-width:0.2000; stroke-opacity:1; 
stroke-linecap:round; stroke-linejoin:round;">
<path d="M24.9751 21.3659
L24.9751 22.9751
" />
</g>
<g style="fill:none; 
stroke:#4D7FC4; stroke-width:0.6000; stroke-opacity:1; 
stroke-linecap:round; stroke-linejoin:round;">
<path d="M39.5000 23.5000
L45.0000 18.0000
" />
</g>
<g style="fill:none; 
stroke:#4D7FC4; stroke-width:0.2000; stroke-opacity:1; 
stroke-linecap:round; stroke-linejoin:round;">
<path d="M24.9751 22.9751
L25.5000 23.5000
" />
</g>
<g style="fill:none; 
stroke:#4D7FC4; stroke-width:0.6000; stroke-opacity:1; 
stroke-linecap:round; stroke-linejoin:round;">
<path d="M16.5000 23.5000
L16.5000 13.5800
" />
<path d="M20.5375 27.5375
L16.5000 23.5000
" />
<path d="M23.0000 27.5375
L20.5375 27.5375
" />
<path d="M16.5000 13.5800
L24.0400 6.0400
" />
<path style="fill:#4D7FC4; fill-opacity:1.0000; stroke:none;fill-rule:evenodd;"
d="M 46.4187,0.6187
49.3813,3.5813
49.4000,3.6265
49.4000,46.3735
49.3813,46.4187
46.4187,49.3813
46.3735,49.4000
3.6265,49.4000
3.5813,49.3813
0.6187,46.4187
0.6000,46.3735
0.6000,45.8787
2.1495,45.8787
2.1495,46.1213
2.1812,46.3618
2.1812,46.3618
2.2439,46.5961
2.3368,46.8202
2.4581,47.0303
2.5319,47.1265
2.6057,47.2227
2.7773,47.3943
2.9154,47.5002
2.9336,47.5142
2.9697,47.5419
3.1798,47.6632
3.1798,47.6632
3.1798,47.6632
3.4039,47.7561
3.6382,47.8188
3.6382,47.8188
3.8338,47.8446
3.8787,47.8505
4.1213,47.8505
4.2415,47.8347
4.3618,47.8188
4.3618,47.8188
4.3618,47.8188
4.3618,47.8188
4.3618,47.8188
4.5961,47.7561
4.8202,47.6632
4.8202,47.6632
4.8202,47.6632
5.0303,47.5419
5.2227,47.3943
5.3943,47.2227
5.5419,47.0303
5.6632,46.8202
5.7561,46.5961
5.8188,46.3618
5.8505,46.1213
5.8505,45.8787
5.8505,45.8787
44.1495,45.8787
44.1495,46.1213
44.1812,46.3618
44.1812,46.3618
44.2439,46.5961
44.3368,46.8202
44.4581,47.0303
44.5319,47.1265
44.6057,47.2227
44.7773,47.3943
44.9154,47.5002
44.9336,47.5142
44.9697,47.5419
45.1798,47.6632
45.1798,47.6632
45.1798,47.6632
45.4039,47.7561
45.6382,47.8188
45.6382,47.8188
45.8338,47.8446
45.8787,47.8505
46.1213,47.8505
46.2415,47.8347
46.3618,47.8188
46.3618,47.8188
46.3618,47.8188
46.3618,47.8188
46.3618,47.8188
46.5961,47.7561
46.8202,47.6632
46.8202,47.6632
46.8202,47.6632
47.0303,47.5419
47.2227,47.3943
47.3943,47.2227
47.5419,47.0303
47.6632,46.8202
47.7561,46.5961
47.8188,46.3618
47.8505,46.1213
47.8505,45.8787
47.8188,45.6382
47.7561,45.4039
47.6632,45.1798
47.5419,44.9697
47.3943,44.7773
47.2227,44.6057
47.1265,44.5319
47.0303,44.4581
46.8202,44.3368
46.5961,44.2439
46.3618,44.1812
46.3618,44.1812
46.1213,44.1495
46.1213,44.1495
45.8787,44.1495
45.8787,44.1495
45.6382,44.1812
45.6382,44.1812
45.4039,44.2439
45.1798,44.3368
44.9697,44.4581
44.7773,44.6057
44.6057,44.7773
44.4581,44.9697
44.3368,45.1798
44.2439,45.4039
44.1812,45.6382
44.1812,45.6382
44.1495,45.8787
5.8505,45.8787
5.8188,45.6382
5.7561,45.4039
5.6632,45.1798
5.5419,44.9697
5.3943,44.7773
5.2227,44.6057
5.1265,44.5319
5.0303,44.4581
4.8202,44.3368
4.5961,44.2439
4.3618,44.1812
4.3618,44.1812
4.1213,44.1495
4.1213,44.1495
3.8787,44.1495
3.8787,44.1495
3.6382,44.1812
3.6382,44.1812
3.4039,44.2439
3.1798,44.3368
2.9697,44.4581
2.7773,44.6057
2.6057,44.7773
2.4581,44.9697
2.3368,45.1798
2.2439,45.4039
2.1812,45.6382
2.1812,45.6382
2.1495,45.8787
0.6000,45.8787
0.6000,32.8754
43.0995,32.8754
43.0995,33.1246
43.1320,33.3716
43.1320,33.3716
43.1965,33.6122
43.2918,33.8424
43.2918,33.8424
43.2918,33.8424
43.4164,34.0581
43.5681,34.2558
43.7442,34.4319
43.9419,34.5836
44.1576,34.7082
44.1576,34.7082
44.1576,34.7082
44.3878,34.8035
44.6284,34.8680
44.6284,34.8680
44.7814,34.8881
44.8754,34.9005
45.1246,34.9005
45.2775,34.8804
45.3716,34.8680
45.3716,34.8680
45.3716,34.8680
45.3716,34.8680
45.3716,34.8680
45.6122,34.8035
45.8424,34.7082
45.8424,34.7082
45.8424,34.7082
46.0581,34.5836
46.2558,34.4319
46.4319,34.2558
46.5836,34.0581
46.7082,33.8424
46.8035,33.6122
46.8680,33.3716
46.9005,33.1246
46.9005,32.8754
46.8680,32.6284
46.8035,32.3878
46.8035,32.3878
46.7082,32.1576
46.7082,32.1576
46.7082,32.1576
46.5836,31.9419
46.4319,31.7442
46.2558,31.5681
46.0581,31.4164
45.8424,31.2918
45.8424,31.2918
45.8424,31.2918
45.6122,31.1965
45.3716,31.1320
45.3716,31.1320
45.1246,31.0995
45.1246,31.0995
44.8754,31.0995
44.8754,31.0995
44.6284,31.1320
44.6284,31.1320
44.3878,31.1965
44.1576,31.2918
43.9419,31.4164
43.7442,31.5681
43.5681,31.7442
43.4164,31.9419
43.2918,32.1576
43.1965,32.3878
43.1320,32.6284
43.1320,32.6284
43.0995,32.8754
0.6000,32.8754
0.6000,25.3754
3.5995,25.3754
3.5995,25.6246
3.6320,25.8716
3.6320,25.8716
3.6965,26.1122
3.7918,26.3424
3.7918,26.3424
3.7918,26.3424
3.9164,26.5581
4.0681,26.7558
4.2442,26.9319
4.4419,27.0836
4.6576,27.2082
4.6576,27.2082
4.6576,27.2082
4.8878,27.3035
5.1284,27.3680
5.1284,27.3680
5.2789,27.3878
5.3754,27.4005
5.6246,27.4005
5.7775,27.3804
5.8716,27.3680
5.8716,27.3680
5.8716,27.3680
5.8716,27.3680
5.8716,27.3680
6.1122,27.3035
6.3424,27.2082
6.3424,27.2082
6.3424,27.2082
6.5581,27.0836
6.7558,26.9319
6.9319,26.7558
7.0836,26.5581
7.2082,26.3424
7.2686,26.1965
7.3035,26.1122
7.3680,25.8716
7.3680,25.8716
7.4005,25.6246
7.4005,25.6246
7.4005,25.3754
7.4005,25.3754
7.3680,25.1284
7.3680,25.1284
7.3035,24.8878
7.2082,24.6576
7.2082,24.6576
7.2082,24.6576
7.0836,24.4419
6.9319,24.2442
6.7558,24.0681
6.5581,23.9164
6.3424,23.7918
6.3424,23.7918
6.3424,23.7918
6.1122,23.6965
5.8716,23.6320
5.8716,23.6320
5.6246,23.5995
5.6246,23.5995
5.3754,23.5995
5.3754,23.5995
5.1284,23.6320
5.1284,23.6320
4.8878,23.6965
4.6576,23.7918
4.4419,23.9164
4.2442,24.0681
4.0681,24.2442
3.9164,24.4419
3.7918,24.6576
3.6965,24.8878
3.6320,25.1284
3.6320,25.1284
3.5995,25.3754
0.6000,25.3754
0.6000,3.8787
2.1495,3.8787
2.1495,4.1213
2.1812,4.3618
2.1812,4.3618
2.2439,4.5961
2.3368,4.8202
2.4581,5.0303
2.5319,5.1265
2.6057,5.2227
2.7773,5.3943
2.9154,5.5002
2.9432,5.5216
2.9697,5.5419
3.1798,5.6632
3.1798,5.6632
3.1798,5.6632
3.4039,5.7561
3.6382,5.8188
3.6382,5.8188
3.8338,5.8446
3.8787,5.8505
4.1213,5.8505
4.2415,5.8347
4.3618,5.8188
4.3618,5.8188
4.3618,5.8188
4.3618,5.8188
4.3618,5.8188
4.5961,5.7561
4.8202,5.6632
4.8202,5.6632
4.8202,5.6632
5.0303,5.5419
5.2227,5.3943
5.3943,5.2227
5.5419,5.0303
5.6632,4.8202
5.7561,4.5961
5.8188,4.3618
5.8505,4.1213
5.8505,3.8787
5.8188,3.6382
5.7561,3.4039
5.7518,3.3937
9.9895,3.3937
9.9895,3.6063
9.9946,3.6382
10.0228,3.8162
10.0884,4.0184
10.0884,4.0184
10.1849,4.2078
10.1849,4.2078
10.3099,4.3798
10.4602,4.5301
10.5510,4.5961
10.6322,4.6551
10.6322,4.6551
10.7459,4.7130
10.7777,4.7502
10.7738,4.7991
10.7459,4.8270
10.6322,4.8849
10.6322,4.8849
10.4602,5.0099
10.3099,5.1602
10.1849,5.3322
10.1849,5.3322
10.0884,5.5216
10.0884,5.5216
10.0228,5.7238
9.9895,5.9337
9.9895,6.1463
10.0228,6.3562
10.0884,6.5584
10.0884,6.5584
10.1849,6.7478
10.1849,6.7478
10.3099,6.9198
10.4602,7.0701
10.6322,7.1950
10.6322,7.1951
10.8216,7.2916
10.8216,7.2916
10.8216,7.2916
11.0238,7.3572
11.2337,7.3905
11.2337,7.3905
11.4463,7.3905
11.4463,7.3905
11.6562,7.3572
11.8584,7.2916
11.8584,7.2916
12.0478,7.1951
12.0478,7.1951
12.0478,7.1951
12.2198,7.0701
12.3701,6.9198
12.4951,6.7478
12.4951,6.7478
12.5530,6.6341
12.5902,6.6023
12.6391,6.6062
12.6670,6.6341
12.7249,6.7478
12.7249,6.7478
12.8499,6.9198
13.0002,7.0701
13.1722,7.1950
13.1722,7.1951
13.3616,7.2916
13.3616,7.2916
13.3616,7.2916
13.5638,7.3572
13.7737,7.3905
13.7737,7.3905
13.9863,7.3905
13.9863,7.3905
14.1962,7.3572
14.3984,7.2916
14.3984,7.2916
14.5878,7.1951
14.5878,7.1951
14.5878,7.1951
14.7598,7.0701
14.9101,6.9198
15.0351,6.7478
15.0351,6.7478
15.0930,6.6341
15.1302,6.6023
15.1791,6.6062
15.2070,6.6341
15.2649,6.7478
15.2649,6.7478
15.3899,6.9198
15.5402,7.0701
15.7122,7.1950
15.7122,7.1951
15.9016,7.2916
15.9016,7.2916
15.9016,7.2916
16.1038,7.3572
16.3137,7.3905
16.3137,7.3905
16.5263,7.3905
16.5263,7.3905
16.7362,7.3572
16.9384,7.2916
16.9384,7.2916
17.1278,7.1951
17.1278,7.1951
17.1278,7.1951
17.2998,7.0701
17.4501,6.9198
17.5751,6.7478
17.5751,6.7478
17.6330,6.6341
17.6702,6.6023
17.7191,6.6062
17.7470,6.6341
17.8049,6.7478
17.8049,6.7478
17.9299,6.9198
18.0802,7.0701
18.2522,7.1950
18.2522,7.1951
18.4416,7.2916
18.4416,7.2916
18.4416,7.2916
18.6438,7.3572
18.8537,7.3905
18.8537,7.3905
19.0663,7.3905
19.0663,7.3905
19.2762,7.3572
19.4784,7.2916
19.4784,7.2916
19.6678,7.1951
19.6678,7.1951
19.6678,7.1951
19.8398,7.0701
19.9901,6.9198
20.1151,6.7478
20.1151,6.7478
20.1730,6.6341
20.2102,6.6023
20.2591,6.6062
20.2870,6.6341
20.3449,6.7478
20.3449,6.7478
20.4699,6.9198
20.6202,7.0701
20.7922,7.1950
20.7922,7.1951
20.9816,7.2916
20.9816,7.2916
20.9816,7.2916
21.1838,7.3572
21.3937,7.3905
21.4029,7.3905
21.4482,7.4092
21.4669,7.4545
21.4482,7.4998
15.8782,13.0697
15.7906,13.2008
15.7906,13.2008
15.7303,13.3465
15.7303,13.3465
15.6995,13.5012
15.6995,23.5788
15.7303,23.7335
15.7303,23.7335
15.7821,23.8586
15.7906,23.8792
15.8782,24.0103
19.9157,28.0478
20.0272,28.1593
20.1583,28.2469
20.2219,28.2732
20.3040,28.3072
20.3040,28.3072
20.3040,28.3072
20.3427,28.3149
20.4587,28.3380
20.4587,28.3380
23.0788,28.3380
23.1716,28.3195
23.2335,28.3072
23.2335,28.3072
23.2335,28.3072
23.2839,28.2864
23.3792,28.2469
23.5103,28.1593
23.6218,28.0478
23.7094,27.9167
23.7489,27.8214
23.7697,27.7710
23.7697,27.7710
23.8005,27.6163
23.8005,27.4587
23.7697,27.3040
23.7697,27.3040
23.7300,27.2082
23.7094,27.1583
23.6218,27.0272
23.5103,26.9157
23.3792,26.8281
23.3606,26.8204
23.2335,26.7678
23.2335,26.7678
23.0788,26.7370
23.0788,26.7370
20.8956,26.7370
20.8503,26.7183
17.6783,23.5463
21.5744,23.5463
21.5744,23.7039
21.6052,23.8586
21.6052,23.8586
21.6578,23.9857
21.6655,24.0043
21.7531,24.1354
26.2395,28.6218
26.3706,28.7094
26.4342,28.7357
26.5163,28.7697
26.5163,28.7697
26.5163,28.7697
26.5550,28.7774
26.6710,28.8005
26.6710,28.8005
26.8286,28.8005
43.2317,28.8005
43.2770,28.8192
43.2909,28.8400
43.2918,28.8424
43.2918,28.8424
43.2918,28.8424
43.4164,29.0581
43.5681,29.2558
43.7442,29.4319
43.9419,29.5836
44.1576,29.7082
44.1576,29.7082
44.1576,29.7082
44.3878,29.8035
44.6284,29.8680
44.6284,29.8680
44.7814,29.8881
44.8754,29.9005
45.1246,29.9005
45.2775,29.8804
45.3716,29.8680
45.3716,29.8680
45.3716,29.8680
45.3716,29.8680
45.3716,29.8680
45.6122,29.8035
45.8424,29.7082
45.8424,29.7082
45.8424,29.7082
46.0581,29.5836
46.2558,29.4319
46.4319,29.2558
46.5836,29.0581
46.7082,28.8424
46.7255,28.8005
46.8035,28.6122
46.8680,28.3716
46.8680,28.3716
46.8844,28.2469
46.9005,28.1246
46.9005,27.8754
46.8680,27.6284
46.8647,27.6163
46.8035,27.3878
46.7082,27.1576
46.7082,27.1576
46.7082,27.1576
46.5836,26.9419
46.4319,26.7442
46.2558,26.5681
46.0581,26.4164
45.8424,26.2918
45.8424,26.2918
45.8424,26.2918
45.6122,26.1965
45.3716,26.1320
45.3716,26.1320
45.1246,26.0995
45.1246,26.0995
44.8754,26.0995
44.8754,26.0995
44.6284,26.1320
44.6284,26.1320
44.3878,26.1965
44.1576,26.2918
43.9419,26.4164
43.7442,26.5681
43.5681,26.7442
43.4164,26.9419
43.2918,27.1576
43.2909,27.1600
43.2562,27.1946
43.2317,27.1995
27.1079,27.1995
27.0626,27.1808
26.7916,26.9098
26.7729,26.8645
26.7916,26.8192
26.8369,26.8005
42.0788,26.8005
42.1716,26.7820
42.2335,26.7697
42.2335,26.7697
42.2335,26.7697
42.2951,26.7442
42.3792,26.7094
42.5103,26.6218
44.3157,24.8164
44.3609,24.7976
44.3854,24.8025
44.3878,24.8035
44.6284,24.8680
44.6284,24.8680
44.7789,24.8878
44.8754,24.9005
45.1246,24.9005
45.2775,24.8804
45.3716,24.8680
45.3716,24.8680
45.3716,24.8680
45.3716,24.8680
45.3716,24.8680
45.6122,24.8035
45.8424,24.7082
45.8424,24.7082
45.8424,24.7082
46.0581,24.5836
46.2558,24.4319
46.4319,24.2558
46.5836,24.0581
46.7082,23.8424
46.7686,23.6965
46.8035,23.6122
46.8680,23.3716
46.8680,23.3716
46.9005,23.1246
46.9005,23.1246
46.9005,22.8754
46.9005,22.8754
46.8680,22.6284
46.8680,22.6284
46.8035,22.3878
46.7082,22.1576
46.7082,22.1576
46.7082,22.1576
46.5836,21.9419
46.4319,21.7442
46.2558,21.5681
46.0581,21.4164
45.8424,21.2918
45.8424,21.2918
45.8424,21.2918
45.6122,21.1965
45.3716,21.1320
45.3716,21.1320
45.1246,21.0995
45.1246,21.0995
44.8754,21.0995
44.8754,21.0995
44.6284,21.1320
44.6284,21.1320
44.3878,21.1965
44.1576,21.2918
43.9419,21.4164
43.7442,21.5681
43.5681,21.7442
43.4164,21.9419
43.2918,22.1576
43.1965,22.3878
43.1320,22.6284
43.1320,22.6284
43.0995,22.8754
43.0995,23.1246
43.1320,23.3716
43.1320,23.3716
43.1965,23.6122
43.1975,23.6146
43.1975,23.6636
43.1836,23.6843
41.6872,25.1808
41.6419,25.1995
26.8581,25.1995
26.8128,25.1808
26.0418,24.4098
26.0231,24.3645
26.0418,24.3192
26.0871,24.3005
39.5788,24.3005
39.6716,24.2820
39.7335,24.2697
39.7335,24.2697
39.7335,24.2697
39.7951,24.2442
39.8792,24.2094
40.0103,24.1218
44.3157,19.8164
44.3609,19.7977
44.3854,19.8025
44.3878,19.8035
44.6284,19.8680
44.6284,19.8680
44.7814,19.8881
44.8754,19.9005
45.1246,19.9005
45.2775,19.8804
45.3716,19.8680
45.3716,19.8680
45.3716,19.8680
45.3716,19.8680
45.3716,19.8680
45.6122,19.8035
45.8424,19.7082
45.8424,19.7082
45.8424,19.7082
46.0581,19.5836
46.2558,19.4319
46.4319,19.2558
46.5836,19.0581
46.7082,18.8424
46.8035,18.6122
46.8680,18.3716
46.9005,18.1246
46.9005,17.8754
46.8680,17.6284
46.8035,17.3878
46.8035,17.3878
46.7082,17.1576
46.7082,17.1576
46.7082,17.1576
46.5836,16.9419
46.4319,16.7442
46.2558,16.5681
46.0581,16.4164
45.8424,16.2918
45.8424,16.2918
45.8424,16.2918
45.6122,16.1965
45.3716,16.1320
45.3716,16.1320
45.1246,16.0995
45.1246,16.0995
44.8754,16.0995
44.8754,16.0995
44.6284,16.1320
44.6284,16.1320
44.3878,16.1965
44.1576,16.2918
43.9419,16.4164
43.7442,16.5681
43.5681,16.7442
43.4164,16.9419
43.2918,17.1576
43.1965,17.3878
43.1320,17.6284
43.1320,17.6284
43.0995,17.8754
43.0995,18.1246
43.1320,18.3716
43.1320,18.3716
43.1965,18.6122
43.1975,18.6146
43.1975,18.6636
43.1836,18.6843
39.1872,22.6808
39.1419,22.6995
25.7450,22.6995
25.6998,22.6808
25.6810,22.6355
25.6859,22.6110
25.6968,22.5848
25.7256,22.4398
25.7256,22.2920
25.7256,22.2920
25.6968,22.1470
25.6968,22.1470
25.6968,22.1470
25.6402,22.0104
25.5944,21.9419
25.5864,21.9299
25.5756,21.8943
25.5756,21.2868
25.5756,21.2868
25.5746,21.2829
25.5347,21.1341
25.4556,20.9972
25.3438,20.8854
25.2069,20.8063
25.2069,20.8063
25.2069,20.8063
25.0542,20.7654
25.0542,20.7654
25.0542,20.7654
24.8960,20.7654
24.8960,20.7654
24.8960,20.7654
24.7433,20.8063
24.7433,20.8063
24.6064,20.8854
24.4946,20.9972
24.4448,21.0834
24.4059,21.1132
24.3894,21.1154
24.2512,21.1154
24.1062,21.1442
24.1062,21.1442
23.9696,21.2008
23.9696,21.2008
23.8467,21.2829
23.7421,21.3875
23.6600,21.5104
23.6600,21.5104
23.6034,21.6470
23.6034,21.6470
23.5746,21.7920
23.5746,21.9398
23.6034,22.0848
23.6034,22.0848
23.6034,22.0848
23.6600,22.2214
23.7138,22.3019
23.7246,22.3375
23.7246,23.2670
23.7059,23.3123
23.7033,23.3148
23.6157,23.4459
23.6157,23.4459
23.5680,23.5610
23.5334,23.5956
23.4844,23.5956
23.4637,23.5818
22.9941,23.1123
22.9754,23.0670
22.9754,22.3375
22.9862,22.3019
23.0400,22.2214
23.0966,22.0848
23.1250,21.9419
23.1254,21.9398
23.1254,21.7920
23.0966,21.6470
23.0966,21.6470
23.0966,21.6470
23.0400,21.5104
22.9579,21.3875
22.8533,21.2829
22.8533,21.2829
22.7304,21.2008
22.7304,21.2008
22.7304,21.2008
22.5938,21.1442
22.5938,21.1442
22.5938,21.1442
22.5938,21.1442
22.4488,21.1154
22.4488,21.1154
22.3010,21.1154
22.3010,21.1154
22.1560,21.1442
22.1560,21.1442
22.0194,21.2008
22.0194,21.2008
21.8965,21.2829
21.7919,21.3875
21.7098,21.5104
21.7098,21.5104
21.6532,21.6470
21.6532,21.6470
21.6244,21.7920
21.6244,21.9398
21.6532,22.0848
21.6532,22.0848
21.6532,22.0848
21.7098,22.2214
21.7636,22.3019
21.7744,22.3375
21.7744,23.0670
21.7557,23.1123
21.7531,23.1148
21.6655,23.2459
21.6655,23.2459
21.6052,23.3916
21.6052,23.3916
21.5744,23.5463
17.6783,23.5463
17.3192,23.1872
17.3005,23.1419
17.3005,13.9381
17.3192,13.8928
23.8139,7.3982
23.8591,7.3795
23.8691,7.3803
23.9337,7.3905
23.9337,7.3905
24.1463,7.3905
24.1463,7.3905
24.3562,7.3572
24.5584,7.2916
24.5584,7.2916
24.7478,7.1951
24.7478,7.1951
24.7478,7.1951
24.9198,7.0701
25.0701,6.9198
25.1951,6.7478
25.1951,6.7478
25.2530,6.6341
25.2902,6.6023
25.3391,6.6062
25.3670,6.6341
25.4249,6.7478
25.4249,6.7478
25.5499,6.9198
25.7002,7.0701
25.8722,7.1950
25.8722,7.1951
25.8932,7.2058
25.9446,7.2319
25.9764,7.2692
25.9795,7.2889
25.9795,10.8423
25.9608,10.8876
25.9155,10.9063
25.9031,10.9063
25.8578,10.8876
25.8553,10.8850
25.7914,10.8423
25.7242,10.7974
25.7056,10.7897
25.5785,10.7371
25.5785,10.7371
25.4238,10.7063
25.4238,10.7063
25.2662,10.7063
25.2662,10.7063
25.1115,10.7371
25.1115,10.7371
24.9658,10.7974
24.9658,10.7974
24.8347,10.8850
24.8322,10.8876
24.7869,10.9063
23.6031,10.9063
23.5578,10.8876
23.5553,10.8850
23.4914,10.8423
23.4242,10.7974
23.4056,10.7897
23.2785,10.7371
23.2785,10.7371
23.1238,10.7063
23.1238,10.7063
22.9662,10.7063
22.9662,10.7063
22.8115,10.7371
22.8115,10.7371
22.6658,10.7974
22.6658,10.7974
22.5347,10.8850
22.5322,10.8876
22.4869,10.9063
21.6031,10.9063
21.5578,10.8876
21.5553,10.8850
21.4914,10.8423
21.4242,10.7974
21.4056,10.7897
21.2785,10.7371
21.2785,10.7371
21.1238,10.7063
21.1238,10.7063
20.9662,10.7063
20.9662,10.7063
20.8115,10.7371
20.8115,10.7371
20.6658,10.7974
20.6658,10.7974
20.5347,10.8850
20.4232,10.9965
20.3356,11.1276
20.3356,11.1276
20.2753,11.2733
20.2753,11.2733
20.2445,11.4280
20.2445,11.5856
20.2753,11.7403
20.2753,11.7403
20.3279,11.8674
20.3356,11.8860
20.4232,12.0171
20.5347,12.1286
20.6658,12.2162
20.7294,12.2425
20.8115,12.2765
20.8115,12.2765
20.8115,12.2765
20.8502,12.2842
20.9662,12.3073
20.9662,12.3073
21.1238,12.3073
21.2166,12.2888
21.2785,12.2765
21.2785,12.2765
21.2785,12.2765
21.3289,12.2557
21.4242,12.2162
21.5553,12.1286
21.5578,12.1260
21.6031,12.1073
22.4869,12.1073
22.5322,12.1260
22.5347,12.1286
22.6658,12.2162
22.7294,12.2425
22.8115,12.2765
22.8115,12.2765
22.8115,12.2765
22.8502,12.2842
22.9662,12.3073
22.9662,12.3073
23.1238,12.3073
23.2166,12.2888
23.2785,12.2765
23.2785,12.2765
23.2785,12.2765
23.3289,12.2557
23.4242,12.2162
23.5553,12.1286
23.5578,12.1260
23.6031,12.1073
24.7869,12.1073
24.8322,12.1260
24.8347,12.1286
24.9658,12.2162
25.0294,12.2425
25.1115,12.2765
25.1115,12.2765
25.1115,12.2765
25.1502,12.2842
25.2662,12.3073
25.2662,12.3073
25.4238,12.3073
25.5166,12.2888
25.5785,12.2765
25.5785,12.2765
25.5785,12.2765
25.6289,12.2557
25.7242,12.2162
25.8553,12.1286
25.8578,12.1260
25.9031,12.1073
26.4102,12.1073
26.4102,12.1073
26.4141,12.1073
26.5762,12.1073
26.5762,12.1073
26.8805,12.1073
26.9258,12.1260
26.9445,12.1713
26.9445,13.4620
26.9445,13.4620
26.9445,13.6241
26.9854,13.7768
26.9854,13.7768
27.0066,13.8135
27.0066,13.8135
27.0645,13.9137
27.1799,14.0292
27.1799,14.0292
27.6058,14.4550
27.6245,14.5002
27.6245,15.6628
27.6137,15.6984
27.5599,15.7789
27.5599,15.7789
27.5033,15.9155
27.5033,15.9155
27.4745,16.0605
27.4745,16.2083
27.5033,16.3533
27.5033,16.3533
27.5033,16.3533
27.5599,16.4899
27.5599,16.4899
27.5599,16.4899
27.6121,16.5681
27.6420,16.6128
27.7466,16.7174
27.8695,16.7995
28.0061,16.8561
28.0061,16.8561
28.0061,16.8561
28.1511,16.8849
28.1511,16.8849
28.2989,16.8849
28.4439,16.8561
28.4439,16.8561
28.4439,16.8561
28.5805,16.7995
28.7034,16.7174
28.8080,16.6128
28.8901,16.4899
28.9467,16.3533
28.9755,16.2083
28.9755,16.0605
28.9755,16.0605
28.9467,15.9155
28.9467,15.9155
28.9467,15.9155
28.8901,15.7789
28.8363,15.6984
28.8255,15.6628
28.8255,14.1459
28.8255,14.1459
28.8254,14.1455
28.7846,13.9932
28.7387,13.9137
28.7055,13.8563
28.5937,13.7445
28.5915,13.7422
28.5915,13.7422
28.1642,13.3150
28.1455,13.2698
28.1455,12.0649
28.1642,12.0196
28.1668,12.0171
28.2544,11.8860
28.2939,11.7907
28.3147,11.7403
28.3147,11.7403
28.3455,11.5856
28.3455,11.4280
28.3147,11.2733
28.3147,11.2733
28.2807,11.1912
28.2544,11.1276
28.1668,10.9965
28.0553,10.8850
27.9242,10.7974
27.9056,10.7897
27.7785,10.7371
27.7785,10.7371
27.6238,10.7063
27.6238,10.7063
27.4662,10.7063
27.4662,10.7063
27.3115,10.7371
27.3115,10.7371
27.2690,10.7547
27.2200,10.7547
27.1854,10.7200
27.1805,10.6955
27.1805,7.2889
27.1992,7.2437
27.2154,7.2319
27.2878,7.1951
27.4598,7.0701
27.6101,6.9198
27.7351,6.7478
27.8316,6.5584
27.8972,6.3562
27.9305,6.1463
27.9305,5.9337
27.8972,5.7238
27.8316,5.5216
27.8316,5.5216
27.8316,5.5216
27.7351,5.3322
27.7351,5.3322
27.7351,5.3322
27.6101,5.1602
27.4598,5.0099
27.2878,4.8849
27.2878,4.8849
27.0984,4.7884
27.0984,4.7884
26.8962,4.7228
26.7620,4.7015
26.6863,4.6895
26.4737,4.6895
26.4061,4.7002
26.2638,4.7228
26.0616,4.7884
26.0616,4.7884
25.8722,4.8849
25.8722,4.8849
25.7002,5.0099
25.5499,5.1602
25.4249,5.3322
25.4249,5.3322
25.3670,5.4459
25.3298,5.4777
25.2809,5.4738
25.2530,5.4459
25.1951,5.3322
25.1950,5.3322
25.0701,5.1602
24.9198,5.0099
24.7478,4.8849
24.7478,4.8849
24.6341,4.8270
24.6023,4.7898
24.6062,4.7409
24.6341,4.7130
24.7478,4.6551
24.7478,4.6551
24.7478,4.6551
24.9198,4.5301
25.0701,4.3798
25.1951,4.2078
25.2916,4.0184
25.3370,3.8787
44.1495,3.8787
44.1495,4.1213
44.1812,4.3618
44.1812,4.3618
44.2439,4.5961
44.3368,4.8202
44.4581,5.0303
44.5319,5.1265
44.6057,5.2227
44.7773,5.3943
44.9154,5.5002
44.9432,5.5216
44.9697,5.5419
45.1798,5.6632
45.1798,5.6632
45.1798,5.6632
45.4039,5.7561
45.6382,5.8188
45.6382,5.8188
45.8338,5.8446
45.8787,5.8505
46.1213,5.8505
46.2415,5.8347
46.3618,5.8188
46.3618,5.8188
46.3618,5.8188
46.3618,5.8188
46.3618,5.8188
46.5961,5.7561
46.8202,5.6632
46.8202,5.6632
46.8202,5.6632
47.0303,5.5419
47.2227,5.3943
47.3943,5.2227
47.5419,5.0303
47.6632,4.8202
47.7561,4.5961
47.8188,4.3618
47.8505,4.1213
47.8505,3.8787
47.8188,3.6382
47.8103,3.6063
47.7561,3.4039
47.6632,3.1798
47.5419,2.9697
47.4332,2.8280
47.3943,2.7773
47.2227,2.6057
47.1265,2.5319
47.0303,2.4581
46.8202,2.3368
46.5961,2.2439
46.3618,2.1812
46.3618,2.1812
46.1213,2.1495
46.1213,2.1495
45.8787,2.1495
45.8787,2.1495
45.6382,2.1812
45.6382,2.1812
45.4039,2.2439
45.1798,2.3368
44.9697,2.4581
44.7773,2.6057
44.6057,2.7773
44.4581,2.9697
44.3368,3.1798
44.2439,3.4039
44.1812,3.6382
44.1812,3.6382
44.1495,3.8787
25.3370,3.8787
25.3572,3.8162
25.3905,3.6063
25.3905,3.3937
25.3572,3.1838
25.2916,2.9816
25.2916,2.9816
25.2916,2.9816
25.1951,2.7922
25.1951,2.7922
25.1951,2.7922
25.0701,2.6202
24.9198,2.4699
24.7478,2.3449
24.7478,2.3449
24.5584,2.2484
24.5584,2.2484
24.3562,2.1828
24.2220,2.1615
24.1463,2.1495
23.9337,2.1495
23.8661,2.1602
23.7238,2.1828
23.5216,2.2484
23.5216,2.2484
23.3322,2.3449
23.3322,2.3449
23.1602,2.4699
23.0099,2.6202
22.8849,2.7922
22.8849,2.7922
22.8270,2.9059
22.7898,2.9377
22.7409,2.9338
22.7130,2.9059
22.6551,2.7922
22.6550,2.7922
22.6442,2.7773
22.5301,2.6202
22.3798,2.4699
22.2078,2.3449
22.2078,2.3449
22.0184,2.2484
22.0184,2.2484
21.8162,2.1828
21.6820,2.1615
21.6063,2.1495
21.3937,2.1495
21.3261,2.1602
21.1838,2.1828
20.9816,2.2484
20.9816,2.2484
20.7922,2.3449
20.7922,2.3449
20.6202,2.4699
20.4699,2.6202
20.3449,2.7922
20.3449,2.7922
20.2870,2.9059
20.2498,2.9377
20.2009,2.9338
20.1730,2.9059
20.1151,2.7922
20.1151,2.7922
20.1042,2.7773
19.9901,2.6202
19.8398,2.4699
19.6678,2.3449
19.6678,2.3449
19.4784,2.2484
19.4784,2.2484
19.2762,2.1828
19.1420,2.1615
19.0663,2.1495
18.8537,2.1495
18.7861,2.1602
18.6438,2.1828
18.4416,2.2484
18.4416,2.2484
18.2522,2.3449
18.2522,2.3449
18.0802,2.4699
17.9299,2.6202
17.8049,2.7922
17.8049,2.7922
17.7470,2.9059
17.7098,2.9377
17.6609,2.9338
17.6330,2.9059
17.5751,2.7922
17.5751,2.7922
17.5642,2.7773
17.4501,2.6202
17.2998,2.4699
17.1278,2.3449
17.1278,2.3449
16.9384,2.2484
16.9384,2.2484
16.7362,2.1828
16.6020,2.1615
16.5263,2.1495
16.3137,2.1495
16.2461,2.1602
16.1038,2.1828
15.9016,2.2484
15.9016,2.2484
15.7122,2.3449
15.7122,2.3449
15.5402,2.4699
15.3899,2.6202
15.2649,2.7922
15.2649,2.7922
15.2070,2.9059
15.1698,2.9377
15.1209,2.9338
15.0930,2.9059
15.0351,2.7922
15.0351,2.7922
15.0242,2.7773
14.9101,2.6202
14.7598,2.4699
14.5878,2.3449
14.5878,2.3449
14.3984,2.2484
14.3984,2.2484
14.1962,2.1828
14.0620,2.1615
13.9863,2.1495
13.7737,2.1495
13.7061,2.1602
13.5638,2.1828
13.3616,2.2484
13.3616,2.2484
13.1722,2.3449
13.1722,2.3449
13.0002,2.4699
12.8499,2.6202
12.7249,2.7922
12.7249,2.7922
12.6670,2.9059
12.6298,2.9377
12.5809,2.9338
12.5530,2.9059
12.4951,2.7922
12.4950,2.7922
12.4842,2.7773
12.3701,2.6202
12.2198,2.4699
12.0478,2.3449
12.0478,2.3449
11.8584,2.2484
11.8584,2.2484
11.6562,2.1828
11.5220,2.1615
11.4463,2.1495
11.2337,2.1495
11.1661,2.1602
11.0238,2.1828
10.8216,2.2484
10.8216,2.2484
10.6322,2.3449
10.6322,2.3449
10.4602,2.4699
10.3099,2.6202
10.1849,2.7922
10.1849,2.7922
10.0884,2.9816
10.0884,2.9816
10.0228,3.1838
9.9975,3.3432
9.9895,3.3937
5.7518,3.3937
5.6632,3.1798
5.5419,2.9697
5.5144,2.9338
5.4332,2.8280
5.3943,2.7773
5.2227,2.6057
5.1265,2.5319
5.0303,2.4581
4.8202,2.3368
4.5961,2.2439
4.3618,2.1812
4.3618,2.1812
4.1213,2.1495
4.1213,2.1495
3.8787,2.1495
3.8787,2.1495
3.6382,2.1812
3.6382,2.1812
3.4039,2.2439
3.1798,2.3368
2.9697,2.4581
2.7773,2.6057
2.6057,2.7773
2.4581,2.9697
2.3368,3.1798
2.2439,3.4039
2.1812,3.6382
2.1812,3.6382
2.1495,3.8787
0.6000,3.8787
0.6000,3.6265
0.6187,3.5813
3.5813,0.6187
3.6265,0.6000
46.3735,0.6000
Z" /> 
</g>
<g style="fill:none; 
stroke:#E8B2A7; stroke-width:0.1750; stroke-opacity:1; 
stroke-linecap:round; stroke-linejoin:round;">
<text x="15.0000" y="43.7000"
transform="scale(-1 1) translate(-30.000000 0)"
textLength="21.4850" font-size="0.9333" lengthAdjust="spacingAndGlyphs"
text-anchor="middle" opacity="0" stroke-opacity="0">github.com/kaydensigh/drv8313-board</text>
<g class="stroked-text"><desc>github.com/kaydensigh/drv8313-board</desc>
<path d="M25.0833 43.2576
L25.0833 43.8242
" />
<path d="M25.0833 43.8242
L25.1167 43.8909
" />
<path d="M25.1167 43.8909
L25.1500 43.9242
" />
<path d="M25.1500 43.9242
L25.2167 43.9576
" />
<path d="M25.2167 43.9576
L25.3167 43.9576
" />
<path d="M25.3167 43.9576
L25.3833 43.9242
" />
<path d="M25.0833 43.6909
L25.1500 43.7242
" />
<path d="M25.1500 43.7242
L25.2833 43.7242
" />
<path d="M25.2833 43.7242
L25.3500 43.6909
" />
<path d="M25.3500 43.6909
L25.3833 43.6576
" />
<path d="M25.3833 43.6576
L25.4167 43.5909
" />
<path d="M25.4167 43.5909
L25.4167 43.3909
" />
<path d="M25.4167 43.3909
L25.3833 43.3242
" />
<path d="M25.3833 43.3242
L25.3500 43.2909
" />
<path d="M25.3500 43.2909
L25.2833 43.2576
" />
<path d="M25.2833 43.2576
L25.1500 43.2576
" />
<path d="M25.1500 43.2576
L25.0833 43.2909
" />
<path d="M24.7500 43.7242
L24.7500 43.2576
" />
<path d="M24.7500 43.0242
L24.7833 43.0576
" />
<path d="M24.7833 43.0576
L24.7500 43.0909
" />
<path d="M24.7500 43.0909
L24.7167 43.0576
" />
<path d="M24.7167 43.0576
L24.7500 43.0242
" />
<path d="M24.7500 43.0242
L24.7500 43.0909
" />
<path d="M24.5167 43.2576
L24.2500 43.2576
" />
<path d="M24.4167 43.0242
L24.4167 43.6242
" />
<path d="M24.4167 43.6242
L24.3833 43.6909
" />
<path d="M24.3833 43.6909
L24.3167 43.7242
" />
<path d="M24.3167 43.7242
L24.2500 43.7242
" />
<path d="M24.0167 43.7242
L24.0167 43.0242
" />
<path d="M23.7167 43.7242
L23.7167 43.3576
" />
<path d="M23.7167 43.3576
L23.7500 43.2909
" />
<path d="M23.7500 43.2909
L23.8167 43.2576
" />
<path d="M23.8167 43.2576
L23.9167 43.2576
" />
<path d="M23.9167 43.2576
L23.9833 43.2909
" />
<path d="M23.9833 43.2909
L24.0167 43.3242
" />
<path d="M23.0833 43.2576
L23.0833 43.7242
" />
<path d="M23.3833 43.2576
L23.3833 43.6242
" />
<path d="M23.3833 43.6242
L23.3500 43.6909
" />
<path d="M23.3500 43.6909
L23.2833 43.7242
" />
<path d="M23.2833 43.7242
L23.1833 43.7242
" />
<path d="M23.1833 43.7242
L23.1167 43.6909
" />
<path d="M23.1167 43.6909
L23.0833 43.6576
" />
<path d="M22.7500 43.7242
L22.7500 43.0242
" />
<path d="M22.7500 43.2909
L22.6833 43.2576
" />
<path d="M22.6833 43.2576
L22.5500 43.2576
" />
<path d="M22.5500 43.2576
L22.4833 43.2909
" />
<path d="M22.4833 43.2909
L22.4500 43.3242
" />
<path d="M22.4500 43.3242
L22.4167 43.3909
" />
<path d="M22.4167 43.3909
L22.4167 43.5909
" />
<path d="M22.4167 43.5909
L22.4500 43.6576
" />
<path d="M22.4500 43.6576
L22.4833 43.6909
" />
<path d="M22.4833 43.6909
L22.5500 43.7242
" />
<path d="M22.5500 43.7242
L22.6833 43.7242
" />
<path d="M22.6833 43.7242
L22.7500 43.6909
" />
<path d="M22.1167 43.6576
L22.0833 43.6909
" />
<path d="M22.0833 43.6909
L22.1167 43.7242
" />
<path d="M22.1167 43.7242
L22.1500 43.6909
" />
<path d="M22.1500 43.6909
L22.1167 43.6576
" />
<path d="M22.1167 43.6576
L22.1167 43.7242
" />
<path d="M21.4833 43.6909
L21.5500 43.7242
" />
<path d="M21.5500 43.7242
L21.6833 43.7242
" />
<path d="M21.6833 43.7242
L21.7500 43.6909
" />
<path d="M21.7500 43.6909
L21.7833 43.6576
" />
<path d="M21.7833 43.6576
L21.8167 43.5909
" />
<path d="M21.8167 43.5909
L21.8167 43.3909
" />
<path d="M21.8167 43.3909
L21.7833 43.3242
" />
<path d="M21.7833 43.3242
L21.7500 43.2909
" />
<path d="M21.7500 43.2909
L21.6833 43.2576
" />
<path d="M21.6833 43.2576
L21.5500 43.2576
" />
<path d="M21.5500 43.2576
L21.4833 43.2909
" />
<path d="M21.0833 43.7242
L21.1500 43.6909
" />
<path d="M21.1500 43.6909
L21.1833 43.6576
" />
<path d="M21.1833 43.6576
L21.2167 43.5909
" />
<path d="M21.2167 43.5909
L21.2167 43.3909
" />
<path d="M21.2167 43.3909
L21.1833 43.3242
" />
<path d="M21.1833 43.3242
L21.1500 43.2909
" />
<path d="M21.1500 43.2909
L21.0833 43.2576
" />
<path d="M21.0833 43.2576
L20.9833 43.2576
" />
<path d="M20.9833 43.2576
L20.9167 43.2909
" />
<path d="M20.9167 43.2909
L20.8833 43.3242
" />
<path d="M20.8833 43.3242
L20.8500 43.3909
" />
<path d="M20.8500 43.3909
L20.8500 43.5909
" />
<path d="M20.8500 43.5909
L20.8833 43.6576
" />
<path d="M20.8833 43.6576
L20.9167 43.6909
" />
<path d="M20.9167 43.6909
L20.9833 43.7242
" />
<path d="M20.9833 43.7242
L21.0833 43.7242
" />
<path d="M20.5500 43.7242
L20.5500 43.2576
" />
<path d="M20.5500 43.3242
L20.5167 43.2909
" />
<path d="M20.5167 43.2909
L20.4500 43.2576
" />
<path d="M20.4500 43.2576
L20.3500 43.2576
" />
<path d="M20.3500 43.2576
L20.2833 43.2909
" />
<path d="M20.2833 43.2909
L20.2500 43.3576
" />
<path d="M20.2500 43.3576
L20.2500 43.7242
" />
<path d="M20.2500 43.3576
L20.2167 43.2909
" />
<path d="M20.2167 43.2909
L20.1500 43.2576
" />
<path d="M20.1500 43.2576
L20.0500 43.2576
" />
<path d="M20.0500 43.2576
L19.9833 43.2909
" />
<path d="M19.9833 43.2909
L19.9500 43.3576
" />
<path d="M19.9500 43.3576
L19.9500 43.7242
" />
<path d="M19.1167 42.9909
L19.7167 43.8909
" />
<path d="M18.8833 43.7242
L18.8833 43.0242
" />
<path d="M18.8167 43.4576
L18.6167 43.7242
" />
<path d="M18.6167 43.2576
L18.8833 43.5242
" />
<path d="M18.0167 43.7242
L18.0167 43.3576
" />
<path d="M18.0167 43.3576
L18.0500 43.2909
" />
<path d="M18.0500 43.2909
L18.1167 43.2576
" />
<path d="M18.1167 43.2576
L18.2500 43.2576
" />
<path d="M18.2500 43.2576
L18.3167 43.2909
" />
<path d="M18.0167 43.6909
L18.0833 43.7242
" />
<path d="M18.0833 43.7242
L18.2500 43.7242
" />
<path d="M18.2500 43.7242
L18.3167 43.6909
" />
<path d="M18.3167 43.6909
L18.3500 43.6242
" />
<path d="M18.3500 43.6242
L18.3500 43.5576
" />
<path d="M18.3500 43.5576
L18.3167 43.4909
" />
<path d="M18.3167 43.4909
L18.2500 43.4576
" />
<path d="M18.2500 43.4576
L18.0833 43.4576
" />
<path d="M18.0833 43.4576
L18.0167 43.4242
" />
<path d="M17.7500 43.2576
L17.5833 43.7242
" />
<path d="M17.4167 43.2576
L17.5833 43.7242
" />
<path d="M17.5833 43.7242
L17.6500 43.8909
" />
<path d="M17.6500 43.8909
L17.6833 43.9242
" />
<path d="M17.6833 43.9242
L17.7500 43.9576
" />
<path d="M16.8500 43.7242
L16.8500 43.0242
" />
<path d="M16.8500 43.6909
L16.9167 43.7242
" />
<path d="M16.9167 43.7242
L17.0500 43.7242
" />
<path d="M17.0500 43.7242
L17.1167 43.6909
" />
<path d="M17.1167 43.6909
L17.1500 43.6576
" />
<path d="M17.1500 43.6576
L17.1833 43.5909
" />
<path d="M17.1833 43.5909
L17.1833 43.3909
" />
<path d="M17.1833 43.3909
L17.1500 43.3242
" />
<path d="M17.1500 43.3242
L17.1167 43.2909
" />
<path d="M17.1167 43.2909
L17.0500 43.2576
" />
<path d="M17.0500 43.2576
L16.9167 43.2576
" />
<path d="M16.9167 43.2576
L16.8500 43.2909
" />
<path d="M16.2500 43.6909
L16.3167 43.7242
" />
<path d="M16.3167 43.7242
L16.4500 43.7242
" />
<path d="M16.4500 43.7242
L16.5167 43.6909
" />
<path d="M16.5167 43.6909
L16.5500 43.6242
" />
<path d="M16.5500 43.6242
L16.5500 43.3576
" />
<path d="M16.5500 43.3576
L16.5167 43.2909
" />
<path d="M16.5167 43.2909
L16.4500 43.2576
" />
<path d="M16.4500 43.2576
L16.3167 43.2576
" />
<path d="M16.3167 43.2576
L16.2500 43.2909
" />
<path d="M16.2500 43.2909
L16.2167 43.3576
" />
<path d="M16.2167 43.3576
L16.2167 43.4242
" />
<path d="M16.2167 43.4242
L16.5500 43.4909
" />
<path d="M15.9167 43.2576
L15.9167 43.7242
" />
<path d="M15.9167 43.3242
L15.8833 43.2909
" />
<path d="M15.8833 43.2909
L15.8167 43.2576
" />
<path d="M15.8167 43.2576
L15.7167 43.2576
" />
<path d="M15.7167 43.2576
L15.6500 43.2909
" />
<path d="M15.6500 43.2909
L15.6167 43.3576
" />
<path d="M15.6167 43.3576
L15.6167 43.7242
" />
<path d="M15.3167 43.6909
L15.2500 43.7242
" />
<path d="M15.2500 43.7242
L15.1167 43.7242
" />
<path d="M15.1167 43.7242
L15.0500 43.6909
" />
<path d="M15.0500 43.6909
L15.0167 43.6242
" />
<path d="M15.0167 43.6242
L15.0167 43.5909
" />
<path d="M15.0167 43.5909
L15.0500 43.5242
" />
<path d="M15.0500 43.5242
L15.1167 43.4909
" />
<path d="M15.1167 43.4909
L15.2167 43.4909
" />
<path d="M15.2167 43.4909
L15.2833 43.4576
" />
<path d="M15.2833 43.4576
L15.3167 43.3909
" />
<path d="M15.3167 43.3909
L15.3167 43.3576
" />
<path d="M15.3167 43.3576
L15.2833 43.2909
" />
<path d="M15.2833 43.2909
L15.2167 43.2576
" />
<path d="M15.2167 43.2576
L15.1167 43.2576
" />
<path d="M15.1167 43.2576
L15.0500 43.2909
" />
<path d="M14.7167 43.7242
L14.7167 43.2576
" />
<path d="M14.7167 43.0242
L14.7500 43.0576
" />
<path d="M14.7500 43.0576
L14.7167 43.0909
" />
<path d="M14.7167 43.0909
L14.6833 43.0576
" />
<path d="M14.6833 43.0576
L14.7167 43.0242
" />
<path d="M14.7167 43.0242
L14.7167 43.0909
" />
<path d="M14.0833 43.2576
L14.0833 43.8242
" />
<path d="M14.0833 43.8242
L14.1167 43.8909
" />
<path d="M14.1167 43.8909
L14.1500 43.9242
" />
<path d="M14.1500 43.9242
L14.2167 43.9576
" />
<path d="M14.2167 43.9576
L14.3167 43.9576
" />
<path d="M14.3167 43.9576
L14.3833 43.9242
" />
<path d="M14.0833 43.6909
L14.1500 43.7242
" />
<path d="M14.1500 43.7242
L14.2833 43.7242
" />
<path d="M14.2833 43.7242
L14.3500 43.6909
" />
<path d="M14.3500 43.6909
L14.3833 43.6576
" />
<path d="M14.3833 43.6576
L14.4167 43.5909
" />
<path d="M14.4167 43.5909
L14.4167 43.3909
" />
<path d="M14.4167 43.3909
L14.3833 43.3242
" />
<path d="M14.3833 43.3242
L14.3500 43.2909
" />
<path d="M14.3500 43.2909
L14.2833 43.2576
" />
<path d="M14.2833 43.2576
L14.1500 43.2576
" />
<path d="M14.1500 43.2576
L14.0833 43.2909
" />
<path d="M13.7500 43.7242
L13.7500 43.0242
" />
<path d="M13.4500 43.7242
L13.4500 43.3576
" />
<path d="M13.4500 43.3576
L13.4833 43.2909
" />
<path d="M13.4833 43.2909
L13.5500 43.2576
" />
<path d="M13.5500 43.2576
L13.6500 43.2576
" />
<path d="M13.6500 43.2576
L13.7167 43.2909
" />
<path d="M13.7167 43.2909
L13.7500 43.3242
" />
<path d="M12.6167 42.9909
L13.2167 43.8909
" />
<path d="M12.0833 43.7242
L12.0833 43.0242
" />
<path d="M12.0833 43.6909
L12.1500 43.7242
" />
<path d="M12.1500 43.7242
L12.2833 43.7242
" />
<path d="M12.2833 43.7242
L12.3500 43.6909
" />
<path d="M12.3500 43.6909
L12.3833 43.6576
" />
<path d="M12.3833 43.6576
L12.4167 43.5909
" />
<path d="M12.4167 43.5909
L12.4167 43.3909
" />
<path d="M12.4167 43.3909
L12.3833 43.3242
" />
<path d="M12.3833 43.3242
L12.3500 43.2909
" />
<path d="M12.3500 43.2909
L12.2833 43.2576
" />
<path d="M12.2833 43.2576
L12.1500 43.2576
" />
<path d="M12.1500 43.2576
L12.0833 43.2909
" />
<path d="M11.7500 43.7242
L11.7500 43.2576
" />
<path d="M11.7500 43.3909
L11.7167 43.3242
" />
<path d="M11.7167 43.3242
L11.6833 43.2909
" />
<path d="M11.6833 43.2909
L11.6167 43.2576
" />
<path d="M11.6167 43.2576
L11.5500 43.2576
" />
<path d="M11.3833 43.2576
L11.2167 43.7242
" />
<path d="M11.2167 43.7242
L11.0500 43.2576
" />
<path d="M10.6833 43.3242
L10.7500 43.2909
" />
<path d="M10.7500 43.2909
L10.7833 43.2576
" />
<path d="M10.7833 43.2576
L10.8167 43.1909
" />
<path d="M10.8167 43.1909
L10.8167 43.1576
" />
<path d="M10.8167 43.1576
L10.7833 43.0909
" />
<path d="M10.7833 43.0909
L10.7500 43.0576
" />
<path d="M10.7500 43.0576
L10.6833 43.0242
" />
<path d="M10.6833 43.0242
L10.5500 43.0242
" />
<path d="M10.5500 43.0242
L10.4833 43.0576
" />
<path d="M10.4833 43.0576
L10.4500 43.0909
" />
<path d="M10.4500 43.0909
L10.4167 43.1576
" />
<path d="M10.4167 43.1576
L10.4167 43.1909
" />
<path d="M10.4167 43.1909
L10.4500 43.2576
" />
<path d="M10.4500 43.2576
L10.4833 43.2909
" />
<path d="M10.4833 43.2909
L10.5500 43.3242
" />
<path d="M10.5500 43.3242
L10.6833 43.3242
" />
<path d="M10.6833 43.3242
L10.7500 43.3576
" />
<path d="M10.7500 43.3576
L10.7833 43.3909
" />
<path d="M10.7833 43.3909
L10.8167 43.4576
" />
<path d="M10.8167 43.4576
L10.8167 43.5909
" />
<path d="M10.8167 43.5909
L10.7833 43.6576
" />
<path d="M10.7833 43.6576
L10.7500 43.6909
" />
<path d="M10.7500 43.6909
L10.6833 43.7242
" />
<path d="M10.6833 43.7242
L10.5500 43.7242
" />
<path d="M10.5500 43.7242
L10.4833 43.6909
" />
<path d="M10.4833 43.6909
L10.4500 43.6576
" />
<path d="M10.4500 43.6576
L10.4167 43.5909
" />
<path d="M10.4167 43.5909
L10.4167 43.4576
" />
<path d="M10.4167 43.4576
L10.4500 43.3909
" />
<path d="M10.4500 43.3909
L10.4833 43.3576
" />
<path d="M10.4833 43.3576
L10.5500 43.3242
" />
<path d="M10.1833 43.0242
L9.7500 43.0242
" />
<path d="M9.7500 43.0242
L9.9833 43.2909
" />
<path d="M9.9833 43.2909
L9.8833 43.2909
" />
<path d="M9.8833 43.2909
L9.8167 43.3242
" />
<path d="M9.8167 43.3242
L9.7833 43.3576
" />
<path d="M9.7833 43.3576
L9.7500 43.4242
" />
<path d="M9.7500 43.4242
L9.7500 43.5909
" />
<path d="M9.7500 43.5909
L9.7833 43.6576
" />
<path d="M9.7833 43.6576
L9.8167 43.6909
" />
<path d="M9.8167 43.6909
L9.8833 43.7242
" />
<path d="M9.8833 43.7242
L10.0833 43.7242
" />
<path d="M10.0833 43.7242
L10.1500 43.6909
" />
<path d="M10.1500 43.6909
L10.1833 43.6576
" />
<path d="M9.0833 43.7242
L9.4833 43.7242
" />
<path d="M9.2833 43.7242
L9.2833 43.0242
" />
<path d="M9.2833 43.0242
L9.3500 43.1242
" />
<path d="M9.3500 43.1242
L9.4167 43.1909
" />
<path d="M9.4167 43.1909
L9.4833 43.2242
" />
<path d="M8.8500 43.0242
L8.4167 43.0242
" />
<path d="M8.4167 43.0242
L8.6500 43.2909
" />
<path d="M8.6500 43.2909
L8.5500 43.2909
" />
<path d="M8.5500 43.2909
L8.4833 43.3242
" />
<path d="M8.4833 43.3242
L8.4500 43.3576
" />
<path d="M8.4500 43.3576
L8.4167 43.4242
" />
<path d="M8.4167 43.4242
L8.4167 43.5909
" />
<path d="M8.4167 43.5909
L8.4500 43.6576
" />
<path d="M8.4500 43.6576
L8.4833 43.6909
" />
<path d="M8.4833 43.6909
L8.5500 43.7242
" />
<path d="M8.5500 43.7242
L8.7500 43.7242
" />
<path d="M8.7500 43.7242
L8.8167 43.6909
" />
<path d="M8.8167 43.6909
L8.8500 43.6576
" />
<path d="M8.1167 43.4576
L7.5833 43.4576
" />
<path d="M7.2500 43.7242
L7.2500 43.0242
" />
<path d="M7.2500 43.2909
L7.1833 43.2576
" />
<path d="M7.1833 43.2576
L7.0500 43.2576
" />
<path d="M7.0500 43.2576
L6.9833 43.2909
" />
<path d="M6.9833 43.2909
L6.9500 43.3242
" />
<path d="M6.9500 43.3242
L6.9167 43.3909
" />
<path d="M6.9167 43.3909
L6.9167 43.5909
" />
<path d="M6.9167 43.5909
L6.9500 43.6576
" />
<path d="M6.9500 43.6576
L6.9833 43.6909
" />
<path d="M6.9833 43.6909
L7.0500 43.7242
" />
<path d="M7.0500 43.7242
L7.1833 43.7242
" />
<path d="M7.1833 43.7242
L7.2500 43.6909
" />
<path d="M6.5167 43.7242
L6.5833 43.6909
" />
<path d="M6.5833 43.6909
L6.6167 43.6576
" />
<path d="M6.6167 43.6576
L6.6500 43.5909
" />
<path d="M6.6500 43.5909
L6.6500 43.3909
" />
<path d="M6.6500 43.3909
L6.6167 43.3242
" />
<path d="M6.6167 43.3242
L6.5833 43.2909
" />
<path d="M6.5833 43.2909
L6.5167 43.2576
" />
<path d="M6.5167 43.2576
L6.4167 43.2576
" />
<path d="M6.4167 43.2576
L6.3500 43.2909
" />
<path d="M6.3500 43.2909
L6.3167 43.3242
" />
<path d="M6.3167 43.3242
L6.2833 43.3909
" />
<path d="M6.2833 43.3909
L6.2833 43.5909
" />
<path d="M6.2833 43.5909
L6.3167 43.6576
" />
<path d="M6.3167 43.6576
L6.3500 43.6909
" />
<path d="M6.3500 43.6909
L6.4167 43.7242
" />
<path d="M6.4167 43.7242
L6.5167 43.7242
" />
<path d="M5.6833 43.7242
L5.6833 43.3576
" />
<path d="M5.6833 43.3576
L5.7167 43.2909
" />
<path d="M5.7167 43.2909
L5.7833 43.2576
" />
<path d="M5.7833 43.2576
L5.9167 43.2576
" />
<path d="M5.9167 43.2576
L5.9833 43.2909
" />
<path d="M5.6833 43.6909
L5.7500 43.7242
" />
<path d="M5.7500 43.7242
L5.9167 43.7242
" />
<path d="M5.9167 43.7242
L5.9833 43.6909
" />
<path d="M5.9833 43.6909
L6.0167 43.6242
" />
<path d="M6.0167 43.6242
L6.0167 43.5576
" />
<path d="M6.0167 43.5576
L5.9833 43.4909
" />
<path d="M5.9833 43.4909
L5.9167 43.4576
" />
<path d="M5.9167 43.4576
L5.7500 43.4576
" />
<path d="M5.7500 43.4576
L5.6833 43.4242
" />
<path d="M5.3500 43.7242
L5.3500 43.2576
" />
<path d="M5.3500 43.3909
L5.3167 43.3242
" />
<path d="M5.3167 43.3242
L5.2833 43.2909
" />
<path d="M5.2833 43.2909
L5.2167 43.2576
" />
<path d="M5.2167 43.2576
L5.1500 43.2576
" />
<path d="M4.6167 43.7242
L4.6167 43.0242
" />
<path d="M4.6167 43.6909
L4.6833 43.7242
" />
<path d="M4.6833 43.7242
L4.8167 43.7242
" />
<path d="M4.8167 43.7242
L4.8833 43.6909
" />
<path d="M4.8833 43.6909
L4.9167 43.6576
" />
<path d="M4.9167 43.6576
L4.9500 43.5909
" />
<path d="M4.9500 43.5909
L4.9500 43.3909
" />
<path d="M4.9500 43.3909
L4.9167 43.3242
" />
<path d="M4.9167 43.3242
L4.8833 43.2909
" />
<path d="M4.8833 43.2909
L4.8167 43.2576
" />
<path d="M4.8167 43.2576
L4.6833 43.2576
" />
<path d="M4.6833 43.2576
L4.6167 43.2909
" />
</g></g>
<g style="fill:none; 
stroke:#D0D2CD; stroke-width:0.1000; stroke-opacity:1; 
stroke-linecap:round; stroke-linejoin:round;">
<path d="M3.0000 0.0000 A3.0000 3.0000 0.0 0 0 0.0000 3.0000" />
<path d="M0.0000 47.0000
L0.0000 3.0000
" />
<path d="M3.0000 0.0000
L47.0000 0.0000
" />
<path d="M0.0000 47.0000 A3.0000 3.0000 0.0 0 0 3.0000 50.0000" />
<path d="M50.0000 3.0000 A3.0000 3.0000 0.0 0 0 47.0000 0.0000" />
<path d="M47.0000 50.0000
L3.0000 50.0000
" />
<path d="M50.0000 3.0000
L50.0000 47.0000
" />
<path d="M47.0000 50.0000 A3.0000 3.0000 0.0 0 0 50.0000 47.0000" />
</g>
<g style="fill:#FFFFFF; fill-opacity:1.0000; stroke:none;">
<circle cx="3.0000" cy="21.0000" r="0.1500" /> 
<circle cx="30.0000" cy="14.0000" r="0.1500" /> 
<circle cx="15.0000" cy="39.0000" r="0.1500" /> 
<circle cx="9.0000" cy="15.0000" r="0.1500" /> 
<circle cx="33.0000" cy="39.0000" r="0.1500" /> 
<circle cx="3.0000" cy="39.0000" r="0.1500" /> 
<circle cx="17.5000" cy="18.0000" r="0.1500" /> 
<circle cx="39.0000" cy="3.0000" r="0.1500" /> 
<circle cx="9.0000" cy="21.0000" r="0.1500" /> 
<circle cx="24.0000" cy="30.0000" r="0.1500" /> 
<circle cx="9.0000" cy="3.0000" r="0.1500" /> 
<circle cx="3.0000" cy="15.0000" r="0.1500" /> 
<circle cx="21.5000" cy="19.5000" r="0.1500" /> 
<circle cx="28.2250" cy="21.2000" r="0.1500" /> 
<circle cx="21.0000" cy="45.0000" r="0.1500" /> 
<circle cx="3.0000" cy="27.0000" r="0.1500" /> 
<circle cx="39.0000" cy="15.0000" r="0.1500" /> 
<circle cx="45.0000" cy="39.0000" r="0.1500" /> 
<circle cx="39.0000" cy="27.0000" r="0.1500" /> 
<circle cx="33.0000" cy="21.0000" r="0.1500" /> 
<circle cx="45.0000" cy="9.0000" r="0.1500" /> 
<circle cx="37.6500" cy="12.6500" r="0.1500" /> 
<circle cx="26.5000" cy="18.5000" r="0.1500" /> 
<circle cx="9.1000" cy="35.2000" r="0.1500" /> 
<circle cx="23.0000" cy="33.4625" r="0.1500" /> 
<circle cx="19.7750" cy="16.9000" r="0.1500" /> 
<circle cx="10.1000" cy="35.2000" r="0.1500" /> 
<circle cx="39.0000" cy="39.0000" r="0.1500" /> 
<circle cx="27.0000" cy="45.0000" r="0.1500" /> 
<circle cx="25.0000" cy="16.9000" r="0.1500" /> 
<circle cx="28.0000" cy="24.5000" r="0.1500" /> 
<circle cx="30.1491" cy="4.0000" r="0.1500" /> 
<circle cx="15.0000" cy="45.0000" r="0.1500" /> 
<circle cx="39.0000" cy="21.0000" r="0.1500" /> 
<circle cx="15.0000" cy="21.0000" r="0.1500" /> 
<circle cx="33.0000" cy="9.0000" r="0.1500" /> 
<circle cx="33.0000" cy="3.0000" r="0.1500" /> 
<circle cx="36.7000" cy="35.2000" r="0.1500" /> 
<circle cx="33.0000" cy="27.0000" r="0.1500" /> 
<circle cx="21.0000" cy="39.0000" r="0.1500" /> 
<circle cx="37.7000" cy="35.2000" r="0.1500" /> 
<circle cx="21.5000" cy="18.5000" r="0.1500" /> 
<circle cx="9.0000" cy="9.0000" r="0.1500" /> 
<circle cx="9.0000" cy="45.0000" r="0.1500" /> 
<circle cx="39.0000" cy="9.0000" r="0.1500" /> 
<circle cx="27.0000" cy="39.0000" r="0.1500" /> 
<circle cx="9.0000" cy="39.0000" r="0.1500" /> 
<circle cx="26.5000" cy="19.5000" r="0.1500" /> 
<circle cx="15.0000" cy="33.0000" r="0.1500" /> 
<circle cx="8.1000" cy="35.2000" r="0.1500" /> 
<circle cx="9.0000" cy="27.0000" r="0.1500" /> 
<circle cx="39.0000" cy="45.0000" r="0.1500" /> 
<circle cx="15.0000" cy="27.0000" r="0.1500" /> 
<circle cx="33.0000" cy="45.0000" r="0.1500" /> 
<circle cx="3.0000" cy="33.0000" r="0.1500" /> 
<circle cx="35.7000" cy="35.2000" r="0.1500" /> 
<circle cx="3.0000" cy="9.0000" r="0.1500" /> 
<circle cx="30.1000" cy="22.0000" r="0.1500" /> 
<circle cx="21.0450" cy="11.5068" r="0.1500" /> 
<circle cx="28.2250" cy="16.1344" r="0.1500" /> 
<circle cx="27.5450" cy="11.5068" r="0.1500" /> 
<circle cx="23.0450" cy="11.5068" r="0.1500" /> 
<circle cx="25.3450" cy="11.5068" r="0.1500" /> 
<circle cx="22.3749" cy="21.8659" r="0.1500" /> 
<circle cx="24.3251" cy="21.8659" r="0.1500" /> 
<circle cx="24.9751" cy="22.3659" r="0.1500" /> 
<circle cx="23.0000" cy="27.5375" r="0.1500" /> 
</g>
<g style="fill:#000000; fill-opacity:1.0000; stroke:none;">
<circle cx="4.0000" cy="46.0000" r="1.6000" /> 
<circle cx="46.0000" cy="46.0000" r="1.6000" /> 
<circle cx="4.0000" cy="4.0000" r="1.6000" /> 
</g>
<g style="fill:#FFFFFF; fill-opacity:1.0000; stroke:none;">
<circle cx="5.5000" cy="20.5000" r="0.6500" /> 
</g>
<g style="fill:#FFFFFF; fill-opacity:1.0000; stroke:none;">
<circle cx="5.5000" cy="25.5000" r="0.6500" /> 
</g>
<g style="fill:#FFFFFF; fill-opacity:1.0000; stroke:none;">
<circle cx="45.0000" cy="33.0000" r="0.6500" /> 
</g>
<g style="fill:#FFFFFF; fill-opacity:1.0000; stroke:none;">
<circle cx="45.0000" cy="28.0000" r="0.6500" /> 
</g>
<g style="fill:#FFFFFF; fill-opacity:1.0000; stroke:none;">
<circle cx="45.0000" cy="23.0000" r="0.6500" /> 
</g>
<g style="fill:#FFFFFF; fill-opacity:1.0000; stroke:none;">
<circle cx="45.0000" cy="18.0000" r="0.6500" /> 
</g>
<g style="fill:#FFFFFF; fill-opacity:1.0000; stroke:none;">
<circle cx="45.0000" cy="13.0000" r="0.6500" /> 
</g>
<g style="fill:#FFFFFF; fill-opacity:1.0000; stroke:none;">
<circle cx="22.5001" cy="18.5001" r="0.1500" /> 
</g>
<g style="fill:#FFFFFF; fill-opacity:1.0000; stroke:none;">
<circle cx="22.5001" cy="19.5001" r="0.1500" /> 
</g>
<g style="fill:#FFFFFF; fill-opacity:1.0000; stroke:none;">
<circle cx="23.5001" cy="18.5001" r="0.1500" /> 
</g>
<g style="fill:#FFFFFF; fill-opacity:1.0000; stroke:none;">
<circle cx="23.5001" cy="19.5001" r="0.1500" /> 
</g>
<g style="fill:#FFFFFF; fill-opacity:1.0000; stroke:none;">
<circle cx="24.5001" cy="18.5001" r="0.1500" /> 
</g>
<g style="fill:#FFFFFF; fill-opacity:1.0000; stroke:none;">
<circle cx="24.5001" cy="19.5001" r="0.1500" /> 
</g>
<g style="fill:#FFFFFF; fill-opacity:1.0000; stroke:none;">
<circle cx="25.5001" cy="18.5001" r="0.1500" /> 
</g>
<g style="fill:#FFFFFF; fill-opacity:1.0000; stroke:none;">
<circle cx="25.5001" cy="19.5001" r="0.1500" /> 
</g>
<g style="fill:#000000; fill-opacity:1.0000; stroke:none;">
<circle cx="46.0000" cy="4.0000" r="1.6000" /> 
</g>
<g style="fill:#FFFFFF; fill-opacity:1.0000; stroke:none;">
<circle cx="11.3400" cy="3.5000" r="0.5000" /> 
</g>
<g style="fill:#FFFFFF; fill-opacity:1.0000; stroke:none;">
<circle cx="11.3400" cy="6.0400" r="0.5000" /> 
</g>
<g style="fill:#FFFFFF; fill-opacity:1.0000; stroke:none;">
<circle cx="13.8800" cy="3.5000" r="0.5000" /> 
</g>
<g style="fill:#FFFFFF; fill-opacity:1.0000; stroke:none;">
<circle cx="13.8800" cy="6.0400" r="0.5000" /> 
</g>
<g style="fill:#FFFFFF; fill-opacity:1.0000; stroke:none;">
<circle cx="16.4200" cy="3.5000" r="0.5000" /> 
</g>
<g style="fill:#FFFFFF; fill-opacity:1.0000; stroke:none;">
<circle cx="16.4200" cy="6.0400" r="0.5000" /> 
</g>
<g style="fill:#FFFFFF; fill-opacity:1.0000; stroke:none;">
<circle cx="18.9600" cy="3.5000" r="0.5000" /> 
</g>
<g style="fill:#FFFFFF; fill-opacity:1.0000; stroke:none;">
<circle cx="18.9600" cy="6.0400" r="0.5000" /> 
</g>
<g style="fill:#FFFFFF; fill-opacity:1.0000; stroke:none;">
<circle cx="21.5000" cy="3.5000" r="0.5000" /> 
</g>
<g style="fill:#FFFFFF; fill-opacity:1.0000; stroke:none;">
<circle cx="21.5000" cy="6.0400" r="0.5000" /> 
</g>
<g style="fill:#FFFFFF; fill-opacity:1.0000; stroke:none;">
<circle cx="24.0400" cy="3.5000" r="0.5000" /> 
</g>
<g style="fill:#FFFFFF; fill-opacity:1.0000; stroke:none;">
<circle cx="24.0400" cy="6.0400" r="0.5000" /> 
</g>
<g style="fill:#FFFFFF; fill-opacity:1.0000; stroke:none;">
<circle cx="26.5800" cy="3.5000" r="0.5000" /> 
</g>
<g style="fill:#FFFFFF; fill-opacity:1.0000; stroke:none;">
<circle cx="26.5800" cy="6.0400" r="0.5000" /> 
</g> 
</svg>
