<?xml version="1.0" standalone="no"?>
 <!DOCTYPE svg PUBLIC "-//W3C//DTD SVG 1.1//EN" 
 "http://www.w3.org/Graphics/SVG/1.1/DTD/svg11.dtd"> 
<svg
  xmlns:svg="http://www.w3.org/2000/svg"
  xmlns="http://www.w3.org/2000/svg"
  xmlns:xlink="http://www.w3.org/1999/xlink"
  xmlns:inkscape="http://www.inkscape.org/namespaces/inkscape"
  version="1.1"
  width="49.9872mm" height="44.9834mm" viewBox="0.0000 0.0000 49.9872 44.9834">
<rect x="0.0000" y="0.0000" width="49.9872" height="44.9834" fill="#14161b" />
<title>SVG Image created as pcb-bottom.svg date 2026-06-18T12:43:21 </title>
  <desc>Image generated by PCBNEW </desc>
<g style="fill:#000000; fill-opacity:1.0000;stroke:#000000; stroke-opacity:1.0000;
stroke-linecap:round; stroke-linejoin:round;"
 transform="translate(0 0) scale(1 1)">
<path style="fill:#4D7FC4; fill-opacity:1.0000; stroke:none;fill-rule:evenodd;"
d="M 6.6500,18.1000
6.7457,18.1190
6.8268,18.1732
6.8810,18.2543
6.9000,18.3500
6.9000,20.6500
6.8810,20.7457
6.8268,20.8268
6.7457,20.8810
6.6500,20.9000
4.3500,20.9000
4.2543,20.8810
4.1732,20.8268
4.1190,20.7457
4.1000,20.6500
4.1000,18.3500
4.1190,18.2543
4.1732,18.1732
4.2543,18.1190
4.3500,18.1000
Z" /> 
</g>
<g style="fill:#4D7FC4; fill-opacity:1.0000; stroke:none;">
<circle cx="5.5000" cy="24.5000" r="1.4000" /> 
<path style="fill:#4D7FC4; fill-opacity:1.0000; stroke:none;fill-rule:evenodd;"
d="M 43.8500,33.9000
43.7543,33.8810
43.6732,33.8268
43.6190,33.7457
43.6000,33.6500
43.6000,31.3500
43.6190,31.2543
43.6732,31.1732
43.7543,31.1190
43.8500,31.1000
46.1500,31.1000
46.2457,31.1190
46.3268,31.1732
46.3810,31.2543
46.4000,31.3500
46.4000,33.6500
46.3810,33.7457
46.3268,33.8268
46.2457,33.8810
46.1500,33.9000
Z" /> 
<circle cx="45.0000" cy="27.5000" r="1.4000" /> 
<circle cx="45.0000" cy="22.5000" r="1.4000" /> 
<circle cx="45.0000" cy="17.5000" r="1.4000" /> 
<circle cx="45.0000" cy="12.5000" r="1.4000" /> 
<circle cx="19.5001" cy="21.5001" r="0.3000" /> 
<circle cx="19.5001" cy="22.5001" r="0.3000" /> 
<circle cx="20.5001" cy="21.5001" r="0.3000" /> 
<circle cx="20.5001" cy="22.5001" r="0.3000" /> 
<circle cx="21.5001" cy="21.5001" r="0.3000" /> 
<circle cx="21.5001" cy="22.5001" r="0.3000" /> 
<circle cx="22.5001" cy="21.5001" r="0.3000" /> 
<circle cx="22.5001" cy="22.5001" r="0.3000" /> 
<path style="fill:#4D7FC4; fill-opacity:1.0000; stroke:none;fill-rule:evenodd;"
d="M 12.2300,4.5800
10.5300,4.5800
10.5300,2.8800
12.2300,2.8800
Z" /> 
<circle cx="11.3800" cy="6.2700" r="0.8500" /> 
<circle cx="13.9200" cy="3.7300" r="0.8500" /> 
<circle cx="13.9200" cy="6.2700" r="0.8500" /> 
<circle cx="16.4600" cy="3.7300" r="0.8500" /> 
<circle cx="16.4600" cy="6.2700" r="0.8500" /> 
<circle cx="19.0000" cy="3.7300" r="0.8500" /> 
<circle cx="19.0000" cy="6.2700" r="0.8500" /> 
<circle cx="21.5400" cy="3.7300" r="0.8500" /> 
<circle cx="21.5400" cy="6.2700" r="0.8500" /> 
<circle cx="24.0800" cy="3.7300" r="0.8500" /> 
<circle cx="24.0800" cy="6.2700" r="0.8500" /> 
<circle cx="26.6200" cy="3.7300" r="0.8500" /> 
<circle cx="26.6200" cy="6.2700" r="0.8500" /> 
<circle cx="27.4500" cy="17.7500" r="0.2000" /> 
<circle cx="25.8500" cy="19.3500" r="0.2000" /> 
<circle cx="27.6000" cy="30.1500" r="0.2000" /> 
<circle cx="27.6000" cy="23.6500" r="0.2000" /> 
<circle cx="21.9751" cy="19.1344" r="0.2500" /> 
<circle cx="28.0000" cy="37.3500" r="0.2000" /> 
<circle cx="28.0000" cy="12.8509" r="0.2500" /> 
<circle cx="13.0000" cy="28.7000" r="0.2500" /> 
<circle cx="21.0000" cy="22.0000" r="0.2500" /> 
<circle cx="34.6000" cy="25.0000" r="0.3000" /> 
<circle cx="16.6000" cy="19.1000" r="0.2500" /> 
<circle cx="34.6000" cy="5.3000" r="0.3000" /> 
<circle cx="9.6700" cy="13.0000" r="0.2500" /> 
<circle cx="30.8000" cy="41.5000" r="0.2000" /> 
<circle cx="14.6700" cy="38.0000" r="0.2500" /> 
<circle cx="22.9625" cy="35.0000" r="0.2500" /> 
<circle cx="25.2500" cy="24.1000" r="0.2500" /> 
<circle cx="25.5000" cy="37.2470" r="0.2000" /> 
<circle cx="17.8000" cy="9.7500" r="0.2500" /> 
<circle cx="25.4000" cy="13.0500" r="0.2500" /> 
<circle cx="15.3500" cy="22.8000" r="0.2500" /> 
<circle cx="20.2000" cy="12.9500" r="0.2500" /> 
<circle cx="22.6000" cy="12.9000" r="0.2500" /> 
<circle cx="24.1500" cy="12.9000" r="0.2500" /> 
<circle cx="15.0000" cy="29.9500" r="0.2500" /> 
<circle cx="16.2500" cy="31.2000" r="0.2500" /> 
<circle cx="24.6000" cy="20.5500" r="0.2500" /> 
<circle cx="25.5000" cy="41.4470" r="0.2000" /> 
<circle cx="23.2800" cy="29.4500" r="0.2000" /> 
<circle cx="18.7000" cy="24.8500" r="0.2000" /> 
<circle cx="18.7000" cy="26.0500" r="0.2000" /> 
<circle cx="23.2800" cy="25.5000" r="0.2000" /> 
<circle cx="18.0500" cy="25.5000" r="0.2500" /> 
<circle cx="17.7000" cy="27.1000" r="0.2500" /> 
<circle cx="21.1000" cy="17.5000" r="0.2500" /> 
<circle cx="19.2500" cy="15.6500" r="0.2500" /> 
<circle cx="18.4000" cy="12.1500" r="0.2500" /> 
<circle cx="28.5000" cy="26.7000" r="0.3000" /> 
<circle cx="28.5000" cy="24.8500" r="0.3000" /> 
<circle cx="35.2000" cy="17.5000" r="0.2500" /> 
<circle cx="22.0500" cy="23.8500" r="0.2500" /> 
<circle cx="28.3000" cy="21.4000" r="0.2500" /> 
<circle cx="37.2000" cy="17.5000" r="0.2500" /> 
<circle cx="16.1000" cy="21.1500" r="0.2000" /> 
<circle cx="15.3500" cy="23.6500" r="0.2000" /> 
<circle cx="15.6500" cy="20.7000" r="0.2000" /> 
<circle cx="14.9000" cy="24.1000" r="0.2000" /> 
<circle cx="26.8500" cy="22.9000" r="0.2500" /> 
<circle cx="17.0500" cy="30.4000" r="0.2500" /> 
<circle cx="23.9500" cy="24.8500" r="0.2500" /> 
<circle cx="20.7000" cy="24.6000" r="0.2500" /> 
<circle cx="28.0500" cy="6.9500" r="0.2500" /> 
<circle cx="19.9500" cy="23.8500" r="0.2500" /> 
<circle cx="22.6500" cy="24.8500" r="0.2500" /> 
<circle cx="24.1500" cy="11.4000" r="0.2500" /> 
<circle cx="24.9500" cy="12.4500" r="0.2500" /> 
<circle cx="23.2000" cy="15.3000" r="0.2500" /> 
<circle cx="24.0500" cy="14.4500" r="0.2500" /> 
<circle cx="16.6500" cy="11.2500" r="0.2500" /> 
<circle cx="20.4500" cy="13.7000" r="0.2500" /> 
<circle cx="16.0000" cy="14.1000" r="0.2500" /> 
<circle cx="16.0000" cy="10.3500" r="0.2500" /> 
<circle cx="16.1000" cy="15.3000" r="0.2000" /> 
<circle cx="12.9000" cy="11.4000" r="0.2000" /> 
</g>
<g style="fill:none; 
stroke:#4D7FC4; stroke-width:0.2000; stroke-opacity:1; 
stroke-linecap:round; stroke-linejoin:round;">
<path d="M27.6000 23.6500
L27.6000 30.1500
" />
<path d="M25.8500 19.3500
L27.4500 17.7500
" />
<path d="M21.0500 13.9500
L20.3000 14.7000
" />
<path d="M20.3000 14.7000
L15.7500 14.7000
" />
<path d="M24.1500 12.9000
L22.6000 12.9000
" />
<path d="M15.2500 10.1000
L11.4000 6.2500
" />
<path d="M15.4000 14.3500
L15.4000 10.1000
" />
<path d="M17.6000 20.5500
L15.3500 22.8000
" />
<path d="M25.4000 13.0500
L24.7500 13.0500
" />
<path d="M22.6000 12.9000
L22.5500 12.9500
" />
<path d="M11.4000 6.2500
L11.3800 6.2700
" />
<path d="M15.0000 29.9500
L16.2500 31.2000
" />
<path d="M21.0500 12.9500
L21.0500 13.9500
" />
<path d="M15.7500 9.7500
L17.8000 9.7500
" />
<path d="M24.6000 20.5500
L17.6000 20.5500
" />
<path d="M25.5000 37.2470
L25.5000 41.4470
" />
<path d="M24.7500 13.0500
L24.6000 12.9000
" />
<path d="M15.7500 14.7000
L15.4000 14.3500
" />
<path d="M15.4000 10.1000
L15.7500 9.7500
" />
<path d="M22.5500 12.9500
L20.2000 12.9500
" />
<path d="M24.6000 12.9000
L24.1500 12.9000
" />
<path d="M15.4000 10.1000
L15.2500 10.1000
" />
</g>
<g style="fill:none; 
stroke:#4D7FC4; stroke-width:0.5000; stroke-opacity:1; 
stroke-linecap:round; stroke-linejoin:round;">
<path d="M18.7000 24.8500
L18.7000 24.9500
" />
<path d="M23.2800 25.5000
L23.2800 29.4500
" />
<path d="M18.8500 25.1000
L18.8500 25.9000
" />
<path d="M18.8500 25.9000
L18.7000 26.0500
" />
<path d="M18.7000 24.9500
L18.8500 25.1000
" />
</g>
<g style="fill:none; 
stroke:#4D7FC4; stroke-width:0.2000; stroke-opacity:1; 
stroke-linecap:round; stroke-linejoin:round;">
<path d="M17.7000 27.1000
L18.0500 26.7500
" />
<path d="M18.0500 26.7500
L18.0500 25.5000
" />
<path d="M18.4000 12.1500
L18.4000 11.9500
" />
<path d="M18.4000 11.9500
L24.1000 6.2500
" />
<path d="M24.1000 6.2500
L24.0800 6.2700
" />
<path d="M19.2500 15.6500
L21.1000 17.5000
" />
</g>
<g style="fill:none; 
stroke:#4D7FC4; stroke-width:0.6000; stroke-opacity:1; 
stroke-linecap:round; stroke-linejoin:round;">
<path d="M28.5000 26.7000
L44.0000 27.5000
" />
<path d="M44.0000 27.5000
L45.0000 27.5000
" />
<path d="M28.5000 24.8500
L43.0000 22.5000
" />
<path d="M43.0000 22.5000
L45.0000 22.5000
" />
</g>
<g style="fill:none; 
stroke:#4D7FC4; stroke-width:0.2000; stroke-opacity:1; 
stroke-linecap:round; stroke-linejoin:round;">
<path d="M23.1500 22.7500
L23.0751 22.8249
" />
</g>
<g style="fill:none; 
stroke:#4D7FC4; stroke-width:0.6000; stroke-opacity:1; 
stroke-linecap:round; stroke-linejoin:round;">
<path d="M25.4000 22.8000
L25.8000 22.4000
" />
</g>
<g style="fill:none; 
stroke:#4D7FC4; stroke-width:0.2000; stroke-opacity:1; 
stroke-linecap:round; stroke-linejoin:round;">
<path d="M26.0000 23.4000
L25.3500 22.7500
" />
</g>
<g style="fill:none; 
stroke:#4D7FC4; stroke-width:0.6000; stroke-opacity:1; 
stroke-linecap:round; stroke-linejoin:round;">
<path d="M25.3500 22.7500
L25.4000 22.8000
" />
<path d="M35.2000 17.5000
L37.2000 17.5000
" />
<path d="M25.8000 22.4000
L25.8000 22.0000
" />
</g>
<g style="fill:none; 
stroke:#4D7FC4; stroke-width:0.2000; stroke-opacity:1; 
stroke-linecap:round; stroke-linejoin:round;">
<path d="M25.3500 22.7500
L23.1500 22.7500
" />
</g>
<g style="fill:none; 
stroke:#4D7FC4; stroke-width:0.6000; stroke-opacity:1; 
stroke-linecap:round; stroke-linejoin:round;">
<path d="M26.4000 21.4000
L28.3000 21.4000
" />
</g>
<g style="fill:none; 
stroke:#4D7FC4; stroke-width:0.2000; stroke-opacity:1; 
stroke-linecap:round; stroke-linejoin:round;">
<path d="M23.0751 22.8249
L22.0500 23.8500
" />
</g>
<g style="fill:none; 
stroke:#4D7FC4; stroke-width:0.6000; stroke-opacity:1; 
stroke-linecap:round; stroke-linejoin:round;">
<path d="M25.8000 22.0000
L26.4000 21.4000
" />
</g>
<g style="fill:none; 
stroke:#4D7FC4; stroke-width:0.2000; stroke-opacity:1; 
stroke-linecap:round; stroke-linejoin:round;">
<path d="M14.7500 23.0500
L15.3500 23.6500
" />
<path d="M16.1000 21.1500
L14.7500 22.5000
" />
<path d="M14.7500 22.5000
L14.7500 23.0500
" />
<path d="M14.3000 23.5000
L14.9000 24.1000
" />
<path d="M15.6500 20.7000
L14.3000 22.0500
" />
<path d="M14.3000 22.0500
L14.3000 23.5000
" />
<path d="M18.8500 22.7500
L16.6500 22.7500
" />
</g>
<g style="fill:none; 
stroke:#4D7FC4; stroke-width:0.3000; stroke-opacity:1; 
stroke-linecap:round; stroke-linejoin:round;">
<path d="M23.9500 24.8500
L22.6500 24.8500
" />
</g>
<g style="fill:none; 
stroke:#4D7FC4; stroke-width:0.6000; stroke-opacity:1; 
stroke-linecap:round; stroke-linejoin:round;">
<path d="M26.6000 3.7500
L26.6200 3.7300
" />
</g>
<g style="fill:none; 
stroke:#4D7FC4; stroke-width:0.2000; stroke-opacity:1; 
stroke-linecap:round; stroke-linejoin:round;">
<path d="M22.6500 24.8500
L22.4000 24.6000
" />
<path d="M16.6000 22.8000
L16.6000 29.9500
" />
<path d="M16.6000 29.9500
L17.0500 30.4000
" />
<path d="M22.1393 24.6000
L20.7000 24.6000
" />
</g>
<g style="fill:none; 
stroke:#4D7FC4; stroke-width:0.6000; stroke-opacity:1; 
stroke-linecap:round; stroke-linejoin:round;">
<path d="M26.8500 23.9000
L26.8500 22.9000
" />
<path d="M28.0500 6.9500
L28.0500 5.2000
" />
</g>
<g style="fill:none; 
stroke:#4D7FC4; stroke-width:0.2000; stroke-opacity:1; 
stroke-linecap:round; stroke-linejoin:round;">
<path d="M16.6500 22.7500
L16.6000 22.8000
" />
</g>
<g style="fill:none; 
stroke:#4D7FC4; stroke-width:0.6000; stroke-opacity:1; 
stroke-linecap:round; stroke-linejoin:round;">
<path d="M23.9500 24.8500
L25.9000 24.8500
" />
</g>
<g style="fill:none; 
stroke:#4D7FC4; stroke-width:0.2000; stroke-opacity:1; 
stroke-linecap:round; stroke-linejoin:round;">
<path d="M19.9500 23.8500
L18.8500 22.7500
" />
<path d="M22.4000 24.6000
L22.1393 24.6000
" />
</g>
<g style="fill:none; 
stroke:#4D7FC4; stroke-width:0.6000; stroke-opacity:1; 
stroke-linecap:round; stroke-linejoin:round;">
<path d="M28.0500 5.2000
L26.6000 3.7500
" />
<path d="M25.9000 24.8500
L26.8500 23.9000
" />
</g>
<g style="fill:none; 
stroke:#4D7FC4; stroke-width:0.2000; stroke-opacity:1; 
stroke-linecap:round; stroke-linejoin:round;">
<path d="M24.1500 11.6500
L24.9500 12.4500
" />
<path d="M24.1500 11.4000
L24.1500 11.6500
" />
<path d="M24.0500 14.4500
L23.2000 15.3000
" />
<path d="M19.1000 13.7000
L16.6500 11.2500
" />
<path d="M20.4500 13.7000
L19.1000 13.7000
" />
<path d="M16.0000 14.1000
L16.0000 10.3500
" />
<path d="M12.9000 12.8000
L12.9000 11.4000
" />
<path d="M15.4000 15.3000
L12.9000 12.8000
" />
<path d="M16.1000 15.3000
L15.4000 15.3000
" />
</g>
<g style="fill:none; 
stroke:#E8B2A7; stroke-width:0.1750; stroke-opacity:1; 
stroke-linecap:round; stroke-linejoin:round;">
<text x="15.0000" y="43.7000"
transform="scale(-1 1) translate(-30.000000 0)"
textLength="21.4850" font-size="0.9333" lengthAdjust="spacingAndGlyphs"
text-anchor="middle" opacity="0" stroke-opacity="0">github.com/kaydensigh/drv8313-board</text>
<g class="stroked-text"><desc>github.com/kaydensigh/drv8313-board</desc>
<path d="M25.0833 43.2576
L25.0833 43.8242
" />
<path d="M25.0833 43.8242
L25.1167 43.8909
" />
<path d="M25.1167 43.8909
L25.1500 43.9242
" />
<path d="M25.1500 43.9242
L25.2167 43.9576
" />
<path d="M25.2167 43.9576
L25.3167 43.9576
" />
<path d="M25.3167 43.9576
L25.3833 43.9242
" />
<path d="M25.0833 43.6909
L25.1500 43.7242
" />
<path d="M25.1500 43.7242
L25.2833 43.7242
" />
<path d="M25.2833 43.7242
L25.3500 43.6909
" />
<path d="M25.3500 43.6909
L25.3833 43.6576
" />
<path d="M25.3833 43.6576
L25.4167 43.5909
" />
<path d="M25.4167 43.5909
L25.4167 43.3909
" />
<path d="M25.4167 43.3909
L25.3833 43.3242
" />
<path d="M25.3833 43.3242
L25.3500 43.2909
" />
<path d="M25.3500 43.2909
L25.2833 43.2576
" />
<path d="M25.2833 43.2576
L25.1500 43.2576
" />
<path d="M25.1500 43.2576
L25.0833 43.2909
" />
<path d="M24.7500 43.7242
L24.7500 43.2576
" />
<path d="M24.7500 43.0242
L24.7833 43.0576
" />
<path d="M24.7833 43.0576
L24.7500 43.0909
" />
<path d="M24.7500 43.0909
L24.7167 43.0576
" />
<path d="M24.7167 43.0576
L24.7500 43.0242
" />
<path d="M24.7500 43.0242
L24.7500 43.0909
" />
<path d="M24.5167 43.2576
L24.2500 43.2576
" />
<path d="M24.4167 43.0242
L24.4167 43.6242
" />
<path d="M24.4167 43.6242
L24.3833 43.6909
" />
<path d="M24.3833 43.6909
L24.3167 43.7242
" />
<path d="M24.3167 43.7242
L24.2500 43.7242
" />
<path d="M24.0167 43.7242
L24.0167 43.0242
" />
<path d="M23.7167 43.7242
L23.7167 43.3576
" />
<path d="M23.7167 43.3576
L23.7500 43.2909
" />
<path d="M23.7500 43.2909
L23.8167 43.2576
" />
<path d="M23.8167 43.2576
L23.9167 43.2576
" />
<path d="M23.9167 43.2576
L23.9833 43.2909
" />
<path d="M23.9833 43.2909
L24.0167 43.3242
" />
<path d="M23.0833 43.2576
L23.0833 43.7242
" />
<path d="M23.3833 43.2576
L23.3833 43.6242
" />
<path d="M23.3833 43.6242
L23.3500 43.6909
" />
<path d="M23.3500 43.6909
L23.2833 43.7242
" />
<path d="M23.2833 43.7242
L23.1833 43.7242
" />
<path d="M23.1833 43.7242
L23.1167 43.6909
" />
<path d="M23.1167 43.6909
L23.0833 43.6576
" />
<path d="M22.7500 43.7242
L22.7500 43.0242
" />
<path d="M22.7500 43.2909
L22.6833 43.2576
" />
<path d="M22.6833 43.2576
L22.5500 43.2576
" />
<path d="M22.5500 43.2576
L22.4833 43.2909
" />
<path d="M22.4833 43.2909
L22.4500 43.3242
" />
<path d="M22.4500 43.3242
L22.4167 43.3909
" />
<path d="M22.4167 43.3909
L22.4167 43.5909
" />
<path d="M22.4167 43.5909
L22.4500 43.6576
" />
<path d="M22.4500 43.6576
L22.4833 43.6909
" />
<path d="M22.4833 43.6909
L22.5500 43.7242
" />
<path d="M22.5500 43.7242
L22.6833 43.7242
" />
<path d="M22.6833 43.7242
L22.7500 43.6909
" />
<path d="M22.1167 43.6576
L22.0833 43.6909
" />
<path d="M22.0833 43.6909
L22.1167 43.7242
" />
<path d="M22.1167 43.7242
L22.1500 43.6909
" />
<path d="M22.1500 43.6909
L22.1167 43.6576
" />
<path d="M22.1167 43.6576
L22.1167 43.7242
" />
<path d="M21.4833 43.6909
L21.5500 43.7242
" />
<path d="M21.5500 43.7242
L21.6833 43.7242
" />
<path d="M21.6833 43.7242
L21.7500 43.6909
" />
<path d="M21.7500 43.6909
L21.7833 43.6576
" />
<path d="M21.7833 43.6576
L21.8167 43.5909
" />
<path d="M21.8167 43.5909
L21.8167 43.3909
" />
<path d="M21.8167 43.3909
L21.7833 43.3242
" />
<path d="M21.7833 43.3242
L21.7500 43.2909
" />
<path d="M21.7500 43.2909
L21.6833 43.2576
" />
<path d="M21.6833 43.2576
L21.5500 43.2576
" />
<path d="M21.5500 43.2576
L21.4833 43.2909
" />
<path d="M21.0833 43.7242
L21.1500 43.6909
" />
<path d="M21.1500 43.6909
L21.1833 43.6576
" />
<path d="M21.1833 43.6576
L21.2167 43.5909
" />
<path d="M21.2167 43.5909
L21.2167 43.3909
" />
<path d="M21.2167 43.3909
L21.1833 43.3242
" />
<path d="M21.1833 43.3242
L21.1500 43.2909
" />
<path d="M21.1500 43.2909
L21.0833 43.2576
" />
<path d="M21.0833 43.2576
L20.9833 43.2576
" />
<path d="M20.9833 43.2576
L20.9167 43.2909
" />
<path d="M20.9167 43.2909
L20.8833 43.3242
" />
<path d="M20.8833 43.3242
L20.8500 43.3909
" />
<path d="M20.8500 43.3909
L20.8500 43.5909
" />
<path d="M20.8500 43.5909
L20.8833 43.6576
" />
<path d="M20.8833 43.6576
L20.9167 43.6909
" />
<path d="M20.9167 43.6909
L20.9833 43.7242
" />
<path d="M20.9833 43.7242
L21.0833 43.7242
" />
<path d="M20.5500 43.7242
L20.5500 43.2576
" />
<path d="M20.5500 43.3242
L20.5167 43.2909
" />
<path d="M20.5167 43.2909
L20.4500 43.2576
" />
<path d="M20.4500 43.2576
L20.3500 43.2576
" />
<path d="M20.3500 43.2576
L20.2833 43.2909
" />
<path d="M20.2833 43.2909
L20.2500 43.3576
" />
<path d="M20.2500 43.3576
L20.2500 43.7242
" />
<path d="M20.2500 43.3576
L20.2167 43.2909
" />
<path d="M20.2167 43.2909
L20.1500 43.2576
" />
<path d="M20.1500 43.2576
L20.0500 43.2576
" />
<path d="M20.0500 43.2576
L19.9833 43.2909
" />
<path d="M19.9833 43.2909
L19.9500 43.3576
" />
<path d="M19.9500 43.3576
L19.9500 43.7242
" />
<path d="M19.1167 42.9909
L19.7167 43.8909
" />
<path d="M18.8833 43.7242
L18.8833 43.0242
" />
<path d="M18.8167 43.4576
L18.6167 43.7242
" />
<path d="M18.6167 43.2576
L18.8833 43.5242
" />
<path d="M18.0167 43.7242
L18.0167 43.3576
" />
<path d="M18.0167 43.3576
L18.0500 43.2909
" />
<path d="M18.0500 43.2909
L18.1167 43.2576
" />
<path d="M18.1167 43.2576
L18.2500 43.2576
" />
<path d="M18.2500 43.2576
L18.3167 43.2909
" />
<path d="M18.0167 43.6909
L18.0833 43.7242
" />
<path d="M18.0833 43.7242
L18.2500 43.7242
" />
<path d="M18.2500 43.7242
L18.3167 43.6909
" />
<path d="M18.3167 43.6909
L18.3500 43.6242
" />
<path d="M18.3500 43.6242
L18.3500 43.5576
" />
<path d="M18.3500 43.5576
L18.3167 43.4909
" />
<path d="M18.3167 43.4909
L18.2500 43.4576
" />
<path d="M18.2500 43.4576
L18.0833 43.4576
" />
<path d="M18.0833 43.4576
L18.0167 43.4242
" />
<path d="M17.7500 43.2576
L17.5833 43.7242
" />
<path d="M17.4167 43.2576
L17.5833 43.7242
" />
<path d="M17.5833 43.7242
L17.6500 43.8909
" />
<path d="M17.6500 43.8909
L17.6833 43.9242
" />
<path d="M17.6833 43.9242
L17.7500 43.9576
" />
<path d="M16.8500 43.7242
L16.8500 43.0242
" />
<path d="M16.8500 43.6909
L16.9167 43.7242
" />
<path d="M16.9167 43.7242
L17.0500 43.7242
" />
<path d="M17.0500 43.7242
L17.1167 43.6909
" />
<path d="M17.1167 43.6909
L17.1500 43.6576
" />
<path d="M17.1500 43.6576
L17.1833 43.5909
" />
<path d="M17.1833 43.5909
L17.1833 43.3909
" />
<path d="M17.1833 43.3909
L17.1500 43.3242
" />
<path d="M17.1500 43.3242
L17.1167 43.2909
" />
<path d="M17.1167 43.2909
L17.0500 43.2576
" />
<path d="M17.0500 43.2576
L16.9167 43.2576
" />
<path d="M16.9167 43.2576
L16.8500 43.2909
" />
<path d="M16.2500 43.6909
L16.3167 43.7242
" />
<path d="M16.3167 43.7242
L16.4500 43.7242
" />
<path d="M16.4500 43.7242
L16.5167 43.6909
" />
<path d="M16.5167 43.6909
L16.5500 43.6242
" />
<path d="M16.5500 43.6242
L16.5500 43.3576
" />
<path d="M16.5500 43.3576
L16.5167 43.2909
" />
<path d="M16.5167 43.2909
L16.4500 43.2576
" />
<path d="M16.4500 43.2576
L16.3167 43.2576
" />
<path d="M16.3167 43.2576
L16.2500 43.2909
" />
<path d="M16.2500 43.2909
L16.2167 43.3576
" />
<path d="M16.2167 43.3576
L16.2167 43.4242
" />
<path d="M16.2167 43.4242
L16.5500 43.4909
" />
<path d="M15.9167 43.2576
L15.9167 43.7242
" />
<path d="M15.9167 43.3242
L15.8833 43.2909
" />
<path d="M15.8833 43.2909
L15.8167 43.2576
" />
<path d="M15.8167 43.2576
L15.7167 43.2576
" />
<path d="M15.7167 43.2576
L15.6500 43.2909
" />
<path d="M15.6500 43.2909
L15.6167 43.3576
" />
<path d="M15.6167 43.3576
L15.6167 43.7242
" />
<path d="M15.3167 43.6909
L15.2500 43.7242
" />
<path d="M15.2500 43.7242
L15.1167 43.7242
" />
<path d="M15.1167 43.7242
L15.0500 43.6909
" />
<path d="M15.0500 43.6909
L15.0167 43.6242
" />
<path d="M15.0167 43.6242
L15.0167 43.5909
" />
<path d="M15.0167 43.5909
L15.0500 43.5242
" />
<path d="M15.0500 43.5242
L15.1167 43.4909
" />
<path d="M15.1167 43.4909
L15.2167 43.4909
" />
<path d="M15.2167 43.4909
L15.2833 43.4576
" />
<path d="M15.2833 43.4576
L15.3167 43.3909
" />
<path d="M15.3167 43.3909
L15.3167 43.3576
" />
<path d="M15.3167 43.3576
L15.2833 43.2909
" />
<path d="M15.2833 43.2909
L15.2167 43.2576
" />
<path d="M15.2167 43.2576
L15.1167 43.2576
" />
<path d="M15.1167 43.2576
L15.0500 43.2909
" />
<path d="M14.7167 43.7242
L14.7167 43.2576
" />
<path d="M14.7167 43.0242
L14.7500 43.0576
" />
<path d="M14.7500 43.0576
L14.7167 43.0909
" />
<path d="M14.7167 43.0909
L14.6833 43.0576
" />
<path d="M14.6833 43.0576
L14.7167 43.0242
" />
<path d="M14.7167 43.0242
L14.7167 43.0909
" />
<path d="M14.0833 43.2576
L14.0833 43.8242
" />
<path d="M14.0833 43.8242
L14.1167 43.8909
" />
<path d="M14.1167 43.8909
L14.1500 43.9242
" />
<path d="M14.1500 43.9242
L14.2167 43.9576
" />
<path d="M14.2167 43.9576
L14.3167 43.9576
" />
<path d="M14.3167 43.9576
L14.3833 43.9242
" />
<path d="M14.0833 43.6909
L14.1500 43.7242
" />
<path d="M14.1500 43.7242
L14.2833 43.7242
" />
<path d="M14.2833 43.7242
L14.3500 43.6909
" />
<path d="M14.3500 43.6909
L14.3833 43.6576
" />
<path d="M14.3833 43.6576
L14.4167 43.5909
" />
<path d="M14.4167 43.5909
L14.4167 43.3909
" />
<path d="M14.4167 43.3909
L14.3833 43.3242
" />
<path d="M14.3833 43.3242
L14.3500 43.2909
" />
<path d="M14.3500 43.2909
L14.2833 43.2576
" />
<path d="M14.2833 43.2576
L14.1500 43.2576
" />
<path d="M14.1500 43.2576
L14.0833 43.2909
" />
<path d="M13.7500 43.7242
L13.7500 43.0242
" />
<path d="M13.4500 43.7242
L13.4500 43.3576
" />
<path d="M13.4500 43.3576
L13.4833 43.2909
" />
<path d="M13.4833 43.2909
L13.5500 43.2576
" />
<path d="M13.5500 43.2576
L13.6500 43.2576
" />
<path d="M13.6500 43.2576
L13.7167 43.2909
" />
<path d="M13.7167 43.2909
L13.7500 43.3242
" />
<path d="M12.6167 42.9909
L13.2167 43.8909
" />
<path d="M12.0833 43.7242
L12.0833 43.0242
" />
<path d="M12.0833 43.6909
L12.1500 43.7242
" />
<path d="M12.1500 43.7242
L12.2833 43.7242
" />
<path d="M12.2833 43.7242
L12.3500 43.6909
" />
<path d="M12.3500 43.6909
L12.3833 43.6576
" />
<path d="M12.3833 43.6576
L12.4167 43.5909
" />
<path d="M12.4167 43.5909
L12.4167 43.3909
" />
<path d="M12.4167 43.3909
L12.3833 43.3242
" />
<path d="M12.3833 43.3242
L12.3500 43.2909
" />
<path d="M12.3500 43.2909
L12.2833 43.2576
" />
<path d="M12.2833 43.2576
L12.1500 43.2576
" />
<path d="M12.1500 43.2576
L12.0833 43.2909
" />
<path d="M11.7500 43.7242
L11.7500 43.2576
" />
<path d="M11.7500 43.3909
L11.7167 43.3242
" />
<path d="M11.7167 43.3242
L11.6833 43.2909
" />
<path d="M11.6833 43.2909
L11.6167 43.2576
" />
<path d="M11.6167 43.2576
L11.5500 43.2576
" />
<path d="M11.3833 43.2576
L11.2167 43.7242
" />
<path d="M11.2167 43.7242
L11.0500 43.2576
" />
<path d="M10.6833 43.3242
L10.7500 43.2909
" />
<path d="M10.7500 43.2909
L10.7833 43.2576
" />
<path d="M10.7833 43.2576
L10.8167 43.1909
" />
<path d="M10.8167 43.1909
L10.8167 43.1576
" />
<path d="M10.8167 43.1576
L10.7833 43.0909
" />
<path d="M10.7833 43.0909
L10.7500 43.0576
" />
<path d="M10.7500 43.0576
L10.6833 43.0242
" />
<path d="M10.6833 43.0242
L10.5500 43.0242
" />
<path d="M10.5500 43.0242
L10.4833 43.0576
" />
<path d="M10.4833 43.0576
L10.4500 43.0909
" />
<path d="M10.4500 43.0909
L10.4167 43.1576
" />
<path d="M10.4167 43.1576
L10.4167 43.1909
" />
<path d="M10.4167 43.1909
L10.4500 43.2576
" />
<path d="M10.4500 43.2576
L10.4833 43.2909
" />
<path d="M10.4833 43.2909
L10.5500 43.3242
" />
<path d="M10.5500 43.3242
L10.6833 43.3242
" />
<path d="M10.6833 43.3242
L10.7500 43.3576
" />
<path d="M10.7500 43.3576
L10.7833 43.3909
" />
<path d="M10.7833 43.3909
L10.8167 43.4576
" />
<path d="M10.8167 43.4576
L10.8167 43.5909
" />
<path d="M10.8167 43.5909
L10.7833 43.6576
" />
<path d="M10.7833 43.6576
L10.7500 43.6909
" />
<path d="M10.7500 43.6909
L10.6833 43.7242
" />
<path d="M10.6833 43.7242
L10.5500 43.7242
" />
<path d="M10.5500 43.7242
L10.4833 43.6909
" />
<path d="M10.4833 43.6909
L10.4500 43.6576
" />
<path d="M10.4500 43.6576
L10.4167 43.5909
" />
<path d="M10.4167 43.5909
L10.4167 43.4576
" />
<path d="M10.4167 43.4576
L10.4500 43.3909
" />
<path d="M10.4500 43.3909
L10.4833 43.3576
" />
<path d="M10.4833 43.3576
L10.5500 43.3242
" />
<path d="M10.1833 43.0242
L9.7500 43.0242
" />
<path d="M9.7500 43.0242
L9.9833 43.2909
" />
<path d="M9.9833 43.2909
L9.8833 43.2909
" />
<path d="M9.8833 43.2909
L9.8167 43.3242
" />
<path d="M9.8167 43.3242
L9.7833 43.3576
" />
<path d="M9.7833 43.3576
L9.7500 43.4242
" />
<path d="M9.7500 43.4242
L9.7500 43.5909
" />
<path d="M9.7500 43.5909
L9.7833 43.6576
" />
<path d="M9.7833 43.6576
L9.8167 43.6909
" />
<path d="M9.8167 43.6909
L9.8833 43.7242
" />
<path d="M9.8833 43.7242
L10.0833 43.7242
" />
<path d="M10.0833 43.7242
L10.1500 43.6909
" />
<path d="M10.1500 43.6909
L10.1833 43.6576
" />
<path d="M9.0833 43.7242
L9.4833 43.7242
" />
<path d="M9.2833 43.7242
L9.2833 43.0242
" />
<path d="M9.2833 43.0242
L9.3500 43.1242
" />
<path d="M9.3500 43.1242
L9.4167 43.1909
" />
<path d="M9.4167 43.1909
L9.4833 43.2242
" />
<path d="M8.8500 43.0242
L8.4167 43.0242
" />
<path d="M8.4167 43.0242
L8.6500 43.2909
" />
<path d="M8.6500 43.2909
L8.5500 43.2909
" />
<path d="M8.5500 43.2909
L8.4833 43.3242
" />
<path d="M8.4833 43.3242
L8.4500 43.3576
" />
<path d="M8.4500 43.3576
L8.4167 43.4242
" />
<path d="M8.4167 43.4242
L8.4167 43.5909
" />
<path d="M8.4167 43.5909
L8.4500 43.6576
" />
<path d="M8.4500 43.6576
L8.4833 43.6909
" />
<path d="M8.4833 43.6909
L8.5500 43.7242
" />
<path d="M8.5500 43.7242
L8.7500 43.7242
" />
<path d="M8.7500 43.7242
L8.8167 43.6909
" />
<path d="M8.8167 43.6909
L8.8500 43.6576
" />
<path d="M8.1167 43.4576
L7.5833 43.4576
" />
<path d="M7.2500 43.7242
L7.2500 43.0242
" />
<path d="M7.2500 43.2909
L7.1833 43.2576
" />
<path d="M7.1833 43.2576
L7.0500 43.2576
" />
<path d="M7.0500 43.2576
L6.9833 43.2909
" />
<path d="M6.9833 43.2909
L6.9500 43.3242
" />
<path d="M6.9500 43.3242
L6.9167 43.3909
" />
<path d="M6.9167 43.3909
L6.9167 43.5909
" />
<path d="M6.9167 43.5909
L6.9500 43.6576
" />
<path d="M6.9500 43.6576
L6.9833 43.6909
" />
<path d="M6.9833 43.6909
L7.0500 43.7242
" />
<path d="M7.0500 43.7242
L7.1833 43.7242
" />
<path d="M7.1833 43.7242
L7.2500 43.6909
" />
<path d="M6.5167 43.7242
L6.5833 43.6909
" />
<path d="M6.5833 43.6909
L6.6167 43.6576
" />
<path d="M6.6167 43.6576
L6.6500 43.5909
" />
<path d="M6.6500 43.5909
L6.6500 43.3909
" />
<path d="M6.6500 43.3909
L6.6167 43.3242
" />
<path d="M6.6167 43.3242
L6.5833 43.2909
" />
<path d="M6.5833 43.2909
L6.5167 43.2576
" />
<path d="M6.5167 43.2576
L6.4167 43.2576
" />
<path d="M6.4167 43.2576
L6.3500 43.2909
" />
<path d="M6.3500 43.2909
L6.3167 43.3242
" />
<path d="M6.3167 43.3242
L6.2833 43.3909
" />
<path d="M6.2833 43.3909
L6.2833 43.5909
" />
<path d="M6.2833 43.5909
L6.3167 43.6576
" />
<path d="M6.3167 43.6576
L6.3500 43.6909
" />
<path d="M6.3500 43.6909
L6.4167 43.7242
" />
<path d="M6.4167 43.7242
L6.5167 43.7242
" />
<path d="M5.6833 43.7242
L5.6833 43.3576
" />
<path d="M5.6833 43.3576
L5.7167 43.2909
" />
<path d="M5.7167 43.2909
L5.7833 43.2576
" />
<path d="M5.7833 43.2576
L5.9167 43.2576
" />
<path d="M5.9167 43.2576
L5.9833 43.2909
" />
<path d="M5.6833 43.6909
L5.7500 43.7242
" />
<path d="M5.7500 43.7242
L5.9167 43.7242
" />
<path d="M5.9167 43.7242
L5.9833 43.6909
" />
<path d="M5.9833 43.6909
L6.0167 43.6242
" />
<path d="M6.0167 43.6242
L6.0167 43.5576
" />
<path d="M6.0167 43.5576
L5.9833 43.4909
" />
<path d="M5.9833 43.4909
L5.9167 43.4576
" />
<path d="M5.9167 43.4576
L5.7500 43.4576
" />
<path d="M5.7500 43.4576
L5.6833 43.4242
" />
<path d="M5.3500 43.7242
L5.3500 43.2576
" />
<path d="M5.3500 43.3909
L5.3167 43.3242
" />
<path d="M5.3167 43.3242
L5.2833 43.2909
" />
<path d="M5.2833 43.2909
L5.2167 43.2576
" />
<path d="M5.2167 43.2576
L5.1500 43.2576
" />
<path d="M4.6167 43.7242
L4.6167 43.0242
" />
<path d="M4.6167 43.6909
L4.6833 43.7242
" />
<path d="M4.6833 43.7242
L4.8167 43.7242
" />
<path d="M4.8167 43.7242
L4.8833 43.6909
" />
<path d="M4.8833 43.6909
L4.9167 43.6576
" />
<path d="M4.9167 43.6576
L4.9500 43.5909
" />
<path d="M4.9500 43.5909
L4.9500 43.3909
" />
<path d="M4.9500 43.3909
L4.9167 43.3242
" />
<path d="M4.9167 43.3242
L4.8833 43.2909
" />
<path d="M4.8833 43.2909
L4.8167 43.2576
" />
<path d="M4.8167 43.2576
L4.6833 43.2576
" />
<path d="M4.6833 43.2576
L4.6167 43.2909
" />
</g></g>
<g style="fill:none; 
stroke:#E8B2A7; stroke-width:0.2000; stroke-opacity:1; 
stroke-linecap:round; stroke-linejoin:round;">
<text x="6.0000" y="31.3000"
transform="scale(-1 1) translate(-12.000000 0)"
textLength="5.7733" font-size="1.0667" lengthAdjust="spacingAndGlyphs"
text-anchor="middle" opacity="0" stroke-opacity="0">DRV8313</text>
<g class="stroked-text"><desc>DRV8313</desc>
<path d="M8.4762 31.3277
L8.4762 30.5277
" />
<path d="M8.4762 30.5277
L8.2857 30.5277
" />
<path d="M8.2857 30.5277
L8.1714 30.5658
" />
<path d="M8.1714 30.5658
L8.0952 30.6420
" />
<path d="M8.0952 30.6420
L8.0571 30.7182
" />
<path d="M8.0571 30.7182
L8.0190 30.8706
" />
<path d="M8.0190 30.8706
L8.0190 30.9848
" />
<path d="M8.0190 30.9848
L8.0571 31.1372
" />
<path d="M8.0571 31.1372
L8.0952 31.2134
" />
<path d="M8.0952 31.2134
L8.1714 31.2896
" />
<path d="M8.1714 31.2896
L8.2857 31.3277
" />
<path d="M8.2857 31.3277
L8.4762 31.3277
" />
<path d="M7.2190 31.3277
L7.4857 30.9467
" />
<path d="M7.6762 31.3277
L7.6762 30.5277
" />
<path d="M7.6762 30.5277
L7.3714 30.5277
" />
<path d="M7.3714 30.5277
L7.2952 30.5658
" />
<path d="M7.2952 30.5658
L7.2571 30.6039
" />
<path d="M7.2571 30.6039
L7.2190 30.6801
" />
<path d="M7.2190 30.6801
L7.2190 30.7944
" />
<path d="M7.2190 30.7944
L7.2571 30.8706
" />
<path d="M7.2571 30.8706
L7.2952 30.9086
" />
<path d="M7.2952 30.9086
L7.3714 30.9467
" />
<path d="M7.3714 30.9467
L7.6762 30.9467
" />
<path d="M6.9905 30.5277
L6.7238 31.3277
" />
<path d="M6.7238 31.3277
L6.4571 30.5277
" />
<path d="M6.0762 30.8706
L6.1524 30.8325
" />
<path d="M6.1524 30.8325
L6.1905 30.7944
" />
<path d="M6.1905 30.7944
L6.2286 30.7182
" />
<path d="M6.2286 30.7182
L6.2286 30.6801
" />
<path d="M6.2286 30.6801
L6.1905 30.6039
" />
<path d="M6.1905 30.6039
L6.1524 30.5658
" />
<path d="M6.1524 30.5658
L6.0762 30.5277
" />
<path d="M6.0762 30.5277
L5.9238 30.5277
" />
<path d="M5.9238 30.5277
L5.8476 30.5658
" />
<path d="M5.8476 30.5658
L5.8095 30.6039
" />
<path d="M5.8095 30.6039
L5.7714 30.6801
" />
<path d="M5.7714 30.6801
L5.7714 30.7182
" />
<path d="M5.7714 30.7182
L5.8095 30.7944
" />
<path d="M5.8095 30.7944
L5.8476 30.8325
" />
<path d="M5.8476 30.8325
L5.9238 30.8706
" />
<path d="M5.9238 30.8706
L6.0762 30.8706
" />
<path d="M6.0762 30.8706
L6.1524 30.9086
" />
<path d="M6.1524 30.9086
L6.1905 30.9467
" />
<path d="M6.1905 30.9467
L6.2286 31.0229
" />
<path d="M6.2286 31.0229
L6.2286 31.1753
" />
<path d="M6.2286 31.1753
L6.1905 31.2515
" />
<path d="M6.1905 31.2515
L6.1524 31.2896
" />
<path d="M6.1524 31.2896
L6.0762 31.3277
" />
<path d="M6.0762 31.3277
L5.9238 31.3277
" />
<path d="M5.9238 31.3277
L5.8476 31.2896
" />
<path d="M5.8476 31.2896
L5.8095 31.2515
" />
<path d="M5.8095 31.2515
L5.7714 31.1753
" />
<path d="M5.7714 31.1753
L5.7714 31.0229
" />
<path d="M5.7714 31.0229
L5.8095 30.9467
" />
<path d="M5.8095 30.9467
L5.8476 30.9086
" />
<path d="M5.8476 30.9086
L5.9238 30.8706
" />
<path d="M5.5048 30.5277
L5.0095 30.5277
" />
<path d="M5.0095 30.5277
L5.2762 30.8325
" />
<path d="M5.2762 30.8325
L5.1619 30.8325
" />
<path d="M5.1619 30.8325
L5.0857 30.8706
" />
<path d="M5.0857 30.8706
L5.0476 30.9086
" />
<path d="M5.0476 30.9086
L5.0095 30.9848
" />
<path d="M5.0095 30.9848
L5.0095 31.1753
" />
<path d="M5.0095 31.1753
L5.0476 31.2515
" />
<path d="M5.0476 31.2515
L5.0857 31.2896
" />
<path d="M5.0857 31.2896
L5.1619 31.3277
" />
<path d="M5.1619 31.3277
L5.3905 31.3277
" />
<path d="M5.3905 31.3277
L5.4667 31.2896
" />
<path d="M5.4667 31.2896
L5.5048 31.2515
" />
<path d="M4.2476 31.3277
L4.7048 31.3277
" />
<path d="M4.4762 31.3277
L4.4762 30.5277
" />
<path d="M4.4762 30.5277
L4.5524 30.6420
" />
<path d="M4.5524 30.6420
L4.6286 30.7182
" />
<path d="M4.6286 30.7182
L4.7048 30.7563
" />
<path d="M3.9810 30.5277
L3.4857 30.5277
" />
<path d="M3.4857 30.5277
L3.7524 30.8325
" />
<path d="M3.7524 30.8325
L3.6381 30.8325
" />
<path d="M3.6381 30.8325
L3.5619 30.8706
" />
<path d="M3.5619 30.8706
L3.5238 30.9086
" />
<path d="M3.5238 30.9086
L3.4857 30.9848
" />
<path d="M3.4857 30.9848
L3.4857 31.1753
" />
<path d="M3.4857 31.1753
L3.5238 31.2515
" />
<path d="M3.5238 31.2515
L3.5619 31.2896
" />
<path d="M3.5619 31.2896
L3.6381 31.3277
" />
<path d="M3.6381 31.3277
L3.8667 31.3277
" />
<path d="M3.8667 31.3277
L3.9429 31.2896
" />
<path d="M3.9429 31.2896
L3.9810 31.2515
" />
</g><text x="6.0000" y="33.1000"
transform="scale(-1 1) translate(-12.000000 0)"
textLength="7.0305" font-size="1.0667" lengthAdjust="spacingAndGlyphs"
text-anchor="middle" opacity="0" stroke-opacity="0">Board v1.0</text>
<g class="stroked-text"><desc>Board v1.0</desc>
<path d="M8.8381 32.7086
L8.7238 32.7467
" />
<path d="M8.7238 32.7467
L8.6857 32.7848
" />
<path d="M8.6857 32.7848
L8.6476 32.8610
" />
<path d="M8.6476 32.8610
L8.6476 32.9753
" />
<path d="M8.6476 32.9753
L8.6857 33.0515
" />
<path d="M8.6857 33.0515
L8.7238 33.0896
" />
<path d="M8.7238 33.0896
L8.8000 33.1277
" />
<path d="M8.8000 33.1277
L9.1048 33.1277
" />
<path d="M9.1048 33.1277
L9.1048 32.3277
" />
<path d="M9.1048 32.3277
L8.8381 32.3277
" />
<path d="M8.8381 32.3277
L8.7619 32.3658
" />
<path d="M8.7619 32.3658
L8.7238 32.4039
" />
<path d="M8.7238 32.4039
L8.6857 32.4801
" />
<path d="M8.6857 32.4801
L8.6857 32.5563
" />
<path d="M8.6857 32.5563
L8.7238 32.6325
" />
<path d="M8.7238 32.6325
L8.7619 32.6706
" />
<path d="M8.7619 32.6706
L8.8381 32.7086
" />
<path d="M8.8381 32.7086
L9.1048 32.7086
" />
<path d="M8.1905 33.1277
L8.2667 33.0896
" />
<path d="M8.2667 33.0896
L8.3048 33.0515
" />
<path d="M8.3048 33.0515
L8.3429 32.9753
" />
<path d="M8.3429 32.9753
L8.3429 32.7467
" />
<path d="M8.3429 32.7467
L8.3048 32.6706
" />
<path d="M8.3048 32.6706
L8.2667 32.6325
" />
<path d="M8.2667 32.6325
L8.1905 32.5944
" />
<path d="M8.1905 32.5944
L8.0762 32.5944
" />
<path d="M8.0762 32.5944
L8.0000 32.6325
" />
<path d="M8.0000 32.6325
L7.9619 32.6706
" />
<path d="M7.9619 32.6706
L7.9238 32.7467
" />
<path d="M7.9238 32.7467
L7.9238 32.9753
" />
<path d="M7.9238 32.9753
L7.9619 33.0515
" />
<path d="M7.9619 33.0515
L8.0000 33.0896
" />
<path d="M8.0000 33.0896
L8.0762 33.1277
" />
<path d="M8.0762 33.1277
L8.1905 33.1277
" />
<path d="M7.2381 33.1277
L7.2381 32.7086
" />
<path d="M7.2381 32.7086
L7.2762 32.6325
" />
<path d="M7.2762 32.6325
L7.3524 32.5944
" />
<path d="M7.3524 32.5944
L7.5048 32.5944
" />
<path d="M7.5048 32.5944
L7.5810 32.6325
" />
<path d="M7.2381 33.0896
L7.3143 33.1277
" />
<path d="M7.3143 33.1277
L7.5048 33.1277
" />
<path d="M7.5048 33.1277
L7.5810 33.0896
" />
<path d="M7.5810 33.0896
L7.6190 33.0134
" />
<path d="M7.6190 33.0134
L7.6190 32.9372
" />
<path d="M7.6190 32.9372
L7.5810 32.8610
" />
<path d="M7.5810 32.8610
L7.5048 32.8229
" />
<path d="M7.5048 32.8229
L7.3143 32.8229
" />
<path d="M7.3143 32.8229
L7.2381 32.7848
" />
<path d="M6.8571 33.1277
L6.8571 32.5944
" />
<path d="M6.8571 32.7467
L6.8190 32.6706
" />
<path d="M6.8190 32.6706
L6.7810 32.6325
" />
<path d="M6.7810 32.6325
L6.7048 32.5944
" />
<path d="M6.7048 32.5944
L6.6286 32.5944
" />
<path d="M6.0190 33.1277
L6.0190 32.3277
" />
<path d="M6.0190 33.0896
L6.0952 33.1277
" />
<path d="M6.0952 33.1277
L6.2476 33.1277
" />
<path d="M6.2476 33.1277
L6.3238 33.0896
" />
<path d="M6.3238 33.0896
L6.3619 33.0515
" />
<path d="M6.3619 33.0515
L6.4000 32.9753
" />
<path d="M6.4000 32.9753
L6.4000 32.7467
" />
<path d="M6.4000 32.7467
L6.3619 32.6706
" />
<path d="M6.3619 32.6706
L6.3238 32.6325
" />
<path d="M6.3238 32.6325
L6.2476 32.5944
" />
<path d="M6.2476 32.5944
L6.0952 32.5944
" />
<path d="M6.0952 32.5944
L6.0190 32.6325
" />
<path d="M5.1048 32.5944
L4.9143 33.1277
" />
<path d="M4.9143 33.1277
L4.7238 32.5944
" />
<path d="M4.0000 33.1277
L4.4571 33.1277
" />
<path d="M4.2286 33.1277
L4.2286 32.3277
" />
<path d="M4.2286 32.3277
L4.3048 32.4420
" />
<path d="M4.3048 32.4420
L4.3810 32.5182
" />
<path d="M4.3810 32.5182
L4.4571 32.5563
" />
<path d="M3.6571 33.0515
L3.6190 33.0896
" />
<path d="M3.6190 33.0896
L3.6571 33.1277
" />
<path d="M3.6571 33.1277
L3.6952 33.0896
" />
<path d="M3.6952 33.0896
L3.6571 33.0515
" />
<path d="M3.6571 33.0515
L3.6571 33.1277
" />
<path d="M3.1238 32.3277
L3.0476 32.3277
" />
<path d="M3.0476 32.3277
L2.9714 32.3658
" />
<path d="M2.9714 32.3658
L2.9333 32.4039
" />
<path d="M2.9333 32.4039
L2.8952 32.4801
" />
<path d="M2.8952 32.4801
L2.8571 32.6325
" />
<path d="M2.8571 32.6325
L2.8571 32.8229
" />
<path d="M2.8571 32.8229
L2.8952 32.9753
" />
<path d="M2.8952 32.9753
L2.9333 33.0515
" />
<path d="M2.9333 33.0515
L2.9714 33.0896
" />
<path d="M2.9714 33.0896
L3.0476 33.1277
" />
<path d="M3.0476 33.1277
L3.1238 33.1277
" />
<path d="M3.1238 33.1277
L3.2000 33.0896
" />
<path d="M3.2000 33.0896
L3.2381 33.0515
" />
<path d="M3.2381 33.0515
L3.2762 32.9753
" />
<path d="M3.2762 32.9753
L3.3143 32.8229
" />
<path d="M3.3143 32.8229
L3.3143 32.6325
" />
<path d="M3.3143 32.6325
L3.2762 32.4801
" />
<path d="M3.2762 32.4801
L3.2381 32.4039
" />
<path d="M3.2381 32.4039
L3.2000 32.3658
" />
<path d="M3.2000 32.3658
L3.1238 32.3277
" />
</g><text x="6.0000" y="34.9000"
transform="scale(-1 1) translate(-12.000000 0)"
textLength="4.3257" font-size="1.0667" lengthAdjust="spacingAndGlyphs"
text-anchor="middle" opacity="0" stroke-opacity="0">06/26</text>
<g class="stroked-text"><desc>06/26</desc>
<path d="M7.6000 34.1277
L7.5238 34.1277
" />
<path d="M7.5238 34.1277
L7.4476 34.1658
" />
<path d="M7.4476 34.1658
L7.4095 34.2039
" />
<path d="M7.4095 34.2039
L7.3714 34.2801
" />
<path d="M7.3714 34.2801
L7.3333 34.4325
" />
<path d="M7.3333 34.4325
L7.3333 34.6229
" />
<path d="M7.3333 34.6229
L7.3714 34.7753
" />
<path d="M7.3714 34.7753
L7.4095 34.8515
" />
<path d="M7.4095 34.8515
L7.4476 34.8896
" />
<path d="M7.4476 34.8896
L7.5238 34.9277
" />
<path d="M7.5238 34.9277
L7.6000 34.9277
" />
<path d="M7.6000 34.9277
L7.6762 34.8896
" />
<path d="M7.6762 34.8896
L7.7143 34.8515
" />
<path d="M7.7143 34.8515
L7.7524 34.7753
" />
<path d="M7.7524 34.7753
L7.7905 34.6229
" />
<path d="M7.7905 34.6229
L7.7905 34.4325
" />
<path d="M7.7905 34.4325
L7.7524 34.2801
" />
<path d="M7.7524 34.2801
L7.7143 34.2039
" />
<path d="M7.7143 34.2039
L7.6762 34.1658
" />
<path d="M7.6762 34.1658
L7.6000 34.1277
" />
<path d="M6.6476 34.1277
L6.8000 34.1277
" />
<path d="M6.8000 34.1277
L6.8762 34.1658
" />
<path d="M6.8762 34.1658
L6.9143 34.2039
" />
<path d="M6.9143 34.2039
L6.9905 34.3182
" />
<path d="M6.9905 34.3182
L7.0286 34.4706
" />
<path d="M7.0286 34.4706
L7.0286 34.7753
" />
<path d="M7.0286 34.7753
L6.9905 34.8515
" />
<path d="M6.9905 34.8515
L6.9524 34.8896
" />
<path d="M6.9524 34.8896
L6.8762 34.9277
" />
<path d="M6.8762 34.9277
L6.7238 34.9277
" />
<path d="M6.7238 34.9277
L6.6476 34.8896
" />
<path d="M6.6476 34.8896
L6.6095 34.8515
" />
<path d="M6.6095 34.8515
L6.5714 34.7753
" />
<path d="M6.5714 34.7753
L6.5714 34.5848
" />
<path d="M6.5714 34.5848
L6.6095 34.5086
" />
<path d="M6.6095 34.5086
L6.6476 34.4706
" />
<path d="M6.6476 34.4706
L6.7238 34.4325
" />
<path d="M6.7238 34.4325
L6.8762 34.4325
" />
<path d="M6.8762 34.4325
L6.9524 34.4706
" />
<path d="M6.9524 34.4706
L6.9905 34.5086
" />
<path d="M6.9905 34.5086
L7.0286 34.5848
" />
<path d="M5.6571 34.0896
L6.3429 35.1182
" />
<path d="M5.4286 34.2039
L5.3905 34.1658
" />
<path d="M5.3905 34.1658
L5.3143 34.1277
" />
<path d="M5.3143 34.1277
L5.1238 34.1277
" />
<path d="M5.1238 34.1277
L5.0476 34.1658
" />
<path d="M5.0476 34.1658
L5.0095 34.2039
" />
<path d="M5.0095 34.2039
L4.9714 34.2801
" />
<path d="M4.9714 34.2801
L4.9714 34.3563
" />
<path d="M4.9714 34.3563
L5.0095 34.4706
" />
<path d="M5.0095 34.4706
L5.4667 34.9277
" />
<path d="M5.4667 34.9277
L4.9714 34.9277
" />
<path d="M4.2857 34.1277
L4.4381 34.1277
" />
<path d="M4.4381 34.1277
L4.5143 34.1658
" />
<path d="M4.5143 34.1658
L4.5524 34.2039
" />
<path d="M4.5524 34.2039
L4.6286 34.3182
" />
<path d="M4.6286 34.3182
L4.6667 34.4706
" />
<path d="M4.6667 34.4706
L4.6667 34.7753
" />
<path d="M4.6667 34.7753
L4.6286 34.8515
" />
<path d="M4.6286 34.8515
L4.5905 34.8896
" />
<path d="M4.5905 34.8896
L4.5143 34.9277
" />
<path d="M4.5143 34.9277
L4.3619 34.9277
" />
<path d="M4.3619 34.9277
L4.2857 34.8896
" />
<path d="M4.2857 34.8896
L4.2476 34.8515
" />
<path d="M4.2476 34.8515
L4.2095 34.7753
" />
<path d="M4.2095 34.7753
L4.2095 34.5848
" />
<path d="M4.2095 34.5848
L4.2476 34.5086
" />
<path d="M4.2476 34.5086
L4.2857 34.4706
" />
<path d="M4.2857 34.4706
L4.3619 34.4325
" />
<path d="M4.3619 34.4325
L4.5143 34.4325
" />
<path d="M4.5143 34.4325
L4.5905 34.4706
" />
<path d="M4.5905 34.4706
L4.6286 34.5086
" />
<path d="M4.6286 34.5086
L4.6667 34.5848
" />
</g></g>
<g style="fill:none; 
stroke:#D0D2CD; stroke-width:0.1000; stroke-opacity:1; 
stroke-linecap:round; stroke-linejoin:round;">
<path d="M3.0000 0.0000 A3.0011 3.0011 0.0 0 0 0.0000 3.0000" />
<path d="M0.0000 42.0000
L0.0000 3.0000
" />
<path d="M3.0000 0.0000
L47.0000 0.0000
" />
<path d="M0.0000 42.0000 A3.0011 3.0011 0.0 0 0 3.0000 45.0000" />
<path d="M50.0000 3.0000 A3.0011 3.0011 0.0 0 0 47.0000 0.0000" />
<path d="M47.0000 45.0000
L3.0000 45.0000
" />
<path d="M50.0000 3.0000
L50.0000 42.0000
" />
<path d="M47.0000 45.0000 A3.0011 3.0011 0.0 0 0 50.0000 42.0000" />
</g>
<g style="fill:#FFFFFF; fill-opacity:1.0000; stroke:none;">
<circle cx="27.4500" cy="17.7500" r="0.1250" /> 
<circle cx="25.8500" cy="19.3500" r="0.1250" /> 
<circle cx="27.6000" cy="30.1500" r="0.1250" /> 
<circle cx="27.6000" cy="23.6500" r="0.1250" /> 
<circle cx="21.9751" cy="19.1344" r="0.1500" /> 
<circle cx="28.0000" cy="37.3500" r="0.1250" /> 
<circle cx="28.0000" cy="12.8509" r="0.1500" /> 
<circle cx="13.0000" cy="28.7000" r="0.1500" /> 
<circle cx="21.0000" cy="22.0000" r="0.1500" /> 
<circle cx="34.6000" cy="25.0000" r="0.1500" /> 
<circle cx="16.6000" cy="19.1000" r="0.1500" /> 
<circle cx="34.6000" cy="5.3000" r="0.1500" /> 
<circle cx="9.6700" cy="13.0000" r="0.1500" /> 
<circle cx="30.8000" cy="41.5000" r="0.1250" /> 
<circle cx="14.6700" cy="38.0000" r="0.1500" /> 
<circle cx="22.9625" cy="35.0000" r="0.1500" /> 
<circle cx="25.2500" cy="24.1000" r="0.1500" /> 
<circle cx="25.5000" cy="37.2470" r="0.1250" /> 
<circle cx="17.8000" cy="9.7500" r="0.1500" /> 
<circle cx="25.4000" cy="13.0500" r="0.1500" /> 
<circle cx="15.3500" cy="22.8000" r="0.1500" /> 
<circle cx="20.2000" cy="12.9500" r="0.1500" /> 
<circle cx="22.6000" cy="12.9000" r="0.1500" /> 
<circle cx="24.1500" cy="12.9000" r="0.1500" /> 
<circle cx="15.0000" cy="29.9500" r="0.1500" /> 
<circle cx="16.2500" cy="31.2000" r="0.1500" /> 
<circle cx="24.6000" cy="20.5500" r="0.1500" /> 
<circle cx="25.5000" cy="41.4470" r="0.1250" /> 
<circle cx="23.2800" cy="29.4500" r="0.1250" /> 
<circle cx="18.7000" cy="24.8500" r="0.1250" /> 
<circle cx="18.7000" cy="26.0500" r="0.1250" /> 
<circle cx="23.2800" cy="25.5000" r="0.1250" /> 
<circle cx="18.0500" cy="25.5000" r="0.1500" /> 
<circle cx="17.7000" cy="27.1000" r="0.1500" /> 
<circle cx="21.1000" cy="17.5000" r="0.1500" /> 
<circle cx="19.2500" cy="15.6500" r="0.1500" /> 
<circle cx="18.4000" cy="12.1500" r="0.1500" /> 
<circle cx="28.5000" cy="26.7000" r="0.1500" /> 
<circle cx="28.5000" cy="24.8500" r="0.1500" /> 
<circle cx="35.2000" cy="17.5000" r="0.1500" /> 
<circle cx="22.0500" cy="23.8500" r="0.1500" /> 
<circle cx="28.3000" cy="21.4000" r="0.1500" /> 
<circle cx="37.2000" cy="17.5000" r="0.1500" /> 
<circle cx="16.1000" cy="21.1500" r="0.1250" /> 
<circle cx="15.3500" cy="23.6500" r="0.1250" /> 
<circle cx="15.6500" cy="20.7000" r="0.1250" /> 
<circle cx="14.9000" cy="24.1000" r="0.1250" /> 
<circle cx="26.8500" cy="22.9000" r="0.1500" /> 
<circle cx="17.0500" cy="30.4000" r="0.1500" /> 
<circle cx="23.9500" cy="24.8500" r="0.1500" /> 
<circle cx="20.7000" cy="24.6000" r="0.1500" /> 
<circle cx="28.0500" cy="6.9500" r="0.1500" /> 
<circle cx="19.9500" cy="23.8500" r="0.1500" /> 
<circle cx="22.6500" cy="24.8500" r="0.1500" /> 
<circle cx="24.1500" cy="11.4000" r="0.1500" /> 
<circle cx="24.9500" cy="12.4500" r="0.1500" /> 
<circle cx="23.2000" cy="15.3000" r="0.1500" /> 
<circle cx="24.0500" cy="14.4500" r="0.1500" /> 
<circle cx="16.6500" cy="11.2500" r="0.1500" /> 
<circle cx="20.4500" cy="13.7000" r="0.1500" /> 
<circle cx="16.0000" cy="14.1000" r="0.1500" /> 
<circle cx="16.0000" cy="10.3500" r="0.1500" /> 
<circle cx="16.1000" cy="15.3000" r="0.1250" /> 
<circle cx="12.9000" cy="11.4000" r="0.1250" /> 
</g>
<g style="fill:#000000; fill-opacity:1.0000; stroke:none;">
<circle cx="4.0000" cy="4.0000" r="1.6000" /> 
<circle cx="46.0000" cy="4.0000" r="1.6000" /> 
</g>
<g style="fill:#FFFFFF; fill-opacity:1.0000; stroke:none;">
<circle cx="5.5000" cy="19.5000" r="0.6500" /> 
</g>
<g style="fill:#FFFFFF; fill-opacity:1.0000; stroke:none;">
<circle cx="5.5000" cy="24.5000" r="0.6500" /> 
</g>
<g style="fill:#FFFFFF; fill-opacity:1.0000; stroke:none;">
<circle cx="45.0000" cy="32.5000" r="0.6500" /> 
</g>
<g style="fill:#FFFFFF; fill-opacity:1.0000; stroke:none;">
<circle cx="45.0000" cy="27.5000" r="0.6500" /> 
</g>
<g style="fill:#FFFFFF; fill-opacity:1.0000; stroke:none;">
<circle cx="45.0000" cy="22.5000" r="0.6500" /> 
</g>
<g style="fill:#FFFFFF; fill-opacity:1.0000; stroke:none;">
<circle cx="45.0000" cy="17.5000" r="0.6500" /> 
</g>
<g style="fill:#FFFFFF; fill-opacity:1.0000; stroke:none;">
<circle cx="45.0000" cy="12.5000" r="0.6500" /> 
</g>
<g style="fill:#FFFFFF; fill-opacity:1.0000; stroke:none;">
<circle cx="19.5001" cy="21.5001" r="0.1500" /> 
</g>
<g style="fill:#FFFFFF; fill-opacity:1.0000; stroke:none;">
<circle cx="19.5001" cy="22.5001" r="0.1500" /> 
</g>
<g style="fill:#FFFFFF; fill-opacity:1.0000; stroke:none;">
<circle cx="20.5001" cy="21.5001" r="0.1500" /> 
</g>
<g style="fill:#FFFFFF; fill-opacity:1.0000; stroke:none;">
<circle cx="20.5001" cy="22.5001" r="0.1500" /> 
</g>
<g style="fill:#FFFFFF; fill-opacity:1.0000; stroke:none;">
<circle cx="21.5001" cy="21.5001" r="0.1500" /> 
</g>
<g style="fill:#FFFFFF; fill-opacity:1.0000; stroke:none;">
<circle cx="21.5001" cy="22.5001" r="0.1500" /> 
</g>
<g style="fill:#FFFFFF; fill-opacity:1.0000; stroke:none;">
<circle cx="22.5001" cy="21.5001" r="0.1500" /> 
</g>
<g style="fill:#FFFFFF; fill-opacity:1.0000; stroke:none;">
<circle cx="22.5001" cy="22.5001" r="0.1500" /> 
</g>
<g style="fill:#000000; fill-opacity:1.0000; stroke:none;">
<circle cx="4.0000" cy="41.0000" r="1.6000" /> 
</g>
<g style="fill:#FFFFFF; fill-opacity:1.0000; stroke:none;">
<circle cx="11.3800" cy="3.7300" r="0.5000" /> 
</g>
<g style="fill:#FFFFFF; fill-opacity:1.0000; stroke:none;">
<circle cx="11.3800" cy="6.2700" r="0.5000" /> 
</g>
<g style="fill:#FFFFFF; fill-opacity:1.0000; stroke:none;">
<circle cx="13.9200" cy="3.7300" r="0.5000" /> 
</g>
<g style="fill:#FFFFFF; fill-opacity:1.0000; stroke:none;">
<circle cx="13.9200" cy="6.2700" r="0.5000" /> 
</g>
<g style="fill:#FFFFFF; fill-opacity:1.0000; stroke:none;">
<circle cx="16.4600" cy="3.7300" r="0.5000" /> 
</g>
<g style="fill:#FFFFFF; fill-opacity:1.0000; stroke:none;">
<circle cx="16.4600" cy="6.2700" r="0.5000" /> 
</g>
<g style="fill:#FFFFFF; fill-opacity:1.0000; stroke:none;">
<circle cx="19.0000" cy="3.7300" r="0.5000" /> 
</g>
<g style="fill:#FFFFFF; fill-opacity:1.0000; stroke:none;">
<circle cx="19.0000" cy="6.2700" r="0.5000" /> 
</g>
<g style="fill:#FFFFFF; fill-opacity:1.0000; stroke:none;">
<circle cx="21.5400" cy="3.7300" r="0.5000" /> 
</g>
<g style="fill:#FFFFFF; fill-opacity:1.0000; stroke:none;">
<circle cx="21.5400" cy="6.2700" r="0.5000" /> 
</g>
<g style="fill:#FFFFFF; fill-opacity:1.0000; stroke:none;">
<circle cx="24.0800" cy="3.7300" r="0.5000" /> 
</g>
<g style="fill:#FFFFFF; fill-opacity:1.0000; stroke:none;">
<circle cx="24.0800" cy="6.2700" r="0.5000" /> 
</g>
<g style="fill:#FFFFFF; fill-opacity:1.0000; stroke:none;">
<circle cx="26.6200" cy="3.7300" r="0.5000" /> 
</g>
<g style="fill:#FFFFFF; fill-opacity:1.0000; stroke:none;">
<circle cx="26.6200" cy="6.2700" r="0.5000" /> 
</g>
<g style="fill:#000000; fill-opacity:1.0000; stroke:none;">
<circle cx="46.0000" cy="41.0000" r="1.6000" /> 
</g> 
</svg>
