<?xml version="1.0" standalone="no"?>
 <!DOCTYPE svg PUBLIC "-//W3C//DTD SVG 1.1//EN" 
 "http://www.w3.org/Graphics/SVG/1.1/DTD/svg11.dtd"> 
<svg
  xmlns:svg="http://www.w3.org/2000/svg"
  xmlns="http://www.w3.org/2000/svg"
  xmlns:xlink="http://www.w3.org/1999/xlink"
  xmlns:inkscape="http://www.inkscape.org/namespaces/inkscape"
  version="1.1"
  width="49.9872mm" height="44.9834mm" viewBox="0.0000 0.0000 49.9872 44.9834">
<title>SVG Image created as pcb-bottom.svg date 2026-06-18T05:12:26 </title>
  <desc>Image generated by PCBNEW </desc>
<g style="fill:#000000; fill-opacity:1.0000;stroke:#000000; stroke-opacity:1.0000;
stroke-linecap:round; stroke-linejoin:round;"
 transform="translate(0 0) scale(1 1)">
<path style="fill:#4D7FC4; fill-opacity:1.0000; stroke:none;fill-rule:evenodd;"
d="M 45.6372,25.9000
45.7329,25.8810
45.8140,25.8268
45.8682,25.7457
45.8872,25.6500
45.8872,23.3500
45.8682,23.2543
45.8140,23.1732
45.7329,23.1190
45.6372,23.1000
43.3372,23.1000
43.2415,23.1190
43.1604,23.1732
43.1062,23.2543
43.0872,23.3500
43.0872,25.6500
43.1062,25.7457
43.1604,25.8268
43.2415,25.8810
43.3372,25.9000
Z" /> 
</g>
<g style="fill:#4D7FC4; fill-opacity:1.0000; stroke:none;">
<circle cx="44.4872" cy="19.5000" r="1.4000" /> 
<path style="fill:#4D7FC4; fill-opacity:1.0000; stroke:none;fill-rule:evenodd;"
d="M 6.1372,33.9000
6.2329,33.8810
6.3140,33.8268
6.3682,33.7457
6.3872,33.6500
6.3872,31.3500
6.3682,31.2543
6.3140,31.1732
6.2329,31.1190
6.1372,31.1000
3.8372,31.1000
3.7415,31.1190
3.6604,31.1732
3.6062,31.2543
3.5872,31.3500
3.5872,33.6500
3.6062,33.7457
3.6604,33.8268
3.7415,33.8810
3.8372,33.9000
Z" /> 
<circle cx="4.9872" cy="27.5000" r="1.4000" /> 
<circle cx="4.9872" cy="22.5000" r="1.4000" /> 
<circle cx="4.9872" cy="17.5000" r="1.4000" /> 
<circle cx="4.9872" cy="12.5000" r="1.4000" /> 
<circle cx="30.4871" cy="21.5001" r="0.3000" /> 
<circle cx="30.4871" cy="22.5001" r="0.3000" /> 
<circle cx="29.4871" cy="21.5001" r="0.3000" /> 
<circle cx="29.4871" cy="22.5001" r="0.3000" /> 
<circle cx="28.4871" cy="21.5001" r="0.3000" /> 
<circle cx="28.4871" cy="22.5001" r="0.3000" /> 
<circle cx="27.4871" cy="21.5001" r="0.3000" /> 
<circle cx="27.4871" cy="22.5001" r="0.3000" /> 
<path style="fill:#4D7FC4; fill-opacity:1.0000; stroke:none;fill-rule:evenodd;"
d="M 37.7572,4.5800
39.4572,4.5800
39.4572,2.8800
37.7572,2.8800
Z" /> 
<circle cx="38.6072" cy="6.2700" r="0.8500" /> 
<circle cx="36.0672" cy="3.7300" r="0.8500" /> 
<circle cx="36.0672" cy="6.2700" r="0.8500" /> 
<circle cx="33.5272" cy="3.7300" r="0.8500" /> 
<circle cx="33.5272" cy="6.2700" r="0.8500" /> 
<circle cx="30.9872" cy="3.7300" r="0.8500" /> 
<circle cx="30.9872" cy="6.2700" r="0.8500" /> 
<circle cx="28.4472" cy="3.7300" r="0.8500" /> 
<circle cx="28.4472" cy="6.2700" r="0.8500" /> 
<circle cx="25.9072" cy="3.7300" r="0.8500" /> 
<circle cx="25.9072" cy="6.2700" r="0.8500" /> 
<circle cx="23.3672" cy="3.7300" r="0.8500" /> 
<circle cx="23.3672" cy="6.2700" r="0.8500" /> 
<circle cx="22.5372" cy="17.7500" r="0.2000" /> 
<circle cx="24.1372" cy="19.3500" r="0.2000" /> 
<circle cx="22.3872" cy="30.1500" r="0.2000" /> 
<circle cx="22.3872" cy="23.6500" r="0.2000" /> 
<circle cx="28.0121" cy="19.1344" r="0.2500" /> 
<circle cx="21.9872" cy="37.3500" r="0.2000" /> 
<circle cx="21.9872" cy="12.8509" r="0.2500" /> 
<circle cx="36.9872" cy="28.7000" r="0.2500" /> 
<circle cx="28.9872" cy="22.0000" r="0.2500" /> 
<circle cx="15.3872" cy="25.0000" r="0.3000" /> 
<circle cx="33.3872" cy="19.1000" r="0.2500" /> 
<circle cx="15.3872" cy="5.3000" r="0.3000" /> 
<circle cx="40.3172" cy="13.0000" r="0.2500" /> 
<circle cx="19.1872" cy="41.5000" r="0.2000" /> 
<circle cx="35.3172" cy="38.0000" r="0.2500" /> 
<circle cx="27.0247" cy="35.0000" r="0.2500" /> 
<circle cx="24.7372" cy="24.1000" r="0.2500" /> 
<circle cx="24.4872" cy="37.2470" r="0.2000" /> 
<circle cx="32.1872" cy="9.7500" r="0.2500" /> 
<circle cx="24.5872" cy="13.0500" r="0.2500" /> 
<circle cx="34.6372" cy="22.8000" r="0.2500" /> 
<circle cx="29.7872" cy="12.9500" r="0.2500" /> 
<circle cx="27.3872" cy="12.9000" r="0.2500" /> 
<circle cx="25.8372" cy="12.9000" r="0.2500" /> 
<circle cx="34.9872" cy="29.9500" r="0.2500" /> 
<circle cx="33.7372" cy="31.2000" r="0.2500" /> 
<circle cx="25.3872" cy="20.5500" r="0.2500" /> 
<circle cx="24.4872" cy="41.4470" r="0.2000" /> 
<circle cx="26.7072" cy="29.4500" r="0.2000" /> 
<circle cx="31.2872" cy="24.8500" r="0.2000" /> 
<circle cx="31.2872" cy="26.0500" r="0.2000" /> 
<circle cx="26.7072" cy="25.5000" r="0.2000" /> 
<circle cx="31.9372" cy="25.5000" r="0.2500" /> 
<circle cx="32.2872" cy="27.1000" r="0.2500" /> 
<circle cx="28.8872" cy="17.5000" r="0.2500" /> 
<circle cx="30.7372" cy="15.6500" r="0.2500" /> 
<circle cx="31.5872" cy="12.1500" r="0.2500" /> 
<circle cx="21.4872" cy="26.7000" r="0.3000" /> 
<circle cx="21.4872" cy="24.8500" r="0.3000" /> 
<circle cx="14.7872" cy="17.5000" r="0.2500" /> 
<circle cx="27.9372" cy="23.8500" r="0.2500" /> 
<circle cx="21.6872" cy="21.4000" r="0.2500" /> 
<circle cx="12.7872" cy="17.5000" r="0.2500" /> 
<circle cx="33.8872" cy="21.1500" r="0.2000" /> 
<circle cx="34.6372" cy="23.6500" r="0.2000" /> 
<circle cx="34.3372" cy="20.7000" r="0.2000" /> 
<circle cx="35.0872" cy="24.1000" r="0.2000" /> 
<circle cx="23.1372" cy="22.9000" r="0.2500" /> 
<circle cx="32.9372" cy="30.4000" r="0.2500" /> 
<circle cx="26.0372" cy="24.8500" r="0.2500" /> 
<circle cx="29.2872" cy="24.6000" r="0.2500" /> 
<circle cx="21.9372" cy="6.9500" r="0.2500" /> 
<circle cx="30.0372" cy="23.8500" r="0.2500" /> 
<circle cx="27.3372" cy="24.8500" r="0.2500" /> 
<circle cx="25.8372" cy="11.4000" r="0.2500" /> 
<circle cx="25.0372" cy="12.4500" r="0.2500" /> 
<circle cx="26.7872" cy="15.3000" r="0.2500" /> 
<circle cx="25.9372" cy="14.4500" r="0.2500" /> 
<circle cx="33.3372" cy="11.2500" r="0.2500" /> 
<circle cx="29.5372" cy="13.7000" r="0.2500" /> 
<circle cx="33.9872" cy="14.1000" r="0.2500" /> 
<circle cx="33.9872" cy="10.3500" r="0.2500" /> 
<circle cx="33.8872" cy="15.3000" r="0.2000" /> 
<circle cx="37.0872" cy="11.4000" r="0.2000" /> 
</g>
<g style="fill:none; 
stroke:#4D7FC4; stroke-width:0.2000; stroke-opacity:1; 
stroke-linecap:round; stroke-linejoin:round;">
<path d="M22.3872 23.6500
L22.3872 30.1500
" />
<path d="M24.1372 19.3500
L22.5372 17.7500
" />
<path d="M28.9372 13.9500
L29.6872 14.7000
" />
<path d="M29.6872 14.7000
L34.2372 14.7000
" />
<path d="M25.8372 12.9000
L27.3872 12.9000
" />
<path d="M34.7372 10.1000
L38.5872 6.2500
" />
<path d="M34.5872 14.3500
L34.5872 10.1000
" />
<path d="M32.3872 20.5500
L34.6372 22.8000
" />
<path d="M24.5872 13.0500
L25.2372 13.0500
" />
<path d="M27.3872 12.9000
L27.4372 12.9500
" />
<path d="M38.5872 6.2500
L38.6072 6.2700
" />
<path d="M34.9872 29.9500
L33.7372 31.2000
" />
<path d="M28.9372 12.9500
L28.9372 13.9500
" />
<path d="M34.2372 9.7500
L32.1872 9.7500
" />
<path d="M25.3872 20.5500
L32.3872 20.5500
" />
<path d="M24.4872 37.2470
L24.4872 41.4470
" />
<path d="M25.2372 13.0500
L25.3872 12.9000
" />
<path d="M34.2372 14.7000
L34.5872 14.3500
" />
<path d="M34.5872 10.1000
L34.2372 9.7500
" />
<path d="M27.4372 12.9500
L29.7872 12.9500
" />
<path d="M25.3872 12.9000
L25.8372 12.9000
" />
<path d="M34.5872 10.1000
L34.7372 10.1000
" />
</g>
<g style="fill:none; 
stroke:#4D7FC4; stroke-width:0.5000; stroke-opacity:1; 
stroke-linecap:round; stroke-linejoin:round;">
<path d="M31.2872 24.8500
L31.2872 24.9500
" />
<path d="M26.7072 25.5000
L26.7072 29.4500
" />
<path d="M31.1372 25.1000
L31.1372 25.9000
" />
<path d="M31.1372 25.9000
L31.2872 26.0500
" />
<path d="M31.2872 24.9500
L31.1372 25.1000
" />
</g>
<g style="fill:none; 
stroke:#4D7FC4; stroke-width:0.2000; stroke-opacity:1; 
stroke-linecap:round; stroke-linejoin:round;">
<path d="M32.2872 27.1000
L31.9372 26.7500
" />
<path d="M31.9372 26.7500
L31.9372 25.5000
" />
<path d="M31.5872 12.1500
L31.5872 11.9500
" />
<path d="M31.5872 11.9500
L25.8872 6.2500
" />
<path d="M25.8872 6.2500
L25.9072 6.2700
" />
<path d="M30.7372 15.6500
L28.8872 17.5000
" />
</g>
<g style="fill:none; 
stroke:#4D7FC4; stroke-width:0.6000; stroke-opacity:1; 
stroke-linecap:round; stroke-linejoin:round;">
<path d="M21.4872 26.7000
L5.9872 27.5000
" />
<path d="M5.9872 27.5000
L4.9872 27.5000
" />
<path d="M21.4872 24.8500
L6.9872 22.5000
" />
<path d="M6.9872 22.5000
L4.9872 22.5000
" />
</g>
<g style="fill:none; 
stroke:#4D7FC4; stroke-width:0.2000; stroke-opacity:1; 
stroke-linecap:round; stroke-linejoin:round;">
<path d="M26.8372 22.7500
L26.9121 22.8249
" />
</g>
<g style="fill:none; 
stroke:#4D7FC4; stroke-width:0.6000; stroke-opacity:1; 
stroke-linecap:round; stroke-linejoin:round;">
<path d="M24.5872 22.8000
L24.1872 22.4000
" />
</g>
<g style="fill:none; 
stroke:#4D7FC4; stroke-width:0.2000; stroke-opacity:1; 
stroke-linecap:round; stroke-linejoin:round;">
<path d="M23.9872 23.4000
L24.6372 22.7500
" />
</g>
<g style="fill:none; 
stroke:#4D7FC4; stroke-width:0.6000; stroke-opacity:1; 
stroke-linecap:round; stroke-linejoin:round;">
<path d="M24.6372 22.7500
L24.5872 22.8000
" />
<path d="M14.7872 17.5000
L12.7872 17.5000
" />
<path d="M24.1872 22.4000
L24.1872 22.0000
" />
</g>
<g style="fill:none; 
stroke:#4D7FC4; stroke-width:0.2000; stroke-opacity:1; 
stroke-linecap:round; stroke-linejoin:round;">
<path d="M24.6372 22.7500
L26.8372 22.7500
" />
</g>
<g style="fill:none; 
stroke:#4D7FC4; stroke-width:0.6000; stroke-opacity:1; 
stroke-linecap:round; stroke-linejoin:round;">
<path d="M23.5872 21.4000
L21.6872 21.4000
" />
</g>
<g style="fill:none; 
stroke:#4D7FC4; stroke-width:0.2000; stroke-opacity:1; 
stroke-linecap:round; stroke-linejoin:round;">
<path d="M26.9121 22.8249
L27.9372 23.8500
" />
</g>
<g style="fill:none; 
stroke:#4D7FC4; stroke-width:0.6000; stroke-opacity:1; 
stroke-linecap:round; stroke-linejoin:round;">
<path d="M24.1872 22.0000
L23.5872 21.4000
" />
</g>
<g style="fill:none; 
stroke:#4D7FC4; stroke-width:0.2000; stroke-opacity:1; 
stroke-linecap:round; stroke-linejoin:round;">
<path d="M35.2372 23.0500
L34.6372 23.6500
" />
<path d="M33.8872 21.1500
L35.2372 22.5000
" />
<path d="M35.2372 22.5000
L35.2372 23.0500
" />
<path d="M35.6872 23.5000
L35.0872 24.1000
" />
<path d="M34.3372 20.7000
L35.6872 22.0500
" />
<path d="M35.6872 22.0500
L35.6872 23.5000
" />
<path d="M31.1372 22.7500
L33.3372 22.7500
" />
</g>
<g style="fill:none; 
stroke:#4D7FC4; stroke-width:0.3000; stroke-opacity:1; 
stroke-linecap:round; stroke-linejoin:round;">
<path d="M26.0372 24.8500
L27.3372 24.8500
" />
</g>
<g style="fill:none; 
stroke:#4D7FC4; stroke-width:0.6000; stroke-opacity:1; 
stroke-linecap:round; stroke-linejoin:round;">
<path d="M23.3872 3.7500
L23.3672 3.7300
" />
</g>
<g style="fill:none; 
stroke:#4D7FC4; stroke-width:0.2000; stroke-opacity:1; 
stroke-linecap:round; stroke-linejoin:round;">
<path d="M27.3372 24.8500
L27.5872 24.6000
" />
<path d="M33.3872 22.8000
L33.3872 29.9500
" />
<path d="M33.3872 29.9500
L32.9372 30.4000
" />
<path d="M27.8479 24.6000
L29.2872 24.6000
" />
</g>
<g style="fill:none; 
stroke:#4D7FC4; stroke-width:0.6000; stroke-opacity:1; 
stroke-linecap:round; stroke-linejoin:round;">
<path d="M23.1372 23.9000
L23.1372 22.9000
" />
<path d="M21.9372 6.9500
L21.9372 5.2000
" />
</g>
<g style="fill:none; 
stroke:#4D7FC4; stroke-width:0.2000; stroke-opacity:1; 
stroke-linecap:round; stroke-linejoin:round;">
<path d="M33.3372 22.7500
L33.3872 22.8000
" />
</g>
<g style="fill:none; 
stroke:#4D7FC4; stroke-width:0.6000; stroke-opacity:1; 
stroke-linecap:round; stroke-linejoin:round;">
<path d="M26.0372 24.8500
L24.0872 24.8500
" />
</g>
<g style="fill:none; 
stroke:#4D7FC4; stroke-width:0.2000; stroke-opacity:1; 
stroke-linecap:round; stroke-linejoin:round;">
<path d="M30.0372 23.8500
L31.1372 22.7500
" />
<path d="M27.5872 24.6000
L27.8479 24.6000
" />
</g>
<g style="fill:none; 
stroke:#4D7FC4; stroke-width:0.6000; stroke-opacity:1; 
stroke-linecap:round; stroke-linejoin:round;">
<path d="M21.9372 5.2000
L23.3872 3.7500
" />
<path d="M24.0872 24.8500
L23.1372 23.9000
" />
</g>
<g style="fill:none; 
stroke:#4D7FC4; stroke-width:0.2000; stroke-opacity:1; 
stroke-linecap:round; stroke-linejoin:round;">
<path d="M25.8372 11.6500
L25.0372 12.4500
" />
<path d="M25.8372 11.4000
L25.8372 11.6500
" />
<path d="M25.9372 14.4500
L26.7872 15.3000
" />
<path d="M30.8872 13.7000
L33.3372 11.2500
" />
<path d="M29.5372 13.7000
L30.8872 13.7000
" />
<path d="M33.9872 14.1000
L33.9872 10.3500
" />
<path d="M37.0872 12.8000
L37.0872 11.4000
" />
<path d="M34.5872 15.3000
L37.0872 12.8000
" />
<path d="M33.8872 15.3000
L34.5872 15.3000
" />
</g>
<g style="fill:none; 
stroke:#E8B2A7; stroke-width:0.1750; stroke-opacity:1; 
stroke-linecap:round; stroke-linejoin:round;">
<text x="34.9872" y="43.7000"
textLength="21.4850" font-size="0.9333" lengthAdjust="spacingAndGlyphs"
text-anchor="middle" opacity="0" stroke-opacity="0">github.com/kaydensigh/drv8313-board</text>
<g class="stroked-text"><desc>github.com/kaydensigh/drv8313-board</desc>
<path d="M24.9039 43.2576
L24.9039 43.8242
" />
<path d="M24.9039 43.8242
L24.8705 43.8909
" />
<path d="M24.8705 43.8909
L24.8372 43.9242
" />
<path d="M24.8372 43.9242
L24.7705 43.9576
" />
<path d="M24.7705 43.9576
L24.6705 43.9576
" />
<path d="M24.6705 43.9576
L24.6039 43.9242
" />
<path d="M24.9039 43.6909
L24.8372 43.7242
" />
<path d="M24.8372 43.7242
L24.7039 43.7242
" />
<path d="M24.7039 43.7242
L24.6372 43.6909
" />
<path d="M24.6372 43.6909
L24.6039 43.6576
" />
<path d="M24.6039 43.6576
L24.5705 43.5909
" />
<path d="M24.5705 43.5909
L24.5705 43.3909
" />
<path d="M24.5705 43.3909
L24.6039 43.3242
" />
<path d="M24.6039 43.3242
L24.6372 43.2909
" />
<path d="M24.6372 43.2909
L24.7039 43.2576
" />
<path d="M24.7039 43.2576
L24.8372 43.2576
" />
<path d="M24.8372 43.2576
L24.9039 43.2909
" />
<path d="M25.2372 43.7242
L25.2372 43.2576
" />
<path d="M25.2372 43.0242
L25.2039 43.0576
" />
<path d="M25.2039 43.0576
L25.2372 43.0909
" />
<path d="M25.2372 43.0909
L25.2705 43.0576
" />
<path d="M25.2705 43.0576
L25.2372 43.0242
" />
<path d="M25.2372 43.0242
L25.2372 43.0909
" />
<path d="M25.4705 43.2576
L25.7372 43.2576
" />
<path d="M25.5705 43.0242
L25.5705 43.6242
" />
<path d="M25.5705 43.6242
L25.6039 43.6909
" />
<path d="M25.6039 43.6909
L25.6705 43.7242
" />
<path d="M25.6705 43.7242
L25.7372 43.7242
" />
<path d="M25.9705 43.7242
L25.9705 43.0242
" />
<path d="M26.2705 43.7242
L26.2705 43.3576
" />
<path d="M26.2705 43.3576
L26.2372 43.2909
" />
<path d="M26.2372 43.2909
L26.1705 43.2576
" />
<path d="M26.1705 43.2576
L26.0705 43.2576
" />
<path d="M26.0705 43.2576
L26.0039 43.2909
" />
<path d="M26.0039 43.2909
L25.9705 43.3242
" />
<path d="M26.9039 43.2576
L26.9039 43.7242
" />
<path d="M26.6039 43.2576
L26.6039 43.6242
" />
<path d="M26.6039 43.6242
L26.6372 43.6909
" />
<path d="M26.6372 43.6909
L26.7039 43.7242
" />
<path d="M26.7039 43.7242
L26.8039 43.7242
" />
<path d="M26.8039 43.7242
L26.8705 43.6909
" />
<path d="M26.8705 43.6909
L26.9039 43.6576
" />
<path d="M27.2372 43.7242
L27.2372 43.0242
" />
<path d="M27.2372 43.2909
L27.3039 43.2576
" />
<path d="M27.3039 43.2576
L27.4372 43.2576
" />
<path d="M27.4372 43.2576
L27.5039 43.2909
" />
<path d="M27.5039 43.2909
L27.5372 43.3242
" />
<path d="M27.5372 43.3242
L27.5705 43.3909
" />
<path d="M27.5705 43.3909
L27.5705 43.5909
" />
<path d="M27.5705 43.5909
L27.5372 43.6576
" />
<path d="M27.5372 43.6576
L27.5039 43.6909
" />
<path d="M27.5039 43.6909
L27.4372 43.7242
" />
<path d="M27.4372 43.7242
L27.3039 43.7242
" />
<path d="M27.3039 43.7242
L27.2372 43.6909
" />
<path d="M27.8705 43.6576
L27.9039 43.6909
" />
<path d="M27.9039 43.6909
L27.8705 43.7242
" />
<path d="M27.8705 43.7242
L27.8372 43.6909
" />
<path d="M27.8372 43.6909
L27.8705 43.6576
" />
<path d="M27.8705 43.6576
L27.8705 43.7242
" />
<path d="M28.5039 43.6909
L28.4372 43.7242
" />
<path d="M28.4372 43.7242
L28.3039 43.7242
" />
<path d="M28.3039 43.7242
L28.2372 43.6909
" />
<path d="M28.2372 43.6909
L28.2039 43.6576
" />
<path d="M28.2039 43.6576
L28.1705 43.5909
" />
<path d="M28.1705 43.5909
L28.1705 43.3909
" />
<path d="M28.1705 43.3909
L28.2039 43.3242
" />
<path d="M28.2039 43.3242
L28.2372 43.2909
" />
<path d="M28.2372 43.2909
L28.3039 43.2576
" />
<path d="M28.3039 43.2576
L28.4372 43.2576
" />
<path d="M28.4372 43.2576
L28.5039 43.2909
" />
<path d="M28.9039 43.7242
L28.8372 43.6909
" />
<path d="M28.8372 43.6909
L28.8039 43.6576
" />
<path d="M28.8039 43.6576
L28.7705 43.5909
" />
<path d="M28.7705 43.5909
L28.7705 43.3909
" />
<path d="M28.7705 43.3909
L28.8039 43.3242
" />
<path d="M28.8039 43.3242
L28.8372 43.2909
" />
<path d="M28.8372 43.2909
L28.9039 43.2576
" />
<path d="M28.9039 43.2576
L29.0039 43.2576
" />
<path d="M29.0039 43.2576
L29.0705 43.2909
" />
<path d="M29.0705 43.2909
L29.1039 43.3242
" />
<path d="M29.1039 43.3242
L29.1372 43.3909
" />
<path d="M29.1372 43.3909
L29.1372 43.5909
" />
<path d="M29.1372 43.5909
L29.1039 43.6576
" />
<path d="M29.1039 43.6576
L29.0705 43.6909
" />
<path d="M29.0705 43.6909
L29.0039 43.7242
" />
<path d="M29.0039 43.7242
L28.9039 43.7242
" />
<path d="M29.4372 43.7242
L29.4372 43.2576
" />
<path d="M29.4372 43.3242
L29.4705 43.2909
" />
<path d="M29.4705 43.2909
L29.5372 43.2576
" />
<path d="M29.5372 43.2576
L29.6372 43.2576
" />
<path d="M29.6372 43.2576
L29.7039 43.2909
" />
<path d="M29.7039 43.2909
L29.7372 43.3576
" />
<path d="M29.7372 43.3576
L29.7372 43.7242
" />
<path d="M29.7372 43.3576
L29.7705 43.2909
" />
<path d="M29.7705 43.2909
L29.8372 43.2576
" />
<path d="M29.8372 43.2576
L29.9372 43.2576
" />
<path d="M29.9372 43.2576
L30.0039 43.2909
" />
<path d="M30.0039 43.2909
L30.0372 43.3576
" />
<path d="M30.0372 43.3576
L30.0372 43.7242
" />
<path d="M30.8705 42.9909
L30.2705 43.8909
" />
<path d="M31.1039 43.7242
L31.1039 43.0242
" />
<path d="M31.1705 43.4576
L31.3705 43.7242
" />
<path d="M31.3705 43.2576
L31.1039 43.5242
" />
<path d="M31.9705 43.7242
L31.9705 43.3576
" />
<path d="M31.9705 43.3576
L31.9372 43.2909
" />
<path d="M31.9372 43.2909
L31.8705 43.2576
" />
<path d="M31.8705 43.2576
L31.7372 43.2576
" />
<path d="M31.7372 43.2576
L31.6705 43.2909
" />
<path d="M31.9705 43.6909
L31.9039 43.7242
" />
<path d="M31.9039 43.7242
L31.7372 43.7242
" />
<path d="M31.7372 43.7242
L31.6705 43.6909
" />
<path d="M31.6705 43.6909
L31.6372 43.6242
" />
<path d="M31.6372 43.6242
L31.6372 43.5576
" />
<path d="M31.6372 43.5576
L31.6705 43.4909
" />
<path d="M31.6705 43.4909
L31.7372 43.4576
" />
<path d="M31.7372 43.4576
L31.9039 43.4576
" />
<path d="M31.9039 43.4576
L31.9705 43.4242
" />
<path d="M32.2372 43.2576
L32.4039 43.7242
" />
<path d="M32.5705 43.2576
L32.4039 43.7242
" />
<path d="M32.4039 43.7242
L32.3372 43.8909
" />
<path d="M32.3372 43.8909
L32.3039 43.9242
" />
<path d="M32.3039 43.9242
L32.2372 43.9576
" />
<path d="M33.1372 43.7242
L33.1372 43.0242
" />
<path d="M33.1372 43.6909
L33.0705 43.7242
" />
<path d="M33.0705 43.7242
L32.9372 43.7242
" />
<path d="M32.9372 43.7242
L32.8705 43.6909
" />
<path d="M32.8705 43.6909
L32.8372 43.6576
" />
<path d="M32.8372 43.6576
L32.8039 43.5909
" />
<path d="M32.8039 43.5909
L32.8039 43.3909
" />
<path d="M32.8039 43.3909
L32.8372 43.3242
" />
<path d="M32.8372 43.3242
L32.8705 43.2909
" />
<path d="M32.8705 43.2909
L32.9372 43.2576
" />
<path d="M32.9372 43.2576
L33.0705 43.2576
" />
<path d="M33.0705 43.2576
L33.1372 43.2909
" />
<path d="M33.7372 43.6909
L33.6705 43.7242
" />
<path d="M33.6705 43.7242
L33.5372 43.7242
" />
<path d="M33.5372 43.7242
L33.4705 43.6909
" />
<path d="M33.4705 43.6909
L33.4372 43.6242
" />
<path d="M33.4372 43.6242
L33.4372 43.3576
" />
<path d="M33.4372 43.3576
L33.4705 43.2909
" />
<path d="M33.4705 43.2909
L33.5372 43.2576
" />
<path d="M33.5372 43.2576
L33.6705 43.2576
" />
<path d="M33.6705 43.2576
L33.7372 43.2909
" />
<path d="M33.7372 43.2909
L33.7705 43.3576
" />
<path d="M33.7705 43.3576
L33.7705 43.4242
" />
<path d="M33.7705 43.4242
L33.4372 43.4909
" />
<path d="M34.0705 43.2576
L34.0705 43.7242
" />
<path d="M34.0705 43.3242
L34.1039 43.2909
" />
<path d="M34.1039 43.2909
L34.1705 43.2576
" />
<path d="M34.1705 43.2576
L34.2705 43.2576
" />
<path d="M34.2705 43.2576
L34.3372 43.2909
" />
<path d="M34.3372 43.2909
L34.3705 43.3576
" />
<path d="M34.3705 43.3576
L34.3705 43.7242
" />
<path d="M34.6705 43.6909
L34.7372 43.7242
" />
<path d="M34.7372 43.7242
L34.8705 43.7242
" />
<path d="M34.8705 43.7242
L34.9372 43.6909
" />
<path d="M34.9372 43.6909
L34.9705 43.6242
" />
<path d="M34.9705 43.6242
L34.9705 43.5909
" />
<path d="M34.9705 43.5909
L34.9372 43.5242
" />
<path d="M34.9372 43.5242
L34.8705 43.4909
" />
<path d="M34.8705 43.4909
L34.7705 43.4909
" />
<path d="M34.7705 43.4909
L34.7039 43.4576
" />
<path d="M34.7039 43.4576
L34.6705 43.3909
" />
<path d="M34.6705 43.3909
L34.6705 43.3576
" />
<path d="M34.6705 43.3576
L34.7039 43.2909
" />
<path d="M34.7039 43.2909
L34.7705 43.2576
" />
<path d="M34.7705 43.2576
L34.8705 43.2576
" />
<path d="M34.8705 43.2576
L34.9372 43.2909
" />
<path d="M35.2705 43.7242
L35.2705 43.2576
" />
<path d="M35.2705 43.0242
L35.2372 43.0576
" />
<path d="M35.2372 43.0576
L35.2705 43.0909
" />
<path d="M35.2705 43.0909
L35.3039 43.0576
" />
<path d="M35.3039 43.0576
L35.2705 43.0242
" />
<path d="M35.2705 43.0242
L35.2705 43.0909
" />
<path d="M35.9039 43.2576
L35.9039 43.8242
" />
<path d="M35.9039 43.8242
L35.8705 43.8909
" />
<path d="M35.8705 43.8909
L35.8372 43.9242
" />
<path d="M35.8372 43.9242
L35.7705 43.9576
" />
<path d="M35.7705 43.9576
L35.6705 43.9576
" />
<path d="M35.6705 43.9576
L35.6039 43.9242
" />
<path d="M35.9039 43.6909
L35.8372 43.7242
" />
<path d="M35.8372 43.7242
L35.7039 43.7242
" />
<path d="M35.7039 43.7242
L35.6372 43.6909
" />
<path d="M35.6372 43.6909
L35.6039 43.6576
" />
<path d="M35.6039 43.6576
L35.5705 43.5909
" />
<path d="M35.5705 43.5909
L35.5705 43.3909
" />
<path d="M35.5705 43.3909
L35.6039 43.3242
" />
<path d="M35.6039 43.3242
L35.6372 43.2909
" />
<path d="M35.6372 43.2909
L35.7039 43.2576
" />
<path d="M35.7039 43.2576
L35.8372 43.2576
" />
<path d="M35.8372 43.2576
L35.9039 43.2909
" />
<path d="M36.2372 43.7242
L36.2372 43.0242
" />
<path d="M36.5372 43.7242
L36.5372 43.3576
" />
<path d="M36.5372 43.3576
L36.5039 43.2909
" />
<path d="M36.5039 43.2909
L36.4372 43.2576
" />
<path d="M36.4372 43.2576
L36.3372 43.2576
" />
<path d="M36.3372 43.2576
L36.2705 43.2909
" />
<path d="M36.2705 43.2909
L36.2372 43.3242
" />
<path d="M37.3705 42.9909
L36.7705 43.8909
" />
<path d="M37.9039 43.7242
L37.9039 43.0242
" />
<path d="M37.9039 43.6909
L37.8372 43.7242
" />
<path d="M37.8372 43.7242
L37.7039 43.7242
" />
<path d="M37.7039 43.7242
L37.6372 43.6909
" />
<path d="M37.6372 43.6909
L37.6039 43.6576
" />
<path d="M37.6039 43.6576
L37.5705 43.5909
" />
<path d="M37.5705 43.5909
L37.5705 43.3909
" />
<path d="M37.5705 43.3909
L37.6039 43.3242
" />
<path d="M37.6039 43.3242
L37.6372 43.2909
" />
<path d="M37.6372 43.2909
L37.7039 43.2576
" />
<path d="M37.7039 43.2576
L37.8372 43.2576
" />
<path d="M37.8372 43.2576
L37.9039 43.2909
" />
<path d="M38.2372 43.7242
L38.2372 43.2576
" />
<path d="M38.2372 43.3909
L38.2705 43.3242
" />
<path d="M38.2705 43.3242
L38.3039 43.2909
" />
<path d="M38.3039 43.2909
L38.3705 43.2576
" />
<path d="M38.3705 43.2576
L38.4372 43.2576
" />
<path d="M38.6039 43.2576
L38.7705 43.7242
" />
<path d="M38.7705 43.7242
L38.9372 43.2576
" />
<path d="M39.3039 43.3242
L39.2372 43.2909
" />
<path d="M39.2372 43.2909
L39.2039 43.2576
" />
<path d="M39.2039 43.2576
L39.1705 43.1909
" />
<path d="M39.1705 43.1909
L39.1705 43.1576
" />
<path d="M39.1705 43.1576
L39.2039 43.0909
" />
<path d="M39.2039 43.0909
L39.2372 43.0576
" />
<path d="M39.2372 43.0576
L39.3039 43.0242
" />
<path d="M39.3039 43.0242
L39.4372 43.0242
" />
<path d="M39.4372 43.0242
L39.5039 43.0576
" />
<path d="M39.5039 43.0576
L39.5372 43.0909
" />
<path d="M39.5372 43.0909
L39.5705 43.1576
" />
<path d="M39.5705 43.1576
L39.5705 43.1909
" />
<path d="M39.5705 43.1909
L39.5372 43.2576
" />
<path d="M39.5372 43.2576
L39.5039 43.2909
" />
<path d="M39.5039 43.2909
L39.4372 43.3242
" />
<path d="M39.4372 43.3242
L39.3039 43.3242
" />
<path d="M39.3039 43.3242
L39.2372 43.3576
" />
<path d="M39.2372 43.3576
L39.2039 43.3909
" />
<path d="M39.2039 43.3909
L39.1705 43.4576
" />
<path d="M39.1705 43.4576
L39.1705 43.5909
" />
<path d="M39.1705 43.5909
L39.2039 43.6576
" />
<path d="M39.2039 43.6576
L39.2372 43.6909
" />
<path d="M39.2372 43.6909
L39.3039 43.7242
" />
<path d="M39.3039 43.7242
L39.4372 43.7242
" />
<path d="M39.4372 43.7242
L39.5039 43.6909
" />
<path d="M39.5039 43.6909
L39.5372 43.6576
" />
<path d="M39.5372 43.6576
L39.5705 43.5909
" />
<path d="M39.5705 43.5909
L39.5705 43.4576
" />
<path d="M39.5705 43.4576
L39.5372 43.3909
" />
<path d="M39.5372 43.3909
L39.5039 43.3576
" />
<path d="M39.5039 43.3576
L39.4372 43.3242
" />
<path d="M39.8039 43.0242
L40.2372 43.0242
" />
<path d="M40.2372 43.0242
L40.0039 43.2909
" />
<path d="M40.0039 43.2909
L40.1039 43.2909
" />
<path d="M40.1039 43.2909
L40.1705 43.3242
" />
<path d="M40.1705 43.3242
L40.2039 43.3576
" />
<path d="M40.2039 43.3576
L40.2372 43.4242
" />
<path d="M40.2372 43.4242
L40.2372 43.5909
" />
<path d="M40.2372 43.5909
L40.2039 43.6576
" />
<path d="M40.2039 43.6576
L40.1705 43.6909
" />
<path d="M40.1705 43.6909
L40.1039 43.7242
" />
<path d="M40.1039 43.7242
L39.9039 43.7242
" />
<path d="M39.9039 43.7242
L39.8372 43.6909
" />
<path d="M39.8372 43.6909
L39.8039 43.6576
" />
<path d="M40.9039 43.7242
L40.5039 43.7242
" />
<path d="M40.7039 43.7242
L40.7039 43.0242
" />
<path d="M40.7039 43.0242
L40.6372 43.1242
" />
<path d="M40.6372 43.1242
L40.5705 43.1909
" />
<path d="M40.5705 43.1909
L40.5039 43.2242
" />
<path d="M41.1372 43.0242
L41.5705 43.0242
" />
<path d="M41.5705 43.0242
L41.3372 43.2909
" />
<path d="M41.3372 43.2909
L41.4372 43.2909
" />
<path d="M41.4372 43.2909
L41.5039 43.3242
" />
<path d="M41.5039 43.3242
L41.5372 43.3576
" />
<path d="M41.5372 43.3576
L41.5705 43.4242
" />
<path d="M41.5705 43.4242
L41.5705 43.5909
" />
<path d="M41.5705 43.5909
L41.5372 43.6576
" />
<path d="M41.5372 43.6576
L41.5039 43.6909
" />
<path d="M41.5039 43.6909
L41.4372 43.7242
" />
<path d="M41.4372 43.7242
L41.2372 43.7242
" />
<path d="M41.2372 43.7242
L41.1705 43.6909
" />
<path d="M41.1705 43.6909
L41.1372 43.6576
" />
<path d="M41.8705 43.4576
L42.4039 43.4576
" />
<path d="M42.7372 43.7242
L42.7372 43.0242
" />
<path d="M42.7372 43.2909
L42.8039 43.2576
" />
<path d="M42.8039 43.2576
L42.9372 43.2576
" />
<path d="M42.9372 43.2576
L43.0039 43.2909
" />
<path d="M43.0039 43.2909
L43.0372 43.3242
" />
<path d="M43.0372 43.3242
L43.0705 43.3909
" />
<path d="M43.0705 43.3909
L43.0705 43.5909
" />
<path d="M43.0705 43.5909
L43.0372 43.6576
" />
<path d="M43.0372 43.6576
L43.0039 43.6909
" />
<path d="M43.0039 43.6909
L42.9372 43.7242
" />
<path d="M42.9372 43.7242
L42.8039 43.7242
" />
<path d="M42.8039 43.7242
L42.7372 43.6909
" />
<path d="M43.4705 43.7242
L43.4039 43.6909
" />
<path d="M43.4039 43.6909
L43.3705 43.6576
" />
<path d="M43.3705 43.6576
L43.3372 43.5909
" />
<path d="M43.3372 43.5909
L43.3372 43.3909
" />
<path d="M43.3372 43.3909
L43.3705 43.3242
" />
<path d="M43.3705 43.3242
L43.4039 43.2909
" />
<path d="M43.4039 43.2909
L43.4705 43.2576
" />
<path d="M43.4705 43.2576
L43.5705 43.2576
" />
<path d="M43.5705 43.2576
L43.6372 43.2909
" />
<path d="M43.6372 43.2909
L43.6705 43.3242
" />
<path d="M43.6705 43.3242
L43.7039 43.3909
" />
<path d="M43.7039 43.3909
L43.7039 43.5909
" />
<path d="M43.7039 43.5909
L43.6705 43.6576
" />
<path d="M43.6705 43.6576
L43.6372 43.6909
" />
<path d="M43.6372 43.6909
L43.5705 43.7242
" />
<path d="M43.5705 43.7242
L43.4705 43.7242
" />
<path d="M44.3039 43.7242
L44.3039 43.3576
" />
<path d="M44.3039 43.3576
L44.2705 43.2909
" />
<path d="M44.2705 43.2909
L44.2039 43.2576
" />
<path d="M44.2039 43.2576
L44.0705 43.2576
" />
<path d="M44.0705 43.2576
L44.0039 43.2909
" />
<path d="M44.3039 43.6909
L44.2372 43.7242
" />
<path d="M44.2372 43.7242
L44.0705 43.7242
" />
<path d="M44.0705 43.7242
L44.0039 43.6909
" />
<path d="M44.0039 43.6909
L43.9705 43.6242
" />
<path d="M43.9705 43.6242
L43.9705 43.5576
" />
<path d="M43.9705 43.5576
L44.0039 43.4909
" />
<path d="M44.0039 43.4909
L44.0705 43.4576
" />
<path d="M44.0705 43.4576
L44.2372 43.4576
" />
<path d="M44.2372 43.4576
L44.3039 43.4242
" />
<path d="M44.6372 43.7242
L44.6372 43.2576
" />
<path d="M44.6372 43.3909
L44.6705 43.3242
" />
<path d="M44.6705 43.3242
L44.7039 43.2909
" />
<path d="M44.7039 43.2909
L44.7705 43.2576
" />
<path d="M44.7705 43.2576
L44.8372 43.2576
" />
<path d="M45.3705 43.7242
L45.3705 43.0242
" />
<path d="M45.3705 43.6909
L45.3039 43.7242
" />
<path d="M45.3039 43.7242
L45.1705 43.7242
" />
<path d="M45.1705 43.7242
L45.1039 43.6909
" />
<path d="M45.1039 43.6909
L45.0705 43.6576
" />
<path d="M45.0705 43.6576
L45.0372 43.5909
" />
<path d="M45.0372 43.5909
L45.0372 43.3909
" />
<path d="M45.0372 43.3909
L45.0705 43.3242
" />
<path d="M45.0705 43.3242
L45.1039 43.2909
" />
<path d="M45.1039 43.2909
L45.1705 43.2576
" />
<path d="M45.1705 43.2576
L45.3039 43.2576
" />
<path d="M45.3039 43.2576
L45.3705 43.2909
" />
</g></g>
<g style="fill:none; 
stroke:#E8B2A7; stroke-width:0.2000; stroke-opacity:1; 
stroke-linecap:round; stroke-linejoin:round;">
<text x="43.9872" y="31.3000"
textLength="5.7733" font-size="1.0667" lengthAdjust="spacingAndGlyphs"
text-anchor="middle" opacity="0" stroke-opacity="0">DRV8313</text>
<g class="stroked-text"><desc>DRV8313</desc>
<path d="M41.5110 31.3277
L41.5110 30.5277
" />
<path d="M41.5110 30.5277
L41.7015 30.5277
" />
<path d="M41.7015 30.5277
L41.8158 30.5658
" />
<path d="M41.8158 30.5658
L41.8920 30.6420
" />
<path d="M41.8920 30.6420
L41.9301 30.7182
" />
<path d="M41.9301 30.7182
L41.9682 30.8706
" />
<path d="M41.9682 30.8706
L41.9682 30.9848
" />
<path d="M41.9682 30.9848
L41.9301 31.1372
" />
<path d="M41.9301 31.1372
L41.8920 31.2134
" />
<path d="M41.8920 31.2134
L41.8158 31.2896
" />
<path d="M41.8158 31.2896
L41.7015 31.3277
" />
<path d="M41.7015 31.3277
L41.5110 31.3277
" />
<path d="M42.7682 31.3277
L42.5015 30.9467
" />
<path d="M42.3110 31.3277
L42.3110 30.5277
" />
<path d="M42.3110 30.5277
L42.6158 30.5277
" />
<path d="M42.6158 30.5277
L42.6920 30.5658
" />
<path d="M42.6920 30.5658
L42.7301 30.6039
" />
<path d="M42.7301 30.6039
L42.7682 30.6801
" />
<path d="M42.7682 30.6801
L42.7682 30.7944
" />
<path d="M42.7682 30.7944
L42.7301 30.8706
" />
<path d="M42.7301 30.8706
L42.6920 30.9086
" />
<path d="M42.6920 30.9086
L42.6158 30.9467
" />
<path d="M42.6158 30.9467
L42.3110 30.9467
" />
<path d="M42.9967 30.5277
L43.2634 31.3277
" />
<path d="M43.2634 31.3277
L43.5301 30.5277
" />
<path d="M43.9110 30.8706
L43.8348 30.8325
" />
<path d="M43.8348 30.8325
L43.7967 30.7944
" />
<path d="M43.7967 30.7944
L43.7586 30.7182
" />
<path d="M43.7586 30.7182
L43.7586 30.6801
" />
<path d="M43.7586 30.6801
L43.7967 30.6039
" />
<path d="M43.7967 30.6039
L43.8348 30.5658
" />
<path d="M43.8348 30.5658
L43.9110 30.5277
" />
<path d="M43.9110 30.5277
L44.0634 30.5277
" />
<path d="M44.0634 30.5277
L44.1396 30.5658
" />
<path d="M44.1396 30.5658
L44.1777 30.6039
" />
<path d="M44.1777 30.6039
L44.2158 30.6801
" />
<path d="M44.2158 30.6801
L44.2158 30.7182
" />
<path d="M44.2158 30.7182
L44.1777 30.7944
" />
<path d="M44.1777 30.7944
L44.1396 30.8325
" />
<path d="M44.1396 30.8325
L44.0634 30.8706
" />
<path d="M44.0634 30.8706
L43.9110 30.8706
" />
<path d="M43.9110 30.8706
L43.8348 30.9086
" />
<path d="M43.8348 30.9086
L43.7967 30.9467
" />
<path d="M43.7967 30.9467
L43.7586 31.0229
" />
<path d="M43.7586 31.0229
L43.7586 31.1753
" />
<path d="M43.7586 31.1753
L43.7967 31.2515
" />
<path d="M43.7967 31.2515
L43.8348 31.2896
" />
<path d="M43.8348 31.2896
L43.9110 31.3277
" />
<path d="M43.9110 31.3277
L44.0634 31.3277
" />
<path d="M44.0634 31.3277
L44.1396 31.2896
" />
<path d="M44.1396 31.2896
L44.1777 31.2515
" />
<path d="M44.1777 31.2515
L44.2158 31.1753
" />
<path d="M44.2158 31.1753
L44.2158 31.0229
" />
<path d="M44.2158 31.0229
L44.1777 30.9467
" />
<path d="M44.1777 30.9467
L44.1396 30.9086
" />
<path d="M44.1396 30.9086
L44.0634 30.8706
" />
<path d="M44.4824 30.5277
L44.9777 30.5277
" />
<path d="M44.9777 30.5277
L44.7110 30.8325
" />
<path d="M44.7110 30.8325
L44.8253 30.8325
" />
<path d="M44.8253 30.8325
L44.9015 30.8706
" />
<path d="M44.9015 30.8706
L44.9396 30.9086
" />
<path d="M44.9396 30.9086
L44.9777 30.9848
" />
<path d="M44.9777 30.9848
L44.9777 31.1753
" />
<path d="M44.9777 31.1753
L44.9396 31.2515
" />
<path d="M44.9396 31.2515
L44.9015 31.2896
" />
<path d="M44.9015 31.2896
L44.8253 31.3277
" />
<path d="M44.8253 31.3277
L44.5967 31.3277
" />
<path d="M44.5967 31.3277
L44.5205 31.2896
" />
<path d="M44.5205 31.2896
L44.4824 31.2515
" />
<path d="M45.7396 31.3277
L45.2824 31.3277
" />
<path d="M45.5110 31.3277
L45.5110 30.5277
" />
<path d="M45.5110 30.5277
L45.4348 30.6420
" />
<path d="M45.4348 30.6420
L45.3586 30.7182
" />
<path d="M45.3586 30.7182
L45.2824 30.7563
" />
<path d="M46.0062 30.5277
L46.5015 30.5277
" />
<path d="M46.5015 30.5277
L46.2348 30.8325
" />
<path d="M46.2348 30.8325
L46.3491 30.8325
" />
<path d="M46.3491 30.8325
L46.4253 30.8706
" />
<path d="M46.4253 30.8706
L46.4634 30.9086
" />
<path d="M46.4634 30.9086
L46.5015 30.9848
" />
<path d="M46.5015 30.9848
L46.5015 31.1753
" />
<path d="M46.5015 31.1753
L46.4634 31.2515
" />
<path d="M46.4634 31.2515
L46.4253 31.2896
" />
<path d="M46.4253 31.2896
L46.3491 31.3277
" />
<path d="M46.3491 31.3277
L46.1205 31.3277
" />
<path d="M46.1205 31.3277
L46.0443 31.2896
" />
<path d="M46.0443 31.2896
L46.0062 31.2515
" />
</g><text x="43.9872" y="33.1000"
textLength="7.0305" font-size="1.0667" lengthAdjust="spacingAndGlyphs"
text-anchor="middle" opacity="0" stroke-opacity="0">Board v2.0</text>
<g class="stroked-text"><desc>Board v2.0</desc>
<path d="M41.1491 32.7086
L41.2634 32.7467
" />
<path d="M41.2634 32.7467
L41.3015 32.7848
" />
<path d="M41.3015 32.7848
L41.3396 32.8610
" />
<path d="M41.3396 32.8610
L41.3396 32.9753
" />
<path d="M41.3396 32.9753
L41.3015 33.0515
" />
<path d="M41.3015 33.0515
L41.2634 33.0896
" />
<path d="M41.2634 33.0896
L41.1872 33.1277
" />
<path d="M41.1872 33.1277
L40.8824 33.1277
" />
<path d="M40.8824 33.1277
L40.8824 32.3277
" />
<path d="M40.8824 32.3277
L41.1491 32.3277
" />
<path d="M41.1491 32.3277
L41.2253 32.3658
" />
<path d="M41.2253 32.3658
L41.2634 32.4039
" />
<path d="M41.2634 32.4039
L41.3015 32.4801
" />
<path d="M41.3015 32.4801
L41.3015 32.5563
" />
<path d="M41.3015 32.5563
L41.2634 32.6325
" />
<path d="M41.2634 32.6325
L41.2253 32.6706
" />
<path d="M41.2253 32.6706
L41.1491 32.7086
" />
<path d="M41.1491 32.7086
L40.8824 32.7086
" />
<path d="M41.7967 33.1277
L41.7205 33.0896
" />
<path d="M41.7205 33.0896
L41.6824 33.0515
" />
<path d="M41.6824 33.0515
L41.6443 32.9753
" />
<path d="M41.6443 32.9753
L41.6443 32.7467
" />
<path d="M41.6443 32.7467
L41.6824 32.6706
" />
<path d="M41.6824 32.6706
L41.7205 32.6325
" />
<path d="M41.7205 32.6325
L41.7967 32.5944
" />
<path d="M41.7967 32.5944
L41.9110 32.5944
" />
<path d="M41.9110 32.5944
L41.9872 32.6325
" />
<path d="M41.9872 32.6325
L42.0253 32.6706
" />
<path d="M42.0253 32.6706
L42.0634 32.7467
" />
<path d="M42.0634 32.7467
L42.0634 32.9753
" />
<path d="M42.0634 32.9753
L42.0253 33.0515
" />
<path d="M42.0253 33.0515
L41.9872 33.0896
" />
<path d="M41.9872 33.0896
L41.9110 33.1277
" />
<path d="M41.9110 33.1277
L41.7967 33.1277
" />
<path d="M42.7491 33.1277
L42.7491 32.7086
" />
<path d="M42.7491 32.7086
L42.7110 32.6325
" />
<path d="M42.7110 32.6325
L42.6348 32.5944
" />
<path d="M42.6348 32.5944
L42.4824 32.5944
" />
<path d="M42.4824 32.5944
L42.4062 32.6325
" />
<path d="M42.7491 33.0896
L42.6729 33.1277
" />
<path d="M42.6729 33.1277
L42.4824 33.1277
" />
<path d="M42.4824 33.1277
L42.4062 33.0896
" />
<path d="M42.4062 33.0896
L42.3682 33.0134
" />
<path d="M42.3682 33.0134
L42.3682 32.9372
" />
<path d="M42.3682 32.9372
L42.4062 32.8610
" />
<path d="M42.4062 32.8610
L42.4824 32.8229
" />
<path d="M42.4824 32.8229
L42.6729 32.8229
" />
<path d="M42.6729 32.8229
L42.7491 32.7848
" />
<path d="M43.1301 33.1277
L43.1301 32.5944
" />
<path d="M43.1301 32.7467
L43.1682 32.6706
" />
<path d="M43.1682 32.6706
L43.2062 32.6325
" />
<path d="M43.2062 32.6325
L43.2824 32.5944
" />
<path d="M43.2824 32.5944
L43.3586 32.5944
" />
<path d="M43.9682 33.1277
L43.9682 32.3277
" />
<path d="M43.9682 33.0896
L43.8920 33.1277
" />
<path d="M43.8920 33.1277
L43.7396 33.1277
" />
<path d="M43.7396 33.1277
L43.6634 33.0896
" />
<path d="M43.6634 33.0896
L43.6253 33.0515
" />
<path d="M43.6253 33.0515
L43.5872 32.9753
" />
<path d="M43.5872 32.9753
L43.5872 32.7467
" />
<path d="M43.5872 32.7467
L43.6253 32.6706
" />
<path d="M43.6253 32.6706
L43.6634 32.6325
" />
<path d="M43.6634 32.6325
L43.7396 32.5944
" />
<path d="M43.7396 32.5944
L43.8920 32.5944
" />
<path d="M43.8920 32.5944
L43.9682 32.6325
" />
<path d="M44.8824 32.5944
L45.0729 33.1277
" />
<path d="M45.0729 33.1277
L45.2634 32.5944
" />
<path d="M45.5301 32.4039
L45.5682 32.3658
" />
<path d="M45.5682 32.3658
L45.6443 32.3277
" />
<path d="M45.6443 32.3277
L45.8348 32.3277
" />
<path d="M45.8348 32.3277
L45.9110 32.3658
" />
<path d="M45.9110 32.3658
L45.9491 32.4039
" />
<path d="M45.9491 32.4039
L45.9872 32.4801
" />
<path d="M45.9872 32.4801
L45.9872 32.5563
" />
<path d="M45.9872 32.5563
L45.9491 32.6706
" />
<path d="M45.9491 32.6706
L45.4920 33.1277
" />
<path d="M45.4920 33.1277
L45.9872 33.1277
" />
<path d="M46.3301 33.0515
L46.3682 33.0896
" />
<path d="M46.3682 33.0896
L46.3301 33.1277
" />
<path d="M46.3301 33.1277
L46.2920 33.0896
" />
<path d="M46.2920 33.0896
L46.3301 33.0515
" />
<path d="M46.3301 33.0515
L46.3301 33.1277
" />
<path d="M46.8634 32.3277
L46.9396 32.3277
" />
<path d="M46.9396 32.3277
L47.0158 32.3658
" />
<path d="M47.0158 32.3658
L47.0539 32.4039
" />
<path d="M47.0539 32.4039
L47.0920 32.4801
" />
<path d="M47.0920 32.4801
L47.1301 32.6325
" />
<path d="M47.1301 32.6325
L47.1301 32.8229
" />
<path d="M47.1301 32.8229
L47.0920 32.9753
" />
<path d="M47.0920 32.9753
L47.0539 33.0515
" />
<path d="M47.0539 33.0515
L47.0158 33.0896
" />
<path d="M47.0158 33.0896
L46.9396 33.1277
" />
<path d="M46.9396 33.1277
L46.8634 33.1277
" />
<path d="M46.8634 33.1277
L46.7872 33.0896
" />
<path d="M46.7872 33.0896
L46.7491 33.0515
" />
<path d="M46.7491 33.0515
L46.7110 32.9753
" />
<path d="M46.7110 32.9753
L46.6729 32.8229
" />
<path d="M46.6729 32.8229
L46.6729 32.6325
" />
<path d="M46.6729 32.6325
L46.7110 32.4801
" />
<path d="M46.7110 32.4801
L46.7491 32.4039
" />
<path d="M46.7491 32.4039
L46.7872 32.3658
" />
<path d="M46.7872 32.3658
L46.8634 32.3277
" />
</g><text x="43.9872" y="34.9000"
textLength="4.3257" font-size="1.0667" lengthAdjust="spacingAndGlyphs"
text-anchor="middle" opacity="0" stroke-opacity="0">06/26</text>
<g class="stroked-text"><desc>06/26</desc>
<path d="M42.3872 34.1277
L42.4634 34.1277
" />
<path d="M42.4634 34.1277
L42.5396 34.1658
" />
<path d="M42.5396 34.1658
L42.5777 34.2039
" />
<path d="M42.5777 34.2039
L42.6158 34.2801
" />
<path d="M42.6158 34.2801
L42.6539 34.4325
" />
<path d="M42.6539 34.4325
L42.6539 34.6229
" />
<path d="M42.6539 34.6229
L42.6158 34.7753
" />
<path d="M42.6158 34.7753
L42.5777 34.8515
" />
<path d="M42.5777 34.8515
L42.5396 34.8896
" />
<path d="M42.5396 34.8896
L42.4634 34.9277
" />
<path d="M42.4634 34.9277
L42.3872 34.9277
" />
<path d="M42.3872 34.9277
L42.3110 34.8896
" />
<path d="M42.3110 34.8896
L42.2729 34.8515
" />
<path d="M42.2729 34.8515
L42.2348 34.7753
" />
<path d="M42.2348 34.7753
L42.1967 34.6229
" />
<path d="M42.1967 34.6229
L42.1967 34.4325
" />
<path d="M42.1967 34.4325
L42.2348 34.2801
" />
<path d="M42.2348 34.2801
L42.2729 34.2039
" />
<path d="M42.2729 34.2039
L42.3110 34.1658
" />
<path d="M42.3110 34.1658
L42.3872 34.1277
" />
<path d="M43.3396 34.1277
L43.1872 34.1277
" />
<path d="M43.1872 34.1277
L43.1110 34.1658
" />
<path d="M43.1110 34.1658
L43.0729 34.2039
" />
<path d="M43.0729 34.2039
L42.9967 34.3182
" />
<path d="M42.9967 34.3182
L42.9586 34.4706
" />
<path d="M42.9586 34.4706
L42.9586 34.7753
" />
<path d="M42.9586 34.7753
L42.9967 34.8515
" />
<path d="M42.9967 34.8515
L43.0348 34.8896
" />
<path d="M43.0348 34.8896
L43.1110 34.9277
" />
<path d="M43.1110 34.9277
L43.2634 34.9277
" />
<path d="M43.2634 34.9277
L43.3396 34.8896
" />
<path d="M43.3396 34.8896
L43.3777 34.8515
" />
<path d="M43.3777 34.8515
L43.4158 34.7753
" />
<path d="M43.4158 34.7753
L43.4158 34.5848
" />
<path d="M43.4158 34.5848
L43.3777 34.5086
" />
<path d="M43.3777 34.5086
L43.3396 34.4706
" />
<path d="M43.3396 34.4706
L43.2634 34.4325
" />
<path d="M43.2634 34.4325
L43.1110 34.4325
" />
<path d="M43.1110 34.4325
L43.0348 34.4706
" />
<path d="M43.0348 34.4706
L42.9967 34.5086
" />
<path d="M42.9967 34.5086
L42.9586 34.5848
" />
<path d="M44.3301 34.0896
L43.6443 35.1182
" />
<path d="M44.5586 34.2039
L44.5967 34.1658
" />
<path d="M44.5967 34.1658
L44.6729 34.1277
" />
<path d="M44.6729 34.1277
L44.8634 34.1277
" />
<path d="M44.8634 34.1277
L44.9396 34.1658
" />
<path d="M44.9396 34.1658
L44.9777 34.2039
" />
<path d="M44.9777 34.2039
L45.0158 34.2801
" />
<path d="M45.0158 34.2801
L45.0158 34.3563
" />
<path d="M45.0158 34.3563
L44.9777 34.4706
" />
<path d="M44.9777 34.4706
L44.5205 34.9277
" />
<path d="M44.5205 34.9277
L45.0158 34.9277
" />
<path d="M45.7015 34.1277
L45.5491 34.1277
" />
<path d="M45.5491 34.1277
L45.4729 34.1658
" />
<path d="M45.4729 34.1658
L45.4348 34.2039
" />
<path d="M45.4348 34.2039
L45.3586 34.3182
" />
<path d="M45.3586 34.3182
L45.3205 34.4706
" />
<path d="M45.3205 34.4706
L45.3205 34.7753
" />
<path d="M45.3205 34.7753
L45.3586 34.8515
" />
<path d="M45.3586 34.8515
L45.3967 34.8896
" />
<path d="M45.3967 34.8896
L45.4729 34.9277
" />
<path d="M45.4729 34.9277
L45.6253 34.9277
" />
<path d="M45.6253 34.9277
L45.7015 34.8896
" />
<path d="M45.7015 34.8896
L45.7396 34.8515
" />
<path d="M45.7396 34.8515
L45.7777 34.7753
" />
<path d="M45.7777 34.7753
L45.7777 34.5848
" />
<path d="M45.7777 34.5848
L45.7396 34.5086
" />
<path d="M45.7396 34.5086
L45.7015 34.4706
" />
<path d="M45.7015 34.4706
L45.6253 34.4325
" />
<path d="M45.6253 34.4325
L45.4729 34.4325
" />
<path d="M45.4729 34.4325
L45.3967 34.4706
" />
<path d="M45.3967 34.4706
L45.3586 34.5086
" />
<path d="M45.3586 34.5086
L45.3205 34.5848
" />
</g><g transform="rotate(90.000000 30.1822 9.6200)">
<text x="30.1822" y="10.4200"
textLength="4.4019" font-size="1.0667" lengthAdjust="spacingAndGlyphs"
text-anchor="middle" opacity="0" stroke-opacity="0">8-60V</text>
</g>
<g class="stroked-text"><desc>8-60V</desc>
<path d="M29.8116 7.9438
L29.8497 7.8676
" />
<path d="M29.8497 7.8676
L29.8878 7.8295
" />
<path d="M29.8878 7.8295
L29.9640 7.7914
" />
<path d="M29.9640 7.7914
L30.0021 7.7914
" />
<path d="M30.0021 7.7914
L30.0783 7.8295
" />
<path d="M30.0783 7.8295
L30.1164 7.8676
" />
<path d="M30.1164 7.8676
L30.1545 7.9438
" />
<path d="M30.1545 7.9438
L30.1545 8.0962
" />
<path d="M30.1545 8.0962
L30.1164 8.1724
" />
<path d="M30.1164 8.1724
L30.0783 8.2105
" />
<path d="M30.0783 8.2105
L30.0021 8.2486
" />
<path d="M30.0021 8.2486
L29.9640 8.2486
" />
<path d="M29.9640 8.2486
L29.8878 8.2105
" />
<path d="M29.8878 8.2105
L29.8497 8.1724
" />
<path d="M29.8497 8.1724
L29.8116 8.0962
" />
<path d="M29.8116 8.0962
L29.8116 7.9438
" />
<path d="M29.8116 7.9438
L29.7736 7.8676
" />
<path d="M29.7736 7.8676
L29.7355 7.8295
" />
<path d="M29.7355 7.8295
L29.6593 7.7914
" />
<path d="M29.6593 7.7914
L29.5069 7.7914
" />
<path d="M29.5069 7.7914
L29.4307 7.8295
" />
<path d="M29.4307 7.8295
L29.3926 7.8676
" />
<path d="M29.3926 7.8676
L29.3545 7.9438
" />
<path d="M29.3545 7.9438
L29.3545 8.0962
" />
<path d="M29.3545 8.0962
L29.3926 8.1724
" />
<path d="M29.3926 8.1724
L29.4307 8.2105
" />
<path d="M29.4307 8.2105
L29.5069 8.2486
" />
<path d="M29.5069 8.2486
L29.6593 8.2486
" />
<path d="M29.6593 8.2486
L29.7355 8.2105
" />
<path d="M29.7355 8.2105
L29.7736 8.1724
" />
<path d="M29.7736 8.1724
L29.8116 8.0962
" />
<path d="M29.6593 8.5914
L29.6593 9.2010
" />
<path d="M30.1545 9.9248
L30.1545 9.7724
" />
<path d="M30.1545 9.7724
L30.1164 9.6962
" />
<path d="M30.1164 9.6962
L30.0783 9.6581
" />
<path d="M30.0783 9.6581
L29.9640 9.5819
" />
<path d="M29.9640 9.5819
L29.8116 9.5438
" />
<path d="M29.8116 9.5438
L29.5069 9.5438
" />
<path d="M29.5069 9.5438
L29.4307 9.5819
" />
<path d="M29.4307 9.5819
L29.3926 9.6200
" />
<path d="M29.3926 9.6200
L29.3545 9.6962
" />
<path d="M29.3545 9.6962
L29.3545 9.8486
" />
<path d="M29.3545 9.8486
L29.3926 9.9248
" />
<path d="M29.3926 9.9248
L29.4307 9.9629
" />
<path d="M29.4307 9.9629
L29.5069 10.0010
" />
<path d="M29.5069 10.0010
L29.6974 10.0010
" />
<path d="M29.6974 10.0010
L29.7736 9.9629
" />
<path d="M29.7736 9.9629
L29.8116 9.9248
" />
<path d="M29.8116 9.9248
L29.8497 9.8486
" />
<path d="M29.8497 9.8486
L29.8497 9.6962
" />
<path d="M29.8497 9.6962
L29.8116 9.6200
" />
<path d="M29.8116 9.6200
L29.7736 9.5819
" />
<path d="M29.7736 9.5819
L29.6974 9.5438
" />
<path d="M30.1545 10.4962
L30.1545 10.5724
" />
<path d="M30.1545 10.5724
L30.1164 10.6486
" />
<path d="M30.1164 10.6486
L30.0783 10.6867
" />
<path d="M30.0783 10.6867
L30.0021 10.7248
" />
<path d="M30.0021 10.7248
L29.8497 10.7629
" />
<path d="M29.8497 10.7629
L29.6593 10.7629
" />
<path d="M29.6593 10.7629
L29.5069 10.7248
" />
<path d="M29.5069 10.7248
L29.4307 10.6867
" />
<path d="M29.4307 10.6867
L29.3926 10.6486
" />
<path d="M29.3926 10.6486
L29.3545 10.5724
" />
<path d="M29.3545 10.5724
L29.3545 10.4962
" />
<path d="M29.3545 10.4962
L29.3926 10.4200
" />
<path d="M29.3926 10.4200
L29.4307 10.3819
" />
<path d="M29.4307 10.3819
L29.5069 10.3438
" />
<path d="M29.5069 10.3438
L29.6593 10.3057
" />
<path d="M29.6593 10.3057
L29.8497 10.3057
" />
<path d="M29.8497 10.3057
L30.0021 10.3438
" />
<path d="M30.0021 10.3438
L30.0783 10.3819
" />
<path d="M30.0783 10.3819
L30.1164 10.4200
" />
<path d="M30.1164 10.4200
L30.1545 10.4962
" />
<path d="M30.1545 10.9914
L29.3545 11.2581
" />
<path d="M29.3545 11.2581
L30.1545 11.5248
" />
</g></g>
<g style="fill:none; 
stroke:#D0D2CD; stroke-width:0.1000; stroke-opacity:1; 
stroke-linecap:round; stroke-linejoin:round;">
<path d="M49.9872 3.0000 A3.0011 3.0011 0.0 0 0 46.9872 0.0000" />
<path d="M49.9872 42.0000
L49.9872 3.0000
" />
<path d="M46.9872 0.0000
L2.9872 0.0000
" />
<path d="M46.9872 45.0000 A3.0011 3.0011 0.0 0 0 49.9872 42.0000" />
<path d="M2.9872 0.0000 A3.0011 3.0011 0.0 0 0 -0.0128 3.0000" />
<path d="M2.9872 45.0000
L46.9872 45.0000
" />
<path d="M-0.0128 3.0000
L-0.0128 42.0000
" />
<path d="M-0.0128 42.0000 A3.0011 3.0011 0.0 0 0 2.9872 45.0000" />
</g>
<g style="fill:#FFFFFF; fill-opacity:1.0000; stroke:none;">
<circle cx="22.5372" cy="17.7500" r="0.1250" /> 
<circle cx="24.1372" cy="19.3500" r="0.1250" /> 
<circle cx="22.3872" cy="30.1500" r="0.1250" /> 
<circle cx="22.3872" cy="23.6500" r="0.1250" /> 
<circle cx="28.0121" cy="19.1344" r="0.1500" /> 
<circle cx="21.9872" cy="37.3500" r="0.1250" /> 
<circle cx="21.9872" cy="12.8509" r="0.1500" /> 
<circle cx="36.9872" cy="28.7000" r="0.1500" /> 
<circle cx="28.9872" cy="22.0000" r="0.1500" /> 
<circle cx="15.3872" cy="25.0000" r="0.1500" /> 
<circle cx="33.3872" cy="19.1000" r="0.1500" /> 
<circle cx="15.3872" cy="5.3000" r="0.1500" /> 
<circle cx="40.3172" cy="13.0000" r="0.1500" /> 
<circle cx="19.1872" cy="41.5000" r="0.1250" /> 
<circle cx="35.3172" cy="38.0000" r="0.1500" /> 
<circle cx="27.0247" cy="35.0000" r="0.1500" /> 
<circle cx="24.7372" cy="24.1000" r="0.1500" /> 
<circle cx="24.4872" cy="37.2470" r="0.1250" /> 
<circle cx="32.1872" cy="9.7500" r="0.1500" /> 
<circle cx="24.5872" cy="13.0500" r="0.1500" /> 
<circle cx="34.6372" cy="22.8000" r="0.1500" /> 
<circle cx="29.7872" cy="12.9500" r="0.1500" /> 
<circle cx="27.3872" cy="12.9000" r="0.1500" /> 
<circle cx="25.8372" cy="12.9000" r="0.1500" /> 
<circle cx="34.9872" cy="29.9500" r="0.1500" /> 
<circle cx="33.7372" cy="31.2000" r="0.1500" /> 
<circle cx="25.3872" cy="20.5500" r="0.1500" /> 
<circle cx="24.4872" cy="41.4470" r="0.1250" /> 
<circle cx="26.7072" cy="29.4500" r="0.1250" /> 
<circle cx="31.2872" cy="24.8500" r="0.1250" /> 
<circle cx="31.2872" cy="26.0500" r="0.1250" /> 
<circle cx="26.7072" cy="25.5000" r="0.1250" /> 
<circle cx="31.9372" cy="25.5000" r="0.1500" /> 
<circle cx="32.2872" cy="27.1000" r="0.1500" /> 
<circle cx="28.8872" cy="17.5000" r="0.1500" /> 
<circle cx="30.7372" cy="15.6500" r="0.1500" /> 
<circle cx="31.5872" cy="12.1500" r="0.1500" /> 
<circle cx="21.4872" cy="26.7000" r="0.1500" /> 
<circle cx="21.4872" cy="24.8500" r="0.1500" /> 
<circle cx="14.7872" cy="17.5000" r="0.1500" /> 
<circle cx="27.9372" cy="23.8500" r="0.1500" /> 
<circle cx="21.6872" cy="21.4000" r="0.1500" /> 
<circle cx="12.7872" cy="17.5000" r="0.1500" /> 
<circle cx="33.8872" cy="21.1500" r="0.1250" /> 
<circle cx="34.6372" cy="23.6500" r="0.1250" /> 
<circle cx="34.3372" cy="20.7000" r="0.1250" /> 
<circle cx="35.0872" cy="24.1000" r="0.1250" /> 
<circle cx="23.1372" cy="22.9000" r="0.1500" /> 
<circle cx="32.9372" cy="30.4000" r="0.1500" /> 
<circle cx="26.0372" cy="24.8500" r="0.1500" /> 
<circle cx="29.2872" cy="24.6000" r="0.1500" /> 
<circle cx="21.9372" cy="6.9500" r="0.1500" /> 
<circle cx="30.0372" cy="23.8500" r="0.1500" /> 
<circle cx="27.3372" cy="24.8500" r="0.1500" /> 
<circle cx="25.8372" cy="11.4000" r="0.1500" /> 
<circle cx="25.0372" cy="12.4500" r="0.1500" /> 
<circle cx="26.7872" cy="15.3000" r="0.1500" /> 
<circle cx="25.9372" cy="14.4500" r="0.1500" /> 
<circle cx="33.3372" cy="11.2500" r="0.1500" /> 
<circle cx="29.5372" cy="13.7000" r="0.1500" /> 
<circle cx="33.9872" cy="14.1000" r="0.1500" /> 
<circle cx="33.9872" cy="10.3500" r="0.1500" /> 
<circle cx="33.8872" cy="15.3000" r="0.1250" /> 
<circle cx="37.0872" cy="11.4000" r="0.1250" /> 
</g>
<g style="fill:#000000; fill-opacity:1.0000; stroke:none;">
<circle cx="45.9872" cy="4.0000" r="1.6000" /> 
<circle cx="3.9872" cy="4.0000" r="1.6000" /> 
</g>
<g style="fill:#FFFFFF; fill-opacity:1.0000; stroke:none;">
<circle cx="44.4872" cy="24.5000" r="0.6500" /> 
</g>
<g style="fill:#FFFFFF; fill-opacity:1.0000; stroke:none;">
<circle cx="44.4872" cy="19.5000" r="0.6500" /> 
</g>
<g style="fill:#FFFFFF; fill-opacity:1.0000; stroke:none;">
<circle cx="4.9872" cy="32.5000" r="0.6500" /> 
</g>
<g style="fill:#FFFFFF; fill-opacity:1.0000; stroke:none;">
<circle cx="4.9872" cy="27.5000" r="0.6500" /> 
</g>
<g style="fill:#FFFFFF; fill-opacity:1.0000; stroke:none;">
<circle cx="4.9872" cy="22.5000" r="0.6500" /> 
</g>
<g style="fill:#FFFFFF; fill-opacity:1.0000; stroke:none;">
<circle cx="4.9872" cy="17.5000" r="0.6500" /> 
</g>
<g style="fill:#FFFFFF; fill-opacity:1.0000; stroke:none;">
<circle cx="4.9872" cy="12.5000" r="0.6500" /> 
</g>
<g style="fill:#FFFFFF; fill-opacity:1.0000; stroke:none;">
<circle cx="30.4871" cy="21.5001" r="0.1500" /> 
</g>
<g style="fill:#FFFFFF; fill-opacity:1.0000; stroke:none;">
<circle cx="30.4871" cy="22.5001" r="0.1500" /> 
</g>
<g style="fill:#FFFFFF; fill-opacity:1.0000; stroke:none;">
<circle cx="29.4871" cy="21.5001" r="0.1500" /> 
</g>
<g style="fill:#FFFFFF; fill-opacity:1.0000; stroke:none;">
<circle cx="29.4871" cy="22.5001" r="0.1500" /> 
</g>
<g style="fill:#FFFFFF; fill-opacity:1.0000; stroke:none;">
<circle cx="28.4871" cy="21.5001" r="0.1500" /> 
</g>
<g style="fill:#FFFFFF; fill-opacity:1.0000; stroke:none;">
<circle cx="28.4871" cy="22.5001" r="0.1500" /> 
</g>
<g style="fill:#FFFFFF; fill-opacity:1.0000; stroke:none;">
<circle cx="27.4871" cy="21.5001" r="0.1500" /> 
</g>
<g style="fill:#FFFFFF; fill-opacity:1.0000; stroke:none;">
<circle cx="27.4871" cy="22.5001" r="0.1500" /> 
</g>
<g style="fill:#000000; fill-opacity:1.0000; stroke:none;">
<circle cx="45.9872" cy="41.0000" r="1.6000" /> 
</g>
<g style="fill:#FFFFFF; fill-opacity:1.0000; stroke:none;">
<circle cx="38.6072" cy="3.7300" r="0.5000" /> 
</g>
<g style="fill:#FFFFFF; fill-opacity:1.0000; stroke:none;">
<circle cx="38.6072" cy="6.2700" r="0.5000" /> 
</g>
<g style="fill:#FFFFFF; fill-opacity:1.0000; stroke:none;">
<circle cx="36.0672" cy="3.7300" r="0.5000" /> 
</g>
<g style="fill:#FFFFFF; fill-opacity:1.0000; stroke:none;">
<circle cx="36.0672" cy="6.2700" r="0.5000" /> 
</g>
<g style="fill:#FFFFFF; fill-opacity:1.0000; stroke:none;">
<circle cx="33.5272" cy="3.7300" r="0.5000" /> 
</g>
<g style="fill:#FFFFFF; fill-opacity:1.0000; stroke:none;">
<circle cx="33.5272" cy="6.2700" r="0.5000" /> 
</g>
<g style="fill:#FFFFFF; fill-opacity:1.0000; stroke:none;">
<circle cx="30.9872" cy="3.7300" r="0.5000" /> 
</g>
<g style="fill:#FFFFFF; fill-opacity:1.0000; stroke:none;">
<circle cx="30.9872" cy="6.2700" r="0.5000" /> 
</g>
<g style="fill:#FFFFFF; fill-opacity:1.0000; stroke:none;">
<circle cx="28.4472" cy="3.7300" r="0.5000" /> 
</g>
<g style="fill:#FFFFFF; fill-opacity:1.0000; stroke:none;">
<circle cx="28.4472" cy="6.2700" r="0.5000" /> 
</g>
<g style="fill:#FFFFFF; fill-opacity:1.0000; stroke:none;">
<circle cx="25.9072" cy="3.7300" r="0.5000" /> 
</g>
<g style="fill:#FFFFFF; fill-opacity:1.0000; stroke:none;">
<circle cx="25.9072" cy="6.2700" r="0.5000" /> 
</g>
<g style="fill:#FFFFFF; fill-opacity:1.0000; stroke:none;">
<circle cx="23.3672" cy="3.7300" r="0.5000" /> 
</g>
<g style="fill:#FFFFFF; fill-opacity:1.0000; stroke:none;">
<circle cx="23.3672" cy="6.2700" r="0.5000" /> 
</g>
<g style="fill:#000000; fill-opacity:1.0000; stroke:none;">
<circle cx="3.9872" cy="41.0000" r="1.6000" /> 
</g> 
</svg>
